<svg width="24" height="24" viewBox="0 0 24 24" fill="none" xmlns="http://www.w3.org/2000/svg">
<path d="M12.7199 15.7799C12.5793 15.9206 12.3887 15.9997 12.1899 15.9999H11.8099C11.6114 15.9976 11.4216 15.9188 11.2799 15.7799L6.14985 10.6399C6.0552 10.546 6.00195 10.4182 6.00195 10.2849C6.00195 10.1516 6.0552 10.0238 6.14985 9.92992L6.85985 9.21992C6.95202 9.12586 7.07816 9.07285 7.20985 9.07285C7.34154 9.07285 7.46769 9.12586 7.55985 9.21992L11.9999 13.6699L16.4399 9.21992C16.5337 9.12526 16.6615 9.07202 16.7949 9.07202C16.9282 9.07202 17.056 9.12526 17.1499 9.21992L17.8499 9.92992C17.9445 10.0238 17.9978 10.1516 17.9978 10.2849C17.9978 10.4182 17.9445 10.546 17.8499 10.6399L12.7199 15.7799Z" fill="white"/>
</svg>
