<svg width="24" height="24" viewBox="0 0 24 24" fill="none" xmlns="http://www.w3.org/2000/svg">
<path d="M7.86079 11.0601C7.81393 11.0136 7.77673 10.9583 7.75134 10.8973C7.72596 10.8364 7.71289 10.7711 7.71289 10.7051C7.71289 10.639 7.72596 10.5737 7.75134 10.5128C7.77673 10.4518 7.81393 10.3965 7.86079 10.3501L8.06079 10.1501C8.10733 10.1017 8.1633 10.0635 8.22522 10.0377C8.28715 10.0119 8.35371 9.99908 8.42079 10.0001H15.5808C15.6479 9.99908 15.7144 10.0119 15.7764 10.0377C15.8383 10.0635 15.8942 10.1017 15.9408 10.1501L16.1408 10.3501C16.1877 10.3965 16.2249 10.4518 16.2502 10.5128C16.2756 10.5737 16.2887 10.639 16.2887 10.7051C16.2887 10.7711 16.2756 10.8364 16.2502 10.8973C16.2249 10.9583 16.1877 11.0136 16.1408 11.0601L12.3508 14.8501C12.3059 14.8979 12.2517 14.936 12.1915 14.9621C12.1313 14.9881 12.0664 15.0016 12.0008 15.0016C11.9352 15.0016 11.8703 14.9881 11.8101 14.9621C11.7499 14.936 11.6957 14.8979 11.6508 14.8501L7.86079 11.0601Z" fill="#2A404F"/>
</svg>
