<svg width="16" height="16" viewBox="0 0 16 16" fill="none" xmlns="http://www.w3.org/2000/svg">
<path d="M8.48055 10.5198C8.38688 10.6136 8.25978 10.6663 8.12722 10.6665H7.87389C7.74161 10.6649 7.61503 10.6124 7.52055 10.5198L4.10055 7.09312C4.03745 7.03053 4.00195 6.94533 4.00195 6.85645C4.00195 6.76757 4.03745 6.68237 4.10055 6.61978L4.57389 6.14645C4.63533 6.08374 4.71943 6.0484 4.80722 6.0484C4.89501 6.0484 4.97911 6.08374 5.04055 6.14645L8.00055 9.11312L10.9606 6.14645C11.0231 6.08335 11.1083 6.04785 11.1972 6.04785C11.2861 6.04785 11.3713 6.08335 11.4339 6.14645L11.9006 6.61978C11.9637 6.68237 11.9992 6.76757 11.9992 6.85645C11.9992 6.94533 11.9637 7.03053 11.9006 7.09312L8.48055 10.5198Z" fill="#FF7707"/>
</svg>
