<svg width="16" height="16" viewBox="0 0 16 16" fill="none" xmlns="http://www.w3.org/2000/svg">
<path d="M10.5205 8.47903C10.567 8.43266 10.6039 8.37757 10.629 8.3169C10.6542 8.25624 10.6671 8.1912 10.667 8.12553V7.87253C10.6655 7.73453 10.61 7.61003 10.5205 7.51903L7.09399 4.09904C7.06306 4.06767 7.0262 4.04276 6.98556 4.02576C6.94491 4.00875 6.9013 4 6.85724 4C6.81319 4 6.76957 4.00875 6.72893 4.02576C6.68828 4.04276 6.65142 4.06767 6.62049 4.09904L6.14699 4.57254C6.11583 4.60287 6.09106 4.63913 6.07415 4.67919C6.05724 4.71926 6.04853 4.7623 6.04853 4.80579C6.04853 4.84927 6.05724 4.89231 6.07415 4.93238C6.09106 4.97244 6.11583 5.0087 6.14699 5.03904L9.11399 7.99903L6.14699 10.959C6.11562 10.99 6.09071 11.0268 6.07371 11.0675C6.05671 11.1081 6.04796 11.1517 6.04796 11.1958C6.04796 11.2398 6.05671 11.2835 6.07371 11.3241C6.09071 11.3647 6.11562 11.4016 6.14699 11.4325L6.62049 11.899C6.65142 11.9304 6.68828 11.9553 6.72893 11.9723C6.76957 11.9893 6.81319 11.9981 6.85724 11.9981C6.9013 11.9981 6.94491 11.9893 6.98556 11.9723C7.0262 11.9553 7.06306 11.9304 7.09399 11.899L10.5205 8.47903Z" fill="#2A404F"/>
</svg>
