<svg width="93" height="95" viewBox="0 0 93 95" fill="none" xmlns="http://www.w3.org/2000/svg">
<path d="M7.39419 54.5051C8.14855 53.54 9.00802 52.6491 9.9546 51.8712C10.3296 51.5634 10.7594 51.2536 11.0382 51.0694C11.5315 50.7469 11.8484 50.5512 12.46 50.241C14.6231 49.1414 17.1088 48.5194 19.5539 48.3132C25.2841 47.8277 31.0581 49.9714 35.333 53.7571C39.3831 57.3459 42.2187 62.425 42.103 67.9313C42.0504 70.3704 41.4858 72.8971 40.09 74.9304C39.8366 75.2995 39.5509 75.6545 39.2292 75.9595C39.0051 76.173 39.1597 76.0449 38.8997 76.2197C38.956 76.1805 39.0048 76.1347 39.0659 76.1027C39.3001 75.9803 38.7157 76.2434 38.9443 76.158C38.0392 76.4915 37.076 76.6771 36.0885 76.6448C31.3276 76.4955 27.1502 72.9835 24.8122 69.0454C22.1654 64.5862 21.5934 59.0369 22.4352 53.9924C23.3024 48.7877 25.6708 43.7888 29.2979 39.94C30.1152 39.0718 30.9982 38.2528 31.9392 37.5233C32.8684 36.8026 33.8074 36.166 34.7309 35.6415C36.9694 34.3726 39.363 33.4329 41.8408 32.7391C53.7428 29.408 66.4454 32.5536 77.1092 38.2174C78.5736 38.9956 80.0053 39.8267 81.4144 40.7007C82.0632 41.1022 83.2604 40.2629 83.7949 39.9194C83.9477 39.8216 85.9298 38.3486 85.4955 38.08C73.8589 30.864 59.8765 26.4148 46.2005 29.636C33.9435 32.5225 22.2693 41.0406 18.8866 53.622C17.4099 59.1179 17.5694 65.3701 20.1186 70.5416C22.3539 75.077 27.0621 79.2765 32.3307 79.4545C38.3101 79.6552 44.2357 74.9419 45.7365 69.2336C47.2673 63.4149 45.1787 57.3486 41.2578 52.9694C37.0688 48.2898 30.8993 45.3755 24.5921 45.436C18.031 45.4978 11.6162 48.4071 6.76484 52.7501C5.57411 53.815 4.50619 54.9777 3.52474 56.2351C2.86553 57.0781 4.47153 56.598 4.72067 56.4887C5.72714 56.0457 6.71415 55.3763 7.39419 54.5051Z" fill="#18A694"/>
<path d="M72.4287 43.999C76.5986 43.3051 80.7667 42.6102 84.9365 41.9162C85.4968 41.8229 89.0099 39.8019 88.4681 39.079C84.5903 33.9225 80.7126 28.7661 76.8364 23.6105C76.3267 22.9331 72.3982 25.7786 72.8724 26.4087C76.7502 31.5652 80.628 36.7217 84.5041 41.8772C85.6816 40.9324 86.8573 39.9865 88.0357 39.04C83.8659 39.734 79.6978 40.4289 75.5279 41.1228C74.5066 41.2928 73.4331 42.1856 72.7007 42.872C72.4179 43.1367 71.4416 44.1641 72.4287 43.999Z" fill="#18A694"/>
</svg>
