<svg width="78" height="81" viewBox="0 0 78 81" fill="none" xmlns="http://www.w3.org/2000/svg">
<path d="M5.67377 50.2169C6.2362 49.3036 6.89732 48.4445 7.64526 47.6754C7.94156 47.3709 8.28543 47.0594 8.51015 46.8721C8.90793 46.5433 9.16465 46.3421 9.66664 46.0126C11.4419 44.8449 13.5444 44.0614 15.6521 43.6437C20.5914 42.6629 25.825 43.9658 29.9139 46.8437C33.7881 49.5721 36.7506 53.7158 37.1864 58.5188C37.3784 60.6465 37.1332 62.9002 36.1167 64.8057C35.9321 65.1516 35.7181 65.4883 35.4678 65.7851C35.2936 65.9927 35.4157 65.8662 35.2065 66.0436C35.2516 66.004 35.2896 65.9594 35.3396 65.9256C35.5316 65.7963 35.0486 66.0822 35.2392 65.9856C34.4841 66.364 33.664 66.6194 32.8015 66.6875C28.6439 67.0215 24.6665 64.3722 22.2481 61.173C19.5103 57.5504 18.4718 52.777 18.7129 48.3052C18.9603 43.6914 20.5344 39.1105 23.3158 35.4078C23.9423 34.5726 24.6309 33.7738 25.3788 33.0473C26.1172 32.3296 26.8723 31.6841 27.6248 31.1377C29.4492 29.8154 31.4405 28.7644 33.5292 27.9192C43.562 23.8606 54.9226 25.3603 64.7544 29.25C66.1046 29.7846 67.4315 30.3683 68.7429 30.9916C69.3466 31.2778 70.3067 30.4307 70.7383 30.0797C70.8618 29.9797 72.4431 28.5048 72.039 28.3133C61.2094 23.1677 48.608 20.6583 37.0207 24.794C26.6357 28.5002 17.3065 37.0504 15.5887 48.3286C14.8392 53.2552 15.5871 58.6805 18.3094 62.9325C20.6965 66.6614 25.2029 69.8572 29.8051 69.4987C35.0281 69.0907 39.7255 64.4117 40.4753 59.298C41.2405 54.0853 38.8318 49.0097 34.993 45.5809C30.8917 41.9168 25.2389 39.9818 19.7561 40.649C14.0525 41.3421 8.75373 44.4989 4.95509 48.751C4.02265 49.7937 3.20661 50.9096 2.47505 52.0995C1.98352 52.8972 3.33433 52.323 3.54048 52.2035C4.37317 51.72 5.16687 51.0413 5.67377 50.2169Z" fill="white"/>
<path d="M61.2452 34.7374C64.8063 33.7272 68.3658 32.7164 71.9268 31.7062C72.4053 31.5704 75.2656 29.4693 74.7237 28.8931C70.8467 24.7836 66.9697 20.6742 63.0943 16.5654C62.5847 16.0255 59.4432 18.8846 59.9174 19.3867C63.7944 23.4962 67.6713 27.6056 71.5468 31.7144C72.4793 30.7774 73.4103 29.8398 74.3436 28.9013C70.7825 29.9115 67.223 30.9223 63.662 31.9325C62.7897 32.1799 61.9425 33.0615 61.3721 33.7302C61.1517 33.9881 60.4022 34.9773 61.2452 34.7374Z" fill="white"/>
</svg>
