<svg width="62" height="52" viewBox="0 0 62 52" fill="none" xmlns="http://www.w3.org/2000/svg">
<path d="M57.6064 9.62066C57.0941 18.6405 52.8539 27.256 46.1142 33.2577C39.3527 39.2801 30.4395 41.7878 21.4656 40.6885C16.2841 40.0534 11.2436 38.2392 6.90811 35.321C6.26344 34.8879 5.32131 35.1236 4.67215 35.4403C4.37536 35.5846 3.19655 36.3817 3.83449 36.8122C12.2755 42.4921 23.0757 44.2312 32.9431 41.8665C42.7677 39.5121 51.2649 33.1958 56.2924 24.4172C58.9889 19.7075 60.6502 14.4072 60.9579 8.98286C61.0345 7.6786 57.6698 8.50196 57.6064 9.62066Z" fill="white"/>
<path d="M10.1062 33.026C7.30514 33.2237 4.50271 33.4211 1.70165 33.6187C1.32233 33.6449 1.5435 34.707 1.57178 34.8265C1.71518 35.4572 1.9857 36.0565 2.38345 36.5691C4.46306 39.2511 6.5413 41.9329 8.6207 44.6162C9.03016 45.1448 9.439 44.92 9.42691 44.304C9.40901 43.4882 9.02163 42.6262 8.52951 41.9895C6.44989 39.3075 4.37168 36.6258 2.29228 33.9424C2.51862 34.9257 2.74634 35.9092 2.97408 36.8928C5.77513 36.6951 8.57757 36.4977 11.3786 36.3001C11.9852 36.2567 11.1682 32.9512 10.1062 33.026Z" fill="white"/>
</svg>
