<svg width="82" height="85" viewBox="0 0 82 85" fill="none" xmlns="http://www.w3.org/2000/svg">
<path d="M75.6767 33.8865C75.0467 34.7989 74.3177 35.65 73.504 36.4036C73.1816 36.7018 72.8098 37.0048 72.5677 37.1861C72.1393 37.504 71.8634 37.6978 71.3273 38.0109C69.4315 39.1203 67.2185 39.8154 65.0201 40.1327C59.868 40.8782 54.5355 39.2501 50.47 36.058C46.618 33.0318 43.7837 28.5939 43.5935 23.6119C43.5104 21.405 43.8854 19.0916 45.0378 17.1794C45.2471 16.8323 45.4862 16.4963 45.7606 16.2034C45.9517 15.9985 45.8188 16.1226 46.0444 15.9507C45.9957 15.9891 45.954 16.0331 45.9005 16.0653C45.6954 16.1885 46.2094 15.9194 46.0074 16.0088C46.8075 15.659 47.6679 15.4397 48.562 15.416C52.8722 15.2961 56.835 18.2461 59.1586 21.6796C61.7891 25.5674 62.603 30.5514 62.1124 35.1549C61.6074 39.9045 59.7347 44.5486 56.6631 48.2206C55.9711 49.049 55.2171 49.8364 54.4058 50.546C53.6046 51.2469 52.7902 51.8724 51.9837 52.3958C50.0289 53.6623 47.9163 54.6396 45.7143 55.3992C35.1375 59.0465 23.4904 56.884 13.5509 52.3368C12.1859 51.712 10.8477 51.0376 9.52759 50.3232C8.91976 49.9951 7.88285 50.8177 7.41826 51.1567C7.28542 51.2532 5.57317 52.6904 5.97996 52.9099C16.8817 58.8076 29.755 62.0797 41.9409 58.4367C52.8623 55.1722 62.9557 46.8499 65.3389 35.2996C66.3791 30.2543 65.9003 24.613 63.3198 20.0762C61.0571 16.0975 56.5778 12.5547 51.8073 12.6759C46.3933 12.8147 41.2909 17.391 40.2404 22.6296C39.1685 27.9696 41.3806 33.3396 45.1582 37.087C49.1941 41.0914 54.9251 43.3947 60.6214 43.0023C66.547 42.5953 72.1879 39.6229 76.3394 35.4386C77.3584 34.4126 78.2611 33.3047 79.0807 32.1159C79.6313 31.3189 78.2057 31.8387 77.9864 31.9509C77.1007 32.4051 76.2446 33.0628 75.6767 33.8865Z" fill="#FDD13C"/>
<path d="M17.471 46.8612C13.7401 47.7115 10.0108 48.5626 6.27985 49.4129C5.77852 49.5272 2.71216 51.5415 3.24041 52.1658C7.0206 56.6178 10.8008 61.0698 14.5794 65.5211C15.0763 66.106 18.474 63.3243 18.0117 62.7803C14.2315 58.3283 10.4513 53.8762 6.67267 49.425C5.65926 50.3418 4.64743 51.2594 3.63323 52.1778C7.36414 51.3275 11.0935 50.4764 14.8244 49.6261C15.7382 49.4179 16.6605 48.5536 17.2856 47.8941C17.5269 47.6398 18.3542 46.6592 17.471 46.8612Z" fill="#FDD13C"/>
</svg>
