<svg width="72" height="72" viewBox="0 0 72 72" fill="none" xmlns="http://www.w3.org/2000/svg">
<mask id="mask0_1461_36405" style="mask-type:alpha" maskUnits="userSpaceOnUse" x="0" y="0" width="72" height="72">
<circle cx="36.0008" cy="35.9998" r="35.2" fill="#FFE9D6"/>
</mask>
<g mask="url(#mask0_1461_36405)">
<path d="M49.4236 20.6691V16.4371C49.4236 12.2471 46.0271 8.85059 41.8371 8.85059H30.6909C26.5009 8.85059 23.1044 12.2471 23.1044 16.4371V20.7753C23.1044 23.3732 20.9983 25.4793 18.4004 25.4793C18.4004 30.3652 22.3611 34.3259 27.247 34.3259H45.3873C50.2731 34.3259 54.2339 30.3652 54.2339 25.4793C51.5773 25.4792 49.4236 23.3256 49.4236 20.6691V20.6691Z" fill="#2A404F"/>
<path d="M46.3358 43.4941H26.3004C26.2117 43.4941 26.1233 43.4957 26.0352 43.4986C22.738 43.6074 20.1523 46.3808 20.1523 49.6798L20.1523 67.7481C20.497 68.0533 20.8492 68.3469 21.206 68.633C26.5823 71.9614 32.9201 71.1996 39.708 71.1996C44.8878 71.1996 49.8062 70.0804 54.2349 68.0712V51.3933C54.2349 47.0307 50.6984 43.4941 46.3358 43.4941Z" fill="#FDD13C"/>
<path d="M36.317 39.4209C32.0656 39.4209 28.6191 42.8673 28.6191 47.1187C28.6191 49.9485 30.147 52.4201 32.4218 53.7577L36.3619 49.8176L40.2692 53.7249C42.5127 52.3797 44.0148 49.9251 44.0148 47.1189C44.0148 42.8673 40.5684 39.4209 36.317 39.4209V39.4209Z" fill="#FFB401"/>
<path d="M18.4004 51.3931V66.9851C19.3445 67.7042 20.3254 68.3774 21.3411 68.9997V51.3931C21.3411 47.0307 24.8776 43.4941 29.2401 43.4941H26.2994C21.9369 43.494 18.4004 47.0305 18.4004 51.3931Z" fill="#FFB401"/>
<path d="M35.2852 70.9237C36.0038 71.0138 36.7291 71.0821 37.4605 71.1283V47.8164H35.2852V70.9237Z" fill="white"/>
<path d="M37.2012 71.109C37.9205 71.1596 38.646 71.1879 39.3765 71.1946V47.8164H37.2012V71.109Z" fill="#FFB401"/>
<path d="M35.2852 71.566C36.0036 71.6561 36.7292 71.0795 37.4605 71.1255V47.8164H35.2852V71.566Z" fill="white"/>
<path d="M36.3782 65.9507C35.9859 65.9507 35.668 65.6327 35.668 65.2405C35.668 64.8482 35.9859 64.5303 36.3782 64.5303C36.7704 64.5303 37.0884 64.8482 37.0884 65.2405C37.0884 65.6327 36.7704 65.9507 36.3782 65.9507Z" fill="#18A795"/>
<path d="M36.3782 60.3989C35.9859 60.3989 35.668 60.0809 35.668 59.6887C35.668 59.2965 35.9859 58.9785 36.3782 58.9785C36.7704 58.9785 37.0884 59.2965 37.0884 59.6887C37.0884 60.0809 36.7704 60.3989 36.3782 60.3989Z" fill="#18A795"/>
<path d="M36.3782 54.8472C35.9859 54.8472 35.668 54.5292 35.668 54.137C35.668 53.7447 35.9859 53.4268 36.3782 53.4268C36.7704 53.4268 37.0884 53.7447 37.0884 54.137C37.0884 54.5292 36.7704 54.8472 36.3782 54.8472Z" fill="#18A795"/>
<path d="M36.317 37.6523C32.0656 37.6523 28.6191 41.0988 28.6191 45.3502C28.6191 48.18 30.147 50.6515 32.4218 51.9891L36.3619 48.0491L40.2692 51.9564C42.5127 50.6112 44.0148 48.1565 44.0148 45.3503C44.0148 41.0988 40.5684 37.6523 36.317 37.6523V37.6523Z" fill="white"/>
<path d="M41.7612 20.4387H30.7695C28.3047 20.4387 26.3066 19.9538 26.3066 17.4891V10.2969C26.3066 7.83219 28.3047 5.83398 30.7695 5.83398H41.7612C44.226 5.83398 46.224 7.83205 46.224 10.2969V17.489C46.224 19.9538 44.226 20.4387 41.7612 20.4387Z" fill="#2A404F"/>
<path d="M27.6591 14.6606V13.6312C27.6591 10.9904 29.7999 8.84961 32.4406 8.84961H30.3773C27.7365 8.84961 25.5957 10.9904 25.5957 13.6312V14.6606H27.6591Z" fill="#22323E"/>
<path d="M36.3179 47.8173C34.2524 47.8173 32.5781 46.143 32.5781 44.0775V35.7012H40.0576V44.0775C40.0576 46.143 38.3832 47.8173 36.3179 47.8173Z" fill="#FF965A"/>
<path d="M46.8323 19.5934C46.8077 17.1054 44.7838 15.1016 42.2957 15.1016H36.9055C33.8086 15.1016 31.0034 16.3474 28.9609 18.3639V35.1848C28.9609 37.1493 30.0967 38.9527 31.8902 39.7542C33.2104 40.3443 34.673 40.6726 36.2128 40.6726C42.1345 40.6726 46.9351 35.872 46.9351 29.9503L46.8323 19.5934Z" fill="#FFBE82"/>
<path d="M46.9336 28.634V22.3232C48.3084 22.3232 49.4229 23.4378 49.4229 24.8126V26.1447C49.4229 27.5195 48.3084 28.634 46.9336 28.634Z" fill="#FF965A"/>
<path d="M25.5948 28.634V22.3232C24.22 22.3232 23.1055 23.4378 23.1055 24.8126V26.1447C23.1055 27.5195 24.22 28.634 25.5948 28.634Z" fill="#FF965A"/>
<path d="M32.6148 27.7497C32.1264 27.7497 31.7305 27.3538 31.7305 26.8654V24.4468C31.7305 23.9584 32.1264 23.5625 32.6148 23.5625C33.1032 23.5625 33.4991 23.9584 33.4991 24.4468V26.8654C33.4991 27.3538 33.1032 27.7497 32.6148 27.7497Z" fill="#FF965A"/>
<path d="M39.8355 27.7497C39.3471 27.7497 38.9512 27.3538 38.9512 26.8654V24.4468C38.9512 23.9584 39.3471 23.5625 39.8355 23.5625C40.3239 23.5625 40.7198 23.9584 40.7198 24.4468V26.8654C40.7197 27.3538 40.3238 27.7497 39.8355 27.7497Z" fill="#FF965A"/>
<path d="M32.6148 27.0124C32.1264 27.0124 31.7305 26.6165 31.7305 26.1281V23.7095C31.7305 23.2211 32.1264 22.8252 32.6148 22.8252C33.1032 22.8252 33.4991 23.2211 33.4991 23.7095V26.1281C33.4991 26.6165 33.1032 27.0124 32.6148 27.0124Z" fill="#373C41"/>
<path d="M39.8355 27.0124C39.3471 27.0124 38.9512 26.6165 38.9512 26.1281V23.7095C38.9512 23.2211 39.3471 22.8252 39.8355 22.8252C40.3239 22.8252 40.7198 23.2211 40.7198 23.7095V26.1281C40.7197 26.6165 40.3238 27.0124 39.8355 27.0124Z" fill="#373C41"/>
<path d="M34.8843 28.5283C34.6644 29.303 35.0639 30.1467 35.828 30.4011C35.9817 30.4522 36.1462 30.4801 36.3171 30.4801C36.488 30.4801 36.6524 30.4524 36.8061 30.4011C37.5701 30.1468 37.9696 29.303 37.7499 28.5283L36.6777 24.7501C36.5746 24.3867 36.0596 24.3867 35.9565 24.7501L34.8843 28.5283Z" fill="#FF965A"/>
<path d="M25.3294 29.8435C25.8695 29.8435 26.3073 29.4056 26.3073 28.8656C26.3073 28.3255 25.8695 27.8877 25.3294 27.8877C24.7894 27.8877 24.3516 28.3255 24.3516 28.8656C24.3516 29.4056 24.7894 29.8435 25.3294 29.8435Z" fill="white"/>
<path d="M47.0814 29.8435C47.6215 29.8435 48.0593 29.4056 48.0593 28.8656C48.0593 28.3255 47.6215 27.8877 47.0814 27.8877C46.5413 27.8877 46.1035 28.3255 46.1035 28.8656C46.1035 29.4056 46.5413 29.8435 47.0814 29.8435Z" fill="white"/>
<path d="M37.2014 15.1211C30.7958 15.1089 25.5957 20.2988 25.5957 26.7043V30.0562C25.5957 34.392 28.1809 38.0755 31.8405 39.7338C32.868 40.1993 33.7272 38.8312 32.8732 38.0944C30.6177 36.1483 29.1898 33.2694 29.1898 30.0562C29.1924 25.3546 29.1894 23.1723 29.189 22.109C29.1887 21.2673 29.877 20.577 30.7188 20.5753H30.7199H35.8661C38.8609 20.5753 41.2887 18.1475 41.2887 15.1527C41.2887 15.1527 40.5062 15.1275 37.2014 15.1211V15.1211Z" fill="#FF965A"/>
<path d="M25.5957 14.416V19.8386V26.7047C26.3811 26.7047 27.0178 26.0681 27.0178 25.2827V23.5407C27.0178 21.4961 28.6753 19.8387 30.7197 19.8387H35.866C38.8608 19.8387 41.2886 17.411 41.2886 14.4162H25.5957V14.416Z" fill="#2A404F"/>
<path d="M41.0957 15.1021C43.5214 15.1021 45.5123 17.1787 45.5123 19.6044V25.2821C45.5123 26.0676 46.1489 26.7042 46.9343 26.7042V14.6816L41.0957 15.1021Z" fill="#2A404F"/>
<path d="M33.0588 31.9805C32.7832 31.9805 32.5629 32.221 32.5997 32.4942C32.8506 34.3579 34.4475 35.7949 36.3798 35.7949C38.3123 35.7949 39.9091 34.3578 40.1599 32.4942C40.1967 32.221 39.9764 31.9805 39.7009 31.9805H33.0588Z" fill="#E20A62"/>
<path d="M33.1055 33.9387C33.772 35.0505 34.9884 35.7949 36.379 35.7949C36.9813 35.7949 37.5509 35.6548 38.0574 35.4061C37.8398 34.0401 36.6566 32.9961 35.2293 32.9961C34.3869 32.9962 33.6295 33.3599 33.1055 33.9387V33.9387Z" fill="#FF5551"/>
<path d="M38.2348 32.9961H34.419C34.1218 32.9961 33.8809 32.7551 33.8809 32.458V31.9805H38.7728V32.458C38.7729 32.7551 38.5319 32.9961 38.2348 32.9961Z" fill="white"/>
<path d="M32.0854 25.8309C31.8893 25.8309 31.7305 25.672 31.7305 25.476V24.4096C31.7305 24.2135 31.8895 24.0547 32.0854 24.0547C32.2814 24.0547 32.4403 24.2137 32.4403 24.4096V25.476C32.4403 25.672 32.2814 25.8309 32.0854 25.8309Z" fill="white"/>
<path d="M39.308 25.6561C39.112 25.6561 38.9531 25.4973 38.9531 25.3012V24.2348C38.9531 24.0387 39.1121 23.8799 39.308 23.8799C39.5041 23.8799 39.6629 24.0389 39.6629 24.2348V25.3012C39.6629 25.4971 39.5039 25.6561 39.308 25.6561V25.6561Z" fill="white"/>
<path d="M48.2987 69.8305C45.7499 69.8305 43.6836 67.7643 43.6836 65.2154V59.1172H52.9137V65.2154C52.9138 67.7643 50.8476 69.8305 48.2987 69.8305Z" fill="white"/>
</g>
</svg>
