<svg width="96" height="96" viewBox="0 0 96 96" fill="none" xmlns="http://www.w3.org/2000/svg">
<g clip-path="url(#clip0_3_15742)">
<path d="M96 48C96 57.634 93.1617 66.6051 88.2758 74.1228C79.7173 87.2914 64.5219 93.8977 47.6463 93.8977C21.1367 93.8977 0 74.5097 0 48C0 21.4903 21.4903 0 48 0C74.5097 0 96 21.4903 96 48Z" fill="#FFE9D6"/>
<path d="M21.7808 27.5465C21.7789 27.5375 21.7787 27.537 21.7808 27.5465V27.5465Z" fill="#1A396B"/>
<path d="M82.4332 67.1663C82.3741 67.1911 82.3149 67.2157 82.2557 67.2403C79.9516 68.1946 77.3158 67.1638 76.2057 64.9305C72.489 57.4539 65.4945 51.7868 56.9572 49.9676C56.5982 49.8911 56.3434 49.5713 56.3434 49.2042C56.3434 48.8933 56.5264 48.6092 56.8126 48.4881C62.2251 46.1952 66.0238 40.8371 66.0238 34.5889V32.7358C67.9588 32.7358 69.5277 31.167 69.5277 29.232C69.5277 29.1971 69.5277 27.7727 69.5277 27.7926C69.5364 27.7903 69.5423 27.7886 69.543 27.788C69.3776 26.7071 71.2331 26.6247 71.4103 27.9527C71.6904 30.0529 73.0942 39.6896 75.8583 42.4188C76.2084 42.7001 77.1487 43.7023 78.6922 44.3459C79.5798 44.7161 80.3297 43.6082 79.6532 42.9249C78.3565 41.6151 77.7089 39.742 78.2159 37.5038C78.2291 37.4406 80.3129 27.5007 80.3032 27.5467C81.1679 21.9377 76.795 15.9777 70.7464 14.8939C70.7462 14.8939 70.746 14.8939 70.7457 14.8937C70.0379 14.7788 69.4669 14.2395 69.3311 13.5355C68.5748 9.61474 65.6633 6.40119 61.7602 5.29374C60.9882 5.07554 60.299 4.97278 59.7273 4.92585C58.8806 4.85621 58.1278 4.39294 57.6625 3.68233C57.2132 2.99651 56.4388 2.54346 55.5575 2.54346H43.1605C37.2629 2.54346 32.4821 7.32432 32.4821 13.2219V14.7084C31.3095 14.8981 31.2075 14.903 30.5934 15.0572C24.9237 16.4788 20.9548 22.1872 21.7811 27.5467C21.842 27.8372 23.8633 37.4794 23.8684 37.5038C24.3754 39.742 23.728 41.6151 22.4311 42.9249C21.7546 43.6082 22.5044 44.7161 23.3921 44.3461C24.9356 43.7025 25.8759 42.7002 26.226 42.419C28.7551 39.922 30.2265 31.4527 30.674 27.9529C30.8209 26.8539 32.1503 26.6936 32.4819 27.3683V29.196H32.4834V29.2321C32.4834 31.1673 34.0522 32.736 35.9872 32.736C35.9872 32.736 34.5613 43.7269 44.7772 48.3586C44.848 48.3908 45.4383 48.6444 45.8156 48.7818V49.8397C43.9764 50.1934 42.1988 50.7234 40.5015 51.4153C32.891 54.5176 24.1614 51.0514 20.607 43.6412C20.5334 43.4877 20.4605 43.3338 20.3886 43.1796C15.5926 32.8999 0.12988 36.11 0.00308645 47.4527C5.85475e-05 47.7162 -0.000698428 47.9802 0.000626279 48.2445C0.0804872 64.3 7.95209 78.4227 20.0308 87.0658L76.1418 86.8891C80.9275 83.4195 85.0478 79.0881 88.2746 74.1225C90.8301 70.1902 86.7583 65.3541 82.4332 67.1663Z" fill="#FFE9D6"/>
<path d="M63.0986 31.0661C63.1183 31.0621 66.5427 30.3486 66.5622 30.3303C66.47 29.7279 67.0714 29.3366 67.7525 29.5847C67.7853 29.5975 67.8176 29.6123 67.8494 29.6288C68.1747 29.7976 68.381 30.1316 68.4294 30.4949C68.7095 32.5952 70.1133 42.2318 72.8774 44.9611C73.2277 45.2425 74.1683 46.2449 75.7123 46.8886C76.5999 47.2585 77.3497 46.1509 76.6731 45.4677C75.3758 44.158 74.7281 42.2846 75.2352 40.0459C75.2453 39.9982 75.5806 38.3985 75.5761 38.4203C75.606 38.278 77.3884 29.7752 77.3226 30.089C78.1874 24.48 73.8144 18.52 67.7658 17.4362C67.7455 17.4329 66.3302 17.203 66.35 17.2072L63.0988 16.5255V31.0661H63.0986Z" fill="#2A404F"/>
<path d="M48.0986 51.8914C32.6115 51.8914 20.0566 64.4462 20.0566 79.9333V87.03C27.9277 92.6753 37.5753 96.0003 48.0004 96.0003C58.5127 96.0003 68.2338 92.6183 76.1406 86.8867V79.9333C76.1406 64.4462 63.5858 51.8914 48.0986 51.8914Z" fill="#FFA344"/>
<path d="M54.4871 52.6228C36.9773 48.5423 20.0566 61.7924 20.0566 79.9332V87.0298C24.7853 90.4213 30.1545 92.9759 35.9493 94.4741V80.0392C35.9493 78.0616 36.1541 76.132 36.5436 74.2702C37.6951 68.7651 42.5394 64.8357 48.163 64.7486C48.2038 64.7481 48.2449 64.7471 48.2858 64.7458C52.2525 64.6233 55.5378 61.4584 55.7993 57.4983C55.8669 56.4749 55.7354 55.491 55.4407 54.5804C55.2375 53.9524 55.5764 53.2744 56.2107 53.0916L56.2232 53.088C55.6534 52.9158 55.0749 52.7642 54.4905 52.6277C54.4894 52.6262 54.4882 52.6245 54.4871 52.6228Z" fill="#FF7707"/>
<path d="M20.9669 22.0979C19.2398 24.4186 18.3699 27.2962 18.8004 30.0891C18.7345 29.7753 20.5172 38.2783 20.5469 38.4204C20.5424 38.3986 20.8777 39.9983 20.8878 40.046C21.3947 42.2844 20.7472 44.1577 19.4503 45.4674C18.7737 46.1508 19.5235 47.2584 20.4111 46.8885C21.9547 46.2448 22.8953 45.2424 23.2456 44.9612C26.0097 42.2319 27.4137 32.5953 27.6935 30.495C27.7263 30.2501 27.8319 30.02 27.9961 29.8433V29.127C27.996 25.245 24.8488 22.0979 20.9669 22.0979Z" fill="#2A404F"/>
<path d="M29.7727 17.2072C29.7926 17.203 28.3772 17.4329 28.357 17.4362C25.3858 17.9685 22.8199 19.6776 21.0802 21.9434C19.872 23.5169 21.2573 25.7419 23.1972 25.3272C23.2292 25.3204 23.261 25.3136 23.2928 25.3068C24.6135 25.025 25.8574 26.0326 25.8574 27.383V30.4134C25.8574 31.5598 27.5357 31.6705 27.6878 30.5343C27.6897 30.5209 27.6914 30.5078 27.6931 30.4949C27.7415 30.1316 27.9478 29.7976 28.2731 29.6288C28.3049 29.6123 28.3371 29.5975 28.37 29.5847C29.0511 29.3366 29.6525 29.7281 29.5604 30.3303C29.5801 30.3486 33.0044 31.0619 33.0239 31.0661V16.5255L29.7727 17.2072Z" fill="#22323E"/>
<path d="M59.0928 7.92834V31.7388H66.5469V18.1102C66.5471 13.3366 63.4142 9.29563 59.0928 7.92834Z" fill="#2A404F"/>
<path d="M55.8693 7.43176H40.1804C34.2828 7.43176 29.502 12.2126 29.502 18.1102V31.7388L56.2501 7.44141C56.1235 7.43687 55.9969 7.43176 55.8693 7.43176Z" fill="#22323E"/>
<path d="M53.3636 57.0151C53.3636 59.9222 51.0069 62.2789 48.0998 62.2789C45.1926 62.2789 42.8359 59.9222 42.8359 57.0151V45.225H53.3636V57.0151Z" fill="#FF965A"/>
<path d="M62.8988 22.5535C62.864 19.0516 60.0153 16.2311 56.5133 16.2311H48.9265C44.3813 16.2311 40.2843 18.139 37.3838 21.1938V44.3183C37.3838 46.9915 38.8781 49.4528 41.2684 50.65C43.2795 51.6571 45.5493 52.2239 47.9515 52.2239C56.2868 52.2239 63.0437 45.467 63.0437 37.1317L63.0254 35.2788L63.4782 30.05L63.0437 26.3959L62.8988 22.5535Z" fill="#FFBE82"/>
<path d="M63.043 35.2785V26.3958C64.9782 26.3958 66.5468 27.9646 66.5468 29.8996V31.7744C66.5468 33.7098 64.9782 35.2785 63.043 35.2785Z" fill="#FF965A"/>
<path d="M33.0058 35.2785V26.3958C31.0706 26.3958 29.502 27.9646 29.502 29.8996V31.7744C29.502 33.7098 31.0708 35.2785 33.0058 35.2785Z" fill="#FF965A"/>
<path d="M41.6426 31.6543V32.7888C41.6426 33.4761 42.1999 34.0335 42.8872 34.0335C43.5746 34.0335 44.1319 33.4761 44.1319 32.7888V31.6543H41.6426Z" fill="#FF965A"/>
<path d="M51.8066 31.6543V32.7888C51.8066 33.4761 52.364 34.0335 53.0513 34.0335C53.7386 34.0335 54.296 33.4761 54.296 32.7888V31.6543H51.8066Z" fill="#FF965A"/>
<path d="M42.8872 32.9968C42.1999 32.9968 41.6426 32.4395 41.6426 31.7522V28.348C41.6426 27.6607 42.1999 27.1034 42.8872 27.1034C43.5746 27.1034 44.1319 27.6607 44.1319 28.348V31.7522C44.1321 32.4395 43.5748 32.9968 42.8872 32.9968Z" fill="#373C41"/>
<path d="M53.0513 32.9968C52.364 32.9968 51.8066 32.4395 51.8066 31.7522V28.348C51.8066 27.6607 52.364 27.1034 53.0513 27.1034C53.7386 27.1034 54.2959 27.6607 54.2959 28.348V31.7522C54.2959 32.4395 53.7386 32.9968 53.0513 32.9968Z" fill="#373C41"/>
<path d="M46.0825 35.1292C45.7731 36.2194 46.3354 37.4073 47.4108 37.7652C47.6272 37.8373 47.8588 37.8763 48.0993 37.8763C48.3399 37.8763 48.5715 37.8373 48.7878 37.7652C49.8631 37.4071 50.4255 36.2194 50.1161 35.1292L48.6069 29.8113C48.4617 29.2997 47.7367 29.2997 47.5916 29.8113L46.0825 35.1292Z" fill="#FF965A"/>
<path d="M49.3427 16.2578C40.3266 16.2405 32.8105 23.5455 32.8105 32.5617L33.007 35.2787V37.2795C33.007 43.3823 36.6458 48.567 41.797 50.9013C43.2432 51.5567 44.4526 49.6307 43.2506 48.5937C40.0756 45.8544 38.066 41.8025 38.066 37.2795C38.0698 30.6617 38.0655 27.5901 38.0649 26.0933C38.0643 24.9085 39.0333 23.9369 40.2181 23.9344H40.2196H47.4631C51.6785 23.9344 55.0352 20.4463 55.0352 16.2311C55.0352 16.2311 53.9943 16.2667 49.3427 16.2578Z" fill="#FFBE82"/>
<path d="M33.0078 15.2646V22.8972V32.5617C34.1134 32.5617 35.0094 31.6655 35.0094 30.5601V28.1083C35.0094 25.2304 37.3424 22.8974 40.2203 22.8974H47.4638C51.6792 22.8974 55.0964 19.4802 55.0964 15.2648H33.0078V15.2646Z" fill="#22323E"/>
<path d="M60.8118 14.6853V10.4103C60.8118 9.24813 60.0543 8.21675 58.9415 7.88197C57.9688 7.5894 56.9376 7.43176 55.8693 7.43176H55.0897L55.0293 16.2312V16.2409H55.368C58.6168 16.4233 61.0423 19.2657 61.0423 22.5684V30.5602C61.0423 31.6658 61.9386 32.5618 63.044 32.5618V16.7586C63.044 16.1544 62.5305 15.6775 61.928 15.722C61.3252 15.7664 60.8118 15.2895 60.8118 14.6853Z" fill="#22323E"/>
<path d="M43.5111 39.9885C43.1232 39.9885 42.8132 40.3271 42.8651 40.7116C43.2182 43.3349 45.4658 45.3576 48.1858 45.3576C50.9058 45.3576 53.1535 43.3349 53.5066 40.7116C53.5583 40.3271 53.2485 39.9885 52.8605 39.9885H43.5111Z" fill="#FF7707"/>
<path d="M43.5781 42.745C44.5162 44.3099 46.2285 45.3577 48.1858 45.3577C49.0336 45.3577 49.8353 45.1605 50.5484 44.8104C50.242 42.8877 48.5766 41.4182 46.5676 41.4182C45.382 41.4182 44.316 41.9301 43.5781 42.745Z" fill="#DB5A06"/>
<path d="M50.7963 41.4181H45.4253C45.0071 41.4181 44.668 41.0789 44.668 40.6607V39.9885H51.5536V40.6607C51.5536 41.0789 51.2145 41.4181 50.7963 41.4181Z" fill="white"/>
<path d="M42.1422 31.3333C41.8663 31.3333 41.6426 31.1096 41.6426 30.8337V29.3326C41.6426 29.0567 41.8663 28.833 42.1422 28.833C42.4181 28.833 42.6418 29.0567 42.6418 29.3326V30.8337C42.6418 31.1096 42.4181 31.3333 42.1422 31.3333Z" fill="white"/>
<path d="M52.3082 31.0872C52.0323 31.0872 51.8086 30.8635 51.8086 30.5876V29.0865C51.8086 28.8106 52.0323 28.5869 52.3082 28.5869C52.5841 28.5869 52.8078 28.8106 52.8078 29.0865V30.5876C52.8078 30.8635 52.5841 31.0872 52.3082 31.0872Z" fill="white"/>
<path d="M55.0961 7.60458C55.0961 6.21364 53.9683 5.08594 52.5774 5.08594H40.1804C34.2828 5.08594 29.502 9.86681 29.502 15.7644V18.0259L55.0961 15.2644V7.60458Z" fill="#22323E"/>
<path d="M41.7539 64.119H61.4375V93.8978H41.7539V64.119Z" fill="white"/>
<path d="M43.7097 81.6171V76.4208C43.7097 76.2552 43.8112 76.104 43.9671 76.0484C44.1404 75.9867 44.3374 75.8853 44.3374 75.7437V70.7458C44.3374 70.4865 44.0311 70.3764 43.7245 70.3764C43.7196 70.3764 43.7145 70.3769 43.7095 70.3771V64.1192H34.6455V94.1161C38.8851 95.3416 43.3653 96.0006 47.9999 96.0006C52.6644 96.0006 57.1723 95.3325 61.4364 94.0917V90.028H52.1205C47.4753 90.0278 43.7097 86.2623 43.7097 81.6171Z" fill="#FFE9D6"/>
<path d="M42.7978 70.0056H40.9695V68.0962H39.999V72.9039H40.9695V70.9121H42.7978V72.9039H43.7612V68.0962H42.7978V70.0056Z" fill="#18A795"/>
<path d="M46.3071 73.0001C46.8346 73.0001 47.2705 72.8284 47.6292 72.4781C47.9878 72.1278 48.1707 71.6951 48.1707 71.1869C48.1707 70.6855 47.9878 70.2528 47.6292 69.9025C47.2705 69.5523 46.8275 69.3737 46.3071 69.3737C45.7868 69.3737 45.3437 69.5523 44.9851 69.9025C44.6265 70.2528 44.4507 70.6786 44.4507 71.1869C44.4507 71.702 44.6265 72.1278 44.9851 72.4781C45.3437 72.8284 45.7797 73.0001 46.3071 73.0001ZM46.3071 72.1347C46.0329 72.1347 45.8079 72.0454 45.625 71.8668C45.4492 71.6814 45.3578 71.4547 45.3578 71.1869C45.3578 70.919 45.4492 70.6924 45.625 70.5069C45.8079 70.3284 46.0329 70.2391 46.3071 70.2391C46.5814 70.2391 46.8064 70.3284 46.9893 70.5069C47.1721 70.6855 47.2635 70.9121 47.2635 71.1869C47.2635 71.4616 47.1721 71.6882 46.9893 71.8668C46.8064 72.0454 46.5814 72.1347 46.3071 72.1347Z" fill="#18A795"/>
<path d="M49.1534 72.4781C49.512 72.8284 49.9551 73.0001 50.4825 73.0001C50.82 73.0001 51.1294 72.9176 51.4178 72.7597C51.699 72.6017 51.917 72.3819 52.0717 72.1072L51.2841 71.6676C51.1365 71.9698 50.8622 72.1209 50.4754 72.1209C50.2012 72.1209 49.9762 72.0317 49.8004 71.86C49.6246 71.6745 49.5331 71.4547 49.5331 71.1869C49.5331 70.9121 49.6246 70.6855 49.8004 70.5069C49.9762 70.3352 50.2012 70.2459 50.4754 70.2459C50.8552 70.2459 51.1224 70.397 51.2771 70.7061L52.0577 70.2597C51.91 69.9918 51.699 69.772 51.4178 69.6141C51.1365 69.4561 50.8271 69.3737 50.4825 69.3737C49.9551 69.3737 49.512 69.5454 49.1534 69.8957C48.8018 70.2459 48.626 70.6718 48.626 71.1869C48.626 71.6951 48.8018 72.1278 49.1534 72.4781Z" fill="#18A795"/>
<path d="M52.1728 68.5426L52.4119 69.3531L53.3401 69.099V72.9039H54.3106V68.0962H53.4667L52.1728 68.5426Z" fill="#18A795"/>
<path d="M55.5814 72.3201C55.933 72.7734 56.4182 73.0001 57.03 73.0001C57.6559 73.0001 58.1341 72.7734 58.4786 72.3201C58.8232 71.86 58.999 71.2487 58.999 70.5001C58.999 69.7514 58.8232 69.147 58.4786 68.6869C58.1341 68.2267 57.6559 68.0001 57.03 68.0001C56.4182 68.0001 55.933 68.2267 55.5814 68.6869C55.2368 69.147 55.061 69.7514 55.061 70.5001C55.061 71.2487 55.2368 71.86 55.5814 72.3201ZM57.03 68.9204C57.6981 68.9204 58.0356 69.4492 58.0356 70.5001C58.0356 71.5509 57.6981 72.0729 57.03 72.0729C56.362 72.0729 56.0315 71.5509 56.0315 70.5001C56.0315 69.4492 56.362 68.9204 57.03 68.9204Z" fill="#18A795"/>
<path d="M40.913 82.1505C40.0616 82.5379 39.0572 82.1615 38.67 81.31L36.4659 76.4644C36.0785 75.613 36.4549 74.6087 37.3064 74.2215C38.1578 73.8342 39.1621 74.2106 39.5493 75.062L41.7534 79.9076C42.1408 80.759 41.7646 81.7631 40.913 82.1505Z" fill="#FFBE82"/>
<path d="M39.4791 89.9188C39.485 90.6561 38.8921 91.2585 38.1546 91.2643L34.4169 91.2937C33.6796 91.2995 33.0772 90.7064 33.0713 89.9691C33.0655 89.2318 33.6584 88.6295 34.3959 88.6236L38.1336 88.5943C38.8711 88.5886 39.4733 89.1815 39.4791 89.9188Z" fill="#FFBE82"/>
<path d="M39.7237 87.2467C39.7307 88.1314 39.0192 88.8543 38.1345 88.8611L34.3967 88.8905C33.512 88.8975 32.7891 88.1859 32.7823 87.3012C32.7753 86.4165 33.4868 85.6935 34.3715 85.6867L38.1093 85.6574C38.994 85.6504 39.7167 86.362 39.7237 87.2467Z" fill="#FFBE82"/>
<path d="M39.7003 84.2208C39.7073 85.1055 38.9958 85.8284 38.111 85.8352L34.3733 85.8646C33.4886 85.8716 32.7657 85.16 32.7588 84.2753C32.7518 83.3906 33.4634 82.6677 34.3481 82.6609L38.0859 82.6315C38.9706 82.6245 39.6935 83.3361 39.7003 84.2208Z" fill="#FFBE82"/>
<path d="M39.6769 81.1948C39.6839 82.0795 38.9723 82.8024 38.0876 82.8092L34.3498 82.8386C33.4651 82.8456 32.7422 82.134 32.7354 81.2493C32.7284 80.3646 33.44 79.6417 34.3247 79.6349L38.0624 79.6055C38.947 79.5985 39.6699 80.3101 39.6769 81.1948Z" fill="#FFBE82"/>
<path d="M43.6373 91.294H36.2744V79.6201H43.6373C46.0182 79.6201 47.9481 81.5502 47.9481 83.9311V86.9832C47.9481 89.3639 46.018 91.294 43.6373 91.294Z" fill="#FFBE82"/>
<path d="M57.7731 81.3192V90.4101H52.7642H45.0552C42.7309 90.4101 40.8439 88.5311 40.8347 86.207C40.8294 84.8967 40.8252 83.5638 40.8252 82.675V81.3192H57.7731Z" fill="#FFBE82"/>
<path d="M50.3145 81.3192H63.8974V93.3621H50.3145V81.3192Z" fill="#FFA344"/>
</g>
<defs>
<clipPath id="clip0_3_15742">
<rect width="96" height="96" fill="white"/>
</clipPath>
</defs>
</svg>
