<svg width="96" height="96" viewBox="0 0 96 96" fill="none" xmlns="http://www.w3.org/2000/svg">
<path d="M96 48C96 60.6312 91.1209 72.1231 83.1448 80.6935C74.3812 90.1102 63.1528 91.8139 49.2743 91.8139C22.7646 91.8139 0 74.5097 0 48C0 21.4903 21.4903 0 48 0C74.5097 0 96 21.4903 96 48Z" fill="#FFE9D6"/>
<path d="M81.6558 78.4892C81.6327 78.4982 81.6096 78.5072 81.5865 78.5162C80.8587 78.7991 80.039 78.4067 79.802 77.6627C77.612 70.7879 73.0087 64.8497 66.8001 60.9942C66.8001 60.9929 66.8001 60.9916 66.8003 60.9903C66.7798 60.9775 66.2581 60.6615 66.2372 60.6491V60.6536C66.1869 60.6238 66.1363 60.5941 66.0856 60.5646C64.9327 59.8907 64.061 58.8389 63.5753 57.5946C63.5674 57.5745 63.5595 57.5546 63.5517 57.5345C62.657 55.2735 63.0324 52.6996 64.6099 50.8493C67.3317 47.6565 68.3488 44.127 68.7154 41.3903C69.031 39.0341 70.1452 36.8402 71.8899 35.2253C72.5796 34.5869 73.1199 33.7008 73.1357 32.4881V30.2203C73.1342 27.7719 71.6485 26.5374 70.7304 26.0084C70.4297 25.835 70.2696 25.5114 70.2685 25.1643C70.2675 24.8481 70.0316 24.5505 69.7304 24.4624C69.3389 24.348 69.0796 23.9751 69.0738 23.5672L68.8976 11.1847C68.8976 6.68887 65.253 3.04444 60.7573 3.04444H44.2205H44.2211C40.4448 3.04801 40.6586 3.03561 40.2603 3.05722C35.997 3.28867 32.5681 6.81587 32.5681 11.1847V24.722L32.4522 24.6206C31.752 24.0081 30.8251 25.0662 31.5258 25.6794L31.9322 26.035C29.894 26.3426 28.33 28.0963 28.33 30.2203V32.4881C28.33 34.7577 30.1155 36.6052 32.3577 36.7155C32.4234 36.8126 32.4946 36.9056 32.5681 36.9967C32.7152 37.7025 31.2913 47.3683 40.1504 53.7775C38.7805 55.4163 37.7868 57.3784 37.2948 59.5323C37.2835 59.5377 37.2706 59.5445 37.2557 59.5524C31.2487 62.7816 23.7321 60.4808 20.8108 54.3184C19.3975 51.337 18.3077 48.2392 17.5427 45.078C15.0987 34.9779 0.266619 36.4246 0.0143135 46.8129C0.00698671 47.1158 0.0024779 47.4194 0.000787099 47.7237C-0.0833773 62.6503 6.58815 75.9885 17.1647 84.8421L78.0877 85.3993C79.8837 83.9523 81.5732 82.3788 83.143 80.6919C84.1274 79.6342 83.0019 77.9635 81.6558 78.4892Z" fill="#FFE9D6"/>
<path d="M32.9354 40.6784V29.9344C30.5947 29.9344 28.6973 31.8319 28.6973 34.1725V36.4403C28.6975 38.7809 30.5947 40.6784 32.9354 40.6784Z" fill="#43265C"/>
<path d="M47.7994 58.5146C42.0234 58.5146 36.6228 60.1205 32.0186 62.9094V93.271C37.0183 95.036 42.3965 95.9996 48.0004 95.9996C53.5554 95.9996 58.8888 95.0527 63.8515 93.3168V63.489C63.8515 63.3534 63.8577 63.2196 63.8667 63.087C59.2005 60.1895 53.696 58.5146 47.7994 58.5146Z" fill="#FFE9D6"/>
<path d="M38.3315 95.0258V60.0157C36.1037 60.7425 33.9878 61.717 32.0186 62.9098V93.2713C34.0635 93.9933 36.1702 94.5838 38.3315 95.0258Z" fill="#FFB8A4"/>
<path d="M47.8008 69.2577L52.5295 73.9864L47.8008 78.7151L43.0721 73.9864L47.8008 69.2577Z" fill="#8757F3"/>
<path d="M47.7991 53.1335C40.1841 53.1335 34.0107 59.3066 34.0107 66.9218C34.0107 71.9905 36.7476 76.4173 40.8222 78.8132L47.8796 71.7558L54.8783 78.7544C58.8969 76.345 61.5874 71.9482 61.5874 66.9218C61.5874 59.3066 55.4142 53.1335 47.7991 53.1335Z" fill="#FFB8A4"/>
<path d="M47.8008 69.2582L53.0645 74.522L47.8008 79.7857L42.5371 74.522L47.8008 69.2582Z" fill="#18A795"/>
<path d="M47.7991 50.9227C40.1841 50.9227 34.0107 57.0958 34.0107 64.711C34.0107 69.7796 36.7476 74.2065 40.8222 76.6024L47.8796 69.545L54.8783 76.5436C58.8969 74.1342 61.5874 69.7374 61.5874 64.711C61.5874 57.096 55.4142 50.9227 47.7991 50.9227Z" fill="white"/>
<path d="M33.1475 26.4005V13.2818C33.1475 8.78591 36.7921 5.14148 41.2878 5.14148H37.775C33.2792 5.14148 29.6348 8.7861 29.6348 13.2818V26.4005C29.6348 30.8963 33.2794 31.7808 37.775 31.7808H41.2878C36.7921 31.7806 33.1475 30.8962 33.1475 26.4005Z" fill="#5A2D19"/>
<path d="M47.8883 69.2707C44.372 69.2707 41.5215 66.4202 41.5215 62.9041V48.6437H54.2549V62.9041C54.2551 66.4202 51.4046 69.2707 47.8883 69.2707Z" fill="#FF965A"/>
<path d="M65.1591 26.3046C65.1591 20.4945 61.4318 15.1814 55.6214 15.1814H40.1536C38.2682 15.1814 36.5638 15.7435 35.1191 16.6979V48.7322C35.1191 52.9879 37.7551 56.8377 41.7642 58.2655C43.6782 58.9471 45.7394 59.3183 47.8875 59.3183C57.8702 59.3183 65.9629 51.2257 65.9629 41.2429V35.5364L65.1591 26.3046Z" fill="#FFBE82"/>
<path d="M65.9629 38.8231V28.0792C68.3035 28.0792 70.201 29.9767 70.201 32.3173V34.5851C70.201 36.9257 68.3035 38.8231 65.9629 38.8231Z" fill="#FF965A"/>
<path d="M29.6336 38.8231V28.0792C27.293 28.0792 25.3955 29.9767 25.3955 32.3173V34.5851C25.3957 36.9257 27.293 38.8231 29.6336 38.8231Z" fill="#FF965A"/>
<path d="M41.5845 37.269C40.7532 37.269 40.0791 36.595 40.0791 35.7637V31.6464C40.0791 30.8151 40.7532 30.141 41.5845 30.141C42.4158 30.141 43.0899 30.8151 43.0899 31.6464V35.7637C43.0899 36.595 42.4158 37.269 41.5845 37.269Z" fill="#FF965A"/>
<path d="M53.8774 37.269C53.0461 37.269 52.3721 36.595 52.3721 35.7637V31.6464C52.3721 30.8151 53.0461 30.141 53.8774 30.141C54.7088 30.141 55.3828 30.8151 55.3828 31.6464V35.7637C55.383 36.595 54.7089 37.269 53.8774 37.269Z" fill="#FF965A"/>
<path d="M35.7145 41.7612V41.7093C35.7145 40.3506 37.1162 39.4853 38.3578 40.0377C39.0989 40.3674 39.922 40.5449 40.7873 40.5306C43.951 40.4782 46.4526 37.8174 46.4526 34.6534V31.9695C46.4526 31.581 46.1377 31.2662 45.7492 31.2662H39.9791C37.6238 31.2662 35.7145 29.3569 35.7145 27.0016C35.7145 21.1914 40.4247 16.4812 46.2349 16.4812H59.3645C58.2095 16.0328 56.9502 15.7844 55.623 15.7844H40.1551C34.345 15.7844 29.6348 20.4946 29.6348 26.3048V41.0642C29.6348 48.8971 34.5623 55.5566 41.4589 58.1539C42.7473 58.6391 43.7047 56.9196 42.6265 56.0636C38.4153 52.7204 35.7145 47.5563 35.7145 41.7612ZM36.3345 32.6731H45.0457V34.7691C45.0457 37.1708 43.0919 39.1246 40.6902 39.1246C38.2885 39.1246 36.3347 37.1708 36.3347 34.7691V32.6731H36.3345Z" fill="#FF965A"/>
<path d="M60.0957 31.2664H49.9778C49.5893 31.2664 49.2744 31.5812 49.2744 31.9697V34.7691C49.2744 37.9465 51.8595 40.5316 55.0369 40.5316C58.2142 40.5316 60.7993 37.9465 60.7993 34.7691V31.9697C60.7993 31.5812 60.4842 31.2664 60.0957 31.2664ZM59.3924 34.7691C59.3924 37.1708 57.4385 39.1246 55.0369 39.1246C52.6352 39.1246 50.6814 37.1708 50.6814 34.7691V32.6731H59.3925V34.7691H59.3924Z" fill="#FF965A"/>
<path d="M41.5845 36.0634C40.7532 36.0634 40.0791 35.3893 40.0791 34.558V30.4407C40.0791 29.6094 40.7532 28.9353 41.5845 28.9353C42.4158 28.9353 43.0899 29.6094 43.0899 30.4407V34.558C43.0899 35.3893 42.4158 36.0634 41.5845 36.0634Z" fill="#373C41"/>
<path d="M53.8774 36.0634C53.0461 36.0634 52.3721 35.3893 52.3721 34.558V30.4407C52.3721 29.6094 53.0461 28.9353 53.8774 28.9353C54.7088 28.9353 55.3828 29.6094 55.3828 30.4407V34.558C55.383 35.3893 54.7089 36.0634 53.8774 36.0634Z" fill="#373C41"/>
<path d="M43.5665 28.1824H39.1763C38.3448 28.1824 37.6709 27.5083 37.6709 26.677C37.6709 25.8455 38.345 25.1716 39.1763 25.1716H43.5665C44.398 25.1716 45.0719 25.8457 45.0719 26.677C45.0721 27.5083 44.398 28.1824 43.5665 28.1824Z" fill="#783C28"/>
<path d="M56.1134 28.1824H51.7232C50.8917 28.1824 50.2178 27.5083 50.2178 26.677C50.2178 25.8455 50.8918 25.1716 51.7232 25.1716H56.1134C56.9449 25.1716 57.6188 25.8457 57.6188 26.677C57.619 27.5083 56.9449 28.1824 56.1134 28.1824Z" fill="#783C28"/>
<path d="M42.3441 44.3915C41.8841 44.3915 41.5166 44.793 41.578 45.2489C41.9968 48.3596 44.662 50.7581 47.8875 50.7581C51.113 50.7581 53.7783 48.3596 54.197 45.2489C54.2585 44.793 53.8908 44.3915 53.4309 44.3915H42.3441Z" fill="#FF7707"/>
<path d="M45.4489 38.2005C45.0746 39.695 45.7547 41.3229 47.0555 41.8136C47.3172 41.9124 47.5971 41.9658 47.8881 41.9658C48.1791 41.9658 48.4591 41.9122 48.7209 41.8136C50.0215 41.3229 50.7018 39.695 50.3276 38.2005L49.0869 33.2461C48.7745 31.9989 47.002 31.9989 46.6897 33.2461L45.4489 38.2005Z" fill="#FF965A"/>
<path d="M65.9645 13.2818C65.9645 8.78591 62.3199 5.14148 57.8242 5.14148H37.775C33.2792 5.14148 29.6348 8.7861 29.6348 13.2818V26.4003V26.4009V35.5368C30.9718 35.5368 32.0558 34.4529 32.0558 33.1158V22.4254C32.0558 20.0641 33.3846 17.8877 35.508 16.8548C35.5618 16.8287 35.6153 16.8031 35.6689 16.7783C37.4373 15.9564 39.3631 17.6448 38.7628 19.5001C38.7555 19.5229 38.7482 19.5458 38.7411 19.5687C38.3347 20.862 39.3095 22.1771 40.665 22.1771H49.5363C52.804 22.1771 55.65 20.3745 57.1359 17.7098C57.7032 16.6923 58.9706 16.267 60.0239 16.7644C60.0444 16.7742 60.0649 16.784 60.0854 16.7937C62.216 17.8176 63.5432 20.0033 63.5432 22.3672V33.116C63.5432 34.453 64.6272 35.537 65.9643 35.537V26.3049V13.2818H65.9645Z" fill="#22323E"/>
<path d="M35.664 13.2818C35.664 8.78591 39.3086 5.14148 43.8043 5.14148H37.775C33.2792 5.14148 29.6348 8.7861 29.6348 13.2818V26.4003V26.4009V35.5368C30.9718 35.5368 32.0558 34.4529 32.0558 33.1158V22.4254C32.0558 20.0641 33.3846 17.8877 35.5081 16.8548C35.5601 16.8294 35.6121 16.8048 35.664 16.7806V13.2818Z" fill="#22323E"/>
<path d="M63.1659 17.7095C62.9508 18.0954 62.704 18.4608 62.4346 18.8076C63.1441 19.8335 63.5441 21.0727 63.5441 22.3667V33.1155C63.5441 34.4526 64.6281 35.5366 65.9652 35.5366V26.3046V16.7273C64.9302 16.2933 63.7175 16.7202 63.1659 17.7095Z" fill="#22323E"/>
<path d="M46.6942 22.1768C45.3387 22.1768 44.3637 20.8617 44.7702 19.5686C44.7774 19.5457 44.7847 19.5228 44.792 19.5C45.3923 17.6447 43.4662 15.9563 41.6979 16.7782C41.6443 16.803 41.5908 16.8286 41.537 16.8547C40.2716 17.4703 39.2915 18.4936 38.7036 19.7187C38.4143 20.9616 39.3619 22.1769 40.665 22.1769H49.5362H49.5364H46.6942V22.1768Z" fill="#2A404F"/>
<path d="M40.6341 33.1763C40.3275 33.1763 40.0791 32.9278 40.0791 32.6214V30.9407C40.0791 30.6341 40.3276 30.3857 40.6341 30.3857C40.9405 30.3857 41.189 30.6343 41.189 30.9407V32.6214C41.189 32.9278 40.9405 33.1763 40.6341 33.1763Z" fill="white"/>
<path d="M52.8997 33.1763C52.5931 33.1763 52.3447 32.9278 52.3447 32.6214V30.9407C52.3447 30.6341 52.5933 30.3857 52.8997 30.3857C53.2063 30.3857 53.4546 30.6343 53.4546 30.9407V32.6214C53.4546 32.9278 53.2063 33.1763 52.8997 33.1763Z" fill="white"/>
<path d="M40.6892 39.5266C37.5118 39.5266 34.9268 36.9415 34.9268 33.7641V30.9647C34.9268 30.5762 35.2416 30.2614 35.6301 30.2614H45.7481C46.1366 30.2614 46.4514 30.5762 46.4514 30.9647V33.7641C46.4516 36.9415 43.8666 39.5266 40.6892 39.5266ZM36.3337 31.6681V33.7641C36.3337 36.1658 38.2875 38.1196 40.6892 38.1196C43.0909 38.1196 45.0447 36.1658 45.0447 33.7641V31.6681H36.3337Z" fill="#2A404F"/>
<path d="M55.0369 39.5266C51.8595 39.5266 49.2744 36.9415 49.2744 33.7641V30.9647C49.2744 30.5762 49.5893 30.2614 49.9778 30.2614H60.0957C60.4842 30.2614 60.7991 30.5762 60.7991 30.9647V33.7641C60.7993 36.9415 58.2142 39.5266 55.0369 39.5266ZM50.6814 31.6681V33.7641C50.6814 36.1658 52.6352 38.1196 55.0369 38.1196H55.037C57.4387 38.1196 59.3925 36.1658 59.3925 33.7641V31.6681H50.6814Z" fill="#2A404F"/>
<path d="M55.0364 39.5262C54.6479 39.5262 54.333 39.2113 54.333 38.8228C54.333 38.4343 54.6479 38.1194 55.0364 38.1194C57.4381 38.1194 59.3919 36.1656 59.3919 33.7639C59.3919 33.3754 59.7067 33.0605 60.0953 33.0605C60.4838 33.0605 60.7986 33.3754 60.7986 33.7639C60.7988 36.9411 58.2138 39.5262 55.0364 39.5262Z" fill="#22323E"/>
<path d="M44.9217 75.6064L43.7158 83.3774L44.4021 95.8656C45.5898 95.9536 46.7891 95.9996 47.9994 95.9996C49.0728 95.9996 50.1373 95.9607 51.1933 95.8912L51.8809 83.3774L50.675 75.6064H44.9217Z" fill="#18A795"/>
<path d="M24.4102 76.7374V89.8097C26.962 91.2525 29.658 92.4695 32.4728 93.4312V62.64C32.4422 62.6579 32.4116 62.6757 32.381 62.6937C27.4153 65.6085 24.4102 70.9796 24.4102 76.7374Z" fill="#606E78"/>
<path d="M17.5479 85.1036C19.79 86.9459 22.203 88.5871 24.758 90.0038C25.0469 82.6877 27.9127 76.0351 32.4731 70.9264V62.64C24.4664 67.3021 18.7776 75.5053 17.5479 85.1036Z" fill="#2A404F"/>
<path d="M78.0866 85.3977C77.1636 77.5986 73.2975 70.7029 67.6299 65.8481V91.8135C71.3987 90.1224 74.9084 87.9576 78.0866 85.3977Z" fill="#606E78"/>
<path d="M63.3027 93.5079C65.5139 92.7647 67.6526 91.8642 69.7066 90.821V67.802C67.8119 65.8463 65.6607 64.1409 63.3027 62.7463V93.5079Z" fill="#2A404F"/>
<path d="M42.4238 47.6597C43.5364 49.5154 45.5667 50.758 47.8877 50.758C48.8932 50.758 49.8436 50.5241 50.6892 50.1091C50.3259 47.8291 48.351 46.0865 45.9689 46.0865C44.5629 46.0865 43.2987 46.6935 42.4238 47.6597Z" fill="#FFA344"/>
<path d="M50.9829 46.0868H44.614C44.118 46.0868 43.7158 45.6848 43.7158 45.1886V44.3915H51.8809V45.1886C51.8809 45.6846 51.4789 46.0868 50.9829 46.0868Z" fill="white"/>
<path d="M50.7329 34.6403H49.3262C49.3262 33.8475 48.6812 33.2025 47.8884 33.2025C47.0956 33.2025 46.4507 33.8475 46.4507 34.6403H45.0439C45.0439 33.0718 46.3201 31.7958 47.8884 31.7958C49.4568 31.7958 50.7329 33.072 50.7329 34.6403Z" fill="#2A404F"/>
<path d="M62.4316 31.6677H60.176C59.7875 31.6677 59.4727 31.3529 59.4727 30.9644C59.4727 30.5759 59.7875 30.261 60.176 30.261H62.1644L66.1536 26.7206C66.4442 26.4627 66.8889 26.4894 67.1467 26.7798C67.4046 27.0705 67.3781 27.5149 67.0875 27.7729L62.8986 31.4906C62.7697 31.6046 62.6038 31.6677 62.4316 31.6677Z" fill="#2A404F"/>
<path d="M35.6142 31.6678H33.3035C33.1331 31.6678 32.9685 31.606 32.8404 31.4938L28.5908 27.7761C28.2985 27.5203 28.2688 27.076 28.5245 26.7834C28.7802 26.4911 29.2247 26.4614 29.5172 26.7171L33.5678 30.2609H35.6144C36.0029 30.2609 36.3178 30.5757 36.3178 30.9642C36.3178 31.3527 36.0027 31.6678 35.6142 31.6678Z" fill="#2A404F"/>
<path d="M35.6311 33.3764C35.2426 33.3764 34.9277 33.0615 34.9277 32.673V30.9647C34.9277 30.5762 35.2426 30.2614 35.6311 30.2614H45.7491C46.1376 30.2614 46.4524 30.5762 46.4524 30.9647C46.4524 31.3532 46.1376 31.6681 45.7491 31.6681H36.3345V32.673C36.3345 33.0615 36.0196 33.3764 35.6311 33.3764Z" fill="#22323E"/>
</svg>
