<svg width="72" height="72" viewBox="0 0 72 72" fill="none" xmlns="http://www.w3.org/2000/svg">
<g clip-path="url(#clip0_1461_36458)">
<ellipse cx="36.0008" cy="35.9998" rx="35.2" ry="35.2" fill="#FFE9D6"/>
<mask id="mask0_1461_36458" style="mask-type:alpha" maskUnits="userSpaceOnUse" x="0" y="0" width="72" height="72">
<ellipse cx="36.0008" cy="35.9998" rx="35.2" ry="35.2" fill="#FFE9D6"/>
</mask>
<g mask="url(#mask0_1461_36458)">
<path d="M38.4707 15.3357V18.0764L39.4268 19.2874H42.4861C43.0493 19.2874 43.5059 18.8308 43.5059 18.2676V15.2083C43.5059 14.6451 43.0493 14.1885 42.4861 14.1885H39.4268L38.4707 15.3357Z" fill="#FF8086"/>
<path d="M36.3672 14.1885H39.4266V19.2874H36.3672V14.1885Z" fill="#E5646E"/>
<path d="M37.3872 25.4064H35.3477V14.1887C35.3477 13.6256 35.8043 13.1689 36.3674 13.1689C36.9306 13.1689 37.3872 13.6256 37.3872 14.1887V25.4064Z" fill="#FFC269"/>
<path d="M63.2389 32.5449H9.49559C9.09252 32.5449 8.72744 32.7823 8.56376 33.1506L5.66016 39.6835L8.25922 40.512H64.7302L67.0743 39.6835L64.1708 33.1506C64.007 32.7823 63.642 32.5449 63.2389 32.5449V32.5449Z" fill="#FF8086"/>
<path d="M67.3441 40.2892L67.075 39.6836H5.66092L5.39182 40.2892C5.092 40.9636 5.58571 41.7232 6.32365 41.7232H6.79403L7.46327 42.6792H65.1346L65.9419 41.7232H66.4123C67.1503 41.7232 67.644 40.9636 67.3441 40.2892Z" fill="#E5646E"/>
<path d="M65.941 70.2769H8.02539V42.7425H20.0504L36.3671 27.9131L52.6839 42.7425L65.941 43.7623V70.2769Z" fill="#FFC269"/>
<path d="M30.248 58.0393V68.2372H42.4855V58.0393C42.4855 57.4761 42.0289 57.0195 41.4658 57.0195H37.3866L36.4092 58.1243L35.347 57.0195H31.2678C30.7047 57.0195 30.248 57.4761 30.248 58.0393V58.0393Z" fill="#C38C66"/>
<path d="M35.3477 57.0195H37.3872V67.2174H35.3477V57.0195Z" fill="#B57F5F"/>
<path d="M36.3668 49.8811C39.7461 49.8811 42.4855 47.1416 42.4855 43.7623C42.4855 40.383 39.7461 37.6436 36.3668 37.6436C32.9875 37.6436 30.248 40.383 30.248 43.7623C30.248 47.1416 32.9875 49.8811 36.3668 49.8811Z" fill="#FFF0AF"/>
<path d="M36.3682 47.8419C38.6211 47.8419 40.4474 46.0156 40.4474 43.7628C40.4474 41.5099 38.6211 39.6836 36.3682 39.6836C34.1154 39.6836 32.2891 41.5099 32.2891 43.7628C32.2891 46.0156 34.1154 47.8419 36.3682 47.8419Z" fill="white"/>
<path d="M39.3192 42.2868C39.0663 41.7829 38.4548 41.5807 37.9509 41.8307L35.9113 42.8505L35.3477 43.7627V45.8023C35.3477 46.366 35.8038 46.8221 36.3674 46.8221C36.9311 46.8221 37.3872 46.366 37.3872 45.8023V44.3931L38.8631 43.6551C39.367 43.4032 39.5713 42.7907 39.3192 42.2868V42.2868Z" fill="#857E87"/>
<path d="M28.209 67.218V70.2774H44.5257V67.218C44.5257 66.6549 44.069 66.1982 43.5059 66.1982H29.2288C28.6656 66.1982 28.209 66.6549 28.209 67.218Z" fill="#C8C5C9"/>
<path d="M52.6837 41.7229L36.3669 25.4062L20.0503 41.7229H6.79297V70.2771H8.83255V45.8021C8.83255 44.6756 9.74565 43.7625 10.8721 43.7625H21.0692C21.8808 43.7625 22.6591 43.4401 23.233 42.8662L36.3669 29.7328L49.5007 42.8661C50.0746 43.44 50.8529 43.7624 51.6646 43.7624H65.9409V41.7228H52.6837V41.7229Z" fill="#FFA95F"/>
<path d="M52.6845 42.7431C52.4235 42.7431 52.1626 42.6435 51.9635 42.4443L36.3678 26.8487L20.7721 42.4443C20.3738 42.8426 19.7284 42.8426 19.33 42.4443C18.9317 42.0459 18.9317 41.4005 19.33 41.0022L35.6467 24.6855C36.045 24.2871 36.6904 24.2871 37.0888 24.6855L53.4055 41.0022C53.8038 41.4005 53.8038 42.0459 53.4055 42.4443C53.2063 42.6435 52.9454 42.7431 52.6845 42.7431Z" fill="#DB4655"/>
<path d="M67.9812 71.2974H4.75417C4.19048 71.2974 3.73438 70.8413 3.73438 70.2776C3.73438 69.7139 4.19048 69.2578 4.75417 69.2578H67.9812C68.5449 69.2578 69.001 69.7139 69.001 70.2776C69.001 70.8413 68.5449 71.2974 67.9812 71.2974Z" fill="#DAD8DB"/>
<path d="M12.9124 62.1185H24.1301C24.6933 62.1185 25.1499 61.6619 25.1499 61.0987V58.0393C25.1499 57.4761 24.6933 57.0195 24.1301 57.0195H19.0311L17.9688 57.7419L16.9915 57.0195H12.9124C12.3492 57.0195 11.8926 57.4761 11.8926 58.0393V61.0987C11.8926 61.6619 12.3492 62.1185 12.9124 62.1185Z" fill="#EDF4FF"/>
<path d="M12.9126 59.0591V57.0195H11.8928C11.3297 57.0195 10.873 57.4761 10.873 58.0393V62.1185C10.873 62.6817 11.3297 63.1383 11.8928 63.1383H16.9918L18.0116 62.5487L19.0314 63.1383H24.1303C24.6935 63.1383 25.1501 62.6817 25.1501 62.1185V61.0987H14.9522C13.8257 61.0987 12.9126 60.1856 12.9126 59.0591Z" fill="#DBEAFF"/>
<path d="M17.9642 61.7042L16.9922 61.0987V57.0195H19.0318V61.0987L17.9642 61.7042Z" fill="#FFE09F"/>
<path d="M16.9922 61.0996H19.0318V63.1392H16.9922V61.0996Z" fill="#FFC269"/>
<path d="M36.3674 44.7827C36.9307 44.7827 37.3872 44.3262 37.3872 43.763C37.3872 43.1997 36.9307 42.7432 36.3674 42.7432C35.8042 42.7432 35.3477 43.1997 35.3477 43.763C35.3477 44.3262 35.8042 44.7827 36.3674 44.7827Z" fill="#4B3F4E"/>
<path d="M12.9124 51.9212H24.1301C24.6933 51.9212 25.1499 51.4646 25.1499 50.9014V47.8421C25.1499 47.2789 24.6933 46.8223 24.1301 46.8223H19.0311L17.9688 47.5447L16.9915 46.8223H12.9124C12.3492 46.8223 11.8926 47.2789 11.8926 47.8421V50.9014C11.8926 51.4646 12.3492 51.9212 12.9124 51.9212Z" fill="#EDF4FF"/>
<path d="M12.9126 48.8618V46.8223H11.8928C11.3297 46.8223 10.873 47.2789 10.873 47.8421V51.9212C10.873 52.4844 11.3297 52.941 11.8928 52.941H16.9918L18.0116 52.3515L19.0314 52.941H24.1303C24.6935 52.941 25.1501 52.4844 25.1501 51.9212V50.9014H14.9522C13.8257 50.9014 12.9126 49.9883 12.9126 48.8618Z" fill="#DBEAFF"/>
<path d="M17.9642 51.5069L16.9922 50.9014V46.8223H19.0318V50.9014L17.9642 51.5069Z" fill="#FFE09F"/>
<path d="M16.9922 50.9014H19.0318V52.941H16.9922V50.9014Z" fill="#FFC269"/>
<path d="M49.6253 62.1185H60.843C61.4061 62.1185 61.8628 61.6619 61.8628 61.0987V58.0393C61.8628 57.4761 61.4061 57.0195 60.843 57.0195H55.744L54.6816 57.7419L53.7044 57.0195H49.6253C49.0621 57.0195 48.6055 57.4761 48.6055 58.0393V61.0987C48.6055 61.6619 49.0621 62.1185 49.6253 62.1185Z" fill="#EDF4FF"/>
<path d="M49.6255 59.0591V57.0195H48.6057C48.0425 57.0195 47.5859 57.4761 47.5859 58.0393V62.1185C47.5859 62.6817 48.0425 63.1383 48.6057 63.1383H53.7047L54.7245 62.5487L55.7443 63.1383H60.8432C61.4064 63.1383 61.863 62.6817 61.863 62.1185V61.0987H51.6651C50.5386 61.0987 49.6255 60.1856 49.6255 59.0591Z" fill="#DBEAFF"/>
<path d="M54.6771 61.7042L53.7051 61.0987V57.0195H55.7447V61.0987L54.6771 61.7042Z" fill="#FFE09F"/>
<path d="M53.7051 61.0996H55.7447V63.1392H53.7051V61.0996Z" fill="#FFC269"/>
<path d="M49.6253 51.9212H60.843C61.4061 51.9212 61.8628 51.4646 61.8628 50.9014V47.8421C61.8628 47.2789 61.4061 46.8223 60.843 46.8223H55.744L54.6816 47.5447L53.7044 46.8223H49.6253C49.0621 46.8223 48.6055 47.2789 48.6055 47.8421V50.9014C48.6055 51.4646 49.0621 51.9212 49.6253 51.9212Z" fill="#EDF4FF"/>
<path d="M49.6255 48.8618V46.8223H48.6057C48.0425 46.8223 47.5859 47.2789 47.5859 47.8421V51.9212C47.5859 52.4844 48.0425 52.941 48.6057 52.941H53.7047L54.7245 52.3515L55.7443 52.941H60.8432C61.4064 52.941 61.863 52.4844 61.863 51.9212V50.9014H51.6651C50.5386 50.9014 49.6255 49.9883 49.6255 48.8618Z" fill="#DBEAFF"/>
<path d="M54.6771 51.5069L53.7051 50.9014V46.8223H55.7447V50.9014L54.6771 51.5069Z" fill="#FFE09F"/>
<path d="M53.7051 50.9014H55.7447V52.941H53.7051V50.9014Z" fill="#FFC269"/>
</g>
</g>
<defs>
<clipPath id="clip0_1461_36458">
<rect width="70.4" height="71.1333" fill="white" transform="translate(0.800781 0.799805)"/>
</clipPath>
</defs>
</svg>
