<svg width="72" height="72" viewBox="0 0 72 72" fill="none" xmlns="http://www.w3.org/2000/svg">
<mask id="mask0_1461_36269" style="mask-type:alpha" maskUnits="userSpaceOnUse" x="0" y="0" width="72" height="72">
<circle cx="36.0008" cy="35.9998" r="35.2" fill="#FFE9D6"/>
</mask>
<g mask="url(#mask0_1461_36269)">
<path d="M13.5854 -10.2002V31.6358H-8.13208C-8.5376 30.2092 -8.85503 28.7451 -9.07632 27.2508C-9.33467 25.5369 -9.4668 23.7827 -9.4668 21.9984C-9.4668 8.53311 -1.90698 -3.16621 9.20044 -9.08516C9.94756 -9.48315 10.7108 -9.85537 11.4891 -10.2002H13.5854Z" fill="#FF7707"/>
<path d="M9.20044 -9.08496V27.251H-9.07632C-9.33467 25.5371 -9.4668 23.7829 -9.4668 21.9986C-9.4668 8.5333 -1.90698 -3.16601 9.20044 -9.08496Z" fill="#FDD13C"/>
<path d="M24.9517 30.6308V22.752C23.2352 22.752 21.8438 24.1434 21.8438 25.8599V27.5229C21.8439 29.2394 23.2352 30.6308 24.9517 30.6308Z" fill="#43265C"/>
<path d="M35.8519 43.7109C31.6162 43.7109 27.6557 44.8886 24.2793 46.9338V69.1989C27.9457 70.4933 31.8898 71.1999 35.9993 71.1999C40.073 71.1999 43.9841 70.5055 47.6234 69.2325V47.3588C47.6234 47.2593 47.628 47.1612 47.6346 47.064C44.2127 44.9391 40.1761 43.7109 35.8519 43.7109V43.7109Z" fill="#FFE9D6"/>
<path d="M28.9088 70.4856V44.8115C27.2751 45.3446 25.7234 46.0592 24.2793 46.9339V69.199C25.7789 69.7284 27.3239 70.1614 28.9088 70.4856Z" fill="#FFB8A4"/>
<path d="M35.8535 51.5889L39.3212 55.0566L35.8535 58.5243L32.3858 55.0566L35.8535 51.5889Z" fill="#8757F3"/>
<path d="M35.8517 39.7646C30.2673 39.7646 25.7402 44.2916 25.7402 49.8761C25.7402 53.5931 27.7473 56.8395 30.7353 58.5965L35.9108 53.421L41.0431 58.5533C43.9901 56.7864 45.9631 53.5621 45.9631 49.8761C45.9631 44.2916 41.4361 39.7646 35.8517 39.7646Z" fill="#FFB8A4"/>
<path d="M35.8535 51.5889L39.7136 55.4489L35.8535 59.309L31.9934 55.4489L35.8535 51.5889Z" fill="#18A795"/>
<path d="M35.8517 38.1436C30.2673 38.1436 25.7402 42.6705 25.7402 48.255C25.7402 51.972 27.7473 55.2184 30.7353 56.9754L35.9108 51.7999L41.0431 56.9322C43.9901 55.1654 45.9631 51.941 45.9631 48.255C45.9631 42.6707 41.4361 38.1436 35.8517 38.1436V38.1436Z" fill="white"/>
<path d="M25.1073 20.1603V10.5398C25.1073 7.24289 27.78 4.57031 31.0768 4.57031H28.5008C25.2038 4.57031 22.5312 7.24303 22.5312 10.5398V20.1603C22.5312 23.4572 25.204 24.1058 28.5008 24.1058H31.0768C27.78 24.1057 25.1073 23.4571 25.1073 20.1603V20.1603Z" fill="#5A2D19"/>
<path d="M35.917 51.5982C33.3384 51.5982 31.248 49.5078 31.248 46.9293V36.4717H40.5859V46.9293C40.586 49.5078 38.4957 51.5982 35.917 51.5982Z" fill="#FF965A"/>
<path d="M48.582 20.0897C48.582 15.8289 45.8487 11.9326 41.5877 11.9326H30.2447C28.862 11.9326 27.6122 12.3448 26.5527 13.0447V36.5365C26.5527 39.6574 28.4858 42.4806 31.4258 43.5276C32.8294 44.0274 34.341 44.2997 35.9162 44.2997C43.2368 44.2997 49.1715 38.3651 49.1715 31.0444V26.8596L48.582 20.0897Z" fill="#FFBE82"/>
<path d="M49.1719 29.2705V21.3916C50.8883 21.3916 52.2798 22.7831 52.2798 24.4995V26.1625C52.2798 27.879 50.8883 29.2705 49.1719 29.2705Z" fill="#FF965A"/>
<path d="M22.5298 29.2705V21.3916C20.8133 21.3916 19.4219 22.7831 19.4219 24.4995V26.1625C19.422 27.879 20.8133 29.2705 22.5298 29.2705Z" fill="#FF965A"/>
<path d="M31.2954 28.1306C30.6857 28.1306 30.1914 27.6362 30.1914 27.0266V24.0073C30.1914 23.3976 30.6857 22.9033 31.2954 22.9033C31.905 22.9033 32.3993 23.3976 32.3993 24.0073V27.0266C32.3993 27.6362 31.905 28.1306 31.2954 28.1306Z" fill="#FF965A"/>
<path d="M40.309 28.1306C39.6994 28.1306 39.2051 27.6362 39.2051 27.0266V24.0073C39.2051 23.3976 39.6994 22.9033 40.309 22.9033C40.9186 22.9033 41.413 23.3976 41.413 24.0073V27.0266C41.4131 27.6362 40.9188 28.1306 40.309 28.1306Z" fill="#FF965A"/>
<path d="M26.9897 31.4246V31.3866C26.9897 30.3902 28.0176 29.7557 28.9281 30.1607C29.4716 30.4025 30.0752 30.5327 30.7098 30.5222C33.0298 30.4838 34.8643 28.5326 34.8643 26.2122V24.2441C34.8643 23.9592 34.6334 23.7283 34.3485 23.7283H30.1171C28.3899 23.7283 26.9897 22.3281 26.9897 20.6009C26.9897 16.3401 30.4439 12.886 34.7047 12.886H44.3331C43.4861 12.5571 42.5626 12.375 41.5893 12.375H30.2462C25.9854 12.375 22.5312 15.8291 22.5312 20.0899V30.9135C22.5312 36.6576 26.1448 41.5413 31.2023 43.4459C32.1471 43.8018 32.8492 42.5408 32.0585 41.9131C28.9703 39.4614 26.9897 35.6744 26.9897 31.4246V31.4246ZM27.4444 24.76H33.8326V26.2971C33.8326 28.0584 32.3998 29.4911 30.6385 29.4911C28.8773 29.4911 27.4445 28.0584 27.4445 26.2971V24.76H27.4444Z" fill="#FF965A"/>
<path d="M44.8692 23.7285H37.4494C37.1645 23.7285 36.9336 23.9594 36.9336 24.2443V26.2972C36.9336 28.6273 38.8293 30.523 41.1594 30.523C43.4895 30.523 45.3852 28.6273 45.3852 26.2972V24.2443C45.3852 23.9594 45.1541 23.7285 44.8692 23.7285ZM44.3534 26.2972C44.3534 28.0585 42.9206 29.4913 41.1594 29.4913C39.3981 29.4913 37.9653 28.0585 37.9653 26.2972V24.7601H44.3536V26.2972H44.3534Z" fill="#FF965A"/>
<path d="M31.2954 27.2468C30.6857 27.2468 30.1914 26.7525 30.1914 26.1428V23.1235C30.1914 22.5138 30.6857 22.0195 31.2954 22.0195C31.905 22.0195 32.3993 22.5138 32.3993 23.1235V26.1428C32.3993 26.7525 31.905 27.2468 31.2954 27.2468Z" fill="#373C41"/>
<path d="M40.309 27.2468C39.6994 27.2468 39.2051 26.7525 39.2051 26.1428V23.1235C39.2051 22.5138 39.6994 22.0195 40.309 22.0195C40.9186 22.0195 41.413 22.5138 41.413 23.1235V26.1428C41.4131 26.7525 40.9188 27.2468 40.309 27.2468Z" fill="#373C41"/>
<path d="M32.7492 21.4667H29.5297C28.92 21.4667 28.4258 20.9724 28.4258 20.3627C28.4258 19.753 28.9201 19.2588 29.5297 19.2588H32.7492C33.359 19.2588 33.8532 19.7531 33.8532 20.3627C33.8533 20.9724 33.359 21.4667 32.7492 21.4667Z" fill="#783C28"/>
<path d="M41.9485 21.4667H38.7289C38.1192 21.4667 37.625 20.9724 37.625 20.3627C37.625 19.753 38.1193 19.2588 38.7289 19.2588H41.9485C42.5582 19.2588 43.0524 19.7531 43.0524 20.3627C43.0526 20.9724 42.5582 21.4667 41.9485 21.4667V21.4667Z" fill="#783C28"/>
<path d="M31.8519 33.3535C31.5145 33.3535 31.245 33.6479 31.2901 33.9823C31.5972 36.2635 33.5517 38.0224 35.9171 38.0224C38.2824 38.0224 40.2369 36.2635 40.544 33.9823C40.5891 33.6479 40.3195 33.3535 39.9822 33.3535H31.8519Z" fill="#FF7707"/>
<path d="M34.1277 28.8134C33.8532 29.9093 34.352 31.1031 35.3059 31.463C35.4978 31.5354 35.7031 31.5745 35.9165 31.5745C36.1299 31.5745 36.3351 31.5353 36.5272 31.463C37.481 31.1031 37.9798 29.9093 37.7054 28.8134L36.7956 25.1801C36.5665 24.2655 35.2666 24.2655 35.0376 25.1801L34.1277 28.8134Z" fill="#FF965A"/>
<path d="M49.173 10.5398C49.173 7.24289 46.5003 4.57031 43.2035 4.57031H28.5008C25.2038 4.57031 22.5312 7.24303 22.5312 10.5398V20.1601V20.1605V26.8602C23.5118 26.8602 24.3067 26.0653 24.3067 25.0848V17.2452C24.3067 15.5136 25.2811 13.9175 26.8383 13.1601C26.8777 13.1409 26.917 13.1222 26.9563 13.104C28.2531 12.5013 29.6653 13.7394 29.2252 15.1C29.2198 15.1167 29.2144 15.1335 29.2092 15.1503C28.9112 16.0987 29.6261 17.0631 30.6201 17.0631H37.1257C39.522 17.0631 41.6091 15.7412 42.6987 13.7871C43.1148 13.0409 44.0442 12.729 44.8166 13.0938C44.8317 13.101 44.8467 13.1081 44.8617 13.1153C46.4241 13.8661 47.3975 15.4689 47.3975 17.2025V25.085C47.3975 26.0655 48.1924 26.8604 49.1729 26.8604V20.0901V10.5398H49.173Z" fill="#22323E"/>
<path d="M26.9527 10.5398C26.9527 7.24289 29.6254 4.57031 32.9222 4.57031H28.5008C25.2038 4.57031 22.5312 7.24303 22.5312 10.5398V20.1601V20.1605V26.8602C23.5118 26.8602 24.3067 26.0653 24.3067 25.0848V17.2452C24.3067 15.5136 25.2811 13.9175 26.8383 13.1601C26.8765 13.1415 26.9146 13.1234 26.9527 13.1057V10.5398Z" fill="#22323E"/>
<path d="M47.1203 13.7867C46.9626 14.0697 46.7815 14.3377 46.584 14.592C47.1043 15.3443 47.3976 16.2531 47.3976 17.202V25.0845C47.3976 26.065 48.1926 26.8599 49.1731 26.8599V20.0898V13.0665C48.4141 12.7482 47.5248 13.0612 47.1203 13.7867V13.7867Z" fill="#22323E"/>
<path d="M35.0406 17.0628C34.0466 17.0628 33.3316 16.0984 33.6297 15.1501C33.635 15.1333 33.6404 15.1165 33.6457 15.0998C34.0859 13.7392 32.6735 12.5011 31.3767 13.1038C31.3374 13.122 31.2981 13.1408 31.2587 13.1599C30.3307 13.6114 29.612 14.3618 29.1809 15.2602C28.9687 16.1717 29.6636 17.0629 30.6192 17.0629H37.1248H37.125H35.0406V17.0628Z" fill="#2A404F"/>
<path d="M30.5984 25.1294C30.3735 25.1294 30.1914 24.9472 30.1914 24.7225V23.49C30.1914 23.2651 30.3737 23.083 30.5984 23.083C30.8231 23.083 31.0053 23.2653 31.0053 23.49V24.7225C31.0053 24.9472 30.8231 25.1294 30.5984 25.1294Z" fill="white"/>
<path d="M39.5925 25.1294C39.3677 25.1294 39.1855 24.9472 39.1855 24.7225V23.49C39.1855 23.2651 39.3678 23.083 39.5925 23.083C39.8174 23.083 39.9995 23.2653 39.9995 23.49V24.7225C39.9995 24.9472 39.8174 25.1294 39.5925 25.1294Z" fill="white"/>
<path d="M30.6379 29.7857C28.3078 29.7857 26.4121 27.89 26.4121 25.5599V23.507C26.4121 23.2221 26.643 22.9912 26.9279 22.9912H34.3477C34.6326 22.9912 34.8635 23.2221 34.8635 23.507V25.5599C34.8637 27.89 32.968 29.7857 30.6379 29.7857ZM27.4439 24.0228V25.5599C27.4439 27.3212 28.8767 28.754 30.6379 28.754C32.3991 28.754 33.8319 27.3212 33.8319 25.5599V24.0228H27.4439Z" fill="#2A404F"/>
<path d="M41.1594 29.7857C38.8293 29.7857 36.9336 27.89 36.9336 25.5599V23.507C36.9336 23.2221 37.1645 22.9912 37.4494 22.9912H44.8692C45.1541 22.9912 45.385 23.2221 45.385 23.507V25.5599C45.3852 27.89 43.4895 29.7857 41.1594 29.7857ZM37.9653 24.0228V25.5599C37.9653 27.3212 39.3981 28.754 41.1594 28.754H41.1595C42.9208 28.754 44.3536 27.3212 44.3536 25.5599V24.0228H37.9653Z" fill="#2A404F"/>
<path d="M41.1584 29.7854C40.8735 29.7854 40.6426 29.5545 40.6426 29.2696C40.6426 28.9847 40.8735 28.7538 41.1584 28.7538C42.9196 28.7538 44.3524 27.321 44.3524 25.5598C44.3524 25.2748 44.5833 25.0439 44.8682 25.0439C45.1531 25.0439 45.384 25.2748 45.384 25.5598C45.3842 27.8897 43.4885 29.7854 41.1584 29.7854V29.7854Z" fill="#22323E"/>
<path d="M33.7418 56.2441L32.8574 61.9428L33.3607 71.1009C34.2317 71.1653 35.1112 71.1991 35.9987 71.1991C36.7859 71.1991 37.5665 71.1706 38.3409 71.1196L38.8451 61.9428L37.9608 56.2441H33.7418Z" fill="#18A795"/>
<path d="M18.7012 57.0744V66.6608C20.5725 67.7188 22.5496 68.6113 24.6138 69.3165V46.7363C24.5914 46.7494 24.5689 46.7625 24.5464 46.7757C20.9049 48.9132 18.7012 52.852 18.7012 57.0744Z" fill="#606E78"/>
<path d="M13.668 63.2097C15.3122 64.5606 17.0818 65.7642 18.9554 66.8031C19.1673 61.4379 21.2688 56.5594 24.6132 52.813V46.7363C18.7416 50.1552 14.5698 56.1709 13.668 63.2097V63.2097Z" fill="#2A404F"/>
<path d="M58.0628 63.4253C57.3859 57.7059 54.5507 52.6491 50.3945 49.0889V68.1302C53.1583 66.89 55.7321 65.3025 58.0628 63.4253V63.4253Z" fill="#2A404F"/>
<path d="M47.2207 69.3719C48.8422 68.8269 50.4106 68.1666 51.9168 67.4016V50.521C50.5274 49.0868 48.9498 47.8361 47.2207 46.8135V69.3719Z" fill="#2A404F"/>
<path d="M31.9102 35.7504C32.726 37.1112 34.2149 38.0224 35.917 38.0224C36.6544 38.0224 37.3513 37.8509 37.9714 37.5466C37.705 35.8746 36.2568 34.5967 34.5099 34.5967C33.4788 34.5967 32.5517 35.0418 31.9102 35.7504V35.7504Z" fill="#FFA344"/>
<path d="M38.1866 34.5967H33.5161C33.1524 34.5967 32.8574 34.3019 32.8574 33.9381V33.3535H38.8451V33.9381C38.8451 34.3018 38.5503 34.5967 38.1866 34.5967Z" fill="white"/>
<path d="M38.004 26.2031H36.9723C36.9723 25.6218 36.4994 25.1488 35.918 25.1488C35.3366 25.1488 34.8636 25.6218 34.8636 26.2031H33.832C33.832 25.0529 34.7679 24.1172 35.918 24.1172C37.0681 24.1172 38.004 25.053 38.004 26.2031Z" fill="#2A404F"/>
<path d="M46.5839 24.0225H44.9299C44.645 24.0225 44.4141 23.7916 44.4141 23.5067C44.4141 23.2218 44.645 22.9909 44.9299 22.9909H46.388L49.3134 20.3947C49.5265 20.2055 49.8526 20.2251 50.0417 20.4381C50.2308 20.6512 50.2114 20.9772 49.9983 21.1663L46.9264 23.8926C46.8319 23.9763 46.7103 24.0225 46.5839 24.0225Z" fill="#2A404F"/>
<path d="M26.9165 24.0227H25.222C25.097 24.0227 24.9763 23.9774 24.8824 23.8951L21.766 21.1688C21.5516 20.9812 21.5299 20.6553 21.7174 20.4408C21.9049 20.2265 22.2308 20.2047 22.4454 20.3922L25.4158 22.9909H26.9166C27.2016 22.9909 27.4325 23.2218 27.4325 23.5067C27.4325 23.7916 27.2014 24.0227 26.9165 24.0227V24.0227Z" fill="#2A404F"/>
<path d="M26.9279 25.2756C26.643 25.2756 26.4121 25.0447 26.4121 24.7598V23.507C26.4121 23.2221 26.643 22.9912 26.9279 22.9912H34.3477C34.6326 22.9912 34.8635 23.2221 34.8635 23.507C34.8635 23.7919 34.6326 24.0228 34.3477 24.0228H27.4437V24.7598C27.4437 25.0447 27.2128 25.2756 26.9279 25.2756Z" fill="#22323E"/>
<path d="M31.7832 47.7334H48.5354V73.0773H31.7832V47.7334Z" fill="white"/>
<path d="M33.4487 62.6254V58.203C33.4487 58.062 33.535 57.9333 33.6677 57.886C33.8152 57.8335 33.9829 57.7472 33.9829 57.6267V53.3731C33.9829 53.1524 33.7222 53.0587 33.4612 53.0587C33.457 53.0587 33.4527 53.0592 33.4485 53.0593V47.7334H25.7344V73.2629C29.3426 74.3059 33.1555 74.8667 37.0999 74.8667C41.0697 74.8667 44.9063 74.2982 48.5353 73.2421V69.7837H40.6068C36.6535 69.7835 33.4487 66.5787 33.4487 62.6254V62.6254Z" fill="#FFE9D6"/>
<path d="M32.673 52.743H31.1169V51.118H30.291V55.2097H31.1169V53.5145H32.673V55.2097H33.4929V51.118H32.673V52.743Z" fill="#FF7707"/>
<path d="M35.6597 55.2915C36.1085 55.2915 36.4796 55.1454 36.7848 54.8473C37.0901 54.5491 37.2457 54.1809 37.2457 53.7483C37.2457 53.3216 37.0901 52.9534 36.7848 52.6553C36.4796 52.3572 36.1026 52.2052 35.6597 52.2052C35.2168 52.2052 34.8398 52.3572 34.5345 52.6553C34.2293 52.9534 34.0797 53.3158 34.0797 53.7483C34.0797 54.1867 34.2293 54.5491 34.5345 54.8473C34.8398 55.1454 35.2108 55.2915 35.6597 55.2915ZM35.6597 54.555C35.4263 54.555 35.2348 54.479 35.0791 54.327C34.9295 54.1692 34.8517 53.9763 34.8517 53.7483C34.8517 53.5204 34.9295 53.3275 35.0791 53.1697C35.2348 53.0177 35.4263 52.9417 35.6597 52.9417C35.8931 52.9417 36.0846 53.0177 36.2402 53.1697C36.3958 53.3216 36.4736 53.5145 36.4736 53.7483C36.4736 53.9822 36.3958 54.1751 36.2402 54.327C36.0846 54.479 35.8931 54.555 35.6597 54.555Z" fill="#FF7707"/>
<path d="M38.0821 54.8473C38.3873 55.1454 38.7643 55.2915 39.2132 55.2915C39.5005 55.2915 39.7638 55.2214 40.0092 55.0869C40.2486 54.9525 40.4341 54.7654 40.5658 54.5316L39.8955 54.1575C39.7698 54.4147 39.5364 54.5433 39.2072 54.5433C38.9738 54.5433 38.7823 54.4673 38.6327 54.3212C38.483 54.1634 38.4052 53.9763 38.4052 53.7483C38.4052 53.5145 38.483 53.3216 38.6327 53.1697C38.7823 53.0235 38.9738 52.9475 39.2072 52.9475C39.5304 52.9475 39.7578 53.0761 39.8895 53.3392L40.5538 52.9592C40.4281 52.7313 40.2486 52.5442 40.0092 52.4098C39.7698 52.2753 39.5065 52.2052 39.2132 52.2052C38.7643 52.2052 38.3873 52.3513 38.0821 52.6494C37.7828 52.9475 37.6332 53.3099 37.6332 53.7483C37.6332 54.1809 37.7828 54.5491 38.0821 54.8473Z" fill="#FF7707"/>
<path d="M40.6518 51.4979L40.8552 52.1877L41.6452 51.9714V55.2097H42.4712V51.118H41.753L40.6518 51.4979Z" fill="#FF7707"/>
<path d="M43.5527 54.7128C43.852 55.0986 44.2649 55.2915 44.7856 55.2915C45.3183 55.2915 45.7252 55.0986 46.0185 54.7128C46.3118 54.3212 46.4614 53.801 46.4614 53.1638C46.4614 52.5267 46.3118 52.0123 46.0185 51.6207C45.7252 51.229 45.3183 51.0361 44.7856 51.0361C44.2649 51.0361 43.852 51.229 43.5527 51.6207C43.2595 52.0123 43.1099 52.5267 43.1099 53.1638C43.1099 53.801 43.2595 54.3212 43.5527 54.7128ZM44.7856 51.8194C45.3542 51.8194 45.6415 52.2695 45.6415 53.1638C45.6415 54.0581 45.3542 54.5024 44.7856 54.5024C44.2171 54.5024 43.9358 54.0581 43.9358 53.1638C43.9358 52.2695 44.2171 51.8194 44.7856 51.8194Z" fill="#FF7707"/>
<path d="M36.8632 63.9263C36.2388 64.2104 35.5023 63.9344 35.2184 63.31L33.602 59.7566C33.3179 59.1322 33.594 58.3957 34.2183 58.1118C34.8427 57.8277 35.5792 58.1037 35.8631 58.7281L37.4795 62.2815C37.7636 62.9059 37.4877 63.6423 36.8632 63.9263Z" fill="#FFBE82"/>
<path d="M35.8124 69.6227C35.8167 70.1634 35.3819 70.6051 34.841 70.6094L32.1 70.6309C31.5593 70.6352 31.1176 70.2003 31.1133 69.6596C31.109 69.1189 31.5438 68.6772 32.0846 68.6729L34.8256 68.6514C35.3665 68.6472 35.8081 69.082 35.8124 69.6227Z" fill="#FFBE82"/>
<path d="M35.9928 67.6635C35.9979 68.3123 35.4761 68.8425 34.8273 68.8475L32.0863 68.869C31.4375 68.8741 30.9074 68.3523 30.9024 67.7035C30.8972 67.0547 31.4191 66.5246 32.0678 66.5196L34.8089 66.4981C35.4577 66.4929 35.9877 67.0148 35.9928 67.6635Z" fill="#FFBE82"/>
<path d="M35.9752 65.4438C35.9803 66.0926 35.4585 66.6227 34.8097 66.6277L32.0687 66.6493C31.4199 66.6544 30.8898 66.1326 30.8848 65.4838C30.8797 64.835 31.4015 64.3049 32.0503 64.2999L34.7913 64.2784C35.4401 64.2732 35.9702 64.795 35.9752 65.4438Z" fill="#FFBE82"/>
<path d="M35.9576 63.2251C35.9628 63.8739 35.441 64.404 34.7922 64.409L32.0511 64.4305C31.4024 64.4356 30.8722 63.9138 30.8672 63.265C30.8621 62.6163 31.3839 62.0861 32.0327 62.0811L34.7737 62.0596C35.4224 62.0545 35.9525 62.5763 35.9576 63.2251Z" fill="#FFBE82"/>
<path d="M38.8624 70.6312H33.4629V62.0703H38.8624C40.6083 62.0703 42.0236 63.4857 42.0236 65.2317V67.4699C42.0236 69.2158 40.6082 70.6312 38.8624 70.6312V70.6312Z" fill="#FFBE82"/>
<path d="M49.2273 63.3164V69.9831H45.5541H39.9008C38.1963 69.9831 36.8126 68.6051 36.8058 66.9008C36.8019 65.9399 36.7988 64.9625 36.7988 64.3106V63.3164H49.2273Z" fill="#FFBE82"/>
<path d="M43.7578 63.3164H53.7187V72.1479H43.7578V63.3164Z" fill="#2A404F"/>
</g>
</svg>
