<svg width="96" height="96" viewBox="0 0 96 96" fill="none" xmlns="http://www.w3.org/2000/svg">
<circle cx="48" cy="48" r="48" fill="#FFE9D6"/>
<mask id="mask0_476_32762" style="mask-type:alpha" maskUnits="userSpaceOnUse" x="0" y="0" width="96" height="96">
<circle cx="48" cy="48" r="48" fill="#FFE9D6"/>
</mask>
<g mask="url(#mask0_476_32762)">
<path d="M19.4348 -6V51.0491H-10.1799C-10.7329 49.1038 -11.1658 47.1072 -11.4675 45.0696C-11.8198 42.7324 -12 40.3403 -12 37.9072C-12 19.5454 -1.69116 3.5918 13.4553 -4.47949C14.4741 -5.02222 15.5149 -5.52979 16.5762 -6H19.4348Z" fill="#FF7707"/>
<path d="M13.4553 -4.47949V45.0696H-11.4675C-11.8198 42.7324 -12 40.3403 -12 37.9072C-12 19.5454 -1.69116 3.5918 13.4553 -4.47949Z" fill="#FDD13C"/>
<path d="M66.3044 27.0947V21.3238C66.3044 15.6102 61.6728 10.9785 55.9592 10.9785H40.7598C35.0462 10.9785 30.4145 15.6102 30.4145 21.3238V27.2395C30.4145 30.7821 27.5426 33.6541 24 33.6541C24 40.3166 29.401 45.7176 36.0635 45.7176H60.8003C67.4628 45.7176 72.8638 40.3166 72.8638 33.6541C69.2412 33.6539 66.3044 30.7171 66.3044 27.0947Z" fill="#2A404F"/>
<path d="M62.0933 58.2197H34.7724C34.6514 58.2197 34.5308 58.2218 34.4108 58.2257C29.9146 58.3742 26.3887 62.1561 26.3887 66.6548L26.3887 91.2933C26.8587 91.7095 27.3389 92.1098 27.8255 92.5C35.1568 97.0387 43.7992 95.9999 53.0554 95.9999C60.1189 95.9999 66.8257 94.4737 72.8649 91.7339V68.9913C72.8649 63.0423 68.0423 58.2197 62.0933 58.2197Z" fill="#FDD13C"/>
<path d="M48.4326 52.665C42.6352 52.665 37.9355 57.3647 37.9355 63.1621C37.9355 67.0209 40.019 70.3912 43.121 72.2152L48.4938 66.8424L53.8219 72.1705C56.8814 70.3362 58.9297 66.989 58.9297 63.1623C58.9297 57.3647 54.23 52.665 48.4326 52.665Z" fill="#FFB401"/>
<path d="M24 68.9911V90.2528C25.2875 91.2335 26.6251 92.1514 28.01 93V68.9911C28.01 63.0423 32.8326 58.2197 38.7814 58.2197H34.7713C28.8225 58.2195 24 63.0421 24 68.9911Z" fill="#FFB401"/>
<path d="M47.0254 95.6242C48.0053 95.7471 48.9944 95.8403 49.9918 95.9032V64.1143H47.0254V95.6242Z" fill="white"/>
<path d="M49.6387 95.8769C50.6195 95.9458 51.6088 95.9845 52.6051 95.9936V64.1143H49.6387V95.8769Z" fill="#FFB401"/>
<path d="M47.0254 96.5C48.0051 96.6229 48.9946 95.8367 49.9918 95.8994V64.1143H47.0254V96.5Z" fill="white"/>
<path d="M48.5153 88.8422C47.9805 88.8422 47.5469 88.4086 47.5469 87.8737C47.5469 87.3389 47.9805 86.9053 48.5153 86.9053C49.0502 86.9053 49.4838 87.3389 49.4838 87.8737C49.4838 88.4086 49.0502 88.8422 48.5153 88.8422Z" fill="#18A795"/>
<path d="M48.5153 81.2719C47.9805 81.2719 47.5469 80.8383 47.5469 80.3034C47.5469 79.7686 47.9805 79.335 48.5153 79.335C49.0502 79.335 49.4838 79.7686 49.4838 80.3034C49.4838 80.8383 49.0502 81.2719 48.5153 81.2719Z" fill="#18A795"/>
<path d="M48.5153 73.7016C47.9805 73.7016 47.5469 73.268 47.5469 72.7331C47.5469 72.1982 47.9805 71.7646 48.5153 71.7646C49.0502 71.7646 49.4838 72.1982 49.4838 72.7331C49.4838 73.268 49.0502 73.7016 48.5153 73.7016Z" fill="#18A795"/>
<path d="M48.4326 50.2539C42.6352 50.2539 37.9355 54.9536 37.9355 60.751C37.9355 64.6098 40.019 67.9801 43.121 69.8041L48.4938 64.4313L53.8219 69.7594C56.8814 67.9251 58.9297 64.5778 58.9297 60.7512C58.9297 54.9536 54.23 50.2539 48.4326 50.2539Z" fill="white"/>
<path d="M55.8556 26.7808H40.867C37.5059 26.7808 34.7812 26.1195 34.7812 22.7586V12.951C34.7812 9.59006 37.5059 6.86523 40.867 6.86523H55.8556C59.2167 6.86523 61.9413 9.58987 61.9413 12.951V22.7584C61.9413 26.1195 59.2167 26.7808 55.8556 26.7808Z" fill="#2A404F"/>
<path d="M36.6262 18.9016V17.4978C36.6262 13.8968 39.5454 10.9775 43.1465 10.9775H40.3328C36.7318 10.9775 33.8125 13.8968 33.8125 17.4978V18.9016H36.6262Z" fill="#22323E"/>
<path d="M48.4317 64.1147C45.6152 64.1147 43.332 61.8316 43.332 59.0151V47.5928H53.5313V59.0151C53.5313 61.8316 51.248 64.1147 48.4317 64.1147Z" fill="#FF965A"/>
<path d="M62.7705 25.6281C62.7368 22.2355 59.9771 19.5029 56.5842 19.5029H49.2339C45.0109 19.5029 41.1855 21.2018 38.4004 23.9516V46.8892C38.4004 49.568 39.9492 52.0272 42.3948 53.1202C44.1951 53.9249 46.1895 54.3725 48.2893 54.3725C56.3644 54.3725 62.9106 47.8263 62.9106 39.7512L62.7705 25.6281Z" fill="#FFBE82"/>
<path d="M62.9102 37.9562V29.3506C64.7849 29.3506 66.3047 30.8704 66.3047 32.7452V34.5616C66.3047 36.4364 64.7849 37.9562 62.9102 37.9562Z" fill="#FF965A"/>
<path d="M33.8106 37.9562V29.3506C31.9359 29.3506 30.416 30.8704 30.416 32.7452V34.5616C30.416 36.4364 31.9359 37.9562 33.8106 37.9562Z" fill="#FF965A"/>
<path d="M43.3836 36.7509C42.7177 36.7509 42.1777 36.2109 42.1777 35.5449V32.2469C42.1777 31.5809 42.7177 31.041 43.3836 31.041C44.0496 31.041 44.5896 31.5809 44.5896 32.2469V35.5449C44.5896 36.2109 44.0496 36.7509 43.3836 36.7509Z" fill="#FF965A"/>
<path d="M53.2293 36.7509C52.5634 36.7509 52.0234 36.2109 52.0234 35.5449V32.2469C52.0234 31.5809 52.5634 31.041 53.2293 31.041C53.8953 31.041 54.4353 31.5809 54.4353 32.2469V35.5449C54.4351 36.2109 53.8951 36.7509 53.2293 36.7509Z" fill="#FF965A"/>
<path d="M43.3836 35.745C42.7177 35.745 42.1777 35.2051 42.1777 34.5391V31.2411C42.1777 30.5751 42.7177 30.0352 43.3836 30.0352C44.0496 30.0352 44.5896 30.5751 44.5896 31.2411V34.5391C44.5896 35.2051 44.0496 35.745 43.3836 35.745Z" fill="#373C41"/>
<path d="M53.2293 35.745C52.5634 35.745 52.0234 35.2051 52.0234 34.5391V31.2411C52.0234 30.5751 52.5634 30.0352 53.2293 30.0352C53.8953 30.0352 54.4353 30.5751 54.4353 31.2411V34.5391C54.4351 35.2051 53.8951 35.745 53.2293 35.745Z" fill="#373C41"/>
<path d="M46.4784 37.8118C46.1785 38.8682 46.7233 40.0187 47.7653 40.3657C47.9749 40.4354 48.1992 40.4734 48.4322 40.4734C48.6653 40.4734 48.8895 40.4356 49.0991 40.3657C50.1408 40.0189 50.6857 38.8682 50.386 37.8118L48.924 32.6598C48.7833 32.1642 48.0811 32.1642 47.9405 32.6598L46.4784 37.8118Z" fill="#FF965A"/>
<path d="M33.4487 39.6054C34.1852 39.6054 34.7822 39.0084 34.7822 38.272C34.7822 37.5355 34.1852 36.9385 33.4487 36.9385C32.7123 36.9385 32.1152 37.5355 32.1152 38.272C32.1152 39.0084 32.7123 39.6054 33.4487 39.6054Z" fill="white"/>
<path d="M63.1108 39.6054C63.8473 39.6054 64.4443 39.0084 64.4443 38.272C64.4443 37.5355 63.8473 36.9385 63.1108 36.9385C62.3744 36.9385 61.7773 37.5355 61.7773 38.272C61.7773 39.0084 62.3744 39.6054 63.1108 39.6054Z" fill="white"/>
<path d="M49.6384 19.5293C40.9035 19.5126 33.8125 26.5897 33.8125 35.3246V39.8954C33.8125 45.8078 37.3378 50.8308 42.3281 53.0921C43.7292 53.7269 44.901 51.8612 43.7364 50.8565C40.6606 48.2027 38.7136 44.277 38.7136 39.8954C38.7171 33.4841 38.713 30.5083 38.7124 29.0583C38.7121 27.9104 39.6507 26.9692 40.7985 26.9668H40.8H47.8176C51.9014 26.9668 55.212 23.6562 55.212 19.5723C55.212 19.5723 54.145 19.538 49.6384 19.5293Z" fill="#FF965A"/>
<path d="M33.8125 18.5674V25.9618V35.3247C34.8835 35.3247 35.7517 34.4566 35.7517 33.3856V31.0102C35.7517 28.2221 38.0119 25.962 40.7998 25.962H47.8174C51.9013 25.962 55.2119 22.6514 55.2119 18.5676H33.8125V18.5674Z" fill="#2A404F"/>
<path d="M54.9492 19.5031C58.257 19.5031 60.9719 22.3348 60.9719 25.6426V33.3849C60.9719 34.456 61.84 35.3241 62.911 35.3241V18.9297L54.9492 19.5031Z" fill="#2A404F"/>
<path d="M43.9889 42.5195C43.6131 42.5195 43.3127 42.8475 43.3629 43.2201C43.705 45.7616 45.8826 47.721 48.5176 47.721C51.1528 47.721 53.3302 45.7614 53.6723 43.2201C53.7225 42.8475 53.4221 42.5195 53.0463 42.5195H43.9889Z" fill="#E20A62"/>
<path d="M44.0527 45.1897C44.9616 46.7058 46.6203 47.7208 48.5166 47.7208C49.338 47.7208 50.1146 47.5298 50.8054 47.1907C50.5086 45.328 48.8952 43.9043 46.9489 43.9043C45.8001 43.9045 44.7674 44.4005 44.0527 45.1897Z" fill="#FF5551"/>
<path d="M51.0465 43.9045H45.8432C45.438 43.9045 45.1094 43.5759 45.1094 43.1707V42.5195H51.7802V43.1707C51.7803 43.5759 51.4518 43.9045 51.0465 43.9045Z" fill="white"/>
<path d="M42.6617 34.1341C42.3943 34.1341 42.1777 33.9173 42.1777 33.6501V32.1959C42.1777 31.9285 42.3945 31.7119 42.6617 31.7119C42.929 31.7119 43.1456 31.9287 43.1456 32.1959V33.6501C43.1456 33.9173 42.929 34.1341 42.6617 34.1341Z" fill="white"/>
<path d="M52.5093 33.8958C52.242 33.8958 52.0254 33.6792 52.0254 33.4119V31.9576C52.0254 31.6902 52.2422 31.4736 52.5093 31.4736C52.7767 31.4736 52.9933 31.6904 52.9933 31.9576V33.4119C52.9933 33.679 52.7765 33.8958 52.5093 33.8958Z" fill="white"/>
<path d="M64.7699 94.1335C61.2942 94.1335 58.4766 91.3159 58.4766 87.8402V79.5244H71.0631V87.8402C71.0633 91.3159 68.2456 94.1335 64.7699 94.1335Z" fill="white"/>
</g>
</svg>
