<svg width="375" height="444" viewBox="0 0 375 444" fill="none" xmlns="http://www.w3.org/2000/svg">
<g clip-path="url(#clip0_3_45728)">
<rect width="375" height="473" fill="#FF7707"/>
<path d="M48.7937 262.413C49.4599 262.413 50 261.873 50 261.206C50 260.54 49.4599 260 48.7937 260C48.1275 260 47.5874 260.54 47.5874 261.206C47.5874 261.873 48.1275 262.413 48.7937 262.413Z" fill="white"/>
<path d="M59.137 262.413C59.8032 262.413 60.3433 261.873 60.3433 261.206C60.3433 260.54 59.8032 260 59.137 260C58.4708 260 57.9307 260.54 57.9307 261.206C57.9307 261.873 58.4708 262.413 59.137 262.413Z" fill="white"/>
<path d="M69.48 262.413C70.1462 262.413 70.6863 261.873 70.6863 261.206C70.6863 260.54 70.1462 260 69.48 260C68.8137 260 68.2737 260.54 68.2737 261.206C68.2737 261.873 68.8137 262.413 69.48 262.413Z" fill="white"/>
<path d="M81.0291 261.206C81.0291 261.873 80.4893 262.413 79.8227 262.413C79.1562 262.413 78.6165 261.873 78.6165 261.206C78.6165 260.54 79.1562 260 79.8227 260C80.4893 260 81.0291 260.54 81.0291 261.206Z" fill="white"/>
<path d="M90.1653 262.413C90.8316 262.413 91.3716 261.873 91.3716 261.206C91.3716 260.54 90.8316 260 90.1653 260C89.4991 260 88.959 260.54 88.959 261.206C88.959 261.873 89.4991 262.413 90.1653 262.413Z" fill="white"/>
<path d="M100.508 262.413C101.175 262.413 101.715 261.873 101.715 261.206C101.715 260.54 101.175 260 100.508 260C99.8421 260 99.302 260.54 99.302 261.206C99.302 261.873 99.8421 262.413 100.508 262.413Z" fill="white"/>
<path d="M110.849 262.413C111.515 262.413 112.055 261.873 112.055 261.206C112.055 260.54 111.515 260 110.849 260C110.182 260 109.642 260.54 109.642 261.206C109.642 261.873 110.182 262.413 110.849 262.413Z" fill="white"/>
<path d="M48.7942 272.751C49.4604 272.751 50.0005 272.21 50.0005 271.544C50.0005 270.878 49.4604 270.338 48.7942 270.338C48.1279 270.338 47.5879 270.878 47.5879 271.544C47.5879 272.21 48.1279 272.751 48.7942 272.751Z" fill="white"/>
<path d="M59.1368 272.751C59.803 272.751 60.343 272.21 60.343 271.544C60.343 270.878 59.803 270.338 59.1368 270.338C58.4705 270.338 57.9304 270.878 57.9304 271.544C57.9304 272.21 58.4705 272.751 59.1368 272.751Z" fill="white"/>
<path d="M69.4797 272.751C70.1459 272.751 70.6861 272.21 70.6861 271.544C70.6861 270.878 70.1459 270.338 69.4797 270.338C68.8135 270.338 68.2734 270.878 68.2734 271.544C68.2734 272.21 68.8135 272.751 69.4797 272.751Z" fill="white"/>
<path d="M81.0288 271.544C81.0288 272.211 80.489 272.751 79.8225 272.751C79.156 272.751 78.6162 272.211 78.6162 271.544C78.6162 270.878 79.156 270.338 79.8225 270.338C80.489 270.338 81.0288 270.88 81.0288 271.544Z" fill="white"/>
<path d="M90.1651 272.751C90.8313 272.751 91.3714 272.21 91.3714 271.544C91.3714 270.878 90.8313 270.338 90.1651 270.338C89.4989 270.338 88.9587 270.878 88.9587 271.544C88.9587 272.21 89.4989 272.751 90.1651 272.751Z" fill="white"/>
<path d="M100.508 272.751C101.174 272.751 101.714 272.21 101.714 271.544C101.714 270.878 101.174 270.338 100.508 270.338C99.8419 270.338 99.3018 270.878 99.3018 271.544C99.3018 272.21 99.8419 272.751 100.508 272.751Z" fill="white"/>
<path d="M110.848 272.751C111.515 272.751 112.055 272.21 112.055 271.544C112.055 270.878 111.515 270.338 110.848 270.338C110.182 270.338 109.642 270.878 109.642 271.544C109.642 272.21 110.182 272.751 110.848 272.751Z" fill="white"/>
<path d="M48.7942 283.028C49.4604 283.028 50.0005 282.488 50.0005 281.822C50.0005 281.155 49.4604 280.615 48.7942 280.615C48.1279 280.615 47.5879 281.155 47.5879 281.822C47.5879 282.488 48.1279 283.028 48.7942 283.028Z" fill="white"/>
<path d="M59.1368 283.028C59.803 283.028 60.343 282.488 60.343 281.822C60.343 281.155 59.803 280.615 59.1368 280.615C58.4705 280.615 57.9304 281.155 57.9304 281.822C57.9304 282.488 58.4705 283.028 59.1368 283.028Z" fill="white"/>
<path d="M69.4797 283.028C70.1459 283.028 70.6861 282.488 70.6861 281.822C70.6861 281.155 70.1459 280.615 69.4797 280.615C68.8135 280.615 68.2734 281.155 68.2734 281.822C68.2734 282.488 68.8135 283.028 69.4797 283.028Z" fill="white"/>
<path d="M81.0288 281.822C81.0288 282.488 80.489 283.028 79.8225 283.028C79.156 283.028 78.6162 282.488 78.6162 281.822C78.6162 281.155 79.156 280.615 79.8225 280.615C80.489 280.615 81.0288 281.155 81.0288 281.822Z" fill="white"/>
<path d="M90.1651 283.028C90.8313 283.028 91.3714 282.488 91.3714 281.822C91.3714 281.155 90.8313 280.615 90.1651 280.615C89.4989 280.615 88.9587 281.155 88.9587 281.822C88.9587 282.488 89.4989 283.028 90.1651 283.028Z" fill="white"/>
<path d="M100.508 283.028C101.174 283.028 101.714 282.488 101.714 281.822C101.714 281.155 101.174 280.615 100.508 280.615C99.8419 280.615 99.3018 281.155 99.3018 281.822C99.3018 282.488 99.8419 283.028 100.508 283.028Z" fill="white"/>
<path d="M110.848 283.028C111.515 283.028 112.055 282.488 112.055 281.822C112.055 281.155 111.515 280.615 110.848 280.615C110.182 280.615 109.642 281.155 109.642 281.822C109.642 282.488 110.182 283.028 110.848 283.028Z" fill="white"/>
<path d="M48.7942 293.371C49.4604 293.371 50.0005 292.831 50.0005 292.164C50.0005 291.498 49.4604 290.958 48.7942 290.958C48.1279 290.958 47.5879 291.498 47.5879 292.164C47.5879 292.831 48.1279 293.371 48.7942 293.371Z" fill="white"/>
<path d="M59.1368 293.371C59.803 293.371 60.343 292.831 60.343 292.164C60.343 291.498 59.803 290.958 59.1368 290.958C58.4705 290.958 57.9304 291.498 57.9304 292.164C57.9304 292.831 58.4705 293.371 59.1368 293.371Z" fill="white"/>
<path d="M69.4797 293.371C70.1459 293.371 70.6861 292.831 70.6861 292.164C70.6861 291.498 70.1459 290.958 69.4797 290.958C68.8135 290.958 68.2734 291.498 68.2734 292.164C68.2734 292.831 68.8135 293.371 69.4797 293.371Z" fill="white"/>
<path d="M81.0288 292.164C81.0288 292.831 80.489 293.371 79.8225 293.371C79.156 293.371 78.6162 292.831 78.6162 292.164C78.6162 291.498 79.156 290.958 79.8225 290.958C80.489 290.958 81.0288 291.498 81.0288 292.164Z" fill="white"/>
<path d="M90.1651 293.371C90.8313 293.371 91.3714 292.831 91.3714 292.164C91.3714 291.498 90.8313 290.958 90.1651 290.958C89.4989 290.958 88.9587 291.498 88.9587 292.164C88.9587 292.831 89.4989 293.371 90.1651 293.371Z" fill="white"/>
<path d="M100.508 293.371C101.174 293.371 101.714 292.831 101.714 292.164C101.714 291.498 101.174 290.958 100.508 290.958C99.8419 290.958 99.3018 291.498 99.3018 292.164C99.3018 292.831 99.8419 293.371 100.508 293.371Z" fill="white"/>
<path d="M110.848 293.371C111.515 293.371 112.055 292.831 112.055 292.164C112.055 291.498 111.515 290.958 110.848 290.958C110.182 290.958 109.642 291.498 109.642 292.164C109.642 292.831 110.182 293.371 110.848 293.371Z" fill="white"/>
<path d="M48.7942 303.709C49.4604 303.709 50.0005 303.169 50.0005 302.503C50.0005 301.836 49.4604 301.296 48.7942 301.296C48.1279 301.296 47.5879 301.836 47.5879 302.503C47.5879 303.169 48.1279 303.709 48.7942 303.709Z" fill="white"/>
<path d="M59.1368 303.709C59.803 303.709 60.343 303.169 60.343 302.503C60.343 301.836 59.803 301.296 59.1368 301.296C58.4705 301.296 57.9304 301.836 57.9304 302.503C57.9304 303.169 58.4705 303.709 59.1368 303.709Z" fill="white"/>
<path d="M69.4797 303.709C70.1459 303.709 70.6861 303.169 70.6861 302.503C70.6861 301.836 70.1459 301.296 69.4797 301.296C68.8135 301.296 68.2734 301.836 68.2734 302.503C68.2734 303.169 68.8135 303.709 69.4797 303.709Z" fill="white"/>
<path d="M81.0288 302.503C81.0288 303.169 80.489 303.709 79.8225 303.709C79.156 303.709 78.6162 303.169 78.6162 302.503C78.6162 301.836 79.156 301.296 79.8225 301.296C80.489 301.296 81.0288 301.836 81.0288 302.503Z" fill="white"/>
<path d="M90.1651 303.709C90.8313 303.709 91.3714 303.169 91.3714 302.503C91.3714 301.836 90.8313 301.296 90.1651 301.296C89.4989 301.296 88.9587 301.836 88.9587 302.503C88.9587 303.169 89.4989 303.709 90.1651 303.709Z" fill="white"/>
<path d="M100.508 303.709C101.174 303.709 101.714 303.169 101.714 302.503C101.714 301.836 101.174 301.296 100.508 301.296C99.8419 301.296 99.3018 301.836 99.3018 302.503C99.3018 303.169 99.8419 303.709 100.508 303.709Z" fill="white"/>
<path d="M110.848 303.709C111.515 303.709 112.055 303.169 112.055 302.503C112.055 301.836 111.515 301.296 110.848 301.296C110.182 301.296 109.642 301.836 109.642 302.503C109.642 303.169 110.182 303.709 110.848 303.709Z" fill="white"/>
<path d="M48.7942 313.986C49.4604 313.986 50.0005 313.446 50.0005 312.78C50.0005 312.113 49.4604 311.573 48.7942 311.573C48.1279 311.573 47.5879 312.113 47.5879 312.78C47.5879 313.446 48.1279 313.986 48.7942 313.986Z" fill="white"/>
<path d="M59.1368 313.986C59.803 313.986 60.343 313.446 60.343 312.78C60.343 312.113 59.803 311.573 59.1368 311.573C58.4705 311.573 57.9304 312.113 57.9304 312.78C57.9304 313.446 58.4705 313.986 59.1368 313.986Z" fill="white"/>
<path d="M69.4797 313.986C70.1459 313.986 70.6861 313.446 70.6861 312.78C70.6861 312.113 70.1459 311.573 69.4797 311.573C68.8135 311.573 68.2734 312.113 68.2734 312.78C68.2734 313.446 68.8135 313.986 69.4797 313.986Z" fill="white"/>
<path d="M81.0288 312.78C81.0288 313.446 80.489 313.986 79.8225 313.986C79.156 313.986 78.6162 313.446 78.6162 312.78C78.6162 312.113 79.156 311.573 79.8225 311.573C80.489 311.573 81.0288 312.113 81.0288 312.78Z" fill="white"/>
<path d="M90.1651 313.986C90.8313 313.986 91.3714 313.446 91.3714 312.78C91.3714 312.113 90.8313 311.573 90.1651 311.573C89.4989 311.573 88.9587 312.113 88.9587 312.78C88.9587 313.446 89.4989 313.986 90.1651 313.986Z" fill="white"/>
<path d="M100.508 313.986C101.174 313.986 101.714 313.446 101.714 312.78C101.714 312.113 101.174 311.573 100.508 311.573C99.8419 311.573 99.3018 312.113 99.3018 312.78C99.3018 313.446 99.8419 313.986 100.508 313.986Z" fill="white"/>
<path d="M110.848 313.986C111.515 313.986 112.055 313.446 112.055 312.78C112.055 312.113 111.515 311.573 110.848 311.573C110.182 311.573 109.642 312.113 109.642 312.78C109.642 313.446 110.182 313.986 110.848 313.986Z" fill="white"/>
<path d="M48.7942 324.392C49.4604 324.392 50.0005 323.852 50.0005 323.186C50.0005 322.52 49.4604 321.979 48.7942 321.979C48.1279 321.979 47.5879 322.52 47.5879 323.186C47.5879 323.852 48.1279 324.392 48.7942 324.392Z" fill="white"/>
<path d="M59.1368 324.392C59.803 324.392 60.343 323.852 60.343 323.186C60.343 322.52 59.803 321.979 59.1368 321.979C58.4705 321.979 57.9304 322.52 57.9304 323.186C57.9304 323.852 58.4705 324.392 59.1368 324.392Z" fill="white"/>
<path d="M69.4797 324.392C70.1459 324.392 70.6861 323.852 70.6861 323.186C70.6861 322.52 70.1459 321.979 69.4797 321.979C68.8135 321.979 68.2734 322.52 68.2734 323.186C68.2734 323.852 68.8135 324.392 69.4797 324.392Z" fill="white"/>
<path d="M81.0288 323.186C81.0288 323.852 80.489 324.392 79.8225 324.392C79.156 324.392 78.6162 323.852 78.6162 323.186C78.6162 322.519 79.156 321.979 79.8225 321.979C80.489 321.979 81.0288 322.519 81.0288 323.186Z" fill="white"/>
<path d="M90.1651 324.392C90.8313 324.392 91.3714 323.852 91.3714 323.186C91.3714 322.52 90.8313 321.979 90.1651 321.979C89.4989 321.979 88.9587 322.52 88.9587 323.186C88.9587 323.852 89.4989 324.392 90.1651 324.392Z" fill="white"/>
<path d="M100.508 324.392C101.174 324.392 101.714 323.852 101.714 323.186C101.714 322.52 101.174 321.979 100.508 321.979C99.8419 321.979 99.3018 322.52 99.3018 323.186C99.3018 323.852 99.8419 324.392 100.508 324.392Z" fill="white"/>
<path d="M110.848 324.392C111.515 324.392 112.055 323.852 112.055 323.186C112.055 322.52 111.515 321.979 110.848 321.979C110.182 321.979 109.642 322.52 109.642 323.186C109.642 323.852 110.182 324.392 110.848 324.392Z" fill="white"/>
<g filter="url(#filter0_d_3_45728)">
<rect x="72.905" y="288.5" width="269.355" height="160.816" rx="12" fill="white"/>
</g>
<g filter="url(#filter1_d_3_45728)">
<rect x="83.5371" y="299.132" width="248.09" height="139.551" rx="8" fill="#FEEECD"/>
</g>
<path d="M45.8066 379.18C44.9556 381.428 40.2827 373.147 39.8825 372.527C37.5193 368.862 31.9992 364.48 31.6063 360.269C30.9903 353.654 39.8654 350.538 35.1651 343.461C32.4558 339.382 27.4167 339.496 26.654 333.777C26.0832 329.495 31.3306 317.757 36.9471 318.158C39.4392 318.336 39.6897 323.46 41.7786 320.723C43.4917 318.479 41.2545 311.344 41.044 308.494C40.7142 304.04 40.2902 298.089 43.0061 294.217C45.7881 290.25 52.0917 289.011 55.5957 293.112C58.1782 296.134 56.8291 300.714 55.9989 304.118C55.082 307.875 52.6788 312.137 53.0428 316.06C53.7158 323.305 55.9203 319.96 60.1299 317.975C74.6326 311.138 61.5368 332.235 59.1092 336.215C54.6127 343.584 55.6327 348.958 54.9419 357.011C54.2162 365.472 46.0364 370.766 45.8066 379.18Z" fill="#FDD13C"/>
<path d="M58.8622 428.268C59.2855 430.986 49.9531 425.386 49.2051 424.995C44.7813 422.683 36.8091 421.443 34.039 417.474C29.6864 411.238 36.7594 403.119 28.08 398.732C23.078 396.204 18.1265 399.166 14.1348 393.904C11.146 389.964 9.73394 375.315 15.5513 372.539C18.1324 371.307 21.2775 376.265 21.8098 372.36C22.2464 369.157 15.9864 363.32 14.1659 360.603C11.3195 356.356 7.53315 350.673 8.04758 345.283C8.57461 339.761 14.1481 334.965 19.9536 337.065C24.2322 338.613 25.479 343.935 26.576 347.792C27.7873 352.049 27.8036 357.65 30.3839 361.348C35.1487 368.179 35.4526 363.604 38.5214 359.248C49.0925 344.244 47.9828 372.647 47.8153 377.98C47.5054 387.857 51.5579 392.63 55.4228 401.036C59.4841 409.87 54.3346 419.764 58.8622 428.268Z" fill="#FDD13C"/>
<path d="M208.741 406.52C208.321 408.808 216.335 404.289 216.976 403.976C220.767 402.124 227.531 401.259 229.962 397.968C233.782 392.799 227.992 385.777 235.426 382.269C239.71 380.247 243.826 382.863 247.319 378.51C249.935 375.249 251.463 362.904 246.611 360.425C244.459 359.325 241.688 363.443 241.328 360.131C241.032 357.415 246.455 352.627 248.055 350.371C250.557 346.848 253.886 342.133 253.575 337.567C253.256 332.89 248.657 328.71 243.703 330.352C240.052 331.562 238.877 336.03 237.862 339.264C236.741 342.834 236.598 347.566 234.334 350.632C230.152 356.294 229.999 352.421 227.506 348.671C218.918 335.751 219.206 359.775 219.225 364.285C219.261 372.637 215.727 376.576 212.27 383.591C208.637 390.962 212.761 399.439 208.741 406.52Z" fill="#FDD13C"/>
<path d="M23.9469 353.986C25.3501 354.632 29.2647 357.819 34.4179 365.269C34.6907 365.658 35.1777 365.493 35.0102 365.071C33.389 360.971 32.0192 357.403 30.9221 354.514C30.9095 354.481 30.894 354.448 30.8754 354.416C28.5019 350.296 24.2086 341.168 22.6942 333.407C22.6215 333.033 22.9758 333.136 23.2627 333.566C24.9795 336.262 29.828 343.859 32.2178 355.181C32.2238 355.211 32.2334 355.242 32.246 355.274C33.3824 358.195 34.7959 361.791 36.463 365.889C36.6305 366.301 37.1946 366.323 37.145 365.923C36.6854 362.042 36.2681 356.197 38.0523 353.421C38.1679 353.246 38.5867 353.512 38.7246 353.843C39.1857 354.944 39.941 357.066 40.15 359.725C40.3554 362.421 40.0144 365.655 38.1946 369.847C38.1627 369.921 38.1649 370.01 38.2013 370.097C39.3969 372.946 40.6934 375.948 42.0892 378.936C42.2344 379.246 42.7926 379.141 42.7882 378.812C42.7726 375.572 43.015 369.971 45.625 367.323C45.7799 367.17 46.1809 367.35 46.275 367.607C46.593 368.476 47.0682 370.166 46.8784 372.369C46.6827 374.611 45.8229 377.366 43.3337 381.248C43.2841 381.326 43.2767 381.414 43.313 381.488C43.4331 381.732 43.5539 381.975 43.6754 382.218C44.7999 384.46 45.8673 386.324 46.8984 387.872C47.043 388.088 47.6175 387.861 47.6219 387.592C47.6864 385.016 48.1223 379.734 51.128 376.765C51.2963 376.603 51.6981 376.682 51.7796 376.887C52.0561 377.578 52.4453 378.945 52.1258 380.856C51.7974 382.808 50.7596 385.303 47.9784 389.151C47.9214 389.23 47.911 389.308 47.951 389.362C49.0822 390.868 50.1726 392.004 51.2259 392.864C51.3823 392.99 51.9612 392.68 51.9738 392.468C52.1147 390.388 52.7833 385.965 55.9736 382.98C56.1523 382.816 56.5585 382.81 56.6319 382.962C56.8817 383.475 57.216 384.508 56.8298 386.092C56.4325 387.714 55.3154 389.886 52.4149 393.537C52.3519 393.618 52.3422 393.683 52.3889 393.714C53.0464 394.14 53.6876 394.467 54.308 394.715C55.5155 395.197 56.6489 395.383 57.6674 395.425C57.342 395.747 57.511 395.579 57.1849 395.904C57.1819 395.905 57.1789 395.907 57.176 395.908C56.8661 396.07 56.5555 396.231 56.2449 396.389C52.5468 398.278 48.862 399.848 46.8629 399.754C46.6783 399.746 46.8213 399.489 47.1267 399.288C47.61 398.969 48.3394 398.488 49.2356 397.908C49.3327 397.844 49.4328 397.796 49.5166 397.773C50.8204 397.4 52.2874 397.048 53.9159 396.673C54.2398 396.597 54.7513 396.161 54.5682 396.117C54.0442 395.985 53.5023 395.802 52.9456 395.553C52.3341 395.28 51.7047 394.927 51.0606 394.474C51.0117 394.439 50.9049 394.448 50.776 394.497C47.8769 395.539 40.8253 398.283 37.0382 394.891C36.8952 394.763 37.0701 394.448 37.3562 394.317C38.8476 393.494 42.8853 392.715 48.736 393.581C49.0303 393.614 49.5284 393.22 49.3757 393.076C48.5692 392.302 47.7427 391.355 46.8932 390.192C46.848 390.13 46.745 390.108 46.6182 390.133C43.9193 390.594 37.0086 391.918 33.1689 386.786C33.0258 386.595 33.1867 386.264 33.4654 386.186C34.1948 385.978 35.5861 385.76 37.5252 386.087C39.4651 386.39 41.952 387.239 44.8859 388.58C45.1639 388.703 45.6494 388.358 45.5093 388.137C44.582 386.653 43.625 384.905 42.6214 382.843C42.4205 382.431 42.2218 382.017 42.0254 381.601C41.9869 381.519 41.9031 381.461 41.7978 381.443C39.11 380.954 32.7352 379.358 29.0571 371.842C28.9155 371.557 29.0934 371.239 29.3722 371.277C30.7605 371.338 34.5825 373.045 39.7386 378.257C40.0055 378.518 40.4903 378.253 40.345 377.928C39.1656 375.268 38.0582 372.62 37.0264 370.093C36.9871 369.995 36.9107 369.912 36.8159 369.86C34.303 368.537 27.7399 364.293 23.6385 354.48C23.4836 354.119 23.6608 353.833 23.9469 353.986Z" fill="white"/>
<path d="M242.78 383.806C241.54 384.551 238.226 387.922 234.2 395.39C233.987 395.779 233.517 395.676 233.629 395.266C234.714 391.283 235.62 387.82 236.342 385.019C236.351 384.987 236.362 384.955 236.376 384.922C238.159 380.843 241.211 371.903 241.819 364.525C241.848 364.169 241.528 364.301 241.306 364.732C239.986 367.418 236.259 374.99 235.205 385.774C235.203 385.803 235.197 385.833 235.189 385.864C234.434 388.699 233.489 392.192 232.361 396.178C232.248 396.579 231.725 396.657 231.73 396.28C231.757 392.621 231.541 387.137 229.594 384.738C229.469 384.587 229.106 384.878 229.012 385.2C228.697 386.273 228.214 388.326 228.294 390.822C228.381 393.352 229.033 396.326 231.16 400.04C231.197 400.105 231.204 400.189 231.18 400.273C230.361 403.048 229.465 405.976 228.475 408.902C228.372 409.205 227.841 409.165 227.811 408.859C227.491 405.841 226.686 400.654 223.984 398.459C223.824 398.333 223.47 398.542 223.409 398.791C223.202 399.632 222.935 401.254 223.339 403.285C223.753 405.351 224.838 407.827 227.556 411.183C227.61 411.25 227.626 411.331 227.599 411.404C227.513 411.644 227.426 411.882 227.338 412.12C226.523 414.324 225.722 416.168 224.923 417.716C224.811 417.932 224.253 417.78 224.221 417.53C223.895 415.14 222.943 410.269 219.839 407.816C219.666 407.683 219.3 407.798 219.245 407.996C219.059 408.668 218.838 409.98 219.334 411.727C219.841 413.508 221.064 415.724 224.05 419.018C224.112 419.086 224.13 419.157 224.098 419.211C223.2 420.729 222.303 421.9 221.412 422.808C221.279 422.942 220.709 422.713 220.675 422.517C220.33 420.596 219.25 416.548 215.973 414.1C215.79 413.966 215.411 414.002 215.358 414.151C215.179 414.654 214.974 415.651 215.498 417.085C216.035 418.554 217.299 420.459 220.376 423.558C220.442 423.626 220.459 423.686 220.418 423.72C219.85 424.185 219.288 424.554 218.735 424.85C217.661 425.423 216.626 425.714 215.682 425.858C216.019 426.124 215.844 425.985 216.181 426.254C216.184 426.255 216.187 426.256 216.19 426.257C216.495 426.376 216.801 426.493 217.106 426.608C220.743 427.984 224.335 429.065 226.186 428.77C226.357 428.744 226.197 428.52 225.891 428.364C225.409 428.117 224.68 427.745 223.786 427.297C223.689 427.248 223.591 427.214 223.511 427.201C222.259 426.989 220.857 426.813 219.302 426.632C218.993 426.595 218.472 426.242 218.638 426.182C219.111 426.005 219.597 425.779 220.09 425.49C220.63 425.173 221.18 424.78 221.732 424.291C221.775 424.254 221.875 424.251 221.999 424.284C224.805 424.954 231.651 426.778 234.825 423.23C234.944 423.096 234.749 422.821 234.47 422.729C232.997 422.117 229.159 421.809 223.803 423.22C223.533 423.281 223.029 422.966 223.155 422.816C223.826 422.012 224.497 421.045 225.168 419.875C225.204 419.814 225.298 419.782 225.418 419.792C227.977 419.942 234.546 420.461 237.588 415.287C237.702 415.095 237.518 414.803 237.251 414.759C236.551 414.641 235.234 414.582 233.463 415.086C231.689 415.568 229.462 416.616 226.87 418.167C226.624 418.31 226.137 418.039 226.244 417.819C226.953 416.341 227.664 414.616 228.384 412.594C228.529 412.189 228.67 411.784 228.811 411.376C228.838 411.296 228.91 411.234 229.006 411.206C231.458 410.473 237.225 408.329 239.872 400.953C239.974 400.674 239.775 400.396 239.519 400.46C238.233 400.66 234.853 402.644 230.593 408.028C230.372 408.299 229.894 408.102 229.995 407.784C230.818 405.186 231.575 402.608 232.274 400.149C232.3 400.055 232.363 399.969 232.446 399.911C234.647 398.419 240.316 393.791 243.12 384.235C243.225 383.881 243.031 383.634 242.78 383.806Z" fill="#FFB8A4"/>
<path d="M240.289 322.028C238.908 322.69 235.143 325.559 230.391 331.738C230.14 332.061 229.636 332.003 229.779 331.669C231.163 328.429 232.327 325.613 233.256 323.337C233.268 323.31 233.281 323.284 233.297 323.258C235.442 319.903 239.217 312.597 240.263 306.668C240.313 306.381 239.96 306.504 239.696 306.86C238.126 309.076 233.694 315.325 231.985 323.999C231.981 324.023 231.973 324.046 231.963 324.072C230.996 326.378 229.79 329.219 228.359 332.465C228.215 332.792 227.645 332.881 227.67 332.579C227.892 329.653 227.947 325.281 225.965 323.467C225.838 323.352 225.43 323.604 225.311 323.866C224.914 324.74 224.282 326.407 224.237 328.397C224.198 330.415 224.747 332.758 226.854 335.614C226.891 335.664 226.895 335.73 226.864 335.799C225.832 338.06 224.708 340.448 223.481 342.838C223.354 343.086 222.782 343.083 222.765 342.839C222.578 340.444 221.98 336.34 219.17 334.729C219.003 334.635 218.608 334.821 218.529 335.024C218.262 335.707 217.886 337.018 218.217 338.62C218.556 340.249 219.601 342.171 222.366 344.71C222.421 344.761 222.435 344.825 222.402 344.885C222.295 345.08 222.189 345.276 222.081 345.471C221.084 347.276 220.119 348.792 219.173 350.07C219.04 350.249 218.443 350.157 218.422 349.959C218.196 348.065 217.421 344.223 214.19 342.425C214.009 342.327 213.607 342.438 213.538 342.601C213.301 343.147 212.993 344.208 213.437 345.577C213.893 346.975 215.1 348.681 218.159 351.156C218.222 351.207 218.238 351.264 218.2 351.308C217.149 352.569 216.116 353.552 215.103 354.325C214.953 354.439 214.346 354.286 214.32 354.131C214.048 352.615 213.091 349.436 209.672 347.651C209.481 347.554 209.068 347.603 209.004 347.725C208.783 348.136 208.51 348.943 209 350.063C209.504 351.208 210.773 352.665 213.941 354.98C214.01 355.03 214.024 355.078 213.978 355.107C213.339 355.509 212.71 355.834 212.097 356.098C210.904 356.612 209.768 356.9 208.739 357.065C209.089 357.26 208.906 357.158 209.258 357.354C209.26 357.355 209.263 357.356 209.267 357.357C209.591 357.435 209.916 357.513 210.24 357.589C214.105 358.497 217.937 359.171 219.956 358.839C220.143 358.809 219.981 358.638 219.66 358.529C219.15 358.357 218.381 358.098 217.437 357.787C217.333 357.754 217.23 357.731 217.144 357.724C215.799 357.621 214.291 357.554 212.618 357.492C212.284 357.478 211.739 357.223 211.922 357.167C212.444 357 212.982 356.794 213.53 356.537C214.132 356.255 214.747 355.912 215.371 355.492C215.419 355.46 215.528 355.453 215.661 355.472C218.663 355.86 225.979 356.958 229.601 353.956C229.738 353.842 229.541 353.632 229.243 353.573C227.681 353.162 223.542 353.118 217.669 354.527C217.374 354.589 216.844 354.365 216.99 354.239C217.757 353.561 218.535 352.752 219.323 351.782C219.365 351.731 219.468 351.7 219.598 351.703C222.361 351.688 229.445 351.757 233.011 347.461C233.144 347.301 232.961 347.078 232.673 347.057C231.921 347 230.498 347.021 228.555 347.519C226.609 347.998 224.143 348.952 221.255 350.328C220.982 350.456 220.468 350.265 220.596 350.083C221.442 348.865 222.301 347.448 223.189 345.794C223.366 345.464 223.542 345.132 223.714 344.799C223.748 344.734 223.829 344.679 223.935 344.652C226.627 343.937 232.984 341.92 236.237 335.886C236.362 335.658 236.162 335.446 235.882 335.51C234.479 335.738 230.715 337.501 225.82 342.028C225.567 342.256 225.058 342.124 225.185 341.865C226.212 339.745 227.167 337.645 228.054 335.643C228.088 335.566 228.16 335.495 228.252 335.444C230.715 334.136 237.095 330.138 240.633 322.353C240.767 322.066 240.57 321.878 240.289 322.028Z" fill="#FFB8A4"/>
<path d="M66.8098 443.076H64.2673V443.443H66.8098V443.076Z" fill="white"/>
<path d="M65.7217 441.989H65.3547V444.531H65.7217V441.989Z" fill="white"/>
<path d="M199.871 320.527H197.329V320.894H199.871V320.527Z" fill="white"/>
<path d="M198.783 319.438H198.416V321.981H198.783V319.438Z" fill="white"/>
<path d="M318.951 348.524H316.409V348.891H318.951V348.524Z" fill="white"/>
<path d="M317.863 347.437H317.496V349.979H317.863V347.437Z" fill="white"/>
<path d="M195.133 442.116L193.658 444.188L193.957 444.4L195.432 442.329L195.133 442.116Z" fill="white"/>
<path d="M193.617 442.373L193.404 442.671L195.475 444.147L195.688 443.848L193.617 442.373Z" fill="white"/>
<path d="M117.5 296.406L116.024 298.478L116.323 298.69L117.798 296.619L117.5 296.406Z" fill="white"/>
<path d="M115.982 296.662L115.77 296.961L117.84 298.436L118.053 298.137L115.982 296.662Z" fill="white"/>
<path d="M167.592 309.688C168.321 309.688 168.912 309.097 168.912 308.368C168.912 307.638 168.321 307.047 167.592 307.047C166.863 307.047 166.271 307.638 166.271 308.368C166.271 309.097 166.863 309.688 167.592 309.688Z" fill="white"/>
<path d="M318.644 429.243C319.364 429.126 319.853 428.448 319.736 427.728C319.619 427.008 318.941 426.519 318.221 426.636C317.502 426.753 317.013 427.431 317.13 428.151C317.247 428.871 317.925 429.359 318.644 429.243Z" fill="white"/>
<path d="M177.35 454.318L176.849 457.763L137.972 458.344L137.522 458.352C137.522 458.352 120.198 456.937 114.462 449.632C108.663 442.248 111.501 421.315 111.501 421.315L155.005 423.673C155.005 423.673 155.167 423.674 155.165 423.677C154.989 423.982 154.182 441.357 158.967 446.159C162.808 450.55 172.844 452.444 176.254 453.108C176.503 453.157 176.723 453.263 176.901 453.41H176.902C177.173 453.639 177.342 453.961 177.35 454.318Z" fill="#2A404F"/>
<path d="M177.35 454.318L177.15 455.693L144.792 456.075L144.321 456.08C144.321 456.08 141.979 456.51 138.341 455.394L137.653 454.143C130.09 453.179 122.1 452.463 118.038 447.56C113.534 442.124 112.592 425.268 116.501 420.49L146.522 423.457C146.522 423.457 155.673 425.849 155.67 425.852C155.505 426.159 154.744 441.333 158.967 446.159C162.808 450.55 172.844 452.444 176.254 453.108C176.503 453.157 176.723 453.263 176.901 453.41H176.901C177.122 453.594 177.274 453.841 177.328 454.118C177.341 454.185 177.348 454.252 177.35 454.318Z" fill="#606E78"/>
<path d="M44.8348 427.813C44.8281 429.031 45.5382 430.081 46.5849 430.599C47.037 430.823 47.553 430.948 48.1007 430.943L55.7498 430.877H55.7572L56.5881 430.87L221.711 429.433C223.368 429.418 224.771 428.029 224.78 426.363L225.306 323.076C225.315 321.411 223.982 320.032 222.324 320L49.0147 316.51C47.2023 316.474 45.5427 318.76 45.533 320.505L44.8926 418.895L44.8867 419.775L44.8348 427.813Z" fill="#606E78"/>
<path d="M50.2021 428.88L221.818 427.403C223.455 427.389 224.79 426.051 224.799 424.415L225.369 322.965C225.378 321.329 224.059 319.977 222.422 319.944L50.8329 316.539C49.0413 316.504 47.5803 317.863 47.5706 319.576L46.9739 425.807C46.9643 427.519 48.4105 428.896 50.2021 428.88Z" fill="#2A404F"/>
<path d="M54.25 419.814C54.2411 421.523 55.6814 422.899 57.4656 422.886L90.6487 422.651L123.227 422.419L123.639 422.417L125.334 422.405L126.193 422.398L133.8 422.344L138.748 422.308L139.753 422.301L150.855 422.222L151.785 422.216L152.944 422.207L153.633 422.203L182.117 422.001L214.594 421.769C216.238 421.758 217.578 420.419 217.587 418.78L217.865 369.211L218.094 328.52C218.103 326.881 216.779 325.528 215.136 325.497L178.018 324.816L115.428 323.669L58.0305 322.616C56.2455 322.582 54.7904 323.942 54.78 325.651L54.4583 383.053L54.25 419.814Z" fill="white"/>
<path d="M86.3384 409.187C86.331 410.475 87.4169 411.512 88.7608 411.503L113.765 411.326L129.173 411.216L129.635 411.212H129.635L133.59 411.184L138.312 411.151L138.622 411.148L139.899 411.139L140.547 411.134L140.667 411.134L146.279 411.094L150.008 411.068L150.766 411.062L154.454 411.036L157.215 411.017L157.788 411.012L159.131 411.002L159.832 410.997L160.705 410.991L161.225 410.987L182.686 410.833L207.157 410.66C208.397 410.652 209.406 409.643 209.413 408.409L209.623 371.058L209.795 340.397C209.802 339.163 208.804 338.143 207.567 338.119L179.597 337.606L155.192 337.159L153.502 337.129L149.556 337.056L149.39 337.053L148.078 337.029L147.924 337.026L141.998 336.917L132.436 336.742L129.159 336.682L122.988 336.568L121.292 336.538H121.292L89.1871 335.949C87.8424 335.923 86.7454 336.948 86.738 338.236L86.4956 381.488L86.3384 409.187Z" fill="#FEEECD"/>
<path d="M59.3916 411.258C59.3901 411.486 59.5829 411.67 59.8215 411.669L64.2572 411.638L68.6121 411.606L68.667 411.606L68.8938 411.604L69.0087 411.604L70.0257 411.596L70.6869 411.592L70.8211 411.591L72.3051 411.581L72.4296 411.58L72.5845 411.578L72.6764 411.578L76.4835 411.551L80.8243 411.52C81.0437 411.518 81.2231 411.34 81.2246 411.12L81.2617 404.494L81.2921 399.055C81.2935 398.837 81.1164 398.656 80.897 398.651L75.9357 398.56L67.5699 398.407L59.8979 398.266C59.6592 398.261 59.465 398.443 59.4635 398.671L59.4205 406.344L59.3916 411.258Z" fill="#FFB8A4"/>
<path d="M67.177 406.786C67.177 406.852 67.2326 406.905 67.3015 406.904L68.5832 406.896L69.8418 406.887H69.8574L69.9226 406.886H69.956L70.2495 406.884L70.4408 406.882H70.4793L70.9085 406.879H70.9441H70.9885H71.0152L72.1153 406.871L73.3702 406.862C73.434 406.861 73.4858 406.81 73.4858 406.747L73.497 404.832L73.5059 403.26C73.5059 403.197 73.4555 403.144 73.3917 403.144L71.9581 403.117L69.5401 403.073L67.323 403.032C67.2541 403.03 67.1978 403.083 67.1978 403.149L67.1852 405.366L67.177 406.786Z" fill="white"/>
<path d="M59.3916 391.674C59.3901 391.902 59.5829 392.086 59.8215 392.085L64.2572 392.054L68.6121 392.022L68.667 392.022L68.8938 392.02L69.0087 392.019L70.0257 392.012L70.6869 392.008L70.8211 392.007L72.3051 391.996L72.4296 391.996L72.5845 391.994L72.6764 391.994L76.4835 391.967L80.8243 391.936C81.0437 391.934 81.2231 391.755 81.2246 391.536L81.2617 384.91L81.2921 379.471C81.2935 379.253 81.1164 379.072 80.897 379.067L75.9357 378.976L67.5699 378.823L59.8979 378.682C59.6592 378.677 59.465 378.859 59.4635 379.087L59.4205 386.76L59.3916 391.674Z" fill="#FFB8A4"/>
<path d="M67.177 387.156C67.177 387.222 67.2326 387.275 67.3015 387.274L68.5832 387.265L69.8418 387.257H69.8574L69.9226 387.256H69.956L70.2495 387.254L70.4408 387.252H70.4793L70.9085 387.249H70.9441H70.9885H71.0152L72.1153 387.241L73.3702 387.232C73.434 387.231 73.4858 387.18 73.4858 387.116L73.497 385.202L73.5059 383.63C73.5059 383.567 73.4555 383.514 73.3917 383.514L71.9581 383.488L69.5401 383.443L67.323 383.402C67.2541 383.401 67.1978 383.454 67.1978 383.52L67.1852 385.737L67.177 387.156Z" fill="white"/>
<path opacity="0.57" d="M67.177 355.428C67.177 355.494 67.2326 355.548 67.3015 355.547L68.5832 355.538L69.8418 355.529H69.8574L69.9226 355.529H69.956L70.2495 355.526L70.4408 355.525H70.4793L70.9085 355.522H70.9441H70.9885H71.0152L72.1153 355.514L73.3702 355.505C73.434 355.504 73.4858 355.453 73.4858 355.389L73.497 353.474L73.5059 351.903C73.5059 351.84 73.4555 351.787 73.3917 351.786L71.9581 351.76L69.5401 351.715L67.323 351.674C67.2541 351.673 67.1978 351.725 67.1978 351.791L67.1852 354.009L67.177 355.428Z" fill="#FFFBF7"/>
<path d="M65.8774 340.912C65.8774 343.605 68.0679 345.777 70.7734 345.764C73.485 345.75 75.6865 343.549 75.6865 340.848C75.6865 338.147 73.485 335.975 70.7734 335.997C68.0671 336.02 65.8774 338.22 65.8774 340.912Z" fill="white"/>
<path d="M65.8774 355.652C65.8774 358.345 68.0679 360.528 70.7734 360.529C73.485 360.529 75.6865 358.339 75.6865 355.638C75.6865 352.937 73.485 350.754 70.7734 350.762C68.0671 350.77 65.8774 352.96 65.8774 355.652Z" fill="#18A795"/>
<path d="M65.8774 370.392C65.8774 373.084 68.0679 375.278 70.7734 375.293C73.485 375.308 75.6865 373.13 75.6865 370.428C75.6865 367.727 73.485 365.532 70.7734 365.526C68.0671 365.52 65.8774 367.699 65.8774 370.392Z" fill="white"/>
<path d="M70.6555 370.81L70.8912 370.811C71.1507 370.811 71.3604 370.603 71.3604 370.345V368.851C71.3604 368.593 71.1499 368.383 70.8912 368.382L70.6555 368.381C70.3961 368.381 70.1863 368.589 70.1863 368.847V370.341C70.1863 370.599 70.3961 370.809 70.6555 370.81Z" fill="#18A795"/>
<path d="M70.7734 371.622C71.5487 371.625 72.1795 370.9 72.1795 370.006C72.1795 369.938 72.1247 369.883 72.0565 369.883C71.989 369.883 71.9334 369.938 71.9334 370.005C71.9334 370.765 71.4123 371.381 70.7726 371.378C70.1329 371.375 69.6125 370.756 69.6125 369.997C69.6125 369.929 69.5577 369.875 69.4902 369.875C69.4228 369.875 69.3679 369.929 69.3679 369.996C69.3687 370.889 69.9987 371.618 70.7734 371.622Z" fill="#18A795"/>
<path d="M70.7734 373.592C70.8409 373.592 70.8965 373.538 70.8965 373.471V371.5C70.8965 371.432 70.8416 371.377 70.7734 371.377C70.706 371.377 70.6504 371.432 70.6504 371.499V373.47C70.6511 373.537 70.706 373.592 70.7734 373.592Z" fill="#18A795"/>
<path d="M69.8852 373.588L71.6791 373.597C71.7466 373.597 71.8021 373.543 71.8021 373.475C71.8021 373.408 71.7473 373.353 71.6791 373.352L69.8852 373.344C69.8178 373.344 69.7629 373.398 69.7629 373.466C69.7629 373.533 69.8178 373.587 69.8852 373.588Z" fill="#18A795"/>
<path d="M70.1862 367.739C70.2241 367.739 70.2611 367.722 70.2856 367.69C70.3856 367.554 70.5761 367.47 70.7822 367.471C70.989 367.472 71.1795 367.556 71.2796 367.693C71.3196 367.747 71.3967 367.759 71.4508 367.719C71.5057 367.679 71.5175 367.603 71.4775 367.549C71.33 367.348 71.0698 367.228 70.7822 367.227C70.4946 367.226 70.2344 367.345 70.0877 367.545C70.0476 367.599 70.0595 367.676 70.1143 367.716C70.1358 367.732 70.161 367.739 70.1862 367.739Z" fill="#18A795"/>
<path d="M70.3472 368.147C70.385 368.147 70.422 368.13 70.4457 368.097C70.5125 368.008 70.6414 367.952 70.7815 367.952C70.9224 367.953 71.0513 368.009 71.1181 368.099C71.1581 368.153 71.2352 368.165 71.29 368.125C71.3449 368.085 71.356 368.009 71.316 367.954C71.2018 367.8 71.0024 367.708 70.7823 367.708C70.5621 367.707 70.3627 367.798 70.2486 367.951C70.2085 368.006 70.2197 368.082 70.2745 368.123C70.2967 368.139 70.3219 368.147 70.3472 368.147Z" fill="#18A795"/>
<path d="M69.3081 342.675C69.3919 342.674 69.4756 342.642 69.5394 342.578L72.4718 339.639C72.6 339.511 72.6 339.305 72.4718 339.178C72.3443 339.052 72.1367 339.054 72.0085 339.181L69.0768 342.12C68.9493 342.248 68.9493 342.454 69.0768 342.58C69.1413 342.644 69.2251 342.676 69.3081 342.675Z" fill="#18A795"/>
<path d="M72.2405 342.657C72.3243 342.657 72.408 342.625 72.4718 342.56C72.6 342.432 72.6 342.226 72.4718 342.099L69.5394 339.199C69.4119 339.073 69.2051 339.075 69.0768 339.202C68.9493 339.33 68.9493 339.536 69.0768 339.662L72.0085 342.562C72.073 342.627 72.1567 342.658 72.2405 342.657Z" fill="#18A795"/>
<path d="M69.6869 357.505L72.7328 357.503C73.2175 357.503 73.6104 357.112 73.6104 356.629V354.278C73.6104 353.795 73.2175 353.405 72.7328 353.407L69.6869 353.413C69.2036 353.414 68.8115 353.806 68.8115 354.287V356.635C68.8123 357.116 69.2036 357.505 69.6869 357.505Z" fill="white"/>
<path d="M68.02 356.419L69.3891 356.418C69.57 356.418 69.716 356.272 69.716 356.092V354.826C69.716 354.646 69.57 354.5 69.3891 354.501L68.02 354.503C67.8399 354.503 67.6931 354.649 67.6931 354.829V356.095C67.6939 356.274 67.8399 356.42 68.02 356.419Z" fill="white"/>
<path d="M67.3364 356.806H67.6855C67.8205 356.806 67.9302 356.696 67.9302 356.562V354.361C67.9302 354.226 67.8205 354.117 67.6855 354.118L67.3364 354.119C67.2015 354.119 67.0918 354.229 67.0918 354.364V356.563C67.0918 356.697 67.2015 356.806 67.3364 356.806Z" fill="white"/>
<path d="M154.68 386.088L197.227 386.57V385.446L154.68 384.964V386.088Z" fill="white"/>
<path d="M154.68 388.807L197.227 389.289V388.163L154.68 387.682V388.807Z" fill="white"/>
<path d="M174.876 391.754L197.227 392.007V390.882L174.876 390.628V391.754Z" fill="white"/>
<path d="M154.68 394.243L197.227 394.725V393.6L154.68 393.118V394.243Z" fill="white"/>
<path d="M165.267 397.081L197.227 397.442V396.318L165.267 395.956V397.081Z" fill="white"/>
<path d="M164.757 379.671L191.957 380.18C195.442 380.245 198.302 377.438 198.302 373.952V351.718C198.302 348.324 195.583 345.554 192.19 345.491L164.989 344.982C161.505 344.917 158.645 347.724 158.645 351.21V373.443C158.645 376.839 161.362 379.608 164.757 379.671Z" fill="#18A795"/>
<path d="M171.132 362.036C173.588 355.744 175.071 352.062 175.578 350.989C175.744 350.652 175.926 350.485 176.122 350.489C176.392 350.493 176.798 350.518 177.343 350.564C177.887 350.61 178.299 350.636 178.58 350.64C178.87 350.645 179.308 350.627 179.893 350.586C180.479 350.544 180.912 350.527 181.191 350.532C181.357 350.535 181.502 350.733 181.626 351.126C181.844 351.81 183.223 355.589 185.762 362.463C188.104 368.819 189.275 372.131 189.275 372.398C189.275 372.697 188.482 372.833 186.897 372.805C184.886 372.769 183.704 372.708 183.352 372.619C183.072 372.542 182.834 372.074 182.637 371.215C182.419 370.275 182.222 369.719 182.046 369.552C181.932 369.457 180.994 369.394 179.231 369.364C176.619 369.318 175.231 369.329 175.065 369.398C174.868 369.498 174.593 370.286 174.24 371.763C174.147 372.153 173.925 372.381 173.572 372.447C173.147 372.522 172.193 372.546 170.711 372.52C169.094 372.492 168.13 372.433 167.82 372.346C167.561 372.269 167.431 372.138 167.431 371.953C167.43 371.675 168.665 368.369 171.132 362.036ZM177.428 360.895C176.952 362.422 176.713 363.355 176.713 363.695C176.713 363.788 176.724 363.861 176.744 363.913C176.817 364.079 177.195 364.168 177.879 364.179C178.615 364.192 179.144 364.191 179.465 364.177C180.087 364.167 180.398 364.069 180.398 363.884C180.398 363.606 180.118 362.658 179.558 361.041C179.04 359.518 178.672 358.528 178.454 358.071C178.236 358.479 177.895 359.42 177.428 360.895Z" fill="white"/>
<path d="M136.74 390.897C136.733 390.894 136.718 390.889 136.691 390.88C136.709 390.888 136.73 390.896 136.74 390.897Z" fill="#18A795"/>
<path d="M157.094 378.144C156.456 379.162 155.708 379.699 155.205 380.816C158.73 380.214 161.494 380.069 165.122 378.805C167.246 378.065 172.304 376.626 172.806 373.382C173.233 370.625 169.23 371.862 167.073 372.936C166.008 373.466 163.205 373.503 161.261 373.958C158.371 374.635 158.684 376.788 157.094 378.144Z" fill="#FFB8A4"/>
<path d="M109.351 362.45C109.243 362.566 109.301 362.627 109.379 362.743C109.397 362.769 109.478 362.77 109.489 362.8C111.041 366.72 112.688 371.037 114.58 375.034C116.337 378.747 118.507 381.149 121.491 383.798C124.862 386.791 124.567 388.424 129.89 388.222C137.059 387.949 147.433 386.176 154.092 383.493C157.298 382.201 158.996 382.246 161.409 380.453C162.833 379.396 160.649 376.327 160.182 374.895C160.056 374.508 159.704 374.275 159.051 374.403C148.573 376.441 141.712 381.823 130.253 375.243C123.595 371.42 121.957 357.901 109.351 362.45Z" fill="#FF7707"/>
<path d="M88.4065 367.075L91.4886 374.944C91.4886 374.944 91.6584 375.132 91.9549 375.483C91.9586 375.487 91.9616 375.491 91.9653 375.495C92.1706 375.74 92.436 376.064 92.7451 376.459V376.46C92.7881 376.515 92.8325 376.571 92.877 376.629C92.9311 376.699 92.9867 376.771 93.0423 376.844C93.4923 377.434 94.0134 378.15 94.5701 378.976C94.6041 379.027 94.6397 379.079 94.6731 379.132C94.7435 379.237 94.8139 379.343 94.8843 379.451C94.9207 379.504 94.9562 379.559 94.9918 379.615C95.0823 379.755 95.1742 379.897 95.2661 380.041C95.318 380.124 95.3714 380.207 95.424 380.292L95.5322 380.468C95.5693 380.526 95.6056 380.586 95.6419 380.645C95.8969 381.062 96.1549 381.498 96.4121 381.951C96.4477 382.013 96.4818 382.074 96.5173 382.137C96.5188 382.141 96.521 382.143 96.5233 382.148C96.5966 382.279 96.6693 382.411 96.7434 382.545C96.9391 382.902 97.1333 383.269 97.3238 383.646C97.3683 383.733 97.4128 383.822 97.4565 383.91C97.5025 384.001 97.5477 384.094 97.5936 384.186C97.6107 384.22 97.6277 384.256 97.6448 384.29C97.6448 384.292 97.6455 384.294 97.6463 384.296C97.6915 384.389 97.736 384.481 97.7812 384.574C97.9539 384.939 98.1244 385.309 98.2889 385.687C98.3193 385.755 98.3482 385.822 98.3771 385.891C98.4135 385.974 98.4505 386.057 98.4839 386.14C98.5091 386.2 98.5343 386.26 98.5595 386.32C98.5602 386.321 98.5602 386.322 98.561 386.324C98.561 386.325 98.5617 386.326 98.5617 386.328C98.6003 386.418 98.6373 386.507 98.6737 386.599C98.7196 386.71 98.7641 386.822 98.8086 386.936V386.937C98.8723 387.094 98.9331 387.252 98.9924 387.412C98.9976 387.423 99.0013 387.433 99.005 387.444C99.028 387.503 99.0502 387.563 99.0702 387.622C99.0836 387.652 99.0947 387.684 99.1043 387.714C99.1058 387.719 99.108 387.723 99.1103 387.728C99.1303 387.784 99.1503 387.838 99.1696 387.894C99.1999 387.975 99.2281 388.057 99.257 388.137C99.2867 388.218 99.3148 388.301 99.343 388.382C99.3578 388.427 99.3741 388.472 99.389 388.517C99.3912 388.524 99.3934 388.53 99.3949 388.537C99.4149 388.596 99.4364 388.657 99.4564 388.719C99.4898 388.819 99.5216 388.919 99.5535 389.018C99.5854 389.113 99.615 389.208 99.6432 389.304C99.6477 389.315 99.6506 389.324 99.6521 389.335C99.658 389.349 99.661 389.362 99.6655 389.375C99.6818 389.425 99.6958 389.474 99.7107 389.523C99.7277 389.579 99.744 389.635 99.7611 389.691C99.7981 389.816 99.8345 389.94 99.8693 390.067C99.8804 390.103 99.8901 390.139 99.8997 390.175C99.9449 390.333 99.9864 390.488 100.027 390.646C100.027 390.65 100.028 390.652 100.029 390.654C100.03 390.661 100.033 390.667 100.035 390.673C100.045 390.712 100.055 390.751 100.064 390.791C100.072 390.818 100.078 390.845 100.086 390.872C100.106 390.952 100.125 391.032 100.144 391.112C100.149 391.129 100.152 391.146 100.157 391.164C100.164 391.192 100.17 391.221 100.177 391.25C100.223 391.439 100.266 391.629 100.307 391.82C100.308 391.826 100.31 391.832 100.311 391.839C100.316 391.851 100.318 391.864 100.32 391.877C100.325 391.901 100.33 391.925 100.335 391.948C100.341 391.978 100.347 392.006 100.353 392.035V392.035C100.355 392.05 100.359 392.066 100.361 392.08H100.362C100.376 392.148 100.39 392.215 100.404 392.283C100.408 392.304 100.412 392.324 100.416 392.345C100.426 392.393 100.435 392.44 100.443 392.488C100.45 392.518 100.456 392.547 100.46 392.577C100.47 392.632 100.48 392.686 100.491 392.742C100.493 392.754 100.495 392.765 100.496 392.775C100.505 392.815 100.511 392.856 100.519 392.897C100.522 392.913 100.525 392.929 100.527 392.943C100.529 392.953 100.531 392.963 100.532 392.974C100.54 393.017 100.548 393.061 100.555 393.102C100.566 393.171 100.578 393.24 100.588 393.309C100.599 393.366 100.607 393.424 100.615 393.481C100.619 393.502 100.621 393.524 100.624 393.545V393.545C100.637 393.634 100.651 393.723 100.662 393.813C100.676 393.903 100.688 393.994 100.699 394.084C100.705 394.129 100.711 394.175 100.716 394.222C100.718 394.237 100.721 394.253 100.722 394.269C100.724 394.279 100.725 394.29 100.726 394.301C100.728 394.316 100.731 394.333 100.732 394.349C100.738 394.391 100.742 394.431 100.746 394.474C100.748 394.488 100.75 394.501 100.751 394.516C100.752 394.531 100.754 394.545 100.757 394.56C100.757 394.566 100.757 394.571 100.758 394.578C100.765 394.64 100.771 394.7 100.777 394.762C100.78 394.788 100.783 394.813 100.784 394.839C100.787 394.871 100.791 394.903 100.793 394.935C100.801 395.015 100.808 395.094 100.814 395.174C100.817 395.201 100.819 395.229 100.82 395.256L100.823 395.289C100.824 395.305 100.826 395.319 100.826 395.335C100.83 395.372 100.832 395.411 100.835 395.448C100.84 395.503 100.843 395.557 100.846 395.613C100.846 395.614 100.846 395.614 100.846 395.614C100.851 395.683 100.855 395.753 100.86 395.823C100.863 395.881 100.866 395.939 100.869 395.996C100.873 396.084 100.877 396.172 100.88 396.26C100.881 396.306 100.883 396.351 100.884 396.398C100.885 396.421 100.886 396.443 100.886 396.466C100.888 396.513 100.889 396.56 100.89 396.609C100.891 396.683 100.892 396.757 100.894 396.831V396.863C100.896 396.945 100.896 397.027 100.896 397.11C100.896 397.149 100.896 397.19 100.895 397.23C100.895 397.305 100.894 397.38 100.893 397.456V397.465C100.891 397.566 100.889 397.667 100.886 397.767C100.884 397.856 100.88 397.944 100.877 398.034C100.873 398.123 100.87 398.211 100.864 398.3C100.852 398.534 100.835 398.769 100.814 399.004C100.8 399.188 100.78 399.372 100.76 399.557C100.76 399.555 100.759 399.553 100.757 399.553C100.754 399.553 100.75 399.557 100.744 399.562C100.738 399.568 100.73 399.578 100.719 399.592C100.712 399.603 100.701 399.618 100.69 399.635C100.679 399.649 100.668 399.666 100.656 399.684C100.655 399.686 100.654 399.688 100.654 399.689C100.648 399.698 100.642 399.706 100.636 399.715C100.62 399.738 100.603 399.765 100.585 399.795C100.571 399.82 100.553 399.845 100.536 399.874C100.508 399.919 100.477 399.97 100.443 400.025C100.433 400.042 100.423 400.06 100.41 400.078C100.399 400.097 100.387 400.116 100.376 400.136C100.365 400.154 100.355 400.174 100.343 400.194C100.33 400.214 100.319 400.235 100.305 400.256C100.17 400.484 100.009 400.764 99.8241 401.093C99.8189 401.101 99.8137 401.111 99.8093 401.119C99.7752 401.18 99.7396 401.243 99.7033 401.307C99.5394 401.598 99.3608 401.922 99.1673 402.275C99.1414 402.324 99.1147 402.374 99.0873 402.423C98.9968 402.588 98.9034 402.76 98.8078 402.937H98.8071C98.7982 402.956 98.7878 402.975 98.7774 402.994C98.6959 403.146 98.6121 403.302 98.5261 403.461C98.4676 403.574 98.4061 403.688 98.3445 403.805C98.2689 403.945 98.1941 404.09 98.117 404.236C98.068 404.326 98.0213 404.418 97.9717 404.511C97.7864 404.867 97.5944 405.238 97.3965 405.623C97.3661 405.684 97.3342 405.745 97.3023 405.807C96.607 407.167 95.8539 408.689 95.0867 410.313C95.0289 410.436 94.9703 410.56 94.9118 410.685C94.7924 410.938 94.6738 411.194 94.5545 411.452C94.5545 411.453 94.5537 411.454 94.553 411.456L98.5076 411.429L103.046 411.397L103.244 411.396L103.578 411.394L104.818 411.384L105.466 411.379L105.585 411.379L105.771 411.377L111.197 411.339L114.926 411.313L115.683 411.307L119.372 411.281L122.133 411.262C121.939 410.25 121.732 409.215 121.51 408.158C121.338 407.336 121.157 406.503 120.966 405.659C120.504 403.607 119.989 401.492 119.415 399.334C119.429 399.245 119.447 399.149 119.47 399.042C119.472 399.036 119.473 399.03 119.475 399.024C119.837 397.359 121.186 393.631 122.353 388.806C122.448 388.411 122.543 388.009 122.636 387.599C122.654 387.524 122.67 387.447 122.687 387.371C122.748 387.094 122.809 386.815 122.869 386.533C122.885 386.457 122.901 386.381 122.917 386.306C122.966 386.072 123.013 385.836 123.061 385.598C123.061 385.603 123.063 385.606 123.068 385.606C123.071 385.606 123.076 385.605 123.08 385.601C123.12 385.584 123.219 385.498 123.351 385.352C123.41 385.285 123.477 385.206 123.547 385.116C123.555 385.107 123.561 385.098 123.569 385.089C123.587 385.065 123.605 385.042 123.624 385.018C123.625 385.016 123.627 385.012 123.629 385.011C123.65 384.983 123.67 384.955 123.69 384.926C123.695 384.922 123.698 384.917 123.702 384.912C123.719 384.888 123.736 384.862 123.754 384.837C123.826 384.735 123.9 384.621 123.974 384.5C123.989 384.474 124.005 384.448 124.02 384.422C124.355 383.853 124.683 383.111 124.822 382.257C125.217 379.844 124.113 376.548 117.455 373.824C117.735 372.983 115.683 363.254 115.683 363.254L109.331 363.347L108.381 363.36L108.346 363.36L98.1755 363.507L97.2015 363.521L97.1029 363.522L96.7775 363.526L95.8302 363.541L94.4878 363.56C93.9044 363.672 93.4152 363.767 93.367 363.781C93.0764 363.867 92.8148 363.953 92.5709 364.042C92.5694 364.042 92.5672 364.042 92.5657 364.043C92.0001 364.276 91.4508 364.544 90.9238 364.846C90.6473 365.003 90.3768 365.17 90.1121 365.346C90.1136 365.35 90.1158 365.354 90.1173 365.358C89.8564 365.536 89.6036 365.744 89.3612 365.975C89.0314 366.288 88.7208 366.646 88.4391 367.032C88.4265 367.045 88.4169 367.061 88.4065 367.075Z" fill="#FF7707"/>
<path d="M88.8393 339.086C88.8393 339.086 87.1374 345.701 87.8023 351.257C88.2975 355.394 88.018 361.138 87.8438 363.803C87.7919 364.597 88.4302 365.265 89.2263 365.248C92.6012 365.176 100.741 364.875 103.401 363.633C106.788 362.051 104.747 354.149 104.747 354.149L88.8393 339.086Z" fill="#22323E"/>
<path d="M113.02 338.763C113.376 341.414 114.388 344.435 114.408 348.714C114.421 351.685 115.077 354.551 116.058 357.405C116.434 358.502 116.086 360.114 114.972 360.436C112.258 361.221 108.71 362.2 106.442 362.45C102.949 362.835 101.997 360.889 101.997 360.889L113.02 338.763Z" fill="#22323E"/>
<path d="M98.1216 349.159L105.91 347.624C105.91 347.624 106.599 356.19 107.421 360.062C107.646 361.12 108.364 362.006 109.351 362.449C109.351 362.449 109.46 362.9 109.25 363.361C107.83 366.485 104.085 368.253 100.798 367.266C98.7131 366.64 96.327 365.092 94.5168 363.36L96.9608 362.824C98.9585 361.922 98.1216 349.159 98.1216 349.159Z" fill="#FFB8A4"/>
<path d="M109.351 362.45C109.351 362.45 109.46 362.9 109.25 363.362C107.83 366.486 104.085 368.254 100.798 367.267L109.351 362.45Z" fill="#FFB8A4"/>
<path opacity="0.11" d="M94.5747 411.282C94.5785 411.274 94.5823 411.266 94.586 411.259H94.5853C94.5823 411.266 94.5785 411.275 94.5747 411.282Z" fill="#2A404F"/>
<path d="M102.625 384.435L99.9678 384.814L100.958 391.74L103.615 391.361L102.625 384.435Z" fill="white"/>
<path d="M90.1106 365.351C90.1121 365.355 90.1143 365.359 90.1158 365.363C90.5413 366.451 90.8837 367.636 91.155 368.895C91.5939 370.936 91.8444 373.169 91.9541 375.49C91.9704 375.813 91.983 376.139 91.9926 376.465V376.467C92.0379 376.522 92.086 376.577 92.1335 376.636C92.1913 376.706 92.2514 376.777 92.3107 376.851C92.794 377.441 93.3536 378.157 93.9503 378.982C93.9874 379.033 94.0252 379.085 94.0622 379.139C94.1379 379.244 94.2135 379.35 94.2891 379.457C94.3276 379.511 94.3654 379.566 94.4032 379.621C94.5018 379.761 94.5997 379.904 94.699 380.047C94.7546 380.13 94.8117 380.213 94.868 380.299L94.9844 380.474C95.0236 380.532 95.0629 380.592 95.1022 380.652C95.3758 381.068 95.653 381.505 95.9295 381.958C95.9673 382.019 96.0051 382.082 96.0421 382.144C96.0436 382.148 96.0458 382.15 96.0481 382.154C96.1259 382.285 96.2052 382.418 96.2838 382.552C96.4936 382.908 96.7019 383.276 96.9057 383.652C96.9539 383.74 97.0013 383.828 97.0488 383.916C97.0984 384.008 97.1474 384.1 97.1955 384.193C97.2141 384.227 97.2326 384.263 97.2511 384.297C97.2511 384.298 97.2519 384.3 97.2526 384.303C97.3008 384.394 97.349 384.487 97.3972 384.581C97.5832 384.945 97.7656 385.316 97.9427 385.694C97.9746 385.761 98.0065 385.829 98.0376 385.898C98.0762 385.98 98.1147 386.064 98.1518 386.147C98.1784 386.206 98.2059 386.266 98.2326 386.326C98.2333 386.327 98.2333 386.329 98.2348 386.331C98.2348 386.332 98.2355 386.332 98.2355 386.335C98.2755 386.424 98.3163 386.514 98.3549 386.605C98.4045 386.717 98.452 386.829 98.5001 386.942V386.943C98.5683 387.1 98.6336 387.259 98.6973 387.418C98.7025 387.429 98.7077 387.44 98.7107 387.451C98.7351 387.51 98.7596 387.57 98.7811 387.628C98.7944 387.659 98.807 387.69 98.8181 387.721C98.8196 387.726 98.8219 387.73 98.8241 387.735C98.8456 387.79 98.8678 387.845 98.8886 387.901C98.9204 387.982 98.9516 388.063 98.982 388.144C99.0131 388.225 99.0442 388.307 99.0731 388.389C99.0894 388.434 99.1065 388.479 99.1228 388.526C99.125 388.531 99.128 388.538 99.1295 388.544C99.1421 388.579 99.1547 388.613 99.1665 388.647C99.1769 388.673 99.1866 388.699 99.1947 388.725C99.231 388.825 99.2651 388.925 99.3 389.025C99.3333 389.12 99.3652 389.215 99.3963 389.31C99.4037 389.334 99.4126 389.358 99.4201 389.382C99.4371 389.432 99.4527 389.481 99.469 389.53C99.4875 389.585 99.5053 389.641 99.5223 389.698C99.5624 389.822 99.6009 389.947 99.6387 390.074C99.6506 390.11 99.6617 390.146 99.6713 390.182C99.7195 390.339 99.7647 390.495 99.8085 390.653C99.8107 390.662 99.8137 390.671 99.8159 390.679C99.8344 390.745 99.8529 390.813 99.8715 390.878C99.893 390.958 99.9145 391.037 99.9337 391.118C99.9397 391.135 99.9441 391.152 99.9478 391.169C99.9552 391.198 99.9626 391.227 99.9693 391.256C100.019 391.445 100.065 391.635 100.109 391.826C100.114 391.845 100.118 391.864 100.123 391.883C100.128 391.907 100.134 391.931 100.139 391.954C100.146 391.983 100.152 392.012 100.158 392.04C100.162 392.055 100.166 392.07 100.169 392.086C100.184 392.154 100.199 392.221 100.212 392.289C100.218 392.31 100.221 392.33 100.226 392.351C100.237 392.399 100.247 392.446 100.255 392.494C100.263 392.524 100.269 392.553 100.274 392.583C100.286 392.638 100.297 392.693 100.307 392.748C100.318 392.8 100.327 392.851 100.337 392.903C100.339 392.92 100.343 392.935 100.344 392.949C100.348 392.96 100.35 392.97 100.35 392.98C100.359 393.023 100.367 393.067 100.375 393.109C100.381 393.141 100.387 393.175 100.392 393.208C100.399 393.244 100.404 393.28 100.41 393.316C100.421 393.373 100.43 393.43 100.44 393.488C100.444 393.509 100.447 393.531 100.45 393.551C100.464 393.641 100.479 393.73 100.491 393.82C100.505 393.909 100.518 394 100.53 394.09C100.537 394.135 100.543 394.181 100.548 394.229C100.552 394.244 100.553 394.26 100.555 394.276C100.557 394.286 100.559 394.296 100.559 394.307C100.561 394.322 100.565 394.339 100.565 394.356C100.571 394.398 100.576 394.438 100.58 394.48C100.585 394.509 100.587 394.537 100.591 394.566C100.592 394.573 100.592 394.578 100.593 394.585C100.6 394.646 100.607 394.707 100.613 394.769C100.617 394.794 100.619 394.82 100.621 394.846C100.625 394.877 100.628 394.909 100.63 394.942C100.639 395.022 100.646 395.101 100.653 395.181C100.657 395.219 100.66 395.257 100.664 395.296C100.669 395.348 100.672 395.402 100.676 395.455C100.682 395.51 100.685 395.564 100.688 395.62C100.688 395.62 100.688 395.62 100.688 395.62C100.694 395.691 100.699 395.76 100.702 395.83C100.707 395.887 100.709 395.946 100.713 396.003C100.718 396.091 100.721 396.178 100.725 396.267C100.728 396.336 100.73 396.404 100.731 396.472C100.732 396.49 100.732 396.508 100.732 396.525C100.734 396.548 100.734 396.573 100.734 396.597C100.735 396.602 100.735 396.608 100.735 396.614C100.737 396.688 100.739 396.762 100.739 396.836C100.74 396.929 100.741 397.021 100.741 397.115C100.741 397.154 100.741 397.196 100.74 397.235C100.74 397.31 100.739 397.385 100.739 397.461V397.47C100.739 397.478 100.739 397.486 100.738 397.494C100.737 397.587 100.734 397.68 100.731 397.772C100.729 397.861 100.725 397.95 100.72 398.039C100.716 398.128 100.713 398.216 100.707 398.305C100.694 398.539 100.676 398.775 100.654 399.01C100.65 399.056 100.599 399.065 100.526 399.056C100.351 399.037 100.046 398.915 99.9189 398.935C99.4771 398.526 98.9805 398.066 98.9731 398.066C98.9642 398.073 98.959 398.093 98.956 398.124V398.125C98.9382 398.411 99.1732 399.634 98.9753 400.975C98.8767 401.635 98.6751 402.324 98.2844 402.943C96.9398 405.077 95.1734 408.069 93.4403 411.465L93.9355 411.462C93.934 411.465 93.9318 411.469 93.9303 411.473C93.9318 411.469 93.9347 411.466 93.9362 411.462L94.5574 411.457L98.1792 411.433L103.048 411.401L103.246 411.4L103.58 411.398L104.95 411.388L105.645 411.384L105.773 411.383C105.773 411.382 105.773 411.382 105.773 411.381C105.882 408.774 105.906 406.263 105.86 403.853C105.854 403.548 105.847 403.244 105.839 402.942C105.765 400.171 105.6 397.536 105.363 395.036C105.31 394.476 105.253 393.923 105.192 393.378C105.152 393.011 105.111 392.648 105.067 392.287C105.014 391.84 104.958 391.398 104.899 390.963C104.899 390.962 104.899 390.962 104.899 390.961C104.858 390.645 104.815 390.332 104.77 390.022C104.61 388.88 104.433 387.773 104.246 386.699C104.184 386.343 104.12 385.989 104.056 385.638C104.048 385.597 104.04 385.556 104.032 385.515C104.015 385.424 103.998 385.332 103.981 385.241C103.954 385.093 103.924 384.945 103.896 384.799C103.896 384.795 103.895 384.792 103.895 384.788C103.621 383.375 103.326 382.027 103.022 380.747C103.018 380.734 103.016 380.721 103.013 380.708C102.983 380.58 102.951 380.452 102.92 380.325C101.738 375.464 100.385 371.583 99.2251 368.74C98.8522 367.827 98.6388 366.878 98.3185 366.181C97.0065 365.434 95.7056 364.328 94.5189 363.36C93.9355 363.473 93.4151 363.772 93.3669 363.786C93.0764 363.872 92.8147 363.957 92.5708 364.046C92.5694 364.046 92.5671 364.047 92.5656 364.048C91.6687 364.374 91.0231 364.744 90.1106 365.351Z" fill="#FF7707"/>
<path d="M123.22 382.434C123.22 382.434 121.997 401.61 120.864 411.27L114.438 411.315L116.033 375.958L123.22 382.434Z" fill="#FF7707"/>
<path d="M92.7253 384.199C92.7253 384.199 94.5392 407.778 93.4347 411.467L101.374 409.753C101.374 409.753 104.849 385.151 102.731 380.953C100.613 376.755 93.348 376.112 93.348 376.112L92.7253 384.199Z" fill="#FF7707"/>
<path d="M108.96 364.174C110.023 365.822 110.955 367.316 111.777 368.741C111.97 369.074 112.157 369.402 112.337 369.728C113.749 372.28 114.812 374.659 115.643 377.364C116.217 379.228 116.681 381.248 117.075 383.587C117.311 384.99 117.522 386.509 117.717 388.176C118.367 393.757 118.83 401.019 119.427 411.287L122.189 411.268L122.761 411.262C122.272 408.637 121.68 405.846 120.966 402.943C120.403 400.654 120.278 397.823 120.966 395.57C121.609 393.46 121.992 390.784 122.69 387.605C122.708 387.529 122.724 387.453 122.741 387.376C122.954 386.42 121.913 383.462 122.503 382.677C122.547 382.618 124.052 384.617 124.097 384.552C124.114 384.528 124.131 384.503 124.149 384.478C124.518 383.94 124.896 383.237 125.116 382.427C125.776 379.988 124.994 376.576 118.163 373.783C118.428 372.991 116.446 363.917 116.211 362.86C116.209 362.849 116.203 362.842 116.195 362.835C116.182 362.823 116.159 362.815 116.137 362.81C116.091 362.8 116.041 362.803 116.041 362.803C116.041 362.803 115.967 362.744 115.839 362.745L115.678 362.738L115.664 362.737C115.531 362.74 115.35 362.742 115.139 362.748C115.119 362.748 115.098 362.748 115.076 362.748C114.969 362.75 114.854 362.752 114.735 362.755C114.703 362.755 114.669 362.756 114.635 362.757C114.586 362.757 114.536 362.758 114.486 362.759C114.465 362.759 114.443 362.76 114.422 362.76C114.382 362.761 114.34 362.762 114.301 362.763H114.293C113.984 362.768 113.661 362.775 113.354 362.782C113.34 362.782 113.323 362.782 113.308 362.783C113.28 362.783 113.252 362.783 113.225 362.784C113.189 362.785 113.154 362.785 113.119 362.785C113.09 362.786 113.063 362.786 113.036 362.788C113.002 362.788 112.969 362.788 112.935 362.789C112.909 362.79 112.882 362.79 112.856 362.791C112.551 362.797 112.286 362.803 112.102 362.808C111.541 362.821 110.329 362.879 109.403 362.926V362.946C109.403 363.115 109.378 363.339 109.274 363.565C109.18 363.775 109.074 363.978 108.96 364.174Z" fill="#FF7707"/>
<path d="M120.699 401.12C119.296 401.975 118.038 403.338 116.779 404.389C119.19 405.679 122.967 407.576 125.882 408.368C127.588 408.831 134.463 408.679 134.678 406.402C135.218 400.69 125.767 401.257 120.699 401.12Z" fill="#FFB8A4"/>
<path opacity="0.23" d="M85.3267 403.079L86.0138 402.99L85.4764 403.058L85.3267 403.079Z" fill="#2A404F"/>
<path d="M100.825 396.993L99.9397 399.618C99.9397 399.618 101.309 399.86 101.261 399.457C101.212 399.055 100.825 396.993 100.825 396.993Z" fill="#2A404F"/>
<path d="M89.6765 347.58C91.4866 352.645 93.5273 351.386 97.9274 352.167C97.903 349.705 99.8614 351.782 99.8614 351.782L106.78 350.044C106.78 350.044 107.135 352.621 107.607 355.523C113.466 352.761 113.153 341.923 113.05 339.227C112.736 330.965 102.781 327.001 96.327 329.308C89.8729 331.614 86.8938 339.796 89.6765 347.58Z" fill="#22323E"/>
<path d="M95.1434 343.635C95.5236 351 101.028 357.104 105.822 356.856C109.831 356.649 113.066 350.168 112.686 342.803C112.306 335.438 107.31 331.143 102.516 331.391C97.7222 331.639 94.7631 336.27 95.1434 343.635Z" fill="#FFB8A4"/>
<path d="M110.256 333.668C110.256 333.668 103.994 343.812 96.393 346.925C88.7922 350.037 93.5837 333.925 93.5837 333.925L102.873 329.819L107.266 331.355L110.256 333.668Z" fill="#22323E"/>
<path d="M97.0107 344.217C95.9959 343.887 94.9922 344.435 94.7698 345.441C94.3807 347.196 96.8402 349.84 96.7193 349.801C97.9713 350.208 98.6199 348.168 98.8431 347.162C99.0654 346.156 98.0255 344.547 97.0107 344.217Z" fill="#FFB8A4"/>
<path d="M87.3527 385.291C88.3326 389.904 89.7143 395.51 93.7008 397.979C95.0944 398.84 96.9371 399.805 99.0052 400.772C99.2454 400.884 99.4885 400.997 99.7346 401.109C99.9518 401.208 100.171 401.307 100.393 401.406C102.252 402.237 104.104 402.984 105.89 403.649C109.563 405.021 112.953 406.057 115.519 406.813C117.229 407.315 119.313 408.129 121.542 407.959C121.637 407.952 121.733 407.942 121.829 407.932C122.065 407.762 123.849 402.815 124.977 401.258C125.089 401.104 125.026 400.884 124.85 400.81C123.558 400.268 122.218 399.779 120.859 399.308C120.408 399.152 119.955 398.998 119.502 398.844C114.457 397.135 109.238 395.491 105.097 392.084C102.981 390.343 101.147 388.142 99.7613 385.237C97.545 380.588 99.1298 370.005 93.9076 365.185C93.0566 364.4 92.0737 364.302 91.1205 364.649C90.7899 364.769 90.463 364.942 90.1465 365.159C89.8855 365.337 89.6328 365.545 89.3904 365.775C89.0605 366.088 88.7499 366.446 88.4683 366.832C88.4572 366.847 88.4475 366.862 88.4371 366.876C87.6692 367.947 86.627 368.746 86.4202 372.468C86.2601 375.351 86.4847 381.209 87.3527 385.291Z" fill="#FF7707"/>
<path d="M105.361 403.46C105.352 403.46 105.343 403.459 105.335 403.457C102.159 402.676 93.5129 397.992 93.1127 397.749C93.06 397.717 93.0437 397.648 93.0756 397.596C93.1075 397.543 93.1757 397.527 93.2283 397.559C93.6264 397.801 102.234 402.466 105.387 403.24C105.446 403.255 105.484 403.315 105.469 403.375C105.457 403.426 105.412 403.46 105.361 403.46Z" fill="#FFBD69"/>
<path d="M98.7507 382.992C98.81 383.016 100.844 393.767 123.799 400.27L98.7507 382.992Z" fill="#FF7707"/>
<path d="M105.81 419.565L87.4398 419.892L83.0887 425.53L57.748 425.98V434.423L105.81 433.321V419.565Z" fill="#FDD13C"/>
<path d="M61.7166 453.749C75.4743 453.438 89.232 453.126 102.99 452.814C103.48 444.35 103.971 435.886 104.461 427.422L61.7166 428.182V453.749V453.749Z" fill="white"/>
<path d="M63.2466 458.459C77.4676 458.207 91.6894 457.954 105.91 457.701C107.12 449.157 108.331 440.614 109.54 432.07L105.809 432.136L63.2458 432.893V458.459H63.2466Z" fill="#FDD13C"/>
<path d="M73.0106 411.138L68.6794 445.696L68.4548 447.537L68.2821 448.945L68.1746 449.827H63.7227L63.7152 449.881L63.2735 449.827H56.4294L56.4517 449.646L56.5206 449.082L56.5258 449.043L56.5303 449.002L56.554 448.812L56.6704 447.858L56.7652 447.082L57.0565 444.698L57.1255 444.136L57.4524 441.461L57.4761 441.27V441.269L57.7126 439.338L57.8527 438.191L58.3745 433.919L58.3975 433.728L58.8178 430.293L59.2966 426.377L59.3196 426.187H59.3203L59.3685 425.789L60.0609 420.126L60.2187 418.836L60.2417 418.644L60.4003 417.351L61.0608 411.945L61.1409 411.294V411.294L61.1609 411.126L61.1638 411.103L61.3506 409.577L61.6961 409.62L62.0289 409.66L62.6115 409.732L62.9451 409.772L63.5277 409.844L63.8605 409.884L64.0703 409.91L66.4853 410.205L68.4548 410.445L73.0106 411.138Z" fill="white"/>
<path d="M61.0994 411.681L68.2842 412.56L68.3075 412.369L61.1227 411.491L61.0994 411.681Z" fill="#19252E"/>
<path d="M61.0174 412.428L60.9941 412.618L64.5869 413.058L64.6102 412.867L61.0174 412.428Z" fill="#19252E"/>
<path d="M60.8785 413.505L60.8552 413.695L64.448 414.135L64.4713 413.944L60.8785 413.505Z" fill="#19252E"/>
<path d="M60.7401 414.583L60.7168 414.773L64.3096 415.213L64.3329 415.022L60.7401 414.583Z" fill="#19252E"/>
<path d="M60.6007 415.66L60.5774 415.851L64.1702 416.29L64.1935 416.099L60.6007 415.66Z" fill="#19252E"/>
<path d="M60.4618 416.737L60.4385 416.928L64.0313 417.367L64.0546 417.177L60.4618 416.737Z" fill="#19252E"/>
<path d="M60.3231 417.815L60.2998 418.006L63.8926 418.445L63.9159 418.255L60.3231 417.815Z" fill="#19252E"/>
<path d="M60.0912 419.97L60.0679 420.16L63.6606 420.6L63.684 420.409L60.0912 419.97Z" fill="#19252E"/>
<path d="M59.9527 421.047L59.9294 421.237L63.5222 421.677L63.5455 421.486L59.9527 421.047Z" fill="#19252E"/>
<path d="M59.8138 422.125L59.7905 422.315L63.3833 422.755L63.4066 422.564L59.8138 422.125Z" fill="#19252E"/>
<path d="M59.6744 423.202L59.6511 423.393L63.2439 423.832L63.2672 423.641L59.6744 423.202Z" fill="#19252E"/>
<path d="M59.536 424.28L59.5127 424.47L63.1055 424.91L63.1288 424.719L59.536 424.28Z" fill="#19252E"/>
<path d="M59.3971 425.357L59.3738 425.548L62.9666 425.987L62.9899 425.797L59.3971 425.357Z" fill="#19252E"/>
<path d="M59.1947 427.512L59.1714 427.703L62.7642 428.142L62.7875 427.952L59.1947 427.512Z" fill="#19252E"/>
<path d="M59.0553 428.589L59.032 428.78L62.6247 429.219L62.648 429.029L59.0553 428.589Z" fill="#19252E"/>
<path d="M58.9164 429.666L58.8931 429.857L62.4858 430.296L62.5091 430.106L58.9164 429.666Z" fill="#19252E"/>
<path d="M58.7777 430.744L58.7544 430.935L62.3472 431.374L62.3705 431.183L58.7777 430.744Z" fill="#19252E"/>
<path d="M58.6385 431.822L58.6152 432.012L62.208 432.452L62.2313 432.261L58.6385 431.822Z" fill="#19252E"/>
<path d="M58.5001 432.899L58.4768 433.089L62.0696 433.529L62.0929 433.338L58.5001 432.899Z" fill="#19252E"/>
<path d="M58.2408 435.054L58.2175 435.244L61.8103 435.684L61.8336 435.493L58.2408 435.054Z" fill="#19252E"/>
<path d="M58.1027 436.131L58.0793 436.322L61.6721 436.761L61.6954 436.571L58.1027 436.131Z" fill="#19252E"/>
<path d="M57.9635 437.209L57.9402 437.399L61.533 437.839L61.5563 437.648L57.9635 437.209Z" fill="#19252E"/>
<path d="M57.8241 438.286L57.8008 438.477L61.3936 438.916L61.4169 438.725L57.8241 438.286Z" fill="#19252E"/>
<path d="M57.6857 439.364L57.6624 439.554L61.2551 439.994L61.2784 439.803L57.6857 439.364Z" fill="#19252E"/>
<path d="M57.5467 440.441L57.5234 440.631L61.1162 441.071L61.1395 440.88L57.5467 440.441Z" fill="#19252E"/>
<path d="M57.3192 442.596L57.2959 442.787L60.8887 443.226L60.912 443.035L57.3192 442.596Z" fill="#19252E"/>
<path d="M57.18 443.673L57.1567 443.863L60.7495 444.303L60.7728 444.112L57.18 443.673Z" fill="#19252E"/>
<path d="M60.1777 419.223L67.3625 420.102L67.3859 419.911L60.2011 419.033L60.1777 419.223Z" fill="#19252E"/>
<path d="M59.2564 426.765L66.4412 427.644L66.4645 427.453L59.2797 426.574L59.2564 426.765Z" fill="#19252E"/>
<path d="M58.2908 434.329L65.4756 435.208L65.4989 435.017L58.3141 434.138L58.2908 434.329Z" fill="#19252E"/>
<path d="M57.4155 441.482L64.6003 442.361L64.6236 442.17L57.4388 441.291L57.4155 441.482Z" fill="#19252E"/>
<path d="M61.8688 455.776L52.0546 420.723L48.6633 421.673L58.4776 456.726C59.6087 456.409 60.7392 456.093 61.8688 455.776Z" fill="#FDD13C"/>
<path d="M61.3829 456.058L61.7056 455.968L51.8531 420.789L51.5304 420.879L61.3829 456.058Z" fill="#FDD13C"/>
<path d="M60.4955 456.306L60.8181 456.216L50.9656 421.037L50.643 421.127L60.4955 456.306Z" fill="#FDD13C"/>
<path d="M59.5992 456.544L59.9219 456.454L50.0694 421.271L49.7467 421.361L59.5992 456.544Z" fill="#FDD13C"/>
<path d="M58.7194 456.804L59.042 456.713L49.1895 421.534L48.8669 421.625L58.7194 456.804Z" fill="#FDD13C"/>
<path d="M50.3593 421.198C50.2785 421.221 50.3163 421.666 50.4742 422.533C50.1221 421.72 49.8931 421.328 49.7878 421.358C49.7137 421.38 49.7011 421.611 49.7485 422.049C49.4913 421.662 49.3038 421.488 49.1859 421.527C48.9873 421.592 48.9873 422.261 49.1837 423.533C49.0102 422.913 48.8368 422.293 48.6626 421.673C48.6982 419.736 48.8613 417.917 48.8968 415.979C49.9917 417.6 50.959 419.102 52.0538 420.723C52.1969 421.235 52.3407 421.748 52.4838 422.26C51.9693 421.287 51.641 420.827 51.4994 420.878C51.3919 420.917 51.3926 421.254 51.5016 421.887C51.2348 421.287 51.0635 420.998 50.9879 421.022C50.8708 421.058 50.9857 421.849 51.3333 423.395C50.7937 421.9 50.4683 421.167 50.3593 421.198Z" fill="#FFE9D6"/>
<path d="M50.52 418.418C50.371 418.562 50.2242 418.752 49.7706 418.895C49.2361 419.064 48.9878 418.857 48.7825 418.81C48.8366 417.636 48.8447 417.155 48.8988 415.98L50.52 418.418Z" fill="#19252E"/>
<path d="M71.0063 436.948L68.6506 462.432V462.433C68.638 462.511 67.0399 462.579 64.716 462.611H58.3516C56.0188 462.579 54.417 462.512 54.417 462.433L52.062 436.954C52.1369 437.232 56.3494 437.456 61.5338 437.456C66.7434 437.456 70.97 437.23 71.0063 436.951C71.0063 436.951 71.0063 436.949 71.0063 436.948Z" fill="#18A795"/>
<path d="M99.4115 438.156C99.5605 438.747 99.6339 439.339 99.6317 439.932C99.6309 440.139 99.6213 440.348 99.6006 440.557C99.5464 441.15 99.4152 441.745 99.2092 442.34C99.1365 442.55 99.0542 442.759 98.9631 442.969C98.7036 443.565 98.3693 444.162 97.9587 444.761C97.8149 444.971 97.6614 445.182 97.4983 445.392C97.4739 445.425 97.4487 445.457 97.4235 445.489L147.654 444.807L147.525 444.909L147.31 445.079L146.645 445.603L146.277 445.893L146.391 445.847C146.403 445.842 146.415 445.838 146.426 445.833L147.013 445.598L148.773 444.892L149.644 444.543C150.651 444.184 151.521 443.47 152.139 442.533C152.758 441.596 153.124 440.435 153.124 439.182C153.124 436.116 150.929 433.661 148.222 433.697L97.4242 434.387L97.0024 434.556V435.739L98.3649 435.721C98.5094 435.959 98.6421 436.198 98.7615 436.436C98.946 436.802 99.1017 437.169 99.227 437.535C99.2966 437.742 99.3582 437.949 99.4115 438.156Z" fill="#18A795"/>
<path d="M97.0015 435.738C97.0015 435.978 97.0015 436.219 97.0015 436.459C97.4225 437.058 98.607 438.909 98.5203 441.544C98.4447 443.846 97.4395 445.479 97.0015 446.113C97.0015 446.355 97.0015 446.598 97.0015 446.84C125.09 446.46 144.424 446.196 144.739 446.191C145.277 446.184 145.794 446.079 146.277 445.891L146.391 445.845C146.403 445.841 146.414 445.836 146.425 445.831C146.587 445.762 146.743 445.683 146.895 445.597C147.205 445.422 147.497 445.21 147.766 444.967C147.789 444.946 147.812 444.924 147.835 444.903C148.939 443.87 149.643 442.31 149.643 440.573C149.643 439.04 149.094 437.659 148.207 436.668C147.319 435.676 146.094 435.071 144.74 435.089L97.0015 435.738Z" fill="#18A795"/>
<path d="M97.4373 445.392C97.2683 445.707 97.1127 445.952 97.0007 446.118L144.738 445.47C145.434 445.46 146.09 445.262 146.67 444.919C146.726 444.886 146.78 444.853 146.834 444.817C146.883 444.786 146.931 444.754 146.979 444.719C147.235 444.536 147.474 444.323 147.69 444.084C148.145 443.585 148.503 442.975 148.73 442.293C148.798 442.089 148.854 441.881 148.898 441.665C148.968 441.318 149.006 440.954 149.006 440.582C149.006 440.347 148.99 440.114 148.961 439.886C148.934 439.674 148.895 439.466 148.843 439.263C148.677 438.603 148.388 438.005 148.008 437.496C147.841 437.272 147.655 437.064 147.453 436.879C146.715 436.198 145.769 435.796 144.739 435.81L97.0015 436.459C97.1549 436.684 97.3929 437.055 97.633 437.555C97.7242 437.744 97.8154 437.951 97.9021 438.177C98.0985 438.683 98.2742 439.277 98.3787 439.948C98.4106 440.149 98.4358 440.357 98.4529 440.571C98.4721 440.802 98.4818 441.04 98.4818 441.287C98.481 441.658 98.4566 442.013 98.4128 442.35C98.3861 442.566 98.3513 442.776 98.3098 442.977C98.1704 443.665 97.9607 444.266 97.7435 444.763C97.6412 444.996 97.5374 445.207 97.4373 445.392Z" fill="white"/>
<path opacity="0.24" d="M97.6331 437.556C97.7242 437.744 97.8154 437.952 97.9021 438.177L148.009 437.496C147.841 437.272 147.655 437.064 147.454 436.879L97.6331 437.556Z" fill="#FFFBF7"/>
<path opacity="0.24" d="M98.3787 439.949C98.4105 440.15 98.4357 440.358 98.4528 440.572L148.961 439.886C148.934 439.674 148.895 439.466 148.843 439.264L98.3787 439.949Z" fill="#FFFBF7"/>
<path opacity="0.24" d="M98.3098 442.978L148.731 442.293C148.798 442.09 148.855 441.881 148.898 441.666L98.4136 442.351C98.3862 442.567 98.3513 442.776 98.3098 442.978Z" fill="#FFFBF7"/>
<path d="M308.398 438.75L308.821 441.123L309.526 445.08L309.801 446.627L310.87 452.63L315.403 478.076C315.557 478.938 316.231 479.533 316.985 479.533C317.09 479.533 317.198 479.521 317.304 479.498C318.179 479.302 318.746 478.347 318.571 477.367L313.865 450.944L313.096 446.627L312.116 441.123L311.693 438.75H308.398V438.75Z" fill="#2A404F"/>
<path opacity="0.32" d="M328.211 427.235C328.036 426.255 327.185 425.618 326.309 425.814C325.434 426.01 324.866 426.964 325.041 427.945L327.17 439.894L330.109 437.895L328.211 427.235Z" fill="#18A795"/>
<path d="M311.092 394.466C314.037 395.364 317.056 394.907 317.961 393.946C317.067 393.707 315.872 391.769 315.134 390.086C315.018 389.823 314.466 388.317 314.337 387.29C314.332 387.249 314.326 387.21 314.323 387.172C314.243 386.309 314.174 385.154 314.126 383.67C314.063 381.698 313.935 381.173 313.965 379.951C313.966 379.913 313.967 379.873 313.968 379.833C313.116 380.354 312.263 380.874 311.411 381.393C310.699 381.827 309.987 382.263 309.275 382.696C309.274 382.659 309.271 382.626 309.269 382.602C309.265 382.564 309.26 382.555 309.259 382.607C309.258 382.629 309.258 382.661 309.259 382.705C309.231 382.723 309.202 382.741 309.172 382.758C309.225 382.93 309.253 382.952 309.267 382.911C309.27 382.972 309.273 383.042 309.278 383.122C309.344 384.336 309.141 384.037 308.868 385.017C308.735 385.491 308.79 387.848 308.728 388.269C308.726 388.284 308.724 388.3 308.722 388.315C308.378 390.634 307.533 392.664 307.533 392.664C307.372 393.714 309.21 393.894 311.092 394.466Z" fill="#FFB8A4"/>
<path d="M298.991 410.797C299.039 410.246 299.736 409.632 300.343 409.271C301.479 408.598 302.691 408.582 302.942 408.579C304.469 408.56 305.497 409.286 305.736 410.156C305.783 410.324 306.092 411.449 305.158 412.053C303.571 413.08 298.861 412.298 298.991 410.797Z" fill="#FFB8A4"/>
<path d="M314.945 389.304C313.708 389.456 318.299 398.015 318.441 407.882C318.503 412.167 318.042 417.348 317.924 419.695C312.637 420.13 305.738 420.814 300.983 420.896C300.659 422.76 300.333 424.623 300.009 426.487C306.173 427.589 315.482 427.382 321.324 426.896C323.323 426.73 325.277 426.482 325.759 424.535C326.176 422.848 325.969 423.208 326.333 421.019C327.646 413.128 326.566 398.961 321.455 392.8C319.601 390.566 315.939 389.183 314.945 389.304Z" fill="#FFA344"/>
<path d="M289.886 435.299C290.082 437.259 290.369 440.539 290.686 444.219C292.079 442.559 293.131 440.789 293.964 438.526C295.12 439.056 296.379 439.675 297.675 440.342C297.44 439.52 297.141 438.686 296.764 437.821C300.154 436.647 304.625 435.408 308.478 434.531C309.946 434.198 311.325 433.917 312.52 433.711C315.09 433.052 316.448 432.267 317.794 430.667C319.625 428.492 319.404 425.004 317.613 422.797C316.651 421.612 315.416 420.331 313.919 419.237C313.967 418.612 305.178 422.862 306.202 424.103C302.303 425.897 297.07 428.416 293.782 430.011C293.008 430.386 292.343 430.709 291.827 430.96C291.708 431.018 291.592 431.083 291.483 431.153C290.941 431.501 290.509 431.994 290.244 432.576C290.152 432.775 290.08 432.986 290.029 433.204C289.892 433.797 289.808 434.514 289.886 435.299Z" fill="#FDD13C"/>
<path d="M267.656 457.488L271.562 461.228C273.237 459.976 276.888 456.204 279.939 453.702C283.314 450.933 285.855 448.778 287.816 446.438C289.437 444.506 290.661 442.448 291.629 439.815C292.975 440.432 294.44 441.152 295.948 441.929C295.675 440.971 295.326 440.001 294.888 438.995C298.832 437.629 304.034 436.187 308.518 435.167C302.913 433.269 295.955 431.024 293 430.076C292.483 429.91 291.945 429.854 291.418 429.907C290.806 429.965 290.211 430.17 289.684 430.515C289.378 430.714 289.059 430.953 288.743 431.236C288.446 431.502 288.152 431.809 287.878 432.16C287.701 432.385 287.508 432.63 287.302 432.892C282.779 438.623 271.492 452.485 267.656 457.488Z" fill="#EAECED"/>
<path d="M276 433.475C276.005 434.184 276.104 435.017 276.405 435.884C277.263 438.351 278.966 443.324 280.848 448.812C282.078 445.522 282.625 442.569 282.363 438.891C283.59 438.899 284.922 438.937 286.308 438.999C291.428 439.232 297.274 439.809 301.241 440.489C304.316 440.761 306.109 440.426 308.208 439.194C311.059 437.518 312.167 433.606 311.058 430.489C310.462 428.816 309.604 426.932 308.385 425.152C308.488 424.918 307.159 424.921 305.42 425.1C302.214 425.43 297.616 426.358 298.033 427.498C291.891 428.063 283.087 429.053 279.605 429.449C278.969 429.522 278.368 429.747 277.852 430.097C277.628 430.248 277.42 430.422 277.233 430.617C277.232 430.619 277.23 430.62 277.229 430.622C277.056 430.802 276.899 431.001 276.763 431.214C276.547 431.552 276.336 431.941 276.153 432.376C276.05 432.73 275.997 433.099 276 433.475Z" fill="#EAECED"/>
<path d="M276 433.475C276.005 434.184 276.104 435.017 276.405 435.884C277.263 438.351 278.966 443.324 280.848 448.812C283.706 457.14 286.974 466.654 288.317 470.395L292.86 468.31C292.714 466.223 290.669 458.142 290.217 454.222C289.435 447.445 288.812 443.189 286.308 438.999C285.887 438.293 285.411 437.589 284.872 436.874C289.729 433.77 296.886 429.966 301.587 427.951C303.342 427.021 304.517 426.17 305.42 425.101C302.214 425.431 297.616 426.359 298.033 427.499C291.891 428.064 283.087 429.054 279.605 429.45C278.969 429.522 278.368 429.748 277.852 430.098C277.7 430.223 277.557 430.34 277.425 430.448C277.359 430.503 277.295 430.559 277.233 430.617C277.232 430.619 277.23 430.62 277.229 430.622C276.717 431.104 276.347 431.711 276.153 432.376C276.05 432.73 275.997 433.099 276 433.475Z" fill="#AAB3B9"/>
<g opacity="0.31">
<path opacity="0.31" d="M291.125 437.57C298.291 437.614 308.333 438.482 314.6 439.557C315.012 439.594 315.405 439.621 315.782 439.639C314.827 439.695 313.776 439.664 312.564 439.557C306.871 438.581 298.065 437.774 291.127 437.602C291.126 437.591 291.126 437.58 291.125 437.57Z" fill="#2A404F"/>
</g>
<path d="M298.83 426.915C298.669 427.416 298.925 427.954 299.414 428.146C299.661 428.243 299.951 428.354 300.272 428.474C301.141 428.798 302.238 429.176 303.314 429.471C305.911 430.182 321.334 429.761 322.076 429.272C322.715 428.853 322.377 419.996 321.995 413.108C321.749 408.668 321.218 396.865 319.48 394.673C318.235 393.101 318.767 390.594 315.969 389.466C315.114 389.121 313.047 389.894 310.834 389.81C306.068 389.629 305.287 390.317 303.793 391.241C303.637 391.338 303.472 391.438 303.295 391.54C303.293 391.54 303.291 391.542 303.289 391.543C302.223 392.221 301.424 393.045 300.173 395.109C300.347 396.727 302.163 398.42 302.406 401.756C302.475 402.709 302.507 403.7 302.51 404.683C302.515 405.373 302.591 406.095 302.579 406.829C302.434 415.487 299.712 424.172 298.83 426.915Z" fill="#FF7707"/>
<path d="M275.271 401.373C275.155 400.866 274.97 400.1 276.709 400.426C277.815 400.634 278.986 401.425 279.43 401.478C280.28 401.579 280.568 401.788 281.159 402.116C281.688 402.411 283.122 403.332 283.115 403.623C283.112 403.767 283.167 406.068 282.558 406.477C282.469 406.537 279.988 405.279 279.872 405.239C277.491 404.419 275.621 402.898 275.271 401.373Z" fill="#FFB8A4"/>
<path d="M304.378 394.478C303.275 392.802 305.959 390.555 304.637 390.741C303.887 390.845 301.603 393.016 301.264 393.456C301.141 393.615 301.026 393.769 300.92 393.925C300.918 393.926 300.587 394.446 300.585 394.447C299.866 395.485 299.78 396.038 299.426 398.425C299.297 399.293 299.177 400.335 299.054 401.613C298.997 402.202 298.943 402.951 298.89 403.775C298.547 409.143 298.845 409.652 298.309 411.326C297.816 412.867 297.089 413.955 296.728 414.487C295.791 415.868 294.683 416.687 293.594 417.86C292.215 419.346 290.927 420.784 290.134 421.931C289.991 422.138 290.037 422.448 290.171 422.661C290.761 423.595 291.496 424.841 292.095 425.796C292.257 426.053 292.598 426.125 292.848 425.954C296.386 423.554 300.482 419.483 303.094 416.61C303.36 416.318 303.619 415.854 303.791 415.24C304.355 414.389 304.873 413.323 305.285 412.001C305.653 410.822 305.959 409.575 306.187 408.296C307.053 403.44 306.785 398.138 304.378 394.478Z" fill="#FF7707"/>
<path d="M309.71 387.381C311.328 387.884 314.805 387.033 316.182 386.549C316.598 386.402 316.901 386.279 317.037 386.212C317.038 386.211 317.316 385.591 317.316 385.591C320.315 384.08 321.639 380.307 321.61 376.329C321.562 369.517 317.817 365.849 313.206 365.884C310.106 365.907 307.992 367.149 306.744 370.021C306.458 370.678 306.218 371.423 306.021 372.256C305.977 372.446 305.934 372.64 305.894 372.839C305.864 372.989 305.834 373.141 305.807 373.296C305.688 373.959 305.593 374.673 305.521 375.436C305.052 380.404 305.112 385.953 309.71 387.381Z" fill="#FFB8A4"/>
<path d="M311.444 376.394C311.276 376.264 304.303 373.563 306.371 369.207C308.439 364.851 315.888 364.209 319.41 367.084C322.932 369.959 324.922 375.201 321.612 381.458C319.347 385.738 317.067 386.226 317.067 386.226C317.067 386.226 313.121 384.349 311.958 381.229C310.843 378.241 311.444 376.394 311.444 376.394Z" fill="#19252E"/>
<path d="M310.857 380.018C311.085 380.071 311.322 380.024 311.549 379.899C311.935 379.685 312.294 379.239 312.544 378.655C312.649 378.414 312.733 378.148 312.793 377.865C313.083 376.498 312.688 375.246 311.909 375.068C311.733 375.028 311.553 375.045 311.377 375.112C311.053 375.236 310.74 375.525 310.484 375.928C310.26 376.282 310.08 376.725 309.974 377.219C309.683 378.587 310.078 379.84 310.857 380.018Z" fill="#FFB8A4"/>
<path d="M345.331 486.102C344.576 486.102 343.901 485.507 343.748 484.645L335.084 436.007C334.909 435.026 335.477 434.073 336.352 433.876C337.229 433.68 338.079 434.317 338.254 435.297L346.918 483.936C347.093 484.917 346.525 485.87 345.649 486.067C345.542 486.091 345.435 486.102 345.331 486.102Z" fill="#2A404F"/>
<path d="M305.528 437.257L306.931 445.135L313.969 484.646C314.123 485.508 314.797 486.103 315.551 486.103C315.657 486.103 315.763 486.092 315.87 486.067C316.746 485.872 317.313 484.917 317.138 483.937L310.226 445.135L308.824 437.257H305.528Z" fill="#606E78"/>
<path d="M287.202 441.197C287.202 442.285 287.568 443.27 288.158 443.984C288.215 444.05 288.271 444.114 288.33 444.175C288.905 444.774 289.652 445.134 290.471 445.134H341.404C341.998 444.953 342.685 444.301 343.235 443.461C343.807 442.587 344.23 441.51 344.244 440.546L344.887 437.256H290.471C288.881 437.256 287.558 438.621 287.263 440.431C287.247 440.524 287.235 440.619 287.226 440.713C287.21 440.872 287.202 441.033 287.202 441.197Z" fill="#606E78"/>
<path d="M287.2 441.196C287.2 442.285 287.567 443.27 288.157 443.984C288.213 444.05 288.271 444.115 288.33 444.176C288.905 444.773 289.652 445.134 290.47 445.134H341.404C341.998 444.953 342.685 444.301 343.235 443.462C343.11 443.525 342.987 443.573 342.868 443.606H290.471C289.567 443.606 288.75 443.167 288.157 442.454C287.709 441.911 287.389 441.215 287.263 440.432C287.247 440.526 287.235 440.619 287.226 440.715C287.209 440.872 287.2 441.033 287.2 441.196Z" fill="#2A404F"/>
<path d="M308 440.556H307.979L315.582 402.667C317.748 391.867 324.655 384.426 332.512 384.426H341.53C347.29 384.426 351.447 392.316 349.857 400.234L341.532 440.547C341.502 442.438 339.805 444.768 338.524 445.136H308.602C308.132 445.136 307.716 444.805 307.471 444.303C307.249 443.848 307.221 443.307 307.361 442.813L308 440.556Z" fill="#AAB3B9"/>
<path d="M307.472 444.302C307.717 444.804 308.133 445.136 308.602 445.136H338.524C339.806 444.766 341.502 442.437 341.532 440.545L349.857 400.232C351.446 392.314 347.289 384.424 341.529 384.424H332.51C331.928 384.424 331.35 384.465 330.78 384.545C330.812 384.636 330.846 384.726 330.881 384.815C331.24 385.717 331.631 386.523 332.041 387.254H332.019C327.896 387.254 324.052 389.44 321.111 393.14C320.961 392.45 320.79 391.753 320.616 391.036C318.275 394.099 316.501 398.08 315.58 402.666L307.977 440.554H307.999L307.36 442.812C307.222 443.307 307.25 443.847 307.472 444.302Z" fill="#80909C"/>
<path d="M309.962 443.606C309.984 443.88 310.059 444.145 310.19 444.386C310.432 444.829 310.813 445.119 311.242 445.134C311.254 445.136 311.265 445.136 311.277 445.136H341.2C341.201 445.136 341.203 445.134 341.203 445.134C341.831 444.953 342.558 444.3 343.14 443.461C343.744 442.587 344.192 441.51 344.208 440.546L344.887 437.256L352.532 400.233C354.121 392.314 349.966 384.425 344.205 384.425H335.188C327.331 384.425 320.424 391.866 318.257 402.666L311.316 437.256L310.653 440.554H310.675L310.038 442.809C309.965 443.069 309.937 443.341 309.962 443.606Z" fill="#2A404F"/>
<path d="M319.588 382.668C319.416 385.955 320.026 388.601 320.617 391.037C323.378 387.423 326.925 385.088 330.781 384.546C328.913 379.309 332.531 372.638 329.747 367.756C327.241 363.363 316.625 360.252 316.625 367.165C316.635 369.063 319.486 371.073 320.043 373.284C320.862 376.542 319.754 379.501 319.588 382.668Z" fill="#19252E"/>
<path opacity="0.39" d="M300.969 418.956C301.924 417.035 302.879 415.115 303.834 413.194C304.535 411.064 305.371 408.055 305.679 404.963C305.729 404.464 305.784 403.898 305.713 403.874C305.51 403.808 304.476 408.201 303.599 412.089C302.722 414.378 301.846 416.666 300.969 418.956Z" fill="#FEEECD"/>
<path d="M253.249 438.75L253.672 441.123L254.376 445.08L254.651 446.627L255.72 452.63L260.253 478.076C260.407 478.938 261.081 479.533 261.835 479.533C261.941 479.533 262.048 479.521 262.154 479.498C263.029 479.302 263.597 478.347 263.422 477.367L258.715 450.944L257.947 446.627L256.966 441.123L256.543 438.75H253.249V438.75Z" fill="#2A404F"/>
<path opacity="0.32" d="M273.061 427.235C272.886 426.255 272.036 425.618 271.16 425.814C270.285 426.01 269.717 426.964 269.892 427.945L272.021 439.894L274.96 437.895L273.061 427.235Z" fill="#18A795"/>
<path d="M255.942 394.466C258.888 395.364 261.907 394.907 262.812 393.946C261.918 393.707 260.723 391.769 259.984 390.086C259.869 389.822 259.317 388.317 259.188 387.29C259.182 387.249 259.177 387.21 259.173 387.172C259.093 386.309 259.025 385.154 258.977 383.67C258.914 381.698 258.786 381.173 258.815 379.951C258.817 379.913 258.818 379.873 258.819 379.833C257.967 380.354 257.114 380.874 256.262 381.393C255.55 381.827 254.838 382.263 254.126 382.696C254.125 382.659 254.122 382.626 254.12 382.602C254.116 382.564 254.111 382.555 254.11 382.607C254.109 382.629 254.109 382.661 254.11 382.705C254.082 382.723 254.053 382.741 254.023 382.758C254.076 382.93 254.104 382.952 254.117 382.911C254.12 382.972 254.123 383.042 254.129 383.122C254.195 384.336 253.991 384.037 253.719 385.017C253.586 385.491 253.641 387.848 253.579 388.269C253.577 388.284 253.575 388.3 253.573 388.315C253.229 390.633 252.384 392.664 252.384 392.664C252.223 393.714 254.061 393.894 255.942 394.466Z" fill="#FFB8A4"/>
<path d="M243.842 410.797C243.889 410.246 244.586 409.632 245.194 409.271C246.33 408.598 247.542 408.582 247.792 408.579C249.32 408.56 250.347 409.286 250.587 410.156C250.633 410.324 250.943 411.449 250.009 412.053C248.422 413.08 243.712 412.298 243.842 410.797Z" fill="#FFB8A4"/>
<path d="M259.795 389.304C258.558 389.456 263.149 398.015 263.292 407.882C263.353 412.167 262.892 417.348 262.774 419.695C257.488 420.13 250.589 420.814 245.834 420.896C245.509 422.76 245.184 424.623 244.859 426.487C251.023 427.589 260.332 427.382 266.174 426.896C268.174 426.73 270.128 426.482 270.609 424.535C271.027 422.848 270.819 423.208 271.183 421.019C272.496 413.128 271.417 398.961 266.306 392.8C264.451 390.566 260.789 389.183 259.795 389.304Z" fill="#FDD13C"/>
<path d="M234.736 435.299C234.932 437.259 235.219 440.539 235.536 444.219C236.93 442.559 237.982 440.79 238.814 438.526C239.97 439.056 241.23 439.675 242.525 440.342C242.291 439.52 241.991 438.686 241.615 437.821C245.004 436.647 249.476 435.408 253.329 434.531C254.796 434.198 256.176 433.917 257.371 433.711C259.94 433.052 261.298 432.267 262.644 430.667C264.476 428.492 264.255 425.004 262.463 422.797C261.501 421.612 260.266 420.331 258.769 419.237C258.818 418.612 250.028 422.862 251.052 424.103C247.153 425.897 241.92 428.416 238.632 430.011C237.859 430.386 237.193 430.709 236.677 430.96C236.558 431.018 236.443 431.083 236.333 431.153C235.791 431.501 235.36 431.994 235.094 432.576C235.002 432.775 234.93 432.986 234.879 433.204C234.742 433.797 234.659 434.514 234.736 435.299Z" fill="#FDD13C"/>
<path d="M248.699 466.216L243.142 467.422C241.157 461.497 236.206 445.173 233.691 437.197C233.537 436.712 233.394 436.258 233.26 435.839C233.154 435.505 233.053 435.193 232.96 434.906C232.817 434.46 232.721 434.024 232.664 433.608C232.603 433.167 232.582 432.748 232.588 432.364C232.598 431.702 232.77 431.063 233.078 430.496C233.432 429.844 233.893 429.441 234.155 429.216C235.617 427.963 237.327 426.661 237.59 426.461C241.42 426.362 245.25 426.263 249.08 426.164C247.066 428.381 245.052 430.597 243.039 432.814C244.172 433.023 245.223 433.29 246.217 433.614C244.654 434.472 243.165 435.326 241.837 436.136C242.288 436.763 242.695 437.381 243.063 438C244.102 439.74 244.827 441.474 245.366 443.355C246.252 446.438 246.637 449.92 247.065 454.49C247.452 458.62 248.592 464.019 248.699 466.216Z" fill="#FFA344"/>
<path d="M255.318 437.331C253.112 438.626 251.227 438.978 247.994 438.693C246.548 438.445 244.868 438.21 243.062 437.999C240.103 437.653 236.811 437.37 233.69 437.197C233.22 437.171 232.755 437.147 232.296 437.127C234.927 441.532 235.583 446.005 236.404 453.13C236.88 457.251 239.03 465.746 239.183 467.939L234.407 470.132C232.996 466.2 229.56 456.199 226.556 447.444C224.578 441.675 222.786 436.446 221.885 433.853C221.568 432.94 221.464 432.065 221.458 431.321C221.455 430.926 221.511 430.537 221.62 430.164C221.823 429.465 222.213 428.827 222.75 428.321C222.751 428.319 222.754 428.318 222.755 428.316C222.951 428.111 223.17 427.928 223.405 427.769C223.812 427.493 224.269 427.291 224.755 427.175C224.99 427.119 225.172 427.097 225.249 427.088C232.213 426.284 235.696 425.882 238.627 426.017C240.223 426.09 242.408 426.274 245.002 426.758C244.938 425.093 245.484 424.259 245.813 423.877C246.578 422.99 248.534 422.914 252.387 422.517C254.215 422.328 255.613 422.325 255.504 422.571C256.785 424.441 257.687 426.422 258.314 428.181C259.48 431.457 258.316 435.569 255.318 437.331Z" fill="#FF7707"/>
<g opacity="0.31">
<path opacity="0.31" d="M235.975 437.57C243.142 437.614 253.183 438.482 259.45 439.557C259.862 439.594 260.255 439.621 260.632 439.639C259.677 439.695 258.626 439.664 257.414 439.557C251.721 438.581 242.915 437.774 235.977 437.602C235.976 437.591 235.976 437.58 235.975 437.57Z" fill="#2A404F"/>
</g>
<path d="M266.927 429.272C266.184 429.76 252.418 429.321 249.821 428.61C248.745 428.315 246.983 428.118 246.115 427.794C245.794 427.675 243.544 426.928 243.298 426.83C242.809 426.638 244.175 425.329 244.336 424.829C245.176 422.215 247.032 416.294 247.392 408.055C247.401 407.856 247.408 407.656 247.414 407.457C247.419 407.341 247.421 407.226 247.424 407.11C247.426 407.016 247.428 406.922 247.43 406.828V406.805C247.441 406.079 247.365 405.364 247.361 404.681C247.357 403.699 247.326 402.708 247.256 401.755C247.015 398.419 245.198 396.726 245.024 395.108C246.276 393.045 247.075 392.22 248.14 391.542C248.142 391.541 248.144 391.54 248.146 391.539C248.323 391.438 248.488 391.338 248.645 391.24C250.138 390.317 250.919 389.629 255.685 389.81C257.898 389.894 259.964 389.12 260.82 389.465C263.618 390.593 263.086 393.1 264.33 394.672C266.069 396.865 266.599 408.667 266.845 413.107C267.228 419.995 267.566 428.853 266.927 429.272Z" fill="#FDD13C"/>
<path d="M220.122 401.373C220.005 400.866 219.82 400.1 221.559 400.426C222.666 400.634 223.836 401.425 224.28 401.478C225.13 401.579 225.419 401.788 226.01 402.116C226.538 402.411 227.972 403.332 227.966 403.623C227.962 403.767 228.017 406.068 227.408 406.477C227.319 406.537 224.838 405.279 224.723 405.239C222.341 404.419 220.472 402.898 220.122 401.373Z" fill="#FFB8A4"/>
<path d="M225.244 405.714C225.049 405.946 225.086 406.292 225.325 406.479C228.694 409.111 233.825 411.759 237.363 413.363C238.625 413.936 241.884 413.784 245.162 409.894C245.957 408.95 246.724 407.919 247.43 406.828C250.111 402.688 251.919 397.697 251.12 393.391C250.753 391.418 251.384 389.767 250.344 390.329C249.678 390.689 249.129 390.966 248.645 391.24C248.471 391.339 248.306 391.437 248.146 391.539C248.145 391.54 248.143 391.541 248.14 391.542C247.075 392.22 246.276 393.045 245.025 395.109C244.57 395.859 244.055 396.772 243.446 397.903C242.248 400.124 239.988 405.029 238.994 406.567C238.732 406.973 237.87 406.853 237.429 406.653C234.36 405.266 230.674 403.372 228.322 402.66C228.081 402.588 227.8 402.727 227.639 402.921C226.929 403.769 225.97 404.85 225.244 405.714Z" fill="#FDD13C"/>
<path d="M254.56 387.381C256.178 387.884 259.655 387.033 261.032 386.549C261.448 386.402 261.751 386.279 261.887 386.212C261.888 386.211 262.166 385.591 262.166 385.591C265.165 384.08 266.489 380.307 266.46 376.329C266.412 369.517 262.667 365.849 258.056 365.884C254.956 365.907 252.842 367.149 251.594 370.021C251.309 370.678 251.068 371.423 250.871 372.256C250.827 372.446 250.784 372.64 250.744 372.839C250.714 372.989 250.684 373.141 250.657 373.296C250.538 373.959 250.443 374.673 250.372 375.436C249.902 380.404 249.962 385.953 254.56 387.381Z" fill="#FFB8A4"/>
<path d="M256.294 376.394C256.127 376.264 249.153 373.563 251.221 369.207C253.289 364.851 260.739 364.209 264.261 367.084C267.782 369.959 269.773 375.201 266.462 381.458C264.198 385.738 261.917 386.226 261.917 386.226C261.917 386.226 257.971 384.349 256.808 381.229C255.693 378.241 256.294 376.394 256.294 376.394Z" fill="#19252E"/>
<path d="M255.707 380.018C255.935 380.071 256.172 380.024 256.399 379.899C256.785 379.685 257.144 379.239 257.394 378.655C257.499 378.414 257.583 378.148 257.643 377.865C257.933 376.498 257.538 375.246 256.759 375.068C256.583 375.028 256.403 375.045 256.227 375.112C255.903 375.236 255.59 375.525 255.334 375.928C255.11 376.282 254.93 376.725 254.824 377.219C254.533 378.587 254.928 379.84 255.707 380.018Z" fill="#FFB8A4"/>
<path d="M290.181 486.102C289.426 486.102 288.751 485.506 288.598 484.645L279.935 436.006C279.76 435.025 280.328 434.072 281.203 433.876C282.079 433.68 282.929 434.316 283.104 435.297L291.767 483.935C291.942 484.916 291.374 485.87 290.499 486.066C290.392 486.09 290.286 486.102 290.181 486.102Z" fill="#2A404F"/>
<path d="M250.378 437.257L251.781 445.134L258.819 484.646C258.973 485.507 259.647 486.102 260.402 486.102C260.508 486.102 260.614 486.091 260.721 486.067C261.597 485.871 262.164 484.917 261.989 483.937L255.077 445.134L253.675 437.257H250.378Z" fill="#606E78"/>
<path d="M232.052 441.196C232.052 442.285 232.418 443.27 233.008 443.984C233.065 444.05 233.121 444.113 233.18 444.175C233.755 444.773 234.502 445.133 235.321 445.133H286.254C286.848 444.953 287.535 444.3 288.085 443.46C288.658 442.587 289.08 441.51 289.094 440.545L289.737 437.255H235.321C233.731 437.255 232.408 438.62 232.113 440.43C232.097 440.524 232.085 440.618 232.076 440.713C232.06 440.872 232.052 441.032 232.052 441.196Z" fill="#606E78"/>
<path d="M232.051 441.196C232.051 442.285 232.417 443.27 233.008 443.984C233.063 444.051 233.121 444.115 233.18 444.176C233.755 444.773 234.502 445.134 235.32 445.134H286.254C286.848 444.953 287.535 444.301 288.085 443.462C287.96 443.525 287.838 443.573 287.718 443.606H235.321C234.418 443.606 233.601 443.167 233.008 442.454C232.559 441.911 232.239 441.215 232.113 440.432C232.097 440.526 232.086 440.619 232.076 440.715C232.06 440.872 232.051 441.033 232.051 441.196Z" fill="#2A404F"/>
<path d="M252.85 440.556H252.83L260.432 402.667C262.599 391.867 269.506 384.425 277.362 384.425H286.38C292.141 384.425 296.297 392.315 294.708 400.233L286.383 440.546C286.353 442.438 284.656 444.767 283.375 445.136H253.453C252.983 445.136 252.567 444.805 252.322 444.302C252.099 443.847 252.072 443.307 252.211 442.813L252.85 440.556Z" fill="#AAB3B9"/>
<path d="M252.322 444.302C252.567 444.804 252.983 445.136 253.452 445.136H283.375C284.656 444.766 286.352 442.437 286.383 440.545L294.707 400.232C296.296 392.314 292.139 384.424 286.379 384.424H277.361C276.778 384.424 276.2 384.465 275.63 384.545C275.663 384.636 275.696 384.726 275.732 384.815C276.09 385.717 276.481 386.523 276.892 387.254H276.87C272.747 387.254 268.903 389.44 265.962 393.14C265.812 392.45 265.641 391.753 265.467 391.036C263.127 394.099 261.352 398.08 260.431 402.666L252.828 440.554H252.85L252.211 442.812C252.072 443.307 252.1 443.847 252.322 444.302Z" fill="#606E78"/>
<path d="M254.812 443.606C254.834 443.88 254.91 444.145 255.04 444.386C255.283 444.829 255.663 445.119 256.092 445.134C256.104 445.136 256.115 445.136 256.128 445.136H286.051C286.052 445.136 286.053 445.134 286.054 445.134C286.682 444.953 287.409 444.3 287.99 443.461C288.595 442.587 289.042 441.51 289.058 440.546L289.738 437.256L297.382 400.233C298.972 392.314 294.816 384.425 289.055 384.425H280.038C272.181 384.425 265.275 391.866 263.107 402.666L256.166 437.256L255.504 440.554H255.525L254.888 442.809C254.815 443.069 254.787 443.341 254.812 443.606Z" fill="#2A404F"/>
<path d="M250.839 400.21C249.539 403.795 248.22 406.544 247.392 408.055C247.401 407.856 247.408 407.656 247.414 407.457C247.481 407.33 247.554 407.196 247.63 407.055C247.604 407.105 247.553 407.132 247.501 407.132C247.476 407.132 247.453 407.127 247.43 407.114C247.428 407.113 247.426 407.112 247.424 407.11C247.357 407.07 247.333 406.984 247.371 406.914C247.373 406.91 247.393 406.873 247.43 406.805C247.783 406.146 249.647 402.631 250.561 400.11C250.589 400.033 250.674 399.994 250.75 400.021C250.827 400.05 250.866 400.134 250.839 400.21Z" fill="#FF7707"/>
</g>
<defs>
<filter id="filter0_d_3_45728" x="16.905" y="232.5" width="429.355" height="320.816" filterUnits="userSpaceOnUse" color-interpolation-filters="sRGB">
<feFlood flood-opacity="0" result="BackgroundImageFix"/>
<feColorMatrix in="SourceAlpha" type="matrix" values="0 0 0 0 0 0 0 0 0 0 0 0 0 0 0 0 0 0 127 0" result="hardAlpha"/>
<feOffset dx="24" dy="24"/>
<feGaussianBlur stdDeviation="40"/>
<feComposite in2="hardAlpha" operator="out"/>
<feColorMatrix type="matrix" values="0 0 0 0 0 0 0 0 0 0 0 0 0 0 0 0 0 0 0.08 0"/>
<feBlend mode="normal" in2="BackgroundImageFix" result="effect1_dropShadow_3_45728"/>
<feBlend mode="normal" in="SourceGraphic" in2="effect1_dropShadow_3_45728" result="shape"/>
</filter>
<filter id="filter1_d_3_45728" x="33.5371" y="259.132" width="348.09" height="239.551" filterUnits="userSpaceOnUse" color-interpolation-filters="sRGB">
<feFlood flood-opacity="0" result="BackgroundImageFix"/>
<feColorMatrix in="SourceAlpha" type="matrix" values="0 0 0 0 0 0 0 0 0 0 0 0 0 0 0 0 0 0 127 0" result="hardAlpha"/>
<feOffset dy="10"/>
<feGaussianBlur stdDeviation="25"/>
<feColorMatrix type="matrix" values="0 0 0 0 0 0 0 0 0 0 0 0 0 0 0 0 0 0 0.08 0"/>
<feBlend mode="normal" in2="BackgroundImageFix" result="effect1_dropShadow_3_45728"/>
<feBlend mode="normal" in="SourceGraphic" in2="effect1_dropShadow_3_45728" result="shape"/>
</filter>
<clipPath id="clip0_3_45728">
<rect width="375" height="444" fill="white"/>
</clipPath>
</defs>
</svg>
