<svg width="651" height="175" viewBox="0 0 651 175" fill="none" xmlns="http://www.w3.org/2000/svg">
<circle cx="641" cy="140" r="10" fill="#FDD13C"/>
<path d="M598 0C590.269 0 584 6.26771 584 14.0007C584 21.7323 590.267 28 598 28C605.731 28 612 21.7323 612 14.0007C612 6.26771 605.733 0 598 0ZM598 22.3181C593.407 22.3181 589.682 18.5942 589.682 13.9993C589.682 9.4058 593.405 5.68046 598 5.68046C602.593 5.68046 606.318 9.40439 606.318 13.9993C606.318 18.5942 602.595 22.3181 598 22.3181Z" fill="#18A795"/>
<circle opacity="0.4" cx="69" cy="70" r="22" stroke="#FDD13C" stroke-width="2"/>
<circle cx="8" cy="167" r="8" fill="#FC5B23"/>
</svg>
