<svg width="350" height="248" viewBox="0 0 350 248" fill="none" xmlns="http://www.w3.org/2000/svg">
<mask id="mask0_3_22387" style="mask-type:alpha" maskUnits="userSpaceOnUse" x="0" y="0" width="350" height="248">
<rect width="350" height="248" rx="8" fill="white"/>
</mask>
<g mask="url(#mask0_3_22387)">
<path opacity="0.2" d="M295.605 33.8726C263.756 16.7241 274.319 -30.6191 307.813 -32.0738C341.308 -33.5284 390.093 18.3095 384.382 40.3136C378.671 62.3177 319.623 46.8078 295.605 33.8726Z" fill="#FFB8A4"/>
<path opacity="0.2" d="M21.9705 224.932C0.840658 213.22 17.8452 173.137 -4.91448 154.087C-26.5811 135.949 -75.1845 144.488 -96.3425 171.186C-125.796 208.345 -96.9231 274.165 -63.0548 308.181C-25.7307 345.658 36.6908 363.609 85.433 340.943C91.4461 338.151 140.826 315.183 140.183 273.588C139.757 246.198 117.763 219.381 93.1101 213.339C61.6056 205.608 41.2627 235.628 21.9705 224.932Z" fill="#18A795"/>
</g>
</svg>
