<svg width="720" height="225" viewBox="0 0 720 225" fill="none" xmlns="http://www.w3.org/2000/svg">
<rect width="720" height="225" rx="8" fill="white"/>
<mask id="mask0_1310_62914" style="mask-type:alpha" maskUnits="userSpaceOnUse" x="0" y="0" width="720" height="225">
<rect width="720" height="225" rx="12" fill="white"/>
</mask>
<g mask="url(#mask0_1310_62914)">
<path opacity="0.2" d="M29.9708 204.391C8.8409 191.838 25.8454 148.882 3.08577 128.466C-18.5809 109.028 -67.1842 118.179 -88.3423 146.791C-117.795 186.614 -88.9229 257.153 -55.0546 293.608C-17.7304 333.771 44.691 353.009 93.4332 328.718C99.4464 325.726 148.826 301.111 148.184 256.535C147.757 227.181 125.764 198.442 101.11 191.966C69.6058 183.68 49.2629 215.853 29.9708 204.391Z" fill="#18A795"/>
<path opacity="0.2" d="M675.606 92.1455C643.757 73.7677 654.319 23.0304 687.814 21.4715C721.309 19.9126 770.094 75.4667 764.383 99.0483C758.672 122.63 699.623 106.008 675.606 92.1455Z" fill="#FFB8A4"/>
<path opacity="0.2" d="M21.9705 296.906C0.84066 284.354 17.8452 241.398 -4.91448 220.982C-26.5811 201.543 -75.1845 210.695 -96.3425 239.307C-125.796 279.13 -96.9231 349.669 -63.0549 386.123C-25.7307 426.287 36.6908 445.524 85.433 421.234C91.4461 418.242 140.826 393.627 140.183 349.05C139.757 319.697 117.763 290.957 93.1101 284.482C61.6056 276.196 41.2627 308.368 21.9705 296.906Z" fill="#18A795"/>
</g>
</svg>
