<svg width="616" height="168" viewBox="0 0 616 168" fill="none" xmlns="http://www.w3.org/2000/svg">
<path opacity="0.3" d="M602 140C594.269 140 588 146.268 588 154.001C588 161.732 594.267 168 602 168C609.731 168 616 161.732 616 154.001C616 146.268 609.733 140 602 140ZM602 162.318C597.407 162.318 593.682 158.594 593.682 153.999C593.682 149.406 597.405 145.68 602 145.68C606.593 145.68 610.318 149.404 610.318 153.999C610.318 158.594 606.595 162.318 602 162.318Z" fill="#07A47C"/>
<circle cx="10" cy="66" r="10" fill="#FDD13C"/>
<circle opacity="0.4" cx="80" cy="23" r="22" stroke="#FDD13C" stroke-width="2"/>
</svg>
