<svg width="1101" height="435" viewBox="0 0 1101 435" fill="none" xmlns="http://www.w3.org/2000/svg">
<path d="M1044.97 310.655C1032.08 304.206 1025.5 294.097 1025.5 285.977C1025.5 281.934 1027.12 278.37 1030.42 275.925C1033.73 273.472 1038.79 272.106 1045.71 272.6C1061.09 273.699 1075.98 282.864 1086.29 293.778C1091.44 299.231 1095.43 305.099 1097.75 310.578C1100.08 316.071 1100.72 321.1 1099.28 324.926C1098.57 326.834 1097.47 328.154 1096.09 329.014C1094.7 329.878 1092.98 330.3 1090.98 330.346C1086.96 330.437 1081.92 329.008 1076.49 326.789C1071.07 324.575 1065.3 321.598 1059.83 318.643C1058.08 317.701 1056.36 316.76 1054.7 315.847C1051.15 313.903 1047.84 312.087 1044.97 310.655Z" stroke="#FC981F"/>
<path opacity="0.3" d="M14 374C6.26879 374 0 380.268 0 388.001C0 395.732 6.26738 402 14 402C21.7312 402 28 395.732 28 388.001C28 380.268 21.7326 374 14 374ZM14 396.318C9.40672 396.318 5.68159 392.594 5.68159 387.999C5.68159 383.406 9.40531 379.68 14 379.68C18.5932 379.68 22.3184 383.404 22.3184 387.999C22.3184 392.594 18.5947 396.318 14 396.318Z" fill="#07A47C"/>
<path opacity="0.2" d="M336.211 0.872878L336.211 0.87289C343.855 3.12912 349.133 6.04296 352.383 9.19861C355.623 12.3453 356.836 15.7152 356.421 18.9446C356.004 22.1912 353.929 25.3992 350.382 28.172C346.837 30.9424 341.855 33.2507 335.712 34.6932L335.712 34.6932C327.753 36.5644 322.895 34.9995 320.238 31.8891C317.552 28.7453 316.967 23.8601 317.94 18.7847C318.91 13.7235 321.41 8.59247 324.725 5.05736C328.044 1.5183 332.092 -0.343117 336.211 0.872878Z" stroke="#FC5B23"/>
<path d="M1085.22 53.1639C1077.79 51.0122 1071.31 70.8144 1085 67.6583C1095.53 65.2335 1098.3 56.9461 1085.22 53.1639Z" fill="#FEEECD"/>
<path d="M931.666 424.191C932.968 416.562 912.563 412.349 917.239 425.599C920.832 435.793 929.378 437.605 931.666 424.191Z" fill="#FEEECD"/>
</svg>
