<svg width="24" height="24" viewBox="0 0 24 24" fill="none" xmlns="http://www.w3.org/2000/svg">
<path d="M7.85981 11.06C7.81295 11.0135 7.77575 10.9582 7.75037 10.8973C7.72498 10.8364 7.71191 10.771 7.71191 10.705C7.71191 10.639 7.72498 10.5736 7.75037 10.5127C7.77575 10.4518 7.81295 10.3965 7.85981 10.35L8.05981 10.15C8.10636 10.1017 8.16232 10.0634 8.22425 10.0376C8.28617 10.0118 8.35274 9.99903 8.41981 10H15.5798C15.6469 9.99903 15.7135 10.0118 15.7754 10.0376C15.8373 10.0634 15.8933 10.1017 15.9398 10.15L16.1398 10.35C16.1867 10.3965 16.2239 10.4518 16.2493 10.5127C16.2746 10.5736 16.2877 10.639 16.2877 10.705C16.2877 10.771 16.2746 10.8364 16.2493 10.8973C16.2239 10.9582 16.1867 11.0135 16.1398 11.06L12.3498 14.85C12.3049 14.8978 12.2507 14.936 12.1905 14.962C12.1303 14.9881 12.0654 15.0015 11.9998 15.0015C11.9342 15.0015 11.8693 14.9881 11.8091 14.962C11.7489 14.936 11.6947 14.8978 11.6498 14.85L7.85981 11.06Z" fill="#2A404F"/>
</svg>
