<svg width="24" height="24" viewBox="0 0 24 24" fill="none" xmlns="http://www.w3.org/2000/svg">
<path d="M12 2C10.0222 2 8.08879 2.58649 6.4443 3.6853C4.79981 4.78412 3.51809 6.3459 2.76121 8.17317C2.00433 10.0004 1.8063 12.0111 2.19215 13.9509C2.578 15.8907 3.53041 17.6725 4.92894 19.0711C6.32746 20.4696 8.10929 21.422 10.0491 21.8079C11.9889 22.1937 13.9996 21.9957 15.8268 21.2388C17.6541 20.4819 19.2159 19.2002 20.3147 17.5557C21.4135 15.9112 22 13.9778 22 12C22 10.6868 21.7413 9.38642 21.2388 8.17317C20.7363 6.95991 19.9997 5.85752 19.0711 4.92893C18.1425 4.00035 17.0401 3.26375 15.8268 2.7612C14.6136 2.25866 13.3132 2 12 2ZM16.35 9.73L10.73 15.35C10.6851 15.3978 10.6309 15.436 10.5707 15.462C10.5105 15.4881 10.4456 15.5015 10.38 15.5015C10.3144 15.5015 10.2495 15.4881 10.1893 15.462C10.1291 15.436 10.0749 15.3978 10.03 15.35L7.65 13C7.60314 12.9535 7.56594 12.8982 7.54056 12.8373C7.51517 12.7764 7.50211 12.711 7.50211 12.645C7.50211 12.579 7.51517 12.5136 7.54056 12.4527C7.56594 12.3918 7.60314 12.3365 7.65 12.29L8.18 11.76C8.22489 11.7122 8.27911 11.674 8.33931 11.648C8.39951 11.6219 8.46441 11.6085 8.53 11.6085C8.5956 11.6085 8.6605 11.6219 8.7207 11.648C8.7809 11.674 8.83511 11.7122 8.88 11.76L10.38 13.25L15.12 8.51C15.2135 8.41839 15.3391 8.36707 15.47 8.36707C15.6009 8.36707 15.7265 8.41839 15.82 8.51L16.35 9.04C16.4387 9.13299 16.4881 9.25653 16.4881 9.385C16.4881 9.51347 16.4387 9.63701 16.35 9.73Z" fill="#FF7707"/>
</svg>
