<svg width="273" height="255" viewBox="0 0 273 255" fill="none" xmlns="http://www.w3.org/2000/svg">
<path d="M268.17 122.846C268.359 123.047 268.675 123.057 268.876 122.867L272.152 119.782C272.353 119.593 272.363 119.276 272.173 119.075C271.984 118.874 271.668 118.865 271.467 119.054L268.555 121.796L265.812 118.884C265.623 118.683 265.307 118.674 265.106 118.863C264.905 119.053 264.895 119.369 265.084 119.57L268.17 122.846ZM199.028 1.61659C241.449 25.001 269.585 70.7442 268.034 122.488L269.033 122.518C270.597 70.3848 242.248 24.2992 199.511 0.740833L199.028 1.61659Z" fill="#AAB3B9"/>
<path d="M67.679 3.01174C67.7488 2.74458 67.5889 2.47137 67.3217 2.40151L62.9681 1.26308C62.701 1.19322 62.4278 1.35316 62.3579 1.62032C62.288 1.88748 62.448 2.16069 62.7151 2.23055L66.585 3.24249L65.5731 7.11237C65.5032 7.37953 65.6632 7.65274 65.9303 7.7226C66.1975 7.79246 66.4707 7.63252 66.5405 7.36536L67.679 3.01174ZM1.41938 114.494C2.84863 66.8282 29.1191 25.7553 67.4479 3.31674L66.9426 2.45375C28.3292 25.059 1.85983 66.4397 0.419824 114.464L1.41938 114.494ZM1.41521 122.489C1.33829 119.841 1.33896 117.176 1.41938 114.494L0.419824 114.464C0.338817 117.165 0.338139 119.851 0.415636 122.518L1.41521 122.489Z" fill="#AAB3B9"/>
<path d="M203.939 233.51C204.006 233.242 203.843 232.971 203.575 232.903L199.21 231.81C198.942 231.743 198.671 231.906 198.604 232.174C198.537 232.442 198.699 232.713 198.967 232.78L202.848 233.752L201.876 237.632C201.809 237.9 201.971 238.172 202.239 238.239C202.507 238.306 202.779 238.143 202.846 237.875L203.939 233.51ZM130.731 251.798C106.615 251.075 84.1891 243.994 65.0093 232.21L64.4858 233.062C83.8104 244.935 106.406 252.069 130.701 252.797L130.731 251.798ZM203.197 232.96C182.067 245.626 157.184 252.591 130.731 251.798L130.701 252.797C157.351 253.596 182.422 246.579 203.711 233.817L203.197 232.96Z" fill="#AAB3B9"/>
<path d="M189.61 35.3995C189.339 35.4541 189.164 35.7178 189.219 35.9885L190.109 40.3997C190.163 40.6704 190.427 40.8455 190.698 40.7909C190.968 40.7363 191.144 40.4726 191.089 40.2019L190.298 36.2809L194.219 35.4899C194.49 35.4353 194.665 35.1716 194.61 34.901C194.556 34.6303 194.292 34.4551 194.021 34.5097L189.61 35.3995ZM189.432 36.3061C216.103 54.0231 232.246 83.5707 233.394 114.924L234.393 114.887C233.234 83.2174 216.929 53.3711 189.986 35.4732L189.432 36.3061Z" fill="#AAB3B9"/>
<path d="M35.0176 116.729C35.013 117.005 35.2331 117.233 35.5092 117.237C35.7853 117.242 36.0129 117.022 36.0175 116.746L35.0176 116.729ZM78.7204 37.0044C78.7696 36.7326 78.5892 36.4725 78.3175 36.4233L73.8895 35.6212C73.6178 35.572 73.3576 35.7524 73.3084 36.0241C73.2592 36.2958 73.4396 36.556 73.7113 36.6052L77.6472 37.3181L76.9344 41.2541C76.8851 41.5258 77.0655 41.786 77.3372 41.8352C77.609 41.8844 77.8691 41.704 77.9183 41.4323L78.7204 37.0044ZM36.0175 116.746C36.5533 84.7308 52.7298 55.2019 78.5132 37.3262L77.9435 36.5043C51.8995 54.5606 35.5589 84.3871 35.0176 116.729L36.0175 116.746Z" fill="#AAB3B9"/>
<path d="M179.612 207.546C179.859 207.421 179.958 207.121 179.833 206.874C179.708 206.628 179.408 206.529 179.161 206.653L179.612 207.546ZM88.708 206.006C88.4446 206.089 88.2984 206.37 88.3814 206.633L89.7341 210.925C89.8171 211.188 90.0979 211.335 90.3613 211.252C90.6247 211.169 90.7709 210.888 90.6879 210.625L89.4855 206.81L93.3005 205.607C93.5639 205.524 93.7101 205.243 93.6271 204.98C93.5441 204.717 93.2633 204.57 92.9999 204.653L88.708 206.006ZM179.161 206.653C150.582 221.091 116.917 220.53 89.0892 206.039L88.6274 206.926C116.736 221.563 150.741 222.131 179.612 207.546L179.161 206.653Z" fill="#AAB3B9"/>
</svg>
