<svg width="20" height="20" viewBox="0 0 20 20" fill="none" xmlns="http://www.w3.org/2000/svg">
<path d="M10.0001 1.66699C8.35191 1.66699 6.74074 2.15573 5.37033 3.07141C3.99992 3.98709 2.93182 5.28858 2.30109 6.8113C1.67036 8.33401 1.50533 10.0096 1.82687 11.6261C2.14842 13.2426 2.94209 14.7274 4.10753 15.8929C5.27297 17.0583 6.75782 17.852 8.37433 18.1735C9.99084 18.4951 11.6664 18.3301 13.1891 17.6993C14.7118 17.0686 16.0133 16.0005 16.929 14.6301C17.8447 13.2597 18.3334 11.6485 18.3334 10.0003C18.3334 8.90598 18.1179 7.82234 17.6991 6.8113C17.2803 5.80025 16.6665 4.88159 15.8926 4.10777C15.1188 3.33395 14.2002 2.72012 13.1891 2.30133C12.1781 1.88254 11.0944 1.66699 10.0001 1.66699ZM12.5751 11.5503C12.6149 11.5877 12.6467 11.6329 12.6684 11.6831C12.6901 11.7332 12.7014 11.7873 12.7014 11.842C12.7014 11.8967 12.6901 11.9507 12.6684 12.0009C12.6467 12.0511 12.6149 12.0963 12.5751 12.1337L12.1334 12.5753C12.096 12.6152 12.0508 12.647 12.0007 12.6687C11.9505 12.6904 11.8964 12.7016 11.8418 12.7016C11.7871 12.7016 11.733 12.6904 11.6828 12.6687C11.6327 12.647 11.5875 12.6152 11.5501 12.5753L10.0001 11.0337L8.45009 12.5753C8.41268 12.6152 8.3675 12.647 8.31733 12.6687C8.26717 12.6904 8.21308 12.7016 8.15842 12.7016C8.10375 12.7016 8.04967 12.6904 7.99951 12.6687C7.94934 12.647 7.90416 12.6152 7.86675 12.5753L7.42508 12.1337C7.38523 12.0963 7.35346 12.0511 7.33174 12.0009C7.31002 11.9507 7.29882 11.8967 7.29882 11.842C7.29882 11.7873 7.31002 11.7332 7.33174 11.6831C7.35346 11.6329 7.38523 11.5877 7.42508 11.5503L8.96675 10.0003L7.42508 8.45033C7.38523 8.41292 7.35346 8.36774 7.33174 8.31757C7.31002 8.26741 7.29882 8.21332 7.29882 8.15866C7.29882 8.104 7.31002 8.04991 7.33174 7.99975C7.35346 7.94958 7.38523 7.9044 7.42508 7.86699L7.86675 7.42533C7.90416 7.38547 7.94934 7.3537 7.99951 7.33198C8.04967 7.31026 8.10375 7.29906 8.15842 7.29906C8.21308 7.29906 8.26717 7.31026 8.31733 7.33198C8.3675 7.3537 8.41268 7.38547 8.45009 7.42533L10.0001 8.96699L11.5501 7.42533C11.5875 7.38547 11.6327 7.3537 11.6828 7.33198C11.733 7.31026 11.7871 7.29906 11.8418 7.29906C11.8964 7.29906 11.9505 7.31026 12.0007 7.33198C12.0508 7.3537 12.096 7.38547 12.1334 7.42533L12.5751 7.86699C12.6149 7.9044 12.6467 7.94958 12.6684 7.99975C12.6901 8.04991 12.7014 8.104 12.7014 8.15866C12.7014 8.21332 12.6901 8.26741 12.6684 8.31757C12.6467 8.36774 12.6149 8.41292 12.5751 8.45033L11.0334 10.0003L12.5751 11.5503Z" fill="#AAB3B9"/>
</svg>
