<svg width="16" height="16" viewBox="0 0 16 16" fill="none" xmlns="http://www.w3.org/2000/svg">
<path d="M11.9001 10.9596C11.9313 10.9906 11.9561 11.0274 11.973 11.0681C11.99 11.1087 11.9987 11.1522 11.9987 11.1962C11.9987 11.2402 11.99 11.2838 11.973 11.3244C11.9561 11.3651 11.9313 11.4019 11.9001 11.4329L11.4334 11.8996C11.4024 11.9308 11.3655 11.9556 11.3249 11.9725C11.2843 11.9895 11.2407 11.9982 11.1967 11.9982C11.1527 11.9982 11.1092 11.9895 11.0685 11.9725C11.0279 11.9556 10.9911 11.9308 10.9601 11.8996L8.00006 8.93958L5.04006 11.8996C5.00908 11.9308 4.97221 11.9556 4.93159 11.9725C4.89097 11.9895 4.8474 11.9982 4.8034 11.9982C4.75939 11.9982 4.71583 11.9895 4.67521 11.9725C4.63459 11.9556 4.59772 11.9308 4.56673 11.8996L4.10006 11.4329C4.06882 11.4019 4.04402 11.3651 4.0271 11.3244C4.01018 11.2838 4.00146 11.2402 4.00146 11.1962C4.00146 11.1522 4.01018 11.1087 4.0271 11.0681C4.04402 11.0274 4.06882 10.9906 4.10006 10.9596L7.06006 7.99958L4.10006 5.03958C4.06882 5.00859 4.04402 4.97172 4.0271 4.9311C4.01018 4.89048 4.00146 4.84691 4.00146 4.80291C4.00146 4.75891 4.01018 4.71534 4.0271 4.67472C4.04402 4.6341 4.06882 4.59723 4.10006 4.56624L4.56673 4.09958C4.59772 4.06833 4.63459 4.04354 4.67521 4.02661C4.71583 4.00969 4.75939 4.00098 4.8034 4.00098C4.8474 4.00098 4.89097 4.00969 4.93159 4.02661C4.97221 4.04354 5.00908 4.06833 5.04006 4.09958L8.00006 7.05958L10.9601 4.09958C10.9911 4.06833 11.0279 4.04354 11.0685 4.02661C11.1092 4.00969 11.1527 4.00098 11.1967 4.00098C11.2407 4.00098 11.2843 4.00969 11.3249 4.02661C11.3655 4.04354 11.4024 4.06833 11.4334 4.09958L11.9001 4.56624C11.9313 4.59723 11.9561 4.6341 11.973 4.67472C11.99 4.71534 11.9987 4.75891 11.9987 4.80291C11.9987 4.84691 11.99 4.89048 11.973 4.9311C11.9561 4.97172 11.9313 5.00859 11.9001 5.03958L8.94006 7.99958L11.9001 10.9596Z" fill="#80909C"/>
</svg>
