<svg width="76" height="59" viewBox="0 0 76 59" fill="none" xmlns="http://www.w3.org/2000/svg">
<path d="M19.9736 38.6545C7.07592 32.2057 0.5 22.0975 0.5 13.9767C0.5 9.9336 2.12331 6.36987 5.42266 3.92535C8.73435 1.47169 13.7903 0.105883 20.7144 0.600462C36.0862 1.6988 50.9769 10.8637 61.2878 21.7776C66.4395 27.2306 70.4268 33.0987 72.7527 38.578C75.0845 44.0712 75.7167 49.0998 74.2818 52.9262C73.5664 54.8341 72.4733 56.1538 71.0892 57.0138C69.6985 57.8779 67.9774 58.3001 65.9761 58.3456C61.9583 58.4369 56.9249 57.0081 51.489 54.7888C46.0652 52.5745 40.2974 49.5978 34.8251 46.643C33.08 45.7008 31.3635 44.7599 29.6981 43.847C26.1519 41.9032 22.8376 40.0865 19.9736 38.6545Z" stroke="#FC981F"/>
</svg>
