<svg width="758" height="257" viewBox="0 0 758 257" fill="none" xmlns="http://www.w3.org/2000/svg">
<path d="M670.054 113.878C667.464 134.499 758.996 145.952 786.545 114.66C803.286 95.6424 670.054 113.878 670.054 113.878Z" fill="#FC981F"/>
<path d="M15.9106 30.7817C5.68874 25.6423 0.5 17.5983 0.5 11.1624C0.5 7.96137 1.77696 5.14631 4.36914 3.21506C6.97332 1.27487 10.9613 0.186134 16.4444 0.579963C28.6186 1.45467 40.4226 8.75614 48.6007 17.4607C52.6859 21.8089 55.8453 26.4856 57.6871 30.8485C59.5347 35.2253 60.0269 39.2128 58.9 42.2347C58.3385 43.7403 57.4836 44.7754 56.4057 45.4488C55.3212 46.1264 53.9741 46.4607 52.3977 46.4967C49.2292 46.5691 45.2483 45.4352 40.9338 43.6639C36.6315 41.8978 32.0546 39.5227 27.7089 37.1631C26.3246 36.4115 24.9621 35.6605 23.6398 34.9317C20.8223 33.3787 18.187 31.9262 15.9106 30.7817Z" stroke="#FC981F"/>
<path d="M669.271 242.684C662.992 237.653 657.782 231.207 654.683 223.749C651.837 216.895 650.198 207.229 654.154 200.427C657.144 195.286 663.808 192.647 669.311 191.307C675.24 189.864 681.829 191.129 687.545 192.94C701.92 197.512 712.777 208.816 720.62 221.3C725.214 228.614 731.091 237.676 726.726 246.421C723.621 252.643 716.6 256.467 709.758 256.139C703.03 255.811 696.262 254.219 689.834 252.298C682.571 250.125 675.234 247.278 669.179 242.621C668.742 242.281 668.311 243.029 668.742 243.368C674.642 247.911 681.789 250.74 688.856 252.908C695.308 254.886 702.047 256.455 708.792 256.944C715.123 257.404 721.16 255.018 725.306 250.084C731.004 243.305 729.348 235.111 725.461 227.912C717.842 213.813 707.279 200.231 692.168 193.757C680.582 188.794 665.648 187.691 655.787 197.04C649.87 202.646 650.33 212.812 652.429 220.023C655.126 229.258 661.198 237.336 668.65 243.305C669.093 243.638 669.702 243.029 669.271 242.684Z" fill="#FFE4DD"/>
<path d="M717.088 242.951C687.657 244.55 674.921 206.689 697.606 191.288C720.291 175.886 776.221 191.436 781.583 209.377C786.944 227.318 739.285 241.747 717.088 242.951Z" fill="#FFB8A4"/>
</svg>
