<svg width="343" height="107" viewBox="0 0 343 107" fill="none" xmlns="http://www.w3.org/2000/svg">
<path d="M303.216 26.4325C303.888 26.4325 304.432 25.888 304.432 25.2163C304.432 24.5445 303.888 24 303.216 24C302.545 24 302 24.5445 302 25.2163C302 25.888 302.545 26.4325 303.216 26.4325Z" fill="#FF7707"/>
<path d="M313.645 26.4325C314.316 26.4325 314.861 25.888 314.861 25.2163C314.861 24.5445 314.316 24 313.645 24C312.973 24 312.428 24.5445 312.428 25.2163C312.428 25.888 312.973 26.4325 313.645 26.4325Z" fill="#FF7707"/>
<path d="M324.073 26.4325C324.745 26.4325 325.289 25.888 325.289 25.2163C325.289 24.5445 324.745 24 324.073 24C323.401 24 322.857 24.5445 322.857 25.2163C322.857 25.888 323.401 26.4325 324.073 26.4325Z" fill="#FF7707"/>
<path d="M335.718 25.2163C335.718 25.8883 335.173 26.4325 334.501 26.4325C333.829 26.4325 333.285 25.8883 333.285 25.2163C333.285 24.5442 333.829 24 334.501 24C335.173 24 335.718 24.5442 335.718 25.2163Z" fill="#FF7707"/>
<path d="M303.216 36.8564C303.888 36.8564 304.432 36.3118 304.432 35.6401C304.432 34.9684 303.888 34.4238 303.216 34.4238C302.545 34.4238 302 34.9684 302 35.6401C302 36.3118 302.545 36.8564 303.216 36.8564Z" fill="#FF7707"/>
<path d="M313.645 36.8564C314.316 36.8564 314.861 36.3118 314.861 35.6401C314.861 34.9684 314.316 34.4238 313.645 34.4238C312.973 34.4238 312.428 34.9684 312.428 35.6401C312.428 36.3118 312.973 36.8564 313.645 36.8564Z" fill="#FF7707"/>
<path d="M324.073 36.8564C324.745 36.8564 325.289 36.3118 325.289 35.6401C325.289 34.9684 324.745 34.4238 324.073 34.4238C323.401 34.4238 322.857 34.9684 322.857 35.6401C322.857 36.3118 323.401 36.8564 324.073 36.8564Z" fill="#FF7707"/>
<path d="M335.718 35.6401C335.718 36.3121 335.173 36.8564 334.501 36.8564C333.829 36.8564 333.285 36.3121 333.285 35.6401C333.285 34.9681 333.829 34.4238 334.501 34.4238C335.173 34.4238 335.718 34.9704 335.718 35.6401Z" fill="#FF7707"/>
<path d="M303.216 47.2177C303.888 47.2177 304.432 46.6732 304.432 46.0014C304.432 45.3297 303.888 44.7852 303.216 44.7852C302.545 44.7852 302 45.3297 302 46.0014C302 46.6732 302.545 47.2177 303.216 47.2177Z" fill="#FF7707"/>
<path d="M313.645 47.2177C314.316 47.2177 314.861 46.6732 314.861 46.0014C314.861 45.3297 314.316 44.7852 313.645 44.7852C312.973 44.7852 312.428 45.3297 312.428 46.0014C312.428 46.6732 312.973 47.2177 313.645 47.2177Z" fill="#FF7707"/>
<path d="M324.073 47.2177C324.745 47.2177 325.289 46.6732 325.289 46.0014C325.289 45.3297 324.745 44.7852 324.073 44.7852C323.401 44.7852 322.857 45.3297 322.857 46.0014C322.857 46.6732 323.401 47.2177 324.073 47.2177Z" fill="#FF7707"/>
<path d="M335.718 46.0014C335.718 46.6735 335.173 47.2177 334.501 47.2177C333.829 47.2177 333.285 46.6735 333.285 46.0014C333.285 45.3294 333.829 44.7852 334.501 44.7852C335.173 44.7852 335.718 45.3294 335.718 46.0014Z" fill="#FF7707"/>
<path d="M303.216 57.6464C303.888 57.6464 304.432 57.1019 304.432 56.4301C304.432 55.7584 303.888 55.2139 303.216 55.2139C302.545 55.2139 302 55.7584 302 56.4301C302 57.1019 302.545 57.6464 303.216 57.6464Z" fill="#FF7707"/>
<path d="M313.645 57.6464C314.316 57.6464 314.861 57.1019 314.861 56.4301C314.861 55.7584 314.316 55.2139 313.645 55.2139C312.973 55.2139 312.428 55.7584 312.428 56.4301C312.428 57.1019 312.973 57.6464 313.645 57.6464Z" fill="#FF7707"/>
<path d="M324.073 57.6464C324.745 57.6464 325.289 57.1019 325.289 56.4301C325.289 55.7584 324.745 55.2139 324.073 55.2139C323.401 55.2139 322.857 55.7584 322.857 56.4301C322.857 57.1019 323.401 57.6464 324.073 57.6464Z" fill="#FF7707"/>
<path d="M335.718 56.4301C335.718 57.1022 335.173 57.6464 334.501 57.6464C333.829 57.6464 333.285 57.1022 333.285 56.4301C333.285 55.7581 333.829 55.2139 334.501 55.2139C335.173 55.2139 335.718 55.7581 335.718 56.4301Z" fill="#FF7707"/>
<path d="M303.216 68.0702C303.888 68.0702 304.432 67.5257 304.432 66.854C304.432 66.1822 303.888 65.6377 303.216 65.6377C302.545 65.6377 302 66.1822 302 66.854C302 67.5257 302.545 68.0702 303.216 68.0702Z" fill="#FF7707"/>
<path d="M313.645 68.0702C314.316 68.0702 314.861 67.5257 314.861 66.854C314.861 66.1822 314.316 65.6377 313.645 65.6377C312.973 65.6377 312.428 66.1822 312.428 66.854C312.428 67.5257 312.973 68.0702 313.645 68.0702Z" fill="#FF7707"/>
<path d="M324.073 68.0702C324.745 68.0702 325.289 67.5257 325.289 66.854C325.289 66.1822 324.745 65.6377 324.073 65.6377C323.401 65.6377 322.857 66.1822 322.857 66.854C322.857 67.5257 323.401 68.0702 324.073 68.0702Z" fill="#FF7707"/>
<path d="M335.718 66.854C335.718 67.526 335.173 68.0702 334.501 68.0702C333.829 68.0702 333.285 67.526 333.285 66.854C333.285 66.1819 333.829 65.6377 334.501 65.6377C335.173 65.6377 335.718 66.1819 335.718 66.854Z" fill="#FF7707"/>
<path d="M303.216 78.4316C303.888 78.4316 304.432 77.887 304.432 77.2153C304.432 76.5436 303.888 75.999 303.216 75.999C302.545 75.999 302 76.5436 302 77.2153C302 77.887 302.545 78.4316 303.216 78.4316Z" fill="#FF7707"/>
<path d="M313.645 78.4316C314.316 78.4316 314.861 77.887 314.861 77.2153C314.861 76.5436 314.316 75.999 313.645 75.999C312.973 75.999 312.428 76.5436 312.428 77.2153C312.428 77.887 312.973 78.4316 313.645 78.4316Z" fill="#FF7707"/>
<path d="M324.073 78.4316C324.745 78.4316 325.289 77.887 325.289 77.2153C325.289 76.5436 324.745 75.999 324.073 75.999C323.401 75.999 322.857 76.5436 322.857 77.2153C322.857 77.887 323.401 78.4316 324.073 78.4316Z" fill="#FF7707"/>
<path d="M335.718 77.2153C335.718 77.8873 335.173 78.4316 334.501 78.4316C333.829 78.4316 333.285 77.8873 333.285 77.2153C333.285 76.5433 333.829 75.999 334.501 75.999C335.173 75.999 335.718 76.5433 335.718 77.2153Z" fill="#FF7707"/>
<path d="M303.216 88.9238C303.888 88.9238 304.432 88.3792 304.432 87.7075C304.432 87.0358 303.888 86.4912 303.216 86.4912C302.545 86.4912 302 87.0358 302 87.7075C302 88.3792 302.545 88.9238 303.216 88.9238Z" fill="#FF7707"/>
<path d="M313.645 88.9238C314.316 88.9238 314.861 88.3792 314.861 87.7075C314.861 87.0358 314.316 86.4912 313.645 86.4912C312.973 86.4912 312.428 87.0358 312.428 87.7075C312.428 88.3792 312.973 88.9238 313.645 88.9238Z" fill="#FF7707"/>
<path d="M324.073 88.9238C324.745 88.9238 325.289 88.3792 325.289 87.7075C325.289 87.0358 324.745 86.4912 324.073 86.4912C323.401 86.4912 322.857 87.0358 322.857 87.7075C322.857 88.3792 323.401 88.9238 324.073 88.9238Z" fill="#FF7707"/>
<path d="M335.718 87.7075C335.718 88.3795 335.173 88.9238 334.501 88.9238C333.829 88.9238 333.285 88.3795 333.285 87.7075C333.285 87.0355 333.829 86.4912 334.501 86.4912C335.173 86.4912 335.718 87.0355 335.718 87.7075Z" fill="#FF7707"/>
<circle cx="6" cy="30" r="6" fill="#FDD13C"/>
<path opacity="0.3" d="M216 0C208.269 0 202 6.26771 202 14.0007C202 21.7323 208.267 28 216 28C223.731 28 230 21.7323 230 14.0007C230 6.26771 223.733 0 216 0ZM216 22.3181C211.407 22.3181 207.682 18.5942 207.682 13.9993C207.682 9.4058 211.405 5.68046 216 5.68046C220.593 5.68046 224.318 9.40439 224.318 13.9993C224.318 18.5942 220.595 22.3181 216 22.3181Z" fill="#07A47C"/>
<path d="M8.66236 72.3531C9.319 72.4455 9.96934 72.6073 10.5902 72.8405C10.8361 72.933 11.0977 73.0507 11.2595 73.1316C11.5442 73.2755 11.7218 73.3711 12.0327 73.5739C13.1338 74.2904 14.0982 75.2874 14.8568 76.378C16.6355 78.9331 17.1933 82.2204 16.5756 85.2493C15.9893 88.1196 14.3756 90.8239 11.7627 92.2601C10.6049 92.8957 9.26753 93.3149 7.9364 93.2109C7.69476 93.192 7.45101 93.1542 7.22092 93.0859C7.06018 93.0386 7.16209 93.0764 7.00975 93.0018C7.04337 93.0176 7.07805 93.0281 7.10957 93.048C7.23039 93.1247 6.94882 92.922 7.05073 93.006C6.64939 92.6719 6.30164 92.2706 6.04949 91.7989C4.83078 89.5264 5.34663 86.6172 6.56009 84.4551C7.93429 82.0071 10.3812 80.2369 12.9741 79.2661C15.6489 78.2638 18.6337 78.0211 21.42 78.6799C22.0482 78.828 22.6712 79.0203 23.268 79.264C23.8574 79.5046 24.41 79.7725 24.9059 80.0635C26.1067 80.7695 27.1952 81.6373 28.1912 82.6112C32.9746 87.2896 34.9382 94.0965 35.1693 100.629C35.2009 101.526 35.1988 102.423 35.1704 103.32C35.1578 103.733 35.8753 104.067 36.1811 104.224C36.2683 104.27 37.4954 104.8 37.5038 104.524C37.737 97.115 36.0382 89.3551 30.8261 83.8153C26.1551 78.8501 19.0014 75.6825 12.1872 77.5021C9.21079 78.2974 6.32266 80.0646 4.5881 82.6596C3.06681 84.9352 2.37235 88.2793 3.71503 90.7976C5.23947 93.6553 9.0532 95.1577 12.1357 94.3161C15.2781 93.4588 17.5569 90.8376 18.5486 87.8139C19.6087 84.5833 19.3051 80.9019 17.5695 77.9612C15.7645 74.9019 12.6642 72.6819 9.3148 71.583C8.49322 71.313 7.65903 71.127 6.80383 71.0072C6.2302 70.9263 6.88998 71.5493 7.0087 71.6365C7.48883 71.9885 8.06982 72.2701 8.66236 72.3531Z" fill="#18A795"/>
<path d="M31.1919 99.9998C32.646 101.767 34.1 103.533 35.5541 105.3C35.7495 105.538 37.648 106.638 37.8402 106.188C39.2081 102.974 40.576 99.7602 41.9439 96.5475C42.1236 96.1251 39.7261 95.0535 39.559 95.4464C38.1911 98.6602 36.8232 101.874 35.4553 105.087C36.217 105.383 36.9787 105.678 37.7415 105.975C36.2874 104.207 34.8334 102.441 33.3793 100.674C33.0232 100.241 32.314 99.9798 31.7939 99.8222C31.5933 99.7613 30.8473 99.5816 31.1919 99.9998Z" fill="#18A795"/>
</svg>
