<svg width="737" height="461" viewBox="0 0 737 461" fill="none" xmlns="http://www.w3.org/2000/svg">
<path d="M36.0909 261.266C33.256 262.838 12.565 274.699 8.6217 296.039C3.73294 322.519 30.6499 331.098 39.937 374.177C45.8072 401.399 37.44 409.009 47.4121 423.947C58.7566 440.945 83.5535 452.005 106.074 446.543C138.463 438.682 149.033 400.796 149.95 397.299C160.497 357.143 126.058 360.059 138.022 320.247C145.537 295.232 171.709 287.671 161.559 259.83C152.64 235.372 120.349 270.271 95.1588 262.279C64.4229 252.533 50.6972 253.168 36.0909 261.266Z" fill="#18A795"/>
<path d="M631.606 204.375C599.757 187.226 610.319 139.883 643.814 138.428C677.309 136.974 726.094 188.811 720.383 210.816C714.672 232.82 655.623 217.31 631.606 204.375Z" fill="#FFB8A4"/>
<path d="M414.51 17.9865C415.64 18.3865 416.76 18.7865 417.89 19.1865C418.8 19.5065 419.19 18.0565 418.29 17.7365C417.16 17.3365 416.04 16.9365 414.91 16.5365C414 16.2165 413.61 17.6665 414.51 17.9865Z" fill="#FC981F"/>
<path d="M500.53 1.47671C502.04 1.85671 503.55 2.23671 505.07 2.61671C506.01 2.85671 506.41 1.40671 505.47 1.16671C503.96 0.786708 502.45 0.406709 500.93 0.0267088C499.99 -0.213291 499.59 1.23671 500.53 1.47671Z" fill="#FC981F"/>
<path d="M565.45 38.6266C567.34 39.0266 569.22 39.4166 571.11 39.8166C572.05 40.0166 572.45 38.5666 571.51 38.3666C569.62 37.9666 567.74 37.5766 565.85 37.1766C564.9 36.9766 564.5 38.4266 565.45 38.6266Z" fill="#FC981F"/>
<circle cx="720" cy="366" r="10" fill="#FDD13C"/>
<path d="M626 39C618.269 39 612 45.2677 612 53.0007C612 60.7323 618.267 67 626 67C633.731 67 640 60.7323 640 53.0007C640 45.2677 633.733 39 626 39ZM626 61.3181C621.407 61.3181 617.682 57.5942 617.682 52.9993C617.682 48.4058 621.405 44.6805 626 44.6805C630.593 44.6805 634.318 48.4044 634.318 52.9993C634.318 57.5942 630.595 61.3181 626 61.3181Z" fill="#18A795"/>
<circle opacity="0.4" cx="56" cy="109" r="22" stroke="#FDD13C" stroke-width="2"/>
<circle cx="36" cy="206" r="8" fill="#FC5B23"/>
<path d="M700.233 301.861C699.053 303.811 697.863 305.761 696.683 307.721C696.183 308.551 697.473 309.301 697.983 308.481C699.163 306.531 700.353 304.581 701.533 302.621C702.033 301.791 700.733 301.031 700.233 301.861Z" fill="#FC5B23"/>
<path d="M700.183 317.761C698.853 319.401 697.523 321.031 696.193 322.671C695.593 323.411 696.643 324.481 697.253 323.731C698.583 322.091 699.913 320.461 701.243 318.821C701.843 318.071 700.793 317.011 700.183 317.761Z" fill="#FC5B23"/>
<path d="M696.333 333.171C694.953 334.761 693.573 336.361 692.193 337.951C691.563 338.681 692.623 339.741 693.253 339.011C694.633 337.421 696.013 335.821 697.393 334.231C698.023 333.511 696.963 332.441 696.333 333.171Z" fill="#FC5B23"/>
</svg>
