<svg width="980" height="499" viewBox="0 0 980 499" fill="none" xmlns="http://www.w3.org/2000/svg">
<path d="M52.0909 299.768C49.256 301.34 28.565 313.201 24.6217 334.541C19.7329 361.021 46.6499 369.6 55.937 412.679C61.8072 439.901 53.44 447.511 63.4121 462.449C74.7566 479.447 99.5535 490.507 122.074 485.045C154.463 477.184 165.033 439.298 165.95 435.801C176.497 395.645 142.058 398.56 154.022 358.749C161.537 333.734 187.709 326.173 177.559 298.332C168.64 273.874 136.349 308.773 111.159 300.781C80.4229 291.035 66.6972 291.67 52.0909 299.768Z" fill="#18A795"/>
<path d="M42.9255 142.243C44.0745 141.902 45.2155 141.566 46.3645 141.225C47.2886 140.948 46.7507 139.546 45.8347 139.817C44.6856 140.158 43.5447 140.494 42.3957 140.835C41.4716 141.112 42.0095 142.514 42.9255 142.243Z" fill="#FC981F"/>
<path d="M102.762 78.277C104.207 77.6957 105.651 77.1144 107.104 76.5273C108.005 76.1682 107.475 74.7604 106.574 75.1195C105.13 75.7008 103.685 76.2821 102.232 76.8693C101.331 77.2283 101.861 78.6361 102.762 78.277Z" fill="#FC981F"/>
<path d="M177.113 70.1131C178.877 69.3244 180.626 68.5335 182.39 67.7448C183.267 67.3533 182.738 65.9456 181.86 66.337C180.096 67.1257 178.347 67.9167 176.583 68.7054C175.697 69.1027 176.227 70.5104 177.113 70.1131Z" fill="#FC981F"/>
<path d="M193.208 135.21C208.178 151.27 238.088 142.17 249.688 126.44C262.218 109.45 253.858 84.6305 234.258 77.5505C233.348 77.2205 232.958 78.6704 233.858 79.0004C252.848 85.8704 260.428 110.06 248.008 126.15C236.758 140.73 208.428 149.34 194.268 134.15C193.608 133.44 192.548 134.5 193.208 135.21Z" fill="#FFE4DD"/>
<path d="M831.605 151.375C799.756 134.226 810.319 86.8828 843.813 85.4282C877.308 83.9736 926.093 135.811 920.382 157.816C914.671 179.82 855.623 164.31 831.605 151.375Z" fill="#FFB8A4"/>
<path d="M966 9C958.269 9 952 15.2677 952 23.0007C952 30.7323 958.267 37 966 37C973.731 37 980 30.7323 980 23.0007C980 15.2677 973.733 9 966 9ZM966 31.3181C961.407 31.3181 957.682 27.5942 957.682 22.9993C957.682 18.4058 961.405 14.6805 966 14.6805C970.593 14.6805 974.318 18.4044 974.318 22.9993C974.318 27.5942 970.595 31.3181 966 31.3181Z" fill="#18A795"/>
<circle cx="8" cy="151" r="8" fill="#FC5B23"/>
<circle cx="916" cy="153" r="10" fill="#FDD13C"/>
<circle opacity="0.4" cx="31" cy="23" r="22" stroke="#FDD13C" stroke-width="2"/>
<path d="M914.233 248.861C913.053 250.811 911.863 252.761 910.683 254.721C910.183 255.551 911.473 256.301 911.983 255.481C913.163 253.531 914.353 251.581 915.533 249.621C916.033 248.791 914.733 248.031 914.233 248.861Z" fill="#FC5B23"/>
<path d="M914.183 264.76C912.853 266.4 911.523 268.03 910.193 269.67C909.593 270.41 910.643 271.48 911.253 270.73C912.583 269.09 913.913 267.46 915.243 265.82C915.843 265.07 914.793 264.01 914.183 264.76Z" fill="#FC5B23"/>
<path d="M910.333 280.171C908.953 281.761 907.573 283.361 906.193 284.951C905.563 285.681 906.623 286.741 907.253 286.011C908.633 284.421 910.013 282.821 911.393 281.231C912.023 280.511 910.963 279.441 910.333 280.171Z" fill="#FC5B23"/>
</svg>
