<svg width="366" height="271" viewBox="0 0 366 271" fill="none" xmlns="http://www.w3.org/2000/svg">
<path d="M335.211 227.873L335.211 227.873C342.855 230.129 348.133 233.043 351.383 236.199C354.623 239.345 355.836 242.715 355.421 245.945C355.004 249.191 352.929 252.399 349.382 255.172C345.837 257.942 340.855 260.251 334.712 261.693L334.712 261.693C326.753 263.564 321.895 261.999 319.238 258.889C316.552 255.745 315.967 250.86 316.94 245.785C317.91 240.724 320.41 235.592 323.725 232.057C327.044 228.518 331.092 226.657 335.211 227.873Z" stroke="#FC5B23"/>
<path d="M300.236 173.527C280.394 162.844 286.974 133.349 307.841 132.443C328.709 131.536 359.102 163.831 355.544 177.54C351.986 191.249 315.198 181.586 300.236 173.527Z" fill="#FFE9D6"/>
<path d="M16.4493 241.328C1.58124 237.024 -11.3809 276.629 16.0024 270.317C37.069 265.467 42.5929 248.892 16.4493 241.328Z" fill="#FFD99B"/>
<path d="M0.5 7.83745C0.5 12.2818 4.08141 17.8872 11.2053 21.4799C12.8014 22.2848 14.6504 23.307 16.6242 24.3982C17.5492 24.9096 18.5017 25.4362 19.4684 25.9627C22.5096 27.6189 25.7075 29.2833 28.7111 30.5201C31.727 31.762 34.4896 32.5478 36.6749 32.4977C37.7597 32.4729 38.674 32.2424 39.4039 31.7849C40.1274 31.3316 40.7063 30.6327 41.0893 29.6026C41.8592 27.5318 41.5294 24.7747 40.2426 21.717C38.9615 18.6732 36.7609 15.404 33.9107 12.3611C28.2023 6.2668 19.9725 1.16633 11.5002 0.555754L0.5 7.83745ZM0.5 7.83745C0.5 5.63197 1.37537 3.70151 3.1486 2.37638M0.5 7.83745L3.1486 2.37638M3.1486 2.37638C4.93365 1.04243 7.6853 0.280913 11.5002 0.555753L3.1486 2.37638Z" stroke="#FC981F"/>
</svg>
