<svg width="1122" height="141" viewBox="0 0 1122 141" fill="none" xmlns="http://www.w3.org/2000/svg">
<circle cx="913" cy="76" r="10" fill="#FDD13C"/>
<path d="M1058.22 75.4325C1058.89 75.4325 1059.43 74.888 1059.43 74.2163C1059.43 73.5445 1058.89 73 1058.22 73C1057.54 73 1057 73.5445 1057 74.2163C1057 74.888 1057.54 75.4325 1058.22 75.4325Z" fill="#FF7707"/>
<path d="M1068.64 75.4325C1069.32 75.4325 1069.86 74.888 1069.86 74.2163C1069.86 73.5445 1069.32 73 1068.64 73C1067.97 73 1067.43 73.5445 1067.43 74.2163C1067.43 74.888 1067.97 75.4325 1068.64 75.4325Z" fill="#FF7707"/>
<path d="M1079.07 75.4325C1079.75 75.4325 1080.29 74.888 1080.29 74.2163C1080.29 73.5445 1079.75 73 1079.07 73C1078.4 73 1077.86 73.5445 1077.86 74.2163C1077.86 74.888 1078.4 75.4325 1079.07 75.4325Z" fill="#FF7707"/>
<path d="M1090.72 74.2163C1090.72 74.8883 1090.17 75.4325 1089.5 75.4325C1088.83 75.4325 1088.29 74.8883 1088.29 74.2163C1088.29 73.5442 1088.83 73 1089.5 73C1090.17 73 1090.72 73.5442 1090.72 74.2163Z" fill="#FF7707"/>
<path d="M1099.93 75.4325C1100.6 75.4325 1101.15 74.888 1101.15 74.2163C1101.15 73.5445 1100.6 73 1099.93 73C1099.26 73 1098.71 73.5445 1098.71 74.2163C1098.71 74.888 1099.26 75.4325 1099.93 75.4325Z" fill="#FF7707"/>
<path d="M1110.36 75.4325C1111.03 75.4325 1111.57 74.888 1111.57 74.2163C1111.57 73.5445 1111.03 73 1110.36 73C1109.69 73 1109.14 73.5445 1109.14 74.2163C1109.14 74.888 1109.69 75.4325 1110.36 75.4325Z" fill="#FF7707"/>
<path d="M1120.78 75.4325C1121.46 75.4325 1122 74.888 1122 74.2163C1122 73.5445 1121.46 73 1120.78 73C1120.11 73 1119.57 73.5445 1119.57 74.2163C1119.57 74.888 1120.11 75.4325 1120.78 75.4325Z" fill="#FF7707"/>
<path d="M1058.22 85.8564C1058.89 85.8564 1059.43 85.3118 1059.43 84.6401C1059.43 83.9684 1058.89 83.4238 1058.22 83.4238C1057.54 83.4238 1057 83.9684 1057 84.6401C1057 85.3118 1057.54 85.8564 1058.22 85.8564Z" fill="#FF7707"/>
<path d="M1068.64 85.8564C1069.32 85.8564 1069.86 85.3118 1069.86 84.6401C1069.86 83.9684 1069.32 83.4238 1068.64 83.4238C1067.97 83.4238 1067.43 83.9684 1067.43 84.6401C1067.43 85.3118 1067.97 85.8564 1068.64 85.8564Z" fill="#FF7707"/>
<path d="M1079.07 85.8564C1079.75 85.8564 1080.29 85.3118 1080.29 84.6401C1080.29 83.9684 1079.75 83.4238 1079.07 83.4238C1078.4 83.4238 1077.86 83.9684 1077.86 84.6401C1077.86 85.3118 1078.4 85.8564 1079.07 85.8564Z" fill="#FF7707"/>
<path d="M1090.72 84.6401C1090.72 85.3121 1090.17 85.8564 1089.5 85.8564C1088.83 85.8564 1088.29 85.3121 1088.29 84.6401C1088.29 83.9681 1088.83 83.4238 1089.5 83.4238C1090.17 83.4238 1090.72 83.9704 1090.72 84.6401Z" fill="#FF7707"/>
<path d="M1099.93 85.8564C1100.6 85.8564 1101.15 85.3118 1101.15 84.6401C1101.15 83.9684 1100.6 83.4238 1099.93 83.4238C1099.26 83.4238 1098.71 83.9684 1098.71 84.6401C1098.71 85.3118 1099.26 85.8564 1099.93 85.8564Z" fill="#FF7707"/>
<path d="M1110.36 85.8564C1111.03 85.8564 1111.57 85.3118 1111.57 84.6401C1111.57 83.9684 1111.03 83.4238 1110.36 83.4238C1109.69 83.4238 1109.14 83.9684 1109.14 84.6401C1109.14 85.3118 1109.69 85.8564 1110.36 85.8564Z" fill="#FF7707"/>
<path d="M1120.78 85.8564C1121.46 85.8564 1122 85.3118 1122 84.6401C1122 83.9684 1121.46 83.4238 1120.78 83.4238C1120.11 83.4238 1119.57 83.9684 1119.57 84.6401C1119.57 85.3118 1120.11 85.8564 1120.78 85.8564Z" fill="#FF7707"/>
<path d="M1058.22 96.2177C1058.89 96.2177 1059.43 95.6732 1059.43 95.0014C1059.43 94.3297 1058.89 93.7852 1058.22 93.7852C1057.54 93.7852 1057 94.3297 1057 95.0014C1057 95.6732 1057.54 96.2177 1058.22 96.2177Z" fill="#FF7707"/>
<path d="M1068.64 96.2177C1069.32 96.2177 1069.86 95.6732 1069.86 95.0014C1069.86 94.3297 1069.32 93.7852 1068.64 93.7852C1067.97 93.7852 1067.43 94.3297 1067.43 95.0014C1067.43 95.6732 1067.97 96.2177 1068.64 96.2177Z" fill="#FF7707"/>
<path d="M1079.07 96.2177C1079.75 96.2177 1080.29 95.6732 1080.29 95.0014C1080.29 94.3297 1079.75 93.7852 1079.07 93.7852C1078.4 93.7852 1077.86 94.3297 1077.86 95.0014C1077.86 95.6732 1078.4 96.2177 1079.07 96.2177Z" fill="#FF7707"/>
<path d="M1090.72 95.0014C1090.72 95.6735 1090.17 96.2177 1089.5 96.2177C1088.83 96.2177 1088.29 95.6735 1088.29 95.0014C1088.29 94.3294 1088.83 93.7852 1089.5 93.7852C1090.17 93.7852 1090.72 94.3294 1090.72 95.0014Z" fill="#FF7707"/>
<path d="M1099.93 96.2177C1100.6 96.2177 1101.15 95.6732 1101.15 95.0014C1101.15 94.3297 1100.6 93.7852 1099.93 93.7852C1099.26 93.7852 1098.71 94.3297 1098.71 95.0014C1098.71 95.6732 1099.26 96.2177 1099.93 96.2177Z" fill="#FF7707"/>
<path d="M1110.36 96.2177C1111.03 96.2177 1111.57 95.6732 1111.57 95.0014C1111.57 94.3297 1111.03 93.7852 1110.36 93.7852C1109.69 93.7852 1109.14 94.3297 1109.14 95.0014C1109.14 95.6732 1109.69 96.2177 1110.36 96.2177Z" fill="#FF7707"/>
<path d="M1120.78 96.2177C1121.46 96.2177 1122 95.6732 1122 95.0014C1122 94.3297 1121.46 93.7852 1120.78 93.7852C1120.11 93.7852 1119.57 94.3297 1119.57 95.0014C1119.57 95.6732 1120.11 96.2177 1120.78 96.2177Z" fill="#FF7707"/>
<path d="M1058.22 106.646C1058.89 106.646 1059.43 106.102 1059.43 105.43C1059.43 104.758 1058.89 104.214 1058.22 104.214C1057.54 104.214 1057 104.758 1057 105.43C1057 106.102 1057.54 106.646 1058.22 106.646Z" fill="#FF7707"/>
<path d="M1068.64 106.646C1069.32 106.646 1069.86 106.102 1069.86 105.43C1069.86 104.758 1069.32 104.214 1068.64 104.214C1067.97 104.214 1067.43 104.758 1067.43 105.43C1067.43 106.102 1067.97 106.646 1068.64 106.646Z" fill="#FF7707"/>
<path d="M1079.07 106.646C1079.75 106.646 1080.29 106.102 1080.29 105.43C1080.29 104.758 1079.75 104.214 1079.07 104.214C1078.4 104.214 1077.86 104.758 1077.86 105.43C1077.86 106.102 1078.4 106.646 1079.07 106.646Z" fill="#FF7707"/>
<path d="M1090.72 105.43C1090.72 106.102 1090.17 106.646 1089.5 106.646C1088.83 106.646 1088.29 106.102 1088.29 105.43C1088.29 104.758 1088.83 104.214 1089.5 104.214C1090.17 104.214 1090.72 104.758 1090.72 105.43Z" fill="#FF7707"/>
<path d="M1099.93 106.646C1100.6 106.646 1101.15 106.102 1101.15 105.43C1101.15 104.758 1100.6 104.214 1099.93 104.214C1099.26 104.214 1098.71 104.758 1098.71 105.43C1098.71 106.102 1099.26 106.646 1099.93 106.646Z" fill="#FF7707"/>
<path d="M1110.36 106.646C1111.03 106.646 1111.57 106.102 1111.57 105.43C1111.57 104.758 1111.03 104.214 1110.36 104.214C1109.69 104.214 1109.14 104.758 1109.14 105.43C1109.14 106.102 1109.69 106.646 1110.36 106.646Z" fill="#FF7707"/>
<path d="M1120.78 106.646C1121.46 106.646 1122 106.102 1122 105.43C1122 104.758 1121.46 104.214 1120.78 104.214C1120.11 104.214 1119.57 104.758 1119.57 105.43C1119.57 106.102 1120.11 106.646 1120.78 106.646Z" fill="#FF7707"/>
<path d="M1058.22 117.069C1058.89 117.069 1059.43 116.525 1059.43 115.853C1059.43 115.181 1058.89 114.637 1058.22 114.637C1057.54 114.637 1057 115.181 1057 115.853C1057 116.525 1057.54 117.069 1058.22 117.069Z" fill="#FF7707"/>
<path d="M1068.64 117.069C1069.32 117.069 1069.86 116.525 1069.86 115.853C1069.86 115.181 1069.32 114.637 1068.64 114.637C1067.97 114.637 1067.43 115.181 1067.43 115.853C1067.43 116.525 1067.97 117.069 1068.64 117.069Z" fill="#FF7707"/>
<path d="M1079.07 117.069C1079.75 117.069 1080.29 116.525 1080.29 115.853C1080.29 115.181 1079.75 114.637 1079.07 114.637C1078.4 114.637 1077.86 115.181 1077.86 115.853C1077.86 116.525 1078.4 117.069 1079.07 117.069Z" fill="#FF7707"/>
<path d="M1090.72 115.853C1090.72 116.525 1090.17 117.069 1089.5 117.069C1088.83 117.069 1088.29 116.525 1088.29 115.853C1088.29 115.181 1088.83 114.637 1089.5 114.637C1090.17 114.637 1090.72 115.181 1090.72 115.853Z" fill="#FF7707"/>
<path d="M1099.93 117.069C1100.6 117.069 1101.15 116.525 1101.15 115.853C1101.15 115.181 1100.6 114.637 1099.93 114.637C1099.26 114.637 1098.71 115.181 1098.71 115.853C1098.71 116.525 1099.26 117.069 1099.93 117.069Z" fill="#FF7707"/>
<path d="M1110.36 117.069C1111.03 117.069 1111.57 116.525 1111.57 115.853C1111.57 115.181 1111.03 114.637 1110.36 114.637C1109.69 114.637 1109.14 115.181 1109.14 115.853C1109.14 116.525 1109.69 117.069 1110.36 117.069Z" fill="#FF7707"/>
<path d="M1120.78 117.069C1121.46 117.069 1122 116.525 1122 115.853C1122 115.181 1121.46 114.637 1120.78 114.637C1120.11 114.637 1119.57 115.181 1119.57 115.853C1119.57 116.525 1120.11 117.069 1120.78 117.069Z" fill="#FF7707"/>
<path d="M1058.22 127.432C1058.89 127.432 1059.43 126.888 1059.43 126.216C1059.43 125.544 1058.89 125 1058.22 125C1057.54 125 1057 125.544 1057 126.216C1057 126.888 1057.54 127.432 1058.22 127.432Z" fill="#FF7707"/>
<path d="M1068.64 127.432C1069.32 127.432 1069.86 126.888 1069.86 126.216C1069.86 125.544 1069.32 125 1068.64 125C1067.97 125 1067.43 125.544 1067.43 126.216C1067.43 126.888 1067.97 127.432 1068.64 127.432Z" fill="#FF7707"/>
<path d="M1079.07 127.432C1079.75 127.432 1080.29 126.888 1080.29 126.216C1080.29 125.544 1079.75 125 1079.07 125C1078.4 125 1077.86 125.544 1077.86 126.216C1077.86 126.888 1078.4 127.432 1079.07 127.432Z" fill="#FF7707"/>
<path d="M1090.72 126.216C1090.72 126.888 1090.17 127.432 1089.5 127.432C1088.83 127.432 1088.29 126.888 1088.29 126.216C1088.29 125.544 1088.83 125 1089.5 125C1090.17 125 1090.72 125.544 1090.72 126.216Z" fill="#FF7707"/>
<path d="M1099.93 127.432C1100.6 127.432 1101.15 126.888 1101.15 126.216C1101.15 125.544 1100.6 125 1099.93 125C1099.26 125 1098.71 125.544 1098.71 126.216C1098.71 126.888 1099.26 127.432 1099.93 127.432Z" fill="#FF7707"/>
<path d="M1110.36 127.432C1111.03 127.432 1111.57 126.888 1111.57 126.216C1111.57 125.544 1111.03 125 1110.36 125C1109.69 125 1109.14 125.544 1109.14 126.216C1109.14 126.888 1109.69 127.432 1110.36 127.432Z" fill="#FF7707"/>
<path d="M1120.78 127.432C1121.46 127.432 1122 126.888 1122 126.216C1122 125.544 1121.46 125 1120.78 125C1120.11 125 1119.57 125.544 1119.57 126.216C1119.57 126.888 1120.11 127.432 1120.78 127.432Z" fill="#FF7707"/>
<path d="M1058.22 137.924C1058.89 137.924 1059.43 137.38 1059.43 136.708C1059.43 136.036 1058.89 135.492 1058.22 135.492C1057.54 135.492 1057 136.036 1057 136.708C1057 137.38 1057.54 137.924 1058.22 137.924Z" fill="#FF7707"/>
<path d="M1068.64 137.924C1069.32 137.924 1069.86 137.38 1069.86 136.708C1069.86 136.036 1069.32 135.492 1068.64 135.492C1067.97 135.492 1067.43 136.036 1067.43 136.708C1067.43 137.38 1067.97 137.924 1068.64 137.924Z" fill="#FF7707"/>
<path d="M1079.07 137.924C1079.75 137.924 1080.29 137.38 1080.29 136.708C1080.29 136.036 1079.75 135.492 1079.07 135.492C1078.4 135.492 1077.86 136.036 1077.86 136.708C1077.86 137.38 1078.4 137.924 1079.07 137.924Z" fill="#FF7707"/>
<path d="M1090.72 136.708C1090.72 137.38 1090.17 137.924 1089.5 137.924C1088.83 137.924 1088.29 137.38 1088.29 136.708C1088.29 136.036 1088.83 135.492 1089.5 135.492C1090.17 135.492 1090.72 136.036 1090.72 136.708Z" fill="#FF7707"/>
<path d="M1099.93 137.924C1100.6 137.924 1101.15 137.38 1101.15 136.708C1101.15 136.036 1100.6 135.492 1099.93 135.492C1099.26 135.492 1098.71 136.036 1098.71 136.708C1098.71 137.38 1099.26 137.924 1099.93 137.924Z" fill="#FF7707"/>
<path d="M1110.36 137.924C1111.03 137.924 1111.57 137.38 1111.57 136.708C1111.57 136.036 1111.03 135.492 1110.36 135.492C1109.69 135.492 1109.14 136.036 1109.14 136.708C1109.14 137.38 1109.69 137.924 1110.36 137.924Z" fill="#FF7707"/>
<path d="M1120.78 137.924C1121.46 137.924 1122 137.38 1122 136.708C1122 136.036 1121.46 135.492 1120.78 135.492C1120.11 135.492 1119.57 136.036 1119.57 136.708C1119.57 137.38 1120.11 137.924 1120.78 137.924Z" fill="#FF7707"/>
<path opacity="0.3" d="M173 0C165.269 0 159 6.26771 159 14.0007C159 21.7323 165.267 28 173 28C180.731 28 187 21.7323 187 14.0007C187 6.26771 180.733 0 173 0ZM173 22.3181C168.407 22.3181 164.682 18.5942 164.682 13.9993C164.682 9.4058 168.405 5.68046 173 5.68046C177.593 5.68046 181.318 9.40439 181.318 13.9993C181.318 18.5942 177.595 22.3181 173 22.3181Z" fill="#07A47C"/>
<path d="M5.70924 106.55C6.36587 106.643 7.01621 106.805 7.63712 107.038C7.88297 107.13 8.14457 107.248 8.30636 107.329C8.59108 107.473 8.76863 107.568 9.07961 107.771C10.1807 108.488 11.1451 109.485 11.9037 110.575C13.6823 113.13 14.2402 116.418 13.6225 119.447C13.0362 122.317 11.4225 125.021 8.8096 126.457C7.65182 127.093 6.3144 127.512 4.98327 127.408C4.74163 127.389 4.49788 127.351 4.2678 127.283C4.10706 127.236 4.20896 127.274 4.05663 127.199C4.09025 127.215 4.12492 127.225 4.15644 127.245C4.27726 127.322 3.99569 127.119 4.0976 127.203C3.69627 126.869 3.34851 126.468 3.09636 125.996C1.87765 123.724 2.3935 120.815 3.60696 118.652C4.98116 116.204 7.42804 114.434 10.021 113.463C12.6958 112.461 15.6806 112.218 18.4668 112.877C19.0951 113.025 19.7181 113.218 20.3149 113.461C20.9043 113.702 21.4569 113.97 21.9528 114.261C23.1536 114.967 24.2421 115.835 25.238 116.809C30.0215 121.487 31.9851 128.294 32.2162 134.827C32.2477 135.724 32.2456 136.62 32.2173 137.517C32.2047 137.93 32.9222 138.264 33.228 138.422C33.3152 138.467 34.5423 138.997 34.5507 138.721C34.7839 131.312 33.0851 123.552 27.873 118.013C23.202 113.047 16.0483 109.88 9.23405 111.699C6.25766 112.495 3.36953 114.262 1.63497 116.857C0.113683 119.132 -0.580779 122.477 0.761905 124.995C2.28634 127.853 6.10007 129.355 9.18257 128.513C12.325 127.656 14.6037 125.035 15.5955 122.011C16.6556 118.781 16.3519 115.099 14.6163 112.159C12.8114 109.099 9.71103 106.879 6.36168 105.78C5.5401 105.51 4.70591 105.324 3.85071 105.204C3.27708 105.124 3.93685 105.747 4.05557 105.834C4.5357 106.186 5.11669 106.467 5.70924 106.55Z" fill="#18A795"/>
<path d="M28.2391 134.197C29.6931 135.964 31.1472 137.73 32.6012 139.497C32.7966 139.735 34.6951 140.835 34.8873 140.385C36.2552 137.171 37.6231 133.958 38.991 130.745C39.1707 130.322 36.7732 129.251 36.6061 129.644C35.2382 132.858 33.8703 136.071 32.5024 139.284C33.2641 139.58 34.0258 139.876 34.7886 140.172C33.3345 138.405 31.8805 136.639 30.4264 134.872C30.0703 134.439 29.3611 134.177 28.8411 134.019C28.6404 133.959 27.8945 133.779 28.2391 134.197Z" fill="#18A795"/>
</svg>
