<svg width="682" height="112" viewBox="0 0 682 112" fill="none" xmlns="http://www.w3.org/2000/svg">
<circle cx="8" cy="104" r="8" fill="#FFB8A4"/>
<circle opacity="0.4" cx="130" cy="23" r="22" stroke="#FDD13C" stroke-width="2"/>
<path opacity="0.3" d="M595.5 8C589.149 8 584 13.1485 584 19.5006C584 25.8515 589.148 31 595.5 31C601.851 31 607 25.8515 607 19.5006C607 13.1485 601.852 8 595.5 8ZM595.5 26.3327C591.727 26.3327 588.667 23.2738 588.667 19.4994C588.667 15.7262 591.726 12.6661 595.5 12.6661C599.273 12.6661 602.333 15.725 602.333 19.4994C602.333 23.2738 599.274 26.3327 595.5 26.3327Z" fill="#18A795"/>
<circle cx="674" cy="96" r="8" fill="#FDD13C"/>
</svg>
