<svg width="921" height="464" viewBox="0 0 921 464" fill="none" xmlns="http://www.w3.org/2000/svg">
<path d="M26.9255 107.243C28.0745 106.902 29.2155 106.566 30.3645 106.225C31.2886 105.948 30.7507 104.546 29.8347 104.817C28.6856 105.158 27.5447 105.494 26.3957 105.835C25.4716 106.112 26.0095 107.514 26.9255 107.243Z" fill="#FC981F"/>
<path d="M86.7623 43.277C88.2068 42.6957 89.6513 42.1144 91.1039 41.5273C92.0052 41.1682 91.4754 39.7604 90.5741 40.1195C89.1296 40.7008 87.6851 41.2821 86.2325 41.8693C85.3312 42.2283 85.861 43.6361 86.7623 43.277Z" fill="#FC981F"/>
<path d="M161.113 35.1131C162.877 34.3244 164.626 33.5335 166.39 32.7448C167.267 32.3533 166.738 30.9456 165.86 31.337C164.096 32.1257 162.347 32.9167 160.583 33.7054C159.697 34.1027 160.227 35.5104 161.113 35.1131Z" fill="#FC981F"/>
<path d="M36.0909 264.768C33.256 266.34 12.565 278.201 8.6217 299.541C3.73294 326.021 30.6499 334.6 39.937 377.679C45.8072 404.901 37.44 412.511 47.4121 427.449C58.7566 444.447 83.5535 455.507 106.074 450.045C138.463 442.184 149.033 404.298 149.95 400.801C160.497 360.645 126.058 363.56 138.022 323.749C145.537 298.734 171.709 291.173 161.559 263.332C152.64 238.874 120.349 273.773 95.1588 265.781C64.4229 256.035 50.6972 256.67 36.0909 264.768Z" fill="#18A795"/>
<path d="M177.208 100.21C192.178 116.27 222.088 107.17 233.688 91.4404C246.218 74.4504 237.858 49.6305 218.258 42.5505C217.348 42.2205 216.958 43.6704 217.858 44.0004C236.848 50.8704 244.428 75.0605 232.008 91.1505C220.758 105.73 192.428 114.34 178.268 99.1505C177.608 98.4405 176.548 99.5005 177.208 100.21Z" fill="#FFE4DD"/>
<path d="M815.605 116.375C783.756 99.2261 794.319 51.8828 827.813 50.4282C861.308 48.9736 910.093 100.811 904.382 122.816C898.671 144.82 839.623 129.31 815.605 116.375Z" fill="#FFB8A4"/>
<path d="M898.233 213.861C897.053 215.811 895.863 217.761 894.683 219.721C894.183 220.551 895.473 221.301 895.983 220.481C897.163 218.531 898.353 216.581 899.533 214.621C900.033 213.791 898.733 213.031 898.233 213.861Z" fill="#FC5B23"/>
<path d="M898.183 229.76C896.853 231.4 895.523 233.03 894.193 234.67C893.593 235.41 894.643 236.48 895.253 235.73C896.583 234.09 897.913 232.46 899.243 230.82C899.843 230.07 898.793 229.01 898.183 229.76Z" fill="#FC5B23"/>
<path d="M894.333 245.171C892.953 246.761 891.573 248.361 890.193 249.951C889.563 250.681 890.623 251.741 891.253 251.011C892.633 249.421 894.013 247.821 895.393 246.231C896.023 245.511 894.963 244.441 894.333 245.171Z" fill="#FC5B23"/>
</svg>
