<svg width="684" height="416" viewBox="0 0 684 416" fill="none" xmlns="http://www.w3.org/2000/svg">
<path d="M663.25 234.011C577.269 228.503 638.12 386.352 531.495 379.521C504.935 377.82 432.482 335.6 433.658 393.498C433.968 408.537 653.32 407.933 653.32 407.933C653.32 407.933 709.126 236.95 663.25 234.011Z" fill="#18A795"/>
<path d="M555.408 6.81461C556.737 6.81461 557.815 5.73682 557.815 4.4073C557.815 3.07779 556.737 2 555.408 2C554.078 2 553 3.07779 553 4.4073C553 5.73682 554.078 6.81461 555.408 6.81461Z" fill="#FF7707"/>
<path d="M576.048 6.81461C577.378 6.81461 578.455 5.73682 578.455 4.4073C578.455 3.07779 577.378 2 576.048 2C574.718 2 573.641 3.07779 573.641 4.4073C573.641 5.73682 574.718 6.81461 576.048 6.81461Z" fill="#FF7707"/>
<path d="M596.688 6.81461C598.018 6.81461 599.095 5.73682 599.095 4.4073C599.095 3.07779 598.018 2 596.688 2C595.358 2 594.281 3.07779 594.281 4.4073C594.281 5.73682 595.358 6.81461 596.688 6.81461Z" fill="#FF7707"/>
<path d="M619.736 4.4073C619.736 5.73741 618.658 6.81461 617.328 6.81461C615.998 6.81461 614.921 5.73741 614.921 4.4073C614.921 3.0772 615.998 2 617.328 2C618.658 2 619.736 3.0772 619.736 4.4073Z" fill="#FF7707"/>
<path d="M637.968 6.81461C639.297 6.81461 640.375 5.73682 640.375 4.4073C640.375 3.07779 639.297 2 637.968 2C636.638 2 635.561 3.07779 635.561 4.4073C635.561 5.73682 636.638 6.81461 637.968 6.81461Z" fill="#FF7707"/>
<path d="M658.608 6.81461C659.938 6.81461 661.015 5.73682 661.015 4.4073C661.015 3.07779 659.938 2 658.608 2C657.279 2 656.201 3.07779 656.201 4.4073C656.201 5.73682 657.279 6.81461 658.608 6.81461Z" fill="#FF7707"/>
<path d="M679.243 6.81461C680.573 6.81461 681.651 5.73682 681.651 4.4073C681.651 3.07779 680.573 2 679.243 2C677.914 2 676.836 3.07779 676.836 4.4073C676.836 5.73682 677.914 6.81461 679.243 6.81461Z" fill="#FF7707"/>
<path d="M555.408 27.4455C556.737 27.4455 557.815 26.3677 557.815 25.0382C557.815 23.7086 556.737 22.6309 555.408 22.6309C554.078 22.6309 553 23.7086 553 25.0382C553 26.3677 554.078 27.4455 555.408 27.4455Z" fill="#FF7707"/>
<path d="M576.048 27.4455C577.378 27.4455 578.455 26.3677 578.455 25.0382C578.455 23.7086 577.378 22.6309 576.048 22.6309C574.718 22.6309 573.641 23.7086 573.641 25.0382C573.641 26.3677 574.718 27.4455 576.048 27.4455Z" fill="#FF7707"/>
<path d="M596.688 27.4455C598.018 27.4455 599.095 26.3677 599.095 25.0382C599.095 23.7086 598.018 22.6309 596.688 22.6309C595.358 22.6309 594.281 23.7086 594.281 25.0382C594.281 26.3677 595.358 27.4455 596.688 27.4455Z" fill="#FF7707"/>
<path d="M619.736 25.0382C619.736 26.3683 618.658 27.4455 617.328 27.4455C615.998 27.4455 614.921 26.3683 614.921 25.0382C614.921 23.7081 615.998 22.6309 617.328 22.6309C618.658 22.6309 619.736 23.7127 619.736 25.0382Z" fill="#FF7707"/>
<path d="M637.968 27.4455C639.297 27.4455 640.375 26.3677 640.375 25.0382C640.375 23.7086 639.297 22.6309 637.968 22.6309C636.638 22.6309 635.561 23.7086 635.561 25.0382C635.561 26.3677 636.638 27.4455 637.968 27.4455Z" fill="#FF7707"/>
<path d="M658.608 27.4455C659.938 27.4455 661.015 26.3677 661.015 25.0382C661.015 23.7086 659.938 22.6309 658.608 22.6309C657.279 22.6309 656.201 23.7086 656.201 25.0382C656.201 26.3677 657.279 27.4455 658.608 27.4455Z" fill="#FF7707"/>
<path d="M679.243 27.4455C680.573 27.4455 681.651 26.3677 681.651 25.0382C681.651 23.7086 680.573 22.6309 679.243 22.6309C677.914 22.6309 676.836 23.7086 676.836 25.0382C676.836 26.3677 677.914 27.4455 679.243 27.4455Z" fill="#FF7707"/>
<path d="M555.408 47.9543C556.737 47.9543 557.815 46.8765 557.815 45.547C557.815 44.2174 556.737 43.1396 555.408 43.1396C554.078 43.1396 553 44.2174 553 45.547C553 46.8765 554.078 47.9543 555.408 47.9543Z" fill="#FF7707"/>
<path d="M576.048 47.9543C577.378 47.9543 578.455 46.8765 578.455 45.547C578.455 44.2174 577.378 43.1396 576.048 43.1396C574.718 43.1396 573.641 44.2174 573.641 45.547C573.641 46.8765 574.718 47.9543 576.048 47.9543Z" fill="#FF7707"/>
<path d="M596.688 47.9543C598.018 47.9543 599.095 46.8765 599.095 45.547C599.095 44.2174 598.018 43.1396 596.688 43.1396C595.358 43.1396 594.281 44.2174 594.281 45.547C594.281 46.8765 595.358 47.9543 596.688 47.9543Z" fill="#FF7707"/>
<path d="M619.736 45.547C619.736 46.8771 618.658 47.9543 617.328 47.9543C615.998 47.9543 614.921 46.8771 614.921 45.547C614.921 44.2168 615.998 43.1396 617.328 43.1396C618.658 43.1396 619.736 44.2168 619.736 45.547Z" fill="#FF7707"/>
<path d="M637.968 47.9543C639.297 47.9543 640.375 46.8765 640.375 45.547C640.375 44.2174 639.297 43.1396 637.968 43.1396C636.638 43.1396 635.561 44.2174 635.561 45.547C635.561 46.8765 636.638 47.9543 637.968 47.9543Z" fill="#FF7707"/>
<path d="M658.608 47.9543C659.938 47.9543 661.015 46.8765 661.015 45.547C661.015 44.2174 659.938 43.1396 658.608 43.1396C657.279 43.1396 656.201 44.2174 656.201 45.547C656.201 46.8765 657.279 47.9543 658.608 47.9543Z" fill="#FF7707"/>
<path d="M679.243 47.9543C680.573 47.9543 681.651 46.8765 681.651 45.547C681.651 44.2174 680.573 43.1396 679.243 43.1396C677.914 43.1396 676.836 44.2174 676.836 45.547C676.836 46.8765 677.914 47.9543 679.243 47.9543Z" fill="#FF7707"/>
<path d="M555.408 68.5939C556.737 68.5939 557.815 67.5161 557.815 66.1866C557.815 64.8571 556.737 63.7793 555.408 63.7793C554.078 63.7793 553 64.8571 553 66.1866C553 67.5161 554.078 68.5939 555.408 68.5939Z" fill="#FF7707"/>
<path d="M576.048 68.5939C577.378 68.5939 578.455 67.5161 578.455 66.1866C578.455 64.8571 577.378 63.7793 576.048 63.7793C574.718 63.7793 573.641 64.8571 573.641 66.1866C573.641 67.5161 574.718 68.5939 576.048 68.5939Z" fill="#FF7707"/>
<path d="M596.688 68.5939C598.018 68.5939 599.095 67.5161 599.095 66.1866C599.095 64.8571 598.018 63.7793 596.688 63.7793C595.358 63.7793 594.281 64.8571 594.281 66.1866C594.281 67.5161 595.358 68.5939 596.688 68.5939Z" fill="#FF7707"/>
<path d="M619.736 66.1866C619.736 67.5167 618.658 68.5939 617.328 68.5939C615.998 68.5939 614.921 67.5167 614.921 66.1866C614.921 64.8565 615.998 63.7793 617.328 63.7793C618.658 63.7793 619.736 64.8565 619.736 66.1866Z" fill="#FF7707"/>
<path d="M637.968 68.5939C639.297 68.5939 640.375 67.5161 640.375 66.1866C640.375 64.8571 639.297 63.7793 637.968 63.7793C636.638 63.7793 635.561 64.8571 635.561 66.1866C635.561 67.5161 636.638 68.5939 637.968 68.5939Z" fill="#FF7707"/>
<path d="M658.608 68.5939C659.938 68.5939 661.015 67.5161 661.015 66.1866C661.015 64.8571 659.938 63.7793 658.608 63.7793C657.279 63.7793 656.201 64.8571 656.201 66.1866C656.201 67.5161 657.279 68.5939 658.608 68.5939Z" fill="#FF7707"/>
<path d="M679.243 68.5939C680.573 68.5939 681.651 67.5161 681.651 66.1866C681.651 64.8571 680.573 63.7793 679.243 63.7793C677.914 63.7793 676.836 64.8571 676.836 66.1866C676.836 67.5161 677.914 68.5939 679.243 68.5939Z" fill="#FF7707"/>
<path d="M555.408 89.2248C556.737 89.2248 557.815 88.147 557.815 86.8175C557.815 85.4879 556.737 84.4102 555.408 84.4102C554.078 84.4102 553 85.4879 553 86.8175C553 88.147 554.078 89.2248 555.408 89.2248Z" fill="#FF7707"/>
<path d="M576.048 89.2248C577.378 89.2248 578.455 88.147 578.455 86.8175C578.455 85.4879 577.378 84.4102 576.048 84.4102C574.718 84.4102 573.641 85.4879 573.641 86.8175C573.641 88.147 574.718 89.2248 576.048 89.2248Z" fill="#FF7707"/>
<path d="M596.688 89.2248C598.018 89.2248 599.095 88.147 599.095 86.8175C599.095 85.4879 598.018 84.4102 596.688 84.4102C595.358 84.4102 594.281 85.4879 594.281 86.8175C594.281 88.147 595.358 89.2248 596.688 89.2248Z" fill="#FF7707"/>
<path d="M619.736 86.8175C619.736 88.1476 618.658 89.2248 617.328 89.2248C615.998 89.2248 614.921 88.1476 614.921 86.8175C614.921 85.4873 615.998 84.4102 617.328 84.4102C618.658 84.4102 619.736 85.4873 619.736 86.8175Z" fill="#FF7707"/>
<path d="M637.968 89.2248C639.297 89.2248 640.375 88.147 640.375 86.8175C640.375 85.4879 639.297 84.4102 637.968 84.4102C636.638 84.4102 635.561 85.4879 635.561 86.8175C635.561 88.147 636.638 89.2248 637.968 89.2248Z" fill="#FF7707"/>
<path d="M658.608 89.2248C659.938 89.2248 661.015 88.147 661.015 86.8175C661.015 85.4879 659.938 84.4102 658.608 84.4102C657.279 84.4102 656.201 85.4879 656.201 86.8175C656.201 88.147 657.279 89.2248 658.608 89.2248Z" fill="#FF7707"/>
<path d="M679.243 89.2248C680.573 89.2248 681.651 88.147 681.651 86.8175C681.651 85.4879 680.573 84.4102 679.243 84.4102C677.914 84.4102 676.836 85.4879 676.836 86.8175C676.836 88.147 677.914 89.2248 679.243 89.2248Z" fill="#FF7707"/>
<path d="M555.408 109.734C556.737 109.734 557.815 108.656 557.815 107.326C557.815 105.997 556.737 104.919 555.408 104.919C554.078 104.919 553 105.997 553 107.326C553 108.656 554.078 109.734 555.408 109.734Z" fill="#FF7707"/>
<path d="M576.048 109.734C577.378 109.734 578.455 108.656 578.455 107.326C578.455 105.997 577.378 104.919 576.048 104.919C574.718 104.919 573.641 105.997 573.641 107.326C573.641 108.656 574.718 109.734 576.048 109.734Z" fill="#FF7707"/>
<path d="M596.688 109.734C598.018 109.734 599.095 108.656 599.095 107.326C599.095 105.997 598.018 104.919 596.688 104.919C595.358 104.919 594.281 105.997 594.281 107.326C594.281 108.656 595.358 109.734 596.688 109.734Z" fill="#FF7707"/>
<path d="M619.736 107.326C619.736 108.656 618.658 109.734 617.328 109.734C615.998 109.734 614.921 108.656 614.921 107.326C614.921 105.996 615.998 104.919 617.328 104.919C618.658 104.919 619.736 105.996 619.736 107.326Z" fill="#FF7707"/>
<path d="M637.968 109.734C639.297 109.734 640.375 108.656 640.375 107.326C640.375 105.997 639.297 104.919 637.968 104.919C636.638 104.919 635.561 105.997 635.561 107.326C635.561 108.656 636.638 109.734 637.968 109.734Z" fill="#FF7707"/>
<path d="M658.608 109.734C659.938 109.734 661.015 108.656 661.015 107.326C661.015 105.997 659.938 104.919 658.608 104.919C657.279 104.919 656.201 105.997 656.201 107.326C656.201 108.656 657.279 109.734 658.608 109.734Z" fill="#FF7707"/>
<path d="M679.243 109.734C680.573 109.734 681.651 108.656 681.651 107.326C681.651 105.997 680.573 104.919 679.243 104.919C677.914 104.919 676.836 105.997 676.836 107.326C676.836 108.656 677.914 109.734 679.243 109.734Z" fill="#FF7707"/>
<path d="M555.408 130.5C556.737 130.5 557.815 129.422 557.815 128.093C557.815 126.763 556.737 125.686 555.408 125.686C554.078 125.686 553 126.763 553 128.093C553 129.422 554.078 130.5 555.408 130.5Z" fill="#FF7707"/>
<path d="M576.048 130.5C577.378 130.5 578.455 129.422 578.455 128.093C578.455 126.763 577.378 125.686 576.048 125.686C574.718 125.686 573.641 126.763 573.641 128.093C573.641 129.422 574.718 130.5 576.048 130.5Z" fill="#FF7707"/>
<path d="M596.688 130.5C598.018 130.5 599.095 129.422 599.095 128.093C599.095 126.763 598.018 125.686 596.688 125.686C595.358 125.686 594.281 126.763 594.281 128.093C594.281 129.422 595.358 130.5 596.688 130.5Z" fill="#FF7707"/>
<path d="M619.736 128.093C619.736 129.423 618.658 130.5 617.328 130.5C615.998 130.5 614.921 129.423 614.921 128.093C614.921 126.763 615.998 125.686 617.328 125.686C618.658 125.686 619.736 126.763 619.736 128.093Z" fill="#FF7707"/>
<path d="M637.968 130.5C639.297 130.5 640.375 129.422 640.375 128.093C640.375 126.763 639.297 125.686 637.968 125.686C636.638 125.686 635.561 126.763 635.561 128.093C635.561 129.422 636.638 130.5 637.968 130.5Z" fill="#FF7707"/>
<path d="M658.608 130.5C659.938 130.5 661.015 129.422 661.015 128.093C661.015 126.763 659.938 125.686 658.608 125.686C657.279 125.686 656.201 126.763 656.201 128.093C656.201 129.422 657.279 130.5 658.608 130.5Z" fill="#FF7707"/>
<path d="M679.243 130.5C680.573 130.5 681.651 129.422 681.651 128.093C681.651 126.763 680.573 125.686 679.243 125.686C677.914 125.686 676.836 126.763 676.836 128.093C676.836 129.422 677.914 130.5 679.243 130.5Z" fill="#FF7707"/>
<path d="M32.6058 79.8726C0.756974 62.7241 11.3192 15.3809 44.8139 13.9262C78.3085 12.4716 127.094 64.3095 121.383 86.3136C115.672 108.318 56.6231 92.8078 32.6058 79.8726Z" fill="#FFB8A4"/>
</svg>
