<svg width="10" height="38" viewBox="0 0 10 38" fill="none" xmlns="http://www.w3.org/2000/svg">
<path d="M8.23344 0.358846C7.05344 2.30885 5.86339 4.25885 4.68339 6.21885C4.18339 7.04885 5.47344 7.79884 5.98344 6.97884C7.16344 5.02884 8.35343 3.07886 9.53343 1.11886C10.0334 0.288856 8.73344 -0.471154 8.23344 0.358846Z" fill="#FC5B23"/>
<path d="M8.18272 16.259C6.85272 17.899 5.52273 19.529 4.19273 21.169C3.59273 21.909 4.64273 22.979 5.25273 22.229C6.58273 20.589 7.91272 18.959 9.24272 17.319C9.84272 16.569 8.79272 15.509 8.18272 16.259Z" fill="#FC5B23"/>
<path d="M4.33307 31.6687C2.95307 33.2587 1.57306 34.8587 0.19306 36.4487C-0.43694 37.1787 0.623057 38.2387 1.25306 37.5087C2.63306 35.9187 4.01307 34.3187 5.39307 32.7287C6.02307 32.0087 4.96307 30.9387 4.33307 31.6687Z" fill="#FC5B23"/>
</svg>
