<svg width="980" height="163" viewBox="0 0 980 163" fill="none" xmlns="http://www.w3.org/2000/svg">
<path d="M966 9C958.269 9 952 15.2677 952 23.0007C952 30.7323 958.267 37 966 37C973.731 37 980 30.7323 980 23.0007C980 15.2677 973.733 9 966 9ZM966 31.3181C961.407 31.3181 957.682 27.5942 957.682 22.9993C957.682 18.4058 961.405 14.6805 966 14.6805C970.593 14.6805 974.318 18.4044 974.318 22.9993C974.318 27.5942 970.595 31.3181 966 31.3181Z" fill="#18A795"/>
<circle cx="8" cy="151" r="8" fill="#FC5B23"/>
<circle cx="916" cy="153" r="10" fill="#FDD13C"/>
<circle opacity="0.4" cx="31" cy="23" r="22" stroke="#FDD13C" stroke-width="2"/>
</svg>
