<svg width="307" height="464" viewBox="0 0 307 464" fill="none" xmlns="http://www.w3.org/2000/svg">
<path d="M163.208 451.709C178.178 467.769 208.088 458.668 219.688 442.938C232.218 425.948 223.858 401.129 204.258 394.049C203.348 393.719 202.958 395.168 203.858 395.498C222.848 402.368 230.428 426.559 218.008 442.649C206.758 457.229 178.428 465.839 164.268 450.649C163.608 449.939 162.548 450.999 163.208 451.709Z" fill="#FFE4DD"/>
<path d="M0.510141 17.9865C1.64014 18.3865 2.76015 18.7865 3.89015 19.1865C4.80015 19.5065 5.19014 18.0565 4.29014 17.7365C3.16014 17.3365 2.04014 16.9365 0.910135 16.5365C0.000135064 16.2165 -0.389859 17.6665 0.510141 17.9865Z" fill="#FC981F"/>
<path d="M86.5302 1.47671C88.0402 1.85671 89.5502 2.23671 91.0702 2.61671C92.0102 2.85671 92.4102 1.40671 91.4702 1.16671C89.9602 0.786708 88.4501 0.406709 86.9301 0.0267088C85.9901 -0.213291 85.5902 1.23671 86.5302 1.47671Z" fill="#FC981F"/>
<path d="M151.45 38.6266C153.34 39.0266 155.22 39.4166 157.11 39.8166C158.05 40.0166 158.45 38.5666 157.51 38.3666C155.62 37.9666 153.74 37.5766 151.85 37.1766C150.9 36.9766 150.5 38.4266 151.45 38.6266Z" fill="#FC981F"/>
<path d="M272.233 112.359C271.053 114.309 269.863 116.259 268.683 118.219C268.183 119.049 269.473 119.799 269.983 118.979C271.163 117.029 272.353 115.079 273.533 113.119C274.033 112.289 272.733 111.529 272.233 112.359Z" fill="#FC5B23"/>
<path d="M272.183 128.259C270.853 129.899 269.523 131.529 268.193 133.169C267.593 133.909 268.643 134.979 269.253 134.229C270.583 132.589 271.913 130.959 273.243 129.319C273.843 128.569 272.793 127.509 272.183 128.259Z" fill="#FC5B23"/>
<path d="M268.333 143.669C266.953 145.259 265.573 146.859 264.193 148.449C263.563 149.179 264.623 150.239 265.253 149.509C266.633 147.919 268.013 146.319 269.393 144.729C270.023 144.009 268.963 142.939 268.333 143.669Z" fill="#FC5B23"/>
<path d="M258.477 458.079C258.837 456.689 259.817 455.549 261.177 455.059C262.077 454.729 261.687 453.279 260.777 453.609C258.927 454.279 257.527 455.759 257.027 457.679C256.787 458.619 258.227 459.019 258.477 458.079Z" fill="#FC981F"/>
<path d="M278.477 462.829C279.997 461.329 281.517 459.819 283.037 458.319C283.727 457.639 282.667 456.579 281.977 457.259C280.457 458.759 278.937 460.269 277.417 461.769C276.727 462.449 277.787 463.509 278.477 462.829Z" fill="#FC981F"/>
<path d="M281.957 419.799C283.427 418.609 284.897 417.429 286.377 416.239C287.127 415.629 286.057 414.579 285.317 415.179C283.847 416.369 282.377 417.549 280.897 418.739C280.137 419.349 281.207 420.399 281.957 419.799Z" fill="#FC981F"/>
<path d="M281.957 440.799C283.427 439.609 284.897 438.429 286.377 437.239C287.127 436.629 286.057 435.579 285.317 436.179C283.847 437.369 282.377 438.549 280.897 439.739C280.137 440.349 281.207 441.399 281.957 440.799Z" fill="#FC981F"/>
<path d="M266.331 291.582C195.257 287.029 245.558 417.512 157.418 411.865C135.463 410.459 75.5722 375.558 76.5444 423.418C76.8001 435.85 258.123 435.351 258.123 435.351C258.123 435.351 304.253 294.011 266.331 291.582Z" fill="#18A795"/>
<path d="M201.606 81.8726C169.757 64.7241 180.319 17.3809 213.814 15.9262C247.309 14.4716 296.094 66.3095 290.383 88.3136C284.672 110.318 225.623 94.8078 201.606 81.8726Z" fill="#FFB8A4"/>
</svg>
