<svg width="46" height="75" viewBox="0 0 46 75" fill="none" xmlns="http://www.w3.org/2000/svg">
<path d="M2.29265 66.8747C2.8515 64.717 4.37283 62.9473 6.48405 62.1866C7.88119 61.6743 7.27576 59.4234 5.8631 59.9356C2.99122 60.9757 0.817897 63.2733 0.0417115 66.2538C-0.330857 67.713 1.90456 68.334 2.29265 66.8747Z" fill="#FC981F"/>
<path d="M33.3402 74.2482C35.6998 71.9197 38.0594 69.5756 40.419 67.247C41.4901 66.1914 39.8446 64.5459 38.7735 65.6015C36.4139 67.9301 34.0543 70.2742 31.6947 72.6027C30.6235 73.6583 32.2691 75.3039 33.3402 74.2482Z" fill="#FC981F"/>
<path d="M38.7426 7.44991C41.0246 5.60259 43.3066 3.7708 45.6041 1.92348C46.7684 0.976532 45.1073 -0.653453 43.9586 0.277969C41.6766 2.12529 39.3946 3.95708 37.0971 5.80441C35.9173 6.75135 37.5783 8.38134 38.7426 7.44991Z" fill="#FC981F"/>
<path d="M38.7426 40.0495C41.0246 38.2022 43.3066 36.3704 45.6041 34.5231C46.7684 33.5761 45.1073 31.9462 43.9586 32.8776C41.6766 34.7249 39.3946 36.5567 37.0971 38.404C35.9173 39.351 37.5783 40.9809 38.7426 40.0495Z" fill="#FC981F"/>
</svg>
