<svg width="163" height="409" viewBox="0 0 163 409" fill="none" xmlns="http://www.w3.org/2000/svg">
<path d="M19.9736 369.655C7.07592 363.206 0.5 353.097 0.5 344.977C0.5 340.934 2.12331 337.37 5.42266 334.925C8.73435 332.472 13.7903 331.106 20.7144 331.6C36.0862 332.699 50.9769 341.864 61.2878 352.778C66.4395 358.231 70.4268 364.099 72.7527 369.578C75.0845 375.071 75.7167 380.1 74.2818 383.926C73.5664 385.834 72.4733 387.154 71.0892 388.014C69.6985 388.878 67.9774 389.3 65.9761 389.346C61.9583 389.437 56.9249 388.008 51.489 385.789C46.0652 383.575 40.2974 380.598 34.8251 377.643C33.08 376.701 31.3635 375.76 29.6981 374.847C26.1519 372.903 22.8376 371.087 19.9736 369.655Z" stroke="#FC981F"/>
<path opacity="0.3" d="M130 183C122.269 183 116 189.268 116 197.001C116 204.732 122.267 211 130 211C137.731 211 144 204.732 144 197.001C144 189.268 137.733 183 130 183ZM130 205.318C125.407 205.318 121.682 201.594 121.682 196.999C121.682 192.406 125.405 188.68 130 188.68C134.593 188.68 138.318 192.404 138.318 196.999C138.318 201.594 134.595 205.318 130 205.318Z" fill="#07A47C"/>
<path d="M92.2247 0.163891C84.7906 -1.98779 78.3095 17.8144 92.0012 14.6583C102.535 12.2335 105.296 3.94614 92.2247 0.163891Z" fill="#FEEECD"/>
<path d="M161.667 398.191C162.969 390.562 142.564 386.349 147.239 399.599C150.833 409.793 159.378 411.605 161.667 398.191Z" fill="#FEEECD"/>
</svg>
