<svg width="354" height="406" viewBox="0 0 354 406" fill="none" xmlns="http://www.w3.org/2000/svg">
<path opacity="0.3" d="M14 189C6.26879 189 0 195.268 0 203.001C0 210.732 6.26738 217 14 217C21.7312 217 28 210.732 28 203.001C28 195.268 21.7326 189 14 189ZM14 211.318C9.40672 211.318 5.68159 207.594 5.68159 202.999C5.68159 198.406 9.40531 194.68 14 194.68C18.5932 194.68 22.3184 198.404 22.3184 202.999C22.3184 207.594 18.5947 211.318 14 211.318Z" fill="#07A47C"/>
<path d="M315.676 0.19667C306.93 -2.38535 299.305 21.3773 315.413 17.59C327.805 14.6802 331.055 4.73537 315.676 0.19667Z" fill="#FEEECD"/>
<path d="M69.4768 67.4382C58.2204 61.8553 52.5 53.1139 52.5 46.1124C52.5 42.6295 53.9088 39.5619 56.7736 37.4565C59.6512 35.3416 64.0524 34.1589 70.0929 34.5869C83.5032 35.5374 96.4989 43.4697 105.5 52.92C109.996 57.6414 113.475 62.7202 115.503 67.4597C117.537 72.213 118.082 76.5503 116.838 79.8419C116.217 81.4824 115.272 82.6141 114.075 83.3513C112.872 84.0928 111.38 84.4572 109.639 84.4964C106.141 84.5753 101.753 83.341 97.0059 81.4185C92.2707 79.5008 87.234 76.9225 82.4534 74.362C80.9299 73.546 79.4308 72.7309 77.9761 71.9399C74.8773 70.2551 71.98 68.6797 69.4768 67.4382Z" stroke="#FC981F"/>
<path d="M333.211 370.873L333.211 370.873C340.855 373.129 346.133 376.043 349.383 379.199C352.623 382.345 353.836 385.715 353.421 388.945C353.004 392.191 350.929 395.399 347.382 398.172C343.837 400.942 338.855 403.251 332.712 404.693L332.712 404.693C324.753 406.564 319.895 404.999 317.238 401.889C314.552 398.745 313.967 393.86 314.94 388.785C315.91 383.724 318.41 378.592 321.725 375.057C325.044 371.518 329.092 369.657 333.211 370.873Z" stroke="#FC5B23"/>
</svg>
