<svg width="609" height="532" viewBox="0 0 609 532" fill="none" xmlns="http://www.w3.org/2000/svg">
<path d="M484.211 24.8729L484.211 24.8729C491.855 27.1291 497.133 30.043 500.383 33.1986C503.623 36.3453 504.836 39.7152 504.421 42.9446C504.004 46.1912 501.929 49.3992 498.382 52.172C494.837 54.9424 489.855 57.2507 483.712 58.6932L483.712 58.6932C475.753 60.5644 470.895 58.9995 468.238 55.8891C465.552 52.7453 464.967 47.8601 465.94 42.7847C466.91 37.7235 469.41 32.5925 472.725 29.0574C476.044 25.5183 480.092 23.6569 484.211 24.8729Z" stroke="#FC5B23"/>
<path d="M574.931 55.6446C546.069 47.1814 520.908 125.07 574.063 112.656C614.958 103.118 625.68 70.5215 574.931 55.6446Z" fill="#FC5B23"/>
<path d="M605.384 70.1551L605.384 70.1552C601.648 78.188 593.99 82.9071 582.251 83.4479C570.487 83.9898 554.674 80.3256 534.788 71.6042C526.098 67.7925 510.416 59.1334 499.972 47.965C494.751 42.3817 490.878 36.2128 489.802 29.747C488.73 23.3092 490.417 16.5082 496.455 9.60269L496.455 9.60258C502.425 2.7694 513.579 0.00463804 526.762 0.571942C539.915 1.138 554.953 5.01873 568.522 11.3088C582.096 17.601 594.152 26.2814 601.387 36.4109C608.608 46.52 611.018 58.0501 605.384 70.1551Z" stroke="#B7B0AE"/>
<path d="M130.153 519.286C94.0331 521.226 78.4031 475.306 106.243 456.626C134.083 437.946 202.723 456.806 209.303 478.566C215.883 500.326 157.393 517.826 130.153 519.286Z" fill="#FFB8A4"/>
<path d="M31.775 506.623C20.855 497.873 11.795 486.663 6.40496 473.693C1.45496 461.773 -1.39503 444.963 5.48497 433.133C10.685 424.193 22.275 419.604 31.845 417.274C42.155 414.764 53.615 416.964 63.555 420.114C88.555 428.064 107.435 447.724 121.075 469.434C129.065 482.154 139.285 497.913 131.695 513.123C126.295 523.943 114.085 530.594 102.185 530.024C90.485 529.454 78.715 526.683 67.535 523.343C54.905 519.563 42.145 514.614 31.615 506.514C30.855 505.924 30.105 507.223 30.855 507.813C41.115 515.713 53.545 520.634 65.835 524.404C77.055 527.844 88.775 530.574 100.505 531.424C111.515 532.224 122.015 528.074 129.225 519.494C139.135 507.704 136.255 493.454 129.495 480.934C116.245 456.414 97.875 432.793 71.595 421.533C51.445 412.903 25.475 410.984 8.32496 427.244C-1.96504 436.994 -1.16503 454.674 2.48497 467.214C7.17497 483.274 17.735 497.324 30.695 507.704C31.465 508.284 32.525 507.223 31.775 506.623Z" fill="#FFE4DD"/>
</svg>
