<svg width="1191" height="599" viewBox="0 0 1191 599" fill="none" xmlns="http://www.w3.org/2000/svg">
<path opacity="0.4" d="M1061.68 31.2411C1049.22 24.5337 1053.35 6.01602 1066.45 5.44706C1079.55 4.87809 1098.63 25.1538 1096.4 33.7604C1094.17 42.367 1071.07 36.3005 1061.68 31.2411Z" fill="#FFB8A4"/>
<path opacity="0.3" d="M1177 571C1169.27 571 1163 577.268 1163 585.001C1163 592.732 1169.27 599 1177 599C1184.73 599 1191 592.732 1191 585.001C1191 577.268 1184.73 571 1177 571ZM1177 593.318C1172.41 593.318 1168.68 589.594 1168.68 584.999C1168.68 580.406 1172.41 576.68 1177 576.68C1181.59 576.68 1185.32 580.404 1185.32 584.999C1185.32 589.594 1181.59 593.318 1177 593.318Z" fill="#07A47C"/>
<circle cx="174" cy="133" r="10" fill="#FDD13C"/>
<circle opacity="0.4" cx="23" cy="434" r="22" stroke="#FDD13C" stroke-width="2"/>
</svg>
