<svg width="1206" height="507" viewBox="0 0 1206 507" fill="none" xmlns="http://www.w3.org/2000/svg">
<path d="M240.605 395.873C208.756 378.724 219.319 331.381 252.813 329.926C286.308 328.472 335.093 380.31 329.382 402.314C323.671 424.318 264.623 408.808 240.605 395.873Z" fill="#FFE9D6"/>
<path d="M28.9736 38.6545C16.0759 32.2057 9.5 22.0975 9.5 13.9767C9.5 9.9336 11.1233 6.36987 14.4227 3.92535C17.7343 1.47169 22.7903 0.105883 29.7144 0.600462C45.0862 1.6988 59.9769 10.8637 70.2878 21.7776C75.4395 27.2306 79.4268 33.0987 81.7527 38.578C84.0845 44.0712 84.7167 49.0998 83.2818 52.9262C82.5664 54.8341 81.4733 56.1538 80.0892 57.0138C78.6985 57.8779 76.9774 58.3001 74.9761 58.3456C70.9583 58.4369 65.9249 57.0081 60.489 54.7888C55.0652 52.5745 49.2974 49.5978 43.8251 46.643C42.08 45.7008 40.3635 44.7599 38.6981 43.847C35.1519 41.9032 31.8376 40.0865 28.9736 38.6545Z" stroke="#FC981F"/>
<path d="M1088.64 70.2185C1079.02 67.3496 1070.64 93.7525 1088.35 89.5444C1101.99 86.3113 1105.56 75.2615 1088.64 70.2185Z" fill="#FEEECD"/>
<path d="M9.19228 444.186C0.883633 441.747 -6.35993 464.19 8.9425 460.613C20.7151 457.865 23.8019 448.472 9.19228 444.186Z" fill="#FFD99B"/>
<path opacity="0.3" d="M1197.88 475.402C1196.13 457.828 1148.16 461.295 1166.63 487.492C1180.83 507.648 1200.95 506.302 1197.88 475.402Z" fill="#FFD99B"/>
</svg>
