<svg width="564" height="325" viewBox="0 0 564 325" fill="none" xmlns="http://www.w3.org/2000/svg">
<path d="M19.9736 38.6545C7.07592 32.2057 0.5 22.0975 0.5 13.9767C0.5 9.9336 2.12331 6.36987 5.42266 3.92535C8.73435 1.47169 13.7903 0.105883 20.7144 0.600462C36.0862 1.6988 50.9769 10.8637 61.2878 21.7776C66.4395 27.2306 70.4268 33.0987 72.7527 38.578C75.0845 44.0712 75.7167 49.0998 74.2818 52.9262C73.5664 54.8341 72.4733 56.1538 71.0892 57.0138C69.6985 57.8779 67.9774 58.3001 65.9761 58.3456C61.9583 58.4369 56.9249 57.0081 51.489 54.7888C46.0652 52.5745 40.2974 49.5978 34.8251 46.643C33.0801 45.7008 31.3636 44.7599 29.6982 43.847C26.152 41.9033 22.8376 40.0865 19.9736 38.6545Z" stroke="#FC981F"/>
<path d="M24.4493 295.328C9.58124 291.024 -3.38092 330.629 24.0024 324.317C45.069 319.467 50.5929 302.892 24.4493 295.328Z" fill="#FEEECD"/>
<path opacity="0.3" d="M79 143C71.2688 143 65 149.268 65 157.001C65 164.732 71.2674 171 79 171C86.7312 171 93 164.732 93 157.001C93 149.268 86.7326 143 79 143ZM79 165.318C74.4067 165.318 70.6816 161.594 70.6816 156.999C70.6816 152.406 74.4053 148.68 79 148.68C83.5932 148.68 87.3184 152.404 87.3184 156.999C87.3184 161.594 83.5947 165.318 79 165.318Z" fill="#07A47C"/>
<path d="M539.449 29.3278C524.581 25.0244 511.619 64.6288 539.002 58.3166C560.069 53.4669 565.593 36.8923 539.449 29.3278Z" fill="#FEEECD"/>
<path d="M543.211 283.873L543.211 283.873C550.855 286.129 556.133 289.043 559.383 292.199C562.623 295.345 563.836 298.715 563.421 301.945C563.004 305.191 560.929 308.399 557.382 311.172C553.837 313.942 548.855 316.251 542.712 317.693L542.712 317.693C534.753 319.564 529.895 317.999 527.238 314.889C524.552 311.745 523.967 306.86 524.94 301.785C525.91 296.724 528.41 291.592 531.725 288.057C535.044 284.518 539.092 282.657 543.211 283.873Z" stroke="#FC5B23"/>
</svg>
