<svg width="688" height="447" viewBox="0 0 688 447" fill="none" xmlns="http://www.w3.org/2000/svg">
<path d="M670.327 248.581C599.252 244.028 649.553 374.511 561.414 368.865C539.459 367.458 479.568 332.558 480.54 380.418C480.795 392.85 662.118 392.351 662.118 392.351C662.118 392.351 708.249 251.011 670.327 248.581Z" fill="#18A795"/>
<path d="M2.40823 322.815C3.73775 322.815 4.81549 321.737 4.81549 320.407C4.81549 319.078 3.73775 318 2.40823 318C1.07871 318 0.000976562 319.078 0.000976562 320.407C0.000976562 321.737 1.07871 322.815 2.40823 322.815Z" fill="#FF7707"/>
<path d="M23.048 322.815C24.3775 322.815 25.4552 321.737 25.4552 320.407C25.4552 319.078 24.3775 318 23.048 318C21.7185 318 20.6406 319.078 20.6406 320.407C20.6406 321.737 21.7185 322.815 23.048 322.815Z" fill="#FF7707"/>
<path d="M43.6885 322.815C45.018 322.815 46.0959 321.737 46.0959 320.407C46.0959 319.078 45.018 318 43.6885 318C42.359 318 41.2812 319.078 41.2812 320.407C41.2812 321.737 42.359 322.815 43.6885 322.815Z" fill="#FF7707"/>
<path d="M66.7355 320.407C66.7355 321.737 65.6583 322.815 64.3282 322.815C62.998 322.815 61.9209 321.737 61.9209 320.407C61.9209 319.077 62.998 318 64.3282 318C65.6583 318 66.7355 319.077 66.7355 320.407Z" fill="#FF7707"/>
<path d="M84.9689 322.815C86.2984 322.815 87.3761 321.737 87.3761 320.407C87.3761 319.078 86.2984 318 84.9689 318C83.6394 318 82.5615 319.078 82.5615 320.407C82.5615 321.737 83.6394 322.815 84.9689 322.815Z" fill="#FF7707"/>
<path d="M105.609 322.815C106.938 322.815 108.016 321.737 108.016 320.407C108.016 319.078 106.938 318 105.609 318C104.279 318 103.201 319.078 103.201 320.407C103.201 321.737 104.279 322.815 105.609 322.815Z" fill="#FF7707"/>
<path d="M126.244 322.815C127.574 322.815 128.652 321.737 128.652 320.407C128.652 319.078 127.574 318 126.244 318C124.915 318 123.837 319.078 123.837 320.407C123.837 321.737 124.915 322.815 126.244 322.815Z" fill="#FF7707"/>
<path d="M2.40823 343.445C3.73775 343.445 4.81549 342.368 4.81549 341.038C4.81549 339.709 3.73775 338.631 2.40823 338.631C1.07871 338.631 0.000976562 339.709 0.000976562 341.038C0.000976562 342.368 1.07871 343.445 2.40823 343.445Z" fill="#FF7707"/>
<path d="M23.048 343.445C24.3775 343.445 25.4552 342.368 25.4552 341.038C25.4552 339.709 24.3775 338.631 23.048 338.631C21.7185 338.631 20.6406 339.709 20.6406 341.038C20.6406 342.368 21.7185 343.445 23.048 343.445Z" fill="#FF7707"/>
<path d="M43.6885 343.445C45.018 343.445 46.0959 342.368 46.0959 341.038C46.0959 339.709 45.018 338.631 43.6885 338.631C42.359 338.631 41.2812 339.709 41.2812 341.038C41.2812 342.368 42.359 343.445 43.6885 343.445Z" fill="#FF7707"/>
<path d="M66.7355 341.038C66.7355 342.368 65.6583 343.445 64.3282 343.445C62.998 343.445 61.9209 342.368 61.9209 341.038C61.9209 339.708 62.998 338.631 64.3282 338.631C65.6583 338.631 66.7355 339.713 66.7355 341.038Z" fill="#FF7707"/>
<path d="M84.9689 343.445C86.2984 343.445 87.3761 342.368 87.3761 341.038C87.3761 339.709 86.2984 338.631 84.9689 338.631C83.6394 338.631 82.5615 339.709 82.5615 341.038C82.5615 342.368 83.6394 343.445 84.9689 343.445Z" fill="#FF7707"/>
<path d="M105.609 343.445C106.938 343.445 108.016 342.368 108.016 341.038C108.016 339.709 106.938 338.631 105.609 338.631C104.279 338.631 103.201 339.709 103.201 341.038C103.201 342.368 104.279 343.445 105.609 343.445Z" fill="#FF7707"/>
<path d="M126.244 343.445C127.574 343.445 128.652 342.368 128.652 341.038C128.652 339.709 127.574 338.631 126.244 338.631C124.915 338.631 123.837 339.709 123.837 341.038C123.837 342.368 124.915 343.445 126.244 343.445Z" fill="#FF7707"/>
<path d="M2.40823 363.954C3.73775 363.954 4.81549 362.876 4.81549 361.547C4.81549 360.217 3.73775 359.14 2.40823 359.14C1.07871 359.14 0.000976562 360.217 0.000976562 361.547C0.000976562 362.876 1.07871 363.954 2.40823 363.954Z" fill="#FF7707"/>
<path d="M23.048 363.954C24.3775 363.954 25.4552 362.876 25.4552 361.547C25.4552 360.217 24.3775 359.14 23.048 359.14C21.7185 359.14 20.6406 360.217 20.6406 361.547C20.6406 362.876 21.7185 363.954 23.048 363.954Z" fill="#FF7707"/>
<path d="M43.6885 363.954C45.018 363.954 46.0959 362.876 46.0959 361.547C46.0959 360.217 45.018 359.14 43.6885 359.14C42.359 359.14 41.2812 360.217 41.2812 361.547C41.2812 362.876 42.359 363.954 43.6885 363.954Z" fill="#FF7707"/>
<path d="M66.7355 361.547C66.7355 362.877 65.6583 363.954 64.3282 363.954C62.998 363.954 61.9209 362.877 61.9209 361.547C61.9209 360.217 62.998 359.14 64.3282 359.14C65.6583 359.14 66.7355 360.217 66.7355 361.547Z" fill="#FF7707"/>
<path d="M84.9689 363.954C86.2984 363.954 87.3761 362.876 87.3761 361.547C87.3761 360.217 86.2984 359.14 84.9689 359.14C83.6394 359.14 82.5615 360.217 82.5615 361.547C82.5615 362.876 83.6394 363.954 84.9689 363.954Z" fill="#FF7707"/>
<path d="M105.609 363.954C106.938 363.954 108.016 362.876 108.016 361.547C108.016 360.217 106.938 359.14 105.609 359.14C104.279 359.14 103.201 360.217 103.201 361.547C103.201 362.876 104.279 363.954 105.609 363.954Z" fill="#FF7707"/>
<path d="M126.244 363.954C127.574 363.954 128.652 362.876 128.652 361.547C128.652 360.217 127.574 359.14 126.244 359.14C124.915 359.14 123.837 360.217 123.837 361.547C123.837 362.876 124.915 363.954 126.244 363.954Z" fill="#FF7707"/>
<path d="M2.40823 384.594C3.73775 384.594 4.81549 383.516 4.81549 382.187C4.81549 380.857 3.73775 379.779 2.40823 379.779C1.07871 379.779 0.000976562 380.857 0.000976562 382.187C0.000976562 383.516 1.07871 384.594 2.40823 384.594Z" fill="#FF7707"/>
<path d="M23.048 384.594C24.3775 384.594 25.4552 383.516 25.4552 382.187C25.4552 380.857 24.3775 379.779 23.048 379.779C21.7185 379.779 20.6406 380.857 20.6406 382.187C20.6406 383.516 21.7185 384.594 23.048 384.594Z" fill="#FF7707"/>
<path d="M43.6885 384.594C45.018 384.594 46.0959 383.516 46.0959 382.187C46.0959 380.857 45.018 379.779 43.6885 379.779C42.359 379.779 41.2812 380.857 41.2812 382.187C41.2812 383.516 42.359 384.594 43.6885 384.594Z" fill="#FF7707"/>
<path d="M66.7355 382.187C66.7355 383.517 65.6583 384.594 64.3282 384.594C62.998 384.594 61.9209 383.517 61.9209 382.187C61.9209 380.856 62.998 379.779 64.3282 379.779C65.6583 379.779 66.7355 380.856 66.7355 382.187Z" fill="#FF7707"/>
<path d="M84.9689 384.594C86.2984 384.594 87.3761 383.516 87.3761 382.187C87.3761 380.857 86.2984 379.779 84.9689 379.779C83.6394 379.779 82.5615 380.857 82.5615 382.187C82.5615 383.516 83.6394 384.594 84.9689 384.594Z" fill="#FF7707"/>
<path d="M105.609 384.594C106.938 384.594 108.016 383.516 108.016 382.187C108.016 380.857 106.938 379.779 105.609 379.779C104.279 379.779 103.201 380.857 103.201 382.187C103.201 383.516 104.279 384.594 105.609 384.594Z" fill="#FF7707"/>
<path d="M126.244 384.594C127.574 384.594 128.652 383.516 128.652 382.187C128.652 380.857 127.574 379.779 126.244 379.779C124.915 379.779 123.837 380.857 123.837 382.187C123.837 383.516 124.915 384.594 126.244 384.594Z" fill="#FF7707"/>
<path d="M2.40823 405.225C3.73775 405.225 4.81549 404.147 4.81549 402.817C4.81549 401.488 3.73775 400.41 2.40823 400.41C1.07871 400.41 0.000976562 401.488 0.000976562 402.817C0.000976562 404.147 1.07871 405.225 2.40823 405.225Z" fill="#FF7707"/>
<path d="M23.048 405.225C24.3775 405.225 25.4552 404.147 25.4552 402.817C25.4552 401.488 24.3775 400.41 23.048 400.41C21.7185 400.41 20.6406 401.488 20.6406 402.817C20.6406 404.147 21.7185 405.225 23.048 405.225Z" fill="#FF7707"/>
<path d="M43.6885 405.225C45.018 405.225 46.0959 404.147 46.0959 402.817C46.0959 401.488 45.018 400.41 43.6885 400.41C42.359 400.41 41.2812 401.488 41.2812 402.817C41.2812 404.147 42.359 405.225 43.6885 405.225Z" fill="#FF7707"/>
<path d="M66.7355 402.817C66.7355 404.148 65.6583 405.225 64.3282 405.225C62.998 405.225 61.9209 404.148 61.9209 402.817C61.9209 401.487 62.998 400.41 64.3282 400.41C65.6583 400.41 66.7355 401.487 66.7355 402.817Z" fill="#FF7707"/>
<path d="M84.9689 405.225C86.2984 405.225 87.3761 404.147 87.3761 402.817C87.3761 401.488 86.2984 400.41 84.9689 400.41C83.6394 400.41 82.5615 401.488 82.5615 402.817C82.5615 404.147 83.6394 405.225 84.9689 405.225Z" fill="#FF7707"/>
<path d="M105.609 405.225C106.938 405.225 108.016 404.147 108.016 402.817C108.016 401.488 106.938 400.41 105.609 400.41C104.279 400.41 103.201 401.488 103.201 402.817C103.201 404.147 104.279 405.225 105.609 405.225Z" fill="#FF7707"/>
<path d="M126.244 405.225C127.574 405.225 128.652 404.147 128.652 402.817C128.652 401.488 127.574 400.41 126.244 400.41C124.915 400.41 123.837 401.488 123.837 402.817C123.837 404.147 124.915 405.225 126.244 405.225Z" fill="#FF7707"/>
<path d="M2.40823 425.734C3.73775 425.734 4.81549 424.656 4.81549 423.326C4.81549 421.997 3.73775 420.919 2.40823 420.919C1.07871 420.919 0.000976562 421.997 0.000976562 423.326C0.000976562 424.656 1.07871 425.734 2.40823 425.734Z" fill="#FF7707"/>
<path d="M23.048 425.734C24.3775 425.734 25.4552 424.656 25.4552 423.326C25.4552 421.997 24.3775 420.919 23.048 420.919C21.7185 420.919 20.6406 421.997 20.6406 423.326C20.6406 424.656 21.7185 425.734 23.048 425.734Z" fill="#FF7707"/>
<path d="M43.6885 425.734C45.018 425.734 46.0959 424.656 46.0959 423.326C46.0959 421.997 45.018 420.919 43.6885 420.919C42.359 420.919 41.2812 421.997 41.2812 423.326C41.2812 424.656 42.359 425.734 43.6885 425.734Z" fill="#FF7707"/>
<path d="M66.7355 423.326C66.7355 424.656 65.6583 425.734 64.3282 425.734C62.998 425.734 61.9209 424.656 61.9209 423.326C61.9209 421.996 62.998 420.919 64.3282 420.919C65.6583 420.919 66.7355 421.996 66.7355 423.326Z" fill="#FF7707"/>
<path d="M84.9689 425.734C86.2984 425.734 87.3761 424.656 87.3761 423.326C87.3761 421.997 86.2984 420.919 84.9689 420.919C83.6394 420.919 82.5615 421.997 82.5615 423.326C82.5615 424.656 83.6394 425.734 84.9689 425.734Z" fill="#FF7707"/>
<path d="M105.609 425.734C106.938 425.734 108.016 424.656 108.016 423.326C108.016 421.997 106.938 420.919 105.609 420.919C104.279 420.919 103.201 421.997 103.201 423.326C103.201 424.656 104.279 425.734 105.609 425.734Z" fill="#FF7707"/>
<path d="M126.244 425.734C127.574 425.734 128.652 424.656 128.652 423.326C128.652 421.997 127.574 420.919 126.244 420.919C124.915 420.919 123.837 421.997 123.837 423.326C123.837 424.656 124.915 425.734 126.244 425.734Z" fill="#FF7707"/>
<path d="M2.40823 446.5C3.73775 446.5 4.81549 445.422 4.81549 444.093C4.81549 442.763 3.73775 441.686 2.40823 441.686C1.07871 441.686 0.000976562 442.763 0.000976562 444.093C0.000976562 445.422 1.07871 446.5 2.40823 446.5Z" fill="#FF7707"/>
<path d="M23.048 446.5C24.3775 446.5 25.4552 445.422 25.4552 444.093C25.4552 442.763 24.3775 441.686 23.048 441.686C21.7185 441.686 20.6406 442.763 20.6406 444.093C20.6406 445.422 21.7185 446.5 23.048 446.5Z" fill="#FF7707"/>
<path d="M43.6885 446.5C45.018 446.5 46.0959 445.422 46.0959 444.093C46.0959 442.763 45.018 441.686 43.6885 441.686C42.359 441.686 41.2812 442.763 41.2812 444.093C41.2812 445.422 42.359 446.5 43.6885 446.5Z" fill="#FF7707"/>
<path d="M66.7355 444.093C66.7355 445.423 65.6583 446.5 64.3282 446.5C62.998 446.5 61.9209 445.423 61.9209 444.093C61.9209 442.763 62.998 441.686 64.3282 441.686C65.6583 441.686 66.7355 442.763 66.7355 444.093Z" fill="#FF7707"/>
<path d="M84.9689 446.5C86.2984 446.5 87.3761 445.422 87.3761 444.093C87.3761 442.763 86.2984 441.686 84.9689 441.686C83.6394 441.686 82.5615 442.763 82.5615 444.093C82.5615 445.422 83.6394 446.5 84.9689 446.5Z" fill="#FF7707"/>
<path d="M105.609 446.5C106.938 446.5 108.016 445.422 108.016 444.093C108.016 442.763 106.938 441.686 105.609 441.686C104.279 441.686 103.201 442.763 103.201 444.093C103.201 445.422 104.279 446.5 105.609 446.5Z" fill="#FF7707"/>
<path d="M126.244 446.5C127.574 446.5 128.652 445.422 128.652 444.093C128.652 442.763 127.574 441.686 126.244 441.686C124.915 441.686 123.837 442.763 123.837 444.093C123.837 445.422 124.915 446.5 126.244 446.5Z" fill="#FF7707"/>
<path d="M53.6043 79.8726C21.7555 62.7241 32.3178 15.3809 65.8124 13.9262C99.3071 12.4716 148.092 64.3095 142.381 86.3136C136.671 108.318 77.6216 92.8078 53.6043 79.8726Z" fill="#FFB8A4"/>
</svg>
