<svg width="1217" height="562" viewBox="0 0 1217 562" fill="none" xmlns="http://www.w3.org/2000/svg">
<path opacity="0.3" d="M1203 0C1195.27 0 1189 6.26771 1189 14.0007C1189 21.7323 1195.27 28 1203 28C1210.73 28 1217 21.7323 1217 14.0007C1217 6.26771 1210.73 0 1203 0ZM1203 22.3181C1198.41 22.3181 1194.68 18.5942 1194.68 13.9993C1194.68 9.4058 1198.41 5.68046 1203 5.68046C1207.59 5.68046 1211.32 9.40439 1211.32 13.9993C1211.32 18.5942 1207.59 22.3181 1203 22.3181Z" fill="#07A47C"/>
<circle cx="10" cy="233" r="10" fill="#FDD13C"/>
<path d="M1033.21 28.8729L1033.21 28.8729C1040.86 31.1291 1046.13 34.043 1049.38 37.1986C1052.62 40.3453 1053.84 43.7152 1053.42 46.9446C1053 50.1912 1050.93 53.3992 1047.38 56.172C1043.84 58.9424 1038.85 61.2507 1032.71 62.6932L1032.71 62.6932C1024.75 64.5644 1019.9 62.9995 1017.24 59.8891C1014.55 56.7453 1013.97 51.8601 1014.94 46.7847C1015.91 41.7235 1018.41 36.5925 1021.73 33.0574C1025.04 29.5183 1029.09 27.6569 1033.21 28.8729Z" stroke="#FC5B23"/>
<path d="M1065.93 448.645C1037.07 440.181 1011.91 518.07 1065.06 505.656C1105.96 496.118 1116.68 463.521 1065.93 448.645Z" fill="#FC5B23"/>
<path d="M1134.38 439.155L1134.38 439.155C1130.65 447.188 1122.99 451.907 1111.25 452.448C1099.49 452.99 1083.67 449.326 1063.79 440.604C1055.1 436.792 1039.42 428.133 1028.97 416.965C1023.75 411.382 1019.88 405.213 1018.8 398.747C1017.73 392.309 1019.42 385.508 1025.45 378.603L1025.45 378.603C1031.43 371.769 1042.58 369.005 1055.76 369.572C1068.91 370.138 1083.95 374.019 1097.52 380.309C1111.1 386.601 1123.15 395.281 1130.39 405.411C1137.61 415.52 1140.02 427.05 1134.38 439.155Z" stroke="#B7B0AE"/>
<path d="M181.839 75.4149C159.818 50.7145 183.7 13.313 212.952 22.5337C242.204 31.7544 267.941 91.5739 256.152 108.707C244.363 125.84 198.444 94.0445 181.839 75.4149Z" fill="#FFB8A4"/>
<path d="M598.345 431.751C610.388 424.625 624.076 420.108 638.113 419.647C651.013 419.226 667.747 422.497 676.384 433.112C682.911 441.135 683.112 453.599 681.911 463.375C680.618 473.907 674.512 483.851 668.054 492.038C651.786 512.619 626.725 523.338 601.597 528.431C586.874 531.413 568.52 535.408 556.972 522.935C548.756 514.061 546.848 500.289 551.584 489.357C556.25 478.613 562.999 468.58 570.072 459.3C578.069 448.819 587.207 438.63 598.504 431.64C599.325 431.137 598.374 429.976 597.557 430.47C586.542 437.278 577.549 447.169 569.681 457.335C562.5 466.617 555.806 476.617 550.868 487.291C546.23 497.309 546.404 508.598 551.885 518.374C559.414 531.809 573.763 534.148 587.864 532.246C615.483 528.511 644.069 519.667 663.886 499.058C679.077 483.255 690.046 459.637 680.891 437.85C675.404 424.779 658.581 419.283 645.56 418.268C628.879 416.984 612.005 421.9 597.716 430.359C596.902 430.874 597.519 432.24 598.345 431.751Z" fill="#FFE4DD"/>
</svg>
