<svg width="56" height="51" viewBox="0 0 56 51" fill="none" xmlns="http://www.w3.org/2000/svg">
<path d="M8.14032 1.95513C9.0843 2.08872 10.0192 2.32251 10.9119 2.65953C11.2653 2.79313 11.6414 2.96316 11.874 3.08005C12.2833 3.28803 12.5386 3.42617 12.9856 3.71916C14.5685 4.75451 15.955 6.19519 17.0455 7.77098C19.6026 11.463 20.4046 16.2131 19.5165 20.5898C18.6737 24.7373 16.3538 28.6449 12.5974 30.7201C10.933 31.6386 9.01031 32.2443 7.09666 32.094C6.74927 32.0667 6.39885 32.012 6.06808 31.9133C5.83699 31.845 5.9835 31.8997 5.76449 31.7919C5.81282 31.8147 5.86268 31.8298 5.90799 31.8587C6.08168 31.9695 5.67689 31.6765 5.8234 31.798C5.24643 31.3152 4.74649 30.7353 4.384 30.0537C2.63196 26.77 3.37355 22.5664 5.11804 19.4421C7.09362 15.905 10.6113 13.347 14.3389 11.9442C18.1844 10.496 22.4753 10.1453 26.4809 11.0971C27.3841 11.3112 28.2797 11.589 29.1376 11.9412C29.9849 12.2888 30.7794 12.676 31.4923 13.0965C33.2187 14.1166 34.7834 15.3706 36.2153 16.7779C43.092 23.538 45.9149 33.3738 46.2472 42.8133C46.2925 44.1098 46.2895 45.4047 46.2487 46.7012C46.2306 47.2978 47.2622 47.7805 47.7017 48.0083C47.8271 48.0735 49.5912 48.8402 49.6033 48.4409C49.9386 37.7353 47.4963 26.5226 40.0033 18.5176C33.2882 11.3431 23.004 6.766 13.2076 9.39535C8.92874 10.5445 4.77671 13.098 2.28307 16.8477C0.0960442 20.1359 -0.902326 24.968 1.02794 28.6069C3.2195 32.7361 8.70219 34.907 13.1336 33.691C17.6512 32.4523 20.9272 28.6646 22.353 24.2955C23.877 19.6274 23.4405 14.3079 20.9453 10.0588C18.3505 5.63804 13.8934 2.43029 9.07827 0.842361C7.89716 0.452209 6.69791 0.183508 5.46846 0.0104442C4.64379 -0.10645 5.59231 0.793783 5.76298 0.919785C6.45322 1.42835 7.28846 1.8352 8.14032 1.95513Z" fill="#18A694"/>
<path d="M40.5293 41.9038C42.6196 44.4573 44.71 47.0092 46.8004 49.5627C47.0813 49.9057 49.8106 51.4952 50.087 50.8454C52.0535 46.2016 54.02 41.5577 55.9865 36.9154C56.2448 36.3051 52.7981 34.7566 52.5579 35.3244C50.5914 39.9682 48.6249 44.6121 46.6584 49.2545C47.7534 49.6826 48.8484 50.1092 49.945 50.5373C47.8546 47.9838 45.7642 45.4319 43.6739 42.8784C43.1619 42.253 42.1424 41.875 41.3947 41.6473C41.1062 41.5592 40.0339 41.2996 40.5293 41.9038Z" fill="#18A694"/>
</svg>
