<svg width="1265" height="657" viewBox="0 0 1265 657" fill="none" xmlns="http://www.w3.org/2000/svg">
<path d="M122.789 380.967C99.4392 387.167 83.9192 346.487 54.3092 348.527C26.1192 350.467 -3.00089 390.307 0.249113 424.217C4.76911 471.417 71.1992 498.857 119.189 499.907C172.069 501.057 229.509 470.737 248.939 420.617C251.339 414.437 271.019 363.657 241.729 334.117C222.439 314.667 187.999 310.577 166.039 323.307C137.969 339.567 144.109 375.307 122.789 380.967Z" fill="#FDD13C"/>
<path d="M71.775 91.6235C60.855 82.8735 51.795 71.6635 46.405 58.6935C41.455 46.7735 38.605 29.9635 45.485 18.1335C50.685 9.1935 62.275 4.60351 71.845 2.27351C82.155 -0.236485 93.615 1.96351 103.555 5.11351C128.555 13.0635 147.435 32.7235 161.075 54.4335C169.065 67.1535 179.285 82.9135 171.695 98.1235C166.295 108.943 154.085 115.594 142.185 115.024C130.485 114.454 118.715 111.683 107.535 108.343C94.905 104.563 82.145 99.6135 71.615 91.5135C70.855 90.9235 70.105 92.2235 70.855 92.8135C81.115 100.713 93.545 105.634 105.835 109.404C117.055 112.844 128.775 115.574 140.505 116.424C151.515 117.224 162.015 113.074 169.225 104.494C179.135 92.7035 176.255 78.4535 169.495 65.9335C156.245 41.4135 137.875 17.7935 111.595 6.53349C91.445 -2.09651 65.475 -4.01648 48.325 12.2435C38.035 21.9935 38.835 39.6735 42.485 52.2135C47.175 68.2735 57.735 82.3235 70.695 92.7035C71.465 93.2835 72.525 92.2235 71.775 91.6235Z" fill="#FFE4DD"/>
<path d="M1159.61 614.873C1127.76 597.724 1138.32 550.381 1171.81 548.926C1205.31 547.472 1254.09 599.31 1248.38 621.314C1242.67 643.318 1183.62 627.808 1159.61 614.873Z" fill="#FFE9D6"/>
</svg>
