<svg width="368" height="358" viewBox="0 0 368 358" fill="none" xmlns="http://www.w3.org/2000/svg">
<path d="M282.271 343.684C275.992 338.653 270.782 332.207 267.683 324.749C264.837 317.895 263.198 308.229 267.154 301.427C270.144 296.286 276.808 293.647 282.311 292.307C288.24 290.864 294.829 292.129 300.545 293.94C314.92 298.512 325.777 309.816 333.62 322.3C338.214 329.614 344.091 338.676 339.726 347.421C336.621 353.643 329.6 357.467 322.758 357.139C316.03 356.811 309.262 355.219 302.834 353.298C295.571 351.125 288.234 348.278 282.179 343.621C281.742 343.281 281.311 344.029 281.742 344.368C287.642 348.911 294.789 351.74 301.856 353.908C308.308 355.886 315.047 357.455 321.792 357.944C328.123 358.404 334.16 356.018 338.306 351.084C344.004 344.305 342.348 336.111 338.461 328.912C330.842 314.813 320.279 301.231 305.168 294.757C293.582 289.794 278.648 288.691 268.787 298.04C262.87 303.646 263.33 313.812 265.429 321.023C268.126 330.258 274.198 338.336 281.65 344.305C282.093 344.638 282.702 344.029 282.271 343.684Z" fill="#FFE4DD"/>
<path d="M267.054 202.878C264.464 223.499 355.996 234.952 383.545 203.66C400.286 184.642 267.054 202.878 267.054 202.878Z" fill="#FC981F"/>
<path d="M15.9106 30.7817C5.68874 25.6423 0.5 17.5983 0.5 11.1624C0.5 7.96137 1.77696 5.14631 4.36914 3.21506C6.97332 1.27487 10.9613 0.186134 16.4444 0.579963C28.6186 1.45467 40.4226 8.75614 48.6007 17.4607C52.6859 21.8089 55.8453 26.4856 57.6871 30.8485C59.5347 35.2253 60.0269 39.2128 58.9 42.2347C58.3385 43.7403 57.4836 44.7754 56.4057 45.4488C55.3212 46.1264 53.9741 46.4607 52.3977 46.4967C49.2292 46.5691 45.2483 45.4352 40.9338 43.6639C36.6315 41.8978 32.0546 39.5227 27.7089 37.1631C26.3246 36.4115 24.9621 35.6605 23.6398 34.9317C20.8223 33.3787 18.187 31.9262 15.9106 30.7817Z" stroke="#FC981F"/>
<path d="M330.088 343.951C300.657 345.55 287.921 307.689 310.606 292.288C333.291 276.886 389.221 292.436 394.583 310.377C399.944 328.318 352.285 342.747 330.088 343.951Z" fill="#FFB8A4"/>
</svg>
