<svg width="65" height="65" viewBox="0 0 65 65" fill="none" xmlns="http://www.w3.org/2000/svg">
<path d="M1.21625 2.43304C1.88798 2.43304 2.4325 1.88849 2.4325 1.21676C2.4325 0.545033 1.88798 0.000488281 1.21625 0.000488281C0.544519 0.000488281 0 0.545033 0 1.21676C0 1.88849 0.544519 2.43304 1.21625 2.43304Z" fill="#FF7707"/>
<path d="M11.644 2.43255C12.3158 2.43255 12.8603 1.888 12.8603 1.21627C12.8603 0.544544 12.3158 0 11.644 0C10.9723 0 10.4277 0.544544 10.4277 1.21627C10.4277 1.888 10.9723 2.43255 11.644 2.43255Z" fill="#FF7707"/>
<path d="M22.0737 2.43255C22.7454 2.43255 23.29 1.888 23.29 1.21627C23.29 0.544544 22.7454 0 22.0737 0C21.4019 0 20.8574 0.544544 20.8574 1.21627C20.8574 1.888 21.4019 2.43255 22.0737 2.43255Z" fill="#FF7707"/>
<path d="M33.7177 1.21627C33.7177 1.8883 33.1734 2.43255 32.5014 2.43255C31.8294 2.43255 31.2852 1.8883 31.2852 1.21627C31.2852 0.544247 31.8294 0 32.5014 0C33.1734 0 33.7177 0.544247 33.7177 1.21627Z" fill="#FF7707"/>
<path d="M42.9292 2.43255C43.6009 2.43255 44.1454 1.888 44.1454 1.21627C44.1454 0.544544 43.6009 0 42.9292 0C42.2575 0 41.7129 0.544544 41.7129 1.21627C41.7129 1.888 42.2575 2.43255 42.9292 2.43255Z" fill="#FF7707"/>
<path d="M53.3569 2.43255C54.0287 2.43255 54.5732 1.888 54.5732 1.21627C54.5732 0.544544 54.0287 0 53.3569 0C52.6852 0 52.1406 0.544544 52.1406 1.21627C52.1406 1.888 52.6852 2.43255 53.3569 2.43255Z" fill="#FF7707"/>
<path d="M63.7836 2.43255C64.4554 2.43255 64.9999 1.888 64.9999 1.21627C64.9999 0.544544 64.4554 0 63.7836 0C63.1119 0 62.5674 0.544544 62.5674 1.21627C62.5674 1.888 63.1119 2.43255 63.7836 2.43255Z" fill="#FF7707"/>
<path d="M1.21625 12.8559C1.88798 12.8559 2.4325 12.3113 2.4325 11.6396C2.4325 10.9679 1.88798 10.4233 1.21625 10.4233C0.544519 10.4233 0 10.9679 0 11.6396C0 12.3113 0.544519 12.8559 1.21625 12.8559Z" fill="#FF7707"/>
<path d="M11.644 12.8559C12.3158 12.8559 12.8603 12.3113 12.8603 11.6396C12.8603 10.9679 12.3158 10.4233 11.644 10.4233C10.9723 10.4233 10.4277 10.9679 10.4277 11.6396C10.4277 12.3113 10.9723 12.8559 11.644 12.8559Z" fill="#FF7707"/>
<path d="M22.0737 12.8559C22.7454 12.8559 23.29 12.3113 23.29 11.6396C23.29 10.9679 22.7454 10.4233 22.0737 10.4233C21.4019 10.4233 20.8574 10.9679 20.8574 11.6396C20.8574 12.3113 21.4019 12.8559 22.0737 12.8559Z" fill="#FF7707"/>
<path d="M33.7177 11.6396C33.7177 12.3116 33.1734 12.8559 32.5014 12.8559C31.8294 12.8559 31.2852 12.3116 31.2852 11.6396C31.2852 10.9676 31.8294 10.4233 32.5014 10.4233C33.1734 10.4233 33.7177 10.97 33.7177 11.6396Z" fill="#FF7707"/>
<path d="M42.9292 12.8559C43.6009 12.8559 44.1454 12.3113 44.1454 11.6396C44.1454 10.9679 43.6009 10.4233 42.9292 10.4233C42.2575 10.4233 41.7129 10.9679 41.7129 11.6396C41.7129 12.3113 42.2575 12.8559 42.9292 12.8559Z" fill="#FF7707"/>
<path d="M53.3569 12.8559C54.0287 12.8559 54.5732 12.3113 54.5732 11.6396C54.5732 10.9679 54.0287 10.4233 53.3569 10.4233C52.6852 10.4233 52.1406 10.9679 52.1406 11.6396C52.1406 12.3113 52.6852 12.8559 53.3569 12.8559Z" fill="#FF7707"/>
<path d="M63.7836 12.8559C64.4554 12.8559 64.9999 12.3113 64.9999 11.6396C64.9999 10.9679 64.4554 10.4233 63.7836 10.4233C63.1119 10.4233 62.5674 10.9679 62.5674 11.6396C62.5674 12.3113 63.1119 12.8559 63.7836 12.8559Z" fill="#FF7707"/>
<path d="M1.21625 23.2187C1.88798 23.2187 2.4325 22.6741 2.4325 22.0024C2.4325 21.3307 1.88798 20.7861 1.21625 20.7861C0.544519 20.7861 0 21.3307 0 22.0024C0 22.6741 0.544519 23.2187 1.21625 23.2187Z" fill="#FF7707"/>
<path d="M11.644 23.2182C12.3158 23.2182 12.8603 22.6736 12.8603 22.0019C12.8603 21.3302 12.3158 20.7856 11.644 20.7856C10.9723 20.7856 10.4277 21.3302 10.4277 22.0019C10.4277 22.6736 10.9723 23.2182 11.644 23.2182Z" fill="#FF7707"/>
<path d="M22.0737 23.2182C22.7454 23.2182 23.29 22.6736 23.29 22.0019C23.29 21.3302 22.7454 20.7856 22.0737 20.7856C21.4019 20.7856 20.8574 21.3302 20.8574 22.0019C20.8574 22.6736 21.4019 23.2182 22.0737 23.2182Z" fill="#FF7707"/>
<path d="M33.7177 22.0019C33.7177 22.6739 33.1734 23.2182 32.5014 23.2182C31.8294 23.2182 31.2852 22.6739 31.2852 22.0019C31.2852 21.3299 31.8294 20.7856 32.5014 20.7856C33.1734 20.7856 33.7177 21.3299 33.7177 22.0019Z" fill="#FF7707"/>
<path d="M42.9292 23.2182C43.6009 23.2182 44.1454 22.6736 44.1454 22.0019C44.1454 21.3302 43.6009 20.7856 42.9292 20.7856C42.2575 20.7856 41.7129 21.3302 41.7129 22.0019C41.7129 22.6736 42.2575 23.2182 42.9292 23.2182Z" fill="#FF7707"/>
<path d="M53.3569 23.2182C54.0287 23.2182 54.5732 22.6736 54.5732 22.0019C54.5732 21.3302 54.0287 20.7856 53.3569 20.7856C52.6852 20.7856 52.1406 21.3302 52.1406 22.0019C52.1406 22.6736 52.6852 23.2182 53.3569 23.2182Z" fill="#FF7707"/>
<path d="M63.7836 23.2182C64.4554 23.2182 64.9999 22.6736 64.9999 22.0019C64.9999 21.3302 64.4554 20.7856 63.7836 20.7856C63.1119 20.7856 62.5674 21.3302 62.5674 22.0019C62.5674 22.6736 63.1119 23.2182 63.7836 23.2182Z" fill="#FF7707"/>
<path d="M1.21625 33.6469C1.88798 33.6469 2.4325 33.1024 2.4325 32.4306C2.4325 31.7589 1.88798 31.2144 1.21625 31.2144C0.544519 31.2144 0 31.7589 0 32.4306C0 33.1024 0.544519 33.6469 1.21625 33.6469Z" fill="#FF7707"/>
<path d="M11.644 33.6464C12.3158 33.6464 12.8603 33.1019 12.8603 32.4301C12.8603 31.7584 12.3158 31.2139 11.644 31.2139C10.9723 31.2139 10.4277 31.7584 10.4277 32.4301C10.4277 33.1019 10.9723 33.6464 11.644 33.6464Z" fill="#FF7707"/>
<path d="M22.0737 33.6464C22.7454 33.6464 23.29 33.1019 23.29 32.4301C23.29 31.7584 22.7454 31.2139 22.0737 31.2139C21.4019 31.2139 20.8574 31.7584 20.8574 32.4301C20.8574 33.1019 21.4019 33.6464 22.0737 33.6464Z" fill="#FF7707"/>
<path d="M33.7177 32.4301C33.7177 33.1022 33.1734 33.6464 32.5014 33.6464C31.8294 33.6464 31.2852 33.1022 31.2852 32.4301C31.2852 31.7581 31.8294 31.2139 32.5014 31.2139C33.1734 31.2139 33.7177 31.7581 33.7177 32.4301Z" fill="#FF7707"/>
<path d="M42.9292 33.6464C43.6009 33.6464 44.1454 33.1019 44.1454 32.4301C44.1454 31.7584 43.6009 31.2139 42.9292 31.2139C42.2575 31.2139 41.7129 31.7584 41.7129 32.4301C41.7129 33.1019 42.2575 33.6464 42.9292 33.6464Z" fill="#FF7707"/>
<path d="M53.3569 33.6464C54.0287 33.6464 54.5732 33.1019 54.5732 32.4301C54.5732 31.7584 54.0287 31.2139 53.3569 31.2139C52.6852 31.2139 52.1406 31.7584 52.1406 32.4301C52.1406 33.1019 52.6852 33.6464 53.3569 33.6464Z" fill="#FF7707"/>
<path d="M63.7836 33.6464C64.4554 33.6464 64.9999 33.1019 64.9999 32.4301C64.9999 31.7584 64.4554 31.2139 63.7836 31.2139C63.1119 31.2139 62.5674 31.7584 62.5674 32.4301C62.5674 33.1019 63.1119 33.6464 63.7836 33.6464Z" fill="#FF7707"/>
<path d="M1.21625 44.0698C1.88798 44.0698 2.4325 43.5252 2.4325 42.8535C2.4325 42.1817 1.88798 41.6372 1.21625 41.6372C0.544519 41.6372 0 42.1817 0 42.8535C0 43.5252 0.544519 44.0698 1.21625 44.0698Z" fill="#FF7707"/>
<path d="M11.644 44.0702C12.3158 44.0702 12.8603 43.5257 12.8603 42.854C12.8603 42.1822 12.3158 41.6377 11.644 41.6377C10.9723 41.6377 10.4277 42.1822 10.4277 42.854C10.4277 43.5257 10.9723 44.0702 11.644 44.0702Z" fill="#FF7707"/>
<path d="M22.0737 44.0702C22.7454 44.0702 23.29 43.5257 23.29 42.854C23.29 42.1822 22.7454 41.6377 22.0737 41.6377C21.4019 41.6377 20.8574 42.1822 20.8574 42.854C20.8574 43.5257 21.4019 44.0702 22.0737 44.0702Z" fill="#FF7707"/>
<path d="M33.7177 42.854C33.7177 43.526 33.1734 44.0702 32.5014 44.0702C31.8294 44.0702 31.2852 43.526 31.2852 42.854C31.2852 42.1819 31.8294 41.6377 32.5014 41.6377C33.1734 41.6377 33.7177 42.1819 33.7177 42.854Z" fill="#FF7707"/>
<path d="M42.9292 44.0702C43.6009 44.0702 44.1454 43.5257 44.1454 42.854C44.1454 42.1822 43.6009 41.6377 42.9292 41.6377C42.2575 41.6377 41.7129 42.1822 41.7129 42.854C41.7129 43.5257 42.2575 44.0702 42.9292 44.0702Z" fill="#FF7707"/>
<path d="M53.3569 44.0702C54.0287 44.0702 54.5732 43.5257 54.5732 42.854C54.5732 42.1822 54.0287 41.6377 53.3569 41.6377C52.6852 41.6377 52.1406 42.1822 52.1406 42.854C52.1406 43.5257 52.6852 44.0702 53.3569 44.0702Z" fill="#FF7707"/>
<path d="M63.7836 44.0702C64.4554 44.0702 64.9999 43.5257 64.9999 42.854C64.9999 42.1822 64.4554 41.6377 63.7836 41.6377C63.1119 41.6377 62.5674 42.1822 62.5674 42.854C62.5674 43.5257 63.1119 44.0702 63.7836 44.0702Z" fill="#FF7707"/>
<path d="M1.21625 54.4321C1.88798 54.4321 2.4325 53.8875 2.4325 53.2158C2.4325 52.5441 1.88798 51.9995 1.21625 51.9995C0.544519 51.9995 0 52.5441 0 53.2158C0 53.8875 0.544519 54.4321 1.21625 54.4321Z" fill="#FF7707"/>
<path d="M11.644 54.4321C12.3158 54.4321 12.8603 53.8875 12.8603 53.2158C12.8603 52.5441 12.3158 51.9995 11.644 51.9995C10.9723 51.9995 10.4277 52.5441 10.4277 53.2158C10.4277 53.8875 10.9723 54.4321 11.644 54.4321Z" fill="#FF7707"/>
<path d="M22.0737 54.4321C22.7454 54.4321 23.29 53.8875 23.29 53.2158C23.29 52.5441 22.7454 51.9995 22.0737 51.9995C21.4019 51.9995 20.8574 52.5441 20.8574 53.2158C20.8574 53.8875 21.4019 54.4321 22.0737 54.4321Z" fill="#FF7707"/>
<path d="M33.7177 53.2158C33.7177 53.8878 33.1734 54.4321 32.5014 54.4321C31.8294 54.4321 31.2852 53.8878 31.2852 53.2158C31.2852 52.5438 31.8294 51.9995 32.5014 51.9995C33.1734 51.9995 33.7177 52.5438 33.7177 53.2158Z" fill="#FF7707"/>
<path d="M42.9292 54.4321C43.6009 54.4321 44.1454 53.8875 44.1454 53.2158C44.1454 52.5441 43.6009 51.9995 42.9292 51.9995C42.2575 51.9995 41.7129 52.5441 41.7129 53.2158C41.7129 53.8875 42.2575 54.4321 42.9292 54.4321Z" fill="#FF7707"/>
<path d="M53.3569 54.4321C54.0287 54.4321 54.5732 53.8875 54.5732 53.2158C54.5732 52.5441 54.0287 51.9995 53.3569 51.9995C52.6852 51.9995 52.1406 52.5441 52.1406 53.2158C52.1406 53.8875 52.6852 54.4321 53.3569 54.4321Z" fill="#FF7707"/>
<path d="M63.7836 54.4321C64.4554 54.4321 64.9999 53.8875 64.9999 53.2158C64.9999 52.5441 64.4554 51.9995 63.7836 51.9995C63.1119 51.9995 62.5674 52.5441 62.5674 53.2158C62.5674 53.8875 63.1119 54.4321 63.7836 54.4321Z" fill="#FF7707"/>
<path d="M1.21625 64.9242C1.88798 64.9242 2.4325 64.3797 2.4325 63.708C2.4325 63.0362 1.88798 62.4917 1.21625 62.4917C0.544519 62.4917 0 63.0362 0 63.708C0 64.3797 0.544519 64.9242 1.21625 64.9242Z" fill="#FF7707"/>
<path d="M11.644 64.9242C12.3158 64.9242 12.8603 64.3797 12.8603 63.708C12.8603 63.0362 12.3158 62.4917 11.644 62.4917C10.9723 62.4917 10.4277 63.0362 10.4277 63.708C10.4277 64.3797 10.9723 64.9242 11.644 64.9242Z" fill="#FF7707"/>
<path d="M22.0737 64.9242C22.7454 64.9242 23.29 64.3797 23.29 63.708C23.29 63.0362 22.7454 62.4917 22.0737 62.4917C21.4019 62.4917 20.8574 63.0362 20.8574 63.708C20.8574 64.3797 21.4019 64.9242 22.0737 64.9242Z" fill="#FF7707"/>
<path d="M33.7177 63.708C33.7177 64.38 33.1734 64.9242 32.5014 64.9242C31.8294 64.9242 31.2852 64.38 31.2852 63.708C31.2852 63.036 31.8294 62.4917 32.5014 62.4917C33.1734 62.4917 33.7177 63.036 33.7177 63.708Z" fill="#FF7707"/>
<path d="M42.9292 64.9242C43.6009 64.9242 44.1454 64.3797 44.1454 63.708C44.1454 63.0362 43.6009 62.4917 42.9292 62.4917C42.2575 62.4917 41.7129 63.0362 41.7129 63.708C41.7129 64.3797 42.2575 64.9242 42.9292 64.9242Z" fill="#FF7707"/>
<path d="M53.3569 64.9242C54.0287 64.9242 54.5732 64.3797 54.5732 63.708C54.5732 63.0362 54.0287 62.4917 53.3569 62.4917C52.6852 62.4917 52.1406 63.0362 52.1406 63.708C52.1406 64.3797 52.6852 64.9242 53.3569 64.9242Z" fill="#FF7707"/>
<path d="M63.7836 64.9242C64.4554 64.9242 64.9999 64.3797 64.9999 63.708C64.9999 63.0362 64.4554 62.4917 63.7836 62.4917C63.1119 62.4917 62.5674 63.0362 62.5674 63.708C62.5674 64.3797 63.1119 64.9242 63.7836 64.9242Z" fill="#FF7707"/>
</svg>
