<svg width="1255" height="395" viewBox="0 0 1255 395" fill="none" xmlns="http://www.w3.org/2000/svg">
<path d="M19.9736 38.6545C7.07592 32.2057 0.5 22.0975 0.5 13.9767C0.5 9.9336 2.12331 6.36987 5.42266 3.92535C8.73435 1.47169 13.7903 0.105883 20.7144 0.600462C36.0862 1.6988 50.9769 10.8637 61.2878 21.7776C66.4395 27.2306 70.4268 33.0987 72.7527 38.578C75.0845 44.0712 75.7167 49.0998 74.2818 52.9262C73.5664 54.8341 72.4733 56.1538 71.0892 57.0138C69.6985 57.8779 67.9774 58.3001 65.9761 58.3456C61.9583 58.4369 56.9249 57.0081 51.489 54.7888C46.0652 52.5745 40.2974 49.5978 34.8251 46.643C33.08 45.7008 31.3635 44.7599 29.6981 43.847C26.1519 41.9032 22.8376 40.0865 19.9736 38.6545Z" stroke="#FC981F"/>
<path d="M1123.25 345.228L1123.25 345.228C1121.47 352.997 1118.88 358.444 1115.93 361.883C1112.99 365.312 1109.71 366.73 1106.46 366.515C1103.19 366.3 1099.86 364.426 1096.87 361.057C1093.89 357.69 1091.28 352.86 1089.46 346.818L1089.46 346.817C1087.1 338.99 1088.36 334.044 1091.3 331.2C1094.28 328.325 1099.11 327.44 1104.24 328.098C1109.35 328.753 1114.63 330.932 1118.36 334.022C1122.1 337.116 1124.21 341.042 1123.25 345.228Z" stroke="#FC5B23"/>
<path d="M1237.45 22.3278C1222.58 18.0244 1209.62 57.6288 1237 51.3166C1258.07 46.4669 1263.59 29.8923 1237.45 22.3278Z" fill="#FEEECD"/>
<path d="M155.449 365.328C140.581 361.024 127.619 400.629 155.002 394.317C176.069 389.467 181.593 372.892 155.449 365.328Z" fill="#FFD99B"/>
</svg>
