<svg width="725" height="175" viewBox="0 0 725 175" fill="none" xmlns="http://www.w3.org/2000/svg">
<circle cx="689" cy="140" r="10" fill="#FDD13C"/>
<path d="M711 0C703.269 0 697 6.26771 697 14.0007C697 21.7323 703.267 28 711 28C718.731 28 725 21.7323 725 14.0007C725 6.26771 718.733 0 711 0ZM711 22.3181C706.407 22.3181 702.682 18.5942 702.682 13.9993C702.682 9.4058 706.405 5.68046 711 5.68046C715.593 5.68046 719.318 9.40439 719.318 13.9993C719.318 18.5942 715.595 22.3181 711 22.3181Z" fill="#18A795"/>
<circle opacity="0.4" cx="23" cy="83" r="22" stroke="#FDD13C" stroke-width="2"/>
<circle cx="41" cy="167" r="8" fill="#FC5B23"/>
</svg>
