<svg width="319" height="80" viewBox="0 0 319 80" fill="none" xmlns="http://www.w3.org/2000/svg">
<circle cx="315" cy="76" r="4" fill="#FDD13C"/>
<circle cx="4" cy="76" r="4" fill="#FF8265"/>
<path opacity="0.3" d="M273 16C265.269 16 259 22.2677 259 30.0007C259 37.7323 265.267 44 273 44C280.731 44 287 37.7323 287 30.0007C287 22.2677 280.733 16 273 16ZM273 38.3181C268.407 38.3181 264.682 34.5942 264.682 29.9993C264.682 25.4058 268.405 21.6805 273 21.6805C277.593 21.6805 281.318 25.4044 281.318 29.9993C281.318 34.5942 277.595 38.3181 273 38.3181Z" fill="#07A47C"/>
<circle opacity="0.4" cx="32" cy="16" r="15" stroke="#FDD13C" stroke-width="2"/>
</svg>
