<svg width="486" height="102" viewBox="0 0 486 102" fill="none" xmlns="http://www.w3.org/2000/svg">
<circle cx="482" cy="98" r="4" fill="#FDD13C"/>
<path opacity="0.3" d="M415 14C407.269 14 401 20.2677 401 28.0007C401 35.7323 407.267 42 415 42C422.731 42 429 35.7323 429 28.0007C429 20.2677 422.733 14 415 14ZM415 36.3181C410.407 36.3181 406.682 32.5942 406.682 27.9993C406.682 23.4058 410.405 19.6805 415 19.6805C419.593 19.6805 423.318 23.4044 423.318 27.9993C423.318 32.5942 419.595 36.3181 415 36.3181Z" fill="#07A47C"/>
<circle cx="8" cy="94" r="8" fill="#FF8265"/>
<circle opacity="0.4" cx="81" cy="23" r="22" stroke="#FDD13C" stroke-width="2"/>
</svg>
