<svg width="1336" height="562" viewBox="0 0 1336 562" fill="none" xmlns="http://www.w3.org/2000/svg">
<path opacity="0.3" d="M14 534C6.26879 534 0 540.268 0 548.001C0 555.732 6.26738 562 14 562C21.7312 562 28 555.732 28 548.001C28 540.268 21.7326 534 14 534ZM14 556.318C9.40672 556.318 5.68159 552.594 5.68159 547.999C5.68159 543.406 9.40531 539.68 14 539.68C18.5932 539.68 22.3184 543.404 22.3184 547.999C22.3184 552.594 18.5947 556.318 14 556.318Z" fill="#07A47C"/>
<path d="M189.958 35.2175C177.045 29.3273 170.5 20.1121 170.5 12.751C170.5 9.09428 172.107 5.85798 175.405 3.62883C178.72 1.38817 183.784 0.139966 190.717 0.591752C206.104 1.5947 220.998 9.96178 231.304 19.9141C236.455 24.8878 240.438 30.2371 242.76 35.2274C245.088 40.2324 245.71 44.7934 244.288 48.2545C243.578 49.9805 242.492 51.1806 241.107 51.966C239.712 52.7563 237.985 53.1431 235.977 53.1847C231.95 53.2682 226.91 51.9621 221.475 49.9375C214.302 47.266 206.573 43.4005 199.713 39.9696C196.162 38.1939 192.845 36.5345 189.958 35.2175Z" stroke="#FC981F"/>
<path d="M1315.22 501.842L1315.22 501.842C1322.87 503.901 1328.15 506.561 1331.4 509.439C1334.64 512.309 1335.83 515.363 1335.42 518.272C1335.01 521.204 1332.95 524.121 1329.4 526.654C1325.85 529.181 1320.87 531.289 1314.72 532.606L1314.72 532.606C1306.75 534.316 1301.88 532.883 1299.22 530.047C1296.55 527.196 1295.97 522.768 1296.94 518.154C1297.9 513.552 1300.4 508.881 1303.71 505.66C1307.02 502.439 1311.08 500.726 1315.22 501.842Z" stroke="#FC5B23"/>
<path d="M1107.45 60.299C1092.58 56.3731 1079.62 92.5041 1107 86.7455C1128.07 82.3211 1133.59 67.2001 1107.45 60.299Z" fill="#FEEECD"/>
<path d="M164.449 310.187C149.581 306.261 136.619 342.392 164.002 336.633C185.069 332.209 190.593 317.088 164.449 310.187Z" fill="#FEEECD"/>
</svg>
