<svg width="1296" height="584" viewBox="0 0 1296 584" fill="none" xmlns="http://www.w3.org/2000/svg">
<mask id="mask0_20_13721" style="mask-type:alpha" maskUnits="userSpaceOnUse" x="0" y="0" width="1296" height="584">
<rect width="1296" height="584" rx="24" fill="#FFE8D1"/>
</mask>
<g mask="url(#mask0_20_13721)">
<path d="M1204.48 542.079C1204.84 540.689 1205.82 539.549 1207.18 539.059C1208.08 538.729 1207.69 537.279 1206.78 537.609C1204.93 538.279 1203.53 539.759 1203.03 541.679C1202.79 542.619 1204.23 543.019 1204.48 542.079Z" fill="#FC981F"/>
<path d="M1224.48 546.829C1226 545.329 1227.52 543.819 1229.04 542.319C1229.73 541.639 1228.67 540.579 1227.98 541.259C1226.46 542.759 1224.94 544.269 1223.42 545.769C1222.73 546.449 1223.79 547.509 1224.48 546.829Z" fill="#FC981F"/>
<path d="M1227.96 503.799C1229.43 502.609 1230.9 501.429 1232.38 500.239C1233.13 499.629 1232.06 498.579 1231.32 499.179C1229.85 500.369 1228.38 501.549 1226.9 502.739C1226.14 503.349 1227.21 504.399 1227.96 503.799Z" fill="#FC981F"/>
<path d="M1227.96 524.799C1229.43 523.609 1230.9 522.429 1232.38 521.239C1233.13 520.629 1232.06 519.579 1231.32 520.179C1229.85 521.369 1228.38 522.549 1226.9 523.739C1226.14 524.349 1227.21 525.399 1227.96 524.799Z" fill="#FC981F"/>
<path d="M1092.21 500.709C1107.18 516.769 1137.09 507.668 1148.69 491.938C1161.22 474.948 1152.86 450.129 1133.26 443.049C1132.35 442.719 1131.96 444.168 1132.86 444.498C1151.85 451.368 1159.43 475.559 1147.01 491.649C1135.76 506.229 1107.43 514.839 1093.27 499.649C1092.61 498.939 1091.55 499.999 1092.21 500.709Z" fill="#FFE4DD"/>
<path d="M910.51 47.9865C911.64 48.3865 912.76 48.7865 913.89 49.1865C914.8 49.5065 915.19 48.0565 914.29 47.7365C913.16 47.3365 912.04 46.9365 910.91 46.5365C910 46.2165 909.61 47.6665 910.51 47.9865Z" fill="#FC981F"/>
<path d="M996.53 31.4767C998.04 31.8567 999.55 32.2367 1001.07 32.6167C1002.01 32.8567 1002.41 31.4067 1001.47 31.1667C999.96 30.7867 998.45 30.4067 996.93 30.0267C995.99 29.7867 995.59 31.2367 996.53 31.4767Z" fill="#FC981F"/>
<path d="M1061.45 68.6266C1063.34 69.0266 1065.22 69.4166 1067.11 69.8166C1068.05 70.0166 1068.45 68.5666 1067.51 68.3666C1065.62 67.9666 1063.74 67.5766 1061.85 67.1766C1060.9 66.9766 1060.5 68.4266 1061.45 68.6266Z" fill="#FC981F"/>
<path d="M1147.61 128.873C1115.76 111.724 1126.32 64.3809 1159.81 62.9262C1193.31 61.4716 1242.09 113.31 1236.38 135.314C1230.67 157.318 1171.62 141.808 1147.61 128.873Z" fill="#FFB8A4"/>
<path d="M1203.33 342.582C1132.26 338.029 1182.56 468.512 1094.42 462.865C1072.46 461.459 1012.57 426.558 1013.54 474.418C1013.8 486.85 1195.12 486.351 1195.12 486.351C1195.12 486.351 1241.25 345.011 1203.33 342.582Z" fill="#18A795"/>
<circle cx="648" cy="532" r="11.5" stroke="#FF7707"/>
<circle cx="648" cy="532" r="3" fill="#FF7707"/>
<circle opacity="0.5" cx="610" cy="532" r="3" fill="#FD7607"/>
<circle opacity="0.5" cx="686" cy="532" r="3" fill="#FD7607"/>
</g>
</svg>
