<svg width="24" height="24" viewBox="0 0 24 24" fill="none" xmlns="http://www.w3.org/2000/svg">
<path fill-rule="evenodd" clip-rule="evenodd" d="M12.9992 10.0088V10.3293C12.4341 9.86776 11.771 9.5423 11.0608 9.37792C11.3696 7.43752 13.037 6.00808 14.9975 6.00313H16.1765C16.6631 4.62362 18.0705 3.79612 19.5094 4.04355C20.9483 4.29098 22 5.54136 22 7.00455C22 8.46773 20.9483 9.71812 19.5094 9.96555C18.0705 10.213 16.6631 9.38548 16.1765 8.00597H14.9975C13.8938 8.00597 12.9992 8.90267 12.9992 10.0088ZM19.5018 14.0812C20.9317 14.3274 21.9803 15.5647 21.9916 17.0188C21.9803 18.4728 20.9317 19.7101 19.5018 19.9563C18.0719 20.2026 16.6713 19.3871 16.1765 18.0202H14.9975C12.7902 18.0202 11.0008 16.2268 11.0008 14.0145C11.0008 13.4614 10.5535 13.0131 10.0017 13.0131H7.82352C7.33689 14.3926 5.92945 15.2201 4.4906 14.9727C3.05174 14.7252 2 13.4748 2 12.0117C2 10.5485 3.05174 9.29808 4.4906 9.05066C5.92945 8.80323 7.33689 9.63073 7.82352 11.0102H10.0017C10.8491 11.0148 11.6549 11.3786 12.2198 12.0117C12.7172 12.5601 12.9948 13.2734 12.9992 14.0145C12.9992 15.1206 13.8938 16.0173 14.9975 16.0173H16.1765C16.6713 14.6504 18.0719 13.835 19.5018 14.0812Z" fill="#FF7707"/>
</svg>
