<svg width="20" height="21" viewBox="0 0 20 21" fill="none" xmlns="http://www.w3.org/2000/svg">
<path fill-rule="evenodd" clip-rule="evenodd" d="M9.99984 13.8346C9.88935 13.8346 9.78378 13.7889 9.70817 13.7083L4.88317 8.88333C4.80429 8.8051 4.75992 8.6986 4.75992 8.5875C4.75992 8.4764 4.80429 8.3699 4.88317 8.29167L5.04984 8.125C5.12823 8.04362 5.23685 7.99836 5.34984 8H7.49984V3.41667C7.49984 3.18655 7.68639 3 7.9165 3H12.0832C12.3133 3 12.4998 3.18655 12.4998 3.41667V8H14.6498C14.7628 7.99836 14.8714 8.04362 14.9498 8.125L15.1165 8.29167C15.1954 8.3699 15.2398 8.4764 15.2398 8.5875C15.2398 8.6986 15.1954 8.8051 15.1165 8.88333L10.2915 13.7083C10.2159 13.7889 10.1103 13.8346 9.99984 13.8346ZM15.8332 16.75V15.9167C15.8332 15.6865 15.6466 15.5 15.4165 15.5H4.58317C4.35305 15.5 4.1665 15.6865 4.1665 15.9167V16.75C4.1665 16.9801 4.35305 17.1667 4.58317 17.1667H15.4165C15.6466 17.1667 15.8332 16.9801 15.8332 16.75Z" fill="#FF7707"/>
</svg>
