<svg width="80" height="80" viewBox="0 0 80 80" fill="none" xmlns="http://www.w3.org/2000/svg">
<path d="M71.25 11.25C72.5761 11.25 73.8479 11.7768 74.7855 12.7145C75.7232 13.6521 76.25 14.9239 76.25 16.25V71.25C76.25 72.5761 75.7232 73.8479 74.7855 74.7855C73.8479 75.7232 72.5761 76.25 71.25 76.25H26.25V16.25C26.25 14.9239 26.7768 13.6521 27.7145 12.7145C28.6521 11.7768 29.9239 11.25 31.25 11.25H71.25Z" fill="#325873"/>
<path d="M31.25 16.25H71.25V71.25H31.25V16.25Z" fill="white"/>
<path d="M33.75 33.75H8.75C5.98858 33.75 3.75 35.9886 3.75 38.75V71.25C3.75 74.0114 5.98858 76.25 8.75 76.25H33.75C36.5114 76.25 38.75 74.0114 38.75 71.25V38.75C38.75 35.9886 36.5114 33.75 33.75 33.75Z" fill="#FF7707"/>
<path d="M30 47.5H12.5L8.75 43.75V38.75H33.75V43.75L30 47.5Z" fill="#FFE9D6"/>
<path d="M22.5 42.5H25V45H22.5V42.5Z" fill="#325873"/>
<path d="M26.25 42.5H28.75V45H26.25V42.5Z" fill="#325873"/>
<path d="M8.75 52.5H33.75V71.25H8.75V52.5Z" fill="#FFE9D6"/>
<path d="M33.75 57.5H28.75V52.5H26.25V57.5H22.5V52.5H20V57.5H16.25V52.5H13.75V57.5H8.75V60H13.75V63.75H8.75V66.25H13.75V71.25H16.25V66.25H20V71.25H22.5V66.25H26.25V71.25H28.75V60H33.75V57.5ZM16.25 63.75V60H20V63.75H16.25ZM26.25 63.75H22.5V60H26.25V63.75Z" fill="#FFB401"/>
<path d="M60 20H42.5L38.75 11.25H63.75L60 20Z" fill="#FFB401"/>
<path d="M46.25 11.25L47.9594 6.12172C48.1896 5.43108 48.6313 4.83038 49.2219 4.40471C49.8125 3.97905 50.522 3.74999 51.25 3.75C51.978 3.74999 52.6875 3.97905 53.2781 4.40471C53.8687 4.83038 54.3104 5.43108 54.5406 6.12172L56.25 11.25H46.25Z" fill="#FF7707"/>
<path d="M51.25 8.75C51.9404 8.75 52.5 8.19036 52.5 7.5C52.5 6.80964 51.9404 6.25 51.25 6.25C50.5596 6.25 50 6.80964 50 7.5C50 8.19036 50.5596 8.75 51.25 8.75Z" fill="#FFE9D6"/>
<path d="M66.25 23.75H37.5V26.25H47.5V37.5H42.5V40H47.5V42.5H42.5V45H47.5V47.5H42.5V50H47.5V52.5H42.5V55H47.5V57.5H42.5V60H47.5V62.5H42.5V65H66.25C66.5815 65 66.8995 64.8683 67.1339 64.6339C67.3683 64.3995 67.5 64.0815 67.5 63.75V25C67.5 24.6685 67.3683 24.3505 67.1339 24.1161C66.8995 23.8817 66.5815 23.75 66.25 23.75ZM65 26.25V31.25H50V26.25H65ZM58.75 52.5V50H65V52.5H58.75ZM65 55V57.5H58.75V55H65ZM58.75 47.5V45H65V47.5H58.75ZM58.75 42.5V40H65V42.5H58.75ZM58.75 37.5V33.75H65V37.5H58.75ZM50 33.75H56.25V37.5H50V33.75ZM50 40H56.25V42.5H50V40ZM50 45H56.25V47.5H50V45ZM50 50H56.25V52.5H50V50ZM50 55H56.25V57.5H50V55ZM50 60H56.25V62.5H50V60ZM58.75 62.5V60H65V62.5H58.75Z" fill="#FFB401"/>
</svg>
