<svg id="Layer_1" data-name="Layer 1" xmlns="http://www.w3.org/2000/svg" viewBox="0 0 72 72"><defs><style>.cls-1{fill:#fd4102;}.cls-2{fill:#fff;}</style></defs><path class="cls-1" d="M8.8,57.8c.3-1.7.6-3.3.8-4.9s.2-2.1-1.5-2.7L3.7,48.6c-.9-.3-1.1-.9-.6-1.7l2.5-4.4a1.6,1.6,0,0,0-.3-2.4L1.5,36.9c-1-.8-1-1.2,0-2s2.4-2.1,3.6-3a1.8,1.8,0,0,0,.5-2.7c-.9-1.3-1.6-2.8-2.4-4.1s-.3-1.5.7-1.9l4.6-1.7a1.6,1.6,0,0,0,1.2-2c-.3-1.7-.5-3.3-.8-4.9S9,13,10.2,13h5c1,0,1.6-.4,1.7-1.4l.9-4.9c.3-1.3.6-1.5,1.9-1l4.6,1.6a1.5,1.5,0,0,0,2.1-.7l2.4-4.3C29.6,1.1,29.9,1,31,2s2.5,1.9,3.6,3a1.7,1.7,0,0,0,2.5,0l3.8-3.2c.8-.7,1.4-.6,2,.4l2.2,3.9c.9,1.6,1.2,1.7,2.8,1.1l4.4-1.6c1-.4,1.5-.1,1.6,1l.9,4.6c.3,1.6.5,1.8,2.2,1.8h4.4c1.4,0,1.7.3,1.5,1.7s-.6,2.9-.8,4.4S62,21,63.6,21.6l4.3,1.6c1.1.5,1.3.8.6,1.9l-2.4,4.3a1.6,1.6,0,0,0,.4,2.3l3.6,3.1c1.2,1,1.2,1.3,0,2.3l-3.6,3a1.6,1.6,0,0,0-.4,2.4l2.4,4.1c.7,1.3.6,1.6-.8,2.1l-4.3,1.6a1.7,1.7,0,0,0-1.3,2.3c.3,1.5.5,3.1.8,4.6s-.1,1.6-1.4,1.6a41.7,41.7,0,0,1-5,0,1.5,1.5,0,0,0-1.6,1.4L54,65.1c-.3,1.4-.6,1.5-2,1.1l-4.5-1.7a1.5,1.5,0,0,0-2.1.8c-.7,1.3-1.5,2.5-2.2,3.7s-1.2,1.9-2.9.5L37,66.8a1.5,1.5,0,0,0-2.2-.1L30.9,70c-1,.8-1.4.7-2-.4l-2.3-4c-.9-1.4-1.2-1.5-2.7-1l-4.4,1.7c-1,.3-1.5,0-1.7-1.1s-.6-3.2-.9-4.8-.8-1.6-1.9-1.6-3.3,0-4.9,0S8.8,58.6,8.8,57.8ZM55.4,35.7h-.2c-.2-.3-.3-.7-.5-1-1.1-2.9-2.6-5.8-3.8-8.7a1.1,1.1,0,0,0-1.4-.7c-2,.5-2,.5-2,2.4v9.9c-1.2-2.8-2.2-5.7-3.3-8.5s-.9-2.5-3.5-1.9c-.8.2-.8.4-.5,1.1,1.5,3.5,2.9,7.1,4.4,10.7S45.8,42,49,41.3h.5c.3-.1.5-.2.5-.6-.1-2.9.1-5.9-.2-8.9,0-.2-.2-.6.1-.7s.4.4.5.6c1.1,2.5,2.3,5,3.3,7.6.3.7.7,1.1,1.6.8a1.1,1.1,0,0,1,.8-.2c2.3-.5,2.3-.5,2.3-2.9-.1-4-.3-7.9-.4-11.8,0-1.1-.2-1.6-1.4-1.2h-.4c-1.4,0-1.5.7-1.4,1.9C55.1,29.2,55.2,32.5,55.4,35.7Zm-31.2,6c-1.7-2.7-4-4.9-5.8-7.5s-2.2-2-4-1.3-1.1.4-.9,1.3C14.4,38.1,15.2,42,16,46c.5,2.2.5,2.2,2.8,1.7s.9-.5.7-1.2c-.7-3-1.1-6.1-2.3-9a.6.6,0,0,1,.7.4c1.6,2.3,3.7,4.3,5.3,6.7a3,3,0,0,0,4.1,1.3c.7-.2,1-.3.8-1.2-.9-3.9-1.7-7.9-2.5-11.8-.5-2.3-.5-2.3-2.9-1.8-.6.2-.8.4-.7,1.1.7,2.8,1.1,5.7,2.1,8.5A.9.9,0,0,1,24.2,41.7ZM38.6,30.4a13.6,13.6,0,0,1-.4-1.7c-.1-.6-.3-.8-1-.7l-7.8,1.7c-.7.1-.7.5-.6,1,1,4.5,1.9,8.9,2.8,13.4.2.6.4.8,1,.7l8.1-1.7c.7-.2.8-.5.6-1.1a2.9,2.9,0,0,1-.2-.9c-.1-.9-.5-1.1-1.3-.9l-4.4,1c-.6.1-.8,0-1-.6-.6-2.7-.7-2.7,2.1-3.3l1.1-.2c1.2-.1,1.3-.6,1.2-1.7s-.8-1.5-1.9-1.1l-1.6.3c-2,.5-2,.5-2.5-1.6s.1-1,.8-1.2a31.5,31.5,0,0,0,4.2-.9C38.1,30.9,38.7,30.9,38.6,30.4Z"/><path class="cls-1" d="M55.4,35.7c-.2-3.2-.3-6.5-.6-9.8-.1-1.2,0-1.9,1.4-1.9h.4c1.2-.4,1.4.1,1.4,1.2.1,3.9.3,7.8.4,11.8,0,2.4,0,2.4-2.3,2.9a1.1,1.1,0,0,0-.8.2c-.9.3-1.3-.1-1.6-.8-1-2.6-2.2-5.1-3.3-7.6-.1-.2-.1-.7-.5-.6s-.1.5-.1.7c.3,3,.1,6,.2,8.9,0,.4-.2.5-.5.6H49c-3.2.7-3.2.7-4.4-2.2s-2.9-7.2-4.4-10.7c-.3-.7-.3-.9.5-1.1,2.6-.6,2.6-.6,3.5,1.9s2.1,5.7,3.3,8.5V27.8c0-1.9,0-1.9,2-2.4a1.1,1.1,0,0,1,1.4.7c1.2,2.9,2.7,5.8,3.8,8.7.2.3.3.7.5,1Z"/><path class="cls-1" d="M24.2,41.7a.9.9,0,0,0-.1-1c-1-2.8-1.4-5.7-2.1-8.5-.1-.7.1-.9.7-1.1,2.4-.5,2.4-.5,2.9,1.8.8,3.9,1.6,7.9,2.5,11.8.2.9-.1,1-.8,1.2a3,3,0,0,1-4.1-1.3c-1.6-2.4-3.7-4.4-5.3-6.7a.6.6,0,0,0-.7-.4c1.2,2.9,1.6,6,2.3,9,.2.7.1,1.1-.7,1.2s-2.3.5-2.8-1.7c-.8-4-1.6-7.9-2.5-11.8-.2-.9.1-1,.9-1.3s2.9-.2,4,1.3S22.5,39,24.2,41.7Z"/><path class="cls-1" d="M38.6,30.4c.1.5-.5.5-.8.5a31.5,31.5,0,0,1-4.2.9c-.7.2-1,.3-.8,1.2s.5,2.1,2.5,1.6l1.6-.3c1.1-.4,1.6-.3,1.9,1.1s0,1.6-1.2,1.7l-1.1.2c-2.8.6-2.7.6-2.1,3.3.2.6.4.7,1,.6l4.4-1c.8-.2,1.2,0,1.3.9a2.9,2.9,0,0,0,.2.9c.2.6.1.9-.6,1.1l-8.1,1.7c-.6.1-.8-.1-1-.7-.9-4.5-1.8-8.9-2.8-13.4-.1-.5-.1-.9.6-1L37.2,28c.7-.1.9.1,1,.7A13.6,13.6,0,0,0,38.6,30.4Z"/><polygon class="cls-1" points="11 31.5 58.4 20.9 61.7 40.1 15.9 50.7 11 31.5"/><path class="cls-2" d="M15.5,24.5a1.3,1.3,0,0,1,.8.2,1.1,1.1,0,0,1,.7.6l7.2,11H22.7l7.4-11a1.7,1.7,0,0,1,1.5-.8,1.5,1.5,0,0,1,1.2.5,1.5,1.5,0,0,1,.6,1.3V43.4a1.7,1.7,0,0,1-1.8,1.8,2.2,2.2,0,0,1-1.4-.5,1.9,1.9,0,0,1-.5-1.3V29.5l1.1.2-6,9.2a2,2,0,0,1-.7.6,1.1,1.1,0,0,1-.8.2,1.3,1.3,0,0,1-.8-.2,3.4,3.4,0,0,1-.6-.6L16.2,30l.8-1.6v15a1.9,1.9,0,0,1-.5,1.3,1.7,1.7,0,0,1-2.4,0,1.5,1.5,0,0,1-.5-1.3V26.3a1.9,1.9,0,0,1,.5-1.3A1.7,1.7,0,0,1,15.5,24.5Z"/><path class="cls-2" d="M52.8,37.3a8.6,8.6,0,0,1-1.1,4.3,8.1,8.1,0,0,1-14,0,8.6,8.6,0,0,1-1.1-4.3A8.9,8.9,0,0,1,37.7,33a8.1,8.1,0,0,1,14,0A8.9,8.9,0,0,1,52.8,37.3Zm-3.6,0a5.3,5.3,0,0,0-.6-2.6A4.4,4.4,0,0,0,47,33a4.1,4.1,0,0,0-4.6,0,4.4,4.4,0,0,0-1.6,1.7,5.2,5.2,0,0,0,1.6,6.9,4.1,4.1,0,0,0,4.6,0,4.8,4.8,0,0,0,2.2-4.3Zm-4.6-8.9-.6-.3a.9.9,0,0,1-.3-.7,1.4,1.4,0,0,1,.2-.6l1.7-3a2.7,2.7,0,0,1,.7-.8,1.1,1.1,0,0,1,.9-.4,1.4,1.4,0,0,1,1.2.5,1.2,1.2,0,0,1,.4,1,1.4,1.4,0,0,1-.2.6,2.5,2.5,0,0,1-.4.7L46,27.9l-.7.4Zm2.7,4V29.5a3,3,0,0,0,1.8-.5,1.4,1.4,0,0,0,.7-1.4,2.1,2.1,0,0,1,.4-1,1.2,1.2,0,0,1,1.1-.5c.6,0,1,.1,1.2.5a2.2,2.2,0,0,1,.3,1,4.8,4.8,0,0,1-.6,2.4,4.8,4.8,0,0,1-1.7,1.8A7.3,7.3,0,0,1,47.3,32.4Z"/><path class="cls-2" d="M57.3,27.5a2.7,2.7,0,0,1-1.5-.4,1.6,1.6,0,0,1-.4-1.1v-.6a1.4,1.4,0,0,1,.5-1.2,2.6,2.6,0,0,1,1.4-.3c.7,0,1.2.1,1.4.4a1.2,1.2,0,0,1,.4,1.1V26a1.2,1.2,0,0,1-.4,1.1A2.6,2.6,0,0,1,57.3,27.5Zm1.8,15.9a1.9,1.9,0,0,1-.5,1.3,2.1,2.1,0,0,1-1.3.5,1.7,1.7,0,0,1-1.8-1.8V31.2a1.9,1.9,0,0,1,.5-1.3,1.5,1.5,0,0,1,1.3-.5,1.7,1.7,0,0,1,1.3.5,1.9,1.9,0,0,1,.5,1.3Z"/></svg>