<svg width="20" height="20" viewBox="0 0 20 20" fill="none" xmlns="http://www.w3.org/2000/svg">
<path d="M16.4091 15.3154C17.2645 14.287 17.8595 13.0679 18.1437 11.7611C18.4278 10.4544 18.3928 9.09847 18.0416 7.8081C17.6904 6.51774 17.0333 5.33087 16.1259 4.34791C15.2186 3.36495 14.0876 2.61481 12.8287 2.16094C11.5698 1.70708 10.22 1.56285 8.89356 1.74045C7.56709 1.91805 6.30293 2.41226 5.20804 3.18127C4.11315 3.95027 3.21974 4.97146 2.60337 6.15843C1.98701 7.3454 1.66582 8.66325 1.667 10.0005C1.66745 11.9444 2.35305 13.8261 3.6035 15.3154L3.59158 15.3255C3.63328 15.3755 3.68093 15.4184 3.72382 15.4678C3.77743 15.5291 3.83521 15.5868 3.89061 15.6463C4.05739 15.8272 4.22894 16.001 4.40883 16.1641C4.46364 16.2141 4.52022 16.2605 4.57562 16.3081C4.76623 16.4724 4.96221 16.6283 5.16533 16.7736C5.19154 16.7914 5.21536 16.8146 5.24157 16.8331V16.8259C6.63668 17.8069 8.30096 18.3334 10.0069 18.3334C11.7128 18.3334 13.3771 17.8069 14.7722 16.8259V16.8331C14.7984 16.8146 14.8216 16.7914 14.8484 16.7736C15.051 16.6278 15.2475 16.4724 15.4381 16.3081C15.4935 16.2605 15.5501 16.2135 15.6049 16.1641C15.7848 16.0004 15.9564 15.8272 16.1232 15.6463C16.1786 15.5868 16.2357 15.5291 16.2899 15.4678C16.3322 15.4184 16.3805 15.3755 16.4222 15.3249L16.4091 15.3154ZM10.0063 5.23908C10.5364 5.23908 11.0547 5.39616 11.4955 5.69045C11.9363 5.98475 12.2799 6.40304 12.4827 6.89243C12.6856 7.38182 12.7387 7.92034 12.6353 8.43987C12.5318 8.95941 12.2765 9.43664 11.9017 9.8112C11.5268 10.1858 11.0492 10.4408 10.5292 10.5442C10.0093 10.6475 9.4703 10.5945 8.98051 10.3918C8.49071 10.1891 8.07208 9.84579 7.77754 9.40534C7.48301 8.9649 7.3258 8.44708 7.3258 7.91737C7.3258 7.20704 7.60821 6.52581 8.1109 6.02353C8.61358 5.52126 9.29538 5.23908 10.0063 5.23908ZM5.24515 15.3154C5.25548 14.5339 5.57333 13.7879 6.12992 13.2388C6.68651 12.6897 7.4371 12.3816 8.2193 12.3812H11.7933C12.5755 12.3816 13.3261 12.6897 13.8827 13.2388C14.4392 13.7879 14.7571 14.5339 14.7674 15.3154C13.461 16.4917 11.7648 17.1426 10.0063 17.1426C8.24773 17.1426 6.55153 16.4917 5.24515 15.3154Z" fill="#2A404F"/>
</svg>
