<svg width="20" height="20" viewBox="0 0 20 20" fill="none" xmlns="http://www.w3.org/2000/svg">
<path d="M17.5 6.03301C17.4994 5.37019 17.2356 4.73473 16.7667 4.26634L13.825 1.32468C13.67 1.1687 13.4856 1.04496 13.2825 0.960572C13.0794 0.876188 12.8616 0.832834 12.6417 0.833008H7.35833C7.13841 0.832834 6.92062 0.876188 6.71753 0.960572C6.51443 1.04496 6.33005 1.1687 6.175 1.32468L3.23333 4.26634C2.76436 4.73473 2.50058 5.37019 2.5 6.03301V10.908C2.50076 11.9227 2.73311 12.9237 3.17935 13.835C3.62559 14.7462 4.27394 15.5436 5.075 16.1663L8.475 18.8163C8.76817 19.0439 9.1289 19.167 9.5 19.1663H10.5C10.8711 19.167 11.2318 19.0439 11.525 18.8163L14.925 16.1663C15.7261 15.5436 16.3744 14.7462 16.8207 13.835C17.2669 12.9237 17.4992 11.9227 17.5 10.908V6.03301ZM13.625 7.69968L8.94167 12.383C8.90426 12.4229 8.85908 12.4546 8.80891 12.4764C8.75875 12.4981 8.70466 12.5093 8.65 12.5093C8.59534 12.5093 8.54125 12.4981 8.49109 12.4764C8.44092 12.4546 8.39574 12.4229 8.35833 12.383L6.375 10.3997C6.33595 10.3609 6.30495 10.3149 6.2838 10.2641C6.26264 10.2133 6.25175 10.1588 6.25175 10.1038C6.25175 10.0488 6.26264 9.99438 6.2838 9.9436C6.30495 9.89283 6.33595 9.84674 6.375 9.80801L6.81667 9.36634C6.85408 9.32648 6.89926 9.29471 6.94942 9.273C6.99959 9.25128 7.05367 9.24008 7.10833 9.24008C7.163 9.24008 7.21708 9.25128 7.26725 9.273C7.31741 9.29471 7.36259 9.32648 7.4 9.36634L8.65 10.608L12.6 6.66634C12.6779 6.59 12.7826 6.54723 12.8917 6.54723C13.0007 6.54723 13.1054 6.59 13.1833 6.66634L13.625 7.10801C13.7013 7.1859 13.7441 7.29061 13.7441 7.39968C13.7441 7.50874 13.7013 7.61345 13.625 7.69134V7.69968Z" fill="#FF7707"/>
</svg>
