<svg width="104" height="104" viewBox="0 0 104 104" fill="none" xmlns="http://www.w3.org/2000/svg">
<circle opacity="0.4" cx="52" cy="52" r="36" fill="white"/>
<circle opacity="0.4" cx="52" cy="52" r="51.5" stroke="white"/>
<circle cx="52" cy="52" r="32" fill="white"/>
<path d="M61.9993 51.7667V52.2334C61.9987 52.4518 61.9416 52.6664 61.8335 52.8562C61.7255 53.046 61.5702 53.2047 61.3827 53.3167L46.466 62.0001C45.566 62.5334 45.0993 62.5334 44.6993 62.3001L44.2827 62.0667C44.1 61.9576 43.9477 61.8042 43.8399 61.6207C43.7321 61.4372 43.6723 61.2295 43.666 61.0167V42.9834C43.6667 42.765 43.7238 42.5505 43.8319 42.3606C43.9399 42.1708 44.0952 42.0122 44.2827 41.9001L44.6993 41.6667C45.0993 41.4334 45.566 41.4334 46.7327 42.1167L61.3827 50.6834C61.5702 50.7955 61.7255 50.9541 61.8335 51.144C61.9416 51.3338 61.9987 51.5483 61.9993 51.7667Z" fill="#FF7707"/>
</svg>
