<svg width="40" height="40" viewBox="0 0 40 40" fill="none" xmlns="http://www.w3.org/2000/svg">
<path d="M33.9661 31.8883H23.224C22.0396 31.8883 21.0755 32.8524 21.0755 34.0368H18.9271C18.9271 32.8524 17.963 31.8883 16.7786 31.8883H6.03646V12.4092H1.66797V36.1852H15.2596L17.4081 38.3337H22.5945L24.743 36.1852H38.3346V12.4092H33.9661V31.8883Z" fill="#FFCB1B"/>
<path d="M4.70703 4.88965L11.1523 8.1123H12.4804V1.66699H11.1523L4.70703 4.88965Z" fill="#FFCB1B"/>
<path d="M14.6289 1.66699H33.9648V8.1123H14.6289V1.66699Z" fill="#FFCB1B"/>
<path d="M21.0742 12.4092V30.3436C21.7095 29.9722 22.4353 29.7399 23.2227 29.7399H31.8164V10.2607H23.2227C22.0383 10.2607 21.0742 11.2248 21.0742 12.4092ZM23.2227 14.6292H29.668V16.7777H23.2227V14.6292ZM23.2227 18.9261H29.668V21.0745H23.2227V18.9261ZM23.2227 23.223H29.668V25.3714H23.2227V23.223Z" fill="#FF7707"/>
<path d="M8.18359 29.7399H16.7773C17.5647 29.7399 18.2905 29.9723 18.9258 30.3436V12.4092C18.9258 11.2248 17.9617 10.2607 16.7773 10.2607H8.18359V29.7399ZM10.332 14.6292H16.7773V16.7777H10.332V14.6292ZM10.332 18.9261H16.7773V21.0745H10.332V18.9261ZM10.332 23.223H16.7773V25.3714H10.332V23.223Z" fill="#FF7707"/>
</svg>
