<svg width="27" height="29" viewBox="0 0 27 29" fill="none" xmlns="http://www.w3.org/2000/svg">
<g filter="url(#filter0_d_1181_42528)">
<path fill-rule="evenodd" clip-rule="evenodd" d="M14 4.50038V3.50038C13.9976 3.36178 14.0518 3.2282 14.15 3.13038C14.2597 3.03373 14.4044 2.98669 14.55 3.00038C18.5489 3.26703 21.7333 6.45151 22 10.4504C22.0082 10.5892 21.9615 10.7257 21.87 10.8304C21.7722 10.9286 21.6386 10.9827 21.5 10.9804H20.5C20.2388 10.9812 20.0209 10.7808 20 10.5204C19.7722 7.57129 17.4291 5.22822 14.48 5.00038C14.2117 4.98964 13.9998 4.76889 14 4.50038ZM14.17 7.14038C14.0608 7.23631 13.9987 7.37502 14 7.52038V8.52038C13.9959 8.75942 14.165 8.9665 14.4 9.01038C15.2041 9.15757 15.8376 9.77925 16 10.5804C16.0439 10.8154 16.251 10.9844 16.49 10.9804H17.49C17.6354 10.9816 17.7741 10.9196 17.87 10.8104C17.9641 10.6997 18.0077 10.5546 17.99 10.4104C17.7289 8.65022 16.3494 7.2667 14.59 7.00038C14.4428 6.98813 14.2974 7.03903 14.19 7.14038H14.17ZM20.09 20.4104C19.7142 20.7884 19.203 21.0008 18.67 21.0004H18C16.3293 20.9933 14.6866 20.5706 13.22 19.7704L12.77 19.5204C9.66075 17.8487 7.11169 15.2996 5.44 12.1904L5.19 11.7404C4.41014 10.2821 4.00144 8.65412 4 7.00038V6.33038C3.99958 5.79733 4.21196 5.28617 4.59 4.91038L6.28 3.22038C6.44413 3.05498 6.67581 2.97525 6.90696 3.00464C7.13811 3.03402 7.34248 3.16917 7.46 3.37038L9.71 7.23038C9.93753 7.62327 9.87183 8.12013 9.55 8.44038L7.66 10.3304C7.50305 10.4856 7.46647 10.7254 7.57 10.9204L7.92 11.5804C9.17704 13.9088 11.0893 15.8176 13.42 17.0704L14.08 17.4304C14.275 17.5339 14.5148 17.4973 14.67 17.3404L16.56 15.4504C16.8802 15.1285 17.3771 15.0628 17.77 15.2904L21.63 17.5404C21.8312 17.6579 21.9664 17.8623 21.9957 18.0934C22.0251 18.3246 21.9454 18.5563 21.78 18.7204L20.09 20.4104Z" fill="white"/>
</g>
<defs>
<filter id="filter0_d_1181_42528" x="-3" y="0" width="32" height="32" filterUnits="userSpaceOnUse" color-interpolation-filters="sRGB">
<feFlood flood-opacity="0" result="BackgroundImageFix"/>
<feColorMatrix in="SourceAlpha" type="matrix" values="0 0 0 0 0 0 0 0 0 0 0 0 0 0 0 0 0 0 127 0" result="hardAlpha"/>
<feOffset dy="4"/>
<feGaussianBlur stdDeviation="2"/>
<feComposite in2="hardAlpha" operator="out"/>
<feColorMatrix type="matrix" values="0 0 0 0 0 0 0 0 0 0 0 0 0 0 0 0 0 0 0.25 0"/>
<feBlend mode="normal" in2="BackgroundImageFix" result="effect1_dropShadow_1181_42528"/>
<feBlend mode="normal" in="SourceGraphic" in2="effect1_dropShadow_1181_42528" result="shape"/>
</filter>
</defs>
</svg>
