<svg width="72" height="72" viewBox="0 0 72 72" fill="none" xmlns="http://www.w3.org/2000/svg">
<circle cx="36" cy="36" r="36" fill="#FFF2E5"/>
<path d="M47.5254 35.2762V26.7168C47.5254 26.5885 47.4903 26.4711 47.4379 26.3631C47.4695 26.2756 47.5254 26.1985 47.5254 26.1016C47.5254 25.7355 47.2827 25.4135 46.9302 25.3125L35.4458 22.0313C35.2984 21.9896 35.143 21.9896 34.9956 22.0313L23.5112 25.3125C23.1587 25.4135 22.916 25.7355 22.916 26.1016C22.916 26.4677 23.1587 26.7897 23.5112 26.8907L27.8379 28.1268V29.0977C27.8379 30.0309 28.3562 30.8889 29.1581 31.283C32.8351 33.0903 37.6048 33.0895 41.2834 31.2839C42.0853 30.8897 42.6036 30.0317 42.6036 29.0977V28.1268L45.8849 27.1894V35.2762C44.9321 35.6159 44.2442 36.518 44.2442 37.586V39.2266C44.2442 39.68 44.6111 40.0469 45.0646 40.0469H48.3458C48.7992 40.0469 49.1661 39.68 49.1661 39.2266V37.586C49.1661 36.518 48.4782 35.616 47.5254 35.2762Z" fill="#FF7707"/>
<path d="M41.9241 32.8657C39.8621 33.8791 37.5157 34.4142 35.1389 34.4142C32.7621 34.4142 30.4149 33.8783 28.3521 32.8649C28.1506 32.7659 27.9837 32.6191 27.8047 32.4883C27.9799 35.4409 29.5685 37.9463 31.8135 39.2298C31.8135 39.2298 32.9651 39.7739 33.3249 39.8761L33.3263 39.8735C33.909 40.0396 34.5089 40.1565 35.1388 40.1565C35.7156 40.1565 36.5372 40.0413 37.3582 39.7382C37.7363 39.6036 38.4616 39.2315 38.4616 39.2315C40.708 37.9484 42.2976 35.4422 42.4731 32.4886C42.2935 32.6196 42.1262 32.7665 41.9241 32.8657Z" fill="#FF7707"/>
<path d="M35.1385 41.7966C34.4772 41.7966 33.8408 41.6946 33.2207 41.5449L35.1385 44.4217L37.0455 41.5477C36.4286 41.6956 35.796 41.7966 35.1385 41.7966Z" fill="#FF7707"/>
<path d="M39.8607 40.3262C39.8461 40.336 39.8298 40.3427 39.8153 40.3524L39.1254 41.3873C39.1254 41.4255 35.9801 46.1297 35.959 46.1615V50.0006H46.6231C47.0765 50.0006 47.4434 49.6337 47.4434 49.1803C47.4434 44.7006 44.1463 41.0234 39.8607 40.3262ZM41.7012 46.7194H40.0606C39.6071 46.7194 39.2402 46.3525 39.2402 45.8991C39.2402 45.4456 39.6071 45.0787 40.0606 45.0787H41.7012C42.1546 45.0787 42.5215 45.4456 42.5215 45.8991C42.5215 46.3525 42.1546 46.7194 41.7012 46.7194Z" fill="#FF7707"/>
<path d="M30.4471 40.3425C30.4338 40.3336 30.4189 40.3274 30.4055 40.3184C26.1244 41.0204 22.834 44.703 22.834 49.1799C22.834 49.6333 23.2009 50.0002 23.6543 50.0002H34.3184V46.1611C30.6008 40.5751 31.3594 41.7155 30.4471 40.3425Z" fill="#FF7707"/>
</svg>
