<svg width="20" height="21" viewBox="0 0 20 21" fill="none" xmlns="http://www.w3.org/2000/svg">
<g clip-path="url(#clip0_1712_59527)">
<path d="M15.2082 13.103C14.8127 13.1029 14.4224 13.1932 14.067 13.367C13.7117 13.5407 13.4008 13.7934 13.158 14.1056C13.1432 14.0953 13.1279 14.0857 13.1121 14.0769L7.35352 11.1975C7.3371 11.1903 7.32033 11.184 7.30326 11.1785C7.42545 10.7386 7.42662 10.2739 7.30665 9.83345L13.1629 6.89959C13.5649 7.41382 14.1437 7.76033 14.7868 7.87185C15.4299 7.98337 16.0915 7.85194 16.6432 7.50309C17.1949 7.15424 17.5972 6.61285 17.7722 5.98401C17.9471 5.35518 17.8822 4.68377 17.59 4.10012C17.2977 3.51647 16.7991 3.06223 16.1908 2.82558C15.5825 2.58892 14.9079 2.58673 14.2981 2.81944C13.6883 3.05215 13.1867 3.50315 12.8907 4.08489C12.5946 4.66663 12.5254 5.33761 12.6962 5.96756L6.84389 8.89959C6.51071 8.47147 6.05214 8.15808 5.53222 8.0032C5.0123 7.84832 4.45699 7.85968 3.94384 8.03568C3.43069 8.21169 2.98532 8.54356 2.66992 8.98495C2.35452 9.42634 2.18484 9.95521 2.18457 10.4977C2.18431 11.0402 2.35347 11.5692 2.66844 12.0109C2.98341 12.4526 3.42846 12.7849 3.94144 12.9615C4.45442 13.138 5.00971 13.1499 5.52978 12.9955C6.04985 12.8411 6.50873 12.5282 6.84233 12.1004C6.85685 12.1108 6.87198 12.1204 6.88764 12.129L12.6462 15.0084C12.6632 15.0165 12.6803 15.0204 12.6983 15.0267C12.5564 15.552 12.5826 16.1086 12.7734 16.6182C12.9642 17.1278 13.31 17.5647 13.762 17.8676C14.214 18.1706 14.7496 18.3242 15.2935 18.3069C15.8374 18.2896 16.3621 18.1023 16.794 17.7712C17.2259 17.4402 17.5432 16.9822 17.7012 16.4615C17.8593 15.9408 17.8501 15.3837 17.6751 14.8685C17.5001 14.3532 17.168 13.9058 16.7255 13.5891C16.283 13.2725 15.7524 13.1024 15.2082 13.103Z" fill="#FF7707"/>
</g>
<defs>
<clipPath id="clip0_1712_59527">
<rect width="16.6667" height="16.6667" fill="white" transform="translate(1.6665 2.16602)"/>
</clipPath>
</defs>
</svg>
