<svg width="72" height="72" viewBox="0 0 72 72" fill="none" xmlns="http://www.w3.org/2000/svg">
<circle cx="36" cy="36" r="36" fill="#FFF2E5"/>
<g clip-path="url(#clip0_4262_69694)">
<path d="M36 30.625C38.934 30.625 41.3125 28.2465 41.3125 25.3125C41.3125 22.3785 38.934 20 36 20C33.066 20 30.6875 22.3785 30.6875 25.3125C30.6875 28.2465 33.066 30.625 36 30.625Z" fill="#FF7707"/>
<path d="M39.9034 31.3447C38.7786 32.0752 37.4379 32.5 35.9997 32.5C34.5615 32.5 33.2208 32.0752 32.096 31.3447C30.8526 31.8199 29.6997 32.521 28.6973 33.4207L35.9997 36.1592L43.3021 33.4207C42.2997 32.521 41.1468 31.8199 39.9034 31.3447Z" fill="#FF7707"/>
<path d="M47.25 39.375H46.625C46.1072 39.375 45.6875 39.7947 45.6875 40.3125V42.8125C45.6875 43.3303 46.1072 43.75 46.625 43.75H47.25C48.4581 43.75 49.4375 42.7706 49.4375 41.5625C49.4375 40.3544 48.4581 39.375 47.25 39.375Z" fill="#FF7707"/>
<path d="M25.466 34.6426C25.2133 34.8178 25.0625 35.1057 25.0625 35.4132V37.5004H25.375C26.9258 37.5004 28.1875 38.762 28.1875 40.3129V42.8129C28.1875 44.3637 26.9258 45.6254 25.375 45.6254H25.0625V47.6007C25.0625 47.9915 25.3049 48.3413 25.6708 48.4785L35.0625 52.0004V37.8104L26.3292 34.5354C26.0412 34.4273 25.7187 34.4674 25.466 34.6426Z" fill="#FF7707"/>
<path d="M43.8125 42.8129V40.3129C43.8125 38.762 45.0742 37.5004 46.625 37.5004H46.9375V35.4132C46.9375 35.1057 46.7868 34.8178 46.534 34.6426C46.2812 34.4674 45.9586 34.4273 45.6708 34.5354L36.9375 37.8104V52.0004L46.3292 48.4785C46.6951 48.3413 46.9375 47.9915 46.9375 47.6007V45.6254H46.625C45.0742 45.6254 43.8125 44.3637 43.8125 42.8129Z" fill="#FF7707"/>
<path d="M26.3125 42.8125V40.3125C26.3125 39.7947 25.8928 39.375 25.375 39.375H24.75C23.5419 39.375 22.5625 40.3544 22.5625 41.5625C22.5625 42.7706 23.5419 43.75 24.75 43.75H25.375C25.8928 43.75 26.3125 43.3303 26.3125 42.8125Z" fill="#FF7707"/>
</g>
<defs>
<clipPath id="clip0_4262_69694">
<rect width="32" height="32" fill="white" transform="translate(20 20)"/>
</clipPath>
</defs>
</svg>
