<svg width="24" height="24" viewBox="0 0 24 24" fill="none" xmlns="http://www.w3.org/2000/svg">
<path fill-rule="evenodd" clip-rule="evenodd" d="M19.0002 2H7.00024C5.34339 2 4.00024 3.34315 4.00024 5V19C4.00024 20.6569 5.34339 22 7.00024 22H19.5002C19.7764 22 20.0002 21.7761 20.0002 21.5V3C20.0002 2.44772 19.5525 2 19.0002 2ZM6.00008 5.00002C6.00008 4.44774 6.4478 4.00002 7.00008 4.00002H18.0001V16H7.00008C6.65951 15.9995 6.32135 16.057 6.00008 16.17V5.00002ZM7.00008 18C6.4478 18 6.00008 18.4477 6.00008 19C6.00008 19.5523 6.4478 20 7.00008 20H18.0001V18H7.00008ZM8.50041 7.99998H15.5004C15.7765 7.99998 16.0004 7.77612 16.0004 7.49998V6.49998C16.0004 6.22384 15.7765 5.99998 15.5004 5.99998H8.50041C8.22426 5.99998 8.00041 6.22384 8.00041 6.49998V7.49998C8.00041 7.77612 8.22426 7.99998 8.50041 7.99998ZM11.5004 12H8.50041C8.22426 12 8.00041 11.7762 8.00041 11.5V10.5C8.00041 10.2239 8.22426 10 8.50041 10H11.5004C11.7765 10 12.0004 10.2239 12.0004 10.5V11.5C12.0004 11.7762 11.7765 12 11.5004 12Z" fill="#FF7707"/>
</svg>
