<svg width="14" height="20" viewBox="0 0 14 20" fill="none" xmlns="http://www.w3.org/2000/svg">
<path d="M7.49985 20H6.49985C6.22371 20 5.99985 19.7761 5.99985 19.5V3.33L1.55985 7.78C1.46597 7.87466 1.33817 7.9279 1.20485 7.9279C1.07153 7.9279 0.943736 7.87466 0.849852 7.78L0.149852 7.07C0.055196 6.97612 0.00195312 6.84832 0.00195312 6.715C0.00195312 6.58168 0.055196 6.45388 0.149852 6.36L6.27985 0.22C6.42037 0.0793075 6.61101 0.000175052 6.80985 0H7.18985C7.38827 0.00230401 7.57813 0.081116 7.71985 0.22L13.8499 6.36C13.9445 6.45388 13.9978 6.58168 13.9978 6.715C13.9978 6.84832 13.9445 6.97612 13.8499 7.07L13.1399 7.78C13.0477 7.87406 12.9215 7.92707 12.7899 7.92707C12.6582 7.92707 12.532 7.87406 12.4399 7.78L7.99985 3.33V19.5C7.99985 19.7761 7.77599 20 7.49985 20Z" fill="white"/>
</svg>
