<svg width="16" height="16" viewBox="0 0 16 16" fill="none" xmlns="http://www.w3.org/2000/svg">
<path fill-rule="evenodd" clip-rule="evenodd" d="M8.00065 1.33301C4.31875 1.33301 1.33398 4.31778 1.33398 7.99967C1.33398 11.6816 4.31875 14.6663 8.00065 14.6663C11.6825 14.6663 14.6673 11.6816 14.6673 7.99967C14.6673 6.23156 13.9649 4.53587 12.7147 3.28563C11.4645 2.03539 9.76876 1.33301 8.00065 1.33301ZM8.00065 13.333C5.05513 13.333 2.66732 10.9452 2.66732 7.99967C2.66732 5.05416 5.05513 2.66634 8.00065 2.66634C10.9462 2.66634 13.334 5.05416 13.334 7.99967C13.334 9.41416 12.7721 10.7707 11.7719 11.7709C10.7717 12.7711 9.41514 13.333 8.00065 13.333ZM6.26042 5.13078C6.41967 5.04353 6.61371 5.04949 6.76732 5.14634L10.6673 7.57301C10.8128 7.66615 10.9007 7.82696 10.9007 7.99967C10.9007 8.17238 10.8128 8.3332 10.6673 8.42634L6.76732 10.853C6.61371 10.9499 6.41967 10.9558 6.26042 10.8686C6.10116 10.7813 6.00172 10.6146 6.00065 10.433V5.56634C6.00172 5.38475 6.10116 5.21802 6.26042 5.13078Z" fill="#FF7707"/>
</svg>
