<svg width="48" height="48" viewBox="0 0 48 48" fill="none" xmlns="http://www.w3.org/2000/svg">
<path d="M39.9997 26.0002C40.1403 30.2437 38.5894 34.3692 35.6882 37.4691C32.787 40.5691 28.7732 42.3896 24.5297 42.5302C20.2862 42.6708 16.1607 41.1199 13.0607 38.2187C9.96077 35.3175 8.14025 31.3037 7.99969 27.0602C7.99205 26.9258 8.01109 26.7912 8.05572 26.6642C8.10034 26.5372 8.16966 26.4203 8.25969 26.3202C8.36016 26.2154 8.48147 26.1327 8.61581 26.0776C8.75015 26.0225 8.89454 25.9961 9.03969 26.0002H11.0397C11.2916 25.9994 11.5346 26.0937 11.72 26.2643C11.9053 26.4348 12.0195 26.6691 12.0397 26.9202C12.2187 29.2477 13.0726 31.4725 14.4969 33.322C15.9212 35.1715 17.8541 36.5654 20.0586 37.3329C22.2632 38.1005 24.6438 38.2084 26.9088 37.6434C29.1737 37.0784 31.2247 35.8651 32.8105 34.152C34.3963 32.4389 35.448 30.3005 35.8368 27.9988C36.2256 25.697 35.9345 23.3318 34.9994 21.1929C34.0642 19.0541 32.5255 17.2344 30.5718 15.9568C28.618 14.6793 26.3341 13.9993 23.9997 14.0002V18.7202C24.0016 18.8543 23.976 18.9875 23.9244 19.1113C23.8728 19.2352 23.7963 19.3471 23.6997 19.4402L23.2997 19.8402C23.2067 19.9339 23.0961 20.0083 22.9743 20.0591C22.8524 20.1099 22.7217 20.136 22.5897 20.136C22.4577 20.136 22.327 20.1099 22.2051 20.0591C22.0833 20.0083 21.9727 19.9339 21.8797 19.8402L14.7997 12.7802C14.6152 12.5899 14.512 12.3352 14.512 12.0702C14.512 11.8051 14.6152 11.5505 14.7997 11.3602L21.8797 4.30019C21.9727 4.20646 22.0833 4.13207 22.2051 4.0813C22.327 4.03053 22.4577 4.00439 22.5897 4.00439C22.7217 4.00439 22.8524 4.03053 22.9743 4.0813C23.0961 4.13207 23.2067 4.20646 23.2997 4.30019L23.6997 4.70019C23.7963 4.79328 23.8728 4.90521 23.9244 5.02906C23.976 5.15291 24.0016 5.28604 23.9997 5.42019V10.0002C28.2432 10.0002 32.3128 11.6859 35.3134 14.6865C38.314 17.6871 39.9997 21.7567 39.9997 26.0002Z" fill="#FF7707"/>
</svg>
