<svg width="20" height="20" viewBox="0 0 20 20" fill="none" xmlns="http://www.w3.org/2000/svg">
<path d="M15.0007 1.66663H5.00065C4.55862 1.66663 4.1347 1.84222 3.82214 2.15478C3.50958 2.46734 3.33398 2.89127 3.33398 3.33329V16.6666C3.33398 17.1087 3.50958 17.5326 3.82214 17.8451C4.1347 18.1577 4.55862 18.3333 5.00065 18.3333H10.9757C11.1956 18.3335 11.4134 18.2901 11.6165 18.2057C11.8196 18.1213 12.0039 17.9976 12.159 17.8416L16.1756 13.825C16.3316 13.6699 16.4554 13.4855 16.5398 13.2824C16.6241 13.0793 16.6675 12.8616 16.6673 12.6416V3.33329C16.6673 2.89127 16.4917 2.46734 16.1792 2.15478C15.8666 1.84222 15.4427 1.66663 15.0007 1.66663ZM5.83398 5.41663C5.83398 5.30612 5.87788 5.20014 5.95602 5.122C6.03416 5.04386 6.14014 4.99996 6.25065 4.99996H13.7507C13.8612 4.99996 13.9671 5.04386 14.0453 5.122C14.1234 5.20014 14.1673 5.30612 14.1673 5.41663V6.24996C14.1673 6.36047 14.1234 6.46645 14.0453 6.54459C13.9671 6.62273 13.8612 6.66663 13.7507 6.66663H6.25065C6.14014 6.66663 6.03416 6.62273 5.95602 6.54459C5.87788 6.46645 5.83398 6.36047 5.83398 6.24996V5.41663ZM10.4173 9.99996H6.25065C6.14014 9.99996 6.03416 9.95606 5.95602 9.87792C5.87788 9.79978 5.83398 9.6938 5.83398 9.58329V8.74996C5.83398 8.63945 5.87788 8.53347 5.95602 8.45533C6.03416 8.37719 6.14014 8.33329 6.25065 8.33329H10.4173C10.5278 8.33329 10.6338 8.37719 10.7119 8.45533C10.7901 8.53347 10.834 8.63945 10.834 8.74996V9.58329C10.834 9.6938 10.7901 9.79978 10.7119 9.87792C10.6338 9.95606 10.5278 9.99996 10.4173 9.99996ZM10.834 16.8166V13.3333C10.834 13.1123 10.9218 12.9003 11.0781 12.744C11.2343 12.5878 11.4463 12.5 11.6673 12.5H15.1507L10.834 16.8166Z" fill="#2A404F"/>
</svg>
