<svg width="20" height="20" viewBox="0 0 20 20" fill="none" xmlns="http://www.w3.org/2000/svg">
<path d="M16.7309 7.37896H12.3259L13.2901 4.96896C13.428 4.62561 13.462 4.24933 13.3879 3.88683C13.3138 3.52432 13.1349 3.19154 12.8734 2.9298C12.7264 2.78286 12.5491 2.66971 12.3538 2.59818C12.1586 2.52666 11.9502 2.49848 11.743 2.51561C11.5358 2.53274 11.3348 2.59476 11.154 2.69737C10.9732 2.79997 10.8169 2.94071 10.6959 3.1098L8.1201 6.71396C7.73566 7.25088 7.30813 7.7556 6.84177 8.22313L6.01677 9.04813C5.97921 9.08564 5.94942 9.1302 5.92911 9.17925C5.9088 9.2283 5.89838 9.28088 5.89844 9.33396V15.5348C5.89838 15.6423 5.94093 15.7453 6.01677 15.8215L6.94094 16.7498C7.17636 16.9864 7.45636 17.1741 7.76476 17.3018C8.07315 17.4295 8.40381 17.4948 8.7376 17.494H13.7593C14.1558 17.4936 14.5437 17.3785 14.8761 17.1624C15.2086 16.9464 15.4713 16.6387 15.6326 16.2765L18.0959 10.734C18.2536 10.3805 18.3345 9.99765 18.3334 9.61063V8.9823C18.333 8.55735 18.164 8.14991 17.8636 7.84935C17.5632 7.54879 17.1559 7.37963 16.7309 7.37896V7.37896Z" fill="#FF7707"/>
<path d="M3.12283 8.50586C2.73671 8.50586 2.36642 8.65924 2.0934 8.93226C1.82037 9.20528 1.66699 9.57558 1.66699 9.96169V15.4359C1.66699 15.822 1.82037 16.1923 2.0934 16.4653C2.36642 16.7383 2.73671 16.8917 3.12283 16.8917C3.50894 16.8917 3.87923 16.7383 4.15226 16.4653C4.42528 16.1923 4.57866 15.822 4.57866 15.4359V9.96169C4.57866 9.57558 4.42528 9.20528 4.15226 8.93226C3.87923 8.65924 3.50894 8.50586 3.12283 8.50586Z" fill="#FF7707"/>
</svg>
