<svg width="10" height="6" viewBox="0 0 10 6" fill="none" xmlns="http://www.w3.org/2000/svg">
<path d="M0.86079 1.06005C0.813926 1.01357 0.776728 0.958269 0.751344 0.89734C0.725959 0.83641 0.712891 0.771057 0.712891 0.705051C0.712891 0.639045 0.725959 0.573693 0.751344 0.512763C0.776728 0.451833 0.813926 0.396533 0.86079 0.350052L1.06079 0.150051C1.10733 0.101737 1.1633 0.0634941 1.22522 0.0376921C1.28715 0.0118901 1.35371 -0.000921191 1.42079 5.15163e-05H8.58079C8.64787 -0.000921191 8.71443 0.0118901 8.77636 0.0376921C8.83828 0.0634941 8.89425 0.101737 8.94079 0.150051L9.14079 0.350052C9.18765 0.396533 9.22485 0.451833 9.25023 0.512763C9.27562 0.573693 9.28869 0.639045 9.28869 0.705051C9.28869 0.771057 9.27562 0.83641 9.25023 0.89734C9.22485 0.958269 9.18765 1.01357 9.14079 1.06005L5.35079 4.85005C5.3059 4.89788 5.25168 4.936 5.19148 4.96206C5.13129 4.98812 5.06639 5.00157 5.00079 5.00157C4.93519 5.00157 4.87029 4.98812 4.81009 4.96206C4.7499 4.936 4.69568 4.89788 4.65079 4.85005L0.86079 1.06005Z" fill="#2A404F"/>
</svg>
