<svg width="20" height="20" viewBox="0 0 20 20" fill="none" xmlns="http://www.w3.org/2000/svg">
<path fill-rule="evenodd" clip-rule="evenodd" d="M15.0003 5.83335V3.33335H15.417C15.6471 3.33335 15.8337 3.14681 15.8337 2.91669V2.08335C15.8337 1.85324 15.6471 1.66669 15.417 1.66669H4.58366C4.35354 1.66669 4.16699 1.85324 4.16699 2.08335V2.91669C4.16699 3.14681 4.35354 3.33335 4.58366 3.33335H5.00033V5.83335C4.99159 6.6043 5.33907 7.33615 5.94199 7.81669L8.66699 10L5.94199 12.1834C5.33907 12.6639 4.99159 13.3957 5.00033 14.1667V16.6667H4.58366C4.35354 16.6667 4.16699 16.8532 4.16699 17.0834V17.9167C4.16699 18.1468 4.35354 18.3334 4.58366 18.3334H15.417C15.6471 18.3334 15.8337 18.1468 15.8337 17.9167V17.0834C15.8337 16.8532 15.6471 16.6667 15.417 16.6667H15.0003V14.1667C14.9988 13.4074 14.6524 12.69 14.0587 12.2167L11.3337 10L14.0587 7.81669C14.6616 7.33615 15.0091 6.6043 15.0003 5.83335ZM13.3337 3.33335V5.83335H6.66699V3.33335H13.3337ZM13.3337 14.1667C13.3429 13.9015 13.2253 13.6477 13.017 13.4834L10.0003 11.0667L6.98366 13.5167C6.78471 13.6739 6.66816 13.9131 6.66699 14.1667V15H13.3337V14.1667Z" fill="#80909C"/>
</svg>
