<svg width="16" height="16" viewBox="0 0 16 16" fill="none" xmlns="http://www.w3.org/2000/svg">
<path fill-rule="evenodd" clip-rule="evenodd" d="M13.2683 2.29282L13.7073 2.73193C13.8944 2.91891 13.9997 3.17258 13.9999 3.43718V3.94283C14.0033 4.21202 13.8977 4.47115 13.7073 4.66138L12.4767 5.87227C12.4143 5.93524 12.3293 5.97067 12.2406 5.97067C12.1519 5.97067 12.0669 5.93524 12.0045 5.87227L10.1354 3.97609C10.0087 3.84674 10.0087 3.63972 10.1354 3.51036L11.3394 2.29282C11.5295 2.10231 11.7886 1.99674 12.0577 2.00008H12.5632C12.8277 2.00031 13.0813 2.10561 13.2683 2.29282ZM11.213 7.12308C11.3397 6.99372 11.3397 6.7867 11.213 6.65735L9.31067 4.78113C9.24822 4.71816 9.16322 4.68273 9.07454 4.68273C8.98587 4.68273 8.90087 4.71816 8.83842 4.78113L3.47072 10.1503C3.34095 10.279 3.23906 10.433 3.17141 10.6027L2.02736 13.4902C1.96256 13.6401 2.0161 13.8149 2.15374 13.9027C2.24801 13.9969 2.38934 14.0257 2.51292 13.9759L5.39963 12.805C5.56935 12.7373 5.72332 12.6354 5.85193 12.5056L11.213 7.12308Z" fill="#FF7707"/>
</svg>
