<svg width="24" height="24" viewBox="0 0 24 24" fill="none" xmlns="http://www.w3.org/2000/svg">
<path d="M12 0C5.4 0 0 5.4 0 12C0 18.6 5.4 24 12 24C18.6 24 24 18.6 24 12C24 5.4 18.6 0 12 0ZM12 19.5C11.1 19.5 10.5 18.9 10.5 18C10.5 17.1 11.1 16.5 12 16.5C12.9 16.5 13.5 17.1 13.5 18C13.5 18.9 12.9 19.5 12 19.5ZM14.25 12.6C13.5 13.05 13.5 13.2 13.5 13.5C13.5 14.3284 12.8284 15 12 15C11.1716 15 10.5 14.3284 10.5 13.5C10.5 11.55 11.7 10.65 12.6 10.05C13.35 9.6 13.5 9.45 13.5 9C13.5 8.1 12.9 7.5 12 7.5C11.4 7.5 10.95 7.8 10.65 8.25L10.6361 8.27508C10.2325 9.00148 9.30984 9.25285 8.59361 8.83153C7.90188 8.42464 7.66095 7.54029 8.05069 6.83876L8.1 6.75C8.85 5.4 10.35 4.5 12 4.5C14.55 4.5 16.5 6.45 16.5 9C16.5 11.1 15.15 12 14.25 12.6Z" fill="white"/>
</svg>
