<svg width="24" height="24" viewBox="0 0 24 24" fill="none" xmlns="http://www.w3.org/2000/svg">
<path d="M22.0018 12C22.0018 16.9706 17.9724 21 13.0018 21C11.1542 21.0061 9.35064 20.4363 7.84181 19.37C7.72125 19.2831 7.64457 19.148 7.63181 19C7.61987 18.8559 7.67093 18.7136 7.77181 18.61L8.49181 17.88C8.66082 17.7127 8.92425 17.6876 9.12181 17.82C10.268 18.5925 11.6196 19.0036 13.0018 19C16.8678 19 20.0018 15.866 20.0018 12C20.0018 8.13401 16.8678 5 13.0018 5C9.13581 5 6.00181 8.13401 6.00181 12H8.36181C8.49739 11.998 8.62773 12.0523 8.72181 12.15L8.92181 12.35C9.01646 12.4439 9.06971 12.5717 9.06971 12.705C9.06971 12.8383 9.01646 12.9661 8.92181 13.06L5.39181 16.6C5.19399 16.7918 4.87962 16.7918 4.68181 16.6L1.15181 13.06C1.05715 12.9661 1.00391 12.8383 1.00391 12.705C1.00391 12.5717 1.05715 12.4439 1.15181 12.35L1.35181 12.15C1.44588 12.0523 1.57622 11.998 1.71181 12H4.00181C4.00181 7.02944 8.03124 3 13.0018 3C17.9724 3 22.0018 7.02944 22.0018 12Z" fill="#AAB3B9"/>
</svg>
