<svg width="16" height="16" viewBox="0 0 16 16" fill="none" xmlns="http://www.w3.org/2000/svg">
<path d="M7.91804 0.333008C5.5123 0.333008 3.55522 2.28832 3.55522 4.69188V5.50708C3.55522 7.74816 5.29097 9.86595 8.08327 9.86595C10.489 9.86595 12.4461 7.91064 12.4461 5.50708V4.69188C12.4461 2.4508 10.7103 0.333008 7.91804 0.333008ZM11.4559 5.50708C11.4559 7.36501 9.94288 8.8767 8.08327 8.8767H7.91804C6.05842 8.8767 4.54536 7.36501 4.54536 5.50708V4.86531C5.49086 4.95214 6.3016 4.69262 6.89324 4.22044C8.31716 4.98652 9.93595 5.22428 11.4559 4.95712V5.50708ZM6.80567 6.66101C6.53227 6.66101 6.3106 6.43957 6.3106 6.16638V6.00851C6.3106 5.73532 6.53227 5.51388 6.80567 5.51388C7.07908 5.51388 7.30074 5.73532 7.30074 6.00851V6.16638C7.30074 6.43957 7.07911 6.66101 6.80567 6.66101ZM9.19563 6.66101C8.92223 6.66101 8.70056 6.43957 8.70056 6.16638V6.00851C8.70056 5.73532 8.92223 5.51388 9.19563 5.51388C9.46903 5.51388 9.6907 5.73532 9.6907 6.00851V6.16638C9.6907 6.43957 9.46903 6.66101 9.19563 6.66101ZM7.14251 10.5005C7.19288 10.3935 7.30204 10.3264 7.4204 10.3264H8.58088C8.69951 10.3264 8.8087 10.3939 8.85911 10.5012C9.14804 11.1161 8.7104 11.8443 8.00638 11.8485C7.30851 11.8526 6.8484 11.1251 7.14251 10.5005ZM12.6673 14.0567V15.1717C12.6673 15.4449 12.4457 15.6663 12.1722 15.6663H3.82906C3.55562 15.6663 3.33398 15.4449 3.33398 15.1717V14.0567C3.33398 12.504 4.28848 11.17 5.64201 10.6092C5.84455 10.5253 6.06341 10.6779 6.06288 10.897C6.06025 11.9662 6.93021 12.8377 8.00065 12.8377C9.07013 12.8377 9.94105 11.9672 9.93842 10.897C9.9379 10.6779 10.1567 10.5253 10.3593 10.6092C11.7128 11.17 12.6673 12.504 12.6673 14.0567Z" fill="#FF7707"/>
</svg>
