<svg width="24" height="24" viewBox="0 0 24 24" fill="none" xmlns="http://www.w3.org/2000/svg">
<path fill-rule="evenodd" clip-rule="evenodd" d="M6 2H18C19.1046 2 20 2.89543 20 4V14.76C19.9993 15.5554 19.6828 16.3179 19.12 16.88L14.88 21.12C14.3179 21.6828 13.5554 21.9993 12.76 22H6C4.89543 22 4 21.1046 4 20V4C4 2.89543 4.89543 2 6 2ZM13.0001 14H18.0001V3.99999H6.00008V20H12.0001V15C12.0001 14.4477 12.4478 14 13.0001 14ZM8.49992 8.00001H15.4999C15.7761 8.00001 15.9999 7.77615 15.9999 7.50001V6.50001C15.9999 6.22387 15.7761 6.00001 15.4999 6.00001H8.49992C8.22378 6.00001 7.99992 6.22387 7.99992 6.50001V7.50001C7.99992 7.77615 8.22378 8.00001 8.49992 8.00001ZM12.4999 12H8.49992C8.22378 12 7.99992 11.7761 7.99992 11.5V10.5C7.99992 10.2238 8.22378 9.99999 8.49992 9.99999H12.4999C12.7761 9.99999 12.9999 10.2238 12.9999 10.5V11.5C12.9999 11.7761 12.7761 12 12.4999 12Z" fill="#FF7707"/>
</svg>
