<svg width="32" height="32" viewBox="0 0 32 32" fill="none" xmlns="http://www.w3.org/2000/svg">
<path fill-rule="evenodd" clip-rule="evenodd" d="M8.66602 5.3335C9.0342 5.3335 9.33268 5.63197 9.33268 6.00016V7.3335C9.33268 7.70169 9.0342 8.00016 8.66602 8.00016H5.33268V11.3335C5.33268 11.7017 5.03421 12.0002 4.66602 12.0002H3.33268C2.96449 12.0002 2.66602 11.7017 2.66602 11.3335V8.00016C2.66602 6.5274 3.85992 5.3335 5.33268 5.3335H8.66602ZM29.3327 11.3335V8.00016C29.3327 6.5274 28.1388 5.3335 26.666 5.3335H23.3327C22.9645 5.3335 22.666 5.63197 22.666 6.00016V7.3335C22.666 7.70169 22.9645 8.00016 23.3327 8.00016H26.666V11.3335C26.666 11.7017 26.9645 12.0002 27.3327 12.0002H28.666C29.0342 12.0002 29.3327 11.7017 29.3327 11.3335ZM28.666 20.0002H27.3327C26.9645 20.0002 26.666 20.2986 26.666 20.6668V24.0002H23.3327C22.9645 24.0002 22.666 24.2986 22.666 24.6668V26.0002C22.666 26.3684 22.9645 26.6668 23.3327 26.6668H26.666C28.1388 26.6668 29.3327 25.4729 29.3327 24.0002V20.6668C29.3327 20.2986 29.0342 20.0002 28.666 20.0002ZM8.66602 24.0002C9.0342 24.0002 9.33268 24.2986 9.33268 24.6668V26.0002C9.33268 26.3684 9.0342 26.6668 8.66602 26.6668H5.33268C3.85992 26.6668 2.66602 25.4729 2.66602 24.0002V20.6668C2.66602 20.2986 2.96449 20.0002 3.33268 20.0002H4.66602C5.03421 20.0002 5.33268 20.2986 5.33268 20.6668V24.0002H8.66602Z" fill="#2A404F"/>
</svg>
