<svg width="20" height="20" viewBox="0 0 20 20" fill="none" xmlns="http://www.w3.org/2000/svg">
<path d="M16.6665 3.33331H3.33317C2.89114 3.33331 2.46722 3.50891 2.15466 3.82147C1.8421 4.13403 1.6665 4.55795 1.6665 4.99998V15C1.6665 15.442 1.8421 15.8659 2.15466 16.1785C2.46722 16.491 2.89114 16.6666 3.33317 16.6666H16.6665C17.1085 16.6666 17.5325 16.491 17.845 16.1785C18.1576 15.8659 18.3332 15.442 18.3332 15V4.99998C18.3332 4.55795 18.1576 4.13403 17.845 3.82147C17.5325 3.50891 17.1085 3.33331 16.6665 3.33331ZM16.6665 9.16665L11.3748 12.875C10.9717 13.1568 10.4917 13.3079 9.99984 13.3079C9.50797 13.3079 9.02798 13.1568 8.62484 12.875L3.33317 9.16665V7.41665L9.45817 11.7083C9.61723 11.8187 9.80622 11.8779 9.99984 11.8779C10.1935 11.8779 10.3824 11.8187 10.5415 11.7083L16.6665 7.41665V9.16665Z" fill="#2A404F"/>
</svg>
