<svg width="20" height="20" viewBox="0 0 20 20" fill="none" xmlns="http://www.w3.org/2000/svg">
<path d="M15.2083 12.6049C14.8128 12.6049 14.4225 12.6952 14.0672 12.8689C13.7118 13.0427 13.4009 13.2953 13.1581 13.6075C13.1433 13.5972 13.128 13.5876 13.1122 13.5789L7.35365 10.6995C7.33723 10.6923 7.32046 10.6859 7.30339 10.6805C7.42558 10.2406 7.42675 9.77588 7.30678 9.3354L13.163 6.40155C13.565 6.91577 14.1438 7.26228 14.7869 7.3738C15.43 7.48532 16.0916 7.3539 16.6433 7.00504C17.195 6.65619 17.5974 6.1148 17.7723 5.48596C17.9473 4.85713 17.8823 4.18572 17.5901 3.60207C17.2979 3.01843 16.7992 2.56419 16.1909 2.32753C15.5826 2.09087 14.908 2.08869 14.2982 2.3214C13.6884 2.55411 13.1868 3.00511 12.8908 3.58685C12.5948 4.16859 12.5255 4.83956 12.6964 5.46952L6.84402 8.40155C6.51084 7.97342 6.05227 7.66004 5.53235 7.50516C5.01243 7.35027 4.45712 7.36163 3.94397 7.53764C3.43082 7.71365 2.98545 8.04552 2.67005 8.48691C2.35465 8.9283 2.18497 9.45717 2.1847 9.99966C2.18444 10.5422 2.3536 11.0712 2.66857 11.5129C2.98354 11.9546 3.42859 12.2869 3.94157 12.4634C4.45455 12.6399 5.00984 12.6518 5.52991 12.4974C6.04998 12.3431 6.50885 12.0301 6.84246 11.6023C6.85698 11.6128 6.87211 11.6223 6.88777 11.631L12.6464 14.5104C12.6633 14.5185 12.6805 14.5224 12.6984 14.5286C12.5565 15.0539 12.5828 15.6105 12.7736 16.1201C12.9644 16.6297 13.3101 17.0667 13.7621 17.3696C14.2142 17.6725 14.7498 17.8261 15.2936 17.8088C15.8375 17.7915 16.3623 17.6042 16.7942 17.2732C17.226 16.9422 17.5433 16.4841 17.7014 15.9634C17.8594 15.4428 17.8503 14.8856 17.6752 14.3704C17.5002 13.8552 17.1681 13.4078 16.7256 13.0911C16.2831 12.7744 15.7525 12.6044 15.2083 12.6049Z" fill="#80909C"/>
</svg>
