<svg width="20" height="21" viewBox="0 0 20 21" fill="none" xmlns="http://www.w3.org/2000/svg">
<path d="M17.0083 5.84167L14.6583 3.49167C14.5033 3.33569 14.3189 3.21195 14.1158 3.12756C13.9127 3.04318 13.6949 2.99983 13.475 3H4.16667C3.72464 3 3.30072 3.1756 2.98816 3.48816C2.67559 3.80072 2.5 4.22464 2.5 4.66667V16.3333C2.5 16.7754 2.67559 17.1993 2.98816 17.5118C3.30072 17.8244 3.72464 18 4.16667 18H15.8333C16.2754 18 16.6993 17.8244 17.0118 17.5118C17.3244 17.1993 17.5 16.7754 17.5 16.3333V7.025C17.5002 6.80507 17.4568 6.58729 17.3724 6.38419C17.2881 6.1811 17.1643 5.99672 17.0083 5.84167ZM7.5 5.91667V4.66667H12.5V5.91667C12.5 6.02717 12.4561 6.13315 12.378 6.21129C12.2998 6.28944 12.1938 6.33333 12.0833 6.33333H7.91667C7.80616 6.33333 7.70018 6.28944 7.62204 6.21129C7.5439 6.13315 7.5 6.02717 7.5 5.91667ZM14.1667 16.3333H5.83333V10.0833C5.83333 9.97283 5.87723 9.86685 5.95537 9.78871C6.03351 9.71057 6.13949 9.66667 6.25 9.66667H13.75C13.8605 9.66667 13.9665 9.71057 14.0446 9.78871C14.1228 9.86685 14.1667 9.97283 14.1667 10.0833V16.3333ZM12.0833 13H7.91667C7.80616 13 7.70018 13.0439 7.62204 13.122C7.5439 13.2002 7.5 13.3062 7.5 13.4167V14.25C7.5 14.3605 7.5439 14.4665 7.62204 14.5446C7.70018 14.6228 7.80616 14.6667 7.91667 14.6667H12.0833C12.1938 14.6667 12.2998 14.6228 12.378 14.5446C12.4561 14.4665 12.5 14.3605 12.5 14.25V13.4167C12.5 13.3062 12.4561 13.2002 12.378 13.122C12.2998 13.0439 12.1938 13 12.0833 13Z" fill="white"/>
</svg>
