<svg width="72" height="72" viewBox="0 0 72 72" fill="none" xmlns="http://www.w3.org/2000/svg">
<circle cx="36" cy="36" r="36" fill="#FFF2E5"/>
<path d="M35.8341 20.667C31.0226 20.667 27.1085 24.5776 27.1085 29.3847V31.0151C27.1085 35.4973 30.58 39.7329 36.1646 39.7329C40.9761 39.7329 44.8902 35.8223 44.8902 31.0151V29.3847C44.8902 24.9026 41.4187 20.667 35.8341 20.667ZM42.9099 31.0151C42.9099 34.731 39.8838 37.7544 36.1646 37.7544H35.8341C32.1149 37.7544 29.0888 34.731 29.0888 31.0151V29.7316C30.9798 29.9053 32.6012 29.3862 33.7845 28.4419C36.6324 29.974 39.8699 30.4495 42.9099 29.9152V31.0151ZM33.6094 33.323C33.0626 33.323 32.6192 32.8801 32.6192 32.3337V32.018C32.6192 31.4716 33.0626 31.0287 33.6094 31.0287C34.1562 31.0287 34.5995 31.4716 34.5995 32.018V32.3337C34.5995 32.8801 34.1563 33.323 33.6094 33.323ZM38.3893 33.323C37.8425 33.323 37.3992 32.8801 37.3992 32.3337V32.018C37.3992 31.4716 37.8425 31.0287 38.3893 31.0287C38.9361 31.0287 39.3794 31.4716 39.3794 32.018V32.3337C39.3794 32.8801 38.9361 33.323 38.3893 33.323ZM34.2831 41.002C34.3838 40.788 34.6021 40.6539 34.8388 40.6539H37.1598C37.3971 40.6539 37.6154 40.7888 37.7163 41.0033C38.2941 42.2332 37.4188 43.6895 36.0108 43.6979C34.6151 43.7062 33.6949 42.2513 34.2831 41.002ZM45.3327 48.1144V50.3444C45.3327 50.8908 44.8894 51.3337 44.3425 51.3337H27.6562C27.1093 51.3337 26.666 50.8908 26.666 50.3444V48.1144C26.666 45.009 28.575 42.3409 31.2821 41.2195C31.6872 41.0517 32.1249 41.3569 32.1238 41.795C32.1185 43.9334 33.8585 45.6764 35.9993 45.6764C38.1383 45.6764 39.8802 43.9353 39.8749 41.795C39.8738 41.3568 40.3115 41.0516 40.7166 41.2194C43.4237 42.3409 45.3327 45.009 45.3327 48.1144Z" fill="#FF7707"/>
</svg>
