<svg width="16" height="16" viewBox="0 0 16 16" fill="none" xmlns="http://www.w3.org/2000/svg">
<path fill-rule="evenodd" clip-rule="evenodd" d="M14.0007 2.6665H10.0007C9.23366 2.66916 8.50495 3.00194 8.00065 3.57984C7.49636 3.00194 6.76764 2.66916 6.00065 2.6665H2.00065C1.63246 2.6665 1.33398 2.96498 1.33398 3.33317V11.9998C1.33398 12.368 1.63246 12.6665 2.00065 12.6665H5.72732C5.90221 12.6672 6.06981 12.7367 6.19398 12.8598L6.47398 13.1398C6.59816 13.263 6.76576 13.3324 6.94065 13.3332H9.06065C9.23554 13.3324 9.40314 13.263 9.52732 13.1398L9.80732 12.8598C9.93149 12.7367 10.0991 12.6672 10.274 12.6665H14.0007C14.3688 12.6665 14.6673 12.368 14.6673 11.9998V3.33317C14.6673 2.96498 14.3688 2.6665 14.0007 2.6665ZM7.33398 11.0265C6.92886 10.7915 6.469 10.6673 6.00065 10.6665H2.66732V3.99984H6.00065C6.73703 3.99984 7.33398 4.59679 7.33398 5.33317V11.0265ZM10.0007 10.6665H13.334V3.99984H10.0007C9.26427 3.99984 8.66732 4.59679 8.66732 5.33317V11.0265C9.07244 10.7915 9.5323 10.6673 10.0007 10.6665Z" fill="#FF7707"/>
</svg>
