<svg width="96" height="96" viewBox="0 0 96 96" fill="none" xmlns="http://www.w3.org/2000/svg">
<path d="M79.4795 7.27344H58.3857C56.9283 7.27344 55.749 8.45275 55.749 9.91016V12.5469H39.9287V9.91016C39.9287 8.45275 38.7494 7.27344 37.292 7.27344H16.1982C14.7408 7.27344 13.5615 8.45275 13.5615 9.91016V89.3633C13.5615 90.8207 14.7408 92 16.1982 92H79.4795C80.9369 92 82.1162 90.8207 82.1162 89.3633V9.91016C82.1162 8.45275 80.9369 7.27344 79.4795 7.27344Z" fill="#FEEECD"/>
<path d="M37.2922 17.8203H58.386C59.8434 17.8203 61.0227 16.641 61.0227 15.1836V9.91016C61.0227 5.47361 57.5491 2 53.1125 2H42.5657C38.2038 2 34.6555 5.54832 34.6555 9.91016V15.1836C34.6555 16.641 35.8348 17.8203 37.2922 17.8203ZM46.0006 23.8431L37.3179 32.5258L33.9086 29.1165C32.8787 28.0866 31.21 28.0866 30.1801 29.1165C29.1502 30.1464 29.1502 31.8151 30.1801 32.845L35.4536 38.1185C35.9686 38.6335 36.6433 38.891 37.3177 38.891C37.9922 38.891 38.667 38.6335 39.1819 38.1185L49.7287 27.5716C50.7586 26.5417 50.7586 24.873 49.7287 23.8431C48.6988 22.8132 47.0305 22.813 46.0006 23.8431ZM46.0006 44.9369L37.3179 53.6196L33.9086 50.2103C32.8787 49.1804 31.21 49.1804 30.1801 50.2103C29.1502 51.2402 29.1502 52.9089 30.1801 53.9388L35.4536 59.2122C35.9686 59.7273 36.6433 59.9848 37.3177 59.9848C37.9922 59.9848 38.667 59.7273 39.1819 59.2122L49.7287 48.6653C50.7586 47.6354 50.7586 45.9668 49.7287 44.9369C48.6988 43.9069 47.0305 43.9068 46.0006 44.9369ZM46.0006 66.0306L37.3179 74.7133L33.9086 71.304C32.8787 70.2741 31.21 70.2741 30.1801 71.304C29.1502 72.3339 29.1502 74.0026 30.1801 75.0325L35.4536 80.306C35.9686 80.821 36.6433 81.0785 37.3177 81.0785C37.9922 81.0785 38.667 80.821 39.1819 80.306L49.7287 69.7591C50.7586 68.7292 50.7586 67.0605 49.7287 66.0306C48.6988 65.0007 47.0305 65.0005 46.0006 66.0306ZM53.1384 30.9807C53.1384 32.4381 54.3177 33.6174 55.7751 33.6174H63.6852C65.1426 33.6174 66.3219 32.4381 66.3219 30.9807C66.3219 29.5233 65.1426 28.344 63.6852 28.344H55.7751C54.3177 28.344 53.1384 29.5233 53.1384 30.9807ZM63.6852 49.4377H55.7751C54.3177 49.4377 53.1384 50.6171 53.1384 52.0745C53.1384 53.5319 54.3177 54.7112 55.7751 54.7112H63.6852C65.1426 54.7112 66.3219 53.5319 66.3219 52.0745C66.3219 50.6171 65.1426 49.4377 63.6852 49.4377ZM63.6852 70.5315H55.7751C54.3177 70.5315 53.1384 71.7108 53.1384 73.1682C53.1384 74.6256 54.3177 75.8049 55.7751 75.8049H63.6852C65.1426 75.8049 66.3219 74.6256 66.3219 73.1682C66.3219 71.7108 65.1426 70.5315 63.6852 70.5315Z" fill="#FF7707"/>
</svg>
