<svg width="24" height="24" viewBox="0 0 24 24" fill="none" xmlns="http://www.w3.org/2000/svg">
<path d="M3.875 20.125V21.375C3.875 21.75 4.125 22 4.5 22H19.5C19.875 22 20.125 21.75 20.125 21.375V20.125H3.875Z" fill="#80909C"/>
<path d="M15.75 3V6.375H19.125L15.75 3Z" fill="#80909C"/>
<path d="M8.8125 13.5625H8.5625V14.375H8.75C8.875 14.375 9 14.3125 9.125 14.25C9.25 14.1875 9.25 14.0625 9.25 13.9375C9.25 13.6875 9.125 13.5625 8.8125 13.5625Z" fill="#80909C"/>
<path d="M12 13.5625H11.75V15.5625H11.9375C12.25 15.5625 12.4375 15.5 12.5625 15.3125C12.6875 15.125 12.75 14.875 12.75 14.5625C12.75 14.25 12.6875 14 12.5625 13.8125C12.4375 13.625 12.3125 13.5625 12 13.5625Z" fill="#80909C"/>
<path d="M21.375 10.125H20.125V7.625H15.125C14.75 7.625 14.5 7.375 14.5 7V2H4.5C4.125 2 3.875 2.25 3.875 2.625V10.125H2.625C2.25 10.125 2 10.375 2 10.75V18.25C2 18.625 2.25 18.875 2.625 18.875H21.375C21.75 18.875 22 18.625 22 18.25V10.75C22 10.375 21.75 10.125 21.375 10.125ZM9.875 14.875C9.625 15.0625 9.3125 15.1875 8.875 15.1875H8.625V16.375H7.625V12.8125H8.875C9.3125 12.8125 9.6875 12.9375 9.875 13.125C10.0625 13.3125 10.1875 13.625 10.1875 13.9375C10.1875 14.3125 10.125 14.625 9.875 14.875ZM13.3125 15.875C13 16.1875 12.5 16.375 11.9375 16.375H10.8125V12.8125H12.0625C12.625 12.8125 13.0625 12.9375 13.375 13.25C13.6875 13.5625 13.8125 13.9375 13.8125 14.5C13.8125 15.125 13.625 15.5625 13.3125 15.875ZM16.5625 13.5625H15.375V14.25H16.4375V15H15.375V16.375H14.4375V12.8125H16.5625V13.5625Z" fill="#80909C"/>
</svg>
