<svg width="16" height="16" viewBox="0 0 16 16" fill="none" xmlns="http://www.w3.org/2000/svg">
<path fill-rule="evenodd" clip-rule="evenodd" d="M12.3933 2H13.3333C13.7015 2 14 2.29848 14 2.66667V4.33333C14 4.51743 13.8508 4.66667 13.6667 4.66667H12.42C12.3243 4.6737 12.2365 4.72246 12.18 4.8H12.1467C12.0529 4.89368 12.0001 5.02077 12 5.15333V6.32667C12 6.51076 11.8508 6.66 11.6667 6.66H10.48C10.3474 6.66012 10.2203 6.71287 10.1267 6.80667L9.95333 6.98C9.85954 7.07368 9.80678 7.20077 9.80667 7.33333V7.81333C9.80593 7.98823 9.7365 8.15583 9.61333 8.28L9.02667 8.86667C9.22785 9.32952 9.33221 9.82865 9.33333 10.3333C9.33333 12.3584 7.69171 14 5.66667 14C3.64162 14 2 12.3584 2 10.3333C2 8.30829 3.64162 6.66667 5.66667 6.66667C6.17438 6.66605 6.67648 6.77283 7.14 6.98L11.9267 2.19333C12.0508 2.07017 12.2184 2.00074 12.3933 2ZM3.62667 11.04C3.62667 11.7764 4.22362 12.3733 4.96 12.3733C5.31362 12.3733 5.65276 12.2329 5.90281 11.9828C6.15286 11.7328 6.29333 11.3936 6.29333 11.04C6.29333 10.3036 5.69638 9.70667 4.96 9.70667C4.22362 9.70667 3.62667 10.3036 3.62667 11.04Z" fill="#FF7707"/>
</svg>
