<svg width="20" height="20" viewBox="0 0 20 20" fill="none" xmlns="http://www.w3.org/2000/svg">
<path d="M17.5 6.03337C17.4994 5.37056 17.2356 4.7351 16.7667 4.26671L13.825 1.32504C13.67 1.16907 13.4856 1.04532 13.2825 0.960939C13.0794 0.876555 12.8616 0.8332 12.6417 0.833375H7.35833C7.13841 0.8332 6.92062 0.876555 6.71753 0.960939C6.51443 1.04532 6.33005 1.16907 6.175 1.32504L3.23333 4.26671C2.76436 4.7351 2.50058 5.37056 2.5 6.03337V10.9084C2.50076 11.923 2.73311 12.9241 3.17935 13.8354C3.62559 14.7466 4.27394 15.544 5.075 16.1667L8.475 18.8167C8.76817 19.0442 9.1289 19.1674 9.5 19.1667H10.5C10.8711 19.1674 11.2318 19.0442 11.525 18.8167L14.925 16.1667C15.7261 15.544 16.3744 14.7466 16.8207 13.8354C17.2669 12.9241 17.4992 11.923 17.5 10.9084V6.03337ZM13.625 7.70004L8.94167 12.3834C8.90426 12.4232 8.85908 12.455 8.80891 12.4767C8.75875 12.4984 8.70466 12.5096 8.65 12.5096C8.59534 12.5096 8.54125 12.4984 8.49109 12.4767C8.44092 12.455 8.39574 12.4232 8.35833 12.3834L6.375 10.4C6.33595 10.3613 6.30495 10.3152 6.2838 10.2644C6.26264 10.2137 6.25175 10.1592 6.25175 10.1042C6.25175 10.0492 6.26264 9.99474 6.2838 9.94397C6.30495 9.89319 6.33595 9.84711 6.375 9.80838L6.81667 9.36671C6.85408 9.32685 6.89926 9.29508 6.94942 9.27336C6.99959 9.25165 7.05367 9.24044 7.10833 9.24044C7.163 9.24044 7.21708 9.25165 7.26725 9.27336C7.31741 9.29508 7.36259 9.32685 7.4 9.36671L8.65 10.6084L12.6 6.66671C12.6779 6.59036 12.7826 6.5476 12.8917 6.5476C13.0007 6.5476 13.1054 6.59036 13.1833 6.66671L13.625 7.10837C13.7013 7.18626 13.7441 7.29098 13.7441 7.40004C13.7441 7.50911 13.7013 7.61382 13.625 7.69171V7.70004Z" fill="#2A404F"/>
</svg>
