<svg width="24" height="26" viewBox="0 0 24 26" fill="none" xmlns="http://www.w3.org/2000/svg">
<path fill-rule="evenodd" clip-rule="evenodd" d="M14.41 6.43049H20C21.1046 6.43049 22 7.39011 22 8.57386V19.2907C22 20.4745 21.1046 21.4341 20 21.4341H4C2.89543 21.4341 2 20.4745 2 19.2907V6.43049C2 5.24673 2.89543 4.28711 4 4.28711H11.59C11.8523 4.28829 12.1037 4.39991 12.29 4.5979L13.71 6.1197C13.8963 6.31768 14.1477 6.4293 14.41 6.43049ZM20 19.2907V8.57386H14.41C13.6181 8.57028 12.8596 8.23127 12.3 7.63078L11.17 6.43049H4V19.2907H20ZM12 15.5398V16.6115C12 16.9075 11.7761 17.1474 11.5 17.1474H6.5C6.22386 17.1474 6 16.9075 6 16.6115V15.5398C6 15.2439 6.22386 15.004 6.5 15.004H11.5C11.7761 15.004 12 15.2439 12 15.5398ZM14 12.3248V11.2531C14 10.9571 13.7761 10.7172 13.5 10.7172H6.5C6.22386 10.7172 6 10.9571 6 11.2531V12.3248C6 12.6207 6.22386 12.8606 6.5 12.8606H13.5C13.7761 12.8606 14 12.6207 14 12.3248Z" fill="#2A404F"/>
</svg>
