<svg width="20" height="20" viewBox="0 0 20 20" fill="none" xmlns="http://www.w3.org/2000/svg">
<path d="M16.5419 6.0413L7.70854 14.8746C7.6698 14.9137 7.62372 14.9447 7.57294 14.9658C7.52217 14.987 7.46771 14.9979 7.4127 14.9979C7.3577 14.9979 7.30324 14.987 7.25246 14.9658C7.20169 14.9447 7.1556 14.9137 7.11687 14.8746L2.6252 10.383C2.58615 10.3442 2.55515 10.2981 2.534 10.2474C2.51284 10.1966 2.50195 10.1421 2.50195 10.0871C2.50195 10.0321 2.51284 9.97766 2.534 9.92689C2.55515 9.87611 2.58615 9.83003 2.6252 9.7913L3.20854 9.20796C3.24727 9.16891 3.29335 9.13791 3.34413 9.11676C3.3949 9.0956 3.44936 9.08471 3.50437 9.08471C3.55937 9.08471 3.61383 9.0956 3.66461 9.11676C3.71538 9.13791 3.76147 9.16891 3.8002 9.20796L7.40854 12.8163L15.3669 4.85796C15.4462 4.78109 15.5523 4.7381 15.6627 4.7381C15.7731 4.7381 15.8792 4.78109 15.9585 4.85796L16.5419 5.44963C16.5809 5.48836 16.6119 5.53445 16.6331 5.58522C16.6542 5.636 16.6651 5.69046 16.6651 5.74546C16.6651 5.80047 16.6542 5.85493 16.6331 5.9057C16.6119 5.95648 16.5809 6.00256 16.5419 6.0413Z" fill="white"/>
</svg>
