<svg width="24" height="24" viewBox="0 0 24 24" fill="none" xmlns="http://www.w3.org/2000/svg">
<path d="M12 2C6.5 2 2 6.5 2 12C2 17.5 6.5 22 12 22C17.5 22 22 17.5 22 12C22 6.5 17.5 2 12 2ZM12 18.25C11.25 18.25 10.75 17.75 10.75 17C10.75 16.25 11.25 15.75 12 15.75C12.75 15.75 13.25 16.25 13.25 17C13.25 17.75 12.75 18.25 12 18.25ZM13.875 12.5C13.25 12.875 13.25 13 13.25 13.25C13.25 13.9404 12.6904 14.5 12 14.5C11.3096 14.5 10.75 13.9404 10.75 13.25C10.75 11.625 11.75 10.875 12.5 10.375C13.125 10 13.25 9.875 13.25 9.5C13.25 8.75 12.75 8.25 12 8.25C11.5 8.25 11.125 8.5 10.875 8.875L10.8634 8.8959C10.5271 9.50123 9.7582 9.71071 9.16134 9.35961C8.5849 9.02053 8.38412 8.28358 8.70891 7.69897L8.75 7.625C9.375 6.5 10.625 5.75 12 5.75C14.125 5.75 15.75 7.375 15.75 9.5C15.75 11.25 14.625 12 13.875 12.5Z" fill="#FF7707"/>
</svg>
