<svg width="16" height="16" viewBox="0 0 16 16" fill="none" xmlns="http://www.w3.org/2000/svg">
<path d="M12 6.66634V5.33301C12 4.27214 11.5785 3.25473 10.8284 2.50458C10.0782 1.75444 9.06082 1.33301 7.99996 1.33301C6.93909 1.33301 5.92168 1.75444 5.17153 2.50458C4.42139 3.25473 3.99996 4.27214 3.99996 5.33301V6.66634C3.64634 6.66634 3.3072 6.80682 3.05715 7.05687C2.8071 7.30691 2.66663 7.64605 2.66663 7.99967V13.333C2.66663 13.6866 2.8071 14.0258 3.05715 14.2758C3.3072 14.5259 3.64634 14.6663 3.99996 14.6663H12C12.3536 14.6663 12.6927 14.5259 12.9428 14.2758C13.1928 14.0258 13.3333 13.6866 13.3333 13.333V7.99967C13.3333 7.64605 13.1928 7.30691 12.9428 7.05687C12.6927 6.80682 12.3536 6.66634 12 6.66634ZM5.33329 5.33301C5.33329 4.62576 5.61424 3.94749 6.11434 3.44739C6.61444 2.94729 7.29272 2.66634 7.99996 2.66634C8.7072 2.66634 9.38548 2.94729 9.88558 3.44739C10.3857 3.94749 10.6666 4.62576 10.6666 5.33301V6.66634H5.33329V5.33301ZM9.33329 11.333C9.33329 11.5098 9.26305 11.6794 9.13803 11.8044C9.01301 11.9294 8.84344 11.9997 8.66663 11.9997H7.33329C7.15648 11.9997 6.98691 11.9294 6.86189 11.8044C6.73686 11.6794 6.66663 11.5098 6.66663 11.333V9.99967C6.66663 9.82286 6.73686 9.65329 6.86189 9.52827C6.98691 9.40325 7.15648 9.33301 7.33329 9.33301H8.66663C8.84344 9.33301 9.01301 9.40325 9.13803 9.52827C9.26305 9.65329 9.33329 9.82286 9.33329 9.99967V11.333Z" fill="white"/>
</svg>
