<svg width="20" height="20" viewBox="0 0 20 20" fill="none" xmlns="http://www.w3.org/2000/svg">
<path d="M16.7309 12.6206H12.3259L13.2901 15.0306C13.428 15.374 13.462 15.7502 13.3879 16.1128C13.3138 16.4753 13.1349 16.808 12.8734 17.0698C12.7264 17.2167 12.5491 17.3299 12.3538 17.4014C12.1586 17.4729 11.9502 17.5011 11.743 17.484C11.5358 17.4668 11.3348 17.4048 11.154 17.3022C10.9732 17.1996 10.8169 17.0589 10.6959 16.8898L8.1201 13.2856C7.73566 12.7487 7.30813 12.244 6.84177 11.7764L6.01677 10.9514C5.97921 10.9139 5.94942 10.8694 5.92911 10.8203C5.9088 10.7713 5.89838 10.7187 5.89844 10.6656V4.46478C5.89838 4.35732 5.94093 4.25423 6.01677 4.17811L6.94094 3.25394C7.17636 3.0173 7.45636 2.82969 7.76476 2.70195C8.07315 2.57422 8.40381 2.5089 8.7376 2.50977H13.7593C14.1558 2.51009 14.5437 2.62524 14.8761 2.8413C15.2086 3.05736 15.4713 3.36508 15.6326 3.72727L18.0959 9.26978C18.253 9.62196 18.3339 10.0033 18.3334 10.3889V11.0173C18.333 11.4422 18.164 11.8497 17.8636 12.1502C17.5632 12.4508 17.1559 12.62 16.7309 12.6206Z" fill="#606E78"/>
<path d="M3.12283 11.4942C2.73671 11.4942 2.36642 11.3408 2.0934 11.0678C1.82037 10.7948 1.66699 10.4245 1.66699 10.0384V4.56423C1.66699 4.17812 1.82037 3.80782 2.0934 3.5348C2.36642 3.26178 2.73671 3.1084 3.12283 3.1084C3.50894 3.1084 3.87923 3.26178 4.15226 3.5348C4.42528 3.80782 4.57866 4.17812 4.57866 4.56423V10.0384C4.57866 10.4245 4.42528 10.7948 4.15226 11.0678C3.87923 11.3408 3.50894 11.4942 3.12283 11.4942Z" fill="#606E78"/>
</svg>
