<svg width="20" height="20" viewBox="0 0 20 20" fill="none" xmlns="http://www.w3.org/2000/svg">
<path d="M14.9997 8.33335V6.66669C14.9997 5.3406 14.4729 4.06884 13.5352 3.13115C12.5975 2.19347 11.3258 1.66669 9.99967 1.66669C8.67359 1.66669 7.40182 2.19347 6.46414 3.13115C5.52646 4.06884 4.99967 5.3406 4.99967 6.66669V8.33335C4.55765 8.33335 4.13372 8.50895 3.82116 8.82151C3.5086 9.13407 3.33301 9.55799 3.33301 10V16.6667C3.33301 17.1087 3.5086 17.5326 3.82116 17.8452C4.13372 18.1578 4.55765 18.3334 4.99967 18.3334H14.9997C15.4417 18.3334 15.8656 18.1578 16.1782 17.8452C16.4907 17.5326 16.6663 17.1087 16.6663 16.6667V10C16.6663 9.55799 16.4907 9.13407 16.1782 8.82151C15.8656 8.50895 15.4417 8.33335 14.9997 8.33335ZM6.66634 6.66669C6.66634 5.78263 7.01753 4.93479 7.64265 4.30966C8.26777 3.68454 9.11562 3.33335 9.99967 3.33335C10.8837 3.33335 11.7316 3.68454 12.3567 4.30966C12.9818 4.93479 13.333 5.78263 13.333 6.66669V8.33335H6.66634V6.66669ZM11.6663 14.1667C11.6663 14.3877 11.5785 14.5997 11.4223 14.7559C11.266 14.9122 11.054 15 10.833 15H9.16634C8.94533 15 8.73337 14.9122 8.57709 14.7559C8.4208 14.5997 8.33301 14.3877 8.33301 14.1667V12.5C8.33301 12.279 8.4208 12.067 8.57709 11.9108C8.73337 11.7545 8.94533 11.6667 9.16634 11.6667H10.833C11.054 11.6667 11.266 11.7545 11.4223 11.9108C11.5785 12.067 11.6663 12.279 11.6663 12.5V14.1667Z" fill="#FF7707"/>
</svg>
