<svg width="73" height="72" viewBox="0 0 73 72" fill="none" xmlns="http://www.w3.org/2000/svg">
<circle cx="36.5" cy="36" r="36" fill="#FFF2E5"/>
<path d="M23.9346 33.1393C23.7093 32.9753 23.613 32.6864 23.6948 32.42L23.8014 32.0869C23.8793 31.8237 24.1135 31.6374 24.3875 31.6207L32.8993 30.9413L36.1628 23.095C36.2722 22.8201 36.547 22.6477 36.8421 22.6687H37.1884C37.4666 22.6628 37.718 22.834 37.8145 23.095L41.0913 30.9413L49.6031 31.6207C49.877 31.6374 50.1113 31.8237 50.1892 32.0869L50.2958 32.42C50.3864 32.6779 50.3066 32.9651 50.0959 33.1393L43.6755 38.6544L45.6469 46.927C45.7119 47.1918 45.6122 47.4698 45.3938 47.633L45.0075 47.8461C44.7822 47.9984 44.4869 47.9984 44.2616 47.8461L37.0153 43.4501L29.729 47.8861C29.5037 48.0384 29.2084 48.0384 28.983 47.8861L28.69 47.6863C28.4716 47.523 28.372 47.245 28.4369 46.9802L30.355 38.6544L23.9346 33.1393Z" fill="#FF7707"/>
</svg>
