<svg width="20" height="20" viewBox="0 0 20 20" fill="none" xmlns="http://www.w3.org/2000/svg">
<path d="M14.9999 1.66699H4.99992C4.55789 1.66699 4.13397 1.84259 3.82141 2.15515C3.50885 2.46771 3.33325 2.89163 3.33325 3.33366V16.667C3.33325 17.109 3.50885 17.5329 3.82141 17.8455C4.13397 18.1581 4.55789 18.3337 4.99992 18.3337H10.9749C11.1948 18.3338 11.4126 18.2905 11.6157 18.2061C11.8188 18.1217 12.0032 17.998 12.1583 17.842L16.1749 13.8253C16.3309 13.6703 16.4546 13.4859 16.539 13.2828C16.6234 13.0797 16.6668 12.8619 16.6666 12.642V3.33366C16.6666 2.89163 16.491 2.46771 16.1784 2.15515C15.8659 1.84259 15.4419 1.66699 14.9999 1.66699ZM5.83325 5.41699C5.83325 5.30649 5.87715 5.2005 5.95529 5.12236C6.03343 5.04422 6.13941 5.00033 6.24992 5.00033H13.7499C13.8604 5.00033 13.9664 5.04422 14.0445 5.12236C14.1227 5.2005 14.1666 5.30649 14.1666 5.41699V6.25033C14.1666 6.36083 14.1227 6.46681 14.0445 6.54495C13.9664 6.62309 13.8604 6.66699 13.7499 6.66699H6.24992C6.13941 6.66699 6.03343 6.62309 5.95529 6.54495C5.87715 6.46681 5.83325 6.36083 5.83325 6.25033V5.41699ZM10.4166 10.0003H6.24992C6.13941 10.0003 6.03343 9.95643 5.95529 9.87829C5.87715 9.80015 5.83325 9.69417 5.83325 9.58366V8.75033C5.83325 8.63982 5.87715 8.53384 5.95529 8.4557C6.03343 8.37756 6.13941 8.33366 6.24992 8.33366H10.4166C10.5271 8.33366 10.6331 8.37756 10.7112 8.4557C10.7894 8.53384 10.8333 8.63982 10.8333 8.75033V9.58366C10.8333 9.69417 10.7894 9.80015 10.7112 9.87829C10.6331 9.95643 10.5271 10.0003 10.4166 10.0003ZM10.8333 16.817V13.3337C10.8333 13.1126 10.921 12.9007 11.0773 12.7444C11.2336 12.5881 11.4456 12.5003 11.6666 12.5003H15.1499L10.8333 16.817Z" fill="#FF7707"/>
</svg>
