<svg width="20" height="20" viewBox="0 0 20 20" fill="none" xmlns="http://www.w3.org/2000/svg">
<path fill-rule="evenodd" clip-rule="evenodd" d="M10.8333 3.74999V2.91666C10.8314 2.80116 10.8765 2.68984 10.9583 2.60832C11.0497 2.52778 11.1704 2.48858 11.2917 2.49999C14.6241 2.7222 17.2778 5.37593 17.5 8.70832C17.5068 8.824 17.4679 8.93773 17.3917 9.02499C17.3101 9.10683 17.1988 9.15196 17.0833 9.14999H16.25C16.0323 9.15069 15.8507 8.98367 15.8333 8.76666C15.6435 6.30908 13.6909 4.35652 11.2333 4.16666C11.0098 4.15771 10.8332 3.97375 10.8333 3.74999ZM10.975 5.94999C10.884 6.02993 10.8323 6.14553 10.8333 6.26666V7.09999C10.8299 7.29919 10.9708 7.47176 11.1667 7.50832C11.8367 7.63098 12.3647 8.14905 12.5 8.81666C12.5366 9.0125 12.7091 9.15337 12.9083 9.14999H13.7417C13.8628 9.15104 13.9784 9.09933 14.0583 9.00832C14.1368 8.91606 14.173 8.79519 14.1583 8.67499C13.9407 7.20819 12.7912 6.05526 11.325 5.83332C11.2024 5.82312 11.0812 5.86553 10.9917 5.94999H10.975ZM15.9083 17.0084C15.5952 17.3235 15.1692 17.5004 14.725 17.5001H14.1667C12.7744 17.4941 11.4055 17.1419 10.1833 16.4751L9.80833 16.2668C7.21729 14.8737 5.09308 12.7495 3.7 10.1584L3.49167 9.78342C2.84178 8.56816 2.5012 7.21154 2.5 5.83342V5.27509C2.49965 4.83088 2.67663 4.40492 2.99167 4.09176L4.4 2.68342C4.53677 2.54559 4.72984 2.47915 4.92247 2.50364C5.11509 2.52812 5.2854 2.64075 5.38333 2.80842L7.25833 6.02509C7.44794 6.3525 7.39319 6.76655 7.125 7.03342L5.55 8.60842C5.4192 8.73778 5.38872 8.93761 5.475 9.10009L5.76667 9.65009C6.8142 11.5905 8.40772 13.1811 10.35 14.2251L10.9 14.5251C11.0625 14.6114 11.2623 14.5809 11.3917 14.4501L12.9667 12.8751C13.2335 12.6069 13.6476 12.5521 13.975 12.7418L17.1917 14.6168C17.3593 14.7147 17.472 14.885 17.4965 15.0776C17.5209 15.2703 17.4545 15.4633 17.3167 15.6001L15.9083 17.0084Z" fill="#2A404F"/>
</svg>
