<svg width="16" height="16" viewBox="0 0 16 16" fill="none" xmlns="http://www.w3.org/2000/svg">
<path d="M11.8996 10.9599C11.9308 10.9909 11.9556 11.0278 11.9725 11.0684C11.9895 11.109 11.9982 11.1526 11.9982 11.1966C11.9982 11.2406 11.9895 11.2842 11.9725 11.3248C11.9556 11.3654 11.9308 11.4023 11.8996 11.4333L11.4329 11.8999C11.4019 11.9312 11.3651 11.956 11.3244 11.9729C11.2838 11.9898 11.2402 11.9985 11.1962 11.9985C11.1522 11.9985 11.1087 11.9898 11.0681 11.9729C11.0274 11.956 10.9906 11.9312 10.9596 11.8999L7.99958 8.93994L5.03958 11.8999C5.00859 11.9312 4.97172 11.956 4.9311 11.9729C4.89048 11.9898 4.84691 11.9985 4.80291 11.9985C4.75891 11.9985 4.71534 11.9898 4.67472 11.9729C4.6341 11.956 4.59723 11.9312 4.56624 11.8999L4.09958 11.4333C4.06833 11.4023 4.04354 11.3654 4.02661 11.3248C4.00969 11.2842 4.00098 11.2406 4.00098 11.1966C4.00098 11.1526 4.00969 11.109 4.02661 11.0684C4.04354 11.0278 4.06833 10.9909 4.09958 10.9599L7.05958 7.99994L4.09958 5.03994C4.06833 5.00895 4.04354 4.97209 4.02661 4.93147C4.00969 4.89085 4.00098 4.84728 4.00098 4.80328C4.00098 4.75927 4.00969 4.7157 4.02661 4.67508C4.04354 4.63446 4.06833 4.5976 4.09958 4.56661L4.56624 4.09994C4.59723 4.0687 4.6341 4.0439 4.67472 4.02698C4.71534 4.01006 4.75891 4.00134 4.80291 4.00134C4.84691 4.00134 4.89048 4.01006 4.9311 4.02698C4.97172 4.0439 5.00859 4.0687 5.03958 4.09994L7.99958 7.05994L10.9596 4.09994C10.9906 4.0687 11.0274 4.0439 11.0681 4.02698C11.1087 4.01006 11.1522 4.00134 11.1962 4.00134C11.2402 4.00134 11.2838 4.01006 11.3244 4.02698C11.3651 4.0439 11.4019 4.0687 11.4329 4.09994L11.8996 4.56661C11.9308 4.5976 11.9556 4.63446 11.9725 4.67508C11.9895 4.7157 11.9982 4.75927 11.9982 4.80328C11.9982 4.84728 11.9895 4.89085 11.9725 4.93147C11.9556 4.97209 11.9308 5.00895 11.8996 5.03994L8.93958 7.99994L11.8996 10.9599Z" fill="#80909C"/>
</svg>
