<svg width="20" height="20" viewBox="0 0 20 20" fill="none" xmlns="http://www.w3.org/2000/svg">
<path fill-rule="evenodd" clip-rule="evenodd" d="M9.36634 1.66669H14.9997C15.9201 1.66669 16.6663 2.41288 16.6663 3.33335V16.6667C16.6663 17.5872 15.9201 18.3334 14.9997 18.3334H4.99967C4.0792 18.3334 3.33301 17.5872 3.33301 16.6667V7.70002C3.33359 7.0372 3.59737 6.40174 4.06634 5.93335L7.59967 2.40002C8.06807 1.93105 8.70352 1.66727 9.36634 1.66669ZM4.99967 16.6667H14.9997V3.33335H9.99967V7.50002C9.99967 7.96026 9.62658 8.33335 9.16634 8.33335H4.99967V16.6667ZM6.66634 10.4167V11.25C6.66634 11.4801 6.85289 11.6667 7.08301 11.6667H12.9163C13.1465 11.6667 13.333 11.4801 13.333 11.25V10.4167C13.333 10.1866 13.1465 10 12.9163 10H7.08301C6.85289 10 6.66634 10.1866 6.66634 10.4167ZM7.08301 13.3334H10.4163C10.6465 13.3334 10.833 13.5199 10.833 13.75V14.5834C10.833 14.8135 10.6465 15 10.4163 15H7.08301C6.85289 15 6.66634 14.8135 6.66634 14.5834V13.75C6.66634 13.5199 6.85289 13.3334 7.08301 13.3334Z" fill="#80909C"/>
</svg>
