<svg width="21" height="21" viewBox="0 0 21 21" fill="none" xmlns="http://www.w3.org/2000/svg">
<path fill-rule="evenodd" clip-rule="evenodd" d="M11.3337 13.8333H9.66699C9.20675 13.8333 8.83366 13.4602 8.83366 13V4.66665C8.83366 4.20641 9.20675 3.83331 9.66699 3.83331H11.3337C11.7939 3.83331 12.167 4.20641 12.167 4.66665V13C12.167 13.4602 11.7939 13.8333 11.3337 13.8333ZM3.83366 11.3333V13C3.83366 13.4602 4.20675 13.8333 4.66699 13.8333H6.33366C6.7939 13.8333 7.16699 13.4602 7.16699 13V11.3333C7.16699 10.8731 6.7939 10.5 6.33366 10.5H4.66699C4.20675 10.5 3.83366 10.8731 3.83366 11.3333ZM14.667 13.8333H16.3337C16.7939 13.8333 17.167 13.4602 17.167 13V7.99998C17.167 7.53974 16.7939 7.16665 16.3337 7.16665H14.667C14.2068 7.16665 13.8337 7.53974 13.8337 7.99998V13C13.8337 13.4602 14.2068 13.8333 14.667 13.8333ZM2.58366 15.5H18.417C18.6471 15.5 18.8337 15.6865 18.8337 15.9166V16.75C18.8337 16.9801 18.6471 17.1666 18.417 17.1666H2.58366C2.35354 17.1666 2.16699 16.9801 2.16699 16.75V15.9166C2.16699 15.6865 2.35354 15.5 2.58366 15.5Z" fill="white"/>
</svg>
