<svg width="16" height="16" viewBox="0 0 16 16" fill="none" xmlns="http://www.w3.org/2000/svg">
<path d="M13.7617 7.63808V3.35842C13.7617 3.29427 13.7442 3.23556 13.718 3.18153C13.7338 3.13781 13.7617 3.09923 13.7617 3.0508C13.7617 2.86776 13.6404 2.70673 13.4641 2.65626L7.72194 1.01563C7.64824 0.994791 7.57053 0.994791 7.49684 1.01563L1.75464 2.65626C1.57838 2.70673 1.45703 2.86776 1.45703 3.0508C1.45703 3.23384 1.57838 3.39487 1.75464 3.44534L3.91797 4.06342V4.54883C3.91797 5.01545 4.17714 5.44445 4.57808 5.64152C6.41657 6.54515 8.80141 6.54474 10.6407 5.64193C11.0417 5.44486 11.3008 5.01586 11.3008 4.54883V4.06342L12.9415 3.5947V7.63808C12.4651 7.80797 12.1211 8.25898 12.1211 8.793V9.61331C12.1211 9.84002 12.3046 10.0235 12.5313 10.0235H14.1719C14.3986 10.0235 14.5821 9.84002 14.5821 9.61331V8.793C14.5821 8.25898 14.2381 7.80799 13.7617 7.63808Z" fill="#FF7707"/>
<path d="M10.9621 6.43287C9.93105 6.93955 8.75787 7.20711 7.56945 7.20711C6.38103 7.20711 5.20744 6.93914 4.17603 6.43246C4.07529 6.38294 3.99187 6.30955 3.90234 6.24414C3.98995 7.72043 4.78424 8.97313 5.90675 9.61492C5.90675 9.61492 6.48253 9.88696 6.66243 9.93807L6.66314 9.93673C6.95449 10.0198 7.25445 10.0782 7.56942 10.0782C7.85782 10.0782 8.2686 10.0207 8.67909 9.86911C8.86817 9.80179 9.23078 9.61577 9.23078 9.61577C10.354 8.9742 11.1488 7.72111 11.2365 6.2443C11.1468 6.30982 11.0631 6.38324 10.9621 6.43287Z" fill="#FF7707"/>
<path d="M7.56827 10.8983C7.23763 10.8983 6.91943 10.8473 6.60938 10.7725L7.56827 12.2108L8.52177 10.7738C8.21334 10.8478 7.89702 10.8983 7.56827 10.8983Z" fill="#FF7707"/>
<path d="M9.92936 10.1631C9.92209 10.168 9.91394 10.1713 9.90669 10.1762L9.56172 10.6937C9.56172 10.7128 7.9891 13.0649 7.97852 13.0808V15.0003H13.3106C13.5373 15.0003 13.7207 14.8169 13.7207 14.5902C13.7207 12.3503 12.0722 10.5117 9.92936 10.1631ZM10.8496 13.3597H10.0293C9.80259 13.3597 9.61914 13.1762 9.61914 12.9495C9.61914 12.7228 9.80259 12.5394 10.0293 12.5394H10.8496C11.0763 12.5394 11.2598 12.7228 11.2598 12.9495C11.2598 13.1762 11.0763 13.3597 10.8496 13.3597Z" fill="#FF7707"/>
<path d="M5.22258 10.1712C5.2159 10.1668 5.20847 10.1637 5.20179 10.1592C3.06124 10.5102 1.41602 12.3515 1.41602 14.5899C1.41602 14.8167 1.59947 15.0001 1.82617 15.0001H7.15822V13.0805C5.29941 10.2875 5.67872 10.8577 5.22258 10.1712Z" fill="#FF7707"/>
</svg>
