<svg width="96" height="96" viewBox="0 0 96 96" fill="none" xmlns="http://www.w3.org/2000/svg">
<path d="M85.5 36V57.75C85.5 58.7446 85.1049 59.6984 84.4017 60.4017C83.6984 61.1049 82.7446 61.5 81.75 61.5C80.7554 61.5 79.8016 61.1049 79.0983 60.4017C78.3951 59.6984 78 58.7446 78 57.75V84L82.5 88.5V91.5H52.5V88.5L57 84V57.75C57 58.7446 56.6049 59.6984 55.9017 60.4017C55.1984 61.1049 54.2446 61.5 53.25 61.5C52.2554 61.5 51.3016 61.1049 50.5983 60.4017C49.8951 59.6984 49.5 58.7446 49.5 57.75V36C49.5001 34.0109 50.2903 32.1033 51.6968 30.6968C53.1033 29.2903 55.0109 28.5001 57 28.5H78C79.9891 28.5001 81.8967 29.2903 83.3032 30.6968C84.7097 32.1033 85.4999 34.0109 85.5 36Z" fill="#FFE9D6"/>
<path d="M82.5 88.5V91.5H52.5V88.5L57 84H78L82.5 88.5Z" fill="#FFB401"/>
<path d="M57 52.5H78V84H57V52.5Z" fill="#325873"/>
<path d="M66 84H69V91.5H66V84Z" fill="#FFFBF7"/>
<path d="M66 63H69V84H66V63Z" fill="#80909C"/>
<path d="M85.5 36V54H78V52.5H57V54H49.5V36C49.5001 34.0109 50.2903 32.1033 51.6968 30.6968C53.1033 29.2903 55.0109 28.5001 57 28.5H78C79.9891 28.5001 81.8967 29.2903 83.3032 30.6968C84.7097 32.1033 85.4999 34.0109 85.5 36Z" fill="#FF7707"/>
<path d="M71.4991 30L68.9992 37.5L70.4992 45L67.4992 48L64.4992 45L65.9992 37.5L63.4993 30H71.4991Z" fill="#FFFBF7"/>
<path d="M76.5 28.5V37.5L67.5 30.3L58.5 37.5V28.5H76.5Z" fill="#2A404F"/>
<path d="M69 39H66C65.6022 39 65.2206 38.842 64.9393 38.5607C64.658 38.2794 64.5 37.8978 64.5 37.5C64.5 37.1022 64.658 36.7206 64.9393 36.4393C65.2206 36.158 65.6022 36 66 36H69C69.3978 36 69.7794 36.158 70.0607 36.4393C70.342 36.7206 70.5 37.1022 70.5 37.5C70.5 37.8978 70.342 38.2794 70.0607 38.5607C69.7794 38.842 69.3978 39 69 39Z" fill="#FFFBF7"/>
<path d="M55.5 39.1819C55.4999 40.0257 55.1647 40.835 54.5681 41.4319L47.1206 48.8794C45.7624 50.2372 43.9205 51 42 51C40.0795 51 38.2376 50.2372 36.8794 48.8794L33 45V84L37.5 88.5V91.5H7.5V88.5L12 84V64.5H9C7.80662 64.4997 6.6622 64.0255 5.81835 63.1817C4.9745 62.3378 4.5003 61.1934 4.5 60V39C4.5001 37.0109 5.29031 35.1033 6.69681 33.6968C8.10331 32.2903 10.0109 31.5001 12 31.5H33.1894C34.0691 31.5 34.938 31.6933 35.7347 32.0663C36.5314 32.4392 37.2365 32.9826 37.8 33.6581L43.5 40.5L46.3444 38.7937L49.8694 36.6787C50.238 36.4578 50.6347 36.2875 51.0488 36.1725C51.4621 36.0578 51.8891 35.9997 52.3181 36C52.736 36 53.1497 36.0823 53.5358 36.2422C53.9219 36.4021 54.2726 36.6364 54.5681 36.9319C54.8636 37.2274 55.0979 37.5781 55.2578 37.9642C55.4177 38.3502 55.5 38.764 55.5 39.1819Z" fill="#FFE9D6"/>
<path d="M37.5 88.5V91.5H7.5V88.5L12 84H33L37.5 88.5Z" fill="#FFB401"/>
<path d="M12 54H33V84H12V54Z" fill="#FF7707"/>
<path d="M51 45L47.1206 48.8794C45.7624 50.2372 43.9205 51 42 51C40.0795 51 38.2376 50.2372 36.8794 48.8794L33 45V54H12V57H4.5V39C4.5001 37.0109 5.29031 35.1033 6.69681 33.6968C8.10331 32.2903 10.0109 31.5001 12 31.5H33.1894C34.0691 31.5 34.938 31.6933 35.7347 32.0663C36.5314 32.4392 37.2365 32.9826 37.8 33.6581L43.5 40.5L46.3444 38.7937L51 45Z" fill="#325873"/>
<path d="M30 31.5V40.5L22.5 48L15 40.5V31.5H30Z" fill="#FF7707"/>
<path d="M25.5 34.5L24 39L25.5 45L22.5 48L19.5 45L21 39L19.5 34.5V31.5H25.5V34.5Z" fill="#FFFBF7"/>
<path d="M24 40.5H21C20.6022 40.5 20.2206 40.342 19.9393 40.0607C19.658 39.7794 19.5 39.3978 19.5 39C19.5 38.6022 19.658 38.2206 19.9393 37.9393C20.2206 37.658 20.6022 37.5 21 37.5H24C24.3978 37.5 24.7794 37.658 25.0607 37.9393C25.342 38.2206 25.5 38.6022 25.5 39C25.5 39.3978 25.342 39.7794 25.0607 40.0607C24.7794 40.342 24.3978 40.5 24 40.5Z" fill="#FFFBF7"/>
<path d="M21 84H24V91.5H21V84Z" fill="#FFFBF7"/>
<path d="M21 63H24V84H21V63Z" fill="#FFBD69"/>
<path d="M12 45H15V54H12V45Z" fill="#325873"/>
<path d="M75 39H78V52.5H75V39Z" fill="#FF7707"/>
<path d="M57 39H60V52.5H57V39Z" fill="#FF7707"/>
<path d="M73.5 61.5H91.5V75H73.5V61.5Z" fill="#FFB401"/>
<path d="M91.5 61.5L87 69H78L73.5 61.5V75H91.5V61.5Z" fill="#FF7707"/>
<path d="M81 66H84V72H81V66Z" fill="#FFB401"/>
<path d="M33 4.5H58.5V22.5H46.5L39 28.5V22.5H33V4.5Z" fill="#FFC431"/>
<path d="M37.5 9H42V12H37.5V9Z" fill="#FFFBF7"/>
<path d="M45 9H54V12H45V9Z" fill="#FFFBF7"/>
<path d="M37.5 15H46.5V18H37.5V15Z" fill="#FFFBF7"/>
<path d="M49.5 15H54V18H49.5V15Z" fill="#FFFBF7"/>
<path d="M18 25.5H27V30C27 31.1935 26.5259 32.3381 25.682 33.182C24.8381 34.0259 23.6935 34.5 22.5 34.5C21.3065 34.5 20.1619 34.0259 19.318 33.182C18.4741 32.3381 18 31.1935 18 30V25.5Z" fill="#FFCEB6"/>
<path d="M18 25.5V22.5L21.6298 20.0801C22.1972 19.7018 22.8639 19.5 23.5459 19.5C24.462 19.5 25.3405 19.8639 25.9883 20.5117C26.6361 21.1595 27 22.038 27 22.9541V25.5H18Z" fill="#FF7707"/>
<path d="M67.5 31.5C66.3065 31.5 65.1619 31.0259 64.318 30.182C63.4741 29.3381 63 28.1935 63 27V22.5H72V27C72 28.1935 71.5259 29.3381 70.682 30.182C69.8381 31.0259 68.6935 31.5 67.5 31.5Z" fill="#FFCEB6"/>
<path d="M72 22.5V19.5L68.3702 17.0801C67.8028 16.7018 67.1361 16.5 66.4541 16.5C65.538 16.5 64.6595 16.8639 64.0117 17.5117C63.3639 18.1595 63 19.038 63 19.9541V22.5H72Z" fill="#2A404F"/>
</svg>
