<svg width="16" height="16" viewBox="0 0 16 16" fill="none" xmlns="http://www.w3.org/2000/svg">
<path fill-rule="evenodd" clip-rule="evenodd" d="M8.66667 3.00009V2.33342C8.6651 2.24103 8.7012 2.15197 8.76667 2.08676C8.8398 2.02232 8.9363 1.99096 9.03333 2.00009C11.6992 2.17786 13.8222 4.30084 14 6.96676C14.0055 7.0593 13.9743 7.15028 13.9133 7.22009C13.8481 7.28556 13.7591 7.32166 13.6667 7.32009H13C12.8258 7.32065 12.6806 7.18703 12.6667 7.01342C12.5148 5.04736 10.9527 3.48532 8.98667 3.33342C8.8078 3.32626 8.66652 3.1791 8.66667 3.00009ZM8.78 4.76009C8.70719 4.82404 8.66582 4.91652 8.66667 5.01342V5.68009C8.66396 5.83945 8.77665 5.9775 8.93333 6.00676C9.46937 6.10488 9.89175 6.51934 10 7.05342C10.0293 7.2101 10.1673 7.3228 10.3267 7.32009H10.9933C11.0902 7.32093 11.1827 7.27956 11.2467 7.20676C11.3094 7.13295 11.3384 7.03625 11.3267 6.94009C11.1526 5.76665 10.2329 4.8443 9.06 4.66676C8.96189 4.65859 8.86494 4.69252 8.79333 4.76009H8.78ZM12.7267 13.6068C12.4761 13.8588 12.1354 14.0004 11.78 14.0001H11.3333C10.2195 13.9953 9.12442 13.7135 8.14667 13.1801L7.84667 13.0134C5.77383 11.899 4.07446 10.1996 2.96 8.12676L2.79333 7.82676C2.27343 6.85454 2.00096 5.76925 2 4.66676V4.22009C1.99972 3.86473 2.14131 3.52395 2.39333 3.27342L3.52 2.14676C3.62942 2.03649 3.78387 1.98334 3.93797 2.00293C4.09208 2.02252 4.22832 2.11262 4.30667 2.24676L5.80667 4.82009C5.95835 5.08201 5.91455 5.41326 5.7 5.62676L4.44 6.88676C4.33536 6.99024 4.31098 7.15011 4.38 7.28009L4.61333 7.72009C5.45136 9.27239 6.72618 10.5449 8.28 11.3801L8.72 11.6201C8.84998 11.6891 9.00984 11.6647 9.11333 11.5601L10.3733 10.3001C10.5868 10.0855 10.9181 10.0417 11.18 10.1934L13.7533 11.6934C13.8875 11.7718 13.9776 11.908 13.9972 12.0621C14.0167 12.2162 13.9636 12.3707 13.8533 12.4801L12.7267 13.6068Z" fill="#FF7707"/>
</svg>
