<svg width="12" height="10" viewBox="0 0 12 10" fill="none" xmlns="http://www.w3.org/2000/svg">
<path d="M3.5911 9.06313C3.64599 9.12162 3.71229 9.16823 3.7859 9.2001C3.8595 9.23197 3.93886 9.24841 4.01908 9.24841C4.09929 9.24841 4.17865 9.23197 4.25226 9.2001C4.32587 9.16823 4.39216 9.12162 4.44705 9.06313L11.3191 2.19103C11.3765 2.1342 11.4219 2.06658 11.453 1.99207C11.484 1.91757 11.5 1.83766 11.5 1.75694C11.5 1.67623 11.484 1.59632 11.453 1.52181C11.4219 1.44731 11.3765 1.37969 11.3191 1.32285L10.6711 0.674772C10.5568 0.562747 10.4031 0.5 10.2431 0.5C10.0831 0.5 9.9294 0.562747 9.81511 0.674772L4.01908 6.47081L2.18489 4.64885C2.12999 4.59036 2.0637 4.54375 1.99009 4.51188C1.91648 4.48001 1.83712 4.46357 1.75691 4.46357C1.6767 4.46357 1.59734 4.48001 1.52373 4.51188C1.45012 4.54375 1.38382 4.59036 1.32893 4.64885L0.68085 5.29693C0.623545 5.35377 0.578061 5.42139 0.547021 5.49589C0.515981 5.5704 0.5 5.65031 0.5 5.73102C0.5 5.81173 0.515981 5.89165 0.547021 5.96615C0.578061 6.04065 0.623545 6.10827 0.68085 6.16511L3.5911 9.06313Z" fill="white"/>
</svg>
