<svg width="24" height="24" viewBox="0 0 24 24" fill="none" xmlns="http://www.w3.org/2000/svg">
<path d="M3.5 18.4667C3.22386 18.4667 3 18.6905 3 18.9667V20.5C3 20.7761 3.22386 21 3.5 21H20.5C20.7761 21 21 20.7761 21 20.5V18.9667C21 18.6905 20.7761 18.4667 20.5 18.4667H3.5ZM8.65771 13.4549C8.73521 13.2683 8.91741 13.1467 9.11949 13.1467H14.8805C15.0826 13.1467 15.2648 13.2683 15.3423 13.4549L16.2434 15.6251C16.3209 15.8117 16.5031 15.9333 16.7052 15.9333H18.3064C18.6671 15.9333 18.9091 15.563 18.7643 15.2326L13.0955 2.29928C13.0158 2.11745 12.836 2 12.6375 2H11.3625C11.164 2 10.9842 2.11745 10.9045 2.29928L5.23571 15.2326C5.0909 15.563 5.33293 15.9333 5.69365 15.9333H7.2948C7.49687 15.9333 7.67908 15.8117 7.75657 15.6251L8.65771 13.4549ZM11.5323 5.74489C11.6952 5.31401 12.3048 5.31401 12.4677 5.7449L14.1484 10.1898C14.272 10.5169 14.0304 10.8667 13.6807 10.8667H10.3193C9.96964 10.8667 9.72796 10.5169 9.85163 10.1898L11.5323 5.74489Z" fill="white"/>
</svg>
