<svg width="16" height="16" viewBox="0 0 16 16" fill="none" xmlns="http://www.w3.org/2000/svg">
<path fill-rule="evenodd" clip-rule="evenodd" d="M2.37468 8.57341C2.24281 8.70127 2.03323 8.70127 1.90135 8.57341L1.43468 8.10008C1.37158 8.03749 1.33609 7.95229 1.33609 7.86341C1.33609 7.77453 1.37158 7.68934 1.43468 7.62675L4.88135 4.18675L3.93468 3.23341C3.84131 3.13818 3.81369 2.99646 3.86447 2.87313C3.91526 2.74981 4.03466 2.66862 4.16802 2.66675H7.00135C7.18254 2.67359 7.32784 2.8189 7.33468 3.00008V5.83341C7.33548 5.96798 7.25527 6.08983 7.13135 6.14231C7.00744 6.19479 6.86412 6.16762 6.76802 6.07341L5.82135 5.12675L2.37468 8.57341ZM14.334 5.33341C14.5181 5.33341 14.6673 5.18418 14.6673 5.00008V4.33341C14.6673 4.14932 14.5181 4.00008 14.334 4.00008H12.0007C11.6325 4.00008 11.334 4.29856 11.334 4.66675V6.66675H9.33398C8.96579 6.66675 8.66732 6.96522 8.66732 7.33341V9.33341H6.66732C6.29913 9.33341 6.00065 9.63189 6.00065 10.0001V12.0001H1.66732C1.48322 12.0001 1.33398 12.1493 1.33398 12.3334V13.0001C1.33398 13.1842 1.48322 13.3334 1.66732 13.3334H6.66732C7.03551 13.3334 7.33398 13.0349 7.33398 12.6667V10.6667H9.33398C9.70217 10.6667 10.0007 10.3683 10.0007 10.0001V8.00008H12.0007C12.3688 8.00008 12.6673 7.7016 12.6673 7.33341V5.33341H14.334Z" fill="#FF7707"/>
</svg>
