<svg width="32" height="32" viewBox="0 0 32 32" fill="none" xmlns="http://www.w3.org/2000/svg">
<path d="M29.3356 16C29.3356 22.6274 23.963 28 17.3356 28C14.8721 28.0081 12.4674 27.2484 10.4556 25.8267C10.2948 25.7109 10.1926 25.5307 10.1756 25.3333C10.1597 25.1412 10.2277 24.9515 10.3622 24.8133L11.3222 23.84C11.5476 23.617 11.8988 23.5835 12.1622 23.76C13.6905 24.7901 15.4926 25.3381 17.3356 25.3333C22.4902 25.3333 26.6689 21.1547 26.6689 16C26.6689 10.8453 22.4902 6.66667 17.3356 6.66667C12.1809 6.66667 8.00224 10.8453 8.00224 16H11.1489C11.3297 15.9974 11.5035 16.0698 11.6289 16.2L11.8956 16.4667C12.0218 16.5918 12.0928 16.7622 12.0928 16.94C12.0928 17.1178 12.0218 17.2882 11.8956 17.4133L7.18891 22.1333C6.92516 22.389 6.506 22.389 6.24224 22.1333L1.53558 17.4133C1.40937 17.2882 1.33838 17.1178 1.33838 16.94C1.33838 16.7622 1.40937 16.5918 1.53558 16.4667L1.80224 16.2C1.92768 16.0698 2.10146 15.9974 2.28224 16H5.33558C5.33558 9.37258 10.7082 4 17.3356 4C23.963 4 29.3356 9.37258 29.3356 16Z" fill="#2A404F"/>
</svg>
