<svg width="16" height="16" viewBox="0 0 16 16" fill="none" xmlns="http://www.w3.org/2000/svg">
<g id="ico / 24 / media &#38; editing / flash">
<path id="Icon color" d="M12.0592 6.81309L7.39249 14.4264C7.30091 14.5744 7.13982 14.665 6.96582 14.6664H6.83249C6.7391 14.6663 6.6499 14.6277 6.58582 14.5598C6.52206 14.4916 6.49052 14.3994 6.49915 14.3064L6.87249 9.99976H4.49249C4.31342 9.99782 4.14868 9.90151 4.05915 9.74642L3.93249 9.52642C3.86886 9.42202 3.86886 9.29083 3.93249 9.18642L8.59915 1.57309C8.69321 1.42107 8.86042 1.32987 9.03915 1.33309H9.17249C9.26587 1.33326 9.35507 1.37184 9.41915 1.43976C9.48291 1.50794 9.51445 1.60014 9.50582 1.69309L9.12582 5.99976H11.5058C11.6849 6.00169 11.8496 6.098 11.9392 6.25309L12.0658 6.47309C12.1274 6.57874 12.1248 6.70994 12.0592 6.81309Z" fill="#FF7707"/>
</g>
</svg>
