<svg width="96" height="96" viewBox="0 0 96 96" fill="none" xmlns="http://www.w3.org/2000/svg">
<path d="M88.5 23.7431V88.5C88.5001 88.894 88.4226 89.2841 88.2718 89.6482C88.1211 90.0122 87.9001 90.3429 87.6215 90.6215C87.3429 90.9001 87.0122 91.1211 86.6482 91.2718C86.2841 91.4226 85.894 91.5001 85.5 91.5H25.5V7.5C25.4999 7.10601 25.5774 6.71585 25.7282 6.35183C25.8789 5.98781 26.0999 5.65706 26.3785 5.37846C26.6571 5.09986 26.9878 4.87889 27.3518 4.72816C27.7159 4.57743 28.106 4.4999 28.5 4.5H69.2569C70.0524 4.50281 70.8149 4.81872 71.3794 5.37938L87.6206 21.6206C88.1813 22.1851 88.4972 22.9476 88.5 23.7431Z" fill="white"/>
<path d="M18.4701 41.6045L16.558 34.9121C16.4487 34.5296 16.4958 34.1193 16.689 33.7716C16.8822 33.4238 17.2056 33.167 17.5881 33.0577C17.7775 33.0036 17.9757 32.9873 18.1714 33.0098C18.3671 33.0323 18.5565 33.0931 18.7287 33.1888C18.9009 33.2845 19.0525 33.4131 19.175 33.5674C19.2975 33.7217 19.3884 33.8986 19.4425 34.088L21.3546 40.7805L18.4701 41.6045Z" fill="#325873"/>
<path d="M43.5 58.5L42.1369 64.5L41.4544 67.5L36 91.5H15L7.5 58.5H43.5Z" fill="#FDD13C"/>
<path d="M42.1369 64.5L41.4544 67.5H22.5V64.5H42.1369Z" fill="#FFB401"/>
<path d="M16.5 64.5H19.5V67.5H16.5V64.5Z" fill="#FFB401"/>
<path d="M27 58.5L33 39L42 42L36.9231 58.5H27Z" fill="#FFB8A4"/>
<path d="M36 46.5C36.8284 46.5 37.5 45.8284 37.5 45C37.5 44.1716 36.8284 43.5 36 43.5C35.1716 43.5 34.5 44.1716 34.5 45C34.5 45.8284 35.1716 46.5 36 46.5Z" fill="white"/>
<path d="M27.375 58.5H21L16.5 40.5L22.5 39L27.375 58.5Z" fill="#325873"/>
<path d="M20.9999 58.5H13.4999L11.9999 52.5L11.383 50.0288C11.1491 49.0929 11.2964 48.1025 11.7925 47.2751C12.2886 46.4478 13.0929 45.8514 14.0287 45.6169C14.3176 45.5451 14.6141 45.5086 14.9118 45.5082C15.723 45.5088 16.5107 45.7804 17.1499 46.2797C17.7892 46.779 18.2434 47.4775 18.4405 48.2644L19.0593 50.7357L20.9999 58.5Z" fill="#FF7707"/>
<path d="M19.0593 50.7357L11.9999 52.5L11.383 50.0288C11.1491 49.0929 11.2964 48.1025 11.7925 47.2751C12.2886 46.4478 13.0929 45.8514 14.0287 45.6169C14.3176 45.5451 14.6141 45.5086 14.9118 45.5082C15.723 45.5088 16.5107 45.7804 17.1499 46.2797C17.7892 46.779 18.2434 47.4776 18.4405 48.2644L19.0593 50.7357Z" fill="#FFB8A4"/>
<path d="M16.5151 40.4867L22.5143 38.9832L24.0178 44.9823L18.0187 46.4858L16.5151 40.4867Z" fill="#2A404F"/>
<path d="M88.2281 22.4998H75C73.8066 22.4995 72.6622 22.0253 71.8183 21.1815C70.9745 20.3376 70.5003 19.1932 70.5 17.9998V4.77171C70.8275 4.91931 71.1254 5.12515 71.3794 5.37921L87.6206 21.6205C87.8747 21.8744 88.0805 22.1724 88.2281 22.4998Z" fill="#325873"/>
<path d="M80.5606 40.9387C80.2794 40.6578 79.8982 40.5 79.5007 40.5H79.499L47.999 40.5345L48.0024 43.5345L57.0007 43.5244V57H48.0007V60H57.0007V63H48.0007V66H57.0007V69H48.0007V72H57.0007V75H48.0007V78H57.0007V81H48.0007V84H79.5007C79.8985 84 80.2801 83.842 80.5614 83.5607C80.8427 83.2794 81.0007 82.8978 81.0007 82.5V42C81.0007 41.8029 80.9618 41.6077 80.8863 41.4256C80.8108 41.2435 80.7001 41.078 80.5606 40.9387ZM78.0007 43.5017V49.5H60.0007V43.5214L78.0007 43.5017ZM70.5007 69V66H78.0007V69H70.5007ZM78.0007 72V75H70.5007V72H78.0007ZM70.5007 63V60H78.0007V63H70.5007ZM70.5007 57V52.5H78.0007V57H70.5007ZM60.0007 52.5H67.5007V57H60.0007V52.5ZM60.0007 60H67.5007V63H60.0007V60ZM60.0007 66H67.5007V69H60.0007V66ZM60.0007 72H67.5007V75H60.0007V72ZM60.0007 78H67.5007V81H60.0007V78ZM70.5007 81V78H78.0007V81H70.5007Z" fill="#FFE9D6"/>
<path d="M54.001 12H58.501V15H54.001V12Z" fill="#FFE9D6"/>
<path d="M54 19.5H61.5V22.5H54V19.5Z" fill="#FFE9D6"/>
<path d="M54.001 27H66.001V30H54.001V27Z" fill="#FFE9D6"/>
<circle cx="40.9994" cy="13.7143" r="2.71429" fill="#FFB8A4"/>
<circle cx="40.9994" cy="27.2857" r="2.71429" fill="#FFB8A4"/>
<rect x="32.8567" y="19.1429" width="16.2857" height="3.61905" fill="#FFB8A4"/>
<rect x="56.0779" y="64.9985" width="19.6413" height="3.62503" transform="rotate(-45 56.0779 64.9985)" fill="#FF7707"/>
<rect x="69.8884" y="67.5546" width="19.6413" height="3.77048" transform="rotate(-135 69.8884 67.5546)" fill="#FF7707"/>
</svg>
