<svg width="96" height="96" viewBox="0 0 96 96" fill="none" xmlns="http://www.w3.org/2000/svg">
<path d="M52.189 69.4976H35.5721L33.9104 81.1293H53.8507L52.189 69.4976Z" fill="#FF7707"/>
<path d="M80.4375 71.1591H7.32334C5.48802 71.1591 4 69.6709 4 67.8355V16.3233C4 14.4878 5.48802 13 7.32334 13H80.4375C82.273 13 83.7608 14.488 83.7608 16.3233V67.8355C83.7608 69.6709 82.273 71.1591 80.4375 71.1591Z" fill="#FF7707"/>
<path d="M80.4375 13.0002H7.32334C5.48802 13.0002 4 14.4881 4 16.3236V62.8508H83.7608V16.3236C83.7608 14.4881 82.2728 13.0002 80.4375 13.0002Z" fill="#FF7707"/>
<path d="M77.1135 57.8657H10.646C9.72828 57.8657 8.98438 57.1218 8.98438 56.204V19.6471C8.98438 18.7293 9.72828 17.9854 10.646 17.9854H77.1135C78.0312 17.9854 78.7752 18.7293 78.7752 19.6471V56.204C78.7752 57.1218 78.0312 57.8657 77.1135 57.8657Z" fill="#FFE9D6"/>
<path d="M92 41.5102L92 81.1103C92 82.3253 90.9954 83.3102 89.7561 83.3102L69.561 83.3102C68.3216 83.3102 67.3171 82.3253 67.3171 81.1103L67.3171 41.5102C67.3171 40.2951 68.3216 39.3102 69.561 39.3102L89.7561 39.3102C90.9954 39.3102 92 40.2951 92 41.5102Z" fill="#FFA344"/>
<path d="M57.1736 82.7907H30.5867C29.6682 82.7907 28.925 82.0466 28.925 81.1291C28.925 80.2115 29.6684 79.4674 30.5867 79.4674H57.1736C58.0922 79.4674 58.8353 80.2115 58.8353 81.1291C58.8353 82.0466 58.0922 82.7907 57.1736 82.7907Z" fill="#FF7707"/>
<path d="M45.542 68.6666H42.2187C41.3009 68.6666 40.557 67.9227 40.557 67.0049C40.557 66.0872 41.3009 65.3433 42.2187 65.3433H45.542C46.4598 65.3433 47.2037 66.0872 47.2037 67.0049C47.2037 67.9227 46.4596 68.6666 45.542 68.6666Z" fill="white"/>
<path d="M69.4634 75.7597L69.4634 46.8608C69.4634 46.247 69.9707 45.7493 70.5962 45.7493L88.7209 45.7493C89.3464 45.7493 89.8536 46.247 89.8536 46.8608L89.8536 75.7597C89.8536 76.3735 89.3464 76.8712 88.7209 76.8712L70.5962 76.8712C69.9704 76.8712 69.4634 76.3735 69.4634 75.7597Z" fill="#FEEECD"/>
</svg>
