<svg width="20" height="20" viewBox="0 0 20 20" fill="none" xmlns="http://www.w3.org/2000/svg">
<path fill-rule="evenodd" clip-rule="evenodd" d="M10.0003 1.66699C5.39795 1.66699 1.66699 5.39795 1.66699 10.0003C1.66699 14.6027 5.39795 18.3337 10.0003 18.3337C14.6027 18.3337 18.3337 14.6027 18.3337 10.0003C18.3337 7.79019 17.4557 5.67057 15.8929 4.10777C14.3301 2.54497 12.2105 1.66699 10.0003 1.66699ZM10.0003 16.667C6.31843 16.667 3.33366 13.6822 3.33366 10.0003C3.33366 6.31843 6.31843 3.33366 10.0003 3.33366C13.6822 3.33366 16.667 6.31843 16.667 10.0003C16.667 11.7684 15.9646 13.4641 14.7144 14.7144C13.4641 15.9646 11.7684 16.667 10.0003 16.667ZM10.7337 5.41699V9.70033L13.7587 12.7253C13.9185 12.8902 13.9185 13.1521 13.7587 13.317L13.317 13.7587C13.1521 13.9185 12.8902 13.9185 12.7253 13.7587L9.39199 10.4253C9.31563 10.3469 9.27109 10.243 9.26699 10.1337V5.41699C9.26699 5.18687 9.45354 5.00033 9.68366 5.00033H10.317C10.5471 5.00033 10.7337 5.18687 10.7337 5.41699Z" fill="#80909C"/>
</svg>
