<svg width="24" height="24" viewBox="0 0 24 24" fill="none" xmlns="http://www.w3.org/2000/svg">
<path fill-rule="evenodd" clip-rule="evenodd" d="M14.4887 3.14996L20.8312 9.50815C20.9385 9.60304 21 9.73959 21 9.88305C21 10.0265 20.9385 10.163 20.8312 10.2579L18.1386 12.9572C18.045 13.0518 17.9176 13.105 17.7846 13.105C17.6517 13.105 17.5242 13.0518 17.4306 12.9572L16.8323 12.3673L14.6683 17.7958C14.4314 18.3924 13.9232 18.8387 13.302 18.9955L5.26429 20.9949C5.1848 21.0045 5.10444 21.0045 5.02495 20.9949C4.74958 21.0046 4.48247 20.8997 4.287 20.705L3.28976 19.7052C3.04302 19.4562 2.94461 19.0958 3.03048 18.7555L5.02495 10.6978C5.18945 10.0663 5.65106 9.55505 6.26153 9.3282L11.6765 7.15882L11.0882 6.55899C10.9938 6.46514 10.9407 6.33737 10.9407 6.20409C10.9407 6.07081 10.9938 5.94305 11.0882 5.84919L13.7807 3.14996C13.8743 3.05533 14.0018 3.00211 14.1347 3.00211C14.2677 3.00211 14.3951 3.05533 14.4887 3.14996ZM6.71029 18.5456L12.8533 17.016L15.3264 10.7878L13.2322 8.68839L7.01943 11.1777L5.47371 17.3059L8.32581 14.4467C8.44582 14.3278 8.51394 14.166 8.51529 13.9969C8.51529 13.1687 9.18501 12.4973 10.0111 12.4973C10.8373 12.4973 11.507 13.1687 11.507 13.9969C11.507 14.8251 10.8373 15.4964 10.0111 15.4964C9.84239 15.4978 9.68104 15.5661 9.56239 15.6864L6.71029 18.5456Z" fill="white"/>
</svg>
