<svg width="24" height="24" viewBox="0 0 24 24" fill="none" xmlns="http://www.w3.org/2000/svg">
<path fill-rule="evenodd" clip-rule="evenodd" d="M10.0999 7.75997C9.70727 6.94801 9.05181 6.29255 8.23985 5.89997C8.09936 5.82853 8.00781 5.68739 7.99985 5.52997V5.46997C8.00781 5.31255 8.09936 5.17141 8.23985 5.09997C9.04646 4.70811 9.69799 4.05658 10.0899 3.24997C10.1683 3.0957 10.3268 2.99854 10.4999 2.99854C10.6729 2.99854 10.8314 3.0957 10.9099 3.24997C11.3017 4.05658 11.9532 4.70811 12.7599 5.09997C12.9004 5.17141 12.9919 5.31255 12.9999 5.46997V5.52997C12.9919 5.68739 12.9004 5.82853 12.7599 5.89997C11.9479 6.29255 11.2924 6.94801 10.8999 7.75997C10.8284 7.90047 10.6873 7.99202 10.5299 7.99997H10.4699C10.3124 7.99202 10.1713 7.90047 10.0999 7.75997ZM5.26985 20.85L16.8499 9.26999C16.9445 9.17611 16.9978 9.04831 16.9978 8.91499C16.9978 8.78167 16.9445 8.65388 16.8499 8.55999L15.4399 7.14999C15.346 7.05534 15.2182 7.00209 15.0849 7.00209C14.9515 7.00209 14.8237 7.05534 14.7299 7.14999L3.14985 18.73C3.0552 18.8239 3.00195 18.9517 3.00195 19.085C3.00195 19.2183 3.0552 19.3461 3.14985 19.44L4.55985 20.85C4.65374 20.9447 4.78153 20.9979 4.91485 20.9979C5.04817 20.9979 5.17597 20.9447 5.26985 20.85ZM20.8199 4.67996C20.1704 4.36894 19.6452 3.84733 19.3299 3.19996C19.2644 3.07825 19.138 3.00166 18.9999 2.99996C18.8617 3.00166 18.7353 3.07825 18.6699 3.19996C18.3583 3.84663 17.8365 4.36842 17.1899 4.67996C17.06 4.72971 16.9814 4.86215 16.9999 4.99996C16.9953 5.12714 17.0714 5.24338 17.1899 5.28996C17.84 5.60482 18.365 6.12978 18.6799 6.77996C18.73 6.91299 18.8577 7.00075 18.9999 6.99996C19.1254 6.99996 19.2408 6.93076 19.2999 6.81996C19.6121 6.16792 20.1378 5.6422 20.7899 5.32996C20.9225 5.27527 21.0065 5.14325 20.9999 4.99996C21.0076 4.86728 20.9372 4.74228 20.8199 4.67996ZM18.0999 15.76C17.7073 14.948 17.0518 14.2925 16.2399 13.9C16.0994 13.8285 16.0078 13.6874 15.9999 13.53V13.47C16.0078 13.3125 16.0994 13.1714 16.2399 13.1C17.0465 12.7081 17.698 12.0566 18.0899 11.25C18.1683 11.0957 18.3268 10.9985 18.4999 10.9985C18.6729 10.9985 18.8314 11.0957 18.9099 11.25C19.3017 12.0566 19.9532 12.7081 20.7599 13.1C20.9004 13.1714 20.9919 13.3125 20.9999 13.47V13.53C20.9919 13.6874 20.9004 13.8285 20.7599 13.9C19.9479 14.2925 19.2924 14.948 18.8999 15.76C18.8284 15.9005 18.6873 15.992 18.5299 16H18.4699C18.3124 15.992 18.1713 15.9005 18.0999 15.76Z" fill="#FF7707"/>
</svg>
