<svg width="16" height="16" viewBox="0 0 16 16" fill="none" xmlns="http://www.w3.org/2000/svg">
<path d="M1.46827 6.56966C1.35564 6.48765 1.30748 6.34318 1.34839 6.20998L1.40167 6.04347C1.44063 5.91187 1.55774 5.8187 1.69472 5.81034L5.9506 5.47065L7.58236 1.5475C7.63709 1.41006 7.77447 1.32386 7.92203 1.33436H8.09519C8.2343 1.33141 8.35998 1.41698 8.40822 1.5475L10.0466 5.47065L14.3025 5.81034C14.4395 5.8187 14.5566 5.91187 14.5956 6.04347L14.6489 6.20998C14.6942 6.33897 14.6543 6.48253 14.5489 6.56966L11.3387 9.32719L12.3244 13.4635C12.3569 13.5959 12.3071 13.7349 12.1979 13.8165L12.0047 13.9231C11.8921 13.9992 11.7444 13.9992 11.6318 13.9231L8.00861 11.725L4.36547 13.943C4.25281 14.0192 4.10516 14.0192 3.9925 13.943L3.84597 13.8431C3.73678 13.7615 3.68695 13.6225 3.71943 13.4901L4.6785 9.32719L1.46827 6.56966Z" fill="#FF7707"/>
</svg>
