<svg width="20" height="20" viewBox="0 0 20 20" fill="none" xmlns="http://www.w3.org/2000/svg">
<path d="M8.54141 8.60547H11.0264C11.1535 7.90352 11.5272 7.29885 12.0561 6.85945C12.0583 6.85945 12.0611 6.85945 12.0644 6.85945C12.5049 6.84452 13.0792 6.72845 13.6236 6.32552C13.6905 6.27633 13.7551 6.22327 13.8176 6.16855C14.598 5.47656 15.0264 4.32691 15.0844 2.74616C15.0982 2.3272 14.7727 1.97457 14.3548 1.95854C13.8983 1.93532 13.5833 2.26916 13.5672 2.68923C13.5208 3.88364 13.2345 4.71437 12.7348 5.09297C12.6265 5.17643 12.511 5.23336 12.3999 5.2715C12.3966 5.27261 12.3916 5.27316 12.3883 5.27426C12.0594 4.96032 11.6045 4.80722 11.2972 4.80722H9.41911H7.54155C6.85287 4.80722 6.30513 5.49867 6.29297 6.25754C7.4404 6.53777 8.33027 7.46577 8.54141 8.60547Z" fill="#2A404F"/>
<path d="M9.41861 4.78184C10.414 4.78184 11.221 3.99121 11.221 3.01592C11.221 2.04063 10.414 1.25 9.41861 1.25C8.42317 1.25 7.61621 2.04063 7.61621 3.01592C7.61621 3.99121 8.42317 4.78184 9.41861 4.78184Z" fill="#2A404F"/>
<path d="M9.18588 13.1588C9.18588 11.7886 8.59558 11.2099 7.77646 11.2099H7.73169H5.87734C6.90207 11.0601 7.68748 10.1962 7.68748 9.1494C7.68748 7.99975 6.73681 7.06677 5.56119 7.06677C4.38778 7.06677 3.43656 7.99975 3.43656 9.1494C3.43656 10.1962 4.22197 11.0596 5.24725 11.2099H3.39234H3.34702C2.52679 11.2099 1.86133 12.0876 1.86133 12.9946V15.7692H9.18588V13.1588Z" fill="#2A404F"/>
<path d="M11.8077 9.14933C11.8077 10.1962 12.5937 11.0595 13.6173 11.2098H11.8376H11.7165C10.8958 11.2098 10.2695 12.0876 10.2695 12.9946V15.7692H17.5377V13.1604C17.5377 11.8062 16.969 11.2364 16.1664 11.2226C16.1548 11.2226 16.1559 11.2109 16.146 11.2109H14.2457C15.271 11.0612 16.057 10.1973 16.057 9.14988C16.057 8.00024 15.1052 7.06726 13.9313 7.06726C12.7584 7.06671 11.8077 7.99969 11.8077 9.14933Z" fill="#2A404F"/>
<path d="M18.7336 16.9598H1.26562V18.7501H18.7336V16.9598Z" fill="#2A404F"/>
</svg>
