<svg width="96" height="100" viewBox="0 0 96 100" fill="none" xmlns="http://www.w3.org/2000/svg">
<g filter="url(#filter0_d_440_30267)">
<path d="M73.5 91.5V19.5C73.5 17.9087 72.8679 16.3826 71.7426 15.2574C70.6174 14.1321 69.0913 13.5 67.5 13.5H16.5C14.9087 13.5 13.3826 14.1321 12.2574 15.2574C11.1321 16.3826 10.5 17.9087 10.5 19.5V85.5C10.5 87.0913 11.1321 88.6174 12.2574 89.7426C13.3826 90.8679 14.9087 91.5 16.5 91.5H73.5Z" fill="#325873"/>
<path d="M16.5 19.5H67.5V85.5H16.5V19.5Z" fill="white"/>
<path d="M85.5 66V48C85.5 44.8174 84.2357 41.7652 81.9853 39.5147C79.7348 37.2643 76.6826 36 73.5 36H63.3542C62.3463 36 61.3583 36.2806 60.501 36.8105C59.6436 37.3404 58.9507 38.0985 58.5 39L57 43.5V55.5L63 66H85.5Z" fill="#FFE9D6"/>
<path d="M63 66H85.5V91.5H63V66Z" fill="#FF7707"/>
<path d="M34.5 13.5L37.6584 7.18313C38.0616 6.37688 38.6813 5.69882 39.4481 5.22492C40.2149 4.75103 41.0986 4.50001 42 4.5C42.9014 4.50001 43.7851 4.75103 44.5519 5.22492C45.3187 5.69882 45.9384 6.37688 46.3416 7.18313L49.5 13.5H34.5Z" fill="#FF7707"/>
<path d="M61.5 13.5H22.5L28.5 24H55.5L61.5 13.5Z" fill="#FFC431"/>
<path d="M42 10.5C42.8284 10.5 43.5 9.82843 43.5 9C43.5 8.17157 42.8284 7.5 42 7.5C41.1716 7.5 40.5 8.17157 40.5 9C40.5 9.82843 41.1716 10.5 42 10.5Z" fill="white"/>
<path d="M78.668 58.2478L74.3047 55.3389L75.9687 52.8427L80.3322 55.7518C80.6632 55.9725 80.8929 56.3156 80.9709 56.7056C81.0489 57.0957 80.9688 57.5008 80.7481 57.8317C80.6389 57.9956 80.4984 58.1364 80.3347 58.2461C80.1711 58.3557 79.9874 58.432 79.7943 58.4707C79.6011 58.5093 79.4022 58.5096 79.209 58.4713C79.0157 58.4331 78.8319 58.3572 78.668 58.248V58.2478Z" fill="#FF7707"/>
<path d="M76.2483 51.832L73.7523 50.1679L75.9202 46.9159L68.1682 41.7479L69.8323 39.2519L78.8323 45.2519C78.9962 45.3611 79.137 45.5016 79.2467 45.6652C79.3563 45.8289 79.4326 46.0125 79.4713 46.2057C79.5099 46.3989 79.5102 46.5978 79.4719 46.791C79.4337 46.9843 79.3578 47.1681 79.2485 47.332L76.2483 51.832Z" fill="#FFB401"/>
<path d="M22.5 30H28.5V33H22.5V30Z" fill="#FFE9D6"/>
<path d="M45 30H55.5V33H45V30Z" fill="#FFE9D6"/>
<path d="M31.5 30H42V33H31.5V30Z" fill="#FFE9D6"/>
<path d="M22.5 39H34.5V42H22.5V39Z" fill="#FFE9D6"/>
<path d="M37.5 39H43.5V42H37.5V39Z" fill="#FFE9D6"/>
<path d="M22.5 48H28.5V51H22.5V48Z" fill="#FFE9D6"/>
<path d="M31.5 48H49.5V51H31.5V48Z" fill="#FFE9D6"/>
<path d="M28.5 57H36V60H28.5V57Z" fill="#FFE9D6"/>
<path d="M22.5 57H25.5V60H22.5V57Z" fill="#FFE9D6"/>
<path d="M39 57H51V60H39V57Z" fill="#FFE9D6"/>
<path d="M33 66H43.5V69H33V66Z" fill="#FFE9D6"/>
<path d="M22.5 66H30V69H22.5V66Z" fill="#FFE9D6"/>
<path d="M46.5 66H57V69H46.5V66Z" fill="#FFE9D6"/>
<path d="M28.5 75H48V78H28.5V75Z" fill="#FFE9D6"/>
<path d="M22.5 75H25.5V78H22.5V75Z" fill="#FFE9D6"/>
<path d="M51 75H58.5V78H51V75Z" fill="#FFE9D6"/>
<path d="M78 52.5L55.5 37.5H48L52.5 43.5L75 57L78 52.5Z" fill="#FFA344"/>
<path d="M52.5 43.5L55.5 37.5H48L52.5 43.5Z" fill="#FF7707"/>
</g>
<defs>
<filter id="filter0_d_440_30267" x="-4" y="0" width="104" height="104" filterUnits="userSpaceOnUse" color-interpolation-filters="sRGB">
<feFlood flood-opacity="0" result="BackgroundImageFix"/>
<feColorMatrix in="SourceAlpha" type="matrix" values="0 0 0 0 0 0 0 0 0 0 0 0 0 0 0 0 0 0 127 0" result="hardAlpha"/>
<feOffset dy="4"/>
<feGaussianBlur stdDeviation="2"/>
<feComposite in2="hardAlpha" operator="out"/>
<feColorMatrix type="matrix" values="0 0 0 0 0 0 0 0 0 0 0 0 0 0 0 0 0 0 0.25 0"/>
<feBlend mode="normal" in2="BackgroundImageFix" result="effect1_dropShadow_440_30267"/>
<feBlend mode="normal" in="SourceGraphic" in2="effect1_dropShadow_440_30267" result="shape"/>
</filter>
</defs>
</svg>
