<svg width="24" height="24" viewBox="0 0 24 24" fill="none" xmlns="http://www.w3.org/2000/svg">
<path d="M17.8499 16.44C17.8967 16.4865 17.9339 16.5418 17.9593 16.6027C17.9847 16.6636 17.9978 16.729 17.9978 16.795C17.9978 16.861 17.9847 16.9264 17.9593 16.9873C17.9339 17.0482 17.8967 17.1035 17.8499 17.15L17.1499 17.85C17.1034 17.8969 17.0481 17.9341 16.9871 17.9594C16.9262 17.9848 16.8609 17.9979 16.7949 17.9979C16.7288 17.9979 16.6635 17.9848 16.6026 17.9594C16.5416 17.9341 16.4863 17.8969 16.4399 17.85L11.9999 13.41L7.55985 17.85C7.51337 17.8969 7.45807 17.9341 7.39714 17.9594C7.33621 17.9848 7.27086 17.9979 7.20485 17.9979C7.13885 17.9979 7.07349 17.9848 7.01256 17.9594C6.95163 17.9341 6.89633 17.8969 6.84985 17.85L6.14985 17.15C6.10299 17.1035 6.06579 17.0482 6.04041 16.9873C6.01502 16.9264 6.00195 16.861 6.00195 16.795C6.00195 16.729 6.01502 16.6636 6.04041 16.6027C6.06579 16.5418 6.10299 16.4865 6.14985 16.44L10.5899 12L6.14985 7.56C6.10299 7.51352 6.06579 7.45822 6.04041 7.39729C6.01502 7.33636 6.00195 7.271 6.00195 7.205C6.00195 7.13899 6.01502 7.07364 6.04041 7.01271C6.06579 6.95178 6.10299 6.89648 6.14985 6.85L6.84985 6.15C6.89633 6.10313 6.95163 6.06594 7.01256 6.04055C7.07349 6.01517 7.13885 6.0021 7.20485 6.0021C7.27086 6.0021 7.33621 6.01517 7.39714 6.04055C7.45807 6.06594 7.51337 6.10313 7.55985 6.15L11.9999 10.59L16.4399 6.15C16.4863 6.10313 16.5416 6.06594 16.6026 6.04055C16.6635 6.01517 16.7288 6.0021 16.7949 6.0021C16.8609 6.0021 16.9262 6.01517 16.9871 6.04055C17.0481 6.06594 17.1034 6.10313 17.1499 6.15L17.8499 6.85C17.8967 6.89648 17.9339 6.95178 17.9593 7.01271C17.9847 7.07364 17.9978 7.13899 17.9978 7.205C17.9978 7.271 17.9847 7.33636 17.9593 7.39729C17.9339 7.45822 17.8967 7.51352 17.8499 7.56L13.4099 12L17.8499 16.44Z" fill="white"/>
</svg>
