<svg width="32" height="32" viewBox="0 0 32 32" fill="none" xmlns="http://www.w3.org/2000/svg">
<circle cx="16" cy="16" r="16" fill="white"/>
<path d="M19.9998 15.9067V16.0934C19.9996 16.1807 19.9767 16.2665 19.9335 16.3425C19.8903 16.4184 19.8282 16.4819 19.7532 16.5267L13.7865 20C13.4265 20.2134 13.2398 20.2134 13.0798 20.12L12.9132 20.0267C12.8401 19.9831 12.7792 19.9217 12.7361 19.8483C12.6929 19.7749 12.669 19.6918 12.6665 19.6067V12.3934C12.6668 12.306 12.6896 12.2202 12.7328 12.1443C12.7761 12.0683 12.8382 12.0049 12.9132 11.96L13.0798 11.8667C13.2398 11.7734 13.4265 11.7734 13.8932 12.0467L19.7532 15.4734C19.8282 15.5182 19.8903 15.5817 19.9335 15.6576C19.9767 15.7335 19.9996 15.8193 19.9998 15.9067V15.9067Z" fill="#FF7707"/>
</svg>
