<svg width="48" height="48" viewBox="0 0 48 48" fill="none" xmlns="http://www.w3.org/2000/svg">
<path d="M15.1316 33.367H16.6675L16.9704 33.3615C17.9102 33.3615 18.5349 33.2101 18.8432 32.9086C19.1528 32.6058 19.3069 31.9947 19.3069 31.074C19.3069 30.1477 19.1446 29.5217 18.8213 29.1984C18.4966 28.8738 17.8691 28.7129 16.9389 28.7129H16.5965H13.8262V35.5876H15.1316V33.367ZM15.1316 29.811H16.748C17.3059 29.811 17.6509 29.8806 17.7833 30.0197C17.9156 30.1588 17.9824 30.5189 17.9824 31.1C17.9824 31.6074 17.902 31.928 17.7423 32.0643C17.5827 32.2007 17.2076 32.2689 16.617 32.2689H15.1315V29.811H15.1316Z" fill="white"/>
<path d="M21.4423 33.367H22.9782L23.2811 33.3615C24.2209 33.3615 24.8456 33.2101 25.1539 32.9086C25.4635 32.6058 25.6176 31.9947 25.6176 31.074C25.6176 30.1477 25.4553 29.5217 25.1321 29.1984C24.8074 28.8738 24.1799 28.7129 23.2497 28.7129H22.9073H20.137V35.5876H21.4424V33.367H21.4423ZM21.4423 29.811H23.0587C23.6166 29.811 23.9616 29.8806 24.094 30.0197C24.2264 30.1588 24.2931 30.5189 24.2931 31.1C24.2931 31.6074 24.2127 31.928 24.053 32.0643C23.8934 32.2007 23.5183 32.2689 22.9277 32.2689H21.4422V29.811H21.4423Z" fill="white"/>
<path d="M27.8854 35.5876H29.1894V29.8805H31.245V28.7129H25.9006V29.8805H27.8854V35.5876Z" fill="white"/>
<path d="M10.7473 1.65137C9.64269 1.65137 8.74727 2.5468 8.74727 3.65137V25.8342H5.5V38.5696L8.74654 41.8162L8.74694 44.3485C8.74712 45.4529 9.6425 46.3481 10.7469 46.3481H40.5C41.6045 46.3481 42.5 45.4527 42.5 44.3481V11.8225C42.5 11.2921 42.2893 10.7834 41.9142 10.4083L33.1572 1.65137H10.7473ZM37.755 37.1728H6.89673V27.231H37.755V37.1728ZM33.8535 5.02296L39.1274 10.2957H33.8535V5.02296Z" fill="white"/>
</svg>
