<svg width="24" height="24" viewBox="0 0 24 24" fill="none" xmlns="http://www.w3.org/2000/svg">
<path fill-rule="evenodd" clip-rule="evenodd" d="M11.0001 2.09998C9.39847 2.09998 8.1001 3.39835 8.1001 4.99998V5.09998H5.0001H4.0001C3.50304 5.09998 3.1001 5.50292 3.1001 5.99998C3.1001 6.49703 3.50304 6.89998 4.0001 6.89998H5.0001H5.30894L6.13436 19.1715L6.13448 19.1734C6.226 20.6219 7.42747 21.75 8.879 21.75H15.1212C16.5727 21.75 17.7741 20.6219 17.8657 19.1735L17.8658 19.1715L18.6913 6.89998H19.0001H20.0001C20.4972 6.89998 20.9001 6.49703 20.9001 5.99998C20.9001 5.50292 20.4972 5.09998 20.0001 5.09998H19.0001H15.9001V4.99998C15.9001 3.39835 14.6017 2.09998 13.0001 2.09998H11.0001ZM14.1001 5.09998H9.9001V4.99998C9.9001 4.39246 10.3926 3.89998 11.0001 3.89998H13.0001C13.6076 3.89998 14.1001 4.39246 14.1001 4.99998V5.09998ZM10.5993 9.96144C10.578 9.46484 10.1582 9.07952 9.66156 9.1008C9.16496 9.12208 8.77964 9.54191 8.80092 10.0385L9.10092 17.0385C9.12221 17.5351 9.54203 17.9204 10.0386 17.8991C10.5352 17.8779 10.9206 17.458 10.8993 16.9614L10.5993 9.96144ZM15.1993 10.0385C15.2206 9.54191 14.8352 9.12208 14.3386 9.1008C13.842 9.07952 13.4222 9.46484 13.4009 9.96144L13.1009 16.9614C13.0796 17.458 13.465 17.8779 13.9616 17.8991C14.4582 17.9204 14.878 17.5351 14.8993 17.0385L15.1993 10.0385Z" fill="#2A404F"/>
</svg>
