<svg width="32" height="32" viewBox="0 0 32 32" fill="none" xmlns="http://www.w3.org/2000/svg">
<path d="M24.0002 15.8133V16.1867C23.9996 16.3614 23.9539 16.533 23.8675 16.6849C23.781 16.8367 23.6568 16.9637 23.5068 17.0533L11.5735 24C10.8535 24.4267 10.4802 24.4267 10.1602 24.24L9.82683 24.0533C9.68065 23.966 9.55883 23.8433 9.4726 23.6965C9.38638 23.5497 9.33854 23.3835 9.3335 23.2133V8.78667C9.33403 8.61193 9.37973 8.4403 9.46617 8.28845C9.55261 8.13659 9.67685 8.00967 9.82683 7.92L10.1602 7.73333C10.4802 7.54667 10.8535 7.54667 11.7868 8.09333L23.5068 14.9467C23.6568 15.0363 23.781 15.1633 23.8675 15.3151C23.9539 15.467 23.9996 15.6386 24.0002 15.8133Z" fill="#2A404F"/>
</svg>
