<svg width="20" height="20" viewBox="0 0 20 20" fill="none" xmlns="http://www.w3.org/2000/svg">
<path d="M18.3337 9.74982C17.6698 8.08728 16.5187 6.66437 15.0314 5.66793C13.5442 4.67149 11.7904 4.1481 10.0003 4.16648C8.22163 4.1562 6.48087 4.68063 5.00385 5.67175C3.52683 6.66287 2.3817 8.07494 1.717 9.72482C1.68497 9.81302 1.66807 9.90599 1.667 9.99982C1.66656 10.0884 1.68355 10.1762 1.717 10.2582C2.37908 11.9111 3.52308 13.3268 5.00032 14.321C6.47755 15.3152 8.2197 15.8421 10.0003 15.8332C11.779 15.8434 13.5198 15.319 14.9968 14.3279C16.4738 13.3368 17.619 11.9247 18.2837 10.2748C18.3193 10.1876 18.3364 10.094 18.3337 9.99982C18.3472 9.91703 18.3472 9.8326 18.3337 9.74982ZM10.0003 14.1665C8.61854 14.1634 7.26561 13.7708 6.09675 13.0338C4.9279 12.2968 3.99046 11.2453 3.392 9.99982C3.9883 8.7528 4.92528 7.69995 6.09465 6.96293C7.26403 6.22592 8.61808 5.83481 10.0003 5.83481C11.3826 5.83481 12.7366 6.22592 13.906 6.96293C15.0754 7.69995 16.0124 8.7528 16.6087 9.99982C16.0102 11.2453 15.0728 12.2968 13.9039 13.0338C12.7351 13.7708 11.3821 14.1634 10.0003 14.1665ZM10.0003 7.49982C9.50588 7.49982 9.02253 7.64644 8.61141 7.92114C8.20029 8.19585 7.87985 8.58629 7.69063 9.04311C7.50142 9.49992 7.45191 10.0026 7.54837 10.4875C7.64483 10.9725 7.88294 11.418 8.23257 11.7676C8.5822 12.1172 9.02766 12.3553 9.51261 12.4518C9.99756 12.5482 10.5002 12.4987 10.957 12.3095C11.4139 12.1203 11.8043 11.7999 12.079 11.3887C12.3537 10.9776 12.5003 10.4943 12.5003 9.99982C12.5003 9.33678 12.2369 8.70089 11.7681 8.23205C11.2993 7.76321 10.6634 7.49982 10.0003 7.49982Z" fill="#80909C"/>
</svg>
