<svg width="32" height="32" viewBox="0 0 32 32" fill="none" xmlns="http://www.w3.org/2000/svg">
<path d="M25.3333 15.3332V16.6665C25.3333 17.0347 25.0349 17.3332 24.6667 17.3332H17.3333V24.6665C17.3333 25.0347 17.0349 25.3332 16.6667 25.3332H15.3333C14.9651 25.3332 14.6667 25.0347 14.6667 24.6665V17.3332H7.33333C6.96514 17.3332 6.66666 17.0347 6.66666 16.6665V15.3332C6.66666 14.965 6.96514 14.6665 7.33333 14.6665H14.6667V7.33317C14.6667 6.96498 14.9651 6.6665 15.3333 6.6665H16.6667C17.0349 6.6665 17.3333 6.96498 17.3333 7.33317V14.6665H24.6667C25.0349 14.6665 25.3333 14.965 25.3333 15.3332Z" fill="#FF7707"/>
</svg>
