<svg width="20" height="20" viewBox="0 0 20 20" fill="none" xmlns="http://www.w3.org/2000/svg">
<path d="M14.5835 11.6667C14.3395 12.5154 13.856 13.2757 13.1909 13.8566C12.5258 14.4375 11.7073 14.8142 10.8335 14.9417C10.1502 15.0408 9.4539 15.0009 8.78642 14.8242C8.11894 14.6476 7.49404 14.3379 6.94923 13.9137C6.40442 13.4895 5.95094 12.9596 5.61601 12.3558C5.28108 11.752 5.07161 11.0868 5.00018 10.4C4.94484 9.71058 5.03315 9.01715 5.25953 8.36357C5.4859 7.71 5.84542 7.11049 6.31534 6.60297C6.78527 6.09545 7.35539 5.69095 7.98965 5.41504C8.6239 5.13913 9.30851 4.99782 10.0002 5.00004C10.6483 5.00095 11.2903 5.12539 11.8918 5.36671C11.9866 5.40923 12.0937 5.41486 12.1924 5.38249C12.291 5.35012 12.3741 5.28208 12.4252 5.19171L13.6252 2.98337C13.651 2.93251 13.6665 2.87704 13.6709 2.82016C13.6752 2.76328 13.6683 2.7061 13.6505 2.6519C13.6327 2.5977 13.6043 2.54756 13.5671 2.50434C13.5299 2.46112 13.4845 2.42567 13.4335 2.40004C12.1449 1.81663 10.7291 1.57082 9.31926 1.68576C7.90946 1.8007 6.5521 2.27261 5.37505 3.05703C4.198 3.84145 3.23999 4.91258 2.59124 6.16952C1.9425 7.42647 1.62438 8.82786 1.66684 10.2417C1.74896 12.3416 2.61215 14.3352 4.08732 15.832C5.56249 17.3287 7.54334 18.2208 9.64184 18.3334C11.8401 18.4309 13.9877 17.6549 15.616 16.1749C17.2444 14.6949 18.2212 12.6309 18.3335 10.4334V8.76671C18.3314 8.65687 18.2868 8.55212 18.2091 8.47444C18.1314 8.39676 18.0267 8.35217 17.9168 8.35004H10.4168C10.3063 8.35004 10.2004 8.39394 10.1222 8.47208C10.0441 8.55022 10.0002 8.6562 10.0002 8.76671V11.2667C10.0002 11.3772 10.0441 11.4832 10.1222 11.5613C10.2004 11.6395 10.3063 11.6834 10.4168 11.6834H14.5835" fill="white"/>
</svg>
