<svg width="18" height="12" viewBox="0 0 18 12" fill="none" xmlns="http://www.w3.org/2000/svg">
<path d="M17.3327 5.74982C16.6688 4.08728 15.5177 2.66437 14.0305 1.66793C12.5432 0.67149 10.7894 0.148099 8.99936 0.166484C7.22065 0.156202 5.47989 0.680631 4.00287 1.67175C2.52585 2.66287 1.38072 4.07494 0.716024 5.72482C0.683994 5.81301 0.667089 5.90599 0.666024 5.99982C0.665583 6.08837 0.682572 6.17615 0.716024 6.25815C1.3781 7.91114 2.52211 9.32675 3.99934 10.321C5.47658 11.3152 7.21873 11.8421 8.99936 11.8331C10.7781 11.8434 12.5188 11.319 13.9958 10.3279C15.4729 9.33676 16.618 7.92469 17.2827 6.27482C17.3184 6.18764 17.3354 6.09397 17.3327 5.99982C17.3462 5.91703 17.3462 5.8326 17.3327 5.74982ZM8.99936 10.1665C7.61756 10.1634 6.26463 9.77081 5.09577 9.03382C3.92692 8.29684 2.98949 7.24529 2.39102 5.99982C2.98733 4.7528 3.9243 3.69995 5.09368 2.96293C6.26305 2.22592 7.6171 1.83481 8.99936 1.83481C10.3816 1.83481 11.7357 2.22592 12.905 2.96293C14.0744 3.69995 15.0114 4.7528 15.6077 5.99982C15.0092 7.24529 14.0718 8.29684 12.9029 9.03382C11.7341 9.77081 10.3812 10.1634 8.99936 10.1665ZM8.99936 3.49982C8.5049 3.49982 8.02155 3.64644 7.61043 3.92114C7.19931 4.19585 6.87888 4.58629 6.68966 5.04311C6.50044 5.49992 6.45093 6.00259 6.54739 6.48754C6.64386 6.9725 6.88196 7.41795 7.23159 7.76758C7.58122 8.11722 8.02668 8.35532 8.51163 8.45178C8.99658 8.54824 9.49925 8.49874 9.95607 8.30952C10.4129 8.1203 10.8033 7.79987 11.078 7.38874C11.3527 6.97762 11.4994 6.49427 11.4994 5.99982C11.4994 5.33678 11.236 4.70089 10.7671 4.23205C10.2983 3.76321 9.6624 3.49982 8.99936 3.49982Z" fill="#80909C"/>
</svg>
