<svg width="24" height="24" viewBox="0 0 24 24" fill="none" xmlns="http://www.w3.org/2000/svg">
<path fill-rule="evenodd" clip-rule="evenodd" d="M21.8176 11.6904C20.8516 16.13 16.1517 19.4987 10.4994 19.4987C9.68403 19.4987 8.88848 19.4286 8.12109 19.2953C9.67868 20.6464 11.9589 21.4987 14.4994 21.4987C15.897 21.4987 17.2159 21.2408 18.379 20.7837C18.9449 20.5613 20.8338 21.1853 22.014 21.6194C22.4102 21.7651 22.8195 21.3901 22.7108 20.9821C22.4069 19.8417 22.0064 18.0911 22.2721 17.6335C22.7396 16.8282 22.9994 15.9366 22.9994 14.9987C22.9994 13.7906 22.5684 12.6596 21.8176 11.6904Z" fill="white"/>
<path d="M20 10C20 14.1421 15.7467 17.5 10.5 17.5C9.07102 17.5 7.71574 17.2509 6.5 16.8048C5.85423 16.5678 3.42216 17.2467 2.0178 17.6764C1.61212 17.8006 1.22655 17.397 1.36365 16.9955C1.77292 15.797 2.33908 13.8878 2 13.3531C1.3601 12.3441 1 11.2052 1 10C1 5.85786 5.25329 2.5 10.5 2.5C15.7467 2.5 20 5.85786 20 10Z" fill="white"/>
</svg>
