<svg width="16" height="16" viewBox="0 0 16 16" fill="none" xmlns="http://www.w3.org/2000/svg">
<g clip-path="url(#clip0_4275_71550)">
<path d="M8 5.3125C9.46701 5.3125 10.6562 4.12326 10.6562 2.65625C10.6562 1.18924 9.46701 0 8 0C6.53299 0 5.34375 1.18924 5.34375 2.65625C5.34375 4.12326 6.53299 5.3125 8 5.3125Z" fill="#FF7707"/>
<path d="M9.95268 5.67285C9.39027 6.03807 8.71992 6.25051 8.00083 6.25051C7.28174 6.25051 6.61139 6.03807 6.04899 5.67285C5.42727 5.91044 4.85083 6.26098 4.34961 6.71085L8.00083 8.08007L11.6521 6.71085C11.1508 6.26098 10.5744 5.91041 9.95268 5.67285Z" fill="#FF7707"/>
<path d="M13.625 9.6875H13.3125C13.0536 9.6875 12.8438 9.89737 12.8438 10.1562V11.4062C12.8438 11.6651 13.0536 11.875 13.3125 11.875H13.625C14.2291 11.875 14.7188 11.3853 14.7188 10.7812C14.7188 10.1772 14.2291 9.6875 13.625 9.6875Z" fill="#FF7707"/>
<path d="M2.733 7.32081C2.60663 7.40841 2.53125 7.55235 2.53125 7.7061V8.74969H2.6875C3.46291 8.74969 4.09375 9.38053 4.09375 10.1559V11.4059C4.09375 12.1813 3.46291 12.8122 2.6875 12.8122H2.53125V13.7998C2.53125 13.9953 2.65247 14.1702 2.83541 14.2388L7.53125 15.9997V8.90469L3.16459 7.26719C3.02062 7.21316 2.85934 7.23319 2.733 7.32081Z" fill="#FF7707"/>
<path d="M11.9062 11.4059V10.1559C11.9062 9.38053 12.5371 8.74969 13.3125 8.74969H13.4688V7.7061C13.4688 7.55235 13.3934 7.40841 13.267 7.32081C13.1406 7.23319 12.9793 7.21316 12.8354 7.26719L8.46875 8.90469V15.9997L13.1646 14.2388C13.3475 14.1702 13.4688 13.9953 13.4688 13.7998V12.8122H13.3125C12.5371 12.8122 11.9062 12.1813 11.9062 11.4059Z" fill="#FF7707"/>
<path d="M3.15625 11.4062V10.1562C3.15625 9.89737 2.94638 9.6875 2.6875 9.6875H2.375C1.77094 9.6875 1.28125 10.1772 1.28125 10.7812C1.28125 11.3853 1.77094 11.875 2.375 11.875H2.6875C2.94638 11.875 3.15625 11.6651 3.15625 11.4062Z" fill="#FF7707"/>
</g>
<defs>
<clipPath id="clip0_4275_71550">
<rect width="16" height="16" fill="white"/>
</clipPath>
</defs>
</svg>
