<svg width="24" height="24" viewBox="0 0 24 24" fill="none" xmlns="http://www.w3.org/2000/svg">
<path d="M11.9011 15.75L13.3251 14.3494L11.4591 12.5142L10.0351 13.9148V14.5909H11.2136V15.75H11.9011ZM17.3025 7.05682C17.1715 6.92803 17.0365 6.93205 16.8974 7.06889L12.6008 11.2947C12.4617 11.4316 12.4576 11.5644 12.5885 11.6932C12.7195 11.822 12.8545 11.8179 12.9936 11.6811L17.2902 7.45526C17.4293 7.31842 17.4334 7.18561 17.3025 7.05682ZM18.2846 14.2287V16.5227C18.2846 17.4806 17.9388 18.2996 17.2472 18.9798C16.5557 19.6599 15.723 20 14.7491 20H4.53548C3.56158 20 2.72886 19.6599 2.03732 18.9798C1.34577 18.2996 1 17.4806 1 16.5227V6.47727C1 5.51941 1.34577 4.7004 2.03732 4.02024C2.72886 3.34008 3.56158 3 4.53548 3H14.7491C15.2647 3 15.7434 3.10062 16.1854 3.30185C16.3081 3.35819 16.3818 3.45076 16.4063 3.57955C16.4309 3.71638 16.3941 3.8331 16.2959 3.92969L15.6943 4.52131C15.5798 4.634 15.4488 4.66619 15.3015 4.6179C15.1133 4.5696 14.9291 4.54545 14.7491 4.54545H4.53548C3.99534 4.54545 3.53294 4.73461 3.14829 5.11293C2.76365 5.49124 2.57132 5.94602 2.57132 6.47727V16.5227C2.57132 17.054 2.76365 17.5088 3.14829 17.8871C3.53294 18.2654 3.99534 18.4545 4.53548 18.4545H14.7491C15.2892 18.4545 15.7516 18.2654 16.1363 17.8871C16.5209 17.5088 16.7132 17.054 16.7132 16.5227V15.0014C16.7132 14.8968 16.7501 14.8082 16.8237 14.7358L17.6094 13.9631C17.7321 13.8423 17.8754 13.8142 18.039 13.8786C18.2027 13.9429 18.2846 14.0597 18.2846 14.2287ZM17.1061 5.31818L20.6415 8.79545L12.3921 16.9091H8.85662V13.4318L17.1061 5.31818ZM22.5566 6.91193L21.4272 8.02273L17.8917 4.54545L19.0211 3.43466C19.2503 3.20928 19.5285 3.09659 19.8559 3.09659C20.1832 3.09659 20.4615 3.20928 20.6906 3.43466L22.5566 5.26989C22.7857 5.49527 22.9003 5.76894 22.9003 6.09091C22.9003 6.41288 22.7857 6.68655 22.5566 6.91193Z" fill="#2A404F"/>
</svg>
