<svg width="96" height="96" viewBox="0 0 96 96" fill="none" xmlns="http://www.w3.org/2000/svg">
<path d="M62.0156 5L83.8333 26.8177V83.8333C83.8333 87.8036 80.637 91 76.6666 91H19.3333C15.363 91 12.1666 87.8036 12.1666 83.8333V12.1667C12.1666 8.19633 15.363 5 19.3333 5H62.0156Z" fill="#FFD99B"/>
<path d="M69.1826 26.8177C65.2123 26.8177 62.016 23.6214 62.016 19.6511V5L83.8337 26.8177H69.1826Z" fill="#FF7707"/>
<path d="M70.3958 52.3004C70.3958 55.2415 69.8165 58.1538 68.691 60.8709C67.5655 63.5881 65.9158 66.057 63.8362 68.1367C61.7565 70.2163 59.2877 71.866 56.5705 72.9915C53.8533 74.117 50.941 74.6963 48 74.6963C45.0589 74.6963 42.1466 74.117 39.4294 72.9915C36.7123 71.866 34.2434 70.2163 32.1637 68.1367C30.0841 66.057 28.4344 63.5881 27.3089 60.8709C26.1834 58.1538 25.6041 55.2415 25.6041 52.3004C25.6041 46.3607 27.9637 40.6642 32.1637 36.4642C36.3637 32.2642 42.0602 29.9046 48 29.9046C50.941 29.9046 53.8533 30.4839 56.5705 31.6094C59.2876 32.7349 61.7565 34.3845 63.8362 36.4642C65.9158 38.5438 67.5655 41.0127 68.691 43.7299C69.8165 46.4471 70.3958 49.3594 70.3958 52.3004Z" fill="#F4F5F6"/>
<path d="M47.854 29.904C41.9395 29.9426 36.2805 32.3192 32.112 36.515C27.9435 40.7109 25.604 46.3854 25.6041 52.2999H48V29.904C47.9513 29.9039 47.9026 29.9039 47.8539 29.904H47.854Z" fill="#FF7707"/>
<path d="M25.6411 52.3787C25.641 55.3245 26.2211 58.2414 27.3483 60.9629C28.4755 63.6844 30.1277 66.1573 32.2106 68.2403L48.0722 52.3787H25.6411Z" fill="#FFBD69"/>
</svg>
