<svg width="16" height="16" viewBox="0 0 16 16" fill="none" xmlns="http://www.w3.org/2000/svg">
<path fill-rule="evenodd" clip-rule="evenodd" d="M12.0007 12.6668V2.00016C12.0007 1.63197 11.7022 1.3335 11.334 1.3335H10.974C10.7991 1.33423 10.6315 1.40367 10.5073 1.52683L8.50732 3.4935C7.75626 4.24549 6.7368 4.66767 5.67398 4.66683H3.33398C2.22941 4.66683 1.33398 5.56226 1.33398 6.66683V8.00016C1.33398 9.10473 2.22941 10.0002 3.33398 10.0002H5.67398C6.72524 10.0081 7.7311 10.4296 8.47398 11.1735L10.474 13.1402C10.5982 13.2633 10.7658 13.3328 10.9407 13.3335H11.334C11.7022 13.3335 12.0007 13.035 12.0007 12.6668ZM14.6673 7.3335C14.6673 7.91048 14.4802 8.47191 14.134 8.9335C14.0696 9.00333 13.979 9.04306 13.884 9.04306C13.789 9.04306 13.6984 9.00333 13.634 8.9335L13.154 8.4535C13.0425 8.34082 13.0258 8.1652 13.114 8.0335C13.407 7.58852 13.407 7.01181 13.114 6.56683C13.0258 6.43513 13.0425 6.25951 13.154 6.14683L13.634 5.66683C13.7024 5.59789 13.797 5.5615 13.894 5.56683C13.9885 5.57783 14.0747 5.62576 14.134 5.70016C14.4871 6.17085 14.6746 6.74512 14.6673 7.3335ZM8.00065 13.9468V14.3335C8.00065 14.5176 7.85141 14.6668 7.66732 14.6668H6.38065C6.14527 14.6668 5.92736 14.5426 5.80732 14.3402L4.28732 11.8068C4.16426 11.6026 4.0827 11.376 4.04732 11.1402H5.67399C6.03255 11.1382 6.38807 11.2061 6.72065 11.3402L7.00065 13.1735C7.09348 13.3756 7.28102 13.5182 7.50065 13.5535L7.72065 13.5935C7.89156 13.6207 8.01319 13.7742 8.00065 13.9468Z" fill="#FF7707"/>
</svg>
