<svg width="16" height="16" viewBox="0 0 16 16" fill="none" xmlns="http://www.w3.org/2000/svg">
<path d="M15.3747 14.2L12.0414 10.8666C11.9334 10.7561 11.8132 10.6583 11.6831 10.575L10.8497 9.99997C11.682 8.97023 12.1391 7.68801 12.1461 6.36403C12.1531 5.04006 11.7094 3.7531 10.8881 2.71465C10.0667 1.67621 8.91658 0.948058 7.6266 0.649872C6.33662 0.351686 4.98358 0.501202 3.78983 1.07385C2.59608 1.6465 1.63265 2.6082 1.05787 3.80092C0.483084 4.99365 0.331146 6.34642 0.627022 7.63693C0.922898 8.92744 1.64898 10.0789 2.68596 10.9021C3.72293 11.7253 5.00909 12.1712 6.33308 12.1666C7.65645 12.167 8.94063 11.7174 9.97475 10.8916L10.5997 11.725C10.6739 11.8323 10.7576 11.9327 10.8497 12.025L14.1831 15.3583C14.2218 15.3974 14.2679 15.4284 14.3187 15.4495C14.3694 15.4707 14.4239 15.4816 14.4789 15.4816C14.5339 15.4816 14.5884 15.4707 14.6392 15.4495C14.6899 15.4284 14.736 15.3974 14.7747 15.3583L15.3581 14.775C15.4342 14.6996 15.4785 14.5979 15.4816 14.4908C15.4847 14.3837 15.4464 14.2796 15.3747 14.2ZM6.33308 10.5C5.50899 10.5 4.70341 10.2556 4.0182 9.79776C3.333 9.33992 2.79895 8.68918 2.48358 7.92782C2.16822 7.16646 2.0857 6.32868 2.24647 5.52043C2.40725 4.71217 2.80408 3.96974 3.3868 3.38703C3.96952 2.80431 4.71195 2.40747 5.5202 2.2467C6.32846 2.08593 7.16624 2.16844 7.92759 2.48381C8.68895 2.79917 9.3397 3.33322 9.79754 4.01843C10.2554 4.70363 10.4997 5.50922 10.4997 6.3333C10.4997 7.43837 10.0608 8.49818 9.27936 9.27958C8.49796 10.061 7.43815 10.5 6.33308 10.5Z" fill="#80909C"/>
</svg>
