<svg width="12" height="14" viewBox="0 0 12 14" fill="none" xmlns="http://www.w3.org/2000/svg">
<path fill-rule="evenodd" clip-rule="evenodd" d="M1.99935 0.333252H9.99935C10.7357 0.333252 11.3327 0.930206 11.3327 1.66659V8.83992C11.3322 9.37017 11.1212 9.87854 10.746 10.2533L7.91935 13.0799C7.54464 13.4551 7.03627 13.6661 6.50602 13.6666H1.99935C1.26297 13.6666 0.666016 13.0696 0.666016 12.3333V1.66659C0.666016 0.930206 1.26297 0.333252 1.99935 0.333252ZM9.99935 8.33325V1.66659H1.99935V12.3333H5.99935V8.99992C5.99935 8.63173 6.29783 8.33325 6.66602 8.33325H9.99935ZM3.66602 4.33325H8.33268C8.51678 4.33325 8.66602 4.18401 8.66602 3.99992V3.33325C8.66602 3.14916 8.51678 2.99992 8.33268 2.99992H3.66602C3.48192 2.99992 3.33268 3.14916 3.33268 3.33325V3.99992C3.33268 4.18401 3.48192 4.33325 3.66602 4.33325ZM6.33268 6.99992H3.66602C3.48192 6.99992 3.33268 6.85068 3.33268 6.66658V5.99992C3.33268 5.81582 3.48192 5.66658 3.66602 5.66658H6.33268C6.51678 5.66658 6.66602 5.81582 6.66602 5.99992V6.66658C6.66602 6.85068 6.51678 6.99992 6.33268 6.99992Z" fill="#FF7707"/>
</svg>
