<svg width="73" height="62" viewBox="0 0 73 62" fill="none" xmlns="http://www.w3.org/2000/svg">
<path d="M37.8906 17.2873C37.2668 17.2873 36.6638 17.0098 36.2576 16.5129C35.7389 15.8785 35.6346 15.0012 35.9901 14.2629C36.0619 14.1137 37.7954 10.5678 41.8038 7.05767C45.4796 3.8389 51.8707 0.00195312 61.4442 0.00195312C62.6091 0.00195312 63.5536 0.94639 63.5536 2.11133V9.20037C63.5536 10.1655 62.8985 11.0075 61.9631 11.2449L38.4097 17.2223C38.2374 17.2661 38.0632 17.2873 37.8906 17.2873Z" fill="#FFD99B"/>
<path d="M35.1102 17.2873C34.9375 17.2873 34.7634 17.2661 34.5914 17.2223L11.0379 11.2451C10.1024 11.0077 9.44727 10.1656 9.44727 9.20051V2.11133C9.44727 0.94639 10.3917 0.00195312 11.5566 0.00195312C21.1301 0.00195312 27.5212 3.8389 31.197 7.05767C35.2054 10.5678 36.9389 14.1138 37.0107 14.2629C37.3661 15.0012 37.2618 15.8785 36.7433 16.5129C36.337 17.01 35.7342 17.2873 35.1102 17.2873Z" fill="#FFD99B"/>
<path d="M37.8887 17.2917C37.5811 17.2917 37.2688 17.2243 36.9729 17.0818C35.9232 16.5766 35.4836 15.3126 35.9888 14.2629C36.0607 14.1137 37.7942 10.5678 41.8026 7.05767C45.4784 3.83891 51.8695 0.00195312 61.443 0.00195312C62.6079 0.00195312 63.5523 0.946391 63.5523 2.11133C63.5523 3.27627 62.6079 4.2207 61.443 4.2207C54.8803 4.2207 49.254 6.20253 44.7207 10.1109C41.3 13.0601 39.8016 16.0693 39.7868 16.0994C39.424 16.8532 38.6724 17.2917 37.8887 17.2917Z" fill="#FFD99B"/>
<path d="M35.1116 17.2877C34.3265 17.2877 33.5728 16.8474 33.2095 16.0927C33.198 16.0693 31.6998 13.0601 28.2789 10.1109C23.7456 6.20253 18.1193 4.2207 11.5566 4.2207C10.3917 4.2207 9.44727 3.27627 9.44727 2.11133C9.44727 0.946391 10.3917 0.00195312 11.5566 0.00195312C21.1301 0.00195312 27.5212 3.83891 31.197 7.05767C35.2054 10.5678 36.9389 14.1138 37.0108 14.2629C37.516 15.3126 37.0747 16.5732 36.025 17.0783C35.7299 17.2205 35.4185 17.2877 35.1116 17.2877Z" fill="#FFD99B"/>
<path d="M40.6727 61.9977C40.2866 61.9977 39.9015 61.8918 39.5625 61.6821C38.9413 61.2976 38.5625 60.6195 38.5625 59.889V15.1777C38.5625 14.3791 39.0135 13.6491 39.7274 13.2915C40.2542 13.0278 52.8309 6.83203 70.3914 6.83203C71.5564 6.83203 72.5008 7.77647 72.5008 8.94141V53.6527C72.5008 54.8176 71.5564 55.7621 70.3914 55.7621C53.8764 55.7621 41.7351 61.7159 41.6143 61.7759C41.3172 61.9241 40.9946 61.9977 40.6727 61.9977Z" fill="#FF7707"/>
<path d="M32.3288 61.9982C31.9731 61.9982 31.6172 61.9084 31.2965 61.7284C31.1925 61.6706 20.3692 55.7621 2.60938 55.7621C1.44444 55.7621 0.5 54.8176 0.5 53.6527V8.94141C0.5 7.77647 1.44444 6.83203 2.60938 6.83203C21.5495 6.83203 32.8878 13.0725 33.3611 13.3382C34.0263 13.7114 34.4382 14.4148 34.4382 15.1777V59.8889C34.4382 60.6378 34.041 61.3307 33.3946 61.7091C33.0657 61.9016 32.6974 61.9982 32.3288 61.9982Z" fill="#FF7707"/>
<path d="M50.67 48.9755C49.7731 48.9755 48.9414 48.3989 48.6582 47.4981C48.3089 46.3869 48.9265 45.2027 50.038 44.8532C54.1314 43.5665 58.5375 42.6998 63.134 42.2778C64.2923 42.1695 65.3208 43.0255 65.4274 44.1855C65.5339 45.3455 64.6799 46.3724 63.5197 46.479C59.2215 46.8736 55.1112 47.6806 51.3032 48.8777C51.0925 48.9441 50.8794 48.9755 50.67 48.9755Z" fill="#FFBD69"/>
<path d="M50.67 40.6589C49.773 40.6589 48.9414 40.0823 48.6582 39.1815C48.3089 38.0701 48.9266 36.8859 50.038 36.5366C54.1323 35.2497 58.5383 34.3832 63.134 33.9612C64.2923 33.8542 65.3208 34.7088 65.4274 35.8689C65.5339 37.0289 64.6799 38.0558 63.5197 38.1624C59.2222 38.557 55.112 39.364 51.3032 40.5612C51.0925 40.6274 50.8793 40.6589 50.67 40.6589Z" fill="#FFBD69"/>
<path d="M50.6719 29.3886C53.8265 28.3971 58.0993 27.3816 63.3281 26.9017V19.1475C58.0993 19.6276 53.8265 20.6429 50.6719 21.6346V29.3886Z" fill="#FFA344"/>
<path d="M50.672 31.4981C50.2285 31.4981 49.7902 31.3582 49.4238 31.0893C48.8823 30.6919 48.5625 30.0605 48.5625 29.3887V21.6345C48.5625 20.7131 49.1604 19.8985 50.0393 19.6222C54.1334 18.3352 58.5394 17.4688 63.1353 17.0469C63.7254 16.9928 64.3118 17.1895 64.7498 17.5892C65.1879 17.989 65.4375 18.5544 65.4375 19.1474V26.9016C65.4375 27.9919 64.6067 28.9024 63.5209 29.0023C59.2234 29.3969 55.1132 30.2039 51.3044 31.4011C51.0971 31.4662 50.8838 31.4981 50.672 31.4981ZM52.7812 23.2064V26.5896C55.4876 25.8843 58.3108 25.3538 61.2188 25.0043V21.5011C58.2942 21.8764 55.4687 22.4475 52.7812 23.2064Z" fill="#FFBD69"/>
<path d="M40.7188 61.9984H32.2812V15.8809H40.7188V61.9984Z" fill="#DB5A06"/>
<path d="M70.3906 6.83203C54.4876 6.83203 42.6725 11.9132 40.1924 13.0683H32.8509C30.4094 11.8246 19.5512 6.83203 2.60938 6.83203C1.44444 6.83203 0.5 7.77647 0.5 8.94141C0.5 10.1063 1.44444 11.0508 2.60938 11.0508C11.886 11.0508 19.1889 12.6719 23.6822 14.0318C28.5583 15.5078 31.273 17.0041 31.2998 17.0189C31.3011 17.0196 31.3024 17.0198 31.3036 17.0205C31.6072 17.1898 31.9565 17.2871 32.3288 17.2871H40.6711C41.0059 17.2871 41.3213 17.2071 41.6024 17.0681C41.6061 17.0669 41.6099 17.0666 41.6135 17.0648C41.7342 17.0046 53.8755 11.0508 70.3906 11.0508C71.5556 11.0508 72.5 10.1063 72.5 8.94141C72.5 7.77647 71.5556 6.83203 70.3906 6.83203Z" fill="#FFA344"/>
<path d="M72.4764 8.64356C72.3313 7.62009 71.4541 6.83203 70.3905 6.83203C54.4875 6.83203 42.6724 11.9132 40.1923 13.0683H36.4766V17.2871H40.6711C41.006 17.2871 41.3214 17.2071 41.6025 17.0681C41.6061 17.0669 41.6099 17.0666 41.6136 17.0648C41.7343 17.0046 53.8755 11.0508 70.3907 11.0508C71.4542 11.0508 72.3316 10.2627 72.4766 9.23925V8.64356H72.4764Z" fill="#FFA344"/>
</svg>
