<svg width="24" height="24" viewBox="0 0 24 24" fill="none" xmlns="http://www.w3.org/2000/svg">
<path fill-rule="evenodd" clip-rule="evenodd" d="M17.9705 10.4311C17.8391 10.0295 17.5835 9.67981 17.2405 9.4324L17.2105 9.42242C16.1574 8.66048 15.7157 7.30768 16.1167 6.07222C16.5177 4.83676 17.6701 4 18.9705 4C20.271 4 21.4233 4.83676 21.8243 6.07222C22.2253 7.30768 21.7837 8.66048 20.7305 9.42242C20.3875 9.66982 20.132 10.0195 20.0005 10.4211L19.6105 11.6795C19.5423 11.8811 19.3536 12.0175 19.1405 12.019H18.8605C18.6474 12.0175 18.4587 11.8811 18.3905 11.6795L17.9705 10.4311ZM11.0005 13.5071C11.0031 11.343 9.46096 9.48441 7.33129 9.08489C5.20163 8.68536 3.08929 9.85838 2.30534 11.8759C1.5214 13.8934 2.2885 16.1824 4.13052 17.3221C4.53638 17.5616 4.8445 17.9365 5.00052 18.3807L5.31052 19.3195C5.45352 19.7443 5.86237 20.022 6.31052 19.9986H6.87052C7.31868 20.022 7.72753 19.7443 7.87052 19.3195L8.00052 18.3807C8.14638 17.9427 8.43967 17.5686 8.83052 17.3221C10.1685 16.5134 10.9901 15.069 11.0005 13.5071ZM6.50052 15.5045C5.39595 15.5045 4.50052 14.6102 4.50052 13.5071C4.50052 12.404 5.39595 11.5097 6.50052 11.5097C7.60509 11.5097 8.50052 12.404 8.50052 13.5071C8.50052 14.6102 7.60509 15.5045 6.50052 15.5045ZM19.0005 6.01686C19.5528 6.01686 20.0005 6.46399 20.0005 7.01555C20.0005 7.56712 19.5528 8.01425 19.0005 8.01425C18.4482 8.01425 18.0005 7.56712 18.0005 7.01555C18.0005 6.46399 18.4482 6.01686 19.0005 6.01686ZM15.5005 11.5796L16.0005 12.009L21.7305 18.1211C22.0032 18.4108 22.0778 18.8344 21.9205 19.1997L21.8405 19.3894C21.684 19.7584 21.3218 19.9983 20.9205 19.9986H10.1405C9.98011 19.9974 9.83 19.9195 9.73694 19.789C9.64389 19.6584 9.61918 19.4913 9.67052 19.3395L9.89052 18.6803C10.0335 18.2555 10.4424 17.9779 10.8905 18.0012H18.7005L13.1305 11.8592C12.8579 11.5695 12.7832 11.1459 12.9405 10.7806L13.0205 10.5909C13.1786 10.2291 13.5353 9.99425 13.9305 9.99168H15.6005C15.8127 9.99619 15.9998 10.1314 16.0705 10.3312L16.3805 11.25C16.4148 11.3228 16.4148 11.407 16.3805 11.4797C16.3333 11.5426 16.2592 11.5796 16.1805 11.5796H15.5005Z" fill="#FF7707"/>
</svg>
