<svg width="32" height="32" viewBox="0 0 32 32" fill="none" xmlns="http://www.w3.org/2000/svg">
<path fill-rule="evenodd" clip-rule="evenodd" d="M16.6673 5.3335H15.334C14.9658 5.3335 14.6673 5.03502 14.6673 4.66683V2.00016C14.6673 1.63197 14.9658 1.3335 15.334 1.3335H16.6673C17.0355 1.3335 17.334 1.63197 17.334 2.00016V4.66683C17.334 5.03502 17.0355 5.3335 16.6673 5.3335ZM8.32676 13.7786C9.31493 10.3601 12.4422 8.00526 16.0007 8.00016C19.5591 8.00526 22.6864 10.3601 23.6745 13.7786C24.6627 17.197 23.2742 20.8573 20.2673 22.7602C19.682 23.1231 19.3283 23.7649 19.334 24.4535V24.6668C19.334 25.035 19.0355 25.3335 18.6673 25.3335H13.334C12.9658 25.3335 12.6673 25.035 12.6673 24.6668V24.4535C12.6678 23.7662 12.3154 23.1267 11.734 22.7602C8.72712 20.8573 7.33859 17.197 8.32676 13.7786ZM10.6673 16.0002C10.6673 18.9457 13.0551 21.3335 16.0007 21.3335C17.4151 21.3335 18.7717 20.7716 19.7719 19.7714C20.7721 18.7712 21.334 17.4147 21.334 16.0002C21.334 13.0546 18.9462 10.6668 16.0007 10.6668C13.0551 10.6668 10.6673 13.0546 10.6673 16.0002ZM13.334 28.7868C13.3355 29.1366 13.4743 29.4718 13.7207 29.7202L14.2807 30.2802C14.529 30.5265 14.8642 30.6654 15.214 30.6668H16.7873C17.1371 30.6654 17.4723 30.5265 17.7207 30.2802L18.2807 29.7202C18.527 29.4718 18.6658 29.1366 18.6673 28.7868V28.0002H13.334V28.7868ZM26.8407 6.10683L25.894 5.16016C25.773 5.03126 25.6041 4.95814 25.4273 4.95814C25.2505 4.95814 25.0816 5.03126 24.9607 5.16016L23.0673 7.04016C22.8116 7.30391 22.8116 7.72308 23.0673 7.98683L24.0007 8.9335C24.2644 9.18921 24.6836 9.18921 24.9473 8.9335L26.8273 7.04016C26.958 6.92104 27.0335 6.75317 27.036 6.57638C27.0386 6.3996 26.9678 6.22964 26.8407 6.10683ZM7.04065 5.16016L8.93398 7.04016C9.19843 7.30553 9.19843 7.7348 8.93398 8.00016L8.00065 8.9335C7.73529 9.19794 7.30602 9.19794 7.04065 8.9335L5.16065 7.04016C5.03175 6.91918 4.95863 6.75028 4.95863 6.5735C4.95863 6.39671 5.03175 6.22781 5.16065 6.10683L6.10732 5.16016C6.2283 5.03126 6.3972 4.95814 6.57398 4.95814C6.75077 4.95814 6.91967 5.03126 7.04065 5.16016ZM30.0007 14.6668H27.334C26.9658 14.6668 26.6673 14.9653 26.6673 15.3335V16.6668C26.6673 17.035 26.9658 17.3335 27.334 17.3335H30.0007C30.3688 17.3335 30.6673 17.035 30.6673 16.6668V15.3335C30.6673 14.9653 30.3688 14.6668 30.0007 14.6668ZM2.00065 14.6668H4.66732C5.03551 14.6668 5.33398 14.9653 5.33398 15.3335V16.6668C5.33398 17.035 5.03551 17.3335 4.66732 17.3335H2.00065C1.63246 17.3335 1.33398 17.035 1.33398 16.6668V15.3335C1.33398 14.9653 1.63246 14.6668 2.00065 14.6668Z" fill="#FFB401"/>
</svg>
