<svg width="16" height="16" viewBox="0 0 16 16" fill="none" xmlns="http://www.w3.org/2000/svg">
<path fill-rule="evenodd" clip-rule="evenodd" d="M8.00265 5.3335C8.00265 6.43807 7.10695 7.3335 6.00204 7.3335C4.89714 7.3335 4.00144 6.43807 4.00144 5.3335C4.00144 4.22893 4.89714 3.3335 6.00204 3.3335C7.10695 3.3335 8.00265 4.22893 8.00265 5.3335ZM12.6706 6.3335C12.6706 7.25397 11.9241 8.00016 11.0034 8.00016C10.5607 8.00194 10.1356 7.82692 9.82255 7.51397C9.5095 7.20103 9.33443 6.77607 9.33621 6.3335C9.33621 5.41302 10.0826 4.66683 11.0034 4.66683C11.9241 4.66683 12.6706 5.41302 12.6706 6.3335ZM7.84256 8.66683C7.42287 8.97354 7.08226 9.37574 6.84892 9.84016L6.2154 11.1002C5.97205 11.5879 5.93833 12.1537 6.12204 12.6668H2.00079C1.76966 12.6661 1.55537 12.5458 1.43446 12.3489C1.31355 12.152 1.30326 11.9065 1.40728 11.7002L2.36757 9.77349C2.70687 9.09406 3.40181 8.66534 4.16144 8.66683H7.84256ZM7.43621 12.3489C7.55712 12.5458 7.7714 12.6661 8.00254 12.6668H14.0044C14.2355 12.6661 14.4498 12.5458 14.5707 12.3489C14.6916 12.152 14.7019 11.9065 14.5979 11.7002L13.9643 10.4335C13.6243 9.7588 12.9329 9.33327 12.1771 9.3335H9.82976C9.08604 9.34571 8.41051 9.7694 8.07589 10.4335L7.40902 11.7002C7.30501 11.9065 7.3153 12.152 7.43621 12.3489Z" fill="#FF7707"/>
</svg>
