<svg width="18" height="18" viewBox="0 0 18 18" fill="none" xmlns="http://www.w3.org/2000/svg">
<path fill-rule="evenodd" clip-rule="evenodd" d="M8.99935 0.666992C4.39698 0.666992 0.666016 4.39795 0.666016 9.00033C0.666016 13.6027 4.39698 17.3337 8.99935 17.3337C13.6017 17.3337 17.3327 13.6027 17.3327 9.00033C17.3327 6.79019 16.4547 4.67057 14.8919 3.10777C13.3291 1.54497 11.2095 0.666992 8.99935 0.666992ZM8.99935 15.667C5.31745 15.667 2.33268 12.6822 2.33268 9.00033C2.33268 5.31843 5.31745 2.33366 8.99935 2.33366C12.6812 2.33366 15.666 5.31843 15.666 9.00033C15.666 10.7684 14.9636 12.4641 13.7134 13.7144C12.4632 14.9646 10.7675 15.667 8.99935 15.667ZM9.73268 4.41699V8.70033L12.7577 11.7253C12.9175 11.8902 12.9175 12.1521 12.7577 12.317L12.316 12.7587C12.1512 12.9185 11.8892 12.9185 11.7243 12.7587L8.39102 9.42533C8.31466 9.34695 8.27011 9.24301 8.26602 9.13366V4.41699C8.26602 4.18687 8.45256 4.00033 8.68268 4.00033H9.31602C9.54613 4.00033 9.73268 4.18687 9.73268 4.41699Z" fill="#80909C"/>
</svg>
