<svg width="21" height="21" viewBox="0 0 21 21" fill="none" xmlns="http://www.w3.org/2000/svg">
<path fill-rule="evenodd" clip-rule="evenodd" d="M10.5001 2.1665C5.89771 2.1665 2.16675 5.89746 2.16675 10.4998C2.16675 15.1022 5.89771 18.8332 10.5001 18.8332C15.1025 18.8332 18.8334 15.1022 18.8334 10.4998C18.8334 8.2897 17.9554 6.17008 16.3926 4.60728C14.8298 3.04448 12.7102 2.1665 10.5001 2.1665ZM10.5001 17.1665C6.81818 17.1665 3.83341 14.1817 3.83341 10.4998C3.83341 6.81794 6.81818 3.83317 10.5001 3.83317C14.182 3.83317 17.1667 6.81794 17.1667 10.4998C17.1667 12.2679 16.4644 13.9636 15.2141 15.2139C13.9639 16.4641 12.2682 17.1665 10.5001 17.1665ZM8.32479 6.91372C8.52386 6.80466 8.76641 6.81211 8.95841 6.93317L13.8334 9.9665C14.0152 10.0829 14.1252 10.284 14.1252 10.4998C14.1252 10.7157 14.0152 10.9167 13.8334 11.0332L8.95841 14.0665C8.76641 14.1876 8.52386 14.195 8.32479 14.086C8.12571 13.9769 8.00142 13.7685 8.00008 13.5415V7.45817C8.00142 7.23119 8.12571 7.02277 8.32479 6.91372Z" fill="#2A404F"/>
</svg>
