<svg width="21" height="21" viewBox="0 0 21 21" fill="none" xmlns="http://www.w3.org/2000/svg">
<path d="M15.4997 2.16669H5.49967C5.05765 2.16669 4.63372 2.34228 4.32116 2.65484C4.0086 2.9674 3.83301 3.39133 3.83301 3.83335V17.1667C3.83301 17.6087 4.0086 18.0326 4.32116 18.3452C4.63372 18.6578 5.05765 18.8334 5.49967 18.8334H11.4747C11.6946 18.8335 11.9124 18.7902 12.1155 18.7058C12.3186 18.6214 12.503 18.4977 12.658 18.3417L16.6747 14.325C16.8306 14.17 16.9544 13.9856 17.0388 13.7825C17.1232 13.5794 17.1665 13.3616 17.1663 13.1417V3.83335C17.1663 3.39133 16.9907 2.9674 16.6782 2.65484C16.3656 2.34228 15.9417 2.16669 15.4997 2.16669ZM6.33301 5.91669C6.33301 5.80618 6.37691 5.7002 6.45505 5.62206C6.53319 5.54392 6.63917 5.50002 6.74967 5.50002H14.2497C14.3602 5.50002 14.4662 5.54392 14.5443 5.62206C14.6224 5.7002 14.6663 5.80618 14.6663 5.91669V6.75002C14.6663 6.86053 14.6224 6.96651 14.5443 7.04465C14.4662 7.12279 14.3602 7.16669 14.2497 7.16669H6.74967C6.63917 7.16669 6.53319 7.12279 6.45505 7.04465C6.37691 6.96651 6.33301 6.86053 6.33301 6.75002V5.91669ZM10.9163 10.5H6.74967C6.63917 10.5 6.53319 10.4561 6.45505 10.378C6.37691 10.2998 6.33301 10.1939 6.33301 10.0834V9.25002C6.33301 9.13951 6.37691 9.03353 6.45505 8.95539C6.53319 8.87725 6.63917 8.83335 6.74967 8.83335H10.9163C11.0268 8.83335 11.1328 8.87725 11.211 8.95539C11.2891 9.03353 11.333 9.13951 11.333 9.25002V10.0834C11.333 10.1939 11.2891 10.2998 11.211 10.378C11.1328 10.4561 11.0268 10.5 10.9163 10.5ZM11.333 17.3167V13.8334C11.333 13.6123 11.4208 13.4004 11.5771 13.2441C11.7334 13.0878 11.9453 13 12.1663 13H15.6497L11.333 17.3167Z" fill="white"/>
</svg>
