<svg width="20" height="20" viewBox="0 0 20 20" fill="none" xmlns="http://www.w3.org/2000/svg">
<path d="M15.2085 12.6042C14.8129 12.6041 14.4226 12.6944 14.0673 12.8682C13.712 13.042 13.401 13.2946 13.1582 13.6068C13.1434 13.5965 13.1281 13.5869 13.1124 13.5782L7.35377 10.6987C7.33735 10.6915 7.32057 10.6852 7.30351 10.6797C7.4257 10.2399 7.42687 9.77515 7.30689 9.33467L13.1631 6.40082C13.5652 6.91504 14.1439 7.26155 14.787 7.37307C15.4301 7.48459 16.0918 7.35316 16.6434 7.00431C17.1951 6.65546 17.5975 6.11407 17.7724 5.48523C17.9474 4.8564 17.8824 4.18499 17.5902 3.60134C17.298 3.01769 16.7993 2.56345 16.191 2.3268C15.5827 2.09014 14.9082 2.08796 14.2983 2.32066C13.6885 2.55337 13.1869 3.00437 12.8909 3.58611C12.5949 4.16785 12.5256 4.83883 12.6965 5.46878L6.84413 8.40082C6.51095 7.97269 6.05238 7.6593 5.53246 7.50442C5.01255 7.34954 4.45724 7.3609 3.94409 7.53691C3.43093 7.71291 2.98556 8.04478 2.67016 8.48617C2.35476 8.92757 2.18508 9.45644 2.18481 9.99893C2.18455 10.5414 2.35371 11.0705 2.66868 11.5122C2.98365 11.9539 3.4287 12.2862 3.94168 12.4627C4.45466 12.6392 5.00996 12.6511 5.53003 12.4967C6.05009 12.3423 6.50897 12.0294 6.84257 11.6016C6.85709 11.612 6.87222 11.6216 6.88788 11.6302L12.6465 14.5097C12.6634 14.5177 12.6806 14.5216 12.6986 14.5279C12.5566 15.0532 12.5829 15.6098 12.7737 16.1194C12.9645 16.629 13.3102 17.066 13.7622 17.3689C14.2143 17.6718 14.7499 17.8254 15.2938 17.8081C15.8376 17.7908 16.3624 17.6035 16.7943 17.2725C17.2262 16.9415 17.5434 16.4834 17.7015 15.9627C17.8595 15.442 17.8504 14.8849 17.6754 14.3697C17.5003 13.8545 17.1682 13.407 16.7257 13.0904C16.2832 12.7737 15.7526 12.6037 15.2085 12.6042Z" fill="white"/>
</svg>
