<svg width="96" height="96" viewBox="0 0 96 96" fill="none" xmlns="http://www.w3.org/2000/svg">
<path d="M63 61.5H73.5V82.5H63V61.5Z" fill="#FFC431"/>
<path d="M73.5 39L82.5 43.5L85.5 39L76.5 33L73.5 39Z" fill="#FF7707"/>
<path d="M70.5 39H76.5V48H70.5V39Z" fill="#FF7707"/>
<path d="M78 39L75 42L67.5 40.5L48 21L46.5 15L40.5 9L45 4.5L51 10.5L57 12L76.5 31.5L78 39Z" fill="#FF7707"/>
<path d="M52.5 31.5H48C45.6131 31.5 43.3239 32.4482 41.636 34.136C39.9482 35.8239 39 38.1131 39 40.5V57H49.5V40.5H52.5V31.5Z" fill="#FFC431"/>
<path d="M33 55.5H63V91.5H33V55.5Z" fill="white"/>
<path d="M33 69H63V91.5H33V69Z" fill="#FF7707"/>
<path d="M37.5 91.5H4.5L15 67.5V19.5H27V67.5L37.5 91.5Z" fill="white"/>
<path d="M37.5 91.5H4.5L11.7188 75H30.2812L37.5 91.5Z" fill="#2A404F"/>
<path d="M13.5 78H16.5V81H13.5V78Z" fill="#FFFBF7"/>
<path d="M18 82.5H21V85.5H18V82.5Z" fill="#FFFBF7"/>
<path d="M24 79.5H27V82.5H24V79.5Z" fill="#FFFBF7"/>
<path d="M10.5 85.5H13.5V88.5H10.5V85.5Z" fill="#FFFBF7"/>
<path d="M27 84H30V87H27V84Z" fill="#FFFBF7"/>
<path d="M37.5 76.5H40.5V79.5H37.5V76.5Z" fill="#FFFBF7"/>
<path d="M43.5 73.5H46.5V76.5H43.5V73.5Z" fill="#FFFBF7"/>
<path d="M46.5 78H49.5V81H46.5V78Z" fill="#FFFBF7"/>
<path d="M27 13.5H15C13.3431 13.5 12 14.8431 12 16.5C12 18.1569 13.3431 19.5 15 19.5H27C28.6569 19.5 30 18.1569 30 16.5C30 14.8431 28.6569 13.5 27 13.5Z" fill="#AAB3B9"/>
<path d="M19.5 24H27V27H19.5V24Z" fill="#FFE9D6"/>
<path d="M22.5 30H27V33H22.5V30Z" fill="#FFE9D6"/>
<path d="M22.5 36H27V39H22.5V36Z" fill="#FFE9D6"/>
<path d="M19.5 42H27V45H19.5V42Z" fill="#FFE9D6"/>
<path d="M22.5 48H27V51H22.5V48Z" fill="#FFE9D6"/>
<path d="M22.5 54H27V57H22.5V54Z" fill="#FFE9D6"/>
<path d="M19.5 60H27V63H19.5V60Z" fill="#FFE9D6"/>
<path d="M43.5 55.5L45.8291 60.1584C46.0307 60.5616 46.3406 60.9006 46.724 61.1376C47.1074 61.3745 47.5493 61.5 48 61.5C48.4507 61.5 48.8926 61.3745 49.276 61.1376C49.6594 60.9006 49.9693 60.5616 50.1709 60.1584L52.5 55.5H43.5Z" fill="#FFE9D6"/>
<path d="M51 84H54V87H51V84Z" fill="#FFFBF7"/>
<path d="M55.5 78H58.5V81H55.5V78Z" fill="#FFFBF7"/>
<path d="M52.5 73.5H55.5V76.5H52.5V73.5Z" fill="#FFFBF7"/>
<path d="M63 59.625L85.5 54L87 60L63 66V59.625Z" fill="#FFC431"/>
<path d="M63 82.5H85.5V91.5H63V82.5Z" fill="#FF7707"/>
<path d="M78 67.5H91.5V72H78V67.5Z" fill="#FFC431"/>
<path d="M54 37.5C57.3137 37.5 60 34.8137 60 31.5C60 28.1863 57.3137 25.5 54 25.5C50.6863 25.5 48 28.1863 48 31.5C48 34.8137 50.6863 37.5 54 37.5Z" fill="#FFC431"/>
<path d="M52.5 43.5C54.1569 43.5 55.5 42.1569 55.5 40.5C55.5 38.8431 54.1569 37.5 52.5 37.5C50.8431 37.5 49.5 38.8431 49.5 40.5C49.5 42.1569 50.8431 43.5 52.5 43.5Z" fill="#FFC431"/>
<path d="M54 33C54.8284 33 55.5 32.3284 55.5 31.5C55.5 30.6716 54.8284 30 54 30C53.1716 30 52.5 30.6716 52.5 31.5C52.5 32.3284 53.1716 33 54 33Z" fill="#FF7707"/>
<path d="M57 12L48 21L46.5 15L40.5 9L45 4.5L51 10.5L57 12Z" fill="#FFA344"/>
<path d="M78 39L75 42L67.5 40.5L76.5 31.5L78 39Z" fill="#FFA344"/>
<path d="M81 82.5L88.5 72H82.5L79.5 76.5H73.5V82.5H81Z" fill="#FF7707"/>
</svg>
