<svg width="21" height="21" viewBox="0 0 21 21" fill="none" xmlns="http://www.w3.org/2000/svg">
<path fill-rule="evenodd" clip-rule="evenodd" d="M10.4998 2.16602C5.89746 2.16602 2.1665 5.89698 2.1665 10.4993C2.1665 15.1017 5.89746 18.8327 10.4998 18.8327C15.1022 18.8327 18.8332 15.1017 18.8332 10.4993C18.8332 8.28921 17.9552 6.1696 16.3924 4.60679C14.8296 3.04399 12.71 2.16602 10.4998 2.16602ZM10.4998 17.166C6.81794 17.166 3.83317 14.1812 3.83317 10.4993C3.83317 6.81745 6.81794 3.83268 10.4998 3.83268C14.1817 3.83268 17.1665 6.81745 17.1665 10.4993C17.1665 12.2675 16.4641 13.9632 15.2139 15.2134C13.9636 16.4636 12.2679 17.166 10.4998 17.166ZM8.32454 6.91323C8.52361 6.80417 8.76616 6.81162 8.95817 6.93268L13.8332 9.96602C14.015 10.0824 14.1249 10.2835 14.1249 10.4993C14.1249 10.7152 14.015 10.9163 13.8332 11.0327L8.95817 14.066C8.76616 14.1871 8.52361 14.1945 8.32454 14.0855C8.12547 13.9764 8.00117 13.768 7.99984 13.541V7.45768C8.00117 7.2307 8.12547 7.02229 8.32454 6.91323Z" fill="#FF7707"/>
</svg>
