<svg width="20" height="20" viewBox="0 0 20 20" fill="none" xmlns="http://www.w3.org/2000/svg">
<path d="M6.66675 6.66671C6.66675 6.00744 6.86225 5.36297 7.22852 4.81481C7.59479 4.26664 8.11538 3.8394 8.72447 3.58711C9.33356 3.33482 10.0038 3.26881 10.6504 3.39742C11.297 3.52604 11.8909 3.84351 12.3571 4.30969C12.8233 4.77586 13.1407 5.3698 13.2694 6.01641C13.398 6.66301 13.332 7.33323 13.0797 7.94232C12.8274 8.55141 12.4001 9.072 11.852 9.43827C11.3038 9.80455 10.6594 10 10.0001 10C9.11603 10 8.26818 9.64885 7.64306 9.02373C7.01794 8.39861 6.66675 7.55076 6.66675 6.66671ZM16.5751 15.4584L15.3751 13.05C15.1672 12.6337 14.8473 12.2836 14.4512 12.0392C14.0552 11.7948 13.5988 11.6658 13.1334 11.6667H6.86675C6.40137 11.6658 5.94498 11.7948 5.54895 12.0392C5.15291 12.2836 4.83295 12.6337 4.62508 13.05L3.42508 15.4584C3.36116 15.5852 3.33072 15.7263 3.33667 15.8683C3.34261 16.0102 3.38474 16.1482 3.45905 16.2693C3.53336 16.3904 3.63739 16.4904 3.76125 16.56C3.88511 16.6295 4.0247 16.6663 4.16675 16.6667H15.8334C15.9755 16.6663 16.1151 16.6295 16.2389 16.56C16.3628 16.4904 16.4668 16.3904 16.5411 16.2693C16.6154 16.1482 16.6575 16.0102 16.6635 15.8683C16.6694 15.7263 16.639 15.5852 16.5751 15.4584Z" fill="#FF7707"/>
</svg>
