<svg width="48" height="48" viewBox="0 0 48 48" fill="none" xmlns="http://www.w3.org/2000/svg">
<path d="M41.2882 22.9142V10.0753C41.2882 9.88281 41.2354 9.70669 41.1569 9.54459C41.2043 9.41342 41.2882 9.29768 41.2882 9.1524C41.2882 8.60328 40.9241 8.1202 40.3953 7.96877L23.1687 3.04688C22.9477 2.98437 22.7145 2.98437 22.4935 3.04688L5.26685 7.96877C4.73808 8.1202 4.37402 8.60328 4.37402 9.1524C4.37402 9.70152 4.73808 10.1846 5.26685 10.336L11.7569 12.1903V13.6465C11.7569 15.0464 12.5343 16.3333 13.7372 16.9246C19.2526 19.6354 26.4072 19.6342 31.9251 16.9258C33.1279 16.3346 33.9054 15.0476 33.9054 13.6465V12.1903L38.8273 10.7841V22.9142C37.3982 23.4239 36.3664 24.7769 36.3664 26.379V28.8399C36.3664 29.5201 36.9167 30.0704 37.5968 30.0704H42.5187C43.1988 30.0704 43.7492 29.5201 43.7492 28.8399V26.379C43.7491 24.7769 42.7173 23.424 41.2882 22.9142Z" fill="#AAB3B9"/>
<path d="M32.8862 19.2986C29.7932 20.8186 26.2736 21.6213 22.7083 21.6213C19.1431 21.6213 15.6223 20.8174 12.5281 19.2974C12.2259 19.1488 11.9756 18.9286 11.707 18.7324C11.9699 23.1613 14.3527 26.9194 17.7203 28.8448C17.7203 28.8448 19.4476 29.6609 19.9873 29.8142L19.9894 29.8102C20.8635 30.0594 21.7633 30.2347 22.7083 30.2347C23.5735 30.2347 24.8058 30.062 26.0373 29.6073C26.6045 29.4054 27.6923 28.8473 27.6923 28.8473C31.0619 26.9226 33.4464 23.1633 33.7096 18.7329C33.4403 18.9295 33.1893 19.1497 32.8862 19.2986Z" fill="#AAB3B9"/>
<path d="M22.7087 32.695C21.7168 32.695 20.7622 32.5419 19.832 32.3174L22.7087 36.6325L25.5692 32.3215C24.6439 32.5434 23.695 32.695 22.7087 32.695Z" fill="#AAB3B9"/>
<path d="M29.791 30.4893C29.7692 30.5039 29.7447 30.514 29.723 30.5286L28.6881 32.081C28.6881 32.1383 23.9702 39.1946 23.9385 39.2423V45.0009H39.9346C40.6147 45.0009 41.1651 44.4506 41.1651 43.7705C41.1651 37.051 36.2195 31.5352 29.791 30.4893ZM32.5518 40.0791H30.0908C29.4107 40.0791 28.8604 39.5287 28.8604 38.8486C28.8604 38.1685 29.4107 37.6181 30.0908 37.6181H32.5518C33.2319 37.6181 33.7822 38.1685 33.7822 38.8486C33.7822 39.5287 33.2319 40.0791 32.5518 40.0791Z" fill="#AAB3B9"/>
<path d="M15.6707 30.5137C15.6506 30.5003 15.6283 30.4911 15.6083 30.4775C9.18665 31.5306 4.25098 37.0545 4.25098 43.7698C4.25098 44.45 4.80133 45.0003 5.48145 45.0003H21.4776V39.2416C15.9012 30.8626 17.0391 32.5732 15.6707 30.5137Z" fill="#AAB3B9"/>
</svg>
