<svg width="24" height="24" viewBox="0 0 24 24" fill="none" xmlns="http://www.w3.org/2000/svg">
<path fill-rule="evenodd" clip-rule="evenodd" d="M22.9055 19.63L12.8131 2.37C12.6763 2.14121 12.4296 2.00081 12.163 2H11.8629C11.5963 2.00081 11.3496 2.14121 11.2127 2.37L1.10035 19.63C0.970457 19.8667 0.970457 20.1533 1.10035 20.39L1.24038 20.62C1.37 20.8573 1.62016 21.0035 1.89054 21H22.1153C22.3857 21.0035 22.6359 20.8573 22.7655 20.62L22.9055 20.39C23.0354 20.1533 23.0354 19.8667 22.9055 19.63ZM13.0032 16.5C13.0032 16.7761 12.7793 17 12.503 17H11.5028C11.2266 17 11.0027 16.7761 11.0027 16.5V15.5C11.0027 15.2239 11.2266 15 11.5028 15H12.503C12.7793 15 13.0032 15.2239 13.0032 15.5V16.5ZM12.5331 13C12.6602 13.0009 12.7679 12.9062 12.7831 12.78L13.1832 9.56C13.2005 9.41735 13.1555 9.27417 13.0598 9.16698C12.964 9.05979 12.8268 8.99896 12.6831 9H11.3228C11.179 8.99896 11.0418 9.05979 10.9461 9.16698C10.8504 9.27417 10.8054 9.41735 10.8226 9.56L11.2227 12.78C11.238 12.9062 11.3456 13.0009 11.4728 13H12.5331Z" fill="#2A404F"/>
</svg>
