<svg width="16" height="16" viewBox="0 0 16 16" fill="none" xmlns="http://www.w3.org/2000/svg">
<path fill-rule="evenodd" clip-rule="evenodd" d="M13.474 9.38292C13.1507 9.11395 12.9728 8.70796 12.994 8.2874V8.00016V7.71292C12.9728 7.29236 13.1507 6.88637 13.474 6.61741L14.0074 6.17653C14.2581 5.96907 14.3229 5.61058 14.1607 5.32817L13.3874 3.99218C13.269 3.78674 13.0508 3.65961 12.814 3.65818C12.7338 3.65684 12.6542 3.67279 12.5807 3.70494L11.914 3.94542C11.7654 4.00373 11.607 4.0332 11.4474 4.03226C11.1919 4.0316 10.942 3.9574 10.7274 3.8185C10.5707 3.71001 10.4057 3.61398 10.234 3.53126C9.8589 3.3385 9.59685 2.97932 9.52737 2.56267L9.41404 1.89467C9.36122 1.56798 9.07763 1.32929 8.74737 1.33355H7.21404C6.88378 1.32929 6.60019 1.56798 6.54737 1.89467L6.43404 2.56267C6.37036 2.97406 6.11893 3.33219 5.75404 3.53126C5.58237 3.61398 5.41742 3.71001 5.2607 3.8185C5.0461 3.9574 4.79619 4.0316 4.5407 4.03226C4.38106 4.0332 4.2227 4.00373 4.07404 3.94542L3.40737 3.70494C3.33383 3.67279 3.25426 3.65684 3.17404 3.65818C2.9373 3.65961 2.71907 3.78674 2.6007 3.99218L1.8407 5.32817C1.67999 5.61214 1.74765 5.97091 2.0007 6.17653L2.53404 6.61741C2.8574 6.88637 3.03529 7.29236 3.01404 7.71292V8.00016V8.2874C3.03529 8.70796 2.8574 9.11395 2.53404 9.38292L2.0007 9.8238C1.74765 10.0294 1.67999 10.3882 1.8407 10.6722L2.61404 12.0081C2.73241 12.2136 2.95063 12.3407 3.18737 12.3421C3.26759 12.3435 3.34717 12.3275 3.4207 12.2954L4.08737 12.0549C4.23603 11.9966 4.3944 11.9671 4.55404 11.9681C4.80952 11.9687 5.05943 12.0429 5.27404 12.1818C5.43076 12.2903 5.5957 12.3863 5.76737 12.4691C6.1425 12.6618 6.40455 13.021 6.47404 13.4377L6.58737 14.1057C6.64019 14.4323 6.92378 14.671 7.25404 14.6668H8.78737C9.11763 14.671 9.40122 14.4323 9.45404 14.1057L9.56737 13.4377C9.63685 13.021 9.8989 12.6618 10.274 12.4691C10.4457 12.3863 10.6107 12.2903 10.7674 12.1818C10.982 12.0429 11.2319 11.9687 11.4874 11.9681C11.647 11.9671 11.8054 11.9966 11.954 12.0549L12.6207 12.2954C12.6942 12.3275 12.7738 12.3435 12.854 12.3421C13.0908 12.3407 13.309 12.2136 13.4274 12.0081L14.2007 10.6722C14.3527 10.3787 14.2677 10.018 14.0007 9.8238L13.474 9.38292ZM8.0007 11.6741C5.97566 11.6741 4.33404 10.0292 4.33404 8.00016C4.33404 5.97108 5.97566 4.32618 8.0007 4.32618C10.0257 4.32618 11.6674 5.97108 11.6674 8.00016C11.6674 8.97456 11.2811 9.90906 10.5934 10.5981C9.9058 11.2871 8.97316 11.6741 8.0007 11.6741ZM6.66737 8.00016C6.66737 7.26231 7.26432 6.66417 8.0007 6.66417C8.73708 6.66417 9.33404 7.26231 9.33404 8.00016C9.33404 8.73801 8.73708 9.33616 8.0007 9.33616C7.26432 9.33616 6.66737 8.73801 6.66737 8.00016Z" fill="#FF7707"/>
</svg>
