<svg width="10" height="7" viewBox="0 0 10 7" fill="none" xmlns="http://www.w3.org/2000/svg">
<path d="M5.6002 6.15046C5.48311 6.26771 5.32424 6.33365 5.15854 6.3338H4.84187C4.67652 6.33188 4.5183 6.2662 4.4002 6.15046L0.125202 1.86713C0.0463222 1.78889 0.00195312 1.6824 0.00195312 1.5713C0.00195312 1.4602 0.0463222 1.3537 0.125202 1.27546L0.716869 0.683796C0.793672 0.605409 0.898795 0.561237 1.00854 0.561237C1.11828 0.561237 1.2234 0.605409 1.3002 0.683796L5.0002 4.39213L8.7002 0.683796C8.77844 0.604916 8.88494 0.560547 8.99604 0.560547C9.10714 0.560547 9.21364 0.604916 9.29187 0.683796L9.8752 1.27546C9.95408 1.3537 9.99845 1.4602 9.99845 1.5713C9.99845 1.6824 9.95408 1.78889 9.8752 1.86713L5.6002 6.15046Z" fill="#2A404F"/>
</svg>
