<svg width="20" height="20" viewBox="0 0 20 20" fill="none" xmlns="http://www.w3.org/2000/svg">
<path d="M3.65033 2.62504C3.61293 2.58519 3.56774 2.55342 3.51758 2.5317C3.46741 2.50998 3.41333 2.49878 3.35867 2.49878C3.304 2.49878 3.24992 2.50998 3.19975 2.5317C3.14959 2.55342 3.10441 2.58519 3.067 2.62504L2.62533 3.06671C2.58547 3.10412 2.55371 3.1493 2.53199 3.19947C2.51027 3.24963 2.49907 3.30371 2.49907 3.35838C2.49907 3.41304 2.51027 3.46713 2.53199 3.51729C2.55371 3.56746 2.58547 3.61264 2.62533 3.65004L4.792 5.83338C3.38158 6.7768 2.30534 8.14178 1.717 9.73338C1.68588 9.81894 1.66899 9.90902 1.667 10C1.66656 10.0886 1.68355 10.1764 1.717 10.2584C2.37908 11.9114 3.52308 13.327 5.00032 14.3212C6.47755 15.3154 8.2197 15.8423 10.0003 15.8334C11.3492 15.8255 12.679 15.5151 13.892 14.925L16.3503 17.375C16.3877 17.4149 16.4329 17.4467 16.4831 17.4684C16.5333 17.4901 16.5873 17.5013 16.642 17.5013C16.6967 17.5013 16.7507 17.4901 16.8009 17.4684C16.8511 17.4467 16.8963 17.4149 16.9337 17.375L17.3753 16.9334C17.4152 16.896 17.447 16.8508 17.4687 16.8006C17.4904 16.7505 17.5016 16.6964 17.5016 16.6417C17.5016 16.587 17.4904 16.533 17.4687 16.4828C17.447 16.4326 17.4152 16.3875 17.3753 16.35L3.65033 2.62504ZM10.0003 14.1667C8.61854 14.1636 7.26561 13.771 6.09675 13.0341C4.92789 12.2971 3.99046 11.2455 3.392 10C3.94659 8.77346 4.85484 7.74043 6.00033 7.03338L7.80033 8.83338C7.57753 9.29989 7.50484 9.824 7.59226 10.3335C7.67968 10.8431 7.92292 11.313 8.28849 11.6786C8.65405 12.0441 9.12396 12.2874 9.6335 12.3748C10.143 12.4622 10.6672 12.3895 11.1337 12.1667L12.6003 13.6334C11.7723 13.9643 10.8918 14.1449 10.0003 14.1667ZM18.3337 9.75004C17.5101 7.70292 15.9573 6.03346 13.9752 5.06392C11.993 4.09438 9.72192 3.8935 7.60033 4.50004L9.00867 5.90838C9.33689 5.85872 9.66837 5.83365 10.0003 5.83338C11.3821 5.83649 12.7351 6.22905 13.9039 6.96604C15.0728 7.70302 16.0102 8.75457 16.6087 10C16.275 10.7802 15.781 11.4815 15.1587 12.0584L16.342 13.2417C17.2143 12.4199 17.8797 11.4033 18.2837 10.275C18.3193 10.1879 18.3364 10.0942 18.3337 10C18.3472 9.91726 18.3472 9.83283 18.3337 9.75004V9.75004Z" fill="#2A404F"/>
</svg>
