<svg width="16" height="16" viewBox="0 0 16 16" fill="none" xmlns="http://www.w3.org/2000/svg">
<g id="ico / 24 / other / hourglass_half">
<path id="Icon color" fill-rule="evenodd" clip-rule="evenodd" d="M12.0007 4.66683V2.66683H12.334C12.5181 2.66683 12.6673 2.51759 12.6673 2.3335V1.66683C12.6673 1.48273 12.5181 1.3335 12.334 1.3335H3.66732C3.48322 1.3335 3.33398 1.48273 3.33398 1.66683V2.3335C3.33398 2.51759 3.48322 2.66683 3.66732 2.66683H4.00065V4.66683C3.99367 5.28359 4.27164 5.86907 4.75398 6.2535L6.93398 8.00016L4.75398 9.74683C4.27164 10.1313 3.99367 10.7167 4.00065 11.3335V13.3335H3.66732C3.48322 13.3335 3.33398 13.4827 3.33398 13.6668V14.3335C3.33398 14.5176 3.48322 14.6668 3.66732 14.6668H12.334C12.5181 14.6668 12.6673 14.5176 12.6673 14.3335V13.6668C12.6673 13.4827 12.5181 13.3335 12.334 13.3335H12.0007V11.3335C11.9995 10.7261 11.7223 10.1521 11.2473 9.7735L9.06732 8.00016L11.2473 6.2535C11.7297 5.86907 12.0076 5.28359 12.0007 4.66683ZM10.6673 2.66683V4.66683H5.33398V2.66683H10.6673ZM10.6673 11.3335C10.6747 11.1213 10.5807 10.9183 10.414 10.7868L8.00065 8.85349L5.58732 10.8135C5.42816 10.9393 5.33492 11.1306 5.33398 11.3335V12.0002H10.6673V11.3335Z" fill="#FF7707"/>
</g>
</svg>
