<svg width="24" height="24" viewBox="0 0 24 24" fill="none" xmlns="http://www.w3.org/2000/svg">
<path d="M20.85 19.44L16.85 15.44C16.7204 15.3074 16.5762 15.19 16.42 15.09L15.42 14.4C16.4187 13.1643 16.9673 11.6256 16.9756 10.0369C16.984 8.4481 16.4516 6.90375 15.466 5.65762C14.4804 4.41149 13.1002 3.53771 11.5522 3.17988C10.0043 2.82206 8.38061 3.00148 6.94811 3.68866C5.51561 4.37583 4.3595 5.52988 3.66976 6.96115C2.98002 8.39241 2.79769 10.0157 3.15274 11.5644C3.50779 13.113 4.3791 14.4947 5.62347 15.4826C6.86783 16.4704 8.41123 17.0055 10 17C11.5881 17.0005 13.1291 16.4609 14.37 15.47L15.12 16.47C15.209 16.5988 15.3094 16.7193 15.42 16.83L19.42 20.83C19.4665 20.8769 19.5218 20.9141 19.5827 20.9394C19.6437 20.9648 19.709 20.9779 19.775 20.9779C19.841 20.9779 19.9064 20.9648 19.9673 20.9394C20.0282 20.9141 20.0835 20.8769 20.13 20.83L20.83 20.13C20.9214 20.0396 20.9745 19.9175 20.9782 19.789C20.9819 19.6605 20.936 19.5355 20.85 19.44ZM10 15C9.01111 15 8.04441 14.7068 7.22216 14.1574C6.39991 13.6079 5.75905 12.8271 5.38061 11.9134C5.00218 10.9998 4.90316 9.99446 5.09609 9.02455C5.28901 8.05465 5.76522 7.16373 6.46448 6.46447C7.16374 5.76521 8.05466 5.289 9.02456 5.09608C9.99447 4.90315 10.9998 5.00217 11.9134 5.38061C12.8271 5.75904 13.608 6.39991 14.1574 7.22215C14.7068 8.0444 15 9.0111 15 10C15 11.3261 14.4732 12.5979 13.5355 13.5355C12.5979 14.4732 11.3261 15 10 15Z" fill="#FF7707"/>
</svg>
