<svg width="20" height="20" viewBox="0 0 20 20" fill="none" xmlns="http://www.w3.org/2000/svg">
<path d="M17.5003 8.33341H15.8337V3.33341C16.2939 3.33341 16.667 2.96032 16.667 2.50008C16.667 2.03984 16.2939 1.66675 15.8337 1.66675H4.16699C3.70675 1.66675 3.33366 2.03984 3.33366 2.50008C3.33366 2.96032 3.70675 3.33341 4.16699 3.33341V8.33341H2.50033C2.27931 8.33341 2.06735 8.42121 1.91107 8.57749C1.75479 8.73377 1.66699 8.94573 1.66699 9.16675V16.6667H18.3337V9.16675C18.3337 8.94573 18.2459 8.73377 18.0896 8.57749C17.9333 8.42121 17.7213 8.33341 17.5003 8.33341ZM11.667 15.0001V11.6667H8.33366V15.0001H5.83366V3.33341H14.167V15.0001H11.667Z" fill="#2A404F"/>
<path d="M7.5 5H9.16667V6.66667H7.5V5ZM10.8333 5H12.5V6.66667H10.8333V5ZM7.5 8.33333H9.16667V10H7.5V8.33333ZM10.8333 8.33333H12.5V10H10.8333V8.33333Z" fill="#2A404F"/>
</svg>
