<svg width="16" height="16" viewBox="0 0 16 16" fill="none" xmlns="http://www.w3.org/2000/svg">
<path d="M1.46827 6.56917C1.35564 6.48716 1.30748 6.34269 1.34839 6.2095L1.40167 6.04298C1.44063 5.91138 1.55774 5.81821 1.69472 5.80985L5.9506 5.47016L7.58236 1.54701C7.63709 1.40958 7.77447 1.32337 7.92203 1.33387H8.09519C8.2343 1.33092 8.35998 1.41649 8.40822 1.54701L10.0466 5.47016L14.3025 5.80985C14.4395 5.81821 14.5566 5.91138 14.5956 6.04298L14.6489 6.2095C14.6942 6.33848 14.6543 6.48204 14.5489 6.56917L11.3387 9.3267L12.3244 13.463C12.3569 13.5954 12.3071 13.7344 12.1979 13.816L12.0047 13.9226C11.8921 13.9987 11.7444 13.9987 11.6318 13.9226L8.00861 11.7245L4.36547 13.9426C4.25281 14.0187 4.10516 14.0187 3.9925 13.9426L3.84597 13.8426C3.73678 13.761 3.68695 13.622 3.71943 13.4896L4.6785 9.3267L1.46827 6.56917Z" fill="#FF7707"/>
</svg>
