<svg width="14" height="14" viewBox="0 0 14 14" fill="none" xmlns="http://www.w3.org/2000/svg">
<path d="M7 0C3.15 0 0 3.15 0 7C0 10.85 3.15 14 7 14C10.85 14 14 10.85 14 7C14 3.15 10.85 0 7 0ZM7 11.375C6.475 11.375 6.125 11.025 6.125 10.5C6.125 9.975 6.475 9.625 7 9.625C7.525 9.625 7.875 9.975 7.875 10.5C7.875 11.025 7.525 11.375 7 11.375ZM8.3125 7.35C7.875 7.6125 7.875 7.7 7.875 7.875C7.875 8.35825 7.48325 8.75 7 8.75C6.51675 8.75 6.125 8.35825 6.125 7.875C6.125 6.7375 6.825 6.2125 7.35 5.8625C7.7875 5.6 7.875 5.5125 7.875 5.25C7.875 4.725 7.525 4.375 7 4.375C6.65 4.375 6.3875 4.55 6.2125 4.8125L6.20437 4.82713C5.96897 5.25086 5.43074 5.3975 5.01294 5.15173C4.60943 4.91437 4.46889 4.3985 4.69624 3.98928L4.725 3.9375C5.1625 3.15 6.0375 2.625 7 2.625C8.4875 2.625 9.625 3.7625 9.625 5.25C9.625 6.475 8.8375 7 8.3125 7.35Z" fill="#FF7707"/>
</svg>
