<svg width="24" height="24" viewBox="0 0 24 24" fill="none" xmlns="http://www.w3.org/2000/svg">
<path d="M20.8509 19.44L16.8509 15.44C16.7213 15.3073 16.577 15.1899 16.4209 15.09L15.4209 14.4C16.4195 13.1643 16.9681 11.6256 16.9765 10.0368C16.9848 8.44807 16.4525 6.90371 15.4669 5.65758C14.4813 4.41145 13.1011 3.53767 11.5531 3.17985C10.0051 2.82202 8.38146 3.00144 6.94897 3.68862C5.51647 4.37579 4.36035 5.52984 3.67061 6.96111C2.98087 8.39237 2.79855 10.0157 3.1536 11.5643C3.50865 13.1129 4.37995 14.4947 5.62432 15.4825C6.86869 16.4703 8.41208 17.0055 10.0009 17C11.5889 17.0004 13.1299 16.4609 14.3709 15.47L15.1209 16.47C15.2098 16.5987 15.3102 16.7192 15.4209 16.83L19.4209 20.83C19.4673 20.8768 19.5226 20.914 19.5836 20.9394C19.6445 20.9648 19.7099 20.9779 19.7759 20.9779C19.8419 20.9779 19.9072 20.9648 19.9682 20.9394C20.0291 20.914 20.0844 20.8768 20.1309 20.83L20.8309 20.13C20.9223 20.0396 20.9753 19.9175 20.979 19.789C20.9828 19.6605 20.9369 19.5355 20.8509 19.44ZM10.0009 15C9.01196 15 8.04526 14.7067 7.22302 14.1573C6.40077 13.6079 5.75991 12.827 5.38147 11.9134C5.00303 10.9998 4.90401 9.99442 5.09694 9.02451C5.28987 8.05461 5.76607 7.16369 6.46533 6.46443C7.1646 5.76517 8.05551 5.28896 9.02541 5.09604C9.99532 4.90311 11.0007 5.00213 11.9143 5.38057C12.8279 5.75901 13.6088 6.39987 14.1582 7.22211C14.7076 8.04436 15.0009 9.01106 15.0009 9.99996C15.0009 11.326 14.4741 12.5978 13.5364 13.5355C12.5987 14.4732 11.3269 15 10.0009 15Z" fill="#2A404F"/>
</svg>
