<svg width="96" height="96" viewBox="0 0 96 96" fill="none" xmlns="http://www.w3.org/2000/svg">
<path d="M48 75H85.5V81H48V75Z" fill="#FFB401"/>
<path d="M12 46.5H48V75H12V46.5Z" fill="#FFB401"/>
<rect x="16" y="51" width="28" height="20" fill="#FFFBF7"/>
<path d="M25.5 15H91.5V58.5H25.5V15Z" fill="#325873"/>
<path d="M4.5 75H55.5C55.5 76.5913 54.8679 78.1174 53.7426 79.2426C52.6174 80.3679 51.0913 81 49.5 81H10.5C8.9087 81 7.38258 80.3679 6.25736 79.2426C5.13214 78.1174 4.5 76.5913 4.5 75Z" fill="#325873"/>
<path d="M25.5 75L27 76.5H33L34.5 75H25.5Z" fill="#FFFBF7"/>
<path d="M79.5 58.5H85.5V75H79.5V58.5Z" fill="#FFB401"/>
<path d="M67.5 58.5H79.5V75H67.5V58.5Z" fill="#FFFBF7"/>
<path d="M25.5 15H91.5V24H25.5V15Z" fill="#FF7707"/>
<path d="M30 28.5H34.5V31.5H30V28.5Z" fill="#FFFBF7"/>
<path d="M39 28.5H49.5V31.5H39V28.5Z" fill="#FFFBF7"/>
<path d="M52.5 28.5H57V31.5H52.5V28.5Z" fill="#FFFBF7"/>
<path d="M30 36H34.5V39H30V36Z" fill="#FFFBF7"/>
<path d="M39 36H45V39H39V36Z" fill="#FFFBF7"/>
<path d="M48 36H57V39H48V36Z" fill="#FFFBF7"/>
<path d="M30 43.5H34.5V46.5H30V43.5Z" fill="#FFFBF7"/>
<path d="M39 43.5H57V46.5H39V43.5Z" fill="#FFFBF7"/>
<path d="M30 51H34.5V54H30V51Z" fill="#FFFBF7"/>
<path d="M39 51H45V54H39V51Z" fill="#FFFBF7"/>
<path d="M48 51H57V54H48V51Z" fill="#FFFBF7"/>
<path d="M66.4391 46.0608L61.9391 41.5608C61.7998 41.4215 61.6893 41.2562 61.6139 41.0742C61.5386 40.8922 61.4998 40.6971 61.4998 40.5001C61.4998 40.3032 61.5386 40.1081 61.6139 39.9261C61.6893 39.7441 61.7998 39.5787 61.9391 39.4395L66.4391 34.9395L68.5605 37.0608L65.121 40.5001L68.5605 43.9395L66.4391 46.0608Z" fill="#FFFBF7"/>
<path d="M80.5601 46.0608L78.4387 43.9395L81.8782 40.5001L78.4387 37.0608L80.5601 34.9395L85.0601 39.4395C85.1994 39.5787 85.3099 39.7441 85.3853 39.9261C85.4607 40.1081 85.4995 40.3032 85.4995 40.5001C85.4995 40.6971 85.4607 40.8922 85.3853 41.0742C85.3099 41.2562 85.1994 41.4215 85.0601 41.5608L80.5601 46.0608Z" fill="#FFFBF7"/>
<path d="M69.0759 48.9956L75.0712 30.994L77.9177 31.942L71.9224 49.9436L69.0759 48.9956Z" fill="#FFFBF7"/>
<path d="M30 21C30.8284 21 31.5 20.3284 31.5 19.5C31.5 18.6716 30.8284 18 30 18C29.1716 18 28.5 18.6716 28.5 19.5C28.5 20.3284 29.1716 21 30 21Z" fill="#FFFBF7"/>
<path d="M34.5 21C35.3284 21 36 20.3284 36 19.5C36 18.6716 35.3284 18 34.5 18C33.6716 18 33 18.6716 33 19.5C33 20.3284 33.6716 21 34.5 21Z" fill="#FFC431"/>
<path d="M39 21C39.8284 21 40.5 20.3284 40.5 19.5C40.5 18.6716 39.8284 18 39 18C38.1716 18 37.5 18.6716 37.5 19.5C37.5 20.3284 38.1716 21 39 21Z" fill="#FFFBF7"/>
<path d="M73.5 64.5C73.1022 64.5 72.7206 64.342 72.4393 64.0607C72.158 63.7794 72 63.3978 72 63V58.5H75V63C75 63.3978 74.842 63.7794 74.5607 64.0607C74.2794 64.342 73.8978 64.5 73.5 64.5Z" fill="#FFE9D6"/>
</svg>
