<svg width="20" height="20" viewBox="0 0 20 20" fill="none" xmlns="http://www.w3.org/2000/svg">
<path fill-rule="evenodd" clip-rule="evenodd" d="M10.0001 13.3346C9.88959 13.3346 9.78403 13.2889 9.70842 13.2083L4.88341 8.38333C4.80453 8.3051 4.76017 8.1986 4.76017 8.0875C4.76017 7.9764 4.80453 7.8699 4.88341 7.79167L5.05008 7.625C5.12848 7.54362 5.23709 7.49836 5.35008 7.5H7.50008V2.91667C7.50008 2.68655 7.68663 2.5 7.91675 2.5H12.0834C12.3135 2.5 12.5001 2.68655 12.5001 2.91667V7.5H14.6501C14.7631 7.49836 14.8717 7.54362 14.9501 7.625L15.1167 7.79167C15.1956 7.8699 15.24 7.9764 15.24 8.0875C15.24 8.1986 15.1956 8.3051 15.1167 8.38333L10.2917 13.2083C10.2161 13.2889 10.1106 13.3346 10.0001 13.3346ZM15.8334 16.25V15.4167C15.8334 15.1865 15.6469 15 15.4167 15H4.58341C4.3533 15 4.16675 15.1865 4.16675 15.4167V16.25C4.16675 16.4801 4.3533 16.6667 4.58341 16.6667H15.4167C15.6469 16.6667 15.8334 16.4801 15.8334 16.25Z" fill="white"/>
</svg>
