<svg width="16" height="16" viewBox="0 0 16 16" fill="none" xmlns="http://www.w3.org/2000/svg">
<path d="M6.83391 6.88437H8.8219C8.9236 6.32282 9.22251 5.83908 9.64567 5.48756C9.64744 5.48756 9.64965 5.48756 9.6523 5.48756C10.0047 5.47562 10.4641 5.38276 10.8997 5.06042C10.9532 5.02107 11.0049 4.97862 11.0549 4.93484C11.6792 4.38125 12.0219 3.46153 12.0683 2.19692C12.0794 1.86176 11.8189 1.57965 11.4847 1.56683C11.1194 1.54826 10.8674 1.81533 10.8546 2.15138C10.8174 3.10691 10.5884 3.77149 10.1887 4.07438C10.102 4.14115 10.0096 4.18669 9.9207 4.2172C9.91804 4.21809 9.91406 4.21853 9.91141 4.21941C9.64832 3.96826 9.28441 3.84578 9.03857 3.84578H7.53607H6.03402C5.48307 3.84578 5.04488 4.39893 5.03516 5.00603C5.9531 5.23021 6.665 5.97262 6.83391 6.88437Z" fill="#FF7707"/>
<path d="M7.53567 3.82547C8.33202 3.82547 8.97759 3.19297 8.97759 2.41273C8.97759 1.6325 8.33202 1 7.53567 1C6.73932 1 6.09375 1.6325 6.09375 2.41273C6.09375 3.19297 6.73932 3.82547 7.53567 3.82547Z" fill="#FF7707"/>
<path d="M7.34988 10.5269C7.34988 9.43078 6.87764 8.96783 6.22234 8.96783H6.18653H4.70304C5.52283 8.848 6.15115 8.15689 6.15115 7.31942C6.15115 6.3997 5.39062 5.65332 4.45012 5.65332C3.5114 5.65332 2.75042 6.3997 2.75042 7.31942C2.75042 8.15689 3.37874 8.84756 4.19897 8.96783H2.71505H2.67879C2.02261 8.96783 1.49023 9.67 1.49023 10.3956V12.6153H7.34988V10.5269Z" fill="#FF7707"/>
<path d="M9.44736 7.31946C9.44736 8.15694 10.0761 8.84761 10.895 8.96788H9.47123H9.3744C8.71778 8.96788 8.2168 9.67004 8.2168 10.3956V12.6153H14.0313V10.5283C14.0313 9.44498 13.5763 8.9891 12.9343 8.97805C12.925 8.97805 12.9259 8.96876 12.918 8.96876H11.3978C12.218 8.84893 12.8468 8.15782 12.8468 7.31991C12.8468 6.40019 12.0853 5.65381 11.1462 5.65381C10.2079 5.65337 9.44736 6.39975 9.44736 7.31946Z" fill="#FF7707"/>
<path d="M14.988 13.5679H1.01367V15.0001H14.988V13.5679Z" fill="#FF7707"/>
</svg>
