<svg width="24" height="24" viewBox="0 0 24 24" fill="none" xmlns="http://www.w3.org/2000/svg">
<path d="M8.4 4.5H5.25C4.65326 4.5 4.08097 4.73705 3.65901 5.15901C3.23705 5.58097 3 6.15326 3 6.75V14.25C3 14.8467 3.23705 15.419 3.65901 15.841C4.08097 16.2629 4.65326 16.5 5.25 16.5H7.5V20.847L12.468 16.5H18.75C19.2788 16.5 19.7907 16.3137 20.1959 15.9738C20.601 15.6339 20.8735 15.1622 20.9655 14.6415C21.5494 14.1648 22.0657 13.6107 22.5 12.9945V14.25C22.5 14.7425 22.403 15.2301 22.2145 15.6851C22.0261 16.14 21.7499 16.5534 21.4016 16.9017C21.0534 17.2499 20.64 17.5261 20.1851 17.7145C19.7301 17.903 19.2425 18 18.75 18H13.032L8.4375 22.02C8.22491 22.2059 7.96328 22.3265 7.68391 22.3676C7.40454 22.4087 7.11925 22.3685 6.86214 22.2517C6.60504 22.1349 6.38701 21.9466 6.23412 21.7092C6.08123 21.4718 5.99995 21.1954 6 20.913V18H5.25C4.25544 18 3.30161 17.6049 2.59835 16.9017C1.89509 16.1984 1.5 15.2446 1.5 14.25V6.75C1.5 5.75544 1.89509 4.80161 2.59835 4.09835C3.30161 3.39509 4.25544 3 5.25 3H9.3855C9.00351 3.46273 8.67306 3.9657 8.4 4.5ZM15.75 15C17.5402 15 19.2571 14.2888 20.523 13.023C21.7888 11.7571 22.5 10.0402 22.5 8.25C22.5 6.45979 21.7888 4.7429 20.523 3.47703C19.2571 2.21116 17.5402 1.5 15.75 1.5C13.9598 1.5 12.2429 2.21116 10.977 3.47703C9.71116 4.7429 9 6.45979 9 8.25C9 10.0402 9.71116 11.7571 10.977 13.023C12.2429 14.2888 13.9598 15 15.75 15ZM15 5.25C15 5.05109 15.079 4.86032 15.2197 4.71967C15.3603 4.57902 15.5511 4.5 15.75 4.5C15.9489 4.5 16.1397 4.57902 16.2803 4.71967C16.421 4.86032 16.5 5.05109 16.5 5.25V8.25C16.5 8.44891 16.421 8.63968 16.2803 8.78033C16.1397 8.92098 15.9489 9 15.75 9C15.5511 9 15.3603 8.92098 15.2197 8.78033C15.079 8.63968 15 8.44891 15 8.25V5.25ZM16.6875 11.25C16.6875 11.4986 16.5887 11.7371 16.4129 11.9129C16.2371 12.0887 15.9986 12.1875 15.75 12.1875C15.5014 12.1875 15.2629 12.0887 15.0871 11.9129C14.9113 11.7371 14.8125 11.4986 14.8125 11.25C14.8125 11.0014 14.9113 10.7629 15.0871 10.5871C15.2629 10.4113 15.5014 10.3125 15.75 10.3125C15.9986 10.3125 16.2371 10.4113 16.4129 10.5871C16.5887 10.7629 16.6875 11.0014 16.6875 11.25Z" fill="white"/>
</svg>
