<svg width="24" height="24" viewBox="0 0 24 24" fill="none" xmlns="http://www.w3.org/2000/svg">
<path fill-rule="evenodd" clip-rule="evenodd" d="M20.9983 7.66002V8.00002C20.9992 9.0661 20.5744 10.0884 19.8183 10.84L16.9983 13.67C16.4722 14.1911 15.6245 14.1911 15.0983 13.67L14.9983 13.56C14.8078 13.3656 14.8078 13.0544 14.9983 12.86L18.4383 9.42002C18.8054 9.03933 19.0067 8.52877 18.9983 8.00002V7.66002C18.9988 7.12697 18.7864 6.61581 18.4083 6.24002L17.7583 5.59002C17.3825 5.21198 16.8714 4.99959 16.3383 5.00002H15.9983C15.4653 4.99959 14.9541 5.21198 14.5783 5.59002L11.1383 9.00002C10.9439 9.19059 10.6328 9.19059 10.4383 9.00002L10.3283 8.89002C9.80722 8.36388 9.80722 7.51616 10.3283 6.99002L13.1583 4.15002C13.9148 3.40493 14.9366 2.99121 15.9983 3.00002H16.3383C17.3995 2.99918 18.4175 3.42006 19.1683 4.17002L19.8283 4.83002C20.5783 5.5808 20.9992 6.59883 20.9983 7.66002ZM8.65181 13.9397L13.9418 8.64973C14.0357 8.55507 14.1635 8.50183 14.2968 8.50183C14.4301 8.50183 14.5579 8.55507 14.6518 8.64973L15.3518 9.34973C15.4465 9.44361 15.4997 9.57141 15.4997 9.70473C15.4997 9.83805 15.4465 9.96585 15.3518 10.0597L10.0618 15.3497C9.96792 15.4444 9.84013 15.4976 9.70681 15.4976C9.57349 15.4976 9.44569 15.4444 9.35181 15.3497L8.65181 14.6497C8.55715 14.5558 8.50391 14.428 8.50391 14.2947C8.50391 14.1614 8.55715 14.0336 8.65181 13.9397ZM13.56 15C13.3656 14.8094 13.0544 14.8094 12.86 15L9.43 18.41C9.05177 18.7905 8.53651 19.0031 8 19H7.66C7.12696 19.0004 6.6158 18.7881 6.24 18.41L5.59 17.76C5.21196 17.3842 4.99958 16.8731 5 16.34V16C4.99958 15.467 5.21196 14.9558 5.59 14.58L9.01 11.14C9.20057 10.9456 9.20057 10.6344 9.01 10.44L8.9 10.33C8.37386 9.8089 7.52614 9.8089 7 10.33L4.18 13.16C3.42392 13.9116 2.99916 14.9339 3 16V16.35C3.00182 17.4077 3.4225 18.4217 4.17 19.17L4.83 19.83C5.58079 20.58 6.59882 21.0009 7.66 21H8C9.05345 21.0062 10.0668 20.5965 10.82 19.86L13.67 17.01C14.1911 16.4839 14.1911 15.6362 13.67 15.11L13.56 15Z" fill="#2A404F"/>
</svg>
