<svg width="24" height="24" viewBox="0 0 24 24" fill="none" xmlns="http://www.w3.org/2000/svg">
<path d="M7.86079 11.0601C7.76613 10.9662 7.71289 10.8384 7.71289 10.7051C7.71289 10.5717 7.76613 10.4439 7.86079 10.3501L8.06079 10.1501C8.15487 10.0524 8.2852 9.99809 8.42079 10.0001H15.5808C15.7164 9.99809 15.8467 10.0524 15.9408 10.1501L16.1408 10.3501C16.2354 10.4439 16.2887 10.5717 16.2887 10.7051C16.2887 10.8384 16.2354 10.9662 16.1408 11.0601L12.3508 14.8501C12.2601 14.9467 12.1334 15.0016 12.0008 15.0016C11.8682 15.0016 11.7415 14.9467 11.6508 14.8501L7.86079 11.0601Z" fill="#19252E"/>
</svg>
