<svg width="24" height="24" viewBox="0 0 24 24" fill="none" xmlns="http://www.w3.org/2000/svg">
<path fill-rule="evenodd" clip-rule="evenodd" d="M19.9025 3.43911L20.561 4.09778C20.8417 4.37825 20.9996 4.75875 21 5.15564V5.91412C21.005 6.31791 20.8466 6.7066 20.561 6.99194L18.7152 8.80828C18.6215 8.90274 18.494 8.95588 18.361 8.95588C18.228 8.95588 18.1005 8.90274 18.0068 8.80828L15.2032 5.96401C15.0131 5.76998 15.0131 5.45945 15.2032 5.26542L17.0091 3.43911C17.2944 3.15335 17.683 2.99499 18.0866 2.99999H18.8449C19.2417 3.00034 19.6221 3.15829 19.9025 3.43911ZM16.8195 10.6845C17.0096 10.4905 17.0096 10.1799 16.8195 9.9859L13.966 7.17158C13.8723 7.07711 13.7448 7.02398 13.6118 7.02398C13.4788 7.02398 13.3513 7.07711 13.2576 7.17158L5.20608 15.2253C5.01142 15.4183 4.85859 15.6493 4.75711 15.904L3.04105 20.2352C2.94383 20.4601 3.02415 20.7222 3.23061 20.854C3.37201 20.9952 3.58402 21.0384 3.76938 20.9638L8.09945 19.2073C8.35403 19.1058 8.58498 18.9529 8.7779 18.7582L16.8195 10.6845Z" fill="#FF7707"/>
</svg>
