<svg width="48" height="48" viewBox="0 0 48 48" fill="none" xmlns="http://www.w3.org/2000/svg">
<path d="M23.7522 1C16.5349 1 10.6637 6.86593 10.6637 14.0766V16.5222C10.6637 23.2455 15.871 29.5988 24.2478 29.5988C31.4651 29.5988 37.3363 23.7329 37.3363 16.5222V14.0766C37.3363 7.35338 32.129 1 23.7522 1ZM34.3659 16.5222C34.3659 22.096 29.8267 26.6311 24.2478 26.6311H23.7522C18.1733 26.6311 13.6341 22.096 13.6341 16.5222V14.5969C16.4706 14.8574 18.9028 14.0788 20.6778 12.6623C24.9495 14.9605 29.8059 15.6738 34.3659 14.8723V16.5222ZM20.4151 19.984C19.5949 19.984 18.9299 19.3197 18.9299 18.5001V18.0265C18.9299 17.2069 19.5949 16.5426 20.4151 16.5426C21.2353 16.5426 21.9003 17.2069 21.9003 18.0265V18.5001C21.9003 19.3197 21.2354 19.984 20.4151 19.984ZM27.5849 19.984C26.7647 19.984 26.0997 19.3197 26.0997 18.5001V18.0265C26.0997 17.2069 26.7647 16.5426 27.5849 16.5426C28.4051 16.5426 29.0702 17.2069 29.0702 18.0265V18.5001C29.0702 19.3197 28.4051 19.984 27.5849 19.984ZM21.4256 31.5025C21.5767 31.1815 21.9042 30.9803 22.2592 30.9803H25.7407C26.0966 30.9803 26.4241 31.1827 26.5754 31.5045C27.4422 33.3493 26.1292 35.5338 24.0172 35.5464C21.9236 35.5588 20.5433 33.3764 21.4256 31.5025ZM38 42.1711V45.5161C38 46.3357 37.3351 47 36.5148 47H11.4852C10.6649 47 10 46.3357 10 45.5161V42.1711C10 37.513 12.8635 33.5109 16.9241 31.8287C17.5317 31.577 18.1883 32.0348 18.1867 32.6921C18.1788 35.8996 20.7887 38.5141 24 38.5141C27.2084 38.5141 29.8212 35.9025 29.8133 32.692C29.8117 32.0347 30.4682 31.5769 31.0759 31.8286C35.1365 33.5109 38 37.513 38 42.1711Z" fill="#AAB3B9"/>
</svg>
