<svg width="96" height="96" viewBox="0 0 96 96" fill="none" xmlns="http://www.w3.org/2000/svg">
<g clip-path="url(#clip0_440_31654)">
<path d="M78.4586 40.8333H71.2919C69.3104 40.8333 67.7086 39.228 67.7086 37.25C67.7086 35.272 69.3104 33.6666 71.2919 33.6666H78.4586V21.125C78.4586 19.147 80.0604 17.5416 82.0419 17.5416C84.0235 17.5416 85.6253 19.147 85.6253 21.125V33.6666C85.6253 37.619 82.411 40.8333 78.4586 40.8333Z" fill="#FEEECD"/>
<path d="M82.0419 78.4583C80.0604 78.4583 78.4586 76.853 78.4586 74.875V62.3333H71.2919C69.3104 62.3333 67.7086 60.728 67.7086 58.75C67.7086 56.772 69.3104 55.1666 71.2919 55.1666H78.4586C82.411 55.1666 85.6253 58.3809 85.6253 62.3333V74.875C85.6253 76.853 84.0235 78.4583 82.0419 78.4583Z" fill="#FEEECD"/>
<path d="M24.7083 40.8333H17.5417C13.5893 40.8333 10.375 37.619 10.375 33.6666V21.125C10.375 19.147 11.9768 17.5416 13.9583 17.5416C15.9399 17.5416 17.5417 19.147 17.5417 21.125V33.6666H24.7083C26.6899 33.6666 28.2917 35.272 28.2917 37.25C28.2917 39.228 26.6899 40.8333 24.7083 40.8333Z" fill="#607D8B"/>
<path d="M13.9583 78.4583C11.9768 78.4583 10.375 76.853 10.375 74.875V62.3333C10.375 58.3809 13.5893 55.1666 17.5417 55.1666H24.7083C26.6899 55.1666 28.2917 56.772 28.2917 58.75C28.2917 60.728 26.6899 62.3333 24.7083 62.3333H17.5417V74.875C17.5417 76.853 15.9399 78.4583 13.9583 78.4583Z" fill="#607D8B"/>
<path d="M63.2289 73.0833H32.7705C27.3346 73.0833 22.9164 68.665 22.9164 63.2291V32.7708C22.9164 27.3349 27.3346 22.9166 32.7705 22.9166H63.2289C68.6648 22.9166 73.0831 27.3349 73.0831 32.7708V63.2291C73.0831 68.665 68.6648 73.0833 63.2289 73.0833Z" fill="#FFD99B"/>
<path d="M17.5417 22.1677C16.4452 22.6515 15.2304 22.9166 13.9583 22.9166C12.6862 22.9166 11.4715 22.6515 10.375 22.1677V33.6666C10.375 37.6191 13.5892 40.8333 17.5417 40.8333H22.9167V33.6666H17.5417V22.1677Z" fill="#FEEECD"/>
<path d="M22.9167 55.1666H17.5417C13.5892 55.1666 10.375 58.3808 10.375 62.3332V73.8321C11.4715 73.3484 12.6862 73.0832 13.9583 73.0832C15.2304 73.0832 16.4452 73.3484 17.5417 73.8321V62.3332H22.9167V55.1666Z" fill="#FEEECD"/>
<path d="M82.0419 22.9167C77.1005 22.9167 73.0836 18.8962 73.0836 13.9583C73.0836 9.0205 77.1005 5 82.0419 5C86.9834 5 91.0003 9.0205 91.0003 13.9583C91.0003 18.8962 86.9834 22.9167 82.0419 22.9167Z" fill="#FFD99B"/>
<path d="M82.0419 91.0001C77.1005 91.0001 73.0836 86.9796 73.0836 82.0418C73.0836 77.1039 77.1005 73.0834 82.0419 73.0834C86.9834 73.0834 91.0003 77.1039 91.0003 82.0418C91.0003 86.9796 86.9834 91.0001 82.0419 91.0001Z" fill="#FFD99B"/>
<path d="M13.9583 22.9167C9.01692 22.9167 5 18.8962 5 13.9583C5 9.0205 9.01692 5 13.9583 5C18.8997 5 22.9167 9.0205 22.9167 13.9583C22.9167 18.8962 18.8997 22.9167 13.9583 22.9167Z" fill="#FFD99B"/>
<path d="M13.9583 91.0001C9.01692 91.0001 5 86.9796 5 82.0418C5 77.1039 9.01692 73.0834 13.9583 73.0834C18.8997 73.0834 22.9167 77.1039 22.9167 82.0418C22.9167 86.9796 18.8997 91.0001 13.9583 91.0001Z" fill="#FFD99B"/>
<path d="M45.3122 58.75C43.8287 58.75 42.6247 57.546 42.6247 56.0625V44.4167C42.6247 43.4277 41.8185 42.625 40.833 42.625C39.8476 42.625 39.0414 43.4277 39.0414 44.4167V56.0625C39.0414 57.546 37.8374 58.75 36.3539 58.75C34.8704 58.75 33.6664 57.546 33.6664 56.0625V44.4167C33.6664 40.4642 36.8806 37.25 40.833 37.25C44.7855 37.25 47.9997 40.4642 47.9997 44.4167V56.0625C47.9997 57.546 46.7957 58.75 45.3122 58.75Z" fill="#FF7707"/>
<path d="M45.3122 53.375H36.3539C34.8704 53.375 33.6664 52.171 33.6664 50.6875C33.6664 49.204 34.8704 48 36.3539 48H45.3122C46.7957 48 47.9997 49.204 47.9997 50.6875C47.9997 52.171 46.7957 53.375 45.3122 53.375Z" fill="#FF7707"/>
<path d="M57.8539 58.75C56.3704 58.75 55.1664 57.546 55.1664 56.0625V39.9375C55.1664 38.454 56.3704 37.25 57.8539 37.25C59.3374 37.25 60.5414 38.454 60.5414 39.9375V56.0625C60.5414 57.546 59.3374 58.75 57.8539 58.75Z" fill="#FF7707"/>
</g>
<defs>
<clipPath id="clip0_440_31654">
<rect width="86" height="86" fill="white" transform="translate(5 5)"/>
</clipPath>
</defs>
</svg>
