<svg width="96" height="96" viewBox="0 0 96 96" fill="none" xmlns="http://www.w3.org/2000/svg">
<g clip-path="url(#clip0_440_20586)">
<path d="M96.001 39.2808C96.001 34.8625 92.4193 31.2808 88.001 31.2808H55.1268C51.0651 31.2808 47.648 34.3244 47.1801 38.3591L44.3549 62.7186C44.2839 63.331 44.2839 63.9495 44.3549 64.5619L47.1801 88.9214C47.648 92.9561 51.0651 95.9998 55.1268 95.9998H88.001C92.4193 95.9998 96.001 92.4181 96.001 87.9998V39.2808Z" fill="#FFE9D6"/>
<path d="M0 39.2808C0 34.8625 3.58172 31.2808 8 31.2808H40C44.4183 31.2808 48 34.8625 48 39.2808V87.9998C48 92.4181 44.4183 95.9998 40 95.9998H8C3.58172 95.9998 0 92.4181 0 87.9998V39.2808Z" fill="#FFE9D6"/>
<path d="M90 41C90 38.7909 88.2091 37 86 37H51.2174C49.2243 37 47.5354 38.4672 47.2567 40.4406L44.079 62.9406C44.0266 63.3117 44.0266 63.6883 44.079 64.0594L47.2567 86.5594C47.5354 88.5328 49.2243 90 51.2174 90H86C88.2091 90 90 88.2091 90 86V41Z" fill="#325873"/>
<path d="M6 41C6 38.7909 7.79086 37 10 37H44C46.2091 37 48 38.7909 48 41V86C48 88.2091 46.2091 90 44 90H10C7.79086 90 6 88.2091 6 86V41Z" fill="#325873"/>
<path d="M84.7466 29.6519C84.7466 27.4427 82.9557 25.6519 80.7466 25.6519H51.5251C49.5109 25.6519 47.8108 27.1496 47.557 29.1478L44.3121 54.6948C44.2696 55.0295 44.2696 55.3682 44.3121 55.7029L47.557 81.2501C47.8108 83.2483 49.5109 84.746 51.5251 84.746H80.7466C82.9557 84.746 84.7466 82.9552 84.7466 80.746V29.6519Z" fill="#FDD13C"/>
<path d="M11.2539 29.6519C11.2539 27.4427 13.0448 25.6519 15.2539 25.6519H43.9994C46.2085 25.6519 47.9994 27.4427 47.9994 29.6519V80.7461C47.9994 82.9552 46.2085 84.746 43.9994 84.746H15.2539C13.0448 84.746 11.2539 82.9552 11.2539 80.746V29.6519Z" fill="#FF7707"/>
<path d="M54 71H79V76H54V71Z" fill="white"/>
<path d="M54 59H79V64H54V59Z" fill="white"/>
<path d="M54 47H79V52H54V47Z" fill="white"/>
<path d="M54 35H79V40H54V35Z" fill="white"/>
<path d="M17 71H42V76H17V71Z" fill="white"/>
<path d="M17 59H42V64H17V59Z" fill="white"/>
<path d="M17 47H42V52H17V47Z" fill="white"/>
<path d="M17 35H42V40H17V35Z" fill="white"/>
<path d="M45.1875 0H50.8125V11.5688H45.1875V0Z" fill="#FFE9D6"/>
<path d="M27.1133 6.71826L31.9845 3.90576L37.7689 13.9243L32.8977 16.7368L27.1133 6.71826Z" fill="#FFE9D6"/>
<path d="M58.2305 13.9258L64.0148 3.90724L68.8861 6.71974L63.1017 16.7383L58.2305 13.9258Z" fill="#FFE9D6"/>
<rect x="39" y="90" width="18" height="6" fill="#FFE9D6"/>
<rect x="37" y="85" width="22" height="5" fill="#325873"/>
</g>
<defs>
<clipPath id="clip0_440_20586">
<rect width="96" height="96" fill="white"/>
</clipPath>
</defs>
</svg>
