<svg width="96" height="96" viewBox="0 0 96 96" fill="none" xmlns="http://www.w3.org/2000/svg">
<g clip-path="url(#clip0_440_20587)">
<rect x="15" y="55" width="56" height="35" rx="4" fill="#FF7707"/>
<path d="M89.3793 0H6.62069C2.96418 0 0 2.96418 0 6.62069V56.2759C0 59.9324 2.96418 62.8966 6.62069 62.8966H89.3793C93.0358 62.8966 96 59.9324 96 56.2759V6.62069C96 2.96418 93.0358 0 89.3793 0Z" fill="#FFE9D6"/>
<path d="M87.7246 74.4825H89.3798C90.2569 74.4799 91.0975 74.1303 91.7177 73.51C92.338 72.8898 92.6875 72.0493 92.6901 71.1721V56.2756C92.6903 54.754 92.3908 53.2473 91.8086 51.8415C91.2264 50.4357 90.373 49.1584 89.297 48.0824C88.2211 47.0065 86.9438 46.1531 85.538 45.5709C84.1322 44.9887 82.6255 44.6892 81.1039 44.6894H59.5867C58.4594 44.6901 57.3443 44.9226 56.3107 45.3725C55.2771 45.8224 54.3471 46.48 53.5784 47.3045C53.1652 47.5707 52.7966 47.9002 52.486 48.2811L45.435 56.9873L42.886 46.7914C42.6171 45.7177 41.997 44.7647 41.1243 44.0839C40.2516 43.4032 39.1763 43.0337 38.0694 43.0342C37.6622 43.0357 37.2566 43.0857 36.8612 43.1831C35.585 43.5057 34.4886 44.3208 33.8123 45.4501C33.136 46.5794 32.9348 47.9307 33.2529 49.208L38.2184 69.07C38.4448 69.9633 38.9141 70.7764 39.5744 71.4191C40.2347 72.0619 41.0601 72.5092 41.9591 72.7114C42.3123 72.79 42.6731 72.8288 43.035 72.8273C43.774 72.8276 44.5038 72.6628 45.1711 72.345C45.8383 72.0271 46.4261 71.5642 46.8915 70.99L51.3108 65.528V82.7583H87.7246V64.5514" fill="#325873"/>
<path d="M69.5165 67.8624C69.0775 67.8624 68.6565 67.688 68.3461 67.3776C68.0357 67.0672 67.8613 66.6462 67.8613 66.2072V54.621C67.8613 54.182 68.0357 53.761 68.3461 53.4506C68.6565 53.1402 69.0775 52.9658 69.5165 52.9658C69.9555 52.9658 70.3765 53.1402 70.6869 53.4506C70.9973 53.761 71.1717 54.182 71.1717 54.621V66.2072C71.1717 66.6462 70.9973 67.0672 70.6869 67.3776C70.3765 67.688 69.9555 67.8624 69.5165 67.8624Z" fill="white"/>
<path d="M64.5527 43.0342H74.4838V49.6549C74.4838 50.9718 73.9606 52.2348 73.0294 53.166C72.0982 54.0972 70.8352 54.6204 69.5183 54.6204C68.2013 54.6204 66.9383 54.0972 66.0071 53.166C65.0759 52.2348 64.5527 50.9718 64.5527 49.6549V43.0342Z" fill="#FFB8A4"/>
<path d="M64.5527 43.0342H74.4838V49.6549C74.4838 50.9718 73.9606 52.2348 73.0294 53.166C72.0982 54.0972 70.8352 54.6204 69.5183 54.6204C68.2013 54.6204 66.9383 54.0972 66.0071 53.166C65.0759 52.2348 64.5527 50.9718 64.5527 49.6549V43.0342Z" fill="white"/>
<path d="M64.5511 11.5864H74.4821C77.5549 11.5864 80.5019 12.8071 82.6748 14.9799C84.8476 17.1528 86.0683 20.0998 86.0683 23.1726V24.8278C86.0683 28.3396 84.6732 31.7076 82.19 34.1909C79.7067 36.6741 76.3387 38.0692 72.8269 38.0692H66.2062C62.6944 38.0692 59.3264 36.6741 56.8432 34.1909C54.3599 31.7076 52.9648 28.3396 52.9648 24.8278V23.1726C52.9648 20.0998 54.1855 17.1528 56.3584 14.9799C58.5312 12.8071 61.4782 11.5864 64.5511 11.5864Z" fill="#2A404F"/>
<path opacity="0.2" d="M74.4818 11.5864H64.5508C62.1339 11.5856 59.7779 12.345 57.8164 13.757C58.9255 13.4146 60.0797 13.2408 61.2405 13.2416H71.1715C74.2443 13.2416 77.1913 14.4623 79.3642 16.6351C81.537 18.808 82.7577 21.755 82.7577 24.8278V26.483C82.7584 28.6256 82.2384 30.7362 81.2424 32.6333C80.2464 34.5303 78.8043 36.1568 77.0402 37.3729C79.6694 36.4908 81.9551 34.8054 83.5749 32.5546C85.1948 30.3037 86.0668 27.6009 86.068 24.8278V23.1726C86.068 20.0998 84.8474 17.1528 82.6745 14.9799C80.5017 12.8071 77.5547 11.5864 74.4818 11.5864Z" fill="#2A404F"/>
<path d="M69.5168 18.207C69.5168 20.8409 68.4705 23.3669 66.608 25.2293C64.7456 27.0918 62.2196 28.1381 59.5857 28.1381H56.2754V34.7588C56.2754 38.2706 57.6705 41.6386 60.1537 44.1218C62.6369 46.6051 66.0049 48.0001 69.5168 48.0001C73.0286 48.0001 76.3966 46.6051 78.8798 44.1218C81.3631 41.6386 82.7582 38.2706 82.7582 34.7588V28.1381H79.4478C76.8139 28.1381 74.2879 27.0918 72.4255 25.2293C70.5631 23.3669 69.5168 20.8409 69.5168 18.207Z" fill="#FFE9D6"/>
<g opacity="0.1">
<path opacity="0.1" d="M79.4472 28.1376C76.8134 28.1376 74.2874 27.0913 72.4249 25.2288C70.5625 23.3664 69.5162 20.8404 69.5162 18.2065C69.5183 20.4693 68.7438 22.6643 67.3223 24.4249C68.1579 26.042 69.4222 27.3981 70.9769 28.3448C72.5315 29.2916 74.3166 29.7925 76.1369 29.7928H79.4472V36.4134C79.4479 38.556 78.9279 40.6667 77.9319 42.5637C76.9359 44.4607 75.4938 46.0873 73.7298 47.3033C76.3589 46.4213 78.6447 44.7359 80.2645 42.485C81.8843 40.2341 82.7563 37.5314 82.7576 34.7583V28.1376H79.4472Z" fill="#2A404F"/>
<path opacity="0.1" d="M59.5857 28.1375H56.2754V29.7927C58.447 29.7931 60.5582 29.0775 62.282 27.7568C61.405 28.0071 60.4977 28.1352 59.5857 28.1375Z" fill="#2A404F"/>
</g>
<path d="M69.518 43.0344C67.9852 43.0379 66.4818 42.6141 65.1764 41.8107C63.8711 41.0073 62.8154 39.856 62.128 38.486C62.0297 38.292 61.9706 38.0805 61.954 37.8637C61.9375 37.6468 61.9638 37.4289 62.0315 37.2222C62.0992 37.0155 62.2069 36.8242 62.3485 36.6591C62.4901 36.4941 62.6629 36.3586 62.8569 36.2603C63.0509 36.162 63.2624 36.1029 63.4792 36.0863C63.6961 36.0698 63.914 36.0961 64.1207 36.1638C64.3274 36.2315 64.5187 36.3392 64.6838 36.4808C64.8488 36.6225 64.9843 36.7952 65.0826 36.9892C65.4893 37.7984 66.1096 38.4808 66.8763 38.9628C67.643 39.4447 68.5269 39.7077 69.4324 39.7234C70.3379 39.739 71.2303 39.5067 72.0132 39.0515C72.7962 38.5964 73.4397 37.9358 73.8741 37.1412C73.9789 36.9508 74.1202 36.7829 74.29 36.6471C74.4597 36.5113 74.6546 36.4103 74.8633 36.3498C75.0721 36.2893 75.2908 36.2705 75.5068 36.2945C75.7228 36.3185 75.932 36.3848 76.1225 36.4897C76.3129 36.5946 76.4808 36.7359 76.6165 36.9056C76.7523 37.0754 76.8534 37.2702 76.9138 37.479C76.9743 37.6877 76.9931 37.9064 76.9691 38.1224C76.9451 38.3385 76.8788 38.5477 76.7739 38.7381C76.0594 40.0378 75.0093 41.1221 73.733 41.8777C72.4568 42.6334 71.0012 43.0329 69.518 43.0344Z" fill="white"/>
<path d="M51.3105 82.7588H87.7243V96.0002H51.3105V82.7588Z" fill="#FDD13C"/>
<path d="M49.6553 11.5857H19.8622C19.4232 11.5857 19.0022 11.4114 18.6918 11.1009C18.3814 10.7905 18.207 10.3695 18.207 9.93056C18.207 9.49158 18.3814 9.07058 18.6918 8.76018C19.0022 8.44977 19.4232 8.27539 19.8622 8.27539H49.6553C50.0943 8.27539 50.5153 8.44977 50.8257 8.76018C51.1361 9.07058 51.3105 9.49158 51.3105 9.93056C51.3105 10.3695 51.1361 10.7905 50.8257 11.1009C50.5153 11.4114 50.0943 11.5857 49.6553 11.5857Z" fill="white"/>
<path d="M13.1706 11.5862H8.27627C7.83729 11.5862 7.41629 11.4118 7.10588 11.1014C6.79548 10.791 6.62109 10.37 6.62109 9.93105C6.62109 9.49207 6.79548 9.07107 7.10588 8.76067C7.41629 8.45026 7.83729 8.27588 8.27627 8.27588H13.1706C13.6096 8.27588 14.0306 8.45026 14.341 8.76067C14.6514 9.07107 14.8258 9.49207 14.8258 9.93105C14.8258 10.37 14.6514 10.791 14.341 11.1014C14.0306 11.4118 13.6096 11.5862 13.1706 11.5862Z" fill="white"/>
<path d="M49.6556 19.8621H8.27627C7.83729 19.8621 7.41629 19.6877 7.10588 19.3773C6.79548 19.0669 6.62109 18.6459 6.62109 18.2069C6.62109 17.768 6.79548 17.347 7.10588 17.0365C7.41629 16.7261 7.83729 16.5518 8.27627 16.5518H49.6556C50.0946 16.5518 50.5156 16.7261 50.826 17.0365C51.1364 17.347 51.3107 17.768 51.3107 18.2069C51.3107 18.6459 51.1364 19.0669 50.826 19.3773C50.5156 19.6877 50.0946 19.8621 49.6556 19.8621Z" fill="white"/>
<path d="M44.691 28.138H39.7255C39.2865 28.138 38.8655 27.9636 38.5551 27.6532C38.2447 27.3428 38.0703 26.9218 38.0703 26.4828C38.0703 26.0438 38.2447 25.6228 38.5551 25.3124C38.8655 25.002 39.2865 24.8276 39.7255 24.8276H44.691C45.13 24.8276 45.551 25.002 45.8614 25.3124C46.1718 25.6228 46.3462 26.0438 46.3462 26.4828C46.3462 26.9218 46.1718 27.3428 45.8614 27.6532C45.551 27.9636 45.13 28.138 44.691 28.138Z" fill="white"/>
<path d="M23.1728 28.138H8.27627C7.83729 28.138 7.41629 27.9636 7.10588 27.6532C6.79548 27.3428 6.62109 26.9218 6.62109 26.4828C6.62109 26.0438 6.79548 25.6228 7.10588 25.3124C7.41629 25.002 7.83729 24.8276 8.27627 24.8276H23.1728C23.6118 24.8276 24.0328 25.002 24.3432 25.3124C24.6536 25.6228 24.828 26.0438 24.828 26.4828C24.828 26.9218 24.6536 27.3428 24.3432 27.6532C24.0328 27.9636 23.6118 28.138 23.1728 28.138Z" fill="white"/>
<path d="M43.0348 36.4143H38.0692C37.6303 36.4143 37.2093 36.24 36.8988 35.9296C36.5884 35.6192 36.4141 35.1982 36.4141 34.7592C36.4141 34.3202 36.5884 33.8992 36.8988 33.5888C37.2093 33.2784 37.6303 33.104 38.0692 33.104H43.0348C43.4737 33.104 43.8947 33.2784 44.2051 33.5888C44.5155 33.8992 44.6899 34.3202 44.6899 34.7592C44.6899 35.1982 44.5155 35.6192 44.2051 35.9296C43.8947 36.24 43.4737 36.4143 43.0348 36.4143Z" fill="white"/>
<path d="M28.1381 36.4143H19.8622C19.4232 36.4143 19.0022 36.24 18.6918 35.9296C18.3814 35.6192 18.207 35.1982 18.207 34.7592C18.207 34.3202 18.3814 33.8992 18.6918 33.5888C19.0022 33.2784 19.4232 33.104 19.8622 33.104H28.1381C28.577 33.104 28.998 33.2784 29.3084 33.5888C29.6189 33.8992 29.7932 34.3202 29.7932 34.7592C29.7932 35.1982 29.6189 35.6192 29.3084 35.9296C28.998 36.24 28.577 36.4143 28.1381 36.4143Z" fill="white"/>
<path d="M13.2429 36.4143H9.93252C9.49354 36.4143 9.07254 36.24 8.76213 35.9296C8.45173 35.6192 8.27734 35.1982 8.27734 34.7592C8.27734 34.3202 8.45173 33.8992 8.76213 33.5888C9.07254 33.2784 9.49354 33.104 9.93252 33.104H13.2429C13.6818 33.104 14.1028 33.2784 14.4132 33.5888C14.7236 33.8992 14.898 34.3202 14.898 34.7592C14.898 35.1982 14.7236 35.6192 14.4132 35.9296C14.1028 36.24 13.6818 36.4143 13.2429 36.4143Z" fill="white"/>
<path d="M29.7938 26.4824C31.9887 26.4824 34.0937 27.3543 35.6458 28.9064C37.1978 30.4584 38.0697 32.5634 38.0697 34.7583V43.0341H36.4145C34.2196 43.0341 32.1146 42.1622 30.5626 40.6102C29.0106 39.0582 28.1387 36.9532 28.1387 34.7583V28.1376C28.1387 27.6986 28.3131 27.2776 28.6235 26.9672C28.9339 26.6568 29.3549 26.4824 29.7938 26.4824Z" fill="white"/>
<path d="M74.4833 28.1382C74.0443 28.1382 73.6233 28.3126 73.3129 28.623C73.0025 28.9334 72.8281 29.3544 72.8281 29.7934V31.4485C72.8281 31.8875 73.0025 32.3085 73.3129 32.6189C73.6233 32.9293 74.0443 33.1037 74.4833 33.1037C74.9223 33.1037 75.3433 32.9293 75.6537 32.6189C75.9641 32.3085 76.1385 31.8875 76.1385 31.4485V29.7934C76.1385 29.3544 75.9641 28.9334 75.6537 28.623C75.3433 28.3126 74.9223 28.1382 74.4833 28.1382Z" fill="#2A404F"/>
<path d="M64.5517 28.1382C64.1127 28.1382 63.6917 28.3126 63.3813 28.623C63.0709 28.9334 62.8965 29.3544 62.8965 29.7934V31.4485C62.8965 31.8875 63.0709 32.3085 63.3813 32.6189C63.6917 32.9293 64.1127 33.1037 64.5517 33.1037C64.9906 33.1037 65.4116 32.9293 65.722 32.6189C66.0324 32.3085 66.2068 31.8875 66.2068 31.4485V29.7934C66.2068 29.3544 66.0324 28.9334 65.722 28.623C65.4116 28.3126 64.9906 28.1382 64.5517 28.1382Z" fill="#2A404F"/>
</g>
<defs>
<clipPath id="clip0_440_20587">
<rect width="96" height="96" fill="white"/>
</clipPath>
</defs>
</svg>
