<svg width="212" height="222" viewBox="0 0 212 222" fill="none" xmlns="http://www.w3.org/2000/svg">
<path d="M188.62 55.1711C188.316 55.1711 188.069 54.9265 188.065 54.6218C187.971 47.0166 189.876 37.9703 192.803 32.1129C192.941 31.8372 193.274 31.726 193.548 31.8639C193.821 32.0017 193.934 32.3353 193.797 32.6088C190.943 38.3217 189.085 47.1633 189.176 54.6062C189.18 54.9131 188.934 55.1644 188.627 55.1688C188.625 55.1711 188.623 55.1711 188.62 55.1711Z" fill="#2A404F"/>
<path d="M194.531 35.4734L197.248 30.8242L192.602 28.1054L189.884 32.7545L194.531 35.4734Z" fill="#FFE8D6"/>
<path d="M190.548 27.8252C190.815 28.8459 191.859 29.4575 192.881 29.1906C193.902 28.9238 194.513 27.8786 194.246 26.8557C193.979 25.835 192.935 25.2234 191.912 25.4903C190.892 25.7571 190.281 26.8023 190.548 27.8252Z" fill="#FFB401"/>
<path d="M192.881 36.7315C193.147 37.7522 194.192 38.3637 195.214 38.0969C196.234 37.83 196.846 36.7849 196.579 35.7619C196.312 34.7412 195.268 34.1297 194.245 34.3965C193.223 34.6656 192.612 35.7108 192.881 36.7315Z" fill="#FFB401"/>
<path d="M198.5 32.4748C199.52 32.208 200.131 31.1628 199.864 30.1399C199.597 29.1192 198.553 28.5076 197.531 28.7745C196.511 29.0413 195.899 30.0865 196.166 31.1094C196.433 32.1323 197.477 32.7439 198.5 32.4748Z" fill="#FFB401"/>
<path d="M189.805 34.7551C190.825 34.4882 191.437 33.4431 191.17 32.4201C190.903 31.3994 189.859 30.7879 188.836 31.0547C187.816 31.3216 187.205 32.3668 187.472 33.3897C187.741 34.4126 188.785 35.0219 189.805 34.7551Z" fill="#FFB401"/>
<path d="M177.178 43.9357C179.358 45.9149 181.95 46.6087 182.965 45.4879C183.981 44.3671 183.036 41.8543 180.856 39.8752C179.347 38.5075 177.156 38.2896 175.949 38.2852C175.453 38.2829 175.067 38.7099 175.116 39.2036C175.24 40.4066 175.669 42.5659 177.178 43.9357Z" fill="#FFB401"/>
<path d="M182.211 34.4565C181.945 34.4565 181.709 34.2631 181.664 33.9895C181.067 30.3137 180.318 26.878 179.438 23.7781C179.353 23.4823 179.524 23.1754 179.82 23.0909C180.115 23.0064 180.422 23.1776 180.507 23.4734C181.398 26.6133 182.156 30.0913 182.76 33.8116C182.809 34.1141 182.605 34.4009 182.3 34.4499C182.271 34.4543 182.24 34.4565 182.211 34.4565Z" fill="#2A404F"/>
<path d="M183.886 55.1702C183.884 55.1702 183.881 55.1702 183.879 55.1702C183.573 55.1657 183.326 54.9144 183.33 54.6075C183.33 54.5297 183.415 46.6999 182.143 37.2244C182.103 36.9198 182.317 36.6396 182.619 36.5996C182.926 36.5595 183.204 36.773 183.244 37.0754C184.528 46.6376 184.441 54.5431 184.441 54.6209C184.439 54.9278 184.19 55.1702 183.886 55.1702Z" fill="#2A404F"/>
<path d="M178.87 22.0634C179.785 21.6475 180.19 20.5668 179.774 19.6506C179.359 18.7344 178.278 18.3297 177.363 18.7455C176.447 19.1614 176.043 20.2421 176.458 21.1583C176.874 22.0745 177.954 22.4792 178.87 22.0634Z" fill="#1EAE9C"/>
<path d="M173.19 24.5827C174.655 27.8071 178.478 29.217 181.691 27.6982C184.758 26.2461 186.149 22.5791 184.816 19.4569C183.938 17.4 182.113 16.0546 180.078 15.6943L180.098 19.4703C180.102 20.3553 179.587 21.1626 178.782 21.5273C177.975 21.8942 177.031 21.7519 176.366 21.167L173.535 18.6675C172.49 20.402 172.29 22.6013 173.19 24.5827Z" fill="#FFE8D6"/>
<path d="M180.769 16.8508C181.445 16.5439 181.743 15.7478 181.436 15.074C181.129 14.398 180.334 14.1 179.66 14.4069C178.985 14.7138 178.687 15.5099 178.994 16.1837C179.3 16.8597 180.096 17.1577 180.769 16.8508Z" fill="#FFB401"/>
<path d="M173.929 19.9651C174.604 19.6582 174.902 18.8621 174.595 18.1883C174.289 17.5123 173.493 17.2143 172.82 17.5212C172.144 17.828 171.846 18.6241 172.153 19.2979C172.457 19.9717 173.253 20.2719 173.929 19.9651Z" fill="#FFB401"/>
<path d="M13.2673 175.553C11.8783 175.553 10.7471 174.421 10.7471 173.031V55.7659C10.7471 54.376 11.8783 53.2441 13.2673 53.2441H199.148C200.538 53.2441 201.669 54.376 201.669 55.7659V173.031C201.669 174.421 200.538 175.553 199.148 175.553H13.2673Z" fill="white"/>
<path d="M198.6 56.3164V172.479H13.8186V56.3164H198.6ZM199.149 50.1699H13.2675C10.1783 50.1699 7.67578 52.6761 7.67578 55.7649V173.03C7.67578 176.121 10.1805 178.625 13.2675 178.625H199.149C202.238 178.625 204.74 176.119 204.74 173.03V55.7649C204.742 52.6761 202.238 50.1699 199.149 50.1699Z" fill="#2A404F"/>
<path d="M31.8462 125.627C32.733 127.728 35.1555 128.711 37.2557 127.824C39.3559 126.936 40.3382 124.512 39.4515 122.411C38.5647 120.31 32.2641 117.196 32.2641 117.196C30.5039 118.646 30.9595 123.525 31.8462 125.627Z" fill="#FFB401"/>
<path d="M6.58063 134.231C7.19847 134.231 7.82742 134.093 8.42081 133.804L24.4402 125.981C26.5249 124.963 27.3916 122.445 26.3738 120.359C25.3559 118.274 22.8401 117.406 20.7554 118.425L4.73599 126.248C2.65134 127.266 1.78458 129.784 2.80246 131.87C3.5292 133.362 5.02491 134.231 6.58063 134.231Z" fill="#FFE8D6"/>
<path d="M24.4374 125.981L23.5862 126.397L16.3277 129.942L8.418 133.804C7.82461 134.093 7.19788 134.231 6.58003 134.231C5.02432 134.231 3.52861 133.362 2.80187 131.87C1.78399 129.784 2.64852 127.266 4.7354 126.248L20.7548 118.425C22.8417 117.406 25.3553 118.274 26.3732 120.359C27.3888 122.445 26.5243 124.963 24.4374 125.981Z" fill="#FFE8D6"/>
<path d="M23.5887 126.396L17.1414 129.545C15.259 124.21 19.8528 120.572 19.8528 120.572L23.5887 126.396Z" fill="#2A404F"/>
<path d="M6.174 205.767C6.84518 205.767 7.56525 205.685 8.32533 205.518C8.62536 205.454 8.81427 205.156 8.74982 204.856C8.68537 204.556 8.38978 204.366 8.08753 204.431C7.06743 204.653 6.13844 204.711 5.32947 204.598C4.55161 204.491 3.9071 203.726 3.88932 202.894C3.87821 202.421 4.14268 201.949 4.5605 201.694C4.76497 201.569 5.18057 201.398 5.65395 201.658C6.74295 202.252 7.65193 203.339 8.32311 204.222C8.50979 204.467 8.85872 204.513 9.10097 204.326C9.34543 204.14 9.39211 203.791 9.20542 203.548C8.46757 202.579 7.45635 201.376 6.18289 200.682C5.47837 200.299 4.67607 200.321 3.98044 200.744C3.22926 201.2 2.7581 202.054 2.77588 202.919C2.80477 204.298 3.86043 205.518 5.17612 205.701C5.49615 205.745 5.8273 205.767 6.174 205.767Z" fill="#2A404F"/>
<path d="M37.3991 200.205H44.2976L41.0773 160.982L27.3203 156.112L37.3991 200.205Z" fill="#FFE8D6"/>
<path d="M38.3598 143.399H16.6465L20.298 129.67L19.4379 126.784C18.6667 124.195 19.0045 121.38 20.4491 119.098C20.498 119.02 20.5491 118.943 20.6002 118.865C22.2248 116.445 24.7251 114.913 27.4987 114.913C29.7678 114.913 31.8503 115.936 33.4215 117.631C33.7438 117.977 34.046 118.355 34.3216 118.756C35.3951 120.31 36.1018 122.24 36.2796 124.375L38.3598 143.399Z" fill="#FFB401"/>
<path d="M12.9658 146.75C13.2503 143.034 14.326 139.511 17.6441 136.529C22.9291 138.951 27.8429 137.837 38.1973 136.08L39.8663 148.168L12.9658 146.75Z" fill="#2A404F"/>
<path d="M26.7853 138.122C30.4168 138.122 34.555 137.73 39.171 136.945C39.6489 136.863 39.9711 136.412 39.8889 135.931C39.8089 135.453 39.351 135.131 38.8777 135.213C30.4546 136.643 23.7183 136.743 18.8512 135.513C18.38 135.395 17.9044 135.68 17.7844 136.149C17.6666 136.621 17.9511 137.097 18.42 137.217C20.8069 137.819 23.6028 138.122 26.7853 138.122Z" fill="#FFE8D6"/>
<path d="M18.7984 197.195H8.2373L13.7956 153.513C13.4045 151.677 12.171 147.173 12.3866 145.917L29.5995 140.549L18.7984 197.195Z" fill="#2A404F"/>
<path d="M34.3747 198.066H46.1559L39.5886 146.079L22.4424 140.549L23.5092 148.385L23.2158 146.231L34.3747 198.066Z" fill="#2A404F"/>
<path d="M17.6353 146.839C16.5219 147.046 15.3151 146.604 14.4817 145.552L3.24277 133.692C1.58261 131.829 1.74707 128.974 3.60948 127.315C5.47189 125.654 8.32551 125.818 9.98346 127.682L19.3866 140.617C20.6579 142.216 20.589 144.618 19.2333 145.981C18.771 146.448 18.2154 146.733 17.6353 146.839Z" fill="#FFE8D6"/>
<path d="M12.7075 152.076C13.1209 152.076 13.5321 151.916 13.8432 151.596L19.166 146.125C19.7771 145.498 19.7616 144.495 19.1349 143.884C18.5081 143.272 17.5058 143.288 16.8946 143.915L11.5719 149.385C10.9607 150.012 10.9763 151.015 11.603 151.627C11.9119 151.927 12.3097 152.076 12.7075 152.076Z" fill="#FFE8D6"/>
<path d="M12.2997 148.945C12.8464 148.945 13.3798 148.66 13.6732 148.153L16.3757 143.474C16.8135 142.716 16.5535 141.747 15.7956 141.308C15.0378 140.87 14.0688 141.131 13.631 141.889L10.9285 146.568C10.4906 147.326 10.7507 148.296 11.5085 148.734C11.7574 148.876 12.0308 148.945 12.2997 148.945Z" fill="#FFE8D6"/>
<path d="M47.9784 205.767C48.3229 205.767 48.6563 205.745 48.9741 205.7C50.2898 205.518 51.3454 204.297 51.3743 202.919C51.3921 202.056 50.9209 201.202 50.1698 200.744C49.4741 200.319 48.6718 200.297 47.9673 200.681C46.6939 201.375 45.6849 202.578 44.9448 203.548C44.7581 203.792 44.807 204.142 45.0492 204.326C45.2937 204.513 45.6426 204.466 45.8271 204.222C46.4983 203.339 47.4095 202.251 48.4963 201.658C48.9696 201.4 49.3852 201.569 49.5897 201.693C50.0075 201.949 50.272 202.418 50.2609 202.894C50.2431 203.726 49.5964 204.491 48.8207 204.597C48.0118 204.709 47.0828 204.653 46.0627 204.431C45.7604 204.364 45.4671 204.555 45.4004 204.855C45.3359 205.156 45.5248 205.451 45.8249 205.518C46.5872 205.685 47.3072 205.767 47.9784 205.767Z" fill="#2A404F"/>
<path d="M53.8584 210.173L53.8361 211.44H41.586L40.4036 209.047L40.097 208.427C39.8591 207.947 39.1635 207.987 38.9835 208.491L37.9234 211.44H34.9453L35.1764 209.047L36.2321 198.066L44.9952 198.093L47.6911 203.902L53.0116 208.325C53.2538 208.527 53.4516 208.772 53.5939 209.045C53.7717 209.39 53.865 209.774 53.8584 210.173Z" fill="#FF7707"/>
<path d="M0.00228699 210.173L0.0245115 211.44H12.2746L13.457 209.047L13.7637 208.427C14.0015 207.947 14.6971 207.987 14.8771 208.491L15.9372 211.44H18.9153L18.6842 209.047L17.6285 198.066L8.86541 198.093L6.16958 203.902L0.851262 208.325C0.609015 208.527 0.411217 208.772 0.268981 209.045C0.0889625 209.39 -0.00438036 209.774 0.00228699 210.173Z" fill="#FF7707"/>
<path d="M8.45392 199.591H18.1127C18.9483 199.591 19.6262 198.913 19.6262 198.077C19.6262 197.241 18.9483 196.562 18.1127 196.562H8.45392C7.61828 196.562 6.94043 197.241 6.94043 198.077C6.94265 198.913 7.61828 199.591 8.45392 199.591Z" fill="#FFE8D6"/>
<path d="M45.7648 199.58C46.6004 199.58 47.2783 198.901 47.2783 198.065C47.2783 197.229 46.6004 196.551 45.7648 196.551H35.3748C34.5392 196.551 33.8613 197.229 33.8613 198.065C33.8613 198.901 34.5392 199.58 35.3748 199.58H45.7648Z" fill="#FFE8D6"/>
<path d="M28.3118 149.637C29.2075 149.637 30.052 149.31 30.7232 148.703C31.521 147.981 31.9878 146.909 32.0033 145.768L32.0122 145.114C32.0167 144.807 31.7722 144.554 31.4655 144.549C31.4633 144.549 31.4588 144.549 31.4566 144.549C31.1543 144.549 30.9054 144.792 30.901 145.096L30.8921 145.75C30.8788 146.597 30.5543 147.354 29.9764 147.881C29.4608 148.348 28.7941 148.577 28.0985 148.517C26.5428 148.388 25.296 146.909 25.3204 145.219L25.3649 142.226L26.2183 142.294C26.525 142.321 26.7917 142.092 26.8184 141.785C26.8428 141.478 26.6161 141.211 26.3094 141.185L24.8648 141.067C24.7137 141.056 24.5603 141.107 24.447 141.209C24.3337 141.314 24.267 141.458 24.2648 141.612L24.2114 145.199C24.1781 147.462 25.8805 149.448 28.0096 149.622C28.1096 149.633 28.2118 149.637 28.3118 149.637Z" fill="#FFE8D6"/>
<path d="M30.1609 106.823L30.152 108.593L30.1409 111.371L30.1364 112.325L30.1342 112.725V112.732L30.1297 113.608L30.1209 115.518C30.1142 117.144 28.7918 118.456 27.1672 118.447C25.5426 118.44 24.2336 117.115 24.2403 115.491L24.2514 113.052L24.2603 111.075L24.2758 107.839L24.2803 106.794C24.2803 106.536 24.3158 106.287 24.3781 106.049C24.6047 105.189 25.2137 104.486 26.0071 104.123C26.2716 104.003 26.5561 103.923 26.8539 103.886C26.9783 103.87 27.105 103.863 27.2317 103.863C28.8585 103.877 30.1675 105.198 30.1609 106.823Z" fill="#FFE8D6"/>
<path d="M30.1611 106.823L30.1522 108.593L30.1411 111.37L30.1366 112.324L30.1344 112.724V112.731L30.13 113.607C28.0275 113.387 26.1118 112.048 25.2539 109.954L24.9872 109.304C24.845 108.96 24.7472 108.606 24.6894 108.252C24.4427 106.736 24.9494 105.199 26.0096 104.127C26.274 104.007 26.5585 103.927 26.8563 103.889C26.9808 103.874 27.1074 103.867 27.2341 103.867C28.8587 103.876 30.1678 105.197 30.1611 106.823Z" fill="#2A404F"/>
<path d="M31.8593 111.822C33.7128 111.062 34.5996 108.943 33.8395 107.088L32.6994 104.304C31.6971 101.86 28.9057 100.69 26.4632 101.693C24.0207 102.696 22.8517 105.489 23.854 107.933L24.1207 108.582C25.3631 111.616 28.8279 113.065 31.8593 111.822Z" fill="#FFE8D6"/>
<path d="M32.5101 104.367C33.2079 105.526 33.9169 106.602 34.697 107.167C34.9081 107.32 34.9925 107.605 34.8592 107.83C34.777 107.97 34.6258 108.07 34.4369 108.076L32.3545 108.13L32.5101 104.367Z" fill="#FFE8D6"/>
<path d="M27.2715 108.475C27.2715 108.475 25.7091 105.302 27.8605 105.193C32.9588 104.94 33.2966 102.647 33.2966 102.647C33.3188 102.631 32.6832 101.884 32.6476 101.844C32.1053 101.255 31.4853 100.73 30.7919 100.328C28.2116 98.8287 24.8002 99.7316 22.8644 101.873C20.7175 104.248 21.1842 106.581 22.1555 108.177C22.9689 109.514 24.7179 109.934 26.0781 109.16L27.2715 108.475Z" fill="#2A404F"/>
<path d="M23.0401 99.958C23.2068 99.3909 23.4491 98.8461 23.5491 98.2657C23.7269 97.2272 23.4068 96.1176 22.7046 95.3326C22.0023 94.5476 20.9333 94.1073 19.8843 94.1696C18.3241 94.2607 17.0284 95.3548 15.8594 96.3955C14.9349 95.2058 13.6659 94.2518 12.2102 93.8582C10.0322 93.2689 6.44735 94.2185 6.71182 97.0649C6.80071 98.0322 7.3541 98.9106 8.0764 99.5599C8.30087 99.7623 8.552 99.9602 8.65424 100.245C8.79425 100.634 8.6009 101.074 8.31642 101.375C8.02973 101.675 7.6608 101.875 7.3341 102.128C6.40956 102.844 5.84951 104.012 5.87173 105.182C5.89396 106.351 6.49402 107.499 7.443 108.181C7.94528 108.542 8.54534 108.782 8.92315 109.284C10.0566 110.79 9.581 112.951 10.9434 114.401C11.8679 115.384 13.3614 115.696 14.6837 115.415C16.0039 115.135 17.1662 114.341 18.133 113.398C19.1798 112.378 20.0732 111.07 20.1221 109.607C20.1643 108.342 19.5198 107.076 18.4708 106.367C17.9018 105.982 17.144 105.635 17.0751 104.95C17.0151 104.352 17.5907 103.838 18.1863 103.754C18.7819 103.669 19.3731 103.896 19.9243 104.136C21.4955 104.826 23.0135 105.677 24.6803 106.084C24.547 106.131 24.4114 106.178 24.278 106.225C24.4136 106.68 25.1092 106.747 25.4515 106.416C25.7938 106.084 25.8338 105.546 25.7426 105.079C25.6204 104.461 25.3004 103.885 24.8426 103.454C24.2492 102.898 23.4157 102.555 23.0557 101.826C22.7846 101.274 22.8512 100.616 23.0179 100.027C23.0268 100.005 23.0335 99.9825 23.0401 99.958Z" fill="#2A404F"/>
<path d="M24.1087 107.594C24.3087 108.824 25.4666 109.66 26.6978 109.46C27.9268 109.259 28.7625 108.101 28.5625 106.869C28.3624 105.639 27.2046 104.803 25.9733 105.003C24.7443 105.203 23.9087 106.364 24.1087 107.594Z" fill="#FFE8D6"/>
<path d="M21.0822 105.373C21.2667 105.373 21.4445 105.282 21.5511 105.115L23.6025 101.89C23.7669 101.632 23.6914 101.288 23.4313 101.123C23.1735 100.959 22.829 101.034 22.6646 101.294L20.6133 104.519C20.4488 104.779 20.5244 105.121 20.7844 105.286C20.8777 105.346 20.98 105.373 21.0822 105.373Z" fill="white"/>
<path d="M27.05 166.032C27.0812 166.032 27.1123 166.03 27.1456 166.023C27.4479 165.972 27.6501 165.683 27.599 165.381L25.1632 151.215C25.141 151.093 25.0787 150.98 24.9876 150.895L22.5429 148.698C22.314 148.493 21.9629 148.511 21.7584 148.74C21.5539 148.969 21.5717 149.321 21.8006 149.525L24.1031 151.593L26.5055 165.567C26.5478 165.843 26.7833 166.032 27.05 166.032Z" fill="white"/>
<path d="M21.1822 139.473C21.2399 139.473 21.2977 139.465 21.3555 139.447C21.6467 139.351 21.8067 139.038 21.7111 138.746C21.3888 137.761 21.5355 136.974 22.1711 136.271C22.3756 136.042 22.3578 135.691 22.1311 135.486C21.9022 135.282 21.5511 135.299 21.3466 135.526C20.4443 136.529 20.2109 137.728 20.6554 139.091C20.731 139.324 20.9466 139.473 21.1822 139.473Z" fill="#2A404F"/>
<path d="M31.7213 139.588C31.9013 139.588 32.0791 139.499 32.1857 139.337C32.928 138.209 32.9747 136.988 32.3302 135.707C32.1924 135.434 31.859 135.323 31.5835 135.461C31.3101 135.598 31.199 135.934 31.3368 136.208C31.8035 137.133 31.7768 137.931 31.2568 138.725C31.0879 138.981 31.159 139.325 31.4146 139.494C31.5101 139.557 31.6168 139.588 31.7213 139.588Z" fill="#2A404F"/>
<path d="M31.0474 114.158H23.2266V118.448H31.0474V114.158Z" fill="#FFB401"/>
<path d="M57.0572 132.458C57.1572 132.458 57.2594 132.431 57.3527 132.373C58.1306 131.886 58.5862 131.015 58.6373 129.92C58.684 128.902 58.3684 127.797 57.7483 126.807C56.406 124.666 54.1302 123.758 52.5678 124.739C52.3078 124.901 52.23 125.246 52.3922 125.506C52.5545 125.766 52.899 125.844 53.159 125.682C54.1591 125.055 55.8304 125.84 56.8082 127.399C57.3083 128.197 57.5639 129.075 57.5283 129.869C57.495 130.588 57.2238 131.143 56.7638 131.433C56.5038 131.595 56.426 131.94 56.5882 132.2C56.6905 132.367 56.8727 132.458 57.0572 132.458Z" fill="#2A404F"/>
<path d="M39.867 140.931C40.4937 140.931 41.1294 140.791 41.7294 140.493C43.8096 139.463 44.6608 136.939 43.6296 134.86L35.751 118.942C34.722 116.861 32.1996 116.009 30.1216 117.041C28.0414 118.071 27.1902 120.595 28.2214 122.674L36.1 138.591C36.8334 140.072 38.3202 140.931 39.867 140.931Z" fill="#FFE8D6"/>
<path d="M61.3171 127.03C61.3171 128.164 60.6615 129.269 59.4747 129.899L42.8197 140.995C40.6861 142.287 37.9103 141.605 36.619 139.47C35.3278 137.335 36.0101 134.558 38.1436 133.266L55.521 124.17C57.3256 123.212 59.6725 123.719 60.7637 125.3C61.1393 125.84 61.3171 126.439 61.3171 127.03Z" fill="#FFE8D6"/>
<path d="M55.3316 127.953C55.7161 127.953 56.1028 127.813 56.4073 127.531L62.8146 121.591C63.4569 120.995 63.4947 119.992 62.9013 119.352C62.3079 118.709 61.3033 118.671 60.6633 119.265L54.2559 125.205C53.6137 125.801 53.5759 126.804 54.1693 127.444C54.4804 127.782 54.9071 127.953 55.3316 127.953Z" fill="#FFE8D6"/>
<path d="M57.0401 128.166C57.3446 128.166 57.6535 128.078 57.9269 127.893L62.2051 124.998C62.9296 124.506 63.1208 123.521 62.6296 122.796C62.1384 122.071 61.1539 121.88 60.4294 122.371L56.1512 125.267C55.4266 125.758 55.2355 126.743 55.7267 127.468C56.0334 127.922 56.5312 128.166 57.0401 128.166Z" fill="#FFE8D6"/>
<path d="M59.1835 129.829C59.5191 129.829 59.8547 129.723 60.1414 129.505L63.1017 127.25C63.7973 126.718 63.9329 125.724 63.4017 125.028C62.8705 124.332 61.8771 124.196 61.1815 124.728L58.2212 126.983C57.5255 127.514 57.39 128.508 57.9211 129.204C58.2345 129.614 58.7057 129.829 59.1835 129.829Z" fill="#FFE8D6"/>
<path d="M54.7012 127.566C55.5101 127.566 56.2013 126.948 56.2769 126.125L56.5369 123.265C56.6169 122.394 55.9746 121.622 55.1034 121.542C54.2278 121.462 53.461 122.105 53.381 122.976L53.121 125.836C53.041 126.708 53.6833 127.479 54.5545 127.559C54.6034 127.564 54.6523 127.566 54.7012 127.566Z" fill="#FFE8D6"/>
<path d="M55.9473 132.767C56.4452 132.767 56.9252 132.64 57.3497 132.373C57.6097 132.211 57.6875 131.866 57.5253 131.606C57.363 131.346 57.0186 131.268 56.7585 131.431C55.7584 132.058 54.0871 131.273 53.1093 129.714C52.6092 128.915 52.3536 128.037 52.3892 127.243C52.4225 126.525 52.6937 125.969 53.1537 125.68C53.4137 125.518 53.4915 125.173 53.3293 124.913C53.167 124.653 52.8226 124.575 52.5625 124.737C51.7847 125.226 51.3291 126.096 51.278 127.192C51.2313 128.211 51.5469 129.316 52.1669 130.305C53.147 131.862 54.6161 132.767 55.9473 132.767Z" fill="#2A404F"/>
<path d="M53.1649 129.036C52.9382 129.743 52.1804 130.133 51.4736 129.906C50.7669 129.679 50.378 128.921 50.6046 128.213C50.8313 127.506 51.5892 127.117 52.2959 127.344C53.0027 127.571 53.3916 128.329 53.1649 129.036Z" fill="white"/>
<path d="M54.4012 130.846C54.1745 131.553 53.4167 131.942 52.7099 131.715C52.0032 131.488 51.6143 130.73 51.841 130.023C52.0677 129.316 52.8255 128.927 53.5323 129.154C54.2412 129.383 54.6279 130.139 54.4012 130.846Z" fill="white"/>
<path d="M39.7174 132.761C39.8063 132.761 39.8974 132.738 39.9796 132.694L42.0421 131.582C42.3132 131.437 42.4132 131.099 42.2687 130.828C42.1221 130.557 41.7865 130.457 41.5153 130.601L39.4529 131.713C39.1818 131.858 39.0817 132.196 39.2262 132.467C39.3284 132.656 39.5196 132.761 39.7174 132.761Z" fill="#2A404F"/>
<path d="M143.077 187.427C142.933 187.427 142.793 187.358 142.706 187.229L136.272 177.567C136.143 177.373 136.185 177.115 136.365 176.971L148.313 167.486C148.507 167.333 148.784 167.366 148.938 167.557C149.091 167.751 149.058 168.029 148.867 168.182L137.241 177.411L143.448 186.733C143.584 186.937 143.528 187.213 143.326 187.349C143.248 187.402 143.162 187.427 143.077 187.427Z" fill="#2A404F"/>
<path d="M111.799 213.685C111.713 213.685 111.624 213.658 111.546 213.605C111.344 213.465 111.293 213.189 111.433 212.987L136.039 177.411L124.283 168.185C124.089 168.034 124.056 167.753 124.207 167.56C124.358 167.366 124.638 167.333 124.832 167.484L136.917 176.969C137.102 177.113 137.142 177.378 137.008 177.571L112.164 213.494C112.077 213.618 111.939 213.685 111.799 213.685Z" fill="#2A404F"/>
<path d="M94.1936 167.487H139.94V164.383H94.1936V167.487Z" fill="#2A404F"/>
<path d="M124.993 162.399H94.1678C93.9789 162.399 93.81 162.279 93.7477 162.101L85.9914 139.715C85.9447 139.579 85.9647 139.428 86.0492 139.31C86.1336 139.192 86.267 139.123 86.4114 139.123H117.237C117.426 139.123 117.595 139.243 117.657 139.421L125.413 161.808C125.46 161.943 125.44 162.094 125.355 162.212C125.271 162.33 125.138 162.399 124.993 162.399ZM94.4834 161.51H124.366L116.919 140.013H87.0359L94.4834 161.51Z" fill="#2A404F"/>
<path d="M98.496 157.754H117.749L112.906 143.771H93.6533L98.496 157.754Z" fill="white"/>
<path d="M173.328 194.591C173.17 194.591 173.019 194.508 172.939 194.359C172.821 194.144 172.899 193.875 173.114 193.755L180.306 189.803C180.522 189.685 180.791 189.763 180.911 189.979C181.028 190.194 180.951 190.463 180.735 190.584L173.543 194.535C173.472 194.573 173.399 194.591 173.328 194.591Z" fill="#1EAE9C"/>
<path d="M184.29 211.885C184.079 211.885 183.892 211.734 183.852 211.518L179.183 185.322C179.14 185.08 179.3 184.848 179.543 184.806C179.787 184.762 180.016 184.924 180.058 185.166L184.728 211.362C184.77 211.605 184.61 211.836 184.367 211.878C184.343 211.883 184.316 211.885 184.29 211.885Z" fill="#1EAE9C"/>
<path d="M169.788 211.834C169.759 211.834 169.73 211.832 169.702 211.825C169.462 211.776 169.304 211.543 169.353 211.302L174.555 185.207C174.604 184.966 174.835 184.809 175.078 184.858C175.318 184.906 175.476 185.14 175.427 185.38L170.224 211.476C170.182 211.687 169.995 211.834 169.788 211.834Z" fill="#1EAE9C"/>
<path d="M203.964 211.885C203.753 211.885 203.566 211.734 203.526 211.518L197.654 178.566C197.612 178.324 197.772 178.093 198.014 178.05C198.259 178.006 198.488 178.168 198.53 178.411L204.402 211.362C204.444 211.605 204.284 211.836 204.042 211.878C204.015 211.883 203.988 211.885 203.964 211.885Z" fill="#1EAE9C"/>
<path d="M189.548 211.834C189.519 211.834 189.49 211.832 189.461 211.825C189.221 211.776 189.064 211.543 189.112 211.302L194.315 185.207C194.364 184.966 194.595 184.809 194.837 184.858C195.077 184.906 195.235 185.14 195.186 185.38L189.984 211.476C189.941 211.687 189.757 211.834 189.548 211.834Z" fill="#1EAE9C"/>
<path d="M200.235 186.143C197.857 187.648 195.064 188.489 192.148 188.489H168.214C167.036 188.489 166.083 187.535 166.083 186.356C166.083 185.767 166.321 185.235 166.708 184.849C167.092 184.464 167.628 184.224 168.214 184.224H198.115C199.22 184.224 200.129 185.066 200.235 186.143Z" fill="#2A404F"/>
<path d="M205.465 180.555C204.203 182.876 202.389 184.782 200.236 186.143C197.858 187.648 195.064 188.489 192.148 188.489C187.888 188.489 184.243 186.821 181.592 184.226C176.584 179.321 177.416 171.724 182.092 165.164C188.577 156.06 196.424 150.696 205.994 153.12C216.864 155.871 210.659 170.997 205.465 180.555Z" fill="#2A404F"/>
<path d="M192.985 194.591C192.827 194.591 192.676 194.508 192.596 194.359C192.478 194.144 192.556 193.875 192.771 193.755L199.963 189.803C200.179 189.685 200.448 189.763 200.568 189.979C200.686 190.194 200.608 190.463 200.392 190.584L193.2 194.535C193.132 194.573 193.058 194.591 192.985 194.591Z" fill="#1EAE9C"/>
<path d="M172.982 201.518C173.493 202.543 173.071 203.786 172.042 204.289L171.179 204.709L166.886 206.804L159.412 210.424L158.485 208.565L158.467 208.527C157.794 207.144 157.927 205.499 158.82 204.242L159.916 202.699L161.77 200.09L161.201 195.329L161.167 195.038L161.27 195.274L161.781 195.058L168.366 192.27L169.519 194.58L172.028 199.608L172.982 201.518Z" fill="#2A404F"/>
<path d="M142.525 204.758C142.063 205.805 140.834 206.272 139.794 205.798L138.92 205.4L134.571 203.426L127.021 199.97L127.862 198.071L127.879 198.033C128.515 196.632 129.868 195.687 131.404 195.576L133.291 195.438L136.48 195.204L139.785 191.733L139.987 191.52L139.869 191.749L140.361 192.004L146.706 195.304L145.661 197.666L143.388 202.805L142.525 204.758Z" fill="#2A404F"/>
<path d="M157.814 163.701C156.951 163.701 156.087 163.452 155.329 162.947L133.802 148.58C131.744 147.205 131.189 144.421 132.56 142.362C133.933 140.303 136.716 139.747 138.774 141.119L157.327 153.501L161.536 149.509C163.332 147.806 166.168 147.884 167.87 149.68C169.572 151.477 169.495 154.315 167.699 156.018L160.894 162.467C160.04 163.283 158.929 163.701 157.814 163.701Z" fill="#FFE8D6"/>
<path d="M164.318 145.536L160.526 149.13L166.689 155.639L170.481 152.046L164.318 145.536Z" fill="#2A404F"/>
<path d="M167.226 157.572C166.85 157.572 166.474 157.425 166.192 157.134L159.749 150.451C159.2 149.88 159.216 148.973 159.785 148.423C160.356 147.872 161.263 147.89 161.812 148.459L168.255 155.141C168.804 155.713 168.788 156.62 168.219 157.169C167.943 157.438 167.583 157.572 167.226 157.572Z" fill="#2A404F"/>
<path d="M167.4 153.271C166.213 153.271 165.026 152.802 164.146 151.87C162.443 150.073 162.521 147.236 164.317 145.533L167.257 142.746C169.053 141.043 171.889 141.121 173.591 142.917C175.294 144.714 175.216 147.552 173.42 149.255L170.48 152.042C169.613 152.864 168.506 153.271 167.4 153.271Z" fill="#2A404F"/>
<path d="M194.07 177.156L169.392 165.039L166.201 147.122C165.603 143.768 168.181 140.688 171.586 140.688H190.37C193.775 140.688 196.353 143.768 195.755 147.122L194.07 177.156Z" fill="#2A404F"/>
<path d="M181.452 143.247C179.941 143.441 178.561 142.374 178.367 140.864L178.114 138.902L177.985 137.893L177.54 134.424L177.329 132.776C177.136 131.264 178.203 129.883 179.712 129.689C179.83 129.674 179.947 129.667 180.067 129.667C181.199 129.667 182.205 130.363 182.621 131.393C182.708 131.606 182.768 131.833 182.799 132.075L183.114 134.544L183.545 137.893L183.837 140.161C184.028 141.671 182.961 143.054 181.452 143.247Z" fill="#FFE8D6"/>
<path d="M182.236 134.595C181.716 136.988 180.552 138.713 178.114 138.902L177.985 137.893L177.54 134.424L177.329 132.776C177.136 131.264 178.203 129.883 179.712 129.689C179.83 129.674 179.947 129.667 180.067 129.667C181.199 129.667 182.205 130.363 182.621 131.393C182.708 131.606 182.768 131.833 182.799 132.075L182.236 134.595Z" fill="#2A404F"/>
<path d="M174.826 136.091C173.344 134.935 173.08 132.798 174.235 131.314L175.969 129.088C177.491 127.136 180.307 126.787 182.258 128.308C184.21 129.831 184.558 132.649 183.038 134.601L182.634 135.122C180.745 137.548 177.249 137.981 174.826 136.091Z" fill="#FFE8D6"/>
<path d="M175.413 130.087L172.642 132.166C172.328 132.402 172.419 132.896 172.797 133.002L174.677 133.536L175.413 130.087Z" fill="#FFE8D6"/>
<path d="M180.11 126.942C179.462 128.339 177.806 128.948 176.408 128.299C175.01 127.649 174.403 125.993 175.052 124.594C175.701 123.198 177.357 122.588 178.755 123.238C180.15 123.885 180.757 125.544 180.11 126.942Z" fill="#2A404F"/>
<path d="M182.783 128.137C182.325 129.124 181.151 129.556 180.165 129.095C179.178 128.637 178.747 127.463 179.207 126.476C179.667 125.489 180.838 125.057 181.825 125.517C182.812 125.976 183.241 127.147 182.783 128.137Z" fill="#2A404F"/>
<path d="M183.225 131.461L176.634 128.402C175.754 127.992 175.371 126.947 175.78 126.069C176.189 125.188 177.234 124.806 178.112 125.215L184.703 128.275C185.583 128.684 185.966 129.727 185.557 130.607C185.15 131.488 184.105 131.871 183.225 131.461Z" fill="#2A404F"/>
<path d="M183.352 135.365L180.507 134.044L181.487 128.702L185.563 130.592L183.352 135.365Z" fill="#2A404F"/>
<path d="M184.092 135.102C183.601 136.163 182.343 136.623 181.285 136.132C180.225 135.64 179.765 134.382 180.256 133.323C180.747 132.262 182.005 131.802 183.063 132.294C184.123 132.785 184.583 134.041 184.092 135.102Z" fill="#FFE8D6"/>
<path d="M201.027 177.03C199.12 177.03 197.353 175.803 196.753 173.888L190.322 153.374C189.582 151.012 190.895 148.495 193.255 147.754C195.615 147.014 198.131 148.328 198.871 150.69L205.303 171.204C206.043 173.565 204.73 176.083 202.369 176.823C201.923 176.963 201.472 177.03 201.027 177.03Z" fill="#FFE8D6"/>
<path d="M197.686 147.422L189.274 150.514L191.084 155.444L199.496 152.353L197.686 147.422Z" fill="#2A404F"/>
<path d="M193.476 153.458C191.651 153.458 189.935 152.333 189.268 150.519L187.873 146.716C187.019 144.392 188.211 141.815 190.535 140.961C192.858 140.107 195.434 141.299 196.287 143.625L197.683 147.428C198.536 149.751 197.345 152.329 195.02 153.183C194.509 153.369 193.987 153.458 193.476 153.458Z" fill="#2A404F"/>
<path d="M191.099 156.942C190.516 156.942 189.97 156.584 189.754 156.006C189.479 155.263 189.856 154.436 190.599 154.16L198.966 151.047C199.708 150.771 200.535 151.149 200.811 151.892C201.086 152.635 200.709 153.462 199.966 153.738L191.599 156.851C191.434 156.911 191.265 156.942 191.099 156.942Z" fill="#2A404F"/>
<path d="M176.211 156.87C178.159 156.87 179.738 155.29 179.738 153.341C179.738 151.392 178.159 149.812 176.211 149.812C174.263 149.812 172.684 151.392 172.684 153.341C172.684 155.29 174.263 156.87 176.211 156.87Z" fill="white"/>
<path d="M183.381 156.87C185.328 156.87 186.908 155.29 186.908 153.341C186.908 151.392 185.328 149.812 183.381 149.812C181.433 149.812 179.854 151.392 179.854 153.341C179.854 155.29 181.433 156.87 183.381 156.87Z" fill="white"/>
<path d="M183.748 153.26L179.461 148.971L175.174 153.26L179.461 157.55L183.748 153.26Z" fill="#FFB401"/>
<path d="M132.595 151.588C132.444 151.588 132.288 151.566 132.137 151.519C131.297 151.266 130.822 150.38 131.075 149.54L132.011 146.431C132.148 145.971 132.488 145.599 132.933 145.417L137.287 143.647C138.1 143.318 139.025 143.709 139.356 144.521C139.685 145.333 139.294 146.26 138.482 146.591L134.831 148.074L134.113 150.456C133.909 151.145 133.277 151.588 132.595 151.588Z" fill="#FFE8D6"/>
<path d="M130.266 152.431C130.124 152.431 129.979 152.411 129.837 152.371C128.992 152.135 128.501 151.257 128.737 150.412L130.039 145.764C130.159 145.333 130.457 144.972 130.857 144.772L134.004 143.198C134.788 142.806 135.742 143.124 136.133 143.907C136.524 144.692 136.209 145.646 135.424 146.038L132.906 147.298L131.795 151.268C131.597 151.973 130.959 152.431 130.266 152.431Z" fill="#FFE8D6"/>
<path d="M128.502 149.438C128.244 149.438 127.982 149.374 127.739 149.243C126.97 148.82 126.69 147.855 127.113 147.085L129.371 142.974C129.555 142.638 129.853 142.382 130.213 142.249L134.013 140.843C134.836 140.539 135.749 140.959 136.054 141.782C136.358 142.605 135.938 143.519 135.116 143.823L131.871 145.022L129.9 148.613C129.604 149.14 129.062 149.438 128.502 149.438Z" fill="#FFE8D6"/>
<path d="M185.998 184.322H176.115L176.94 176.912H185.998V184.322Z" fill="#2A404F"/>
<path d="M176.304 184.315C175.364 184.315 174.409 184.13 173.489 183.741L152.111 174.706C148.424 173.147 146.699 168.895 148.255 165.206C149.813 161.517 154.062 159.791 157.749 161.348L179.127 170.383C182.814 171.942 184.539 176.194 182.983 179.883C181.816 182.652 179.131 184.315 176.304 184.315Z" fill="#240444"/>
<path d="M194.202 176.046C194.184 176.417 194.14 176.788 194.073 177.153C193.471 180.384 190.948 183.23 187.75 184.073C187.121 184.24 186.508 184.316 185.903 184.322C182.321 184.349 179.143 181.825 176.074 180.166C172.891 178.445 169.711 176.726 166.53 175.007C164.695 174.015 162.87 172.839 160.959 171.996C157.489 170.466 155.916 166.41 157.445 162.939C158.974 159.467 163.028 157.893 166.497 159.423C171.92 161.36 177.343 163.294 182.768 165.229C185.186 166.092 187.908 166.71 190.082 168.162C190.413 168.382 190.731 168.62 191.033 168.883C193.066 170.648 194.327 173.337 194.202 176.046Z" fill="#FFB401"/>
<path d="M168.066 170.062L147.588 194.152L136.707 186.078C136.743 186.033 136.78 185.989 136.816 185.944L157.605 161.163C160.061 158.272 164.394 157.921 167.283 160.378C170.173 162.837 170.522 167.171 168.066 170.062Z" fill="#FFB401"/>
<path d="M170.678 192.414L157.861 196.114L147.604 169.447C146.266 165.896 148.062 161.933 151.611 160.596C155.16 159.258 159.121 161.055 160.456 164.606L170.678 192.414Z" fill="#FFB401"/>
<path d="M153.337 188.447C153.234 188.447 153.132 188.412 153.048 188.34C152.861 188.18 152.839 187.9 152.997 187.713L165.4 173.146C165.56 172.959 165.84 172.937 166.027 173.094C166.214 173.255 166.236 173.535 166.078 173.722L153.675 188.289C153.588 188.394 153.463 188.447 153.337 188.447Z" fill="white"/>
<path d="M171.867 166.753H165.055L161.79 154.317H175.131L171.867 166.753Z" fill="#1EAE9C"/>
<path d="M146.703 195.254C146.339 195.254 145.974 195.141 145.659 194.909L136.169 187.867C135.391 187.289 135.227 186.19 135.804 185.41C136.382 184.631 137.482 184.469 138.26 185.045L147.75 192.087C148.528 192.666 148.692 193.764 148.115 194.545C147.77 195.009 147.241 195.254 146.703 195.254Z" fill="white"/>
<path d="M158.54 197.869C157.783 197.869 157.083 197.373 156.858 196.61C156.585 195.681 157.114 194.705 158.045 194.429L169.43 191.064C170.359 190.791 171.337 191.32 171.611 192.252C171.884 193.181 171.355 194.157 170.424 194.433L159.038 197.798C158.872 197.847 158.705 197.869 158.54 197.869Z" fill="white"/>
<path d="M175.925 170.889C175.809 170.889 175.693 170.878 175.576 170.853L167.813 169.274C166.868 169.081 166.257 168.16 166.448 167.213C166.641 166.268 167.562 165.656 168.508 165.848L176.271 167.426C177.216 167.62 177.827 168.54 177.636 169.488C177.467 170.315 176.738 170.889 175.925 170.889Z" fill="#FFE8D6"/>
<path d="M174.796 168.282C174.616 168.282 174.436 168.256 174.256 168.195L166.255 165.596C165.337 165.298 164.835 164.311 165.133 163.394C165.43 162.476 166.417 161.973 167.333 162.271L175.334 164.871C176.252 165.169 176.754 166.156 176.456 167.072C176.216 167.811 175.532 168.282 174.796 168.282Z" fill="#FFE8D6"/>
<path d="M175.389 165.487C175.169 165.487 174.945 165.444 174.729 165.356L168.357 162.752C167.464 162.387 167.035 161.366 167.402 160.472C167.766 159.578 168.786 159.149 169.68 159.516L176.051 162.12C176.945 162.485 177.374 163.505 177.007 164.399C176.731 165.075 176.078 165.487 175.389 165.487Z" fill="#FFE8D6"/>
<path d="M177.239 165.144C176.752 165.144 176.267 164.942 175.921 164.544L172.998 161.188C172.365 160.461 172.44 159.356 173.167 158.722C173.894 158.088 174.998 158.164 175.632 158.891L178.554 162.247C179.188 162.974 179.112 164.079 178.385 164.713C178.056 165.002 177.647 165.144 177.239 165.144Z" fill="#FFE8D6"/>
<path d="M201.031 177.03C200.669 177.03 200.3 176.986 199.934 176.893L175.213 170.657C172.813 170.052 171.36 167.615 171.964 165.213C172.569 162.812 175.004 161.357 177.405 161.962L202.125 168.198C204.525 168.802 205.979 171.24 205.374 173.641C204.861 175.676 203.036 177.03 201.031 177.03Z" fill="#FFE8D6"/>
<path d="M102.485 211.761C102.341 211.761 102.201 211.692 102.114 211.563L79.4761 177.567C79.3472 177.373 79.3894 177.115 79.5694 176.971L91.5151 167.486C91.7084 167.333 91.9862 167.366 92.1396 167.557C92.2929 167.751 92.2596 168.029 92.0685 168.182L80.4428 177.411L102.854 211.067C102.99 211.272 102.934 211.548 102.732 211.683C102.654 211.737 102.57 211.761 102.485 211.761Z" fill="#2A404F"/>
<path d="M57.0678 211.76C56.9833 211.76 56.8966 211.736 56.8211 211.685C56.6166 211.547 56.5633 211.271 56.6988 211.069L79.2478 177.414L67.4866 168.186C67.2932 168.035 67.2599 167.754 67.411 167.561C67.5622 167.367 67.8422 167.334 68.0355 167.485L80.1212 176.97C80.3034 177.114 80.3457 177.374 80.2168 177.568L57.4367 211.562C57.3522 211.691 57.21 211.76 57.0678 211.76Z" fill="#2A404F"/>
<path d="M157.098 168.281H59.8234C59.5789 168.281 59.3789 168.081 59.3789 167.836C59.3789 167.592 59.5789 167.392 59.8234 167.392H157.098C157.342 167.392 157.542 167.592 157.542 167.836C157.542 168.081 157.342 168.281 157.098 168.281Z" fill="#2A404F"/>
<path d="M177.407 79.4083L158.043 72.5814C154.125 71.2005 152.067 66.8997 153.447 62.9792L158.363 49.0185C159.743 45.098 164.041 43.0388 167.959 44.4197L187.324 51.2467C191.242 52.6276 193.3 56.9284 191.92 60.8489L187.004 74.8096C185.621 78.7301 181.325 80.7893 177.407 79.4083Z" fill="#FF7707"/>
<path d="M176.208 72.6049L163.233 68.0306C161.318 67.3546 160.311 65.2532 160.987 63.3363L163.325 56.6939C164 54.777 166.1 53.7697 168.016 54.4457L180.991 59.02C182.907 59.696 183.913 61.7974 183.238 63.7143L180.9 70.3567C180.226 72.2736 178.126 73.2787 176.208 72.6049Z" fill="white"/>
<path d="M174.839 66.0768L168.392 63.8041C167.072 63.3393 166.378 61.8894 166.843 60.5685L168.049 57.1417C169.143 54.0396 172.541 52.4118 175.641 53.5037C178.742 54.5978 180.368 57.9979 179.277 61.1L178.07 64.5268C177.606 65.8477 176.159 66.5415 174.839 66.0768Z" fill="white"/>
<path d="M174.111 67.6507C176.381 66.5628 177.341 63.8391 176.253 61.5673C175.166 59.2955 172.444 58.3358 170.174 59.4237C167.903 60.5116 166.944 63.2352 168.031 65.5071C169.118 67.7789 171.841 68.7386 174.111 67.6507Z" fill="#FF7707"/>
<path d="M99.5396 127.811L79.0486 126.524C74.9015 126.263 71.7501 122.688 72.0101 118.538L72.9369 103.766C73.1969 99.6161 76.7706 96.4628 80.9177 96.723L101.409 98.0106C105.556 98.2707 108.707 101.847 108.447 105.996L107.52 120.769C107.258 124.918 103.687 128.071 99.5396 127.811Z" fill="#FF7707"/>
<path d="M93.3724 118.631C90.7166 118.631 88.243 117.315 86.7562 115.111C85.865 113.79 85.3916 112.247 85.3916 110.646C85.3916 106.243 88.972 102.66 93.3724 102.66C97.7729 102.66 101.353 106.243 101.353 110.646C101.351 115.051 97.7706 118.631 93.3724 118.631ZM93.3724 105.331C90.4432 105.331 88.0585 107.717 88.0585 110.648C88.0585 111.713 88.3719 112.74 88.9653 113.619C89.9565 115.087 91.6033 115.965 93.3724 115.965C96.3016 115.965 98.6863 113.579 98.6863 110.648C98.6841 107.715 96.3016 105.331 93.3724 105.331Z" fill="white"/>
<path d="M87.1106 113.264L78.0791 119.436L79.5833 121.639L88.6148 115.467L87.1106 113.264Z" fill="white"/>
<path d="M157.76 136.863L138.314 130.274C134.378 128.94 132.269 124.666 133.602 120.73L138.347 106.711C139.681 102.773 143.952 100.663 147.886 101.997L167.332 108.586C171.268 109.92 173.377 114.192 172.044 118.13L167.299 132.149C165.965 136.085 161.694 138.197 157.76 136.863Z" fill="#FF7707"/>
<path d="M153.239 110.709L147.852 126.625L152.396 128.165L157.784 112.249L153.239 110.709Z" fill="white"/>
<path d="M159.543 117.407L155.54 129.23L160.084 130.771L164.087 118.947L159.543 117.407Z" fill="white"/>
<path d="M142.473 117.2L140.164 124.021L144.709 125.562L147.018 118.74L142.473 117.2Z" fill="white"/>
<path d="M119.522 32.9672L99.2782 29.5471C95.18 28.8555 92.4197 24.9706 93.1109 20.8699L95.5734 6.27543C96.2646 2.17482 100.147 -0.587092 104.245 0.106721L124.49 3.52686C128.588 4.21845 131.348 8.10336 130.657 12.204L128.194 26.7985C127.503 30.8969 123.621 33.6588 119.522 32.9672Z" fill="#FF7707"/>
<path d="M118.169 17.3472C118.667 17.7586 118.534 18.5569 117.927 18.7815L112.598 20.7673L107.268 22.7531C106.662 22.9777 106.039 22.464 106.148 21.8258L107.095 16.2153L108.042 10.6047C108.148 9.96653 108.906 9.68411 109.404 10.0977L113.787 13.7247L118.169 17.3472Z" fill="white"/>
<path d="M43.802 65.0039L24.1822 71.0525C20.2107 72.2778 16.0014 70.0474 14.7768 66.0758L10.4208 51.9304C9.19628 47.9566 11.4254 43.7425 15.3947 42.5195L35.0145 36.4708C38.986 35.2456 43.1953 37.476 44.4199 41.4476L48.7759 55.593C50.0004 59.5668 47.7735 63.7808 43.802 65.0039Z" fill="#FF7707"/>
<path d="M30.9884 64.3985C36.8573 63.631 40.9932 58.2483 40.2261 52.376C39.4591 46.5036 34.0795 42.3653 28.2106 43.1328C22.3417 43.9003 18.2058 49.283 18.9729 55.1553C19.7399 61.0277 25.1194 65.166 30.9884 64.3985Z" fill="white"/>
<path d="M26.8806 43.3799L26.0098 43.6484L32.3219 64.1443L33.1927 63.8758L26.8806 43.3799Z" fill="#FFB401"/>
<path d="M29.9431 64.9623C23.4713 59.4719 21.3311 52.5248 23.5824 44.3125L24.4625 44.5549C22.3134 52.3959 24.3559 59.0271 30.532 64.2685L29.9431 64.9623Z" fill="#FF7707"/>
<path d="M19.2083 51.6403L19.1816 50.7285C25.4378 50.5528 31.2095 48.7738 36.3323 45.4404L36.8301 46.2054C31.5629 49.6322 25.6356 51.4624 19.2083 51.6403Z" fill="#FF7707"/>
<path d="M26.8806 43.3799L26.0098 43.6484L32.3219 64.1443L33.1927 63.8758L26.8806 43.3799Z" fill="#FF7707"/>
<path d="M35.6156 63.2146L34.7355 62.9722C36.8846 55.1312 34.8422 48.4999 28.666 43.2585L29.255 42.5625C35.7267 48.053 37.8669 55 35.6156 63.2146Z" fill="#FF7707"/>
<path d="M22.864 62.0856L22.3662 61.3206C27.6334 57.8938 33.5607 56.0659 39.988 55.8857L40.0147 56.7975C33.7585 56.9732 27.989 58.7522 22.864 62.0856Z" fill="#FF7707"/>
<path d="M113.102 84.7893L85.4684 88.1494C78.8877 88.9499 72.9071 84.26 72.107 77.6777L69.5557 56.6587L121.016 50.4033L123.568 71.4223C124.368 78.0046 119.683 83.991 113.102 84.7893Z" fill="#FF7707"/>
<path d="M97.348 70.1517L56.8105 62.88L94.4299 46.1084L134.97 53.3801L97.348 70.1517Z" fill="white"/>
<path d="M96.7897 65.5474L56.25 58.2758L93.8694 41.502L134.409 48.7736L96.7897 65.5474Z" fill="#FF7707"/>
<path d="M68.3224 78.6092C67.4913 78.6092 66.7734 77.9888 66.6689 77.1415L65.82 70.15C65.7088 69.2361 66.36 68.4044 67.2735 68.2932C68.1869 68.1842 69.0181 68.8336 69.1292 69.7475L69.9782 76.739C70.0893 77.653 69.4381 78.4847 68.5247 78.5959C68.458 78.6048 68.3913 78.6092 68.3224 78.6092Z" fill="#FF7707"/>
<path d="M66.3264 56.6986L65.4219 56.8086L67.0241 70.0052L67.9287 69.8952L66.3264 56.6986Z" fill="#FF7707"/>
<path d="M117.943 221.135C117.943 221.135 79.7527 221.117 79.7105 221.135H70.5607C70.4607 220.548 70.4251 219.95 70.4585 219.352C70.4607 219.303 70.4651 219.256 70.4673 219.207C70.4696 219.16 70.474 219.127 70.474 219.114C70.5918 218.315 70.7674 217.526 71.0007 216.754C71.3274 215.674 71.783 214.611 72.3898 213.652C73.1098 212.507 74.0477 211.515 75.2367 210.824C76.3924 210.154 77.6725 209.674 78.9815 209.451C81.1484 209.078 83.3953 209.4 85.2911 210.695C86.4312 211.471 87.4868 212.671 88.9226 212.858C91.1206 213.145 91.6984 210.723 91.8762 209.049C92.3562 204.537 92.7385 197.508 98.239 196.211C99.2103 195.982 100.037 196.171 100.73 196.607C102.097 197.468 102.962 199.291 103.457 200.788C104.255 203.205 104.693 205.825 105.689 208.166C106.427 209.898 107.889 210.95 109.814 210.692C110.458 210.606 111.085 210.661 111.676 210.828C113.045 211.21 114.247 212.178 115.152 213.33C115.474 213.743 115.761 214.179 116.003 214.62C117.061 216.55 117.512 218.978 117.943 221.135Z" fill="#FFE8D6"/>
<path d="M130.267 91.2852L131.751 94.0915L134.465 95.6237L131.751 97.1581L130.267 99.9645L128.782 97.1581L126.068 95.6237L128.782 94.0915L130.267 91.2852Z" fill="#1EAE9C"/>
<path d="M52.3076 26.2891L53.7899 29.0932L56.5058 30.6276L53.7899 32.162L52.3076 34.9662L50.823 32.162L48.1094 30.6276L50.823 29.0932L52.3076 26.2891Z" fill="#1EAE9C"/>
</svg>
