<svg width="397" height="110" viewBox="0 0 397 110" fill="none" xmlns="http://www.w3.org/2000/svg">
<path d="M9.63803 56.5261C7.97065 57.6127 6.54802 59.0439 5.47064 60.7182C5.22842 61.0947 4.66925 61.0938 4.42836 60.7164C3.35712 59.0382 1.9397 57.6018 0.276319 56.5091C-0.0929506 56.2666 -0.091882 55.715 0.278188 55.4739C1.94557 54.3873 3.3682 52.9561 4.44558 51.2818C4.6878 50.9053 5.24697 50.9062 5.48786 51.2836C6.5591 52.9618 7.97666 54.3982 9.64004 55.4909C10.0092 55.7334 10.0081 56.2849 9.63803 56.5261Z" fill="#FFA344"/>
<path opacity="0.5" d="M125.832 3.31563C124.823 3.96761 123.962 4.82635 123.31 5.83093C123.163 6.05683 122.825 6.05626 122.679 5.8298C122.031 4.82284 121.174 3.96104 120.167 3.30544C119.944 3.15994 119.944 2.82908 120.168 2.68437C121.177 2.03239 122.038 1.17365 122.69 0.169067C122.836 -0.0568275 123.175 -0.0562602 123.32 0.170201C123.969 1.17716 124.826 2.03896 125.833 2.69456C126.056 2.84006 126.056 3.17092 125.832 3.31563Z" fill="#FFBD69"/>
<path d="M93.6072 75.7366C91.2532 77.2579 89.2447 79.2615 87.7236 81.6056C87.3816 82.1327 86.5922 82.1312 86.2521 81.603C84.7397 79.2535 82.7385 77.2426 80.3901 75.7127C79.8688 75.3732 79.8703 74.601 80.3928 74.2634C82.7468 72.7422 84.7553 70.7385 86.2764 68.3945C86.6184 67.8674 87.4078 67.8687 87.7479 68.3971C89.2603 70.7466 91.2616 72.7575 93.6101 74.2873C94.1312 74.6268 94.1297 75.3988 93.6072 75.7366Z" fill="#23BF2D"/>
<path d="M315.607 15.7366C313.253 17.2579 311.245 19.2615 309.724 21.6056C309.382 22.1327 308.592 22.1312 308.252 21.603C306.74 19.2535 304.739 17.2426 302.39 15.7127C301.869 15.3732 301.87 14.601 302.393 14.2634C304.747 12.7422 306.755 10.7385 308.276 8.39448C308.618 7.86742 309.408 7.86873 309.748 8.3971C311.26 10.7466 313.262 12.7575 315.61 14.2873C316.131 14.6268 316.13 15.3988 315.607 15.7366Z" fill="#FCB400"/>
<path d="M306.804 85.8682C305.627 86.6289 304.622 87.6307 303.862 88.8028C303.691 89.0663 303.296 89.0656 303.126 88.8014C302.37 87.6266 301.369 86.6212 300.195 85.8563C299.934 85.6866 299.935 85.3006 300.196 85.1318C301.373 84.3711 302.378 83.3693 303.138 82.1972C303.309 81.9337 303.704 81.9344 303.874 82.1986C304.63 83.3734 305.631 84.3788 306.805 85.1437C307.066 85.3134 307.065 85.6994 306.804 85.8682Z" fill="#23BF2D"/>
<path d="M396.86 72.763C396.019 73.3063 395.302 74.022 394.758 74.8591C394.636 75.0474 394.354 75.0469 394.233 74.8582C393.693 74.019 392.978 73.3009 392.139 72.7545C391.953 72.6333 391.954 72.3576 392.14 72.237C392.981 71.6937 393.698 70.978 394.242 70.1409C394.364 69.9526 394.646 69.9531 394.767 70.1418C395.307 70.981 396.022 71.6991 396.861 72.2455C397.047 72.3667 397.046 72.6424 396.86 72.763Z" fill="#93FF6B"/>
<path d="M190 101C215.405 101 236 80.4053 236 55.0001C236 29.5949 215.405 9 190 9C164.595 9 144 29.5949 144 55.0001C144 80.4053 164.595 101 190 101Z" fill="#23BF2D"/>
<path d="M215.013 41.775L185.113 74.5501C183.1 76.8502 179.65 76.8502 177.638 74.5501L164.988 60.4626C163.263 58.45 163.263 55.2876 165.275 53.275C167.288 51.5501 170.45 51.5501 172.463 53.5625L181.375 63.625L207.538 35.1625C209.55 33.1499 212.713 32.8624 214.725 34.875C216.738 36.6 216.738 40.05 215.013 41.775Z" fill="white"/>
</svg>
