<svg width="540" height="327" viewBox="0 0 540 327" fill="none" xmlns="http://www.w3.org/2000/svg">
<path d="M479.944 276.997H510.173V329H479.944V276.997Z" fill="#FEEECD"/>
<path d="M16.192 276.997H46.4209V329H16.192V276.997Z" fill="#FEEECD"/>
<path d="M0.000732422 295.843L539.262 296.294V271.112L435.96 146.675L0.000732422 143.077V295.843Z" fill="#FEEECD"/>
<path d="M47.5231 0.553223H230.33V116.175H47.5231V0.553223Z" fill="#FEEECD"/>
<path d="M57.7236 11.9702H219.88V103.511H57.7236V11.9702Z" fill="white"/>
<path d="M67.1393 52.2769H153.376V92.3681H67.1393V52.2769Z" fill="#FFF2EB"/>
<path d="M182.233 18.8216L214.025 25.4321L206.696 60.667L174.904 54.0565L182.233 18.8216Z" fill="#FFB401"/>
<path d="M184.704 11.2379L187.511 28.605L155.451 33.7838L152.644 16.4167L184.704 11.2379Z" fill="#FFB401"/>
<path d="M121.368 19.0905L124.175 36.4575L92.1149 41.6363L89.3084 24.2693L121.368 19.0905Z" fill="#FFE8DB"/>
<path d="M81.8596 3.51784L114.104 7.37842L112.012 24.8458L79.7675 20.9852L81.8596 3.51784Z" fill="#FFE8DB"/>
<path d="M12.5887 151.936V155.095L35.6406 184.529V181.841L12.5887 151.936Z" fill="#304858"/>
<path d="M84.5645 195.576L35.6405 201.552L27.4653 196.359L6.73132 168.972L15.6149 168.078L87.8281 193.429L84.5645 195.576Z" fill="#F5BF9F"/>
<path d="M64.7745 163.522L76.3172 176.593L87.8256 175.109C90.5298 181.765 90.4455 187.854 87.8256 193.429L35.638 200.16L12.5858 170.255V166.453L64.7745 163.522Z" fill="#22323E"/>
<path d="M35.6405 196.358L84.2657 189.527C85.8637 185.794 85.8314 182.022 84.2657 178.213L35.6405 184.53V196.358Z" fill="white"/>
<path d="M87.8281 175.109L59.0669 145.939L12.5884 151.935L35.6405 181.841L87.8281 175.109Z" fill="#304858"/>
<path d="M35.6406 196.358L14.1777 168.513L14.0602 156.973L35.6406 184.529V196.358Z" fill="#DEDEDE"/>
<path d="M139.702 63.4785H141.205V92.3683H139.702V63.4785Z" fill="#FFD3BA"/>
<path d="M67.1406 74.5007V72.999L153.389 72.999V74.5007L67.1406 74.5007Z" fill="#FFD3BA"/>
<path d="M67.1387 83.8264V82.3247L153.387 82.3247V83.8264L67.1387 83.8264Z" fill="#FFD3BA"/>
<path d="M124.345 63.4785H125.848V92.3683H124.345V63.4785Z" fill="#FFD3BA"/>
<path d="M108.987 63.4785H110.49V92.3683H108.987V63.4785Z" fill="#FFD3BA"/>
<path d="M93.6299 63.4785H95.1328V92.3683H93.6299V63.4785Z" fill="#FFD3BA"/>
<path d="M78.2735 63.4785H79.7764V92.3683H78.2735V63.4785Z" fill="#FFD3BA"/>
<path d="M187.507 28.6517L205.041 32.1035L204.789 33.3857L187.254 29.9339L187.507 28.6517Z" fill="#FFC9AA"/>
<path d="M185.792 37.348L203.326 40.7998L203.074 42.082L185.54 38.6302L185.792 37.348Z" fill="#FFC9AA"/>
<path d="M178.792 20.6133L179.041 21.896L161.5 25.3067L161.25 24.024L178.792 20.6133Z" fill="#FFC9AA"/>
<path d="M114.023 25.7065L114.272 26.9893L96.7311 30.4L96.4816 29.1172L114.023 25.7065Z" fill="#FFC9AA"/>
<path d="M115.383 31.7363L115.633 33.019L98.0915 36.4298L97.842 35.1471L115.383 31.7363Z" fill="#FFC9AA"/>
<path d="M88.2758 10.7834L105.834 14.1011L105.591 15.3851L88.0331 12.0675L88.2758 10.7834Z" fill="#FFC9AA"/>
<path d="M44.7774 239.44H51.7161C52.1609 239.44 52.5244 239.077 52.5244 238.632V237.289C52.5244 236.844 52.1609 236.481 51.7161 236.481H44.7774C44.3326 236.481 43.9691 236.844 43.9691 237.289V238.632C43.9691 239.077 44.3326 239.44 44.7774 239.44Z" fill="#F5BF9F"/>
<path d="M308.791 86.3564C303.757 86.3564 299.676 82.2803 299.676 77.2522C299.676 72.224 303.757 68.1479 308.791 68.1479C313.826 68.1479 317.907 72.224 317.907 77.2522C317.907 82.2803 313.826 86.3564 308.791 86.3564Z" fill="#30323E"/>
<path d="M161.992 251.714L116.908 244.826C110.776 243.889 105.056 241.165 100.466 236.996L57.8836 198.315L133.508 189.682L161.992 251.714Z" fill="#F5BF9F"/>
<path d="M101.121 206.547L99.3751 205.35L89.2531 103.081C89.1512 102.05 89.9458 101.151 90.9824 101.124L93.4749 101.058L101.121 206.547Z" fill="white"/>
<path d="M101.121 206.547L268.04 193.811L258.145 93.3877C257.965 91.5618 256.366 90.208 254.533 90.3304L93.4748 101.058C91.9817 101.158 90.8667 102.471 91.0136 103.958L101.121 206.547Z" fill="#304858"/>
<path d="M252.869 96.3042L261.486 183.773L107.119 195.576L98.3679 106.76L252.869 96.3042Z" fill="white"/>
<g clip-path="url(#clip0_1461_10230)">
<path d="M144.355 183.992C144.613 185.91 162.719 185.065 184.796 182.101C206.873 179.138 224.562 175.181 224.304 173.261C224.047 171.343 205.941 172.188 183.863 175.151C161.786 178.114 144.098 182.074 144.355 183.992Z" fill="#CCD7F3"/>
<path d="M196.474 131.723C196.175 131.999 196.178 132.502 195.577 132.71C196.213 132.777 196.362 133.242 196.703 133.477C196.707 133.418 196.709 133.359 196.713 133.298L196.763 133.156L196.751 133.153C196.799 132.864 196.949 132.66 197.239 132.576C197.244 132.523 197.249 132.468 197.252 132.415C196.806 132.392 196.564 132.139 196.471 131.719L196.474 131.723Z" fill="white"/>
<path d="M174.57 111.855C175.053 111.944 175.247 112.272 175.462 112.621C175.477 112.207 175.617 111.897 176 111.675C175.617 111.531 175.342 111.311 175.221 110.832C175.136 111.308 174.973 111.635 174.57 111.855Z" fill="white"/>
<path d="M187.707 120.33C187.655 120.25 187.542 120.176 187.683 120.08C187.437 119.948 187.294 119.728 187.161 119.354C187.076 119.82 186.938 120.146 186.503 120.356C186.96 120.479 187.201 120.719 187.384 121.226C187.436 120.799 187.514 120.536 187.707 120.33Z" fill="white"/>
<path d="M192.908 155.076C192.864 155.609 192.542 155.936 192.002 156.221C192.752 156.34 193.104 156.823 193.384 157.462C193.4 157.157 193.405 156.924 193.51 156.712C193.598 156.407 193.854 156.279 194.103 156.143C194.206 156.086 194.254 155.977 194.241 155.874C194.211 155.665 194.085 155.846 194.008 155.83C193.429 155.718 193.202 155.265 193.015 154.71C192.966 154.874 192.937 154.975 192.908 155.076Z" fill="white"/>
<path d="M183.269 128.492C183.942 128.553 184.208 129.055 184.448 129.605C184.538 129.286 184.488 128.941 184.731 128.688C184.777 128.621 184.822 128.554 184.868 128.487C184.942 128.36 185.048 128.279 185.192 128.25L185.471 128.117L185.452 128.092L185.475 128.068C185.37 128.052 185.266 128.036 185.161 128.019C184.972 128.027 184.822 127.946 184.687 127.82C184.643 127.774 184.598 127.729 184.554 127.682L184.561 127.694C184.51 127.626 184.458 127.56 184.407 127.492L184.42 127.5C184.298 127.418 184.255 127.294 184.236 127.157C184.198 127.099 184.16 127.042 184.107 126.96C183.992 127.25 184.057 127.612 183.762 127.815L183.756 127.824C183.779 128.181 183.238 128.128 183.269 128.492Z" fill="white"/>
<path d="M167.417 122.38C167.484 122.459 167.56 122.532 167.615 122.62C167.669 122.708 167.704 122.806 167.784 122.977C167.922 122.53 167.916 122.08 168.303 121.83C168.345 121.745 168.42 121.715 168.506 121.71L168.499 121.717C168.381 121.627 168.922 121.587 168.513 121.46C168.108 121.335 167.781 121.099 167.697 120.64C167.597 120.623 167.565 120.558 167.564 120.465C167.494 120.473 167.407 120.472 167.401 120.562C167.364 121.178 166.966 121.54 166.506 121.861C166.872 121.921 167.142 122.154 167.417 122.38Z" fill="white"/>
<path d="M195.124 148.675C195.209 148.635 195.262 148.576 195.248 148.474C194.58 148.485 194.308 148.01 194.03 147.384C193.916 148.075 193.694 148.59 192.978 148.84C193.686 148.977 194.096 149.29 194.267 149.87C194.411 149.953 194.411 149.953 194.467 149.689C194.481 149.22 194.696 148.878 195.124 148.675Z" fill="white"/>
<path d="M170.129 139.472C170.681 139.567 170.862 140.026 171.108 140.499C171.355 139.956 171.308 139.237 172.122 139.101C171.38 138.985 170.989 138.562 170.773 137.79C170.66 138.535 170.487 139.098 169.811 139.302C169.915 139.359 170.022 139.415 170.129 139.472Z" fill="white"/>
<path d="M186.602 143.888C186.683 144.024 186.764 144.159 186.871 144.339C186.917 143.69 187.101 143.158 187.816 142.864C187.44 142.762 187.137 142.706 186.951 142.448C186.711 142.272 186.652 141.985 186.495 141.69C186.414 142.332 186.19 142.837 185.553 143.153C186.033 143.295 186.409 143.473 186.602 143.888Z" fill="white"/>
<path d="M179.85 141.056C180.369 141.198 180.632 141.47 180.855 141.986C180.926 141.447 181.056 141.086 181.585 140.843C181.015 140.726 180.755 140.441 180.595 140.018C180.517 140.463 180.335 140.811 179.85 141.056Z" fill="white"/>
<path d="M170.363 130.051C170.41 130.153 170.502 130.194 170.599 130.227C170.96 130.318 171.087 130.651 171.294 130.91C171.339 130.823 171.377 130.747 171.416 130.671C171.386 130.287 171.673 130.121 171.991 129.897C171.483 129.785 171.177 129.511 171.088 129.033C171.068 129.02 171.052 129.002 171.039 128.981C170.986 129.447 170.867 129.868 170.363 130.051Z" fill="white"/>
<path d="M162.92 150.333C162.654 150.177 162.675 149.834 162.45 149.604C162.404 150.261 162.158 150.761 161.495 151.05C162.077 151.198 162.507 151.458 162.687 152.006C162.801 152.219 162.88 152.206 162.894 151.966C162.927 151.396 163.231 151.021 163.753 150.771C163.442 150.655 163.11 150.623 162.92 150.333Z" fill="white"/>
<path d="M167.632 156.004C168.203 156.128 168.45 156.418 168.686 156.894C168.766 156.392 168.896 156.019 169.417 155.789C168.875 155.678 168.593 155.4 168.422 154.809C168.333 155.391 168.19 155.762 167.632 156.004Z" fill="white"/>
<path d="M189.631 136.143C190.156 136.256 190.414 136.584 190.643 137.072C190.676 136.518 190.843 136.138 191.381 135.908C190.802 135.828 190.531 135.527 190.372 135.006C190.268 135.511 190.108 135.899 189.631 136.143Z" fill="white"/>
<path d="M171.714 146.355C171.287 146.221 170.989 146.046 170.861 145.633C170.756 146.003 170.614 146.313 170.208 146.515C170.63 146.66 170.886 146.881 171.072 147.377C171.144 146.858 171.252 146.514 171.714 146.355Z" fill="white"/>
<path d="M185.013 157.211C185.013 157.211 185.013 157.213 185.013 157.211C185.413 157.257 185.631 157.523 185.848 158.039C185.889 157.516 185.997 157.194 186.444 156.997C186.031 156.858 185.768 156.657 185.611 156.302C185.544 156.711 185.258 156.946 185.013 157.211Z" fill="white"/>
<path d="M177.869 132.919C177.762 133.355 177.639 133.665 177.134 133.862C177.654 133.94 177.88 134.193 178.078 134.595C178.195 134.203 178.267 133.848 178.815 133.673C178.286 133.584 178.059 133.338 177.869 132.919Z" fill="white"/>
<path d="M181.824 167.313C181.874 166.964 182.29 166.878 182.375 166.553C181.864 166.525 181.639 166.189 181.497 165.705C181.363 166.151 181.264 166.591 180.695 166.827C181.251 166.943 181.502 167.249 181.714 167.679C181.765 167.506 181.795 167.409 181.824 167.313Z" fill="white"/>
<path d="M178.907 152.513C178.948 152.589 178.988 152.664 179.087 152.845C179.147 152.113 179.327 151.554 180.133 151.29C179.318 151.231 178.96 150.812 178.724 150.199C178.633 150.818 178.369 151.304 177.817 151.594C177.829 151.607 177.838 151.624 177.851 151.634C177.865 151.645 177.882 151.652 177.897 151.663C178.404 151.746 178.718 152.054 178.907 152.513Z" fill="white"/>
<path d="M160.422 144.543C160.352 144.061 160.785 143.858 160.985 143.525C160.486 143.526 160.303 143.158 160.11 142.731C160.001 143.17 159.882 143.56 159.369 143.795C159.941 143.892 159.999 144.418 160.366 144.621C160.37 144.623 160.39 144.604 160.398 144.591C160.409 144.577 160.414 144.558 160.422 144.543Z" fill="white"/>
<path d="M170.865 164.75C170.881 164.144 171.057 163.782 171.566 163.54C171.015 163.454 170.743 163.157 170.58 162.613C170.497 163.15 170.327 163.53 169.834 163.769C170.376 163.896 170.638 164.217 170.865 164.75Z" fill="white"/>
<path d="M192.618 129.52C192.275 129.451 192.313 129.015 192.021 128.898C191.836 128.683 191.595 128.59 191.321 128.568C191.308 128.38 191.509 128.373 191.583 128.258C192.054 127.986 192.09 127.486 192.2 126.919C192.417 127.675 192.789 128.126 193.627 128.194C192.901 128.465 192.624 128.9 192.618 129.52Z" fill="white"/>
<path d="M200.355 140.243C200.423 140.355 200.467 140.428 200.511 140.501C200.653 140.829 200.95 140.951 201.293 141.053C200.729 141.205 200.755 141.744 200.519 142.095C200.424 141.808 200.298 141.546 199.981 141.443C199.943 141.42 199.904 141.397 199.866 141.374C199.787 141.354 199.707 141.332 199.629 141.312C199.637 141.263 199.646 141.211 199.654 141.162C200.152 141.081 200.14 140.581 200.355 140.243Z" fill="white"/>
<path d="M179.432 115.533C179.184 115.103 178.934 114.771 178.365 114.649C178.915 114.424 179.066 114.038 179.153 113.529C179.346 114.014 179.571 114.364 180.112 114.431C179.61 114.626 179.518 115.043 179.432 115.533Z" fill="white"/>
<path d="M188.45 121.103C188.269 120.672 188.07 120.41 187.707 120.327C187.656 120.247 187.541 120.174 187.683 120.078C188.08 119.895 188.105 119.494 188.236 119.102C188.397 119.563 188.634 119.91 189.14 120.018C188.679 120.229 188.607 120.645 188.45 121.103Z" fill="white"/>
<path d="M162.893 151.968C162.926 151.398 163.23 151.023 163.752 150.773C163.441 150.657 163.11 150.625 162.919 150.335C163.336 149.135 163.857 147.994 164.736 147.045C166.132 145.543 167.851 144.648 169.856 144.28C169.978 144.257 170.1 144.229 170.222 144.202C171.177 144.135 172.129 144.049 173.09 144.161C174.113 144.28 175.132 144.41 176.128 144.663C178.065 145.151 179.976 145.772 181.991 145.825C183.804 145.872 185.495 145.557 186.599 143.888C186.68 144.025 186.761 144.159 186.868 144.339C186.915 143.69 187.098 143.158 187.813 142.864C187.437 142.763 187.134 142.706 186.948 142.448C186.987 140.205 185.159 138.025 182.985 137.72C180.876 137.425 179.177 139.444 179.831 141.467C180.104 142.312 180.787 142.58 181.559 142.139C181.839 141.978 182.092 141.78 182.315 141.542C182.512 141.327 182.719 141.122 182.986 140.845C183.007 141.305 182.892 141.626 182.802 141.948C182.341 143.58 181.435 144.349 179.745 144.472C178.207 144.586 176.845 144.069 175.593 143.206C173.939 142.066 173.019 140.467 172.864 138.5C172.758 137.136 173.113 135.807 173.708 134.558C174.781 132.306 176.415 130.588 178.633 129.434C180.114 128.808 181.663 128.517 183.267 128.492C183.941 128.555 184.206 129.055 184.446 129.605C184.536 129.286 184.486 128.941 184.727 128.688C184.829 128.695 184.931 128.701 185.033 128.708C185.474 128.829 185.917 128.949 186.358 129.07C186.48 129.118 186.601 129.167 186.723 129.215C187.016 129.335 187.31 129.456 187.603 129.576L187.617 129.564C187.671 129.648 187.738 129.697 187.843 129.661L187.842 129.671C187.902 129.831 188.05 129.864 188.188 129.912C188.405 130.056 188.623 130.201 188.84 130.344C189.322 130.754 189.802 131.167 190.284 131.577C190.318 131.607 190.353 131.639 190.387 131.669C190.875 132.331 191.362 132.993 191.849 133.656C191.851 133.686 191.865 133.712 191.888 133.731C192.031 134.048 192.177 134.366 192.396 134.64L192.478 134.843C192.542 135.061 192.619 135.273 192.764 135.451C192.787 135.521 192.809 135.593 192.833 135.662L192.955 135.97C192.986 136.04 193.02 136.108 193.052 136.179C193.274 136.964 193.542 137.738 193.712 138.534C194.028 140.016 194.056 141.51 193.747 143.001L193.693 143.231L193.67 143.271L193.703 143.294C193.738 143.312 193.77 143.328 193.805 143.345C193.804 143.608 193.449 143.644 193.443 143.903C193.159 144.449 192.872 144.993 192.585 145.539C192.392 145.745 192.192 145.943 192.006 146.156C190.206 148.201 187.999 149.419 185.23 149.504C184.906 149.43 184.571 149.582 184.252 149.449L184.021 149.432C183.948 149.431 183.875 149.431 183.804 149.432C183.437 149.364 183.07 149.296 182.701 149.229C182.624 149.209 182.546 149.191 182.469 149.171C182.436 149.155 182.403 149.147 182.367 149.15C180.762 148.731 179.161 148.299 177.472 148.544C175.01 148.898 173.224 151.053 173.338 153.542C173.422 155.358 174.987 156.713 176.802 156.566C177.978 156.471 179.01 156.009 179.977 155.38C180.874 154.797 181.748 154.178 182.631 153.574C182.665 153.541 182.699 153.509 182.733 153.476L182.73 153.484C182.873 153.449 182.976 153.372 183.019 153.225C183.29 153.195 183.523 153.077 183.728 152.9C183.83 152.849 183.933 152.799 184.035 152.751C184.085 152.712 184.134 152.675 184.184 152.636C184.272 152.614 184.36 152.594 184.446 152.573L184.497 152.574L184.545 152.557C184.782 152.546 184.96 152.391 185.164 152.296C185.357 152.258 185.551 152.23 185.741 152.181C187.317 151.779 188.818 151.992 190.273 152.692C191.388 153.228 192.187 154.103 192.902 155.075C192.858 155.608 192.536 155.934 191.996 156.219C192.746 156.339 193.098 156.821 193.378 157.461C193.394 157.155 193.399 156.922 193.504 156.71C193.857 158.003 193.825 159.285 193.378 160.55C192.827 162.106 191.798 163.125 190.128 163.442C189.17 163.625 188.213 163.578 187.251 163.527C186.186 163.47 185.119 163.352 184.052 163.51C182.69 163.523 181.408 163.824 180.224 164.525C178.225 165.709 177.704 167.825 178.931 169.805C179.403 170.568 180.061 171.178 180.607 171.881C180.579 171.915 180.551 171.951 180.526 171.985C176.932 170.678 175.776 167.079 176.907 164.042C177.396 162.729 178.487 162.088 179.689 161.577C180.95 161.041 182.303 160.742 183.523 160.096C183.981 159.852 184.421 159.585 184.748 159.171C185.223 158.572 185.472 157.94 185.007 157.214C185.407 157.257 185.627 157.525 185.843 158.039C185.884 157.516 185.995 157.194 186.44 156.997C186.027 156.859 185.763 156.657 185.606 156.302C185.538 156.714 185.252 156.948 185.006 157.212C184.059 156.35 183.001 156.345 181.821 156.671C180.347 157.079 179.242 157.994 178.138 158.975C177.376 159.651 176.671 160.397 175.802 160.958C175.134 161.389 174.414 161.678 173.674 161.935C171.773 162.241 169.899 162.108 168.049 161.588C166.057 161.029 164.603 159.823 163.732 157.945C162.859 156.063 162.446 154.092 162.681 152.011C162.8 152.221 162.879 152.209 162.893 151.968ZM177.869 132.918C177.761 133.355 177.639 133.665 177.134 133.862C177.652 133.94 177.88 134.192 178.077 134.594C178.195 134.203 178.266 133.847 178.815 133.673C178.286 133.584 178.058 133.338 177.869 132.918ZM190.643 137.072C190.676 136.518 190.844 136.138 191.381 135.908C190.802 135.828 190.531 135.527 190.372 135.006C190.27 135.511 190.11 135.899 189.633 136.14C190.156 136.254 190.414 136.581 190.643 137.072ZM171.075 147.377C171.144 146.856 171.252 146.512 171.714 146.355C171.287 146.22 170.987 146.046 170.861 145.633C170.757 146.002 170.614 146.313 170.209 146.515C170.633 146.66 170.887 146.88 171.075 147.377ZM168.683 156.894C168.764 156.394 168.894 156.019 169.415 155.789C168.872 155.678 168.59 155.398 168.42 154.809C168.332 155.391 168.19 155.761 167.63 156.004C168.203 156.13 168.45 156.418 168.683 156.894Z" fill="#FFB401"/>
<path d="M183.027 153.222L183.028 153.225L183.025 153.226L183.027 153.222Z" fill="white"/>
<path d="M171.248 135.738C171.249 135.734 171.252 135.727 171.254 135.723C171.255 135.729 171.254 135.737 171.255 135.743L171.248 135.738Z" fill="white"/>
<path d="M174.878 127.649C174.281 128.967 172.899 130.127 171.09 129.033C171.07 129.02 171.054 129.002 171.041 128.981C170.525 128.517 170.107 127.994 170 127.281C169.865 126.385 170.298 125.905 171.201 125.972C171.554 125.997 171.904 126.073 172.307 126.135C172.184 125.627 171.889 125.309 171.422 125.174C170.409 124.879 169.174 125.516 168.797 126.507C168.342 127.706 168.575 128.598 169.567 129.422C169.829 129.639 170.099 129.843 170.365 130.052C170.41 130.155 170.502 130.196 170.601 130.229C170.833 130.549 171.062 130.872 171.291 131.195C171.339 131.31 171.387 131.425 171.433 131.54L171.427 131.569L171.455 131.586C171.97 132.995 171.747 134.367 171.252 135.725C171.234 135.376 171.215 135.026 171.199 134.679C171.129 133.334 170.948 132.03 169.82 131.098C169.21 130.591 168.486 130.276 167.781 129.93C166.305 129.21 165.331 128.118 165.348 126.395C165.366 124.731 165.96 123.325 167.417 122.384C167.484 122.464 167.559 122.537 167.615 122.624C167.669 122.71 167.705 122.81 167.784 122.981C167.924 122.534 167.917 122.084 168.304 121.834C168.371 121.795 168.439 121.755 168.506 121.714L168.499 121.721C169.204 121.535 169.904 121.328 170.642 121.308C171.601 121.282 172.515 121.447 173.324 121.993C174.588 122.847 175.116 124.112 175.285 125.569C175.234 126.275 175.179 126.984 174.878 127.649Z" fill="#FFB401"/>
<path d="M194.468 149.692C194.784 149.415 195.03 149.094 195.124 148.676C195.21 148.636 195.262 148.576 195.249 148.475C195.319 148.14 195.422 147.809 195.379 147.459C195.403 147.393 195.411 147.289 195.457 147.268C195.564 147.22 195.537 147.34 195.552 147.387C195.66 147.726 195.749 148.076 196.024 148.33C196.092 148.473 196.127 148.644 196.232 148.749C196.447 148.965 196.584 149.339 197.009 149.217C197.03 149.273 197.052 149.327 197.073 149.382C197.405 149.639 197.849 149.559 198.27 149.741C196.913 150.115 196.194 151.253 196.253 152.822C195.702 151.533 194.963 150.46 193.345 150.368C193.705 150.174 193.986 150.023 194.267 149.872C194.414 149.954 194.414 149.954 194.468 149.692Z" fill="white"/>
<path d="M181.176 123.867C180.175 124.3 179.714 124.983 179.697 125.953C179.731 125.997 179.767 126.039 179.801 126.083C179.611 126.308 179.553 126.221 179.47 125.984C179.261 125.373 178.87 124.9 178.281 124.611C178.045 124.495 177.733 124.567 177.531 124.315C178.538 123.907 178.941 123.111 178.987 122.082C178.99 122.029 178.898 121.843 179.107 121.919C179.126 121.989 179.146 122.057 179.165 122.127C179.392 123.138 180.019 123.727 181.176 123.867Z" fill="white"/>
<path d="M158.401 135.952C158.408 135.882 158.413 135.813 158.419 135.743C158.439 135.634 158.457 135.524 158.476 135.414C158.513 135.193 158.552 134.971 158.589 134.748C158.609 134.669 158.629 134.591 158.647 134.512C158.671 134.438 158.697 134.362 158.722 134.288C158.89 133.917 159.059 133.547 159.228 133.177C159.607 132.701 159.975 132.223 160.489 131.873C162.368 130.594 165.46 130.893 167.228 132.493C168.367 133.527 168.777 134.802 168.688 136.294C168.63 137.26 168.598 138.242 168.959 139.154C169.561 140.67 170.764 141.637 172.132 142.454C170.175 142.215 168.234 141.92 166.529 140.803L166.529 140.806C166.458 140.741 166.388 140.676 166.317 140.613C166.222 140.52 166.127 140.43 166.034 140.337C165.667 139.849 165.414 139.305 165.267 138.712C165.258 138.64 165.248 138.569 165.238 138.497C165.222 138.356 165.207 138.214 165.19 138.073C165.219 137.481 165.113 136.917 164.849 136.382C164.771 136.247 164.692 136.114 164.613 135.979C164.386 135.593 164.091 135.293 163.619 135.229L163.618 135.238C163.523 135.133 163.406 135.122 163.278 135.158L163.288 135.173C163.244 135.152 163.201 135.132 163.158 135.111C162.975 135.087 162.795 135.103 162.62 135.169C162.502 135.179 162.382 135.189 162.303 135.297C162.233 135.345 162.165 135.394 162.094 135.442C161.588 135.906 161.553 136.384 161.982 136.988C162.019 137.128 162.103 137.226 162.238 137.279C162.696 137.832 163.167 137.698 163.647 137.31C163.654 137.378 163.663 137.443 163.67 137.511C163.616 137.621 163.633 137.73 163.666 137.841C163.644 138.056 163.623 138.271 163.601 138.487C163.496 138.685 163.391 138.883 163.284 139.081C163.26 139.094 163.246 139.114 163.242 139.141C163.078 139.276 162.916 139.409 162.752 139.545C162.333 139.74 161.898 139.884 161.435 139.934C161.356 139.932 161.277 139.929 161.198 139.927L160.321 139.77C160.278 139.751 160.237 139.733 160.194 139.714C159.842 139.503 159.494 139.287 159.21 138.983C159.152 138.908 159.095 138.835 159.039 138.759C158.621 138.061 158.441 137.293 158.382 136.492C158.44 136.317 158.436 136.135 158.401 135.952Z" fill="#FFB401"/>
<path d="M162.739 128.749C162.252 127.923 162.141 127.825 161.375 127.541C162.027 127.274 162.274 126.752 162.381 126.113C162.568 126.789 162.972 127.19 163.788 127.254C163.006 127.517 162.789 128.053 162.739 128.749Z" fill="white"/>
<path d="M171.248 135.738L171.255 135.743L171.211 135.823C171.223 135.793 171.236 135.766 171.248 135.738Z" fill="white"/>
<path d="M182.375 166.553C182.457 166.301 182.538 166.048 182.619 165.796C182.786 166.405 183.145 166.848 183.938 166.986C183.173 167.287 182.999 167.824 182.968 168.602C182.742 167.901 182.389 167.501 181.826 167.312C181.874 166.964 182.289 166.878 182.375 166.553Z" fill="white"/>
<path d="M177.09 152.519C177.495 152.285 177.767 152.034 177.897 151.665C178.404 151.746 178.718 152.054 178.907 152.513C178.498 152.768 178.513 153.236 178.36 153.695C178.125 153.075 177.729 152.704 177.09 152.519Z" fill="white"/>
<path d="M160.985 143.525C161.289 143.018 161.435 142.472 161.385 141.879L161.373 141.866C161.431 141.873 161.487 141.881 161.542 141.89C161.638 142.694 161.963 143.338 162.759 143.663C162.913 143.711 163.066 143.762 163.22 143.81C163.339 143.838 163.458 143.867 163.636 143.912C163.34 144.06 163.081 144.099 162.923 144.312C162.166 144.792 162.15 145.601 162.037 146.451C161.719 145.543 161.313 144.834 160.423 144.547C160.351 144.061 160.785 143.857 160.985 143.525Z" fill="white"/>
<path d="M156.563 147.948C156.697 148.484 157.005 148.679 157.446 148.85C156.982 149.068 156.881 149.458 156.753 149.892C156.526 149.481 156.321 149.149 155.778 149.076C156.23 148.797 156.393 148.446 156.563 147.948Z" fill="white"/>
<path d="M156.729 135.107C156.706 135.767 156.512 136.335 155.872 136.663C155.92 136.855 156.141 136.785 156.245 136.896C156.479 136.98 156.669 137.114 156.777 137.346C156.946 137.493 156.976 137.716 157.106 137.947C157.207 137.295 157.299 136.67 158.051 136.504C158.05 136.462 158.048 136.42 158.046 136.375C157.914 136.369 157.771 136.404 157.673 136.276C157.632 136.247 157.592 136.22 157.552 136.191C157.333 136.218 157.22 136.11 157.174 135.908C156.953 135.768 156.882 135.553 156.865 135.309C156.759 135.283 156.754 135.188 156.729 135.107Z" fill="white"/>
<path d="M221.483 139.923C220.676 139.001 219.685 138.279 218.779 137.462C217.61 136.41 216.419 135.384 215.255 134.325C214.916 134.016 214.672 133.946 214.331 134.323C210.979 138.038 207.619 141.744 204.254 145.446C204.055 145.667 203.963 145.874 204.115 146.146C204.49 146.874 205.192 147.287 205.773 147.804C207.213 149.082 208.64 150.373 210.104 151.623C210.285 151.779 210.444 151.972 210.716 151.964C210.97 151.863 211.065 151.596 211.265 151.439C214.402 148.022 217.484 144.556 220.621 141.139C220.956 140.775 221.354 140.44 221.483 139.923Z" fill="#FF7707"/>
<path d="M221.484 139.924C220.073 141.466 218.657 143.002 217.255 144.551C215.209 146.812 213.17 149.082 211.128 151.349C211.011 151.607 211.184 151.77 211.341 151.913C211.777 152.311 212.164 152.766 212.638 153.119C213.368 153.662 214.007 154.268 214.312 155.155C215.423 154.116 216.388 152.945 217.397 151.811C218.177 150.934 219.007 150.099 219.78 149.213C220.809 148.032 221.88 146.885 222.934 145.725C223.387 145.226 223.86 144.744 224.301 144.234C225.026 143.394 225.007 142.875 224.146 142.19C223.347 141.556 222.64 140.824 221.868 140.163C221.756 140.069 221.612 140.004 221.484 139.924Z" fill="#304858"/>
<path d="M210.709 151.894C208.669 150.092 206.629 148.289 204.586 146.492C204.442 146.363 204.274 146.26 204.117 146.148C203.729 146.584 203.342 147.018 202.954 147.455C202.853 147.816 203.155 147.957 203.35 148.129C205.318 149.864 207.288 151.597 209.254 153.335C209.597 153.556 209.839 153.911 210.234 154.062C210.345 154.078 210.461 154.068 210.547 153.998C210.852 153.743 211.104 153.77 211.401 154.049C211.688 154.322 211.87 154.558 211.582 154.933C211.503 155.036 211.513 155.183 211.578 155.309C211.695 155.5 211.867 155.636 212.043 155.762C212.62 156.168 213.087 156.111 213.532 155.583C213.982 155.049 213.983 154.556 213.489 154.084C212.749 153.377 211.956 152.73 211.183 152.061C211.049 151.943 210.9 151.856 210.709 151.894Z" fill="#F7F7E0"/>
<path d="M209.378 153.219C207.601 151.64 205.822 150.064 204.046 148.481C203.674 148.148 203.317 147.796 202.954 147.455C202.77 147.409 202.548 147.293 202.444 147.543C202.353 147.766 202.55 147.895 202.697 148.023C204.806 149.873 206.914 151.722 209.021 153.572C209.298 153.612 209.385 153.463 209.378 153.219Z" fill="#FF7707"/>
<path d="M210.709 151.894C211.59 152.673 212.473 153.452 213.349 154.236C213.854 154.688 213.842 154.928 213.362 155.496C212.982 155.947 212.603 156.047 212.148 155.61C211.976 155.445 211.781 155.304 211.597 155.151C211.338 155.151 211.176 155.242 211.242 155.538C211.452 155.728 211.648 155.936 211.871 156.109C212.566 156.646 213.114 156.587 213.692 155.921C213.906 155.674 214.105 155.412 214.31 155.157C214.458 154.318 213.859 153.881 213.334 153.446C212.549 152.795 211.782 152.132 211.125 151.351C210.915 151.476 210.785 151.665 210.709 151.894Z" fill="#253946"/>
<path d="M211.242 155.538C211.307 155.36 211.444 155.25 211.597 155.151C211.676 155.048 211.736 154.922 211.837 154.846C212.176 154.586 212.138 154.365 211.8 154.149C211.745 154.114 211.691 154.071 211.653 154.02C211.212 153.412 210.76 153.379 210.294 153.99C210.076 154.049 209.88 154.13 209.896 154.411C209.35 154.838 209.562 155.362 209.712 155.877C209.791 156.146 209.865 156.415 209.965 156.767C210.42 156.326 210.832 155.933 211.242 155.538Z" fill="#FF7707"/>
<path d="M209.895 154.411C210.028 154.27 210.161 154.129 210.294 153.99C209.988 153.733 209.683 153.475 209.377 153.219C209.258 153.338 209.14 153.455 209.02 153.574C209.313 153.852 209.605 154.133 209.895 154.411Z" fill="#253946"/>
<path d="M202.922 121.439C203.367 121.456 203.669 121.757 203.808 122.099C204.114 122.848 204.378 123.621 204.487 124.433C204.161 124.265 203.833 124.098 203.615 123.784C203.216 124.066 202.78 124.173 202.293 124.059C202.041 123.264 201.788 122.469 201.536 121.674C201.989 121.552 202.415 121.259 202.922 121.439Z" fill="#304858"/>
<path d="M206.52 133.449C206.89 133.479 207.112 133.732 207.335 133.985C207.668 134.725 207.911 135.491 208.033 136.295C207.811 135.935 207.452 135.783 207.069 135.668C206.633 135.628 206.246 135.833 205.835 135.923C205.61 135.167 205.387 134.408 205.162 133.652C205.603 133.5 206.035 133.302 206.52 133.449Z" fill="#304858"/>
<path d="M203.842 124.57C204.2 124.643 204.48 124.832 204.688 125.132C204.992 125.78 205.202 126.456 205.311 127.165C205.055 126.779 204.691 126.567 204.235 126.503C203.845 126.533 203.469 126.626 203.109 126.773C202.91 126.108 202.712 125.444 202.514 124.781C202.945 124.65 203.368 124.46 203.842 124.57Z" fill="#304858"/>
<path d="M201.534 121.672C198.227 122.658 194.919 123.645 191.61 124.625C191.276 124.725 191.203 124.906 191.299 125.229C192.696 129.863 194.084 134.498 195.477 139.133C195.66 139.173 195.83 139.108 196.001 139.056C199.071 138.137 202.141 137.221 205.211 136.3C205.452 136.227 205.708 136.176 205.873 135.958C205.953 135.802 205.935 135.637 205.889 135.479C205.702 134.837 205.544 134.185 205.294 133.561C204.968 132.245 204.54 130.958 204.154 129.659C203.86 128.674 203.605 127.679 203.245 126.715C203.084 126.047 202.9 125.384 202.652 124.742C202.606 124.492 202.541 124.246 202.433 124.013C202.301 123.362 202.078 122.737 201.884 122.104C201.826 121.918 201.726 121.755 201.534 121.672Z" fill="#FF7707"/>
<path d="M203.107 126.773C206.086 136.295 204.146 132.765 207.358 133.85C206.608 131.473 206.119 129.155 205.134 126.794C204.686 126.258 203.485 126.183 203.107 126.773Z" fill="#FFFAEC"/>
<path d="M205.835 135.923C202.567 136.903 199.297 137.882 196.029 138.862C195.831 138.921 195.618 138.954 195.479 139.132C195.509 139.239 195.538 139.349 195.569 139.456C195.73 139.632 195.921 139.611 196.119 139.535C199.561 138.509 203.002 137.477 206.442 136.448C206.718 136.364 206.986 136.271 207.244 136.486C207.338 136.598 207.452 136.696 207.524 136.83C207.771 137.292 207.567 137.793 207.072 137.948C206.903 138.001 206.722 138.027 206.576 138.14C206.426 138.364 206.199 138.267 205.996 138.282C205.772 138.327 205.556 138.394 205.347 138.481C205.166 138.544 205.118 138.883 204.831 138.73C202.45 139.401 200.09 140.145 197.716 140.839C197.485 140.868 197.274 140.969 197.048 141.016C196.899 141.048 196.74 141.13 196.598 140.991C196.56 140.968 196.518 140.956 196.475 140.951C196.277 141.073 196.263 141.299 196.176 141.483C196.225 141.781 196.365 141.864 196.672 141.772C200.247 140.694 203.826 139.635 207.4 138.553C208.317 138.276 208.587 137.257 208.031 136.297C207.911 135.735 207.436 135.655 206.99 135.533C206.561 135.53 206.141 135.56 205.835 135.923Z" fill="#253946"/>
<path d="M204.485 124.433C204.06 123.706 203.194 123.685 202.291 124.057C202.37 124.539 202.519 124.697 202.652 124.742C202.889 124.821 203.079 124.551 203.444 124.523C203.792 124.496 204.099 124.704 204.325 124.914C204.454 125.001 204.607 125.086 204.668 125.038C204.755 124.967 204.617 124.658 204.485 124.433Z" fill="#FFFAEC"/>
<path d="M196.009 139.442C195.862 139.447 195.715 139.453 195.568 139.456C195.769 140.131 195.973 140.805 196.175 141.481C196.385 141.384 196.563 141.267 196.463 140.99C196.561 140.922 196.558 140.823 196.546 140.72C196.529 140.625 196.512 140.528 196.474 140.438C196.45 140.347 196.429 140.254 196.393 140.168C196.371 140.078 196.345 139.987 196.313 139.898C196.293 139.83 196.28 139.759 196.249 139.694C196.204 139.575 196.146 139.472 196.009 139.442Z" fill="#304858"/>
<path d="M201.899 130.886C201.621 129.957 201.348 129.025 201.064 128.097C200.905 127.582 200.707 127.472 200.199 127.623C198.682 128.071 197.165 128.523 195.649 128.983C195.022 129.175 194.921 129.372 195.11 130.016C195.62 131.733 196.135 133.449 196.651 135.164C196.702 135.335 196.781 135.499 196.845 135.664C196.952 135.933 197.151 136.017 197.422 135.936C199.096 135.437 200.77 134.937 202.444 134.433C202.825 134.318 202.842 134.04 202.746 133.718C202.464 132.773 202.181 131.83 201.899 130.886Z" fill="#FFFAEC"/>
<path d="M197.265 126.34C198.124 126.084 198.981 125.823 199.842 125.572C200.095 125.498 200.317 125.377 200.231 125.081C200.148 124.799 199.912 124.772 199.646 124.854C197.93 125.372 196.211 125.886 194.494 126.395C194.233 126.473 194.048 126.588 194.147 126.901C194.251 127.224 194.489 127.172 194.732 127.099C195.575 126.844 196.421 126.593 197.265 126.34Z" fill="#FFFAEC"/>
<path d="M206.167 137.051C205.659 137.002 205.223 137.262 204.756 137.39C204.571 137.441 204.652 137.608 204.685 137.731C204.778 138.09 204.88 138.446 204.976 138.803C205.282 139.09 205.187 138.609 205.343 138.611C205.559 138.38 205.801 138.242 206.126 138.374C206.255 138.294 206.538 138.804 206.548 138.265C206.581 138.174 206.621 138.083 206.595 137.982C206.578 137.887 206.558 137.795 206.522 137.704C206.497 137.615 206.475 137.523 206.439 137.435C206.416 137.343 206.386 137.252 206.337 137.169C206.296 137.11 206.243 137.063 206.167 137.051Z" fill="#FD4D0A"/>
<path d="M206.123 138.375C205.626 138.092 205.626 138.092 205.34 138.611C205.603 138.534 205.863 138.454 206.123 138.375Z" fill="#E4EAE6"/>
<path d="M196.008 139.441C199.552 138.378 203.096 137.314 206.642 136.251C206.949 136.16 207.234 136.184 207.437 136.476C208.055 137.133 207.868 137.864 207.014 138.122C206.859 138.169 206.703 138.216 206.548 138.265C206.522 138.172 206.495 138.08 206.468 137.987C206.443 137.901 206.415 137.816 206.39 137.731L206.316 137.472C206.291 137.386 206.263 137.299 206.237 137.213C206.225 137.185 206.214 137.158 206.204 137.129C205.943 137.218 205.67 137.267 205.406 137.351C204.84 137.53 204.844 137.532 204.983 138.097C205.038 138.326 205.208 138.57 204.98 138.803C204.807 138.853 204.635 138.898 204.464 138.949C202.188 139.625 199.913 140.302 197.638 140.977C197.382 141.058 197.122 141.132 196.872 141.222C196.64 141.305 196.534 141.221 196.509 140.993L196.468 140.987C196.45 140.896 196.432 140.808 196.414 140.717C196.39 140.629 196.363 140.54 196.34 140.452C196.312 140.369 196.287 140.285 196.259 140.202C196.234 140.115 196.209 140.025 196.183 139.937C196.168 139.881 196.154 139.822 196.138 139.766C196.091 139.659 196.05 139.549 196.008 139.441Z" fill="white"/>
<path d="M148.469 181.45C148.498 181.26 148.525 181.069 148.554 180.879C148.813 180.955 149.053 180.859 149.296 180.8C149.211 180.815 149.128 180.828 149.043 180.844C148.875 180.872 148.723 180.911 148.571 180.806C148.696 180.393 148.866 179.99 148.935 179.568C149.051 178.866 149.629 178.4 149.8 177.726C149.902 177.314 150.021 176.888 150.344 176.569C150.482 176.423 150.654 176.348 150.848 176.3C153.031 175.76 155.161 175.043 157.302 174.362C158.485 173.995 159.646 173.56 160.819 173.166C163.183 172.372 165.576 171.699 168.055 171.36C168.638 171.292 169.22 171.208 169.802 171.131C170.44 171.032 171.081 171.065 171.721 171.068C174.591 171.083 177.325 171.628 179.777 173.201C180.397 173.599 181.059 173.969 181.46 174.635C181.478 174.796 181.37 174.883 181.259 174.957C180.344 175.571 179.778 176.446 179.394 177.455C179.325 177.636 179.265 177.826 179.055 177.899C178.756 177.994 178.453 177.98 178.149 177.944C175.749 177.653 173.352 177.769 170.963 178.037C169.276 178.227 167.614 178.606 165.959 178.996C163.842 179.498 161.723 179.981 159.601 180.462C159.23 180.511 158.878 180.65 158.507 180.699C155.352 181.125 152.198 181.548 149.042 181.968C148.838 181.995 148.626 182.046 148.437 181.902C148.45 181.754 148.459 181.601 148.469 181.45Z" fill="#CDB299"/>
<path d="M186.495 169.313C188.223 168.188 190.187 167.71 192.17 167.327C194.007 166.971 195.872 166.886 197.745 166.888C201.068 166.888 204.367 167.254 207.675 167.487C209.807 167.638 211.941 167.732 214.078 167.786C214.364 167.795 214.645 167.777 214.909 167.905C215.175 168.068 215.289 168.356 215.469 168.588C215.755 168.95 215.963 169.446 216.332 169.649C216.747 169.876 216.912 170.192 217.1 170.553C217.362 171.053 217.634 171.546 217.901 172.044C217.794 172.178 217.634 172.163 217.491 172.186C217.432 172.196 217.372 172.204 217.313 172.214C217.418 172.2 217.524 172.186 217.629 172.172C217.762 172.152 217.896 172.13 218.019 172.212L218.155 172.55C217.975 172.776 217.704 172.76 217.459 172.791C215.007 173.096 212.571 173.526 210.101 173.688C208.733 173.76 207.367 173.875 206.003 173.973C204.561 174.077 203.117 174.15 201.673 174.241C199.679 174.363 197.687 174.513 195.7 174.717C194.467 174.842 193.26 175.131 192.047 175.379C190.726 175.647 189.438 176.01 188.216 176.589C188.07 176.636 187.93 176.704 187.77 176.687C187.565 176.623 187.476 176.443 187.364 176.286C186.425 174.955 185.15 174.283 183.509 174.327C183.282 174.334 183.027 174.384 182.85 174.165C182.821 173.949 182.894 173.751 182.969 173.557C183.674 171.746 184.886 170.362 186.495 169.313Z" fill="#CDB299"/>
<path d="M165.176 160.929C163.762 160.189 162.277 159.61 160.776 159.079C159.487 158.624 158.178 158.217 156.88 157.791C156.406 157.681 155.932 157.572 155.385 157.446C155.803 158.421 156.196 159.33 156.583 160.24C156.716 160.55 157.004 160.435 157.213 160.443C158.657 160.5 160.096 160.602 161.533 160.744C162.763 160.866 163.987 161.038 165.198 161.292C165.327 161.319 165.455 161.38 165.593 161.326C165.595 161.04 165.267 161.111 165.176 160.929Z" fill="#BEA38D"/>
<path d="M165.177 160.929C165.188 161.194 165.538 161.103 165.594 161.324C165.805 161.417 166.018 161.503 166.252 161.514C165.953 161.211 165.546 161.104 165.177 160.929Z" fill="#92806D"/>
<path d="M179.128 177.813C178.824 177.835 178.519 177.888 178.211 177.837C172.987 178.376 167.801 179.204 162.593 179.864C161.81 179.963 161.032 180.102 160.262 180.272C160.061 180.317 159.853 180.363 159.643 180.331C156.181 180.968 152.675 181.309 149.194 181.816C148.944 181.852 148.691 181.878 148.44 181.908C147.964 182.04 147.755 182.291 147.828 182.637C147.901 182.985 148.186 183.132 148.68 183.066C158.365 181.766 168.052 180.466 177.737 179.17C177.922 179.145 178.116 179.052 178.302 179.179C178.648 179.191 178.989 179.141 179.314 179.033C179.577 178.945 179.816 178.808 179.739 178.459C179.699 178.371 179.641 178.306 179.54 178.376C179.205 178.609 179.167 178.42 179.196 178.137C179.206 178.019 179.239 177.901 179.128 177.813Z" fill="#FF7707"/>
<path d="M218.157 172.546C215.705 172.862 213.268 173.299 210.799 173.466C210.547 173.484 210.298 173.53 210.048 173.561C209.367 173.746 208.659 173.733 207.966 173.812C207.329 173.886 206.69 173.947 206.054 174.032C200.443 174.778 194.833 175.537 189.222 176.282C188.839 176.333 188.48 176.496 188.091 176.504C187.984 176.551 187.875 176.598 187.766 176.647C187.703 176.75 187.762 176.841 187.791 176.937C187.828 177.059 187.924 177.206 187.778 177.29C187.618 177.382 187.562 177.206 187.485 177.111C187.388 176.995 187.337 176.806 187.118 176.892C186.914 177.075 186.875 177.298 186.992 177.535C187.13 177.812 187.37 177.945 187.68 177.934C188.123 177.917 188.559 177.792 189.007 177.847C189.075 177.565 189.318 177.617 189.511 177.591C196.831 176.607 204.15 175.624 211.471 174.642C213.708 174.341 215.947 174.041 218.184 173.741C218.422 173.709 218.664 173.692 218.811 173.46C218.935 173.268 218.949 173.07 218.843 172.866C218.695 172.578 218.441 172.528 218.157 172.546Z" fill="#FF7707"/>
<path d="M181.595 174.639C181.537 174.659 181.479 174.679 181.419 174.699C180.232 175.427 179.573 176.542 179.129 177.815C179.116 177.915 179.116 178.019 179.09 178.115C179.038 178.312 179.02 178.511 179.232 178.611C179.491 178.734 179.545 178.493 179.642 178.34C179.923 176.889 180.583 175.659 181.995 175.077C183.961 174.267 186.128 174.902 187.223 176.882C187.304 177.021 187.383 177.162 187.468 177.298C187.559 177.441 187.672 177.578 187.858 177.47C188.021 177.375 188.033 177.21 187.96 177.042C187.902 176.908 187.833 176.778 187.769 176.645C187.122 175.624 186.307 174.807 185.125 174.42C184.401 174.182 183.663 174.168 182.917 174.227C182.822 174.355 182.682 174.317 182.554 174.333C182.374 174.371 182.193 174.411 182.012 174.45C181.871 174.511 181.733 174.574 181.595 174.639Z" fill="#FF7707"/>
<path d="M169.911 171.238C169.271 171.184 168.647 171.268 168.042 171.489C168.666 171.405 169.287 171.322 169.911 171.238Z" fill="#CAC8B4"/>
<path d="M193.335 173.714C193.282 173.27 193.228 172.827 193.175 172.385C193.199 171.931 193.012 171.499 193.036 171.047C193.033 170.981 193.028 170.913 193.025 170.845C193.093 170.747 193.087 170.656 193 170.571C192.924 170.019 192.848 169.467 192.77 168.916C192.729 168.883 192.683 168.871 192.63 168.88C191.249 169.051 189.916 169.408 188.63 169.939C188.465 170.007 188.292 170.059 188.163 170.193C188.128 170.236 188.124 170.283 188.149 170.333C188.415 172.062 188.682 173.793 188.964 175.619C189.254 175.339 189.472 175.128 189.692 174.917C189.875 174.831 190.033 174.711 190.171 174.567C190.217 174.529 190.255 174.485 190.296 174.443C191.188 173.535 190.818 173.625 191.969 174.112C192.078 174.174 192.204 174.175 192.322 174.2C192.695 174.233 192.993 174.478 193.377 174.584C193.463 174.378 193.347 174.179 193.374 173.988C193.423 173.888 193.417 173.794 193.335 173.714Z" fill="#FD4D0A"/>
<path d="M179.102 178.968C179.421 178.877 179.777 178.819 179.64 178.338C179.528 178.224 179.559 178.084 179.595 177.96C179.821 177.2 180.118 176.473 180.669 175.877C181.37 175.118 182.238 174.747 183.268 174.663C184.849 174.536 186.081 175.129 187.037 176.357C187.15 176.503 187.284 176.663 187.221 176.882C187.047 177.067 186.943 177.281 187.097 177.515C187.252 177.751 187.475 177.869 187.778 177.81C188.066 177.753 188.362 177.729 188.654 177.688C188.806 177.666 188.952 177.65 189.008 177.845C188.97 178.295 188.679 178.492 188.273 178.546C185.256 178.955 182.238 179.36 179.22 179.761C178.769 179.82 178.435 179.648 178.303 179.179C178.527 178.95 178.837 179.044 179.102 178.968Z" fill="#253946"/>
<path d="M163.959 179.329C166.967 178.612 169.973 177.893 173.075 177.711C174.789 177.61 176.505 177.586 178.211 177.834C178.104 177.976 177.94 177.945 177.799 177.964C171.921 178.755 166.043 179.546 160.164 180.331C159.993 180.354 159.814 180.437 159.642 180.329C161.08 179.996 162.523 179.671 163.959 179.329Z" fill="#304858"/>
<path d="M188.091 176.5C188.391 176.365 188.684 176.212 188.99 176.097C191.258 175.244 193.625 174.815 196.016 174.551C200.68 174.036 205.374 173.922 210.048 173.557C209.929 173.709 209.748 173.676 209.591 173.697C202.567 174.642 195.542 175.585 188.519 176.524C188.378 176.545 188.227 176.62 188.091 176.5Z" fill="#304858"/>
<path d="M192.685 168.911C192.453 168.528 192.088 168.623 191.742 168.651C190.454 168.897 189.197 169.246 188.011 169.817C187.921 170.005 187.93 170.16 188.157 170.238C189.173 169.841 190.207 169.5 191.267 169.231C191.645 169.134 192.025 169.091 192.406 169.051C192.53 169.039 192.643 169.064 192.685 168.911Z" fill="#CC3B30"/>
<path d="M157.875 175.496C159.429 174.944 160.996 174.43 162.563 173.911C164.358 173.316 166.188 172.846 168.046 172.501C170.657 172.018 173.265 172.129 175.851 172.713C176.645 172.892 177.434 173.101 178.174 173.449C177.413 173.308 176.667 173.113 175.909 172.964C173.898 172.571 171.874 172.404 169.826 172.608C167.681 172.821 165.609 173.356 163.552 173.976C160.777 174.811 158.034 175.744 155.275 176.633C154.748 176.803 154.239 177.049 153.666 177.07C155.069 176.544 156.464 175.997 157.875 175.496Z" fill="#95806D"/>
<path d="M178.403 175.078C173.161 173.653 168.019 174.323 162.918 175.85C168.008 174.069 173.142 173.219 178.403 175.078Z" fill="#95806D"/>
<path d="M176.815 176.283C172.67 175.568 168.65 176.265 164.665 177.338C168.632 176.054 172.64 175.218 176.815 176.283Z" fill="#95806D"/>
<path d="M192.163 168.532C193.64 168.33 195.115 168.138 196.612 168.093C198.054 168.051 199.494 168.066 200.934 168.129C202.674 168.205 204.4 168.436 206.134 168.578C206.962 168.645 207.783 168.769 208.61 168.868C208.517 168.945 208.428 168.965 208.34 168.957C205.441 168.663 202.541 168.437 199.623 168.406C197.32 168.382 195.039 168.547 192.77 168.916C192.742 168.914 192.711 168.914 192.683 168.913C192.387 168.757 192.037 168.804 191.74 168.654C191.86 168.539 192.018 168.552 192.163 168.532Z" fill="#95806D"/>
<path d="M193.505 172.009C195.187 171.656 196.901 171.511 198.609 171.403C200.045 171.312 201.488 171.292 202.929 171.331C203.881 171.357 204.833 171.338 205.783 171.465C201.56 171.496 197.334 171.471 193.177 172.383C193.105 171.94 193.259 172.061 193.505 172.009Z" fill="#95806D"/>
<path d="M204.242 172.944C200.596 173.039 196.971 173.344 193.378 173.987L193.335 173.712C196.949 173.152 200.575 172.746 204.242 172.944Z" fill="#95806D"/>
<path d="M193.025 170.845C193.017 170.755 193.008 170.663 193 170.571C193.157 170.473 193.337 170.457 193.513 170.433C195.287 170.189 197.071 170.116 198.855 170.086C199.896 170.07 200.94 170.106 201.982 170.119C198.986 170.222 195.981 170.223 193.025 170.845Z" fill="#95806D"/>
<path d="M188.008 169.818C188.011 169.973 188.053 170.117 188.154 170.239C188.152 170.27 188.15 170.3 188.148 170.333C186.602 170.928 185.398 171.976 184.332 173.212C185.146 171.633 186.451 170.589 188.008 169.818Z" fill="#95806D"/>
<path d="M190.315 174.431C190.868 174.225 191.413 173.978 192.027 174.06C192.155 174.049 192.248 174.109 192.325 174.202C191.447 174.441 190.571 174.68 189.693 174.919C189.82 174.784 189.946 174.65 190.074 174.516C190.174 174.543 190.234 174.46 190.315 174.431Z" fill="#95806D"/>
<path d="M158.011 157.886C158.958 158.031 160.405 158.274 162.153 158.646C168.034 159.896 172.254 160.838 176.084 163.843C177.017 164.575 178.351 165.763 179.7 167.565C179.341 163.956 179.411 160.971 179.56 158.838C179.689 156.998 179.791 155.617 180.217 153.731C180.814 151.097 181.819 148.609 183.099 146.228C183.78 144.96 184.493 143.714 185.218 142.472C185.387 142.183 185.566 142.039 185.933 142.211C187.523 142.951 189.122 143.669 190.719 144.39C191.949 144.945 193.181 145.495 194.41 146.046C193.733 146.86 193.058 147.679 192.403 148.511C191.462 149.708 190.534 150.917 189.662 152.17C188.998 153.126 188.312 154.069 187.671 155.041C186.288 157.137 184.98 159.279 183.83 161.514C182.996 163.134 182.181 164.766 181.646 166.519C181.232 167.877 181.033 169.256 181.069 170.672C181.072 170.783 181.148 170.957 180.992 171.002C180.994 171.004 180.995 171.006 180.997 171.009C181.122 171.937 181.246 172.864 181.38 173.861C180.398 172.832 179.476 171.867 178.554 170.901C178.363 170.943 178.263 170.752 178.151 170.642C176.512 169.006 174.798 167.451 173.019 165.975C170.927 164.24 168.691 162.707 166.241 161.51L166.247 161.513C165.88 161.309 165.477 161.185 165.106 160.993C162.579 159.796 159.958 158.849 157.281 158.054C157.235 158.04 157.109 157.991 156.932 157.929C156.306 157.71 155.773 157.551 155.379 157.444C155.96 157.538 156.88 157.69 158.011 157.886Z" fill="#F7F1E0"/>
<path d="M183.042 169.563C183.125 169.291 183.236 169.029 183.387 168.787C183.445 168.72 183.503 168.652 183.558 168.584C183.571 168.531 183.585 168.481 183.605 168.434C184.523 166.356 185.669 164.409 186.985 162.566C187.874 161.323 188.803 160.109 189.839 158.981C191.304 157.386 192.853 155.878 194.453 154.424C194.884 154.034 195.313 153.643 195.742 153.254C195.747 153.292 195.76 153.323 195.775 153.347C196.06 152.937 196.404 152.593 196.897 152.428C196.953 152.479 196.998 152.546 197.061 152.578C197.804 152.941 198.522 153.348 199.245 153.748C200.865 154.643 202.373 155.706 203.881 156.767C205.395 157.833 206.822 159.016 208.264 160.177C208.357 160.254 208.456 160.323 208.471 160.455C208.392 160.603 208.252 160.664 208.103 160.678C207.667 160.718 207.262 160.882 206.839 160.969C205.147 161.319 203.464 161.709 201.779 162.097C199.892 162.53 198.011 162.985 196.139 163.485C193.628 164.155 191.152 164.916 188.761 165.941C187.105 166.65 185.517 167.464 184.239 168.777C183.935 169.089 183.69 169.445 183.422 169.787C183.333 169.902 183.219 170.079 183.072 170.007C182.891 169.914 182.998 169.712 183.042 169.563Z" fill="#F7F1E0"/>
<path d="M182.339 173.987C182.343 173.653 182.326 173.316 182.444 172.992C182.496 172.895 182.526 172.787 182.56 172.682C182.686 171.151 183.403 169.874 184.43 168.76C185.329 167.784 186.476 167.141 187.654 166.544C190.068 165.322 192.628 164.5 195.223 163.779C196.582 163.401 197.95 163.045 199.33 162.751C200.753 162.447 202.166 162.091 203.583 161.759C204.143 161.668 204.682 161.46 205.256 161.432C205.259 161.435 205.263 161.437 205.266 161.441C205.271 161.422 205.276 161.401 205.286 161.379C205.64 161.188 206.041 161.145 206.421 161.037C206.614 160.983 206.814 160.889 207.014 161.024C207.028 161.117 207.08 161.187 207.154 161.244C208.561 162.335 209.89 163.515 211.239 164.672C212.475 165.735 213.724 166.782 214.907 167.907C213.197 167.945 211.488 167.859 209.786 167.754C206.818 167.57 203.856 167.315 200.888 167.113C198.853 166.973 196.814 166.958 194.78 167.112C193.041 167.244 191.321 167.558 189.645 168.058C187.969 168.557 186.421 169.289 185.152 170.535C184.09 171.577 183.268 172.759 182.913 174.225C182.86 174.437 182.704 174.417 182.545 174.39C182.376 174.306 182.337 174.155 182.339 173.987Z" fill="#F7F1E0"/>
<path d="M181.35 172.242C181.364 172.109 181.385 171.977 181.397 171.844C181.15 170.154 181.284 168.483 181.736 166.835C182.41 164.381 183.65 162.183 184.869 159.98C185.864 158.183 186.919 156.416 188.056 154.704C189.054 153.204 190.056 151.703 191.177 150.289C191.564 149.754 191.942 149.214 192.388 148.723C192.381 148.712 192.371 148.703 192.366 148.69C192.62 148.098 193.08 147.672 193.539 147.247C193.544 147.242 193.566 147.253 193.581 147.257C193.651 147.357 193.745 147.425 193.86 147.468C195.752 148.185 197.53 149.135 199.301 150.098C199.2 150.31 199.013 150.436 198.842 150.58C196.044 152.935 193.278 155.325 190.689 157.915C188.994 159.61 187.498 161.467 186.184 163.466C184.871 165.466 183.72 167.559 182.88 169.807C182.366 171.18 181.935 172.578 182.076 174.079C182.09 174.231 182.134 174.425 181.886 174.461C181.707 174.392 181.692 174.218 181.641 174.067C181.448 173.474 181.386 172.862 181.35 172.242Z" fill="#F7F1E0"/>
<path d="M150.501 176.11C151.593 173.919 152.71 171.742 153.754 169.529C154.074 168.852 154.531 168.481 155.196 168.218C156.894 167.547 158.612 166.955 160.362 166.435C161.372 166.136 162.379 165.802 163.406 165.624C164.869 165.369 166.341 165.129 167.844 165.178C169.445 165.232 171.009 165.459 172.515 166.013C172.636 166.057 173.344 166.431 173.371 166.435C173.489 166.523 173.619 166.6 173.729 166.699C174.668 167.547 175.622 168.383 176.538 169.257C177.668 170.336 178.782 171.434 179.805 172.619C180.466 173.234 181.058 173.91 181.594 174.637C181.551 174.704 181.492 174.721 181.418 174.697C181.267 174.535 181.132 174.355 180.963 174.214C179.701 173.173 178.299 172.401 176.727 171.916C174.497 171.229 172.221 171.082 169.912 171.238C169.281 171.252 168.657 171.338 168.042 171.489C167.112 171.606 166.207 171.844 165.289 172.026C163.433 172.393 161.675 173.067 159.876 173.614C159.011 173.878 158.196 174.282 157.307 174.472C156.954 174.671 156.554 174.733 156.176 174.859C154.252 175.497 152.312 176.085 150.345 176.571C150.346 176.399 150.428 176.257 150.501 176.11Z" fill="#F7F3E0"/>
<path d="M190.073 174.514C190.601 174.554 191.05 174.245 191.555 174.177C191.714 174.156 191.87 174.099 192.026 174.058C191.771 173.841 191.436 173.789 191.154 173.627C190.974 173.524 190.88 173.672 190.781 173.774C190.543 174.018 190.309 174.268 190.073 174.514Z" fill="#CDB098"/>
<path d="M199.301 150.1C192.665 155.009 180.216 167.48 182.333 174.479C182.743 173.832 182.408 172.193 183.058 171.141C186.166 163.74 204.16 162.434 208.567 160.628C199.747 162.093 185.828 165.22 183.088 169.979C186.69 160.396 193.918 155.761 199.301 150.1Z" fill="#AD9680"/>
<path d="M178.555 170.897C174.924 167.361 170.99 163.638 166.245 161.509C175.598 166.256 183.271 177.915 181.699 173.794C179.473 164.1 190.068 152.331 193.806 146.984C194.077 146.79 194.814 145.573 193.995 146.372C187.071 155.133 179.402 165.646 181.192 173.215C181.707 174.654 179.415 171.127 178.555 170.897Z" fill="#92806D"/>
<path d="M155.423 127.406C155.258 127.056 155.015 126.798 154.642 126.65C152.046 125.621 149.454 124.587 146.867 123.539C146.599 123.429 146.467 123.469 146.378 123.728C146.182 123.92 146.072 124.161 145.973 124.411C144.529 128.033 143.086 131.656 141.628 135.272C141.53 135.518 141.386 135.759 141.461 136.044C141.567 136.275 141.795 136.331 141.998 136.413C144.349 137.369 146.71 138.297 149.067 139.237C149.611 139.452 150.118 139.672 150.288 140.302C150.303 140.358 150.361 140.395 150.416 140.418C150.692 140.332 150.717 140.066 150.804 139.856C151.776 137.486 152.704 135.097 153.671 132.726C154.205 131.415 154.729 130.099 155.248 128.784C155.356 128.509 155.475 128.232 155.505 127.931C155.557 127.746 155.536 127.569 155.423 127.406Z" fill="#FFFAEC"/>
<path d="M157.424 127.793C157.202 127.657 156.961 127.564 156.705 127.511C156.601 127.562 156.565 127.659 156.526 127.758C155.598 130.185 154.599 132.587 153.644 135.004C153.044 136.517 152.41 138.018 151.832 139.539C151.745 139.767 151.664 139.99 151.8 140.226C151.918 140.396 152.103 140.463 152.283 140.535C154.613 141.472 156.947 142.394 159.282 143.32C159.521 143.415 159.768 143.584 160.044 143.395C160.345 143.028 160.451 142.567 160.62 142.141C161.997 138.704 163.379 135.27 164.747 131.827C164.841 131.592 164.951 131.359 164.905 131.094C164.919 130.955 165.072 130.813 164.803 130.708C162.725 129.899 160.652 129.076 158.579 128.256C158.433 128.302 158.382 128.43 158.331 128.552C158.007 129.348 157.683 130.145 157.364 130.942C157.303 131.094 157.253 131.25 157.308 131.417C157.422 131.618 157.633 131.668 157.825 131.746C159.249 132.329 160.681 132.889 162.103 133.476C160.71 132.943 159.329 132.383 157.946 131.828C157.715 131.736 157.489 131.593 157.221 131.639C156.983 131.81 156.905 132.043 156.957 132.325C157.259 132.691 157.717 132.777 158.124 132.933C159.333 133.397 160.521 133.915 161.731 134.381C160.467 133.9 159.205 133.406 157.952 132.897C157.597 132.753 157.255 132.558 156.858 132.539C156.613 132.705 156.537 132.937 156.581 133.221C156.729 133.478 157.005 133.542 157.249 133.642C158.551 134.169 159.853 134.694 161.163 135.203C161.219 135.224 161.276 135.243 161.334 135.314C159.948 134.768 158.595 134.208 157.23 133.679C156.984 133.585 156.75 133.422 156.461 133.499C156.251 133.683 156.16 133.91 156.21 134.188C156.419 134.449 156.737 134.514 157.023 134.625C158.229 135.096 159.423 135.601 160.636 136.052C160.743 136.093 160.856 136.124 161.007 136.251C159.542 135.674 158.161 135.091 156.755 134.562C156.549 134.484 156.352 134.359 156.113 134.403C155.875 134.573 155.795 134.802 155.853 135.085C156.025 135.341 156.314 135.401 156.573 135.506C157.924 136.052 159.28 136.586 160.625 137.145C159.177 136.6 157.746 136.004 156.306 135.435C156.129 135.364 155.959 135.255 155.752 135.309C155.532 135.484 155.418 135.704 155.473 135.989C155.569 136.179 155.759 136.24 155.937 136.313C157.384 136.907 158.847 137.457 160.286 138.068C158.965 137.583 157.666 137.039 156.357 136.524C156.044 136.4 155.747 136.197 155.384 136.248C155.202 136.442 154.948 136.573 154.864 136.851C154.95 137.01 155.109 137.061 155.262 137.119C156.787 137.721 158.312 138.323 159.826 138.951C157.993 138.241 156.176 137.492 154.334 136.805C154.199 136.775 154.068 136.809 153.94 136.848C154.393 135.825 154.788 134.777 155.203 133.739C155.91 131.968 156.621 130.199 157.328 128.43C157.404 128.23 157.531 128.027 157.424 127.793Z" fill="white"/>
<path d="M164.905 131.094C163.843 133.731 162.779 136.369 161.72 139.008C161.142 140.446 160.569 141.883 159.993 143.321C159.825 143.637 159.575 143.531 159.336 143.443C158.525 143.142 157.726 142.807 156.923 142.486C155.425 141.888 153.928 141.289 152.432 140.689C151.953 140.496 151.491 140.453 151 140.657C150.583 140.83 150.014 140.591 149.848 140.164C149.678 139.724 149.374 139.468 148.947 139.297C146.661 138.376 144.37 137.475 142.088 136.548C141.834 136.445 141.52 136.396 141.506 136.02C142.813 132.741 144.122 129.462 145.427 126.182C145.75 125.367 146.063 124.548 146.38 123.729C145.974 123.507 145.763 123.634 145.592 124.066C144.019 128.049 142.425 132.025 140.84 136.004C140.634 136.519 140.658 136.574 141.192 136.788C143.549 137.727 145.904 138.67 148.265 139.595C148.619 139.733 148.831 139.882 148.815 140.317C148.799 140.73 149.025 141.055 149.433 141.219C149.85 141.385 150.257 141.569 150.68 141.719C151.07 141.858 151.633 141.692 151.836 141.341C151.976 141.1 152.099 141.128 152.3 141.21C153.724 141.787 155.152 142.36 156.579 142.928C157.62 143.342 158.669 143.731 159.701 144.169C160.123 144.349 160.306 144.245 160.466 143.832C161.066 142.287 161.695 140.753 162.312 139.217C163.279 136.807 164.231 134.393 165.217 131.99C165.4 131.545 165.373 131.266 164.905 131.094Z" fill="#FF7707"/>
<path d="M151.878 140.19C151.811 140.008 151.859 139.85 151.928 139.673C152.717 137.667 153.556 135.681 154.323 133.665C154.996 131.899 155.746 130.163 156.462 128.415C156.581 128.124 156.674 127.825 156.705 127.511C156.404 127.349 156.118 127.465 155.832 127.566C155.578 127.493 155.537 127.731 155.416 127.852C155.014 129.018 154.529 130.152 154.076 131.297C153.584 132.539 153.076 133.776 152.592 135.022C151.953 136.666 151.283 138.298 150.625 139.935C150.558 140.1 150.482 140.262 150.411 140.423C150.377 140.593 150.514 140.54 150.56 140.51C150.93 140.25 151.339 140.209 151.772 140.256C151.811 140.259 151.85 140.224 151.878 140.19Z" fill="#E0E3CD"/>
<path d="M155.416 127.849C155.624 127.856 155.678 127.636 155.832 127.563C155.73 127.421 155.562 127.452 155.423 127.406C155.42 127.554 155.418 127.702 155.416 127.849Z" fill="#656FCB"/>
<path d="M151.878 140.189C151.354 140.007 150.874 140.043 150.465 140.462C150.46 140.468 150.437 140.465 150.428 140.46C150.417 140.452 150.415 140.436 150.409 140.423C150.36 139.799 150.012 139.453 149.433 139.225C146.902 138.235 144.383 137.217 141.858 136.205C141.737 136.157 141.624 136.083 141.506 136.02C141.262 136.36 141.48 136.472 141.766 136.585C144.178 137.545 146.586 138.516 149.001 139.469C149.383 139.62 149.615 139.868 149.729 140.253C149.859 140.697 150.655 141.022 151.052 140.801C151.416 140.599 151.781 140.582 152.17 140.738C154.566 141.698 156.97 142.639 159.36 143.616C159.754 143.778 159.93 143.738 159.998 143.32C159.87 143.455 159.743 143.35 159.63 143.305C157.085 142.292 154.54 141.275 151.997 140.258C151.952 140.242 151.916 140.212 151.878 140.189Z" fill="#E0E3CD"/>
<path d="M158.357 129.683C158.28 129.845 158.133 130.018 158.464 130.148C159.924 130.716 161.379 131.297 162.834 131.878C163.02 131.952 163.13 131.947 163.218 131.737C163.307 131.515 163.193 131.435 163.026 131.367C161.586 130.79 160.147 130.211 158.705 129.638C158.598 129.594 158.478 129.541 158.357 129.683Z" fill="#E0E3CD"/>
<path d="M152.78 138.2C152.677 138.442 152.863 138.474 153.012 138.533C153.87 138.877 154.727 139.224 155.584 139.568C156.762 140.039 157.937 140.508 159.118 140.97C159.233 141.015 159.396 141.193 159.49 140.954C159.578 140.726 159.338 140.726 159.226 140.681C157.223 139.87 155.216 139.07 153.206 138.27C153.075 138.217 152.939 138.134 152.78 138.2Z" fill="#E0E3CD"/>
<path d="M159.814 139.858C159.285 139.638 158.793 139.425 158.296 139.229C156.691 138.593 155.084 137.962 153.476 137.331C153.365 137.287 153.232 137.141 153.138 137.34C153.043 137.539 153.234 137.561 153.345 137.605C155.141 138.326 156.938 139.045 158.735 139.762C159.026 139.879 159.316 139.994 159.608 140.104C159.687 140.134 159.784 140.18 159.842 140.069C159.891 139.979 159.876 139.896 159.814 139.858Z" fill="#E0E3CD"/>
<path d="M152.4 139.135C152.294 139.4 152.516 139.408 152.651 139.463C153.453 139.788 154.258 140.105 155.063 140.425C156.27 140.904 157.477 141.385 158.683 141.86C158.809 141.909 158.99 142.063 159.074 141.876C159.172 141.655 158.923 141.625 158.786 141.571C156.777 140.765 154.768 139.963 152.755 139.17C152.65 139.128 152.526 138.991 152.4 139.135Z" fill="#E0E3CD"/>
<path d="M154.866 136.802C154.671 136.78 154.493 136.84 154.318 136.91C156.159 137.65 157.998 138.389 159.84 139.125C159.953 139.17 160.12 139.285 160.192 139.11C160.273 138.907 160.064 138.882 159.934 138.831C158.243 138.152 156.555 137.477 154.866 136.802Z" fill="#E0E3CD"/>
<path d="M155.533 135.985C155.484 136.093 155.436 136.2 155.388 136.31C156.9 136.906 158.412 137.501 159.923 138.097C160.047 138.145 160.175 138.19 160.3 138.236C160.404 138.275 160.52 138.385 160.599 138.206C160.675 138.034 160.53 138.007 160.423 137.965C159.773 137.702 159.122 137.446 158.472 137.182C157.49 136.784 156.512 136.383 155.533 135.985Z" fill="#E0E3CD"/>
<path d="M157.359 131.414C157.321 131.508 157.282 131.6 157.244 131.692C158.86 132.342 160.477 132.993 162.091 133.645C162.211 133.694 162.341 133.816 162.423 133.615C162.502 133.422 162.335 133.398 162.213 133.35C160.594 132.706 158.976 132.06 157.359 131.414Z" fill="#E0E3CD"/>
<path d="M156.255 134.176C156.215 134.268 156.175 134.361 156.134 134.453C157.739 135.095 159.346 135.736 160.951 136.378C161.075 136.426 161.225 136.519 161.301 136.349C161.385 136.158 161.186 136.14 161.075 136.096C159.468 135.453 157.862 134.816 156.255 134.176Z" fill="#E0E3CD"/>
<path d="M156.997 132.316C156.961 132.409 156.925 132.503 156.887 132.595C158.181 133.125 159.474 133.655 160.77 134.18C161.087 134.31 161.408 134.428 161.728 134.549C161.841 134.591 161.979 134.73 162.062 134.527C162.145 134.327 161.946 134.308 161.841 134.265C160.864 133.867 159.879 133.479 158.898 133.085C158.265 132.831 157.632 132.572 156.997 132.316Z" fill="#E0E3CD"/>
<path d="M156.637 133.221C156.589 133.33 156.541 133.44 156.493 133.55C158.085 134.179 159.673 134.807 161.264 135.434C161.392 135.484 161.563 135.628 161.649 135.435C161.734 135.244 161.517 135.208 161.389 135.155C159.872 134.541 158.355 133.93 156.838 133.317C156.77 133.29 156.704 133.252 156.637 133.221Z" fill="#E0E3CD"/>
<path d="M155.892 135.082C155.854 135.174 155.816 135.266 155.777 135.358C157.405 136.017 159.032 136.676 160.66 137.335C160.767 137.379 160.891 137.471 160.954 137.295C161.038 137.061 160.809 137.06 160.698 137.014C159.346 136.464 157.989 135.926 156.637 135.386C156.387 135.286 156.14 135.182 155.892 135.082Z" fill="#E0E3CD"/>
<path d="M162.762 132.516C162.586 132.438 162.409 132.357 162.23 132.286C160.931 131.769 159.633 131.25 158.33 130.743C158.221 130.701 158.047 130.506 157.961 130.74C157.894 130.919 158.086 130.98 158.225 131.034C159.65 131.599 161.073 132.166 162.499 132.727C162.591 132.763 162.71 132.897 162.81 132.738C162.858 132.659 162.878 132.567 162.762 132.516Z" fill="#E0E3CD"/>
<path d="M157.424 127.792C156.203 130.839 154.982 133.886 153.756 136.941C153.868 136.979 154.218 137.081 154.633 136.947C155.08 136.8 155.305 136.475 155.367 136.377C155.766 135.523 156.161 134.637 156.545 133.718C157.339 131.827 158.01 129.998 158.579 128.256C158.21 128.059 157.822 127.911 157.424 127.792Z" fill="#304858"/>
<path d="M134.231 150.394C135.743 148.778 137.252 147.156 138.762 145.536C139.51 144.69 140.274 143.857 141.089 143.075C141.358 142.907 141.467 143.163 141.599 143.289C142.956 144.583 144.306 145.888 145.654 147.19C147.601 149.07 149.525 150.975 151.497 152.829C151.687 153.007 151.904 153.18 151.918 153.478C151.906 153.566 151.881 153.655 151.823 153.721C151.199 154.438 150.55 155.131 149.874 155.8C149.786 155.887 149.683 155.949 149.558 155.931C149.541 156.184 149.381 156.362 149.218 156.533C147.763 158.079 146.304 159.623 144.835 161.156C144.714 161.282 144.608 161.438 144.401 161.421C141.01 157.97 137.62 154.52 134.225 151.074C133.981 150.823 134.01 150.629 134.231 150.394ZM140.977 155.83C141.554 156.379 142.091 156.972 142.638 157.552C143.117 158.059 143.172 158.062 143.642 157.571C144.612 156.561 145.567 155.537 146.533 154.524C146.758 154.288 146.963 154.02 147.279 153.886C147.264 153.7 147.429 153.587 147.535 153.46C147.848 153.076 148.211 152.736 148.546 152.374C148.802 152.097 148.815 151.875 148.519 151.617C148.027 151.188 147.586 150.702 147.107 150.258C146.163 149.382 146.169 149.388 145.269 150.335C145.046 150.571 144.886 150.916 144.497 150.938C144.513 151.239 144.287 151.411 144.107 151.603C143.06 152.712 142.03 153.837 140.981 154.942C140.68 155.259 140.634 155.504 140.977 155.83Z" fill="#FF7707"/>
<path d="M141.565 142.568C141.631 142.484 141.688 142.396 141.76 142.317C142.615 141.396 143.065 141.384 143.964 142.254C145.184 143.434 146.405 144.615 147.623 145.798C149.742 147.855 151.86 149.913 153.979 151.972C153.997 152.077 153.937 152.155 153.854 152.167C153.328 152.229 152.957 152.586 152.532 152.839C152.497 152.846 152.465 152.848 152.433 152.851C152.265 153.079 152.015 153.238 151.853 153.472C150.575 152.229 149.3 150.985 148.023 149.741C147.037 148.784 146.051 147.824 145.059 146.872C143.738 145.604 142.412 144.34 141.088 143.077C141.212 142.872 141.369 142.701 141.565 142.568Z" fill="#304858"/>
<path d="M153.25 152.782C153.482 152.536 153.748 152.511 153.983 152.715C154.028 152.716 154.075 152.717 154.122 152.725C154.931 153.114 155.052 153.656 154.481 154.312C154.027 154.834 153.529 155.313 153.057 155.818C151.033 157.975 149.009 160.131 146.973 162.278C146.775 162.487 146.605 162.775 146.245 162.742C145.95 162.446 145.657 162.15 145.363 161.856C145.246 161.752 145.131 161.646 145.016 161.542C147.76 158.621 150.5 155.696 153.25 152.782Z" fill="#FFFAEC"/>
<path d="M147.31 154.001C147.819 153.446 148.322 152.881 148.844 152.338C149.071 152.101 149.107 151.917 148.85 151.676C148.079 150.953 147.311 150.227 146.563 149.48C146.262 149.179 146.061 149.208 145.792 149.519C145.366 150.011 144.9 150.468 144.45 150.941C143.178 152.314 141.918 153.7 140.625 155.052C140.352 155.338 140.395 155.494 140.631 155.733C141.376 156.488 142.124 157.241 142.84 158.024C143.117 158.328 143.259 158.241 143.497 157.988C144.761 156.65 146.038 155.329 147.31 154.001Z" fill="white"/>
<path d="M152.283 157.217C153.012 156.274 155.409 154.351 155.215 153.447C154.905 152.551 153.906 151.541 152.941 152.325C151.546 153.507 150.56 154.915 149.196 156.265C147.715 158.154 145.531 159.676 144.508 161.538C145.395 162.055 146.906 159.467 147.496 159.113C149.3 157.217 151.011 155.395 152.806 153.49C153.137 153.181 153.384 152.658 153.933 152.769C155.671 153.512 153.89 154.531 153.22 155.385C150.874 158.049 148.234 160.336 146.153 163.063C146.203 164.306 152.423 157.34 152.283 157.217Z" fill="#253946"/>
<path d="M187.249 119.235C186.991 119.89 186.733 120.543 186.473 121.199C186.408 121.333 186.406 121.472 186.449 121.61C186.633 122.184 186.403 122.593 186.006 123.008C185.463 123.578 184.892 123.764 184.174 123.403C183.184 123.459 182.294 123.89 181.373 124.188C178.63 125.073 175.885 125.955 173.143 126.847C171.618 127.345 170.092 127.837 168.565 128.327C168.351 128.396 168.137 128.455 167.971 128.619C167.722 128.709 167.477 128.81 167.226 128.886C166.979 128.96 166.792 129.086 166.891 129.36C166.981 129.605 167.208 129.564 167.415 129.498C168.676 129.094 169.938 128.69 171.198 128.287C175.253 126.986 179.308 125.69 183.359 124.384C183.698 124.274 184.004 124.219 184.358 124.365C185.715 124.925 187.783 122.988 187.316 121.591C187.198 121.235 187.205 120.916 187.429 120.611C187.945 120.113 188.131 119.494 188.106 118.796C189.92 114.23 191.736 109.664 193.55 105.097C193.635 104.885 193.741 104.635 193.467 104.512C193.16 104.375 193.045 104.623 192.953 104.868C192.851 105.132 192.732 105.391 192.621 105.65C192.407 105.79 192.298 106.003 192.208 106.231C190.789 109.84 189.328 113.433 187.937 117.052C187.824 117.552 187.54 117.987 187.38 118.467C187.297 118.719 187.175 118.959 187.249 119.235Z" fill="#FF7707"/>
<path d="M188.106 118.796C187.88 119.401 187.656 120.007 187.43 120.611C188.19 121.423 188.948 122.235 189.744 123.085C189.946 122.696 189.645 122.229 189.929 122.059C190.186 121.907 190.591 122.002 191.088 121.982C190.035 120.856 189.072 119.827 188.106 118.796Z" fill="#304858"/>
<path d="M190.462 106.664C190.544 106.521 190.623 106.391 190.797 106.33C191.409 106.11 192.014 105.877 192.623 105.65C191.1 109.503 189.578 113.357 188.055 117.21C187.254 117.372 186.61 117.05 186.021 116.555C187.098 113.079 188.665 109.82 190.462 106.664Z" fill="#F7F7E0"/>
<path d="M168.145 128.244C168.431 127.253 168.943 126.536 170.029 126.23C171.042 125.945 171.995 125.453 172.984 125.071C176.122 123.864 179.258 122.648 182.564 121.952C182.693 121.924 182.868 121.972 183.01 121.763C181.444 121.852 180 122.199 178.572 122.621C175.381 123.567 172.294 124.788 169.267 126.161C169.109 126.232 168.886 126.456 168.75 126.163C168.648 125.945 168.897 125.919 169.032 125.859C172.87 124.149 176.743 122.539 180.869 121.636C180.977 121.611 181.163 121.673 181.184 121.434C180.99 121.436 180.809 121.431 180.629 121.442C177.819 121.576 175.103 122.22 172.411 122.975C171.214 123.31 170.036 123.71 168.847 124.074C168.71 124.117 168.52 124.254 168.445 123.999C168.388 123.798 168.582 123.784 168.702 123.726C168.757 123.698 168.818 123.688 168.876 123.668C172.069 122.598 175.298 121.668 178.649 121.236C179.381 121.142 180.119 121.083 180.854 121.009C180.699 120.913 180.544 120.885 180.389 120.877C177.996 120.742 175.621 120.957 173.259 121.307C171.788 121.524 170.329 121.819 168.862 122.071C168.727 122.093 168.527 122.245 168.451 121.993C168.356 121.676 168.64 121.745 168.789 121.707C169.123 121.621 169.464 121.553 169.805 121.489C173.419 120.814 177.044 120.263 180.741 120.515C181.435 120.561 182.123 120.689 182.951 120.796C181.666 120.01 180.451 119.399 179.201 118.855C176.319 117.599 173.337 116.628 170.31 115.787C170.136 115.74 169.821 115.76 169.907 115.457C169.984 115.196 170.222 115.373 170.377 115.413C172.095 115.857 173.788 116.386 175.46 116.972C178.35 117.985 181.179 119.138 183.823 120.906C183.47 120.146 183.125 119.501 182.862 118.823C181.42 115.117 180.87 111.23 180.572 107.296C180.554 107.052 180.543 106.809 180.531 106.564C180.525 106.463 180.515 106.345 180.653 106.329C180.788 106.313 180.894 106.365 180.909 106.521C180.919 106.643 180.922 106.766 180.932 106.888C181.156 110.106 181.586 113.293 182.461 116.409C182.561 116.761 182.674 117.11 182.788 117.458C182.892 117.782 183.006 118.104 183.118 118.427C182.422 114.475 182.302 110.511 182.413 106.531C182.418 106.329 182.253 105.944 182.624 105.949C182.95 105.954 182.774 106.309 182.777 106.499C182.794 107.863 182.755 109.231 182.799 110.594C182.897 113.631 183.071 116.664 183.957 119.6C184.08 120.008 184.18 120.431 184.508 120.812C184.59 119.915 184.634 119.083 184.746 118.259C185.302 114.165 186.423 110.204 187.621 106.263C187.676 106.084 187.628 105.698 187.949 105.796C188.257 105.889 188.009 106.181 187.974 106.377C187.937 106.597 187.848 106.807 187.784 107.021C186.801 110.325 185.898 113.647 185.315 117.048C185.163 117.936 185.02 118.826 185.107 119.749C185.223 119.327 185.336 118.903 185.451 118.482C186.176 118.485 186.836 118.645 187.305 119.26C187.25 120.027 186.965 120.708 186.536 121.336C185.776 121.879 184.987 122.389 184.42 123.158C184.391 123.18 184.361 123.199 184.329 123.217C184.343 123.353 184.213 123.433 184.099 123.521C181.112 124.472 178.125 125.424 175.136 126.372C172.75 127.126 170.363 127.875 167.974 128.629C168.029 128.494 168.087 128.369 168.145 128.244Z" fill="#F7F7E0"/>
<path d="M188.053 117.21C187.35 117.066 186.693 116.784 186.02 116.555C185.706 117.157 185.559 117.808 185.448 118.472C186.043 118.735 186.693 118.877 187.249 119.235C187.527 118.565 187.856 117.914 188.053 117.21Z" fill="#304858"/>
<path d="M184.261 123.064C184.207 123.215 184.15 123.364 184.095 123.513C184.787 123.942 185.291 123.914 185.846 123.422C186.829 122.548 186.929 122.193 186.472 121.197C185.58 121.636 184.825 122.234 184.261 123.064Z" fill="#304858"/>
</g>
<path d="M268.04 193.812L333.375 232.606L161.73 248.211L101.121 206.547L268.04 193.812Z" fill="#304858"/>
<path d="M241.956 199.969L287.586 227.063L167.711 237.961L125.382 208.864L241.956 199.969Z" fill="white"/>
<path d="M333.375 232.606V236.548L164.211 251.685C162.519 251.837 160.826 251.392 159.427 250.429L102.8 211.439C101.749 210.715 101.121 209.521 101.121 208.244V206.547L159.043 246.363C160.779 247.557 162.88 248.106 164.979 247.915L333.375 232.606Z" fill="white"/>
<path d="M292.767 212.619C292.767 212.619 280.085 200.696 277.778 198.302C275.471 195.908 272.567 190.24 268.12 190.692L266.706 190.867L263.192 189.084C262.397 188.68 261.494 188.54 260.613 188.687C259.174 188.927 257.086 189.36 256.721 189.898C256.721 189.898 254.717 189.189 253.609 189.517C252.5 189.845 243.805 193.118 243.734 194.084C243.661 195.05 243.908 195.497 243.908 195.497C243.908 195.497 239.164 198.187 239.363 199.789C239.363 199.789 239.763 203.134 250.853 199.146C250.853 199.146 257.162 205.678 259.454 208.12C261.817 210.637 263.619 213.92 260.46 213.927C257.3 213.934 252.588 210.69 251.694 209.651C250.799 208.614 245.98 206.051 243.632 207.202C241.284 208.353 244.024 213.468 248.301 215.523C252.577 217.578 258.62 222.285 258.62 222.285C258.62 222.285 270.33 228.684 278.443 227.683C286.557 226.682 292.767 212.619 292.767 212.619Z" fill="#EA997B"/>
<path d="M0.000732422 271.112H539.262V296.294H0.000732422V271.112Z" fill="#D8A76C"/>
<path d="M204.666 229.18C243.097 249.501 265.939 249.787 288.876 266.743L289.897 285.657L288.745 287.27C287.685 288.754 286.292 289.981 284.656 290.791C279.912 293.142 273.53 293.662 268.474 292.147C265.992 291.403 263.764 290.508 262.43 289.696C236.176 279.058 207.193 257.883 178.745 238.772L204.666 229.18Z" fill="#EA997B"/>
<path d="M359.018 94.3389C359.018 94.3389 368.98 124.354 378.068 135.257C399.804 161.334 348.244 167.945 341.213 144.198C337.498 131.65 337.524 129.395 331.252 117.205C321.694 98.6294 359.018 94.3389 359.018 94.3389Z" fill="#EA997B"/>
<path d="M340.444 128.913C326.909 133.025 314.537 141.571 312.005 122.373C311.773 120.622 310.274 113.071 309.103 107C309.049 106.715 308.736 101.002 308.693 100.863C305.216 89.6037 309.135 76.3412 310.214 70.9594C306.59 56.347 306.116 58.2533 320.747 54.6347L321.702 54.3986C337.639 50.4568 353.758 60.1644 357.705 76.0806L361.617 91.8577C365.725 108.424 357.031 124.811 340.444 128.913Z" fill="#EA997B"/>
<path d="M296.711 63.4783C296.266 65.5276 296.196 72.9988 305.141 73.7717C307.626 73.9862 309.324 72.0643 309.943 73.5679C314.963 85.7608 328.295 94.0078 332.041 94.9071C333.947 95.3646 336.022 98.4718 338.113 102.478C344.433 114.591 364.494 118.258 366.705 115.888C370.577 111.738 369.932 103.178 371.551 95.1716C374.686 79.6815 374.863 69.8103 371.133 62.9121C364.702 51.018 354.98 46.9508 341.537 47.4808C337.806 47.6277 328.434 49.77 325.09 50.106C303.675 52.2631 298.598 54.81 296.711 63.4783Z" fill="#30323E"/>
<path d="M336.101 108.759C333.349 108.74 331.143 105.155 331.173 100.752C331.204 96.3498 333.46 92.7962 336.212 92.8154C338.964 92.8346 341.17 96.4192 341.14 100.822C341.109 105.225 338.853 108.778 336.101 108.759Z" fill="#EA997B"/>
<path opacity="0.3" fill-rule="evenodd" clip-rule="evenodd" d="M336.758 94.23C336.321 93.6199 335.472 93.4793 334.862 93.9161C332.38 95.6926 331.692 98.3734 331.576 100.414C331.517 101.446 331.6 102.368 331.695 103.03C331.743 103.363 331.796 103.635 331.837 103.828C331.857 103.925 331.875 104.002 331.889 104.058C331.896 104.085 331.901 104.108 331.906 104.124L331.911 104.145L331.913 104.152L331.914 104.155L331.914 104.156C331.914 104.157 331.914 104.157 333.226 103.804L331.914 104.157C332.077 104.762 332.632 105.176 333.257 105.162C333.881 105.148 334.415 104.71 334.552 104.101M334.552 104.101L334.554 104.091C334.557 104.079 334.562 104.06 334.569 104.033C334.583 103.979 334.605 103.9 334.636 103.807C334.665 103.718 334.698 103.628 334.733 103.542C335.233 103.73 335.818 103.611 336.205 103.196C336.717 102.647 336.686 101.788 336.138 101.276C335.656 100.827 335.008 100.502 334.287 100.594C334.288 100.585 334.288 100.577 334.289 100.568C334.382 98.9369 334.906 97.2263 336.444 96.1257C337.054 95.6889 337.195 94.8402 336.758 94.23" fill="#7D3F32"/>
<path d="M337.741 132.241L338.929 136.252C338.929 136.252 342.355 130.49 343.145 126.262C343.145 126.262 340.131 130.418 337.741 132.241Z" fill="#332525"/>
<path fill-rule="evenodd" clip-rule="evenodd" d="M315.139 98.7905C315.134 98.7891 315.123 98.7861 315.107 98.7819C315.062 98.7699 314.979 98.7486 314.864 98.7243C314.629 98.6743 314.296 98.618 313.923 98.5939C313.075 98.5392 312.532 98.6806 312.283 98.8401C310.496 99.9842 308.12 99.4628 306.975 97.6754C305.831 95.8881 306.353 93.5116 308.14 92.3675C310.388 90.9282 312.868 90.8247 314.418 90.9248C315.244 90.9781 315.954 91.0991 316.462 91.2071C316.719 91.2617 316.931 91.3146 317.09 91.357C317.17 91.3782 317.236 91.397 317.289 91.4122C317.315 91.4198 317.337 91.4266 317.356 91.4323L317.382 91.4402L317.393 91.4435L317.398 91.4451L317.4 91.4458C317.402 91.4461 317.403 91.4465 316.267 95.0773L317.403 91.4465C319.428 92.0798 320.557 94.2351 319.924 96.2606C319.293 98.2763 317.156 99.4038 315.139 98.7905ZM315.114 98.7828L315.114 98.7828L315.114 98.7828Z" fill="#252E33"/>
<path d="M309.428 99.8384C309.428 99.8384 305.278 109.385 304.169 111.681C302.98 114.139 308.675 116.535 312.224 115.009C315.772 113.482 311.201 101.316 311.201 101.316L309.428 99.8384Z" fill="#EA997B"/>
<path d="M313.703 101.817C313.799 103.581 314.492 104.977 315.252 104.936C316.011 104.895 316.55 103.433 316.454 101.668C316.359 99.9052 315.639 98.8208 314.879 98.862C314.121 98.9031 313.608 100.054 313.703 101.817Z" fill="#332525"/>
<path fill-rule="evenodd" clip-rule="evenodd" d="M321.737 114.778C321.044 114.766 320.473 115.318 320.461 116.011C320.425 118.024 319.605 118.853 318.947 119.248C318.581 119.468 318.207 119.584 317.919 119.644C317.778 119.673 317.664 119.688 317.591 119.695C317.555 119.698 317.53 119.7 317.517 119.7C317.514 119.7 317.511 119.7 317.51 119.7C317.51 119.7 317.51 119.7 317.51 119.7C317.509 119.701 317.508 119.701 317.508 119.701L317.512 119.7L317.516 119.7L317.518 119.7L317.519 119.7C317.52 119.7 317.52 119.7 317.521 119.7L317.534 120.955C317.521 119.7 317.52 119.7 317.519 119.7" fill="#7D3F32"/>
<path d="M59.2789 242.474C52.7146 241.944 47.5252 239.88 47.6879 237.862C47.8507 235.845 53.304 234.639 59.8682 235.168C66.4325 235.697 71.622 237.762 71.4592 239.779C71.2965 241.797 65.8431 243.003 59.2789 242.474Z" fill="#F5BF9F"/>
<path d="M52.4726 236.787L82.034 236.964L82.3633 205.454L52.8135 205.157L52.4726 236.787Z" fill="#A3D1B0"/>
<path d="M67.2354 241.628C59.0757 241.547 52.4819 239.384 52.5078 236.799C52.5337 234.213 59.1694 232.183 67.3291 232.264C75.4888 232.346 82.0825 234.508 82.0567 237.094C82.0308 239.68 75.3951 241.71 67.2354 241.628Z" fill="#A3D1B0"/>
<path d="M53.5842 204.913L62.2532 205L62.5099 218.965C62.7637 231.817 64.538 233.325 73.6637 236.964C75.0079 237.5 80.8807 238.496 78.4166 239.307C75.7095 240.199 72.244 241.417 67.9731 241.374C59.8126 241.292 53.2187 239.129 53.2452 236.544L53.5842 204.913Z" fill="#89B094"/>
<path d="M313.593 242.819C313.403 243.389 289.899 285.658 289.899 285.658L261.487 255.352L290.399 210.637L313.593 242.819Z" fill="#EA997B"/>
<path d="M276.899 220.323C278.706 217.749 282.239 205.809 283.208 202.818C285.554 195.576 287.981 185.657 288.243 185.096C290.39 180.511 296.857 163.857 311.544 159.727C314.127 159.126 315.891 158.642 316.083 158.602C332.74 153.45 337.214 148.863 342.093 142.415C342.093 142.415 357.32 136.404 366.446 133.747C372.174 132.079 380.183 135.397 380.183 135.397C382.11 138.67 411.816 148.587 411.816 148.587C433.894 156.459 441.733 196.359 441.733 196.359L445.283 274.151L430.467 329.002H304.33C311.646 318.22 316.331 304.908 314.848 285.66L308.274 265.164C303.32 272.173 291.296 269.784 284.125 265.417C275.297 260.041 271.385 258.043 268.041 242.397L276.899 220.323Z" fill="#FFD99B"/>
<path d="M0.293156 211.264L41.0654 255.636L0.000183105 259.908L0.293156 211.264Z" fill="white"/>
<path d="M204.667 229.18C204.667 229.18 199.95 223.119 194.791 215.648C193.113 213.219 190.666 211.418 187.845 210.538C185.333 209.753 182.268 208.753 179.664 208.475L167.669 206.55C167.669 206.55 164.867 206.482 162.483 206.993C161.243 207.258 161.211 209.01 162.444 209.308L164.277 209.752C164.277 209.752 161.683 208.216 158.342 210.877C156.414 212.412 162.01 214.292 162.01 214.292C162.01 214.292 158.251 212.895 156.971 215.271C155.69 217.647 160.965 220.368 160.965 220.368L168.741 225.714C168.741 225.714 167.373 223.817 164.097 222.906C160.82 221.995 158.606 221.566 157.891 222.866C157.175 224.166 157.806 226.521 160.848 227.22C164.19 227.988 172.936 234.926 172.936 234.926C172.936 234.926 179.64 244.876 187.732 244.657L204.667 229.18Z" fill="#EA997B"/>
<path opacity="0.3" fill-rule="evenodd" clip-rule="evenodd" d="M164.371 209.922C164.34 210.615 164.877 211.201 165.569 211.231C171.516 211.493 176.773 212.647 181.298 214.765C181.925 215.059 182.673 214.788 182.966 214.16C183.26 213.533 182.989 212.786 182.362 212.492C177.476 210.205 171.88 208.997 165.68 208.724C164.987 208.693 164.401 209.23 164.371 209.922Z" fill="#7D3F32"/>
<path opacity="0.3" fill-rule="evenodd" clip-rule="evenodd" d="M162.557 214.013C162.302 214.658 162.619 215.387 163.264 215.641L174.663 220.132C175.307 220.386 176.036 220.07 176.29 219.425C176.544 218.78 176.228 218.051 175.583 217.797L164.184 213.306C163.539 213.052 162.811 213.369 162.557 214.013Z" fill="#7D3F32"/>
<path opacity="0.3" fill-rule="evenodd" clip-rule="evenodd" d="M163.417 222.685C163.163 223.33 163.48 224.058 164.125 224.312L169.332 226.364C169.976 226.618 170.705 226.301 170.959 225.656C171.213 225.011 170.896 224.283 170.252 224.029L165.045 221.977C164.4 221.723 163.672 222.04 163.417 222.685Z" fill="#7D3F32"/>
<path opacity="0.3" fill-rule="evenodd" clip-rule="evenodd" d="M254.458 193.229C254.235 193.157 253.982 193.099 253.731 193.112C252.678 193.169 250.743 193.432 249.103 193.675C248.276 193.798 247.513 193.917 246.957 194.006C246.678 194.05 246.452 194.086 246.295 194.112C246.216 194.125 246.155 194.135 246.113 194.142L246.05 194.152C246.05 194.152 246.049 194.152 246.14 194.703L246.05 194.152C245.668 194.215 245.41 194.576 245.473 194.957C245.536 195.339 245.896 195.597 246.278 195.533L246.204 195.09C246.278 195.533 246.278 195.533 246.278 195.533L246.34 195.523C246.381 195.516 246.442 195.507 246.52 195.494C246.675 195.469 246.9 195.432 247.177 195.388C247.729 195.3 248.487 195.182 249.308 195.06C250.963 194.815 252.83 194.563 253.805 194.51C253.805 194.51 253.805 194.51 253.805 194.51C253.805 194.51 253.822 194.51 253.859 194.517C253.899 194.524 253.954 194.537 254.024 194.56C254.166 194.606 254.346 194.683 254.564 194.793C255.002 195.013 255.542 195.342 256.154 195.754C257.378 196.577 258.833 197.692 260.238 198.82C261.64 199.946 262.981 201.077 263.971 201.926C264.466 202.351 264.874 202.705 265.157 202.953C265.298 203.077 265.409 203.174 265.484 203.24C265.522 203.273 265.55 203.299 265.569 203.316L265.598 203.341C265.598 203.341 265.598 203.341 266.063 202.818C266.527 202.294 266.527 202.294 266.527 202.294L266.497 202.267C266.477 202.25 266.448 202.224 266.41 202.19C266.334 202.123 266.222 202.024 266.079 201.899C265.792 201.649 265.382 201.292 264.883 200.864C263.885 200.008 262.532 198.867 261.115 197.728C259.699 196.591 258.208 195.448 256.936 194.592C256.301 194.165 255.706 193.8 255.194 193.542C254.938 193.413 254.689 193.305 254.458 193.229ZM266.586 203.282C266.843 202.993 266.816 202.551 266.527 202.294L266.063 202.818L265.598 203.341C265.887 203.598 266.33 203.571 266.586 203.282Z" fill="#7D3F32"/>
<path opacity="0.3" fill-rule="evenodd" clip-rule="evenodd" d="M256.08 189.618C255.925 189.972 256.087 190.385 256.441 190.54L256.722 189.899L257.002 189.258C256.648 189.103 256.235 189.264 256.08 189.618ZM256.722 189.899C257.002 189.258 257.003 189.258 257.003 189.258L256.722 189.899ZM257.003 189.258L257.003 189.258L257.003 189.258ZM257.003 189.258L257.005 189.259L257.003 189.258ZM257.005 189.259L257.012 189.262L257.005 189.259ZM257.012 189.262L257.036 189.273L257.012 189.262ZM257.036 189.273C257.058 189.282 257.089 189.296 257.131 189.315L257.036 189.273ZM257.131 189.315C257.213 189.351 257.333 189.406 257.488 189.476L257.131 189.315ZM257.488 189.476C257.796 189.618 258.239 189.825 258.783 190.088L257.488 189.476ZM258.783 190.088C259.869 190.614 261.357 191.368 262.964 192.276L258.783 190.088ZM262.964 192.276C266.146 194.073 269.913 196.539 271.878 199.1L262.964 192.276ZM262.276 193.495C265.459 195.293 268.993 197.64 270.767 199.952C271.002 200.259 271.442 200.317 271.748 200.082C272.055 199.846 272.113 199.407 271.878 199.1M262.276 193.495C260.7 192.605 259.239 191.865 258.172 191.348L262.276 193.495ZM258.172 191.348C257.639 191.089 257.204 190.887 256.904 190.749L258.172 191.348ZM256.904 190.749C256.754 190.68 256.637 190.628 256.559 190.592L256.904 190.749ZM256.559 190.592C256.519 190.575 256.49 190.562 256.47 190.553L256.559 190.592ZM256.47 190.553L256.448 190.543L256.47 190.553ZM256.448 190.543L256.442 190.541L256.448 190.543ZM256.442 190.541L256.441 190.54L256.442 190.541ZM256.441 190.54L256.441 190.54L256.441 190.54Z" fill="#7D3F32"/>
<path opacity="0.3" fill-rule="evenodd" clip-rule="evenodd" d="M266.082 190.552C265.908 190.897 266.047 191.318 266.392 191.492C268.224 192.414 270.196 193.961 271.731 195.306C272.494 195.973 273.139 196.582 273.593 197.023C273.82 197.244 273.999 197.422 274.12 197.545C274.181 197.606 274.227 197.654 274.258 197.686C274.274 197.702 274.286 197.714 274.293 197.721L274.301 197.73L274.304 197.732C274.571 198.011 275.015 198.02 275.293 197.753C275.572 197.485 275.582 197.042 275.314 196.763L274.809 197.248C275.314 196.763 275.314 196.763 275.314 196.763L275.31 196.759L275.3 196.748C275.291 196.739 275.278 196.726 275.261 196.709C275.228 196.674 275.178 196.624 275.115 196.56C274.988 196.431 274.803 196.247 274.569 196.019C274.101 195.565 273.438 194.939 272.653 194.252C271.094 192.887 269.015 191.245 267.022 190.241C266.676 190.068 266.256 190.207 266.082 190.552Z" fill="#7D3F32"/>
<path opacity="0.3" fill-rule="evenodd" clip-rule="evenodd" d="M263.74 253.795C263.734 253.102 263.168 252.545 262.475 252.551L262.485 253.806C262.475 252.551 262.474 252.551 262.474 252.551L262.473 252.551L262.47 252.551L262.465 252.551L262.452 252.551C262.441 252.551 262.427 252.552 262.411 252.552C262.379 252.553 262.335 252.555 262.282 252.558C262.175 252.564 262.028 252.576 261.849 252.597C261.494 252.64 261.004 252.722 260.458 252.884C259.382 253.204 257.965 253.869 257.001 255.273C256.608 255.844 256.753 256.625 257.325 257.018C257.896 257.41 258.677 257.265 259.07 256.694C259.584 255.945 260.391 255.522 261.172 255.29C261.553 255.177 261.898 255.119 262.147 255.089C262.27 255.075 262.366 255.067 262.428 255.064C262.458 255.062 262.48 255.061 262.492 255.061L262.502 255.061C263.192 255.052 263.746 254.486 263.74 253.795Z" fill="#7D3F32"/>
<path d="M373.427 128.307C362.167 127.98 350.909 131.475 339.655 138.8L331.53 152.026C331.53 152.026 345.085 143.912 351.167 143.733C375.068 143.028 376.932 143.467 383.38 138.862L373.427 128.307Z" fill="white"/>
<path d="M341.653 329H481.827L494.644 222.953C497.772 204.692 482.792 188.134 463.144 188.134H392.952C377.29 188.134 363.944 198.835 361.451 213.391L341.653 329Z" fill="#FF7707"/>
<path opacity="0.3" fill-rule="evenodd" clip-rule="evenodd" d="M329.265 224.897C328.875 224.229 328.018 224.004 327.35 224.395L321.232 227.971C320.957 228.131 320.746 228.38 320.632 228.676L307.359 263.106C307.081 263.828 307.44 264.638 308.162 264.916C308.883 265.195 309.693 264.835 309.972 264.114L323.068 230.141L328.763 226.812C329.431 226.422 329.656 225.564 329.265 224.897Z" fill="#332525"/>
<path d="M313.29 314.15H237.1C233.921 314.15 231.345 311.574 231.345 308.396V298.831C231.345 295.653 233.921 293.077 237.1 293.077H313.29C316.468 293.077 319.045 295.653 319.045 298.831V308.396C319.045 311.574 316.468 314.15 313.29 314.15Z" fill="#304858"/>
<path d="M308.665 329H291.839V310.669H308.665V329Z" fill="#304858"/>
<path d="M67.5855 211.246C59.4257 211.164 52.836 208.599 52.8668 205.515C52.8977 202.432 59.5374 199.998 67.6972 200.08C75.8569 200.161 82.4467 202.727 82.4158 205.811C82.385 208.894 75.7452 211.327 67.5855 211.246Z" fill="white"/>
<path d="M67.474 210.022C60.2568 209.95 54.4265 207.857 54.4516 205.347C54.4767 202.837 60.3478 200.861 67.5649 200.933C74.7821 201.005 80.6125 203.098 80.5874 205.608C80.5622 208.118 74.6912 210.095 67.474 210.022Z" fill="#FF7707"/>
<path d="M45.0034 215.089H56.212C56.8586 215.089 57.3887 214.56 57.3887 213.912V211.957C57.3887 211.311 56.8596 210.781 56.212 210.781H45.0034C44.3568 210.781 43.8268 211.31 43.8268 211.957V213.912C43.8268 214.56 44.3568 215.089 45.0034 215.089Z" fill="#6F8F78"/>
<path d="M48.248 230.129V213.047C48.248 211.801 47.2281 210.782 45.9818 210.782H45.9798C44.7335 210.782 43.7136 211.801 43.7136 213.047V230.129C43.7136 231.375 44.7335 232.395 45.9798 232.395H45.9818C47.2281 232.395 48.248 231.375 48.248 230.129Z" fill="#6F8F78"/>
<path d="M44.9476 232.394H56.2688C56.8851 232.394 57.3887 231.89 57.3887 231.274V229.413C57.3887 228.797 56.8851 228.293 56.2688 228.293H44.9476C44.3313 228.293 43.8277 228.797 43.8277 229.413V231.274C43.8267 231.89 44.3313 232.394 44.9476 232.394Z" fill="#6F8F78"/>
<path d="M37.8506 157.649L51.9692 155.628C53.4173 155.42 53.3674 154.303 51.8575 153.145C50.3477 151.987 47.9276 151.21 46.4795 151.417L32.3609 153.439C30.9128 153.647 30.9628 154.764 32.4726 155.921C33.9825 157.079 36.4025 157.857 37.8506 157.649Z" fill="white"/>
<path d="M67.1393 52.4414H153.376V64.9026H67.1393V52.4414Z" fill="#C4957C"/>
<path opacity="0.2" fill-rule="evenodd" clip-rule="evenodd" d="M162.332 246.349C161.56 246.299 160.894 246.883 160.843 247.655L160.595 251.452C160.544 252.223 161.128 252.89 161.9 252.94C162.672 252.991 163.338 252.406 163.389 251.635L163.638 247.838C163.688 247.066 163.104 246.4 162.332 246.349Z" fill="#332525"/>
<defs>
<clipPath id="clip0_1461_10230">
<rect width="90.9707" height="75.8089" fill="white" transform="matrix(-0.991112 0.13303 0.13303 0.991112 219.162 101)"/>
</clipPath>
</defs>
</svg>
