<svg width="621" height="360" viewBox="0 0 621 360" fill="none" xmlns="http://www.w3.org/2000/svg">
<path d="M570.336 254.896V268.867L155.223 342.195L0.0377197 274.112V259.101L567.027 254.896" fill="#D8A76C"/>
<path d="M158.666 325.193L570.336 254.896L407.109 202.827L0.0377197 259.1L158.666 325.193Z" fill="#FEEECD"/>
<path d="M310.283 289.319L394.128 275.574L329.365 246.337L245.52 260.083L310.283 289.319Z" fill="white"/>
<path d="M279.42 260.642L334.372 251.658L329.804 250.133L274.853 259.117L279.42 260.642Z" fill="#D8A76C"/>
<path d="M285.706 263.486L340.656 254.503L336.088 252.977L281.137 261.961L285.706 263.486Z" fill="#D8A76C"/>
<path d="M292.549 266.695L347.5 257.711L342.932 256.184L287.981 265.168L292.549 266.695Z" fill="#D8A76C"/>
<path d="M302.826 272.421L357.776 263.437L353.208 261.912L298.257 270.896L302.826 272.421Z" fill="#D8A76C"/>
<path d="M326.363 272.792L364.305 266.231L361.098 264.783L323.156 271.343L326.363 272.792Z" fill="#D8A76C"/>
<path d="M418.334 148.155C418.334 148.155 439.118 59.7256 413.554 0C413.554 0 383.886 86.4376 418.348 150.549" fill="#C8E2BF"/>
<path d="M410.654 80.6172C407.513 79.1916 405.097 76.0263 402.788 73.6091C402.426 73.2296 402.075 72.841 401.717 72.4596C401.738 71.1557 401.769 69.859 401.813 68.5715C402.335 69.1617 402.857 69.7537 403.388 70.3385C404.78 71.8712 406.196 73.3821 407.634 74.8676C408.217 75.4706 409.395 77.036 410.59 78.0711C410.412 70.8488 410.293 63.6246 410.234 56.4004C408.842 55.507 407.953 54.0559 406.984 52.7012C405.797 51.0413 404.609 49.3833 403.422 47.7234C403.609 46.1489 403.805 44.5944 404.012 43.0726C406.072 45.9528 408.133 48.8312 410.193 51.7114C410.168 46.0763 410.187 40.443 410.234 34.8078C408.538 34.0288 407.159 32.6577 405.899 31.1939C406.127 29.9336 406.359 28.706 406.594 27.5056C407.802 28.884 409.022 30.2514 410.261 31.5971C410.339 24.3076 410.48 17.0198 410.679 9.7321C412.336 3.54671 413.553 0 413.553 0C414.118 1.32025 414.652 2.66048 415.175 4.00798C414.872 13.2516 414.66 22.497 414.554 31.7442C414.667 31.6697 414.783 31.5935 414.902 31.5172C416.536 30.4693 418.159 29.4033 419.787 28.3464C420.479 27.8978 421.17 27.4493 421.863 26.9989C422.123 28.2447 422.367 29.496 422.603 30.749C421.366 31.5517 420.131 32.3562 418.895 33.1553C417.414 34.1123 416.028 34.9549 414.528 35.3C414.476 41.2638 414.458 47.2259 414.489 53.1897C414.907 52.8047 415.267 52.456 415.426 52.3343C417.316 50.8815 419.208 49.4305 421.099 47.9777C422.318 47.0424 423.534 46.1072 424.753 45.1719C424.917 46.6247 425.061 48.0794 425.199 49.5322C423.839 50.5764 422.48 51.6188 421.12 52.663C419.03 54.2684 416.942 56.4676 414.522 57.1051C414.578 63.8334 414.683 70.56 414.843 77.2866C415.57 76.4022 416.242 75.4106 416.718 74.8858C418.166 73.295 419.616 71.7023 421.065 70.1115C422.758 68.2537 424.448 66.394 426.141 64.5362C426.207 66.474 426.253 68.4044 426.278 70.3239C424.915 71.8203 423.552 73.3167 422.189 74.815C420.01 77.2085 417.956 80.4192 414.939 81.1638C415.1 87.1676 415.303 93.1714 415.545 99.1734C418.72 93.9378 422.253 88.9546 426.139 84.2456C426.061 86.7063 425.958 89.1326 425.829 91.517C422.241 96.3858 418.989 101.505 416.11 106.879C416.053 106.984 415.971 107.06 415.885 107.131C416.033 110.286 416.19 113.44 416.359 116.593C416.379 116.571 416.4 116.542 416.42 116.52C417.858 114.878 419.297 113.235 420.735 111.593C422.041 110.102 423.347 108.611 424.653 107.12C424.411 109.617 424.151 112.036 423.88 114.37C423.502 114.802 423.123 115.234 422.745 115.665C420.894 117.779 419.1 120.564 416.669 121.937C417.17 130.551 417.751 139.159 418.424 147.761C418.367 148.01 418.335 148.152 418.335 148.152L418.35 150.545C416.627 147.342 415.071 144.08 413.658 140.779C413.216 134.746 412.819 128.711 412.463 122.673C410.638 122.409 408.778 121.718 406.939 120.857C406.604 119.551 406.287 118.242 405.99 116.932C407.217 117.466 408.448 117.986 409.687 118.478C410.348 118.741 411.349 119.235 412.274 119.442C412.019 114.951 411.782 110.46 411.574 105.967C408.632 103.991 405.781 101.894 403.028 99.6764C402.856 98.2309 402.708 96.7871 402.571 95.347C405.405 97.8204 408.354 100.161 411.419 102.357C411.101 95.1164 410.847 87.8668 410.654 80.6172Z" fill="#7CB966"/>
<path d="M417.163 175.681C417.163 175.681 420.773 84.8249 384.356 31.2666C384.356 31.2666 371.652 121.921 417.632 178.027" fill="#C8E2BF"/>
<path d="M382.766 63.3813C382.75 62.101 382.745 60.8497 382.748 59.6257C384.195 60.7408 385.653 61.8413 387.123 62.9182C385.817 55.7521 384.571 48.5734 383.385 41.3837C383.834 34.9858 384.354 31.2666 384.354 31.2666C385.159 32.4507 385.938 33.6601 386.704 34.8787C388.16 44.0079 389.708 53.1207 391.36 62.2136C391.456 62.1191 391.556 62.0211 391.657 61.923C393.061 60.5737 394.451 59.2062 395.848 57.8496C396.441 57.2721 397.034 56.6965 397.628 56.119C398.12 57.2903 398.597 58.4689 399.066 59.653C398.005 60.6826 396.947 61.716 395.883 62.7457C394.613 63.9751 393.412 65.0774 392.006 65.7112C393.088 71.5716 394.201 77.4264 395.363 83.2704C395.7 82.811 395.989 82.3969 396.12 82.2462C397.701 80.4483 399.279 78.6504 400.86 76.8544C401.877 75.6958 402.895 74.5389 403.912 73.3803C404.348 74.7732 404.767 76.1716 405.175 77.5699C404.04 78.8611 402.903 80.1541 401.769 81.4453C400.022 83.432 398.392 86.0035 396.138 87.1041C397.469 93.6944 398.85 100.274 400.283 106.842C400.83 105.831 401.298 104.725 401.667 104.118C402.786 102.272 403.907 100.425 405.026 98.5777C406.333 96.4203 407.641 94.2628 408.947 92.1072C409.378 93.9959 409.792 95.8809 410.18 97.7569C409.127 99.4948 408.074 101.231 407.021 102.969C405.337 105.747 403.932 109.303 401.113 110.627C402.41 116.486 403.748 122.337 405.125 128.175C407.246 122.411 409.767 116.827 412.687 111.441C413.077 113.871 413.435 116.271 413.763 118.636C411.167 124.12 408.949 129.784 407.142 135.625C407.107 135.739 407.041 135.83 406.969 135.917C407.712 138.983 408.464 142.046 409.23 145.106C409.245 145.081 409.261 145.048 409.275 145.023C410.374 143.129 411.474 141.233 412.575 139.339C413.573 137.619 414.572 135.897 415.57 134.177C415.807 136.676 416.01 139.101 416.186 141.443C415.898 141.941 415.607 142.44 415.319 142.938C413.902 145.377 412.673 148.464 410.549 150.289C412.675 158.641 414.879 166.973 417.172 175.28C417.163 175.534 417.157 175.679 417.157 175.679L417.626 178.024C415.328 175.22 413.184 172.327 411.169 169.365C409.592 163.533 408.056 157.691 406.56 151.838C404.719 151.94 402.763 151.628 400.797 151.146C400.222 149.931 399.661 148.709 399.121 147.483C400.427 147.765 401.733 148.032 403.041 148.272C403.739 148.399 404.815 148.687 405.763 148.707C404.662 144.353 403.575 139.992 402.519 135.625C399.256 134.266 396.062 132.772 392.94 131.139C392.496 129.754 392.076 128.368 391.668 126.98C394.918 128.849 398.255 130.563 401.679 132.113C399.996 125.065 398.371 118.004 396.805 110.929C393.451 110.149 390.481 107.52 387.757 105.604C387.331 105.304 386.912 104.992 386.488 104.687C386.262 103.403 386.046 102.124 385.845 100.853C386.471 101.331 387.094 101.808 387.725 102.277C389.382 103.506 391.057 104.709 392.751 105.884C393.437 106.359 394.889 107.663 396.259 108.444C394.713 101.394 393.225 94.33 391.796 87.253C390.262 86.65 389.115 85.4024 387.905 84.2638C386.426 82.8709 384.945 81.4762 383.467 80.0833C383.351 78.5015 383.249 76.9379 383.164 75.4034C385.731 77.8223 388.3 80.2413 390.868 82.6602C389.774 77.1377 388.724 71.6061 387.7 66.0672C385.893 65.6422 384.279 64.5689 382.766 63.3813Z" fill="#7CB966"/>
<path d="M416.453 171.446C416.453 171.446 456.572 108.884 453.023 55.4453C453.023 55.4453 406.569 113.958 415.813 173.302" fill="#C8E2BF"/>
<path d="M418.836 150.07C417.496 149.35 416.243 148.29 415.055 147.106C415.151 146 415.262 144.899 415.386 143.801C416.192 144.56 417.003 145.31 417.827 146.042C418.268 146.432 418.907 147.097 419.568 147.518C420.593 143.971 421.628 140.428 422.688 136.892C420.949 134.533 419.312 132.105 417.785 129.612C418.045 128.444 418.321 127.286 418.608 126.132C420.129 128.847 421.776 131.492 423.55 134.056C425.277 128.359 427.05 122.678 428.871 117.012C426.827 115.022 425.817 111.891 424.689 109.369C424.513 108.973 424.347 108.573 424.172 108.177C424.543 107.175 424.919 106.18 425.304 105.195C425.548 105.8 425.79 106.405 426.041 107.008C426.702 108.588 427.386 110.155 428.096 111.711C428.382 112.342 428.869 113.885 429.512 115.026C431.337 109.387 433.207 103.763 435.126 98.1547C434.293 97.0705 433.999 95.6958 433.617 94.3737C433.149 92.7538 432.682 91.1357 432.213 89.5158C432.785 88.3499 433.361 87.2022 433.934 86.0835C434.747 88.8929 435.558 91.7042 436.37 94.5135C437.881 90.146 439.429 85.7912 440.997 81.4454C439.896 80.3631 439.203 78.912 438.626 77.4247C439.144 76.5149 439.657 75.6305 440.165 74.7679C440.726 76.1753 441.298 77.5791 441.89 78.9702C443.932 73.3514 446.022 67.7507 448.158 62.1683C451.121 57.8479 453.026 55.4453 453.026 55.4453C453.104 56.6275 453.154 57.8152 453.191 59.0047C450.444 66.0727 447.768 73.1679 445.172 80.294C445.279 80.2686 445.389 80.2414 445.503 80.2159C447.052 79.8673 448.598 79.5004 450.145 79.1409C450.802 78.9883 451.46 78.8358 452.117 78.685C451.98 79.722 451.828 80.7608 451.67 81.7959C450.496 82.0665 449.321 82.3425 448.146 82.6113C446.74 82.9327 445.437 83.1942 444.183 83.0381C442.522 87.6381 440.887 92.2471 439.29 96.8708C439.718 96.691 440.092 96.5239 440.247 96.473C442.105 95.8828 443.964 95.2926 445.82 94.7042C447.018 94.3247 448.213 93.9451 449.411 93.5638C449.143 94.7351 448.86 95.901 448.57 97.0632C447.233 97.4864 445.899 97.9113 444.562 98.3345C442.508 98.9864 440.295 100.1 438.25 99.909C436.463 105.132 434.717 110.367 433.011 115.618C433.815 115.138 434.604 114.561 435.116 114.29C436.669 113.467 438.223 112.645 439.777 111.822C441.591 110.861 443.406 109.901 445.22 108.94C444.744 110.458 444.254 111.966 443.754 113.457C442.293 114.23 440.831 115.004 439.369 115.777C437.031 117.014 434.569 118.919 432.033 118.643C430.526 123.334 429.051 128.037 427.607 132.75C431.488 129.594 435.575 126.735 439.864 124.189C439.135 126.071 438.394 127.919 437.648 129.728C433.548 132.483 429.64 135.527 425.95 138.872C425.877 138.937 425.794 138.974 425.708 139.004C424.965 141.487 424.229 143.971 423.504 146.461C423.525 146.448 423.55 146.434 423.57 146.421C425.129 145.557 426.69 144.692 428.249 143.828C429.665 143.043 431.08 142.257 432.497 141.472C431.631 143.337 430.772 145.135 429.927 146.864C429.517 147.091 429.108 147.318 428.696 147.547C426.688 148.66 424.543 150.309 422.291 150.685C420.338 157.492 418.447 164.318 416.628 171.165C416.518 171.341 416.454 171.441 416.454 171.441L415.814 173.297C415.353 170.331 415.035 167.367 414.839 164.413C416.138 159.625 417.471 154.844 418.836 150.07Z" fill="#7CB966"/>
<path d="M384.461 166.17H445.213V228.092H384.461V166.17Z" fill="#304858"/>
<path d="M414.862 211.116C420.713 211.205 432.398 195.692 426.384 190.344C420.711 185.301 415.475 192.917 415.475 192.917C415.475 192.917 409.413 185.704 404.683 189.325C397.217 195.042 408.943 211.025 414.862 211.116Z" fill="#E55E4A"/>
<path d="M380.636 18.3147L376.258 16.0991L130.246 48.626V215.363L136.422 218.23L380.636 18.3147Z" fill="#253946"/>
<path d="M323.658 236.409V242.409L237.027 254.816L198.858 241.897V237.128L322.967 236.409" fill="#253946"/>
<path d="M237.745 248.446L323.658 236.409L284.772 225.092L198.858 237.128L237.745 248.446Z" fill="#304858"/>
<path d="M252.683 239.183L267.509 237.391V174.896H252.683V239.183Z" fill="#304858"/>
<path d="M136.422 218.231L380.636 185.286V18.3149L136.422 51.2613V218.231Z" fill="#304858"/>
<path d="M259 39.4713C257.924 39.4713 257.052 38.5826 257.052 37.4864C257.052 36.3901 257.924 35.5015 259 35.5015C260.075 35.5015 260.947 36.3901 260.947 37.4864C260.947 38.5826 260.075 39.4713 259 39.4713Z" fill="#102328"/>
<path d="M259 38.8901C258.239 38.8901 257.622 38.2616 257.622 37.4863C257.622 36.711 258.239 36.0825 259 36.0825C259.76 36.0825 260.377 36.711 260.377 37.4863C260.377 38.2616 259.76 38.8901 259 38.8901Z" fill="#3A464A"/>
<path d="M145.336 207.714L372.664 178.601V26.6157L145.336 55.7285V207.714Z" fill="white"/>
<g clip-path="url(#clip0_1461_39458)">
<path d="M196.526 186.983C196.984 190.391 229.153 188.89 268.378 183.625C307.602 178.36 339.03 171.329 338.572 167.917C338.114 164.509 305.945 166.011 266.72 171.276C227.496 176.541 196.069 183.575 196.526 186.983Z" fill="#CCD7F3"/>
<path d="M289.127 94.1169C288.596 94.6083 288.601 95.502 287.533 95.8716C288.663 95.9894 288.928 96.8158 289.534 97.2337C289.542 97.1285 289.546 97.0238 289.553 96.9152L289.641 96.6627L289.619 96.6584C289.704 96.1441 289.972 95.7814 290.487 95.6332C290.496 95.5386 290.504 95.4405 290.51 95.3464C289.717 95.3055 289.287 94.8568 289.122 94.1103L289.127 94.1169Z" fill="white"/>
<path d="M250.211 58.8179C251.069 58.9757 251.413 59.5581 251.795 60.1785C251.822 59.4422 252.071 58.8915 252.751 58.4985C252.07 58.2415 251.583 57.8508 251.368 56.9996C251.216 57.8462 250.927 58.4272 250.211 58.8179Z" fill="white"/>
<path d="M273.549 73.874C273.458 73.7318 273.258 73.6007 273.508 73.4306C273.07 73.1949 272.817 72.8051 272.58 72.14C272.429 72.9684 272.183 73.5474 271.411 73.9205C272.223 74.1383 272.651 74.5658 272.976 75.4667C273.068 74.7072 273.207 74.2397 273.549 73.874Z" fill="white"/>
<path d="M282.791 135.608C282.714 136.556 282.141 137.136 281.181 137.642C282.514 137.854 283.139 138.711 283.637 139.848C283.665 139.305 283.674 138.891 283.86 138.514C284.017 137.972 284.472 137.746 284.914 137.503C285.098 137.403 285.183 137.209 285.159 137.025C285.106 136.655 284.883 136.976 284.746 136.948C283.717 136.748 283.314 135.944 282.98 134.958C282.894 135.249 282.843 135.429 282.791 135.608Z" fill="white"/>
<path d="M265.665 88.3761C266.862 88.4848 267.334 89.3769 267.759 90.3542C267.92 89.7866 267.831 89.1736 268.263 88.7242C268.344 88.6055 268.425 88.4869 268.506 88.3683C268.638 88.1423 268.827 87.9984 269.082 87.9462L269.579 87.7107L269.544 87.6651L269.585 87.6237C269.398 87.5949 269.214 87.5657 269.027 87.5369C268.691 87.5497 268.424 87.406 268.185 87.1829C268.106 87.1002 268.027 87.021 267.948 86.9383L267.961 86.958C267.87 86.8374 267.778 86.7204 267.687 86.5998L267.71 86.6146C267.493 86.4677 267.417 86.2481 267.384 86.0046C267.316 85.9024 267.249 85.8001 267.154 85.6548C266.95 86.1707 267.065 86.8125 266.542 87.1736L266.53 87.1896C266.572 87.8233 265.611 87.7297 265.665 88.3761Z" fill="white"/>
<path d="M237.499 77.5169C237.619 77.6589 237.755 77.7879 237.851 77.9438C237.948 78.0996 238.011 78.2744 238.152 78.5786C238.398 77.7842 238.387 76.9846 239.075 76.5403C239.148 76.3904 239.281 76.3367 239.434 76.3269L239.422 76.3394C239.214 76.1805 240.174 76.1091 239.447 75.8834C238.727 75.6604 238.146 75.2427 237.997 74.4258C237.821 74.3956 237.762 74.2814 237.761 74.1162C237.637 74.1293 237.483 74.1285 237.472 74.288C237.407 75.3814 236.699 76.026 235.881 76.5955C236.531 76.7022 237.011 77.1155 237.499 77.5169Z" fill="white"/>
<path d="M286.727 124.236C286.879 124.165 286.973 124.059 286.949 123.879C285.762 123.899 285.279 123.055 284.785 121.943C284.583 123.17 284.188 124.085 282.915 124.529C284.173 124.773 284.901 125.329 285.205 126.358C285.462 126.507 285.462 126.507 285.561 126.038C285.585 125.205 285.967 124.597 286.727 124.236Z" fill="white"/>
<path d="M242.319 107.885C243.302 108.055 243.623 108.87 244.059 109.709C244.497 108.745 244.416 107.467 245.86 107.226C244.542 107.019 243.849 106.268 243.464 104.897C243.264 106.221 242.956 107.221 241.754 107.584C241.94 107.684 242.13 107.785 242.319 107.885Z" fill="white"/>
<path d="M271.586 115.73C271.73 115.973 271.874 116.212 272.064 116.532C272.146 115.378 272.472 114.433 273.742 113.911C273.075 113.731 272.537 113.631 272.206 113.172C271.779 112.859 271.675 112.349 271.396 111.826C271.251 112.966 270.854 113.864 269.722 114.425C270.575 114.677 271.243 114.993 271.586 115.73Z" fill="white"/>
<path d="M259.592 110.699C260.514 110.952 260.981 111.435 261.377 112.352C261.504 111.394 261.734 110.752 262.675 110.321C261.662 110.112 261.199 109.607 260.915 108.855C260.777 109.645 260.454 110.263 259.592 110.699Z" fill="white"/>
<path d="M242.735 91.145C242.817 91.328 242.982 91.3993 243.155 91.4587C243.795 91.6207 244.021 92.2116 244.388 92.6723C244.468 92.5179 244.536 92.3831 244.605 92.2482C244.553 91.5656 245.063 91.2708 245.627 90.8718C244.724 90.6734 244.18 90.186 244.024 89.3379C243.988 89.3139 243.959 89.282 243.936 89.2455C243.842 90.0734 243.63 90.8203 242.735 91.145Z" fill="white"/>
<path d="M229.509 127.182C229.037 126.904 229.073 126.296 228.674 125.886C228.593 127.054 228.155 127.942 226.977 128.456C228.012 128.719 228.774 129.181 229.095 130.154C229.297 130.533 229.438 130.51 229.463 130.083C229.521 129.07 230.061 128.405 230.989 127.96C230.437 127.754 229.847 127.697 229.509 127.182Z" fill="white"/>
<path d="M237.882 137.257C238.896 137.477 239.335 137.993 239.754 138.838C239.897 137.946 240.128 137.283 241.054 136.875C240.09 136.677 239.589 136.184 239.286 135.133C239.126 136.167 238.874 136.826 237.882 137.257Z" fill="white"/>
<path d="M276.968 101.97C277.901 102.171 278.36 102.753 278.767 103.621C278.826 102.636 279.123 101.96 280.078 101.552C279.049 101.41 278.568 100.875 278.285 99.9502C278.101 100.848 277.816 101.536 276.968 101.97Z" fill="white"/>
<path d="M245.136 120.113C244.378 119.874 243.847 119.564 243.619 118.83C243.434 119.487 243.181 120.038 242.461 120.397C243.21 120.656 243.665 121.047 243.996 121.929C244.124 121.007 244.315 120.396 245.136 120.113Z" fill="white"/>
<path d="M268.763 139.402C268.763 139.402 268.763 139.405 268.763 139.402C269.474 139.482 269.861 139.955 270.247 140.873C270.32 139.944 270.512 139.372 271.306 139.021C270.572 138.775 270.104 138.417 269.825 137.787C269.707 138.514 269.199 138.93 268.763 139.402Z" fill="white"/>
<path d="M256.071 96.2405C255.88 97.0167 255.663 97.5667 254.765 97.9171C255.689 98.0553 256.09 98.5042 256.441 99.2186C256.65 98.5225 256.777 97.8912 257.752 97.5808C256.811 97.4233 256.408 96.9854 256.071 96.2405Z" fill="white"/>
<path d="M263.097 157.349C263.187 156.73 263.924 156.577 264.077 155.999C263.168 155.949 262.768 155.353 262.516 154.492C262.278 155.286 262.103 156.067 261.092 156.486C262.079 156.692 262.525 157.235 262.901 158C262.993 157.693 263.045 157.521 263.097 157.349Z" fill="white"/>
<path d="M257.916 131.056C257.988 131.19 258.06 131.324 258.236 131.645C258.342 130.345 258.661 129.35 260.093 128.881C258.645 128.777 258.01 128.033 257.59 126.944C257.429 128.043 256.959 128.907 255.979 129.423C256 129.445 256.015 129.475 256.039 129.494C256.063 129.512 256.094 129.526 256.121 129.544C257.022 129.692 257.58 130.239 257.916 131.056Z" fill="white"/>
<path d="M225.074 116.894C224.949 116.038 225.719 115.676 226.075 115.086C225.187 115.087 224.863 114.434 224.52 113.675C224.327 114.455 224.114 115.148 223.204 115.565C224.218 115.738 224.322 116.672 224.974 117.034C224.982 117.036 225.017 117.003 225.032 116.979C225.05 116.955 225.06 116.921 225.074 116.894Z" fill="white"/>
<path d="M243.625 152.796C243.653 151.719 243.966 151.077 244.871 150.647C243.891 150.494 243.407 149.967 243.119 149C242.971 149.953 242.67 150.63 241.792 151.053C242.757 151.279 243.222 151.849 243.625 152.796Z" fill="white"/>
<path d="M282.274 90.2022C281.665 90.0793 281.733 89.305 281.213 89.0983C280.885 88.7149 280.457 88.5497 279.97 88.5108C279.947 88.1764 280.304 88.1643 280.435 87.96C281.272 87.4776 281.336 86.5891 281.532 85.5823C281.917 86.9242 282.578 87.7263 284.067 87.846C282.777 88.3281 282.284 89.1017 282.274 90.2022Z" fill="white"/>
<path d="M296.024 109.253C296.144 109.453 296.222 109.582 296.301 109.712C296.552 110.296 297.08 110.512 297.69 110.693C296.688 110.964 296.734 111.92 296.314 112.544C296.145 112.035 295.921 111.569 295.358 111.386C295.291 111.345 295.221 111.304 295.154 111.263C295.013 111.228 294.871 111.189 294.734 111.154C294.747 111.066 294.763 110.974 294.777 110.886C295.663 110.742 295.641 109.854 296.024 109.253Z" fill="white"/>
<path d="M258.849 65.352C258.409 64.5885 257.963 63.9983 256.953 63.7818C257.931 63.3813 258.198 62.6953 258.353 61.7909C258.695 62.6536 259.095 63.2753 260.056 63.3941C259.165 63.74 259.002 64.4803 258.849 65.352Z" fill="white"/>
<path d="M274.869 75.2482C274.547 74.4833 274.194 74.0171 273.549 73.8702C273.458 73.728 273.254 73.5974 273.507 73.4268C274.211 73.1025 274.256 72.389 274.489 71.6931C274.775 72.5131 275.196 73.1284 276.095 73.3202C275.275 73.696 275.148 74.435 274.869 75.2482Z" fill="white"/>
<path d="M229.463 130.087C229.521 129.073 230.061 128.408 230.989 127.964C230.437 127.758 229.847 127.701 229.509 127.186C230.25 125.053 231.175 123.026 232.738 121.34C235.218 118.672 238.271 117.081 241.834 116.426C242.051 116.386 242.267 116.336 242.484 116.289C244.181 116.169 245.871 116.017 247.58 116.215C249.398 116.428 251.207 116.659 252.978 117.107C256.418 117.974 259.814 119.077 263.395 119.171C266.615 119.256 269.619 118.695 271.582 115.731C271.726 115.974 271.869 116.213 272.06 116.532C272.142 115.379 272.468 114.434 273.738 113.911C273.071 113.731 272.533 113.631 272.202 113.173C272.27 109.188 269.023 105.313 265.16 104.772C261.413 104.248 258.395 107.835 259.557 111.429C260.042 112.93 261.256 113.406 262.627 112.623C263.124 112.337 263.573 111.986 263.969 111.562C264.32 111.181 264.688 110.816 265.161 110.325C265.199 111.142 264.995 111.712 264.835 112.283C264.017 115.184 262.407 116.549 259.404 116.769C256.671 116.971 254.252 116.053 252.027 114.519C249.089 112.493 247.453 109.652 247.178 106.159C246.99 103.734 247.621 101.372 248.678 99.1545C250.584 95.1524 253.488 92.1012 257.427 90.0495C260.059 88.9384 262.81 88.4218 265.661 88.3769C266.858 88.4891 267.33 89.3777 267.755 90.3549C267.916 89.7874 267.827 89.1744 268.255 88.7254C268.437 88.737 268.618 88.7486 268.799 88.7602C269.582 88.9747 270.369 89.1888 271.153 89.4033C271.369 89.4892 271.585 89.5751 271.802 89.661C272.323 89.8748 272.844 90.0886 273.365 90.3025L273.39 90.281C273.486 90.4299 273.605 90.518 273.791 90.4536L273.79 90.4717C273.896 90.7555 274.159 90.8136 274.404 90.8993C274.791 91.1563 275.177 91.4132 275.563 91.6667C276.419 92.3959 277.272 93.129 278.129 93.8582C278.19 93.9111 278.251 93.9675 278.312 94.0204C279.178 95.1972 280.044 96.374 280.909 97.5508C280.913 97.6042 280.937 97.6512 280.978 97.6853C281.233 98.2473 281.492 98.8124 281.881 99.2989L282.026 99.6601C282.139 100.047 282.276 100.424 282.534 100.741C282.576 100.865 282.615 100.993 282.656 101.116L282.873 101.662C282.93 101.787 282.989 101.909 283.045 102.034C283.441 103.428 283.917 104.805 284.218 106.219C284.78 108.852 284.831 111.506 284.281 114.156L284.185 114.564L284.144 114.634L284.203 114.676C284.265 114.707 284.323 114.735 284.384 114.767C284.382 115.234 283.751 115.297 283.741 115.758C283.235 116.727 282.726 117.694 282.216 118.664C281.874 119.029 281.519 119.382 281.188 119.761C277.989 123.394 274.069 125.558 269.148 125.708C268.574 125.577 267.978 125.848 267.41 125.611L267 125.58C266.871 125.58 266.741 125.579 266.616 125.581C265.964 125.461 265.312 125.34 264.656 125.22C264.518 125.184 264.381 125.152 264.243 125.117C264.186 125.089 264.126 125.075 264.062 125.08C261.21 124.335 258.365 123.568 255.366 124.003C250.991 124.633 247.818 128.46 248.02 132.883C248.17 136.11 250.95 138.517 254.174 138.256C256.265 138.087 258.098 137.266 259.817 136.149C261.41 135.112 262.962 134.013 264.532 132.941C264.592 132.882 264.652 132.824 264.713 132.765L264.708 132.78C264.962 132.718 265.145 132.582 265.221 132.32C265.702 132.266 266.116 132.056 266.48 131.742C266.662 131.652 266.844 131.563 267.027 131.478C267.114 131.409 267.202 131.343 267.29 131.274C267.447 131.235 267.604 131.199 267.756 131.161L267.847 131.163L267.932 131.134C268.354 131.113 268.669 130.837 269.031 130.67C269.374 130.602 269.719 130.552 270.056 130.464C272.856 129.751 275.523 130.129 278.108 131.373C280.09 132.325 281.51 133.88 282.78 135.606C282.702 136.554 282.13 137.133 281.17 137.639C282.503 137.852 283.128 138.709 283.626 139.846C283.653 139.303 283.662 138.889 283.849 138.512C284.477 140.809 284.42 143.086 283.626 145.334C282.646 148.098 280.819 149.909 277.851 150.473C276.149 150.798 274.448 150.714 272.74 150.624C270.847 150.522 268.951 150.313 267.055 150.593C264.637 150.616 262.359 151.151 260.255 152.396C256.703 154.5 255.778 158.259 257.957 161.778C258.796 163.134 259.966 164.216 260.935 165.465C260.885 165.526 260.836 165.59 260.79 165.65C254.406 163.328 252.352 156.934 254.362 151.539C255.231 149.206 257.169 148.066 259.304 147.158C261.544 146.207 263.948 145.676 266.115 144.527C266.931 144.094 267.711 143.619 268.292 142.884C269.137 141.819 269.579 140.696 268.752 139.407C269.463 139.484 269.854 139.959 270.239 140.874C270.312 139.944 270.508 139.372 271.298 139.022C270.564 138.776 270.096 138.418 269.817 137.787C269.696 138.518 269.188 138.935 268.751 139.403C267.069 137.873 265.189 137.863 263.093 138.442C260.473 139.167 258.51 140.792 256.549 142.535C255.194 143.737 253.942 145.062 252.397 146.059C251.21 146.826 249.932 147.338 248.617 147.795C245.24 148.338 241.91 148.103 238.624 147.179C235.084 146.185 232.501 144.043 230.953 140.705C229.401 137.361 228.669 133.861 229.085 130.163C229.297 130.537 229.438 130.514 229.463 130.087ZM256.07 96.2407C255.879 97.017 255.662 97.5669 254.764 97.9173C255.685 98.056 256.09 98.5044 256.441 99.2188C256.649 98.5227 256.777 97.8915 257.752 97.581C256.811 97.4235 256.407 96.9856 256.07 96.2407ZM278.767 103.621C278.825 102.636 279.123 101.961 280.078 101.552C279.049 101.41 278.567 100.875 278.285 99.9504C278.104 100.848 277.819 101.536 276.971 101.966C277.9 102.168 278.359 102.749 278.767 103.621ZM243.999 121.929C244.123 121.004 244.314 120.393 245.135 120.114C244.377 119.874 243.843 119.565 243.619 118.83C243.434 119.487 243.181 120.038 242.46 120.397C243.213 120.655 243.665 121.047 243.999 121.929ZM239.75 138.838C239.893 137.95 240.124 137.283 241.05 136.875C240.086 136.678 239.584 136.181 239.282 135.134C239.126 136.167 238.873 136.826 237.878 137.258C238.896 137.48 239.335 137.993 239.75 138.838Z" fill="#FFB401"/>
<path d="M265.235 132.314L265.236 132.32L265.231 132.32L265.235 132.314Z" fill="white"/>
<path d="M244.306 101.251C244.309 101.243 244.315 101.231 244.317 101.223C244.319 101.234 244.317 101.249 244.319 101.26L244.306 101.251Z" fill="white"/>
<path d="M250.757 86.8789C249.695 89.2196 247.241 91.2803 244.026 89.3375C243.991 89.3136 243.961 89.2816 243.939 89.2452C243.023 88.4199 242.28 87.4923 242.089 86.225C241.85 84.6335 242.619 83.7796 244.223 83.8983C244.851 83.9434 245.473 84.079 246.188 84.1877C245.97 83.2867 245.445 82.7215 244.615 82.4809C242.817 81.9572 240.622 83.0887 239.953 84.8487C239.143 86.9795 239.557 88.5654 241.32 90.0277C241.785 90.4142 242.265 90.7772 242.739 91.1482C242.817 91.3316 242.981 91.403 243.158 91.4619C243.569 92.0317 243.976 92.6056 244.384 93.1794C244.469 93.3835 244.554 93.5876 244.635 93.7922L244.624 93.844L244.675 93.8731C245.589 96.376 245.194 98.8139 244.314 101.227C244.281 100.607 244.248 99.986 244.219 99.3686C244.096 96.9786 243.775 94.662 241.77 93.0059C240.686 92.1061 239.4 91.5461 238.146 90.9313C235.524 89.6527 233.794 87.7119 233.825 84.6511C233.856 81.6945 234.911 79.1967 237.5 77.5239C237.62 77.6658 237.752 77.7953 237.852 77.9507C237.948 78.1031 238.011 78.2813 238.153 78.5856C238.402 77.7907 238.388 76.9916 239.076 76.5473C239.196 76.4773 239.316 76.4074 239.435 76.3339L239.423 76.3463C240.675 76.0165 241.92 75.6484 243.23 75.6126C244.934 75.567 246.558 75.8591 247.996 76.8298C250.241 78.346 251.178 80.5943 251.479 83.1831C251.389 84.4379 251.292 85.6973 250.757 86.8789Z" fill="#FFB401"/>
<path d="M285.56 126.041C286.123 125.549 286.561 124.98 286.727 124.236C286.879 124.165 286.972 124.059 286.948 123.879C287.073 123.284 287.257 122.696 287.18 122.074C287.222 121.957 287.237 121.772 287.318 121.736C287.508 121.649 287.461 121.864 287.487 121.947C287.679 122.549 287.838 123.171 288.326 123.623C288.446 123.876 288.509 124.18 288.695 124.367C289.077 124.75 289.321 125.414 290.075 125.198C290.114 125.297 290.152 125.392 290.19 125.491C290.78 125.948 291.569 125.806 292.317 126.129C289.905 126.794 288.628 128.815 288.732 131.603C287.753 129.313 286.441 127.406 283.566 127.243C284.206 126.898 284.705 126.63 285.205 126.362C285.465 126.506 285.465 126.506 285.56 126.041Z" fill="white"/>
<path d="M261.946 80.1583C260.167 80.9287 259.349 82.1412 259.318 83.8658C259.379 83.9439 259.442 84.0179 259.503 84.096C259.165 84.4969 259.062 84.342 258.915 83.9198C258.543 82.8348 257.848 81.9942 256.802 81.4809C256.383 81.275 255.829 81.4032 255.471 80.9557C257.26 80.2306 257.975 78.8164 258.057 76.988C258.062 76.8939 257.899 76.5638 258.269 76.6973C258.304 76.822 258.338 76.9431 258.373 77.0677C258.776 78.8634 259.89 79.9099 261.946 80.1583Z" fill="white"/>
<path d="M221.48 101.63C221.492 101.507 221.501 101.383 221.513 101.26C221.548 101.064 221.579 100.87 221.614 100.675C221.68 100.282 221.749 99.8881 221.814 99.4914C221.849 99.3502 221.885 99.2126 221.916 99.0719C221.96 98.9403 222.006 98.8048 222.05 98.6733C222.349 98.0152 222.649 97.3572 222.949 96.6992C223.622 95.8545 224.277 95.0052 225.189 94.3835C228.528 92.1108 234.021 92.6414 237.162 95.4847C239.187 97.3212 239.915 99.5868 239.757 102.237C239.654 103.954 239.597 105.7 240.238 107.32C241.308 110.014 243.446 111.731 245.876 113.183C242.398 112.759 238.95 112.234 235.921 110.248L235.922 110.255C235.795 110.139 235.671 110.023 235.545 109.911C235.376 109.747 235.207 109.586 235.041 109.422C234.389 108.554 233.939 107.587 233.679 106.533C233.662 106.406 233.645 106.279 233.628 106.152C233.598 105.901 233.572 105.65 233.542 105.399C233.594 104.347 233.406 103.345 232.937 102.395C232.797 102.155 232.658 101.919 232.518 101.679C232.113 100.993 231.589 100.46 230.751 100.346L230.749 100.361C230.58 100.175 230.373 100.157 230.144 100.22L230.162 100.246C230.085 100.209 230.009 100.173 229.932 100.137C229.606 100.094 229.287 100.123 228.976 100.24C228.766 100.257 228.553 100.275 228.413 100.466C228.288 100.551 228.167 100.639 228.042 100.724C227.143 101.549 227.081 102.398 227.843 103.47C227.908 103.72 228.058 103.894 228.296 103.987C229.111 104.97 229.949 104.732 230.801 104.043C230.814 104.163 230.829 104.28 230.842 104.4C230.746 104.596 230.776 104.79 230.834 104.987C230.796 105.369 230.757 105.751 230.719 106.133C230.533 106.485 230.346 106.837 230.156 107.19C230.113 107.213 230.089 107.249 230.081 107.297C229.79 107.537 229.502 107.773 229.21 108.013C228.467 108.361 227.692 108.616 226.871 108.704C226.73 108.702 226.589 108.696 226.449 108.693L224.891 108.413C224.815 108.381 224.742 108.347 224.666 108.314C224.041 107.939 223.421 107.555 222.918 107.015C222.814 106.882 222.714 106.752 222.613 106.618C221.872 105.378 221.552 104.013 221.447 102.59C221.549 102.278 221.542 101.956 221.48 101.63Z" fill="#FFB401"/>
<path d="M229.188 88.8332C228.322 87.3654 228.127 87.1905 226.765 86.6872C227.923 86.2121 228.363 85.2839 228.552 84.1487C228.886 85.3502 229.603 86.0621 231.052 86.1765C229.663 86.6431 229.277 87.5965 229.188 88.8332Z" fill="white"/>
<path d="M244.307 101.249L244.319 101.259L244.241 101.402C244.262 101.349 244.285 101.299 244.307 101.249Z" fill="white"/>
<path d="M264.078 155.999C264.223 155.552 264.367 155.102 264.512 154.655C264.808 155.736 265.445 156.523 266.854 156.769C265.496 157.303 265.186 158.257 265.13 159.64C264.73 158.394 264.103 157.684 263.102 157.348C263.188 156.729 263.925 156.577 264.078 155.999Z" fill="white"/>
<path d="M254.687 131.065C255.407 130.649 255.89 130.203 256.122 129.547C257.022 129.692 257.58 130.239 257.916 131.056C257.19 131.509 257.215 132.339 256.944 133.154C256.527 132.054 255.824 131.394 254.687 131.065Z" fill="white"/>
<path d="M226.074 115.087C226.614 114.184 226.872 113.216 226.785 112.161L226.764 112.139C226.866 112.15 226.965 112.165 227.064 112.181C227.234 113.609 227.812 114.753 229.226 115.332C229.5 115.417 229.771 115.506 230.044 115.592C230.256 115.642 230.468 115.693 230.784 115.773C230.259 116.037 229.797 116.106 229.517 116.485C228.173 117.337 228.143 118.774 227.943 120.284C227.378 118.672 226.656 117.411 225.075 116.902C224.948 116.039 225.719 115.677 226.074 115.087Z" fill="white"/>
<path d="M218.214 122.944C218.453 123.896 218.999 124.243 219.784 124.547C218.959 124.935 218.779 125.627 218.552 126.397C218.149 125.668 217.786 125.078 216.82 124.949C217.623 124.453 217.913 123.829 218.214 122.944Z" fill="white"/>
<path d="M218.511 100.129C218.471 101.302 218.125 102.311 216.989 102.894C217.074 103.235 217.467 103.11 217.652 103.308C218.067 103.457 218.404 103.696 218.596 104.108C218.897 104.369 218.95 104.764 219.182 105.175C219.36 104.016 219.524 102.906 220.86 102.612C220.858 102.537 220.855 102.462 220.851 102.383C220.616 102.371 220.362 102.434 220.188 102.206C220.116 102.155 220.045 102.107 219.974 102.055C219.585 102.104 219.383 101.912 219.303 101.553C218.91 101.304 218.783 100.922 218.754 100.488C218.564 100.442 218.556 100.274 218.511 100.129Z" fill="white"/>
<path d="M333.56 108.687C332.126 107.047 330.366 105.764 328.755 104.314C326.679 102.445 324.562 100.621 322.495 98.7393C321.893 98.1915 321.46 98.0666 320.853 98.7371C314.897 105.337 308.928 111.921 302.948 118.499C302.595 118.891 302.432 119.258 302.702 119.743C303.368 121.036 304.616 121.77 305.649 122.688C308.206 124.959 310.742 127.251 313.343 129.474C313.664 129.751 313.947 130.093 314.431 130.079C314.881 129.9 315.051 129.424 315.405 129.147C320.979 123.076 326.455 116.917 332.029 110.846C332.624 110.199 333.332 109.605 333.56 108.687Z" fill="#FF7707"/>
<path d="M333.562 108.687C331.055 111.426 328.539 114.156 326.049 116.907C322.413 120.926 318.789 124.957 315.162 128.986C314.954 129.445 315.262 129.734 315.541 129.987C316.315 130.695 317.002 131.505 317.844 132.131C319.141 133.096 320.278 134.172 320.82 135.748C322.793 133.902 324.508 131.822 326.3 129.808C327.686 128.249 329.161 126.766 330.534 125.191C332.362 123.093 334.266 121.056 336.138 118.994C336.942 118.107 337.783 117.25 338.567 116.344C339.855 114.853 339.821 113.931 338.292 112.714C336.872 111.586 335.616 110.286 334.244 109.112C334.045 108.945 333.789 108.829 333.562 108.687Z" fill="#304858"/>
<path d="M314.418 129.955C310.794 126.753 307.17 123.55 303.54 120.356C303.283 120.128 302.985 119.946 302.707 119.746C302.017 120.521 301.33 121.292 300.64 122.067C300.46 122.709 300.997 122.96 301.343 123.266C304.84 126.349 308.34 129.428 311.833 132.514C312.443 132.907 312.873 133.539 313.574 133.807C313.771 133.835 313.977 133.818 314.13 133.693C314.672 133.24 315.121 133.287 315.647 133.784C316.158 134.269 316.48 134.689 315.969 135.353C315.829 135.538 315.846 135.798 315.962 136.023C316.169 136.361 316.475 136.604 316.789 136.827C317.813 137.548 318.643 137.448 319.434 136.508C320.233 135.561 320.234 134.684 319.357 133.846C318.042 132.59 316.633 131.439 315.259 130.252C315.023 130.043 314.758 129.888 314.418 129.955Z" fill="#F7F7E0"/>
<path d="M312.054 132.309C308.896 129.504 305.735 126.702 302.58 123.89C301.919 123.3 301.285 122.674 300.64 122.067C300.312 121.985 299.918 121.78 299.734 122.225C299.571 122.62 299.922 122.849 300.182 123.077C303.929 126.363 307.676 129.649 311.419 132.936C311.91 133.007 312.065 132.742 312.054 132.309Z" fill="#FF7707"/>
<path d="M314.418 129.955C315.984 131.339 317.553 132.724 319.109 134.117C320.007 134.919 319.986 135.346 319.133 136.355C318.457 137.157 317.784 137.333 316.975 136.558C316.67 136.265 316.324 136.013 315.996 135.741C315.536 135.742 315.249 135.903 315.366 136.429C315.739 136.767 316.087 137.137 316.483 137.443C317.718 138.398 318.692 138.292 319.719 137.109C320.099 136.67 320.453 136.206 320.816 135.752C321.08 134.262 320.016 133.485 319.082 132.712C317.687 131.556 316.326 130.378 315.158 128.99C314.786 129.212 314.554 129.549 314.418 129.955Z" fill="#253946"/>
<path d="M315.367 136.429C315.482 136.112 315.726 135.918 315.996 135.741C316.137 135.557 316.244 135.335 316.423 135.199C317.026 134.738 316.959 134.344 316.358 133.962C316.259 133.9 316.163 133.823 316.097 133.731C315.312 132.651 314.51 132.593 313.682 133.678C313.294 133.784 312.947 133.928 312.974 134.427C312.005 135.185 312.382 136.115 312.648 137.031C312.788 137.508 312.92 137.986 313.098 138.612C313.905 137.829 314.638 137.131 315.367 136.429Z" fill="#FF7707"/>
<path d="M312.97 134.427C313.206 134.176 313.442 133.925 313.678 133.678C313.135 133.223 312.592 132.764 312.05 132.309C311.838 132.521 311.628 132.728 311.416 132.94C311.935 133.434 312.455 133.932 312.97 134.427Z" fill="#253946"/>
<path d="M300.583 75.8448C301.374 75.8751 301.91 76.4103 302.156 77.0165C302.702 78.3477 303.17 79.7215 303.364 81.1646C302.784 80.8652 302.202 80.5698 301.815 80.0112C301.106 80.5122 300.33 80.7025 299.465 80.4989C299.017 79.0865 298.569 77.674 298.121 76.2616C298.925 76.0458 299.682 75.5241 300.583 75.8448Z" fill="#304858"/>
<path d="M306.976 97.184C307.633 97.2358 308.028 97.6857 308.422 98.1356C309.016 99.4496 309.446 100.811 309.663 102.24C309.268 101.599 308.632 101.329 307.951 101.126C307.176 101.054 306.488 101.42 305.758 101.579C305.359 100.235 304.962 98.8874 304.563 97.5438C305.346 97.2735 306.114 96.9225 306.976 97.184Z" fill="#304858"/>
<path d="M302.218 81.4082C302.853 81.5384 303.351 81.8739 303.721 82.4061C304.26 83.5585 304.633 84.7584 304.827 86.0182C304.372 85.3321 303.725 84.9557 302.916 84.8416C302.222 84.8952 301.555 85.0602 300.914 85.3222C300.562 84.1411 300.209 82.9601 299.857 81.7825C300.624 81.5503 301.376 81.2123 302.218 81.4082Z" fill="#304858"/>
<path d="M298.117 76.2589C292.24 78.0103 286.364 79.7652 280.485 81.506C279.891 81.6828 279.762 82.0054 279.932 82.5788C282.414 90.8121 284.881 99.0473 287.355 107.281C287.681 107.353 287.981 107.237 288.285 107.146C293.74 105.512 299.195 103.886 304.649 102.248C305.077 102.119 305.532 102.029 305.825 101.642C305.968 101.364 305.935 101.07 305.855 100.79C305.522 99.6494 305.241 98.4911 304.797 97.3833C304.217 95.0439 303.458 92.7573 302.771 90.4502C302.248 88.6993 301.796 86.9319 301.156 85.2183C300.871 84.0318 300.544 82.8544 300.103 81.7139C300.022 81.2687 299.906 80.8317 299.714 80.4193C299.48 79.2619 299.083 78.1514 298.738 77.0268C298.636 76.6957 298.457 76.4072 298.117 76.2589Z" fill="#FF7707"/>
<path d="M300.911 85.3227C306.204 102.241 302.757 95.9688 308.463 97.8967C307.13 93.6721 306.261 89.554 304.513 85.3601C303.717 84.4074 301.582 84.2736 300.911 85.3227Z" fill="#FFFAEC"/>
<path d="M305.759 101.579C299.953 103.321 294.142 105.06 288.336 106.801C287.984 106.906 287.607 106.964 287.358 107.281C287.413 107.471 287.464 107.666 287.518 107.856C287.805 108.169 288.144 108.131 288.497 107.998C294.612 106.175 300.726 104.341 306.837 102.512C307.327 102.363 307.804 102.199 308.261 102.579C308.428 102.779 308.631 102.953 308.76 103.191C309.198 104.012 308.835 104.901 307.956 105.177C307.656 105.271 307.335 105.318 307.075 105.518C306.809 105.917 306.405 105.745 306.045 105.771C305.646 105.85 305.263 105.97 304.892 106.124C304.57 106.235 304.485 106.839 303.974 106.567C299.744 107.759 295.552 109.08 291.334 110.314C290.924 110.366 290.549 110.545 290.147 110.628C289.881 110.685 289.599 110.831 289.347 110.584C289.28 110.543 289.205 110.521 289.129 110.513C288.777 110.729 288.752 111.131 288.598 111.457C288.684 111.988 288.933 112.134 289.479 111.971C295.83 110.055 302.189 108.175 308.539 106.252C310.169 105.76 310.648 103.95 309.661 102.244C309.448 101.245 308.602 101.104 307.811 100.887C307.049 100.881 306.302 100.935 305.759 101.579Z" fill="#253946"/>
<path d="M303.36 81.1654C302.605 79.8732 301.065 79.8356 299.462 80.4962C299.602 81.3538 299.866 81.6344 300.103 81.7139C300.524 81.8549 300.862 81.375 301.51 81.324C302.128 81.2769 302.674 81.6455 303.076 82.0189C303.305 82.1749 303.577 82.3252 303.684 82.239C303.84 82.1139 303.594 81.5651 303.36 81.1654Z" fill="#FFFAEC"/>
<path d="M288.297 107.83C288.036 107.84 287.775 107.85 287.514 107.856C287.872 109.054 288.234 110.252 288.593 111.454C288.965 111.282 289.283 111.074 289.105 110.581C289.279 110.46 289.274 110.285 289.253 110.101C289.223 109.933 289.192 109.761 289.124 109.601C289.081 109.438 289.045 109.274 288.981 109.121C288.941 108.961 288.894 108.799 288.837 108.641C288.803 108.52 288.779 108.394 288.724 108.279C288.645 108.067 288.542 107.883 288.297 107.83Z" fill="#304858"/>
<path d="M298.766 92.6293C298.271 90.9788 297.786 89.3234 297.281 87.6744C297 86.7602 296.647 86.5634 295.745 86.8317C293.049 87.6282 290.355 88.4317 287.662 89.2493C286.547 89.5893 286.367 89.9402 286.704 91.0839C287.609 94.1339 288.525 97.1825 289.441 100.231C289.532 100.535 289.672 100.825 289.787 101.119C289.976 101.596 290.331 101.746 290.811 101.602C293.785 100.715 296.76 99.827 299.734 98.9322C300.41 98.7264 300.441 98.2338 300.271 97.6604C299.769 95.9822 299.267 94.3075 298.766 92.6293Z" fill="#FFFAEC"/>
<path d="M290.531 84.5536C292.058 84.0973 293.58 83.6343 295.109 83.1885C295.558 83.0564 295.953 82.8417 295.8 82.3163C295.654 81.8152 295.234 81.7673 294.761 81.9134C291.712 82.8327 288.658 83.7454 285.607 84.6507C285.144 84.7882 284.816 84.9939 284.991 85.5487C285.176 86.1237 285.598 86.0311 286.03 85.9013C287.528 85.4487 289.032 85.0027 290.531 84.5536Z" fill="#FFFAEC"/>
<path d="M306.348 103.583C305.445 103.496 304.67 103.959 303.842 104.185C303.513 104.276 303.657 104.573 303.715 104.791C303.879 105.43 304.061 106.063 304.233 106.697C304.775 107.206 304.607 106.352 304.884 106.355C305.267 105.944 305.698 105.699 306.276 105.934C306.504 105.792 307.007 106.698 307.026 105.74C307.083 105.578 307.155 105.418 307.109 105.237C307.079 105.069 307.043 104.905 306.978 104.745C306.935 104.585 306.895 104.422 306.831 104.265C306.791 104.102 306.737 103.94 306.649 103.794C306.578 103.688 306.484 103.604 306.348 103.583Z" fill="#FD4D0A"/>
<path d="M306.272 105.934C305.389 105.432 305.389 105.432 304.88 106.355C305.347 106.217 305.809 106.076 306.272 105.934Z" fill="#E4EAE6"/>
<path d="M288.297 107.83C294.594 105.94 300.891 104.049 307.191 102.162C307.737 101.999 308.242 102.043 308.603 102.562C309.701 103.729 309.369 105.027 307.853 105.486C307.577 105.569 307.301 105.653 307.025 105.74C306.977 105.574 306.93 105.412 306.883 105.246C306.837 105.094 306.788 104.942 306.743 104.79L306.613 104.33C306.567 104.178 306.518 104.023 306.472 103.871C306.451 103.82 306.43 103.773 306.412 103.721C305.949 103.881 305.464 103.967 304.996 104.116C303.989 104.435 303.997 104.437 304.243 105.442C304.341 105.849 304.643 106.283 304.239 106.696C303.931 106.784 303.626 106.865 303.322 106.956C299.279 108.156 295.236 109.359 291.193 110.559C290.738 110.703 290.278 110.833 289.832 110.993C289.421 111.142 289.232 110.991 289.188 110.588L289.115 110.576C289.083 110.415 289.051 110.258 289.018 110.097C288.976 109.941 288.929 109.782 288.887 109.626C288.838 109.478 288.793 109.33 288.745 109.182C288.699 109.026 288.656 108.867 288.61 108.711C288.582 108.611 288.557 108.507 288.529 108.406C288.446 108.216 288.373 108.021 288.297 107.83Z" fill="white"/>
<path d="M203.837 182.468C203.888 182.131 203.936 181.79 203.988 181.453C204.448 181.589 204.874 181.416 205.306 181.312C205.155 181.339 205.007 181.363 204.856 181.39C204.558 181.441 204.287 181.51 204.017 181.323C204.239 180.589 204.541 179.874 204.664 179.124C204.87 177.876 205.898 177.048 206.2 175.851C206.382 175.119 206.593 174.361 207.168 173.796C207.413 173.537 207.719 173.402 208.063 173.316C211.941 172.358 215.726 171.085 219.53 169.874C221.631 169.222 223.694 168.449 225.777 167.749C229.979 166.338 234.231 165.142 238.634 164.54C239.671 164.419 240.704 164.27 241.738 164.134C242.872 163.957 244.011 164.016 245.148 164.022C250.246 164.048 255.105 165.016 259.461 167.811C260.562 168.518 261.739 169.176 262.451 170.359C262.483 170.645 262.291 170.8 262.093 170.931C260.468 172.022 259.462 173.576 258.78 175.37C258.658 175.692 258.552 176.029 258.178 176.158C257.647 176.327 257.108 176.302 256.568 176.238C252.305 175.722 248.046 175.927 243.802 176.403C240.804 176.741 237.851 177.414 234.911 178.107C231.15 178.999 227.385 179.857 223.615 180.711C222.955 180.8 222.33 181.045 221.67 181.134C216.066 181.89 210.461 182.642 204.855 183.387C204.491 183.436 204.115 183.526 203.779 183.27C203.801 183.008 203.819 182.736 203.837 182.468Z" fill="#CDB299"/>
<path d="M271.397 160.904C274.467 158.904 277.957 158.055 281.48 157.374C284.744 156.742 288.059 156.591 291.386 156.594C297.29 156.595 303.152 157.245 309.028 157.659C312.816 157.927 316.607 158.093 320.404 158.191C320.912 158.205 321.411 158.174 321.88 158.402C322.354 158.69 322.555 159.202 322.877 159.615C323.383 160.258 323.753 161.139 324.409 161.5C325.146 161.904 325.44 162.464 325.774 163.105C326.238 163.995 326.723 164.871 327.197 165.755C327.006 165.993 326.722 165.966 326.469 166.007C326.364 166.025 326.258 166.039 326.152 166.057C326.339 166.032 326.527 166.007 326.714 165.982C326.95 165.946 327.189 165.907 327.406 166.054L327.648 166.654C327.328 167.056 326.847 167.027 326.412 167.082C322.054 167.624 317.727 168.388 313.338 168.675C310.909 168.804 308.482 169.007 306.058 169.182C303.496 169.367 300.93 169.496 298.364 169.658C294.822 169.874 291.282 170.141 287.752 170.504C285.562 170.726 283.417 171.24 281.263 171.68C278.916 172.157 276.627 172.801 274.455 173.829C274.197 173.914 273.947 174.034 273.662 174.004C273.299 173.891 273.141 173.571 272.942 173.293C271.273 170.927 269.007 169.733 266.093 169.812C265.689 169.823 265.237 169.912 264.923 169.524C264.871 169.139 265 168.788 265.133 168.443C266.387 165.225 268.539 162.767 271.397 160.904Z" fill="#CDB299"/>
<path d="M233.52 146.007C231.008 144.692 228.369 143.663 225.702 142.721C223.412 141.911 221.087 141.189 218.78 140.432C217.938 140.236 217.096 140.044 216.124 139.818C216.867 141.551 217.566 143.166 218.253 144.784C218.489 145.334 219 145.129 219.372 145.144C221.937 145.245 224.495 145.426 227.048 145.679C229.233 145.896 231.408 146.2 233.56 146.652C233.789 146.7 234.015 146.809 234.261 146.712C234.265 146.205 233.682 146.33 233.52 146.007Z" fill="#BEA38D"/>
<path d="M233.52 146.007C233.54 146.478 234.161 146.316 234.261 146.708C234.635 146.874 235.015 147.027 235.431 147.047C234.898 146.508 234.176 146.318 233.52 146.007Z" fill="#92806D"/>
<path d="M258.308 176.004C257.767 176.044 257.226 176.138 256.679 176.047C247.397 177.005 238.183 178.475 228.93 179.649C227.538 179.825 226.156 180.072 224.788 180.374C224.432 180.454 224.062 180.536 223.688 180.478C217.537 181.609 211.309 182.215 205.124 183.117C204.68 183.181 204.229 183.227 203.784 183.279C202.939 183.515 202.567 183.96 202.696 184.575C202.826 185.193 203.332 185.455 204.211 185.338C221.418 183.028 238.628 180.718 255.836 178.415C256.164 178.371 256.509 178.207 256.841 178.431C257.454 178.453 258.061 178.365 258.638 178.172C259.106 178.016 259.53 177.772 259.392 177.151C259.321 176.996 259.22 176.88 259.039 177.005C258.444 177.419 258.377 177.083 258.428 176.58C258.447 176.37 258.505 176.161 258.308 176.004Z" fill="#FF7707"/>
<path d="M327.651 166.646C323.296 167.209 318.966 167.985 314.579 168.282C314.131 168.314 313.689 168.395 313.244 168.451C312.034 168.779 310.777 168.757 309.545 168.897C308.413 169.028 307.278 169.137 306.148 169.288C296.179 170.612 286.212 171.961 276.243 173.284C275.562 173.376 274.925 173.666 274.233 173.68C274.043 173.763 273.85 173.846 273.657 173.933C273.545 174.117 273.649 174.279 273.701 174.448C273.766 174.666 273.937 174.926 273.677 175.076C273.394 175.24 273.294 174.927 273.157 174.758C272.985 174.551 272.893 174.215 272.504 174.368C272.142 174.693 272.073 175.09 272.28 175.512C272.526 176.003 272.953 176.24 273.504 176.22C274.29 176.19 275.065 175.967 275.862 176.065C275.981 175.564 276.414 175.657 276.756 175.611C289.763 173.862 302.766 172.117 315.772 170.371C319.747 169.837 323.724 169.303 327.699 168.77C328.122 168.713 328.553 168.684 328.814 168.272C329.034 167.93 329.059 167.578 328.87 167.216C328.607 166.705 328.157 166.614 327.651 166.646Z" fill="#FF7707"/>
<path d="M262.689 170.366C262.586 170.401 262.483 170.437 262.376 170.473C260.268 171.765 259.097 173.747 258.308 176.008C258.285 176.187 258.285 176.37 258.24 176.541C258.146 176.891 258.115 177.244 258.491 177.423C258.951 177.642 259.048 177.212 259.22 176.941C259.719 174.364 260.891 172.177 263.401 171.143C266.894 169.705 270.743 170.833 272.688 174.35C272.833 174.597 272.974 174.847 273.125 175.089C273.285 175.344 273.487 175.587 273.817 175.395C274.107 175.227 274.128 174.933 273.999 174.634C273.895 174.397 273.774 174.165 273.66 173.929C272.511 172.115 271.062 170.664 268.961 169.977C267.675 169.553 266.364 169.528 265.038 169.634C264.871 169.861 264.621 169.794 264.395 169.821C264.073 169.889 263.752 169.961 263.431 170.029C263.18 170.139 262.936 170.25 262.689 170.366Z" fill="#FF7707"/>
<path d="M241.932 164.324C240.794 164.229 239.686 164.377 238.61 164.77C239.719 164.621 240.823 164.472 241.932 164.324Z" fill="#CAC8B4"/>
<path d="M283.55 168.723C283.455 167.934 283.36 167.146 283.265 166.362C283.308 165.555 282.975 164.788 283.018 163.985C283.013 163.867 283.004 163.746 282.999 163.625C283.119 163.45 283.108 163.29 282.955 163.138C282.82 162.158 282.685 161.178 282.546 160.198C282.473 160.139 282.391 160.118 282.297 160.134C279.844 160.438 277.475 161.072 275.19 162.015C274.897 162.137 274.59 162.228 274.36 162.467C274.298 162.544 274.291 162.627 274.335 162.715C274.809 165.787 275.283 168.863 275.783 172.107C276.298 171.61 276.686 171.235 277.078 170.859C277.403 170.708 277.683 170.494 277.929 170.239C278.01 170.17 278.078 170.093 278.151 170.018C279.734 168.405 279.077 168.565 281.122 169.429C281.317 169.54 281.54 169.542 281.751 169.586C282.412 169.644 282.942 170.079 283.624 170.268C283.777 169.903 283.571 169.55 283.619 169.209C283.706 169.032 283.695 168.865 283.55 168.723Z" fill="#FD4D0A"/>
<path d="M258.26 178.058C258.828 177.896 259.46 177.793 259.216 176.938C259.017 176.735 259.073 176.487 259.137 176.267C259.538 174.916 260.065 173.624 261.044 172.566C262.29 171.217 263.832 170.558 265.663 170.409C268.471 170.183 270.661 171.236 272.359 173.418C272.559 173.678 272.798 173.962 272.685 174.351C272.377 174.68 272.191 175.06 272.466 175.476C272.741 175.895 273.136 176.104 273.675 176C274.186 175.899 274.712 175.857 275.231 175.784C275.502 175.744 275.761 175.716 275.861 176.062C275.792 176.861 275.275 177.211 274.555 177.308C269.195 178.034 263.833 178.754 258.471 179.466C257.669 179.571 257.075 179.266 256.841 178.432C257.239 178.026 257.789 178.193 258.26 178.058Z" fill="#253946"/>
<path d="M231.358 178.698C236.702 177.424 242.043 176.147 247.554 175.824C250.599 175.645 253.647 175.602 256.678 176.043C256.489 176.295 256.198 176.24 255.947 176.274C245.504 177.679 235.06 179.085 224.615 180.479C224.312 180.52 223.994 180.667 223.687 180.475C226.242 179.884 228.805 179.306 231.358 178.698Z" fill="#304858"/>
<path d="M274.232 173.673C274.763 173.432 275.284 173.161 275.828 172.955C279.857 171.441 284.063 170.679 288.312 170.209C296.597 169.295 304.939 169.091 313.242 168.444C313.03 168.713 312.71 168.655 312.431 168.693C299.951 170.371 287.47 172.047 274.992 173.714C274.742 173.751 274.472 173.885 274.232 173.673Z" fill="#304858"/>
<path d="M282.393 160.19C281.982 159.508 281.333 159.678 280.718 159.728C278.43 160.165 276.196 160.784 274.09 161.8C273.93 162.134 273.945 162.408 274.348 162.548C276.154 161.842 277.992 161.236 279.875 160.757C280.545 160.585 281.221 160.508 281.898 160.439C282.118 160.417 282.318 160.462 282.393 160.19Z" fill="#CC3B30"/>
<path d="M220.548 171.888C223.309 170.907 226.093 169.995 228.876 169.072C232.065 168.015 235.316 167.18 238.619 166.568C243.257 165.708 247.89 165.905 252.485 166.944C253.897 167.261 255.298 167.633 256.613 168.251C255.261 168.001 253.935 167.655 252.588 167.39C249.016 166.692 245.419 166.395 241.781 166.758C237.969 167.136 234.288 168.087 230.634 169.188C225.702 170.672 220.829 172.328 215.929 173.909C214.992 174.211 214.087 174.648 213.068 174.684C215.562 173.75 218.04 172.778 220.548 171.888Z" fill="#95806D"/>
<path d="M257.019 171.145C247.707 168.613 238.571 169.803 229.507 172.517C238.55 169.353 247.672 167.842 257.019 171.145Z" fill="#95806D"/>
<path d="M254.199 173.287C246.835 172.016 239.692 173.255 232.611 175.161C239.66 172.879 246.78 171.395 254.199 173.287Z" fill="#95806D"/>
<path d="M281.466 159.516C284.091 159.157 286.712 158.816 289.371 158.735C291.933 158.661 294.492 158.687 297.051 158.8C300.141 158.935 303.207 159.346 306.288 159.597C307.759 159.715 309.219 159.936 310.687 160.113C310.522 160.25 310.365 160.285 310.209 160.27C305.058 159.748 299.905 159.347 294.72 159.293C290.629 159.249 286.575 159.542 282.546 160.197C282.495 160.194 282.441 160.194 282.391 160.193C281.865 159.915 281.243 159.999 280.715 159.732C280.929 159.527 281.208 159.551 281.466 159.516Z" fill="#95806D"/>
<path d="M283.851 165.694C286.839 165.066 289.884 164.808 292.919 164.616C295.47 164.454 298.035 164.418 300.595 164.488C302.287 164.534 303.978 164.501 305.665 164.727C298.163 164.782 290.654 164.737 283.268 166.357C283.141 165.57 283.414 165.785 283.851 165.694Z" fill="#95806D"/>
<path d="M302.927 167.354C296.45 167.523 290.008 168.064 283.625 169.208L283.549 168.719C289.969 167.725 296.412 167.003 302.927 167.354Z" fill="#95806D"/>
<path d="M282.999 163.624C282.984 163.464 282.97 163.301 282.955 163.138C283.234 162.964 283.553 162.936 283.867 162.893C287.018 162.46 290.187 162.329 293.357 162.277C295.207 162.248 297.062 162.311 298.913 162.336C293.59 162.519 288.251 162.52 282.999 163.624Z" fill="#95806D"/>
<path d="M274.087 161.8C274.092 162.076 274.165 162.332 274.345 162.548C274.342 162.603 274.338 162.657 274.335 162.715C271.589 163.773 269.449 165.634 267.555 167.831C269.001 165.026 271.321 163.17 274.087 161.8Z" fill="#95806D"/>
<path d="M278.184 169.996C279.166 169.631 280.135 169.192 281.225 169.336C281.452 169.317 281.617 169.424 281.754 169.588C280.195 170.013 278.638 170.438 277.078 170.863C277.305 170.624 277.528 170.386 277.755 170.147C277.934 170.195 278.04 170.048 278.184 169.996Z" fill="#95806D"/>
<path d="M220.789 140.6C222.473 140.859 225.043 141.29 228.15 141.951C238.599 144.172 246.096 145.845 252.9 151.186C254.558 152.486 256.929 154.596 259.324 157.798C258.686 151.386 258.812 146.082 259.076 142.293C259.305 139.022 259.486 136.57 260.243 133.218C261.304 128.539 263.09 124.119 265.364 119.888C266.574 117.635 267.84 115.421 269.129 113.215C269.43 112.701 269.748 112.446 270.399 112.75C273.224 114.066 276.065 115.341 278.903 116.623C281.087 117.608 283.277 118.586 285.46 119.564C284.257 121.012 283.058 122.466 281.895 123.944C280.222 126.072 278.573 128.218 277.025 130.445C275.845 132.144 274.625 133.82 273.488 135.546C271.03 139.27 268.706 143.076 266.663 147.047C265.181 149.925 263.734 152.824 262.783 155.94C262.047 158.352 261.693 160.802 261.758 163.318C261.762 163.515 261.897 163.824 261.621 163.904C261.625 163.907 261.625 163.911 261.63 163.917C261.851 165.565 262.072 167.213 262.31 168.984C260.566 167.156 258.927 165.44 257.288 163.724C256.95 163.798 256.771 163.46 256.572 163.264C253.66 160.357 250.616 157.594 247.454 154.973C243.738 151.891 239.765 149.166 235.412 147.039L235.423 147.045C234.771 146.683 234.055 146.463 233.395 146.121C228.905 143.994 224.249 142.313 219.493 140.9C219.411 140.875 219.187 140.787 218.874 140.678C217.762 140.288 216.815 140.006 216.114 139.816C217.146 139.983 218.781 140.252 220.789 140.6Z" fill="#F7F1E0"/>
<path d="M265.262 161.346C265.409 160.863 265.606 160.399 265.875 159.968C265.978 159.85 266.08 159.728 266.179 159.607C266.202 159.514 266.226 159.425 266.262 159.341C267.893 155.649 269.93 152.19 272.268 148.916C273.847 146.707 275.498 144.55 277.338 142.546C279.94 139.712 282.692 137.033 285.536 134.449C286.302 133.757 287.064 133.062 287.826 132.371C287.835 132.438 287.857 132.493 287.884 132.536C288.39 131.807 289.002 131.197 289.879 130.903C289.977 130.994 290.058 131.113 290.169 131.169C291.489 131.815 292.764 132.538 294.049 133.249C296.928 134.838 299.607 136.727 302.286 138.612C304.976 140.507 307.511 142.609 310.073 144.671C310.239 144.807 310.414 144.931 310.441 145.164C310.301 145.428 310.053 145.536 309.787 145.561C309.013 145.633 308.294 145.923 307.542 146.078C304.536 146.701 301.546 147.393 298.552 148.082C295.198 148.852 291.857 149.659 288.53 150.548C284.07 151.739 279.67 153.091 275.422 154.911C272.48 156.172 269.659 157.617 267.389 159.951C266.849 160.505 266.413 161.138 265.937 161.744C265.778 161.949 265.576 162.263 265.314 162.137C264.994 161.972 265.183 161.612 265.262 161.346Z" fill="#F7F1E0"/>
<path d="M264.014 169.208C264.021 168.614 263.991 168.015 264.201 167.441C264.293 167.267 264.346 167.076 264.407 166.889C264.631 164.168 265.904 161.9 267.73 159.92C269.326 158.186 271.365 157.044 273.457 155.983C277.747 153.813 282.294 152.351 286.905 151.072C289.319 150.399 291.749 149.768 294.202 149.244C296.731 148.704 299.24 148.073 301.759 147.483C302.754 147.321 303.711 146.952 304.731 146.901C304.736 146.907 304.743 146.91 304.748 146.917C304.758 146.883 304.767 146.846 304.784 146.808C305.413 146.468 306.125 146.39 306.8 146.199C307.143 146.103 307.498 145.937 307.854 146.176C307.879 146.342 307.972 146.466 308.104 146.567C310.602 148.505 312.964 150.602 315.36 152.658C317.558 154.547 319.777 156.407 321.877 158.406C318.839 158.473 315.804 158.32 312.779 158.133C307.507 157.806 302.243 157.353 296.97 156.994C293.355 156.746 289.732 156.719 286.118 156.992C283.028 157.227 279.973 157.785 276.995 158.673C274.016 159.561 271.266 160.861 269.012 163.074C267.126 164.925 265.665 167.025 265.034 169.631C264.941 170.006 264.663 169.972 264.38 169.924C264.079 169.774 264.011 169.506 264.014 169.208Z" fill="#F7F1E0"/>
<path d="M262.254 166.107C262.279 165.87 262.316 165.635 262.338 165.399C261.9 162.398 262.137 159.428 262.941 156.5C264.138 152.141 266.341 148.235 268.507 144.321C270.273 141.127 272.148 137.988 274.169 134.948C275.942 132.282 277.722 129.615 279.713 127.103C280.401 126.152 281.074 125.192 281.866 124.321C281.852 124.301 281.836 124.285 281.825 124.262C282.277 123.21 283.095 122.453 283.91 121.697C283.92 121.689 283.958 121.709 283.985 121.716C284.109 121.893 284.276 122.015 284.481 122.091C287.842 123.364 291.001 125.052 294.148 126.763C293.969 127.139 293.636 127.364 293.332 127.62C288.36 131.804 283.447 136.051 278.848 140.652C275.835 143.664 273.177 146.962 270.844 150.515C268.511 154.068 266.466 157.787 264.972 161.78C264.059 164.22 263.293 166.704 263.543 169.371C263.569 169.641 263.647 169.986 263.207 170.049C262.888 169.926 262.861 169.617 262.772 169.349C262.429 168.296 262.319 167.208 262.254 166.107Z" fill="#F7F1E0"/>
<path d="M207.446 172.979C209.385 169.087 211.37 165.218 213.225 161.288C213.793 160.084 214.606 159.425 215.787 158.958C218.803 157.766 221.856 156.713 224.966 155.79C226.76 155.258 228.549 154.666 230.375 154.349C232.973 153.896 235.589 153.469 238.259 153.556C241.104 153.652 243.882 154.055 246.558 155.039C246.773 155.118 248.03 155.783 248.078 155.791C248.289 155.946 248.519 156.084 248.715 156.258C250.384 157.766 252.078 159.252 253.706 160.804C255.713 162.722 257.692 164.672 259.509 166.777C260.683 167.87 261.736 169.072 262.689 170.363C262.611 170.481 262.508 170.513 262.376 170.469C262.108 170.182 261.867 169.862 261.568 169.611C259.325 167.761 256.834 166.389 254.042 165.529C250.08 164.308 246.035 164.046 241.932 164.324C240.811 164.348 239.703 164.501 238.611 164.769C236.957 164.977 235.351 165.401 233.72 165.724C230.422 166.375 227.299 167.574 224.102 168.545C222.566 169.013 221.117 169.732 219.538 170.07C218.91 170.424 218.199 170.533 217.529 170.756C214.109 171.89 210.663 172.935 207.168 173.799C207.17 173.494 207.316 173.24 207.446 172.979Z" fill="#F7F3E0"/>
<path d="M277.754 170.144C278.691 170.215 279.491 169.666 280.387 169.546C280.67 169.508 280.947 169.406 281.225 169.333C280.77 168.949 280.176 168.856 279.674 168.568C279.354 168.384 279.189 168.647 279.012 168.829C278.588 169.263 278.174 169.707 277.754 170.144Z" fill="#CDB098"/>
<path d="M294.149 126.767C282.359 135.49 260.242 157.646 264.002 170.082C264.732 168.932 264.136 166.02 265.29 164.151C270.812 151.001 302.782 148.682 310.612 145.472C294.943 148.074 270.213 153.631 265.344 162.086C271.743 145.061 284.587 136.825 294.149 126.767Z" fill="#AD9680"/>
<path d="M257.29 163.717C250.838 157.435 243.849 150.82 235.419 147.038C252.037 155.471 265.669 176.187 262.875 168.865C258.921 151.641 277.746 130.732 284.387 121.231C284.869 120.886 286.177 118.724 284.722 120.145C272.421 135.71 258.794 154.388 261.976 167.836C262.89 170.393 258.819 164.126 257.29 163.717Z" fill="#92806D"/>
<path d="M216.191 86.4471C215.899 85.8254 215.467 85.3662 214.803 85.1033C210.192 83.2762 205.587 81.4376 200.989 79.5764C200.514 79.3816 200.279 79.4526 200.122 79.9119C199.772 80.2534 199.578 80.6817 199.401 81.1258C196.837 87.5615 194.272 93.9973 191.682 100.422C191.507 100.859 191.252 101.288 191.384 101.795C191.572 102.204 191.977 102.304 192.338 102.45C196.515 104.148 200.711 105.798 204.898 107.466C205.866 107.85 206.766 108.239 207.067 109.359C207.095 109.459 207.197 109.524 207.296 109.565C207.786 109.413 207.83 108.94 207.985 108.568C209.712 104.356 211.36 100.112 213.079 95.8981C214.028 93.569 214.957 91.2317 215.88 88.8954C216.073 88.4061 216.284 87.9145 216.337 87.3793C216.43 87.0508 216.391 86.7363 216.191 86.4471Z" fill="#FFFAEC"/>
<path d="M219.746 87.1334C219.351 86.892 218.922 86.7268 218.468 86.6333C218.282 86.7229 218.219 86.8965 218.149 87.0712C216.5 91.3835 214.727 95.6515 213.029 99.9453C211.963 102.635 210.837 105.3 209.809 108.003C209.655 108.408 209.511 108.804 209.754 109.224C209.964 109.526 210.292 109.644 210.611 109.774C214.751 111.438 218.898 113.076 223.046 114.721C223.472 114.89 223.911 115.19 224.401 114.855C224.935 114.201 225.123 113.382 225.424 112.627C227.871 106.52 230.325 100.418 232.756 94.3019C232.923 93.8844 233.119 93.4702 233.038 92.9998C233.062 92.7523 233.334 92.5004 232.856 92.3131C229.163 90.8764 225.481 89.413 221.797 87.9572C221.538 88.0386 221.447 88.2664 221.357 88.4832C220.782 89.8966 220.206 91.3135 219.638 92.7295C219.531 92.9989 219.442 93.2766 219.54 93.5724C219.742 93.9296 220.117 94.0193 220.459 94.1566C222.987 95.1929 225.532 96.1875 228.058 97.2313C225.584 96.2846 223.13 95.2887 220.673 94.3039C220.262 94.1399 219.862 93.8848 219.384 93.9668C218.961 94.2714 218.823 94.6851 218.915 95.1863C219.452 95.8363 220.266 95.9891 220.99 96.2656C223.138 97.0907 225.248 98.0106 227.397 98.8393C225.151 97.9841 222.91 97.1069 220.683 96.2026C220.052 95.946 219.445 95.6001 218.74 95.5654C218.305 95.8608 218.17 96.2741 218.249 96.7772C218.511 97.234 219.001 97.3479 219.434 97.5267C221.748 98.4625 224.062 99.3947 226.389 100.3C226.488 100.337 226.589 100.37 226.692 100.496C224.23 99.5265 221.826 98.5311 219.4 97.5924C218.964 97.4246 218.548 97.1356 218.035 97.2728C217.662 97.5994 217.5 98.0018 217.588 98.4965C217.959 98.9602 218.525 99.0748 219.033 99.2724C221.175 100.109 223.297 101.006 225.453 101.808C225.642 101.88 225.843 101.936 226.111 102.162C223.508 101.136 221.055 100.1 218.558 99.1601C218.191 99.0226 217.841 98.8002 217.417 98.8786C216.994 99.1797 216.851 99.5868 216.954 100.09C217.259 100.545 217.773 100.652 218.233 100.838C220.634 101.809 223.043 102.757 225.433 103.751C222.86 102.781 220.317 101.722 217.76 100.711C217.444 100.585 217.142 100.392 216.774 100.488C216.384 100.799 216.182 101.189 216.279 101.696C216.449 102.033 216.788 102.142 217.103 102.272C219.674 103.328 222.273 104.304 224.83 105.39C222.483 104.527 220.176 103.562 217.85 102.646C217.293 102.426 216.766 102.066 216.121 102.156C215.797 102.501 215.347 102.734 215.198 103.228C215.351 103.509 215.632 103.601 215.905 103.704C218.614 104.774 221.323 105.843 224.013 106.958C220.757 105.696 217.528 104.366 214.256 103.146C214.015 103.092 213.783 103.152 213.555 103.222C214.36 101.404 215.062 99.543 215.799 97.6985C217.055 94.5524 218.318 91.4089 219.575 88.2663C219.71 87.9105 219.935 87.5499 219.746 87.1334Z" fill="white"/>
<path d="M233.038 92.9997C231.152 97.6851 229.262 102.371 227.379 107.059C226.353 109.614 225.334 112.168 224.312 114.723C224.013 115.284 223.568 115.096 223.144 114.941C221.704 114.405 220.283 113.809 218.856 113.239C216.194 112.178 213.536 111.112 210.878 110.047C210.027 109.705 209.205 109.628 208.333 109.989C207.592 110.297 206.582 109.872 206.287 109.115C205.984 108.333 205.445 107.877 204.685 107.573C200.625 105.938 196.554 104.337 192.499 102.69C192.047 102.506 191.489 102.42 191.464 101.751C193.787 95.9263 196.113 90.1007 198.432 84.2725C199.006 82.8234 199.562 81.3695 200.125 79.9148C199.404 79.5195 199.028 79.7459 198.725 80.5122C195.931 87.5894 193.099 94.6538 190.282 101.723C189.916 102.638 189.958 102.737 190.907 103.116C195.095 104.784 199.279 106.46 203.474 108.102C204.103 108.348 204.48 108.614 204.451 109.386C204.424 110.119 204.825 110.697 205.55 110.988C206.29 111.284 207.013 111.611 207.764 111.876C208.458 112.124 209.457 111.828 209.819 111.205C210.067 110.777 210.286 110.826 210.643 110.972C213.174 111.998 215.71 113.015 218.246 114.025C220.095 114.761 221.959 115.452 223.792 116.229C224.543 116.549 224.866 116.365 225.152 115.63C226.218 112.887 227.336 110.161 228.432 107.432C230.15 103.15 231.841 98.8605 233.593 94.5918C233.918 93.8011 233.869 93.3047 233.038 92.9997Z" fill="#FF7707"/>
<path d="M209.893 109.159C209.774 108.837 209.859 108.557 209.982 108.242C211.382 104.678 212.874 101.148 214.237 97.5671C215.433 94.4291 216.765 91.3445 218.037 88.2393C218.248 87.7225 218.414 87.1903 218.468 86.6334C217.934 86.346 217.426 86.5506 216.918 86.7301C216.466 86.6004 216.393 87.0232 216.178 87.2389C215.464 89.3102 214.603 91.3258 213.798 93.3591C212.923 95.5669 212.021 97.764 211.161 99.977C210.026 102.899 208.834 105.799 207.665 108.707C207.547 109 207.413 109.287 207.286 109.574C207.226 109.876 207.468 109.782 207.551 109.728C208.208 109.267 208.934 109.194 209.704 109.278C209.773 109.283 209.843 109.219 209.893 109.159Z" fill="#E0E3CD"/>
<path d="M216.179 87.2342C216.55 87.2454 216.645 86.8559 216.918 86.726C216.737 86.474 216.439 86.5284 216.191 86.4468C216.187 86.7093 216.183 86.9717 216.179 87.2342Z" fill="#656FCB"/>
<path d="M209.893 109.159C208.962 108.835 208.108 108.899 207.382 109.643C207.372 109.655 207.332 109.65 207.317 109.641C207.297 109.626 207.293 109.598 207.282 109.574C207.195 108.465 206.577 107.851 205.549 107.447C201.051 105.687 196.576 103.878 192.091 102.081C191.874 101.995 191.674 101.864 191.464 101.752C191.032 102.356 191.418 102.555 191.926 102.756C196.212 104.462 200.489 106.187 204.781 107.881C205.46 108.149 205.871 108.589 206.074 109.273C206.306 110.061 207.72 110.64 208.426 110.247C209.071 109.887 209.721 109.857 210.412 110.135C214.669 111.84 218.939 113.512 223.186 115.248C223.885 115.535 224.199 115.464 224.319 114.722C224.092 114.961 223.866 114.776 223.665 114.695C219.144 112.896 214.622 111.089 210.103 109.282C210.024 109.253 209.96 109.2 209.893 109.159Z" fill="#E0E3CD"/>
<path d="M221.404 90.4917C221.266 90.7795 221.006 91.0874 221.594 91.3174C224.187 92.327 226.772 93.3592 229.358 94.3914C229.688 94.5231 229.885 94.5147 230.04 94.1419C230.199 93.747 229.996 93.6054 229.7 93.4836C227.14 92.4586 224.584 91.4297 222.022 90.4123C221.832 90.3337 221.618 90.2402 221.404 90.4917Z" fill="#E0E3CD"/>
<path d="M211.496 105.625C211.313 106.056 211.644 106.112 211.909 106.216C213.432 106.827 214.956 107.445 216.479 108.056C218.571 108.892 220.659 109.725 222.756 110.547C222.961 110.627 223.252 110.943 223.417 110.519C223.575 110.113 223.147 110.113 222.95 110.032C219.39 108.592 215.825 107.17 212.253 105.75C212.021 105.655 211.778 105.508 211.496 105.625Z" fill="#E0E3CD"/>
<path d="M223.992 108.57C223.052 108.179 222.179 107.801 221.295 107.453C218.445 106.323 215.588 105.201 212.732 104.08C212.535 104.002 212.299 103.743 212.131 104.096C211.962 104.449 212.302 104.489 212.499 104.567C215.69 105.849 218.883 107.126 222.076 108.4C222.592 108.607 223.108 108.811 223.627 109.007C223.767 109.06 223.94 109.141 224.042 108.944C224.129 108.785 224.102 108.638 223.992 108.57Z" fill="#E0E3CD"/>
<path d="M210.82 107.285C210.632 107.756 211.025 107.771 211.265 107.868C212.69 108.446 214.12 109.008 215.551 109.578C217.695 110.428 219.84 111.283 221.983 112.126C222.207 112.215 222.528 112.488 222.677 112.155C222.851 111.762 222.409 111.71 222.166 111.613C218.596 110.182 215.027 108.757 211.45 107.348C211.264 107.272 211.044 107.029 210.82 107.285Z" fill="#E0E3CD"/>
<path d="M215.201 103.142C214.854 103.102 214.538 103.209 214.228 103.333C217.498 104.647 220.765 105.962 224.037 107.268C224.238 107.349 224.535 107.553 224.662 107.241C224.808 106.881 224.436 106.837 224.204 106.746C221.2 105.54 218.201 104.341 215.201 103.142Z" fill="#E0E3CD"/>
<path d="M216.385 101.689C216.299 101.881 216.214 102.072 216.128 102.266C218.814 103.324 221.5 104.383 224.186 105.441C224.406 105.526 224.633 105.607 224.856 105.689C225.041 105.757 225.247 105.952 225.387 105.635C225.523 105.33 225.265 105.282 225.075 105.207C223.92 104.74 222.763 104.285 221.607 103.815C219.863 103.108 218.126 102.397 216.385 101.689Z" fill="#E0E3CD"/>
<path d="M219.629 93.5674C219.562 93.7345 219.494 93.898 219.426 94.0616C222.297 95.217 225.169 96.3725 228.037 97.5319C228.25 97.6183 228.481 97.8352 228.627 97.478C228.768 97.1358 228.471 97.093 228.254 97.0071C225.377 95.8632 222.503 94.7153 219.629 93.5674Z" fill="#E0E3CD"/>
<path d="M217.668 98.4748C217.597 98.6389 217.526 98.8029 217.454 98.9669C220.306 100.107 223.161 101.247 226.012 102.387C226.232 102.472 226.499 102.638 226.634 102.336C226.783 101.996 226.43 101.965 226.233 101.887C223.377 100.744 220.523 99.611 217.668 98.4748Z" fill="#E0E3CD"/>
<path d="M218.988 95.1691C218.924 95.3357 218.861 95.5023 218.793 95.6659C221.093 96.607 223.39 97.5487 225.692 98.4824C226.255 98.7121 226.826 98.9229 227.394 99.1376C227.594 99.2113 227.839 99.4585 227.988 99.0973C228.135 98.7436 227.782 98.7084 227.595 98.6328C225.858 97.9249 224.109 97.2366 222.366 96.5367C221.242 96.0842 220.117 95.6246 218.988 95.1691Z" fill="#E0E3CD"/>
<path d="M218.35 96.7781C218.265 96.9728 218.179 97.1674 218.094 97.362C220.921 98.4803 223.744 99.5956 226.571 100.71C226.798 100.798 227.102 101.056 227.254 100.712C227.406 100.372 227.02 100.309 226.791 100.214C224.098 99.1243 221.401 98.0388 218.707 96.9493C218.585 96.901 218.469 96.834 218.35 96.7781Z" fill="#E0E3CD"/>
<path d="M217.025 100.084C216.958 100.248 216.89 100.411 216.822 100.575C219.713 101.745 222.605 102.916 225.496 104.087C225.687 104.165 225.906 104.33 226.019 104.017C226.168 103.602 225.762 103.599 225.564 103.517C223.162 102.54 220.752 101.584 218.348 100.625C217.904 100.447 217.466 100.262 217.025 100.084Z" fill="#E0E3CD"/>
<path d="M229.23 95.5257C228.917 95.3881 228.603 95.2435 228.285 95.1175C225.977 94.1989 223.672 93.2763 221.356 92.3767C221.162 92.3021 220.853 91.9556 220.701 92.3712C220.582 92.6889 220.923 92.7975 221.17 92.8937C223.701 93.8973 226.229 94.9048 228.763 95.9008C228.927 95.9651 229.138 96.2025 229.316 95.9201C229.401 95.7793 229.437 95.6165 229.23 95.5257Z" fill="#E0E3CD"/>
<path d="M219.746 87.1333C217.577 92.5463 215.407 97.9594 213.229 103.388C213.428 103.455 214.049 103.637 214.786 103.398C215.581 103.137 215.981 102.559 216.091 102.386C216.8 100.868 217.502 99.2945 218.184 97.662C219.595 94.3012 220.786 91.0524 221.797 87.9571C221.143 87.6067 220.454 87.3436 219.746 87.1333Z" fill="#304858"/>
<path d="M178.54 127.289C181.227 124.418 183.909 121.536 186.591 118.658C187.92 117.155 189.277 115.676 190.725 114.285C191.203 113.988 191.397 114.443 191.632 114.667C194.042 116.965 196.441 119.283 198.836 121.598C202.295 124.937 205.714 128.322 209.217 131.615C209.555 131.933 209.941 132.24 209.965 132.769C209.943 132.926 209.899 133.083 209.797 133.201C208.688 134.474 207.535 135.706 206.333 136.895C206.177 137.048 205.995 137.159 205.771 137.128C205.742 137.577 205.457 137.892 205.167 138.197C202.582 140.943 199.99 143.687 197.38 146.411C197.166 146.634 196.977 146.911 196.61 146.881C190.584 140.75 184.562 134.62 178.53 128.497C178.096 128.052 178.147 127.708 178.54 127.289ZM190.526 136.947C191.552 137.923 192.505 138.977 193.477 140.007C194.328 140.909 194.425 140.914 195.26 140.04C196.985 138.246 198.681 136.427 200.398 134.627C200.798 134.207 201.162 133.731 201.723 133.494C201.696 133.164 201.989 132.963 202.178 132.736C202.733 132.055 203.378 131.451 203.974 130.807C204.429 130.315 204.452 129.92 203.927 129.463C203.052 128.7 202.267 127.836 201.418 127.048C199.739 125.492 199.751 125.501 198.152 127.185C197.756 127.605 197.471 128.217 196.78 128.256C196.808 128.791 196.407 129.097 196.087 129.438C194.227 131.408 192.397 133.406 190.534 135.37C189.998 135.933 189.917 136.368 190.526 136.947Z" fill="#FF7707"/>
<path d="M191.57 113.385C191.687 113.237 191.788 113.08 191.917 112.94C193.436 111.303 194.234 111.282 195.832 112.828C198 114.925 200.168 117.023 202.333 119.124C206.097 122.778 209.861 126.436 213.626 130.093C213.658 130.28 213.551 130.42 213.403 130.439C212.469 130.55 211.81 131.185 211.055 131.635C210.992 131.647 210.935 131.651 210.878 131.655C210.581 132.061 210.137 132.343 209.848 132.759C207.579 130.55 205.313 128.339 203.044 126.13C201.292 124.429 199.54 122.725 197.778 121.032C195.431 118.779 193.075 116.535 190.721 114.289C190.942 113.926 191.221 113.623 191.57 113.385Z" fill="#304858"/>
<path d="M212.331 131.532C212.743 131.096 213.215 131.05 213.634 131.414C213.713 131.414 213.796 131.418 213.881 131.431C215.317 132.122 215.533 133.084 214.518 134.252C213.712 135.179 212.827 136.03 211.988 136.926C208.392 140.76 204.796 144.59 201.179 148.405C200.826 148.775 200.525 149.286 199.885 149.229C199.361 148.703 198.842 148.176 198.319 147.654C198.111 147.47 197.906 147.282 197.701 147.097C202.578 141.906 207.446 136.709 212.331 131.532Z" fill="#FFFAEC"/>
<path d="M201.775 133.699C202.681 132.712 203.574 131.708 204.501 130.743C204.905 130.323 204.968 129.995 204.512 129.567C203.143 128.282 201.777 126.993 200.449 125.666C199.914 125.131 199.558 125.182 199.079 125.735C198.323 126.609 197.494 127.421 196.694 128.261C194.434 130.701 192.196 133.164 189.899 135.566C189.414 136.073 189.49 136.35 189.91 136.775C191.233 138.117 192.562 139.454 193.834 140.846C194.327 141.386 194.579 141.231 195.001 140.782C197.247 138.405 199.515 136.057 201.775 133.699Z" fill="white"/>
<path d="M210.612 139.413C211.907 137.738 216.166 134.321 215.821 132.715C215.27 131.123 213.495 129.328 211.781 130.722C209.303 132.822 207.551 135.323 205.128 137.721C202.495 141.077 198.615 143.781 196.799 147.089C198.374 148.009 201.059 143.41 202.106 142.781C205.312 139.413 208.352 136.175 211.541 132.791C212.129 132.241 212.568 131.313 213.543 131.509C216.631 132.829 213.468 134.64 212.277 136.158C208.108 140.891 203.418 144.954 199.721 149.8C199.809 152.008 210.86 139.631 210.612 139.413Z" fill="#253946"/>
<path d="M272.735 71.9291C272.277 73.0932 271.818 74.2539 271.357 75.4185C271.241 75.6567 271.239 75.9049 271.315 76.1497C271.642 77.1689 271.233 77.8955 270.527 78.6332C269.563 79.6461 268.548 79.9763 267.272 79.3358C265.514 79.4353 263.932 80.2008 262.296 80.7293C257.423 82.3028 252.545 83.8698 247.674 85.454C244.964 86.3384 242.254 87.2123 239.539 88.0831C239.16 88.2058 238.779 88.3108 238.484 88.6018C238.042 88.7617 237.606 88.9423 237.161 89.0775C236.722 89.2083 236.39 89.4325 236.566 89.9188C236.725 90.3537 237.129 90.2815 237.497 90.1638C239.737 89.4466 241.979 88.7289 244.219 88.0117C251.422 85.7015 258.626 83.3984 265.825 81.0782C266.427 80.8823 266.971 80.7842 267.599 81.0447C270.01 82.0392 273.684 78.5973 272.855 76.1153C272.645 75.4827 272.658 74.9169 273.056 74.3751C273.973 73.4906 274.303 72.3903 274.258 71.1499C277.481 63.0382 280.708 54.9259 283.931 46.8106C284.081 46.4348 284.269 45.9893 283.784 45.7707C283.237 45.528 283.034 45.9683 282.87 46.4034C282.689 46.8732 282.477 47.3325 282.28 47.7936C281.9 48.0421 281.707 48.4201 281.546 48.826C279.025 55.238 276.429 61.6206 273.957 68.0511C273.757 68.9401 273.253 69.7117 272.969 70.5652C272.821 71.0125 272.605 71.4401 272.735 71.9291Z" fill="#FF7707"/>
<path d="M274.258 71.1496C273.856 72.2236 273.458 73.3007 273.056 74.3747C274.406 75.8169 275.754 77.2596 277.167 78.7688C277.527 78.0775 276.992 77.2479 277.497 76.9465C277.953 76.677 278.673 76.8462 279.556 76.8103C277.685 74.8094 275.973 72.981 274.258 71.1496Z" fill="#304858"/>
<path d="M278.444 49.5942C278.59 49.3412 278.731 49.1103 279.04 49.0006C280.127 48.6106 281.203 48.1967 282.284 47.793C279.578 54.6394 276.875 61.4853 274.168 68.3317C272.744 68.6198 271.6 68.0478 270.555 67.168C272.468 60.9921 275.251 55.2021 278.444 49.5942Z" fill="#F7F7E0"/>
<path d="M238.794 87.9349C239.301 86.175 240.212 84.8999 242.14 84.3573C243.941 83.8498 245.634 82.976 247.39 82.2985C252.967 80.1529 258.537 77.9936 264.411 76.7562C264.642 76.7073 264.951 76.7914 265.203 76.42C262.422 76.5778 259.857 77.1951 257.32 77.9451C251.649 79.6257 246.166 81.7948 240.787 84.2336C240.506 84.3611 240.11 84.7591 239.868 84.2385C239.686 83.8498 240.13 83.8047 240.37 83.6969C247.188 80.6591 254.07 77.7994 261.4 76.1942C261.592 76.1505 261.923 76.2605 261.959 75.8354C261.615 75.8385 261.294 75.8313 260.973 75.8492C255.982 76.0881 251.155 77.2317 246.373 78.5739C244.247 79.1682 242.154 79.8801 240.042 80.5264C239.797 80.6024 239.459 80.8452 239.327 80.3925C239.225 80.0362 239.57 80.0114 239.783 79.9075C239.88 79.8585 239.989 79.8403 240.092 79.8049C245.766 77.9047 251.501 76.2513 257.457 75.4843C258.756 75.317 260.068 75.2128 261.373 75.0808C261.098 74.9093 260.822 74.8602 260.547 74.8468C256.297 74.6056 252.076 74.989 247.88 75.6096C245.265 75.9965 242.673 76.5204 240.067 76.9672C239.828 77.0064 239.473 77.2768 239.337 76.8281C239.168 76.2653 239.673 76.3879 239.937 76.3201C240.531 76.1686 241.137 76.0478 241.743 75.9341C248.165 74.7345 254.605 73.7551 261.172 74.2026C262.405 74.2849 263.629 74.5122 265.099 74.7028C262.816 73.3067 260.658 72.2207 258.438 71.2545C253.316 69.0218 248.018 67.2977 242.64 65.8035C242.33 65.7193 241.771 65.7549 241.925 65.217C242.06 64.7534 242.483 65.0666 242.759 65.1374C245.811 65.9274 248.819 66.8669 251.79 67.9084C256.926 69.7082 261.951 71.7563 266.648 74.8971C266.022 73.5481 265.408 72.4021 264.941 71.1969C262.379 64.6123 261.402 57.7072 260.873 50.7168C260.84 50.283 260.822 49.8509 260.799 49.4157C260.79 49.2374 260.772 49.0278 261.016 48.9987C261.257 48.97 261.445 49.0632 261.472 49.3398C261.49 49.5564 261.494 49.775 261.512 49.9916C261.91 55.7102 262.673 61.3725 264.228 66.907C264.406 67.5333 264.608 68.1527 264.809 68.7722C264.994 69.3472 265.197 69.9198 265.396 70.4929C264.159 63.4718 263.947 56.4282 264.144 49.3583C264.153 48.9979 263.86 48.3152 264.519 48.3238C265.098 48.3322 264.784 48.9634 264.79 49.3003C264.821 51.7242 264.752 54.1543 264.829 56.5756C265.003 61.9721 265.313 67.3612 266.887 72.5772C267.106 73.302 267.283 74.0541 267.866 74.7301C268.011 73.1374 268.089 71.6579 268.288 70.1945C269.277 62.9213 271.268 55.8836 273.397 48.8813C273.494 48.5629 273.41 47.8775 273.979 48.0525C274.526 48.2162 274.085 48.7351 274.024 49.0845C273.958 49.4741 273.8 49.8473 273.686 50.229C271.94 56.0987 270.336 61.9998 269.3 68.0437C269.03 69.6208 268.775 71.203 268.931 72.8416C269.136 72.0921 269.336 71.3396 269.541 70.5902C270.828 70.597 272.002 70.8813 272.835 71.9727C272.738 73.3363 272.232 74.5464 271.469 75.6617C270.118 76.626 268.716 77.5325 267.71 78.8995C267.658 78.9388 267.605 78.9711 267.548 79.0038C267.573 79.2447 267.341 79.3872 267.139 79.5436C261.832 81.2329 256.526 82.9257 251.215 84.6083C246.975 85.9496 242.734 87.2803 238.49 88.6185C238.588 88.3792 238.691 88.157 238.794 87.9349Z" fill="#F7F7E0"/>
<path d="M274.165 68.3318C272.916 68.0756 271.749 67.575 270.552 67.1682C269.995 68.2378 269.733 69.3936 269.536 70.573C270.594 71.0416 271.749 71.2925 272.736 71.9286C273.23 70.7381 273.815 69.582 274.165 68.3318Z" fill="#304858"/>
<path d="M267.428 78.7327C267.331 79.0008 267.23 79.2657 267.133 79.5302C268.363 80.2918 269.259 80.2434 270.244 79.3676C271.99 77.8151 272.168 77.1842 271.356 75.4148C269.772 76.1949 268.43 77.2585 267.428 78.7327Z" fill="#304858"/>
</g>
<path d="M615.717 202.842C613.932 205.246 611.738 207.389 609.119 209.105C608.576 209.461 606.587 209.214 607.553 208.58C609.996 206.979 612.121 204.963 613.864 202.662L596.75 200.624L591.327 188.535L589.205 199.725L450.65 183.234L452.134 171.154L443.311 182.355L420.168 179.498C420.838 180.521 421.59 181.482 422.461 182.33C422.725 182.586 420.888 183.18 420.483 182.785C419.4 181.732 418.484 180.508 417.691 179.193L409.376 178.167C409.376 178.167 410.055 171.546 412.529 164.106C412.255 162.495 412.034 160.875 411.936 159.252C411.425 150.747 415.557 143.187 421.713 137.632C429.066 130.994 438.637 128.368 447.831 125.559C450.067 124.876 452.351 124.184 454.595 123.383C457.085 121.603 459.501 119.729 461.745 117.644C466.819 112.926 470.325 107.126 473.773 101.14C474.735 99.4696 475.715 97.8025 476.736 96.1645C495.136 51.9133 534.231 69.122 534.231 69.122C554.071 63.5213 569.912 81.8106 577.142 103.067C581.492 115.856 579.061 127.484 582.521 139.805C583.268 141.206 584.073 142.577 585.012 143.877C593.604 155.763 608.966 160.321 616.923 172.828C622.557 181.683 622.142 192.694 616.937 201.053C616.366 202.088 615.849 202.695 615.717 202.842ZM459.389 121.405C460.376 120.93 461.347 120.421 462.279 119.849C464.695 118.367 466.835 116.497 468.761 114.414C470.226 111.886 471.615 109.1 472.92 106.033C469.935 110.871 466.586 115.314 462.263 119.081C461.331 119.893 460.358 120.646 459.389 121.405ZM414.089 159.954C416.553 154.099 420.218 148.392 425.623 145.541C426.438 145.11 427.288 144.7 428.166 144.297C428.287 144.137 428.407 143.975 428.529 143.817C434.972 135.661 444.013 130.66 452.44 124.892C451.466 125.205 450.491 125.51 449.522 125.808C439.963 128.748 430.012 131.374 422.595 138.614C419.211 141.916 416.483 145.975 414.956 150.506C413.923 153.573 413.811 156.764 414.089 159.954ZM466.219 118.451C465.151 119.246 464.054 119.998 462.887 120.645C460.918 121.736 458.837 122.626 456.717 123.419C453.167 125.987 449.477 128.361 445.843 130.802C440.886 134.132 435.66 138.115 431.528 142.84C442.042 138.482 455.582 134.038 466.219 118.451ZM618.648 191.708C618.849 190.554 618.981 189.383 619.017 188.195C619.243 180.775 616.237 174.039 611.311 168.691C606.516 163.487 600.513 159.724 594.872 155.576C591.439 153.052 588.154 150.333 585.34 147.179C588.26 153.073 592.994 159.195 600.829 165.737C613.855 176.613 617.969 185.41 618.648 191.708Z" fill="#30323E"/>
<path opacity="0.5" d="M501.398 91.0942C525.795 88.0179 550.747 89.7667 574.469 96.2463C575.458 98.4673 576.354 100.748 577.143 103.067C577.355 103.69 577.539 104.308 577.719 104.925C574.064 103.647 570.378 102.463 566.643 101.437C550.423 96.9782 533.941 95.0423 517.603 95.4781C512.358 95.6179 507.778 95.923 502.927 96.5078C502.718 94.6191 502.209 92.814 501.398 91.0942Z" fill="white"/>
<path opacity="0.5" d="M616.285 175.912C617.122 176.05 617.963 176.179 618.799 176.337C618.271 175.138 617.651 173.965 616.928 172.828C616.438 172.056 615.918 171.317 615.373 170.602C614.508 170.529 613.644 170.469 612.778 170.417C614.154 172.133 615.328 173.972 616.285 175.912Z" fill="white"/>
<path opacity="0.5" d="M413.78 151.194C413.867 151.196 413.995 151.196 414.175 151.192C414.369 151.191 414.564 151.189 414.76 151.187C414.825 150.96 414.888 150.731 414.963 150.506C415.793 148.042 416.988 145.722 418.442 143.583C417.794 143.574 417.145 143.578 416.497 143.59C414.875 145.975 413.616 148.566 412.828 151.319C413.024 151.294 413.218 151.261 413.414 151.24C413.589 151.221 413.705 151.207 413.78 151.194Z" fill="white"/>
<path opacity="0.5" d="M419.004 151.325C419.155 151.336 419.307 151.336 419.458 151.348C419.695 151.377 420.45 151.457 420.57 151.474C421.179 151.559 421.787 151.655 422.391 151.762C423.706 151.995 425.01 152.28 426.303 152.611C428.324 153.128 430.558 153.896 432.853 154.852C442.346 158.801 450.637 165.065 458.45 171.732C460.682 173.637 464.752 173.121 467.148 171.866C469.234 170.774 470.936 168.381 468.693 166.467C459.809 158.887 450.154 151.83 439.221 147.671C435.51 146.26 431.672 145.185 427.779 144.489C427.041 144.832 426.314 145.179 425.625 145.543C423.038 146.908 420.855 148.942 419.004 151.325Z" fill="white"/>
<path d="M468.447 135.458C487.295 124.893 475.797 97.1018 498.602 86.5362C521.406 75.9705 538.368 94.7955 538.368 94.7955L511.567 190.488L450.648 183.236L452.132 171.156L443.309 182.357L428.367 180.514C429.773 170.891 437.139 153.597 468.447 135.458Z" fill="#222433"/>
<path d="M609.392 354.552C607.438 341.363 594.738 318.934 588.632 309.368H528.793L498.263 367.985C536.12 369.003 611.346 367.741 609.392 354.552Z" fill="#FDCF8D"/>
<path d="M602.506 311.162C602.506 311.162 547.571 183.237 513.802 183.237C433.276 183.237 452.706 355.562 452.706 355.562C484.81 359.848 584.628 340.426 602.506 311.162Z" fill="#FEEECD"/>
<path d="M476.605 200.531C485.61 189.869 497.56 183.237 513.357 183.237C520.685 183.237 529.009 189.263 537.553 198.695C530.189 205.135 518.761 209.27 505.93 209.27C494.365 209.27 483.942 205.909 476.605 200.531Z" fill="#E06603"/>
<path d="M521.298 261.917C538.299 208.514 554.859 225.816 554.118 254.816C553.376 283.816 532.432 322.407 507.032 338.755C498.445 344.281 489.882 349.976 480.608 355.202C469.047 356.312 459.112 356.477 452.261 355.564C452.261 355.564 450.306 338.221 450.207 314.54C478.948 306.246 512.152 290.637 521.298 261.917Z" fill="#FFA344"/>
<path d="M164.362 286.032C164.599 298.588 221.401 315.203 236.024 304.02C249.25 293.907 224.047 271.455 204.058 268.548C184.067 265.638 164.045 269.181 164.362 286.032Z" fill="#304858"/>
<path d="M543.394 275.899C523.615 327.814 457.319 354.92 414.393 354.976C317.511 355.103 252.829 322.402 233.465 292.481C231.633 289.652 229.634 285.829 230.953 282.749C235.006 273.277 266.498 280.036 285.232 282.237C342.117 288.922 390.992 266.463 422.434 252.015C483.143 224.119 507.236 204.393 534.072 212.358C555.396 218.687 553.536 249.28 543.394 275.899Z" fill="#FFD99B"/>
<path d="M230.738 291.943C239.451 296.536 251.098 274.698 225.414 263.03C205.136 253.818 172.659 263.864 171.789 266.913C170.92 269.962 175.789 270.385 175.789 270.385C175.789 270.385 171.326 270.996 171.497 274.072C171.668 277.148 176.285 276.175 176.285 276.175C176.285 276.175 171.727 278.118 173.742 280.201C176.864 283.428 206.275 279.048 230.738 291.943Z" fill="#EA997B"/>
<path d="M179.428 269.06C185.368 267.178 191.546 266.118 197.764 265.932C199.542 265.88 201.324 265.898 203.1 265.987C203.294 265.996 203.656 265.985 203.779 265.796C203.895 265.618 203.727 265.518 203.551 265.509C197.14 265.188 190.707 265.753 184.444 267.195C182.642 267.609 180.857 268.099 179.093 268.658C178.951 268.704 178.691 268.805 178.783 268.998C178.865 269.17 179.303 269.1 179.428 269.06Z" fill="#C9665D"/>
<path d="M179.321 275.437C185.429 273.656 191.824 272.937 198.167 273.304C199.956 273.407 201.738 273.6 203.507 273.876C203.731 273.91 204.056 273.87 204.179 273.643C204.291 273.438 204.141 273.236 203.925 273.202C197.442 272.189 190.805 272.283 184.357 273.512C182.536 273.859 180.733 274.299 178.953 274.818C178.762 274.874 178.552 275.085 178.664 275.296C178.783 275.519 179.124 275.496 179.321 275.437Z" fill="#C9665D"/>
<path opacity="0.5" d="M281.549 320.123C290.258 323.779 298.893 326.786 307.869 329.285C299.814 319.816 290.713 311.339 280.712 304.028C279.718 303.301 279.824 302.195 281.211 302.13C291.247 301.656 301.285 301.182 311.322 300.708C302.451 297.775 293.708 294.443 285.134 290.694C284.639 290.478 281.674 288.751 283.669 288.181C289.294 286.576 294.918 284.97 300.542 283.363C306.109 283.534 311.586 283.443 316.963 283.129C308.537 285.535 300.111 287.94 291.687 290.346C301.111 294.299 310.67 297.743 320.343 300.645C321.239 300.913 322.704 301.367 323.158 302.297C323.539 303.078 322.862 303.539 322.087 303.576C310.814 304.108 299.541 304.64 288.268 305.172C298.604 313.021 308.022 322.121 316.245 332.236C317.759 334.099 313.501 333.636 312.849 333.473C303.256 331.065 293.806 328.045 284.58 324.442C285.439 326.908 286.296 329.376 287.155 331.842C284.614 330.747 282.148 329.627 279.759 328.482C278.852 325.875 277.943 323.267 277.036 320.657C276.387 318.803 281.013 319.898 281.549 320.123Z" fill="white"/>
<path opacity="0.5" d="M318.193 310.901C316.696 309.445 318.074 308.553 319.576 308.379C331.264 307.031 342.954 305.684 354.644 304.334C345.008 299.382 334.861 295.242 324.746 292.096C323.802 291.802 322.667 291.361 322.106 290.46C321.721 289.843 321.794 289.004 322.564 288.722C328.418 286.579 334.056 283.839 339.358 280.535C344.157 279.711 348.853 278.736 353.443 277.641C346.726 282.936 339.371 287.307 331.524 290.58C342.464 294.352 353.062 299.052 363.239 304.645C363.845 304.977 364.704 305.773 364.492 306.581C364.262 307.458 363.159 307.538 362.457 307.62C350.22 309.031 337.985 310.442 325.748 311.853C334.849 320.317 345.222 327.625 356.066 333.1C356.803 333.473 357.881 333.999 358.067 334.936C358.232 335.77 357.47 336.248 356.773 336.378C344.606 338.688 332.438 340.998 320.269 343.308C317.087 342.44 313.979 341.534 310.947 340.591C323.522 338.203 336.098 335.817 348.673 333.429C337.594 327.318 327.319 319.782 318.193 310.901Z" fill="white"/>
<path d="M497.186 193.745C501.03 198.971 519.032 197.03 522.74 191.704C526.337 186.535 518.779 140.197 518.779 140.197L493.226 142.238C493.226 142.24 492.725 187.679 497.186 193.745Z" fill="#EA997B"/>
<path d="M494.239 178.454C492.999 163.112 493.228 142.24 493.228 142.24L518.782 140.199C518.782 140.199 520.37 149.939 521.745 160.984C517.515 170.565 506.921 177.579 494.239 178.454Z" fill="#C9665D"/>
<path d="M466.738 125.028C484.546 113.971 485.66 89.9608 490.887 85.1211C490.887 85.1211 510.114 72.7249 520.482 78.3292C535.267 86.3197 541.446 122.876 529.528 142.203C517.61 161.529 498.583 177.523 481.054 171.691C470.248 168.097 469.578 151.455 470.223 136.084C467.215 133.362 461.9 128.032 466.738 125.028Z" fill="#EA997B"/>
<path d="M492.964 93.2693L482.372 105.527C486.334 96.4782 487.972 87.8212 490.885 85.1226C490.885 85.1226 510.111 72.7264 520.479 78.3306C531.619 84.3526 537.873 106.59 535.181 125.457L491.437 109.314L492.964 93.2693Z" fill="#C9665D"/>
<path d="M532.7 71.5806C532.7 71.5806 512.543 56.7473 491.686 65.8293C470.829 74.9112 472.632 91.8148 472.632 91.8148L485.077 96.8144L495.957 83.1051L494.43 100.572L538.928 118.451C538.928 118.451 552.103 95.9118 532.7 71.5806Z" fill="#30323E"/>
<path opacity="0.5" d="M528.725 91.0627C528.337 90.8539 527.948 90.6469 527.558 90.4398C527.562 90.4417 527.41 90.3617 527.31 90.3091C527.211 90.2564 527.059 90.1783 527.063 90.1801C526.334 89.806 525.605 89.4356 524.873 89.0706C523.464 88.3714 522.044 87.6922 520.615 87.033C517.757 85.7163 514.861 84.4851 511.934 83.341C510.412 82.7453 508.88 82.1733 507.341 81.6248C507.175 81.5649 506.471 81.3215 506.753 81.4178C506.443 81.3125 506.134 81.2053 505.824 81.1C505.051 80.8385 504.274 80.5824 503.497 80.3336C500.506 79.3729 497.488 78.5031 494.448 77.7222C492.868 77.3154 491.28 76.934 489.687 76.5781C488.953 76.4128 488.215 76.253 487.48 76.0986C487.296 76.0605 487.111 76.0224 486.927 75.9842C486.915 75.9824 486.794 75.957 486.692 75.9352C486.592 75.9152 486.476 75.8916 486.464 75.8898C486.218 75.8426 485.97 75.7935 485.725 75.7463C483.513 75.325 481.295 74.9564 479.068 74.6313C480.125 73.4382 481.349 72.2559 482.774 71.1118C489.322 72.2468 495.804 73.7759 502.181 75.7155C515.198 79.6744 527.745 85.1915 539.471 92.185C540.625 92.8733 541.769 93.5834 542.906 94.3025C543.178 96.2675 543.296 98.1562 543.298 99.9522C541.217 98.523 539.088 97.1319 536.907 95.7862C534.225 94.1318 531.497 92.5555 528.725 91.0627Z" fill="white"/>
<path d="M490.481 123.055C489.104 122.548 488.748 119.994 489.685 117.352C490.623 114.709 492.499 112.978 493.876 113.485C495.253 113.992 495.609 116.546 494.672 119.189C493.734 121.832 491.858 123.563 490.481 123.055Z" fill="#30323E"/>
<path d="M480.637 150.367L495.128 148.765C495.128 148.765 495.625 159.474 489.296 161.997C482.967 164.517 480.637 150.367 480.637 150.367Z" fill="#222433"/>
<path d="M485.663 159.783C485.524 160.306 485.437 160.829 485.392 161.347C486.476 162.242 487.767 162.604 489.291 161.997C492.66 160.655 494.094 156.994 494.698 153.861C494.68 153.856 494.663 153.85 494.645 153.845C490.828 152.797 486.807 155.456 485.663 159.783Z" fill="#C04340"/>
<path d="M516.384 90.6675C516.384 90.6675 526.581 144.486 505.391 161.068C489.866 173.213 500.302 188.729 500.302 188.729L512.407 190.242L520.279 178.037L521.163 191.335L571.279 197.595C571.279 197.593 565.385 107.796 516.384 90.6675Z" fill="#30323E"/>
<path opacity="0.5" d="M612.103 177.191C612.82 178.329 602.154 182.877 595.779 183.162C587.76 183.521 579.645 182.464 571.727 181.269C556.011 178.896 540.77 175.218 524.895 174.241C517.711 173.8 496.991 175.153 496.991 174.83C496.991 173.555 498.037 169.841 498.949 168.51C500.169 166.73 530.949 169.249 542.805 171.141C558.284 173.611 573.351 177.165 589.048 177.897C592.841 178.073 596.69 178.015 600.253 177C601.067 176.767 601.876 176.515 602.666 176.21C602.993 176.083 603.318 175.947 603.637 175.8C603.772 175.738 603.904 175.672 604.039 175.609C604.864 175.215 603.847 175.741 604.29 175.473C605.718 174.608 606.869 173.52 607.777 172.177C607.779 172.177 611.348 175.99 612.103 177.191Z" fill="white"/>
<path d="M10.5802 258.477L64.5134 226.04L159.769 261.799L101.187 292.419L10.5802 258.477Z" fill="#304858"/>
<path d="M160.225 246.043L159.767 261.799L69.9726 228.053L69.6162 212.1L160.225 246.043Z" fill="#253946"/>
<path d="M153.912 244.703V262.462L103.154 288.568L15.7277 257.366V239.451L153.912 244.703Z" fill="white"/>
<path d="M11.0363 242.722L69.6162 212.1L160.225 246.043L101.643 276.663L11.0363 242.722Z" fill="#304858"/>
<path d="M9.15527e-05 241.957L53.9333 209.519L149.188 245.278L90.6068 275.899L9.15527e-05 241.957Z" fill="#E55E4A"/>
<path d="M149.645 229.523L149.187 245.278L59.3924 211.533L59.036 195.579L149.645 229.523Z" fill="#C04340"/>
<path d="M143.332 228.183V245.942L92.5739 272.047L5.14763 240.846V222.931L143.332 228.183Z" fill="white"/>
<path d="M0.45607 226.201L59.036 195.579L149.645 229.523L91.0628 260.143L0.45607 226.201Z" fill="#E55E4A"/>
<path d="M163.896 221.273L109.963 188.835L14.7081 224.595L73.2898 255.215L163.896 221.273Z" fill="#304858"/>
<path d="M14.2509 208.839L14.7088 224.594L104.503 190.849L104.859 174.897L14.2509 208.839Z" fill="#253946"/>
<path d="M20.5607 207.498V225.259L71.3188 251.364L158.745 220.161V202.248L20.5607 207.498Z" fill="white"/>
<path d="M163.44 205.517L104.861 174.897L14.2521 208.839L72.8338 239.459L163.44 205.517Z" fill="#304858"/>
<path d="M398.269 244.546L399.205 244.695L398.929 246.491L397.993 246.342L398.269 244.546Z" fill="#3B3248"/>
<path d="M387.689 242.772L399.2 244.61L399.075 245.424L387.564 243.586L387.689 242.772Z" fill="#3B3248"/>
<path d="M348.321 239.988L353.96 240.889L353.843 241.651L348.204 240.751L348.321 239.988Z" fill="#3B3248"/>
<path d="M353.084 239.091L400.765 246.705L400.147 250.721L352.466 243.106L353.084 239.091Z" fill="#E55E4A"/>
<path d="M401.734 247.188L405.076 247.722L404.607 250.773L401.264 250.24L401.734 247.188Z" fill="#E55E4A"/>
<path d="M400.468 246.102L402.764 246.468L401.997 251.452L399.702 251.086L400.468 246.102Z" fill="#3B3248"/>
<defs>
<clipPath id="clip0_1461_39458">
<rect width="161.628" height="134.69" fill="white" transform="matrix(-0.991112 0.13303 0.13303 0.991112 329.436 39.5317)"/>
</clipPath>
</defs>
</svg>
