<svg width="240" height="217" viewBox="0 0 240 217" fill="none" xmlns="http://www.w3.org/2000/svg">
<path d="M25.6182 168.393V48.3317C25.6182 46.6117 27.0198 45.2119 28.7444 45.2119H215.154C216.876 45.2119 218.28 46.6117 218.28 48.3317V168.39H25.6182V168.393Z" fill="white"/>
<path d="M215.151 48.3065C215.156 48.3065 215.158 48.3065 215.16 48.3065C215.167 48.311 215.174 48.3177 215.176 48.3199C215.176 48.3199 215.176 48.3244 215.176 48.3311V165.295H28.7175V48.3311C28.7175 48.3266 28.7175 48.3222 28.7175 48.3222C28.722 48.3154 28.7287 48.3087 28.731 48.3065C28.731 48.3065 28.7355 48.3065 28.7422 48.3065H215.151ZM215.151 42.1162H28.7422C25.3042 42.1162 22.5166 44.9 22.5166 48.3334V171.487H221.375V48.3311C221.377 44.9 218.589 42.1162 215.151 42.1162Z" fill="#2A404F"/>
<path d="M4.23633 176.766C4.23633 181.339 7.94792 185.046 12.5274 185.046H135.761H231.365C235.945 185.046 239.656 181.339 239.656 176.766C239.656 172.193 235.945 168.486 231.365 168.486H12.5274C7.94792 168.486 4.23633 172.193 4.23633 176.766Z" fill="#2A404F"/>
<path d="M55.0766 210.229H90.293V198.184H55.0766V210.229Z" fill="white"/>
<path d="M104.223 178.241H69.0068V190.286H104.223V178.241Z" fill="#DCE5F7"/>
<path d="M83.0233 199.623C84.176 200.796 84.8892 202.415 84.8892 204.205C84.8892 206.957 83.2027 209.309 80.8232 210.247V210.684H129.392C132.909 210.684 135.759 207.784 135.759 204.205C135.759 202.415 135.046 200.796 133.893 199.623C132.741 198.449 131.151 197.726 129.39 197.726H80.8232V198.162C81.6553 198.492 82.4043 198.993 83.0233 199.623Z" fill="#FCCC6C"/>
<path d="M53.3547 211.31H129.542C133.464 211.31 136.656 208.123 136.656 204.206C136.656 200.289 133.464 197.102 129.542 197.102H53.3547C52.7559 197.102 52.2715 197.585 52.2715 198.183C52.2715 198.781 52.7559 199.265 53.3547 199.265H129.542C132.271 199.265 134.489 201.482 134.489 204.206C134.489 206.931 132.269 209.146 129.542 209.146H53.3547C52.7559 209.146 52.2715 209.63 52.2715 210.228C52.2737 210.826 52.7581 211.31 53.3547 211.31Z" fill="#FCCC6C"/>
<path d="M116.569 178.241H63.9092V195.721H116.569V178.241Z" fill="white"/>
<path d="M38.3585 197.108H120.641C121.224 197.108 121.698 196.635 121.698 196.053C121.698 195.471 121.224 194.998 120.641 194.998H38.3585C33.9673 194.998 30.397 191.431 30.397 187.048C30.397 182.662 33.9696 179.097 38.3585 179.097H120.641C121.224 179.097 121.698 178.624 121.698 178.042C121.698 177.46 121.224 176.987 120.641 176.987H38.3585C32.8034 176.987 28.2822 181.5 28.2822 187.05C28.2845 192.593 32.8034 197.108 38.3585 197.108Z" fill="#FF7707"/>
<path d="M29.1299 187.045C29.1299 192.237 33.3461 196.447 38.5445 196.447H84.0658V196.212C79.8788 195.258 76.7548 191.516 76.7548 187.045C76.7548 184.45 77.8088 182.098 79.511 180.396C80.7422 179.169 82.3098 178.28 84.0636 177.879V177.644H38.5445C35.9453 177.644 33.5905 178.696 31.8883 180.396C30.1839 182.098 29.1299 184.447 29.1299 187.045Z" fill="#FF7707"/>
<path d="M68.0797 162.635C66.9606 162.635 65.846 162.196 65.0118 161.324L52.6368 148.38C51.0199 146.689 51.0826 144.008 52.7759 142.393C54.4691 140.778 57.1535 140.841 58.7705 142.532L71.1454 155.477C72.7624 157.168 72.6996 159.849 71.0064 161.463C70.1856 162.245 69.1315 162.635 68.0797 162.635Z" fill="#FFE8D6"/>
<path d="M67.1556 149.896L58.6133 156.646L52.9461 149.786C50.8582 147.645 50.9031 144.217 53.0471 142.131C55.191 140.044 58.6245 140.091 60.7124 142.232L67.1556 149.896Z" fill="#2A404F"/>
<path d="M59.5261 157.627C58.9946 157.627 58.4698 157.379 58.1402 156.913C57.5952 156.149 57.7724 155.088 58.5394 154.544L65.9065 149.303C66.6712 148.759 67.7342 148.936 68.2792 149.701C68.8242 150.465 68.647 151.527 67.88 152.071L60.5129 157.312C60.2124 157.524 59.867 157.627 59.5261 157.627Z" fill="#240444"/>
<path d="M51.4932 177.128H61.0738L60.2776 169.959H51.4932V177.128Z" fill="#2A404F"/>
<path d="M42.2877 124.452C42.4783 126.284 44.1177 127.614 45.9522 127.424C47.7867 127.234 49.1188 125.597 48.9282 123.765C48.7376 121.933 47.0982 120.602 45.2637 120.793C43.4292 120.981 42.0971 122.62 42.2877 124.452Z" fill="#FCCC6C"/>
<path d="M48.1745 126.627C48.9392 126.969 49.8385 126.627 50.1794 125.861L50.1929 125.829C50.536 125.066 50.1929 124.168 49.4259 123.827C48.6612 123.485 47.7618 123.827 47.421 124.593L47.4075 124.625C47.0644 125.388 47.4075 126.284 48.1745 126.627Z" fill="#2A404F"/>
<path d="M77.7543 185.414L74.5944 194.373L68.2275 191.58L70.7393 181.381L77.7543 185.414Z" fill="#FFE8D6"/>
<path d="M64.0322 198.427L80.6413 204.709L81.3522 202.834L81.5227 202.384C81.8478 201.524 81.6729 200.556 81.0674 199.867L79.5312 198.115L77.7079 196.035L77.7685 192.644C77.7797 192.05 77.3962 191.522 76.8266 191.345L74.1466 190.519L73.2428 193.804L68.6386 189.385C68.2305 188.991 67.5509 189.146 67.3514 189.674L64.7431 196.55L64.0322 198.427Z" fill="#2A404F"/>
<path d="M95.2569 178.975L100.868 186.643L94.9608 190.309L87.957 182.473L95.2569 178.975Z" fill="#FFE8D6"/>
<path d="M90.428 148.952C90.4235 150.094 89.7575 151.203 88.5576 151.832L71.7064 162.938C69.5489 164.23 66.7501 163.532 65.4561 161.375C64.1621 159.22 64.8618 156.425 67.0215 155.133L84.5949 146.045C86.4182 145.088 88.7864 145.608 89.8808 147.205C90.2531 147.754 90.4303 148.358 90.428 148.952Z" fill="#FFE8D6"/>
<path d="M85.9095 148.93C85.082 148.93 84.3823 148.294 84.3172 147.455C84.2499 146.574 84.9093 145.808 85.7906 145.741L93.6691 145.141C94.5504 145.069 95.3174 145.732 95.3847 146.61C95.452 147.488 94.7926 148.256 93.9113 148.324L86.0329 148.924C85.9925 148.928 85.9499 148.93 85.9095 148.93Z" fill="#FFE8D6"/>
<path d="M95.7747 151.612C95.6872 151.612 95.5975 151.605 95.5101 151.59L86.8646 150.147C85.9945 150.002 85.4047 149.18 85.5505 148.309C85.6962 147.44 86.5193 146.853 87.3917 146.996L96.0371 148.438C96.9072 148.584 97.4971 149.406 97.3513 150.277C97.219 151.059 96.5417 151.612 95.7747 151.612Z" fill="#FFE8D6"/>
<path d="M93.4896 153.665C93.4111 153.665 93.3326 153.658 93.2541 153.647L87.5466 152.803C86.6742 152.673 86.0709 151.862 86.1987 150.989C86.3288 150.117 87.1406 149.513 88.0153 149.643L93.7228 150.487C94.5952 150.617 95.1985 151.428 95.0706 152.301C94.9518 153.094 94.2678 153.665 93.4896 153.665Z" fill="#FFE8D6"/>
<path d="M85.6517 148.23C85.2548 148.23 84.8578 148.084 84.5483 147.789C83.9092 147.179 83.8868 146.169 84.4968 145.531L86.4972 143.439C87.1072 142.801 88.1186 142.779 88.7578 143.388C89.3969 143.997 89.4194 145.007 88.8094 145.645L86.8089 147.737C86.495 148.064 86.0733 148.23 85.6517 148.23Z" fill="#FFE8D6"/>
<path d="M60.2894 158.27L45.8916 163.856L45.9163 146.515C46.0912 144.416 46.7752 142.512 47.8158 140.967C49.4552 138.53 51.9782 136.987 54.777 136.987C57.0667 136.987 59.1681 138.018 60.7536 139.724C61.0788 140.073 61.3838 140.454 61.6619 140.857C61.7157 140.936 61.7696 141.014 61.8212 141.095C63.2654 143.31 63.7364 146.017 63.2206 148.609L60.2894 158.27Z" fill="#2A404F"/>
<path d="M57.7523 147.316C58.1785 149.573 60.3538 151.06 62.6167 150.635C64.8772 150.209 66.3664 148.037 65.9403 145.777C65.5142 143.52 59.9703 139.105 59.9703 139.105C57.925 140.158 57.3262 145.058 57.7523 147.316Z" fill="#2A404F"/>
<path d="M60.0295 158.689C59.9712 158.689 59.9106 158.68 59.8523 158.66C59.5585 158.561 59.3993 158.245 59.498 157.952L62.003 150.434C62.0658 150.245 62.2228 150.104 62.4179 150.062C62.4359 150.057 62.4561 150.055 62.474 150.053C63.8577 149.856 65.0104 148.866 65.4164 147.531C65.8313 146.163 65.3738 144.74 64.0147 143.184C63.4675 142.557 62.844 141.981 62.1825 141.372C61.6689 140.9 61.1396 140.411 60.6305 139.881C60.4152 139.657 60.4242 139.303 60.6462 139.088C60.8705 138.873 61.2248 138.882 61.4379 139.103C61.9223 139.607 62.4404 140.084 62.9405 140.548C63.5953 141.15 64.2704 141.775 64.8579 142.447C66.4682 144.293 67.0154 146.111 66.4861 147.854C65.9882 149.497 64.6247 150.74 62.9607 151.101L60.561 158.301C60.4825 158.539 60.2627 158.689 60.0295 158.689ZM62.539 150.61H62.5413H62.539Z" fill="white"/>
<path d="M60.8921 177.12C58.1539 177.12 55.5501 175.512 54.4176 172.834C52.9083 169.266 54.5813 165.15 58.1561 163.642L78.8804 154.901C82.4552 153.394 86.575 155.065 88.0843 158.635C89.5936 162.205 87.9206 166.319 84.3458 167.826L63.6214 176.567C62.7289 176.941 61.8027 177.12 60.8921 177.12Z" fill="#240444"/>
<path d="M43.5434 169.119C43.5591 169.479 43.604 169.838 43.669 170.192C44.2521 173.318 46.6988 176.071 49.7982 176.888C50.4059 177.049 51.0025 177.123 51.5878 177.128C55.0617 177.152 58.1408 174.711 61.1168 173.105C64.2004 171.441 67.2841 169.777 70.3677 168.113C72.1462 167.152 73.9156 166.015 75.768 165.199C79.132 163.719 80.657 159.795 79.1746 156.436C77.6922 153.076 73.7631 151.554 70.3991 153.034C65.1424 154.906 59.8834 156.779 54.6266 158.651C52.2808 159.486 49.6434 160.084 47.5353 161.488C47.2146 161.701 46.9074 161.932 46.6136 162.187C44.6445 163.896 43.4223 166.498 43.5434 169.119Z" fill="#FCCC6C"/>
<path d="M68.8783 163.331L89.8987 185.443L98.1135 179.987C98.0866 179.958 98.0597 179.927 98.0305 179.898L79.0218 154.722C76.6401 151.925 72.4397 151.587 69.6386 153.963C66.8375 156.339 66.4989 160.534 68.8783 163.331Z" fill="#FCCC6C"/>
<path d="M54.1442 168.709C54.0837 168.709 54.0231 168.7 53.9648 168.68C53.2696 168.445 52.8233 167.719 52.7134 166.64C52.6192 165.713 52.774 164.586 53.153 163.473C53.532 162.358 54.0927 161.37 54.734 160.691C55.4809 159.901 56.2747 159.596 56.97 159.831C57.2638 159.93 57.4207 160.248 57.3198 160.541C57.2211 160.835 56.9027 160.991 56.6089 160.891C56.3622 160.808 55.9563 161.025 55.5481 161.457C55.0234 162.013 54.5367 162.877 54.2138 163.829C53.8908 164.781 53.7495 165.762 53.828 166.523C53.8886 167.114 54.0792 167.536 54.3236 167.618C54.6174 167.717 54.7744 168.035 54.6757 168.328C54.5972 168.564 54.3797 168.709 54.1442 168.709Z" fill="#2A404F"/>
<path d="M67.3555 185.396L77.7681 188.095L88.7167 162.734C90.013 159.298 88.2727 155.464 84.8324 154.172C81.3922 152.877 77.5528 154.615 76.2588 158.051L67.3555 185.396Z" fill="#FCCC6C"/>
<path d="M61.1567 165.071C60.448 165.071 59.7999 164.596 59.6115 163.88C59.3872 163.026 59.8963 162.153 60.7508 161.929L63.5518 161.194C64.4063 160.97 65.2809 161.479 65.5052 162.332C65.7295 163.185 65.2204 164.059 64.3659 164.283L61.5649 165.017C61.4281 165.056 61.2913 165.071 61.1567 165.071Z" fill="#FFE8D6"/>
<path d="M38.5421 161.528C37.5553 161.528 36.5641 161.186 35.759 160.487C33.994 158.951 33.8079 156.277 35.3463 154.514L46.4766 141.748C48.0151 139.986 50.6928 139.8 52.4578 141.336C54.2227 142.873 54.4089 145.547 52.8704 147.309L41.7401 160.075C40.9014 161.036 39.724 161.528 38.5421 161.528Z" fill="#FFE8D6"/>
<path d="M39.6045 146.539L48.389 152.985L52.7307 148.649C54.8478 146.535 54.8478 143.106 52.7307 140.992C50.6137 138.878 47.1802 138.878 45.0631 140.992L39.6045 146.539Z" fill="white"/>
<path d="M48.0848 154.561C47.7641 154.561 47.4389 154.458 47.1653 154.248L39.3497 148.212C38.6926 147.704 38.5715 146.761 39.0806 146.105C39.5874 145.449 40.5338 145.328 41.1909 145.836L49.0065 151.872C49.6636 152.38 49.7847 153.323 49.2757 153.979C48.9774 154.362 48.5333 154.561 48.0848 154.561Z" fill="white"/>
<path d="M62.238 169.437C61.2916 170.077 59.9976 170.156 58.8023 169.522L37.0845 161.638C34.7992 160.588 33.7967 157.887 34.8485 155.603C35.9003 153.318 38.605 152.319 40.8925 153.37L61.3499 162.987C63.171 163.95 64.077 166.194 63.3751 167.999C63.1306 168.617 62.7314 169.103 62.238 169.437Z" fill="#FFE8D6"/>
<path d="M68.9344 167.84C71.5067 167.84 73.5901 165.757 73.5901 163.19V159.869H64.2764V163.19C64.2786 165.759 66.362 167.84 68.9344 167.84Z" fill="white"/>
<path d="M68.627 166.395C68.6024 166.395 68.5777 166.395 68.553 166.393L59.7484 165.997C58.867 165.956 58.183 165.211 58.2234 164.33C58.2637 163.45 59.0105 162.765 59.8919 162.808L68.6966 163.204C69.5779 163.244 70.2619 163.99 70.2215 164.87C70.1834 165.726 69.477 166.395 68.627 166.395Z" fill="#FFE8D6"/>
<path d="M65.9894 168.394C65.8863 168.394 65.7809 168.383 65.6732 168.363L60.5622 167.342C59.6966 167.169 59.1359 166.327 59.3086 165.463C59.4813 164.598 60.3245 164.038 61.1902 164.211L66.3012 165.232C67.1668 165.405 67.7275 166.247 67.5548 167.111C67.4045 167.87 66.7362 168.394 65.9894 168.394Z" fill="#FFE8D6"/>
<path d="M64.9194 170.615C64.7803 170.615 64.6413 170.597 64.5022 170.559L60.2502 169.412C59.398 169.181 58.8934 168.306 59.1244 167.455C59.3554 166.604 60.2322 166.1 61.0844 166.33L65.3365 167.477C66.1887 167.708 66.6933 168.583 66.4623 169.434C66.2694 170.144 65.6236 170.615 64.9194 170.615Z" fill="#FFE8D6"/>
<path d="M50.3965 130.494L52.37 138.507L59.1204 141.455L57.4698 136.846L56.4808 132.779L51.3698 130.859L50.3965 130.494Z" fill="#FFE8D6"/>
<path d="M59.1199 142.015C59.0414 142.015 58.9629 141.999 58.8867 141.966L51.56 138.631C51.2774 138.503 51.154 138.169 51.2819 137.89C51.4097 137.607 51.7416 137.484 52.0242 137.612L58.2274 140.434L57.337 137.477C57.2473 137.182 57.4155 136.868 57.7115 136.781C58.0076 136.691 58.3215 136.859 58.409 137.155L59.6582 141.294C59.721 141.504 59.6559 141.733 59.49 141.876C59.3846 141.968 59.2522 142.015 59.1199 142.015Z" fill="white"/>
<path d="M46.6139 156.212C46.5601 156.212 46.504 156.203 46.4479 156.188L44.3466 155.538C44.0505 155.446 43.8846 155.133 43.9765 154.837C44.0685 154.542 44.3825 154.376 44.6785 154.468L46.7798 155.117C47.0759 155.209 47.2418 155.523 47.1499 155.818C47.0736 156.058 46.8516 156.212 46.6139 156.212Z" fill="#2A404F"/>
<path d="M92.4327 189.963L96.4964 195.797L97.6424 197.443L112.224 187.316L111.078 185.669L111.006 185.566C110.356 184.632 109.241 184.131 108.111 184.265L106.151 184.498L103.404 184.825L100.769 182.953C100.206 182.552 99.4455 182.572 98.905 183L96.835 184.641L99.0351 187.244L93.0225 188.487C92.3542 188.623 92.0425 189.403 92.4327 189.963Z" fill="#2A404F"/>
<path d="M51.2109 130.281L52.478 130.758C52.7449 133.909 54.1892 136.319 57.3109 136.268L56.3219 132.203L51.2109 130.281Z" fill="#2A404F"/>
<path d="M59.2982 133.941C61.1461 133.122 61.9781 130.96 61.1551 129.117L59.9216 126.347C58.8384 123.917 55.988 122.822 53.5547 123.901C51.1215 124.983 50.0248 127.829 51.1058 130.259L51.3928 130.907C52.7384 133.926 56.2751 135.283 59.2982 133.941Z" fill="#FFE8D6"/>
<path d="M60.3995 123.805C59.6257 122.723 58.6457 121.825 57.3764 121.415C55.9545 120.956 54.3735 121.169 52.9987 121.695C52.8731 121.744 52.7475 121.796 52.6219 121.85C52.5502 121.881 52.4784 121.915 52.4066 121.948C49.1369 123.496 47.401 127.673 49.0875 130.989C49.4262 131.657 51.0521 133.939 51.7473 134.25C52.2968 134.494 52.7857 131.265 53.38 131.191C53.9765 131.117 54.5573 130.817 54.8982 130.322C55.3669 129.643 55.3221 128.75 55.2548 127.928C56.3761 127.661 57.4907 127.319 58.5022 126.766C59.1301 126.421 59.7177 125.991 60.2111 125.469C60.4264 125.24 60.8928 124.586 60.8928 124.586C60.8928 124.586 60.4936 123.935 60.3995 123.805Z" fill="#FCCC6C"/>
<path d="M56.6583 136.368C56.8512 136.33 56.9858 136.156 56.9701 135.961L56.5148 126.87L54.0098 127.354L56.2098 136.07C56.2524 136.276 56.452 136.409 56.6583 136.368Z" fill="#FCCC6C"/>
<path d="M55.3331 130.759C55.3793 129.505 54.3983 128.451 53.142 128.404C51.8857 128.358 50.8299 129.338 50.7837 130.593C50.7376 131.847 51.7186 132.902 52.9749 132.948C54.2312 132.994 55.287 132.014 55.3331 130.759Z" fill="#FFE8D6"/>
<path d="M52.1193 133.166C52.2382 133.787 52.8392 134.192 53.4604 134.071C54.0816 133.952 54.4875 133.352 54.3664 132.732C54.2476 132.111 53.6465 131.706 53.0253 131.827C52.4064 131.946 52.0004 132.546 52.1193 133.166Z" fill="white"/>
<path d="M59.959 126.602C60.7148 127.737 61.4773 128.787 62.2869 129.323C62.5066 129.466 62.6053 129.75 62.4797 129.981C62.4012 130.124 62.2555 130.234 62.0648 130.248L59.968 130.393L59.959 126.602Z" fill="#FFE8D6"/>
<path d="M77.7684 190.028C77.6272 190.028 77.4836 190.01 77.3401 189.972L67.4545 187.41C66.544 187.175 65.999 186.248 66.2345 185.339C66.47 184.429 67.3984 183.885 68.3089 184.12L78.1945 186.682C79.1051 186.917 79.65 187.845 79.4145 188.754C79.2149 189.52 78.5242 190.028 77.7684 190.028Z" fill="#FCCC6C"/>
<path d="M89.2823 168.315C89.1164 168.315 88.9527 168.241 88.8405 168.1L78.5804 155.063C77.1877 153.428 74.9877 152.644 72.8504 153.034C72.5477 153.09 72.2539 152.888 72.1978 152.584C72.1418 152.279 72.3436 151.988 72.6486 151.932C75.1783 151.473 77.7843 152.4 79.4483 154.353L89.7219 167.406C89.9125 167.65 89.8699 168.001 89.6277 168.192C89.5245 168.277 89.4034 168.315 89.2823 168.315Z" fill="white"/>
<path d="M84.4286 180.944C84.2783 180.944 84.1281 180.883 84.016 180.765L70.966 166.669C70.7552 166.442 70.7686 166.086 70.9974 165.878C71.2261 165.67 71.5805 165.681 71.789 165.909L84.839 180.005C85.0498 180.232 85.0364 180.588 84.8076 180.796C84.7022 180.895 84.5654 180.944 84.4286 180.944Z" fill="white"/>
<path d="M81.4108 203.246C81.3412 203.246 81.2717 203.232 81.2022 203.205L72.6173 199.776C72.3303 199.662 72.189 199.335 72.3056 199.048C72.42 198.762 72.7474 198.621 73.0345 198.737L81.6193 202.166C81.9064 202.28 82.0477 202.607 81.9311 202.894C81.8436 203.113 81.6328 203.246 81.4108 203.246Z" fill="white"/>
<path d="M87.4071 153.321C87.4004 153.321 87.3959 153.321 87.3892 153.321C86.1467 153.281 84.0274 152.784 83.9691 151.171C83.9579 150.862 84.2001 150.602 84.5096 150.591C84.8213 150.582 85.0792 150.822 85.0904 151.131C85.1196 151.957 86.9384 152.183 87.425 152.199C87.7345 152.208 87.9767 152.468 87.9678 152.777C87.9565 153.081 87.7076 153.321 87.4071 153.321Z" fill="#2A404F"/>
<path d="M102.603 192.115C102.426 192.115 102.251 192.032 102.144 191.875C101.967 191.622 102.029 191.273 102.283 191.096L110.758 185.21C111.011 185.033 111.361 185.096 111.538 185.349C111.715 185.602 111.653 185.951 111.399 186.128L102.924 192.014C102.825 192.083 102.713 192.115 102.603 192.115Z" fill="white"/>
<path d="M54.4296 168.756C54.2726 168.756 54.1157 168.732 53.9654 168.68C53.6716 168.581 53.5146 168.263 53.6156 167.97C53.7142 167.677 54.0327 167.52 54.3265 167.621C54.8378 167.791 56.0242 166.734 56.7216 164.68C57.0446 163.728 57.1859 162.747 57.1074 161.986C57.0468 161.395 56.8562 160.974 56.6117 160.891C56.3179 160.792 56.161 160.474 56.2619 160.181C56.3606 159.887 56.679 159.731 56.9728 159.831C57.668 160.066 58.1143 160.792 58.2242 161.872C58.3184 162.799 58.1637 163.925 57.7846 165.038C57.0244 167.274 55.6496 168.756 54.4296 168.756Z" fill="#2A404F"/>
<path d="M56.5546 166.838C57.5078 167.055 58.4542 166.46 58.6717 165.508L58.7793 165.04C58.9969 164.088 58.4003 163.143 57.4472 162.926C56.4941 162.708 55.5477 163.304 55.3301 164.256L55.2225 164.724C55.005 165.676 55.6015 166.623 56.5546 166.838Z" fill="white"/>
<path d="M56.9497 167.327C56.786 167.327 56.62 167.309 56.454 167.271C55.8777 167.141 55.3888 166.793 55.0726 166.294C54.7586 165.795 54.6577 165.203 54.7878 164.628L54.8954 164.16C55.0255 163.584 55.3731 163.096 55.8732 162.78C56.3733 162.467 56.9654 162.364 57.5417 162.496C58.1181 162.626 58.607 162.973 58.9232 163.472C59.2372 163.972 59.3381 164.563 59.208 165.138L59.1004 165.606C58.9703 166.182 58.6227 166.67 58.1226 166.986C57.766 167.21 57.3623 167.327 56.9497 167.327ZM57.0506 163.324C56.8039 163.324 56.5617 163.394 56.3464 163.528C56.0459 163.716 55.8396 164.01 55.7611 164.355L55.6534 164.823C55.5749 165.168 55.6355 165.521 55.8239 165.821C56.0122 166.122 56.306 166.328 56.6514 166.406C56.9968 166.484 57.3511 166.424 57.6516 166.236C57.9521 166.048 58.1585 165.754 58.2369 165.409L58.3446 164.941C58.4231 164.596 58.3625 164.243 58.1742 163.942C57.9858 163.642 57.692 163.436 57.3466 163.358C57.2479 163.336 57.1493 163.324 57.0506 163.324Z" fill="#2A404F"/>
<path d="M90.3475 186.843C89.798 186.843 89.2576 186.576 88.9301 186.083C88.4098 185.302 88.6229 184.247 89.4056 183.727L96.8175 178.805C97.6002 178.285 98.6565 178.498 99.1768 179.28C99.6971 180.061 99.4841 181.116 98.7014 181.636L91.2872 186.558C90.9979 186.751 90.6704 186.843 90.3475 186.843Z" fill="#FCCC6C"/>
<path d="M49.7283 152.651C49.6072 152.651 49.4839 152.611 49.3807 152.53L44.2091 148.438C43.9669 148.246 43.9266 147.894 44.1172 147.652C44.3101 147.41 44.6621 147.37 44.9044 147.56L50.0759 151.652C50.3181 151.845 50.3585 152.196 50.1679 152.438C50.058 152.579 49.8943 152.651 49.7283 152.651Z" fill="#2A404F"/>
<path d="M66.9496 196.313C65.4739 196.313 64.2764 195.115 64.2764 193.643C64.2764 192.172 65.4762 190.974 66.9496 190.974C68.423 190.974 69.6228 192.172 69.6228 193.643C69.6228 195.115 68.4253 196.313 66.9496 196.313ZM66.9496 191.856C65.9628 191.856 65.16 192.658 65.16 193.641C65.16 194.626 65.9628 195.428 66.9496 195.428C67.9364 195.428 68.737 194.626 68.737 193.641C68.7392 192.658 67.9364 191.856 66.9496 191.856Z" fill="#44D4F4"/>
<path d="M95.6869 195.207C94.2135 195.207 93.0137 194.009 93.0137 192.538C93.0137 191.066 94.2135 189.868 95.6869 189.868C97.1626 189.868 98.3601 191.066 98.3601 192.538C98.3601 194.009 97.1603 195.207 95.6869 195.207ZM95.6869 190.751C94.7001 190.751 93.8995 191.552 93.8995 192.536C93.8995 193.521 94.7024 194.32 95.6869 194.32C96.6737 194.32 97.4765 193.519 97.4765 192.536C97.4743 191.552 96.6737 190.751 95.6869 190.751Z" fill="#44D4F4"/>
<path d="M102.092 149.375H72.3969C72.2265 149.375 72.065 149.296 71.9596 149.164C71.8542 149.032 71.8138 148.858 71.8497 148.692L77.0639 125.696C77.1222 125.44 77.3487 125.259 77.6111 125.259H107.306C107.476 125.259 107.638 125.337 107.743 125.469C107.849 125.601 107.889 125.776 107.853 125.942L102.639 148.938C102.581 149.193 102.354 149.375 102.092 149.375ZM73.0989 148.255H101.646L106.604 126.379H78.0574L73.0989 148.255Z" fill="#2A404F"/>
<path d="M149.141 140.502L196.263 131.687L200.022 165.339H145.382L149.141 140.502Z" fill="#2A404F"/>
<path d="M129.493 129.209C127.66 129.209 125.821 128.734 124.164 127.773L83.4668 104.123L94.1261 85.8297L128.54 105.827L155.451 84.2754L168.71 100.786L136.124 126.879C134.2 128.423 131.852 129.209 129.493 129.209Z" fill="#FCCC6C"/>
<path d="M86.8088 80.982L74.0039 97.8457L82.2382 104.081L95.043 87.2174L86.8088 80.982Z" fill="#FFE8D6"/>
<path d="M77.5307 99.6814C76.7166 99.6814 75.8958 99.4172 75.2051 98.8729L63.2091 89.4061C61.5832 88.1228 61.3051 85.7645 62.5902 84.1408C63.8752 82.5171 66.2367 82.2394 67.8627 83.5227L79.8586 92.9895C81.4845 94.2728 81.7626 96.6311 80.4776 98.2548C79.7375 99.1932 78.6408 99.6814 77.5307 99.6814Z" fill="#FFE8D6"/>
<path d="M79.5736 92.1329C78.7438 92.1329 77.9095 91.8597 77.2143 91.2975L63.1596 79.9405C61.5471 78.637 61.2982 76.2765 62.6034 74.6684C63.9086 73.0582 66.2724 72.8096 67.8826 74.113L81.9373 85.4701C83.5498 86.7735 83.7987 89.1341 82.4935 90.7421C81.7512 91.6581 80.6657 92.1329 79.5736 92.1329Z" fill="#FFE8D6"/>
<path d="M83.6126 87.1467C82.6909 87.1467 81.7692 86.8108 81.0425 86.1299L70.2621 76.0204C68.7506 74.6027 68.6766 72.2309 70.0962 70.7215C71.5158 69.212 73.8907 69.1381 75.4023 70.5557L86.1827 80.6653C87.6942 82.083 87.7683 84.4547 86.3487 85.9642C85.6131 86.7503 84.6151 87.1467 83.6126 87.1467Z" fill="#FFE8D6"/>
<path d="M87.7724 90.1636C86.0209 90.1636 84.4555 88.9341 84.0967 87.1536L82.0469 76.9679C81.6387 74.9388 82.9551 72.9612 84.987 72.5536C87.0211 72.146 88.9991 73.4607 89.4073 75.4897L91.457 85.6755C91.8652 87.7045 90.5488 89.6821 88.5169 90.0897C88.268 90.139 88.0191 90.1636 87.7724 90.1636Z" fill="#FFE8D6"/>
<path d="M85.2364 107.756C84.687 107.756 84.1308 107.635 83.6038 107.377C81.7468 106.475 80.9754 104.242 81.8792 102.388L90.1187 85.4808C91.0224 83.6264 93.2584 82.856 95.1153 83.7585C96.9722 84.6611 97.7437 86.894 96.8399 88.7484L88.6004 105.655C87.9523 106.983 86.6201 107.756 85.2364 107.756Z" fill="#FCCC6C"/>
<path d="M98.2343 107.487C97.2072 108.662 95.4221 108.783 94.2447 107.76C93.0673 106.734 92.9462 104.951 93.9711 103.776C94.9982 102.6 96.7834 102.479 97.9607 103.502C99.1381 104.528 99.2592 106.311 98.2343 107.487Z" fill="white"/>
<path d="M197.382 142.742L149.141 140.5L142.628 110.026C140.695 99.5245 145.008 88.7453 153.868 82.7678C158.241 79.8182 163.514 78.0938 169.188 78.0938C184.319 78.0938 196.586 90.3444 196.586 105.455L197.382 142.742Z" fill="#FF7707"/>
<path d="M154.83 83.1697L155.471 70.3524L156.041 62.1174L156.31 58.2093C156.559 54.6192 159.669 51.9137 163.26 52.1623C163.542 52.1802 163.82 52.2183 164.094 52.2721C166.718 52.7939 168.732 54.87 169.219 57.4433C169.319 57.9763 169.355 58.5318 169.315 59.1029L168.364 72.9168L167.99 78.303C167.743 81.8886 154.581 86.7598 154.83 83.1697Z" fill="#FFE8D6"/>
<path d="M169.89 73.3594L152.424 83.1285L154.828 86.0624L170.41 83.7959L169.89 73.3594Z" fill="white"/>
<path d="M152.493 68.8532C148.445 67.028 146.647 62.2688 148.474 58.2263L151.219 52.157C153.63 46.8312 159.908 44.4639 165.241 46.8692C170.576 49.2768 172.946 55.5455 170.535 60.8713L169.894 62.2889C166.907 68.9025 159.114 71.8409 152.493 68.8532Z" fill="#FFE8D6"/>
<path d="M151.908 53.749L145.443 58.768C144.709 59.3368 144.947 60.497 145.844 60.7366L150.309 61.9213L151.908 53.749Z" fill="#FFE8D6"/>
<path d="M161.756 52.854C161.756 52.854 161.538 54.845 161.785 55.8058C162.105 57.0533 163.007 57.9289 164.216 58.3522C165.739 58.8853 167.604 58.8741 169.208 58.9009C172.846 58.9636 177.526 56.6188 175.745 52.2157C175.14 50.7219 173.606 49.6155 171.993 49.6334C173.061 49.7902 174.216 49.4767 174.969 48.7085C175.723 47.9381 176.003 46.7018 175.543 45.7276C175.016 44.6145 173.684 44.0658 172.451 44.1016C171.217 44.1374 170.053 44.6414 168.925 45.1386C168.611 43.5798 167.64 42.1308 166.234 41.3827C164.828 40.6347 163.003 40.6616 161.697 41.5753C161.28 41.8665 160.908 42.2651 160.794 42.7601C160.679 43.255 160.899 43.8485 161.372 44.0322C161.61 42.5227 160.648 40.9102 159.203 40.4018C157.759 39.8934 155.996 40.5474 155.234 41.8732C155.03 42.2271 154.902 42.6392 154.882 43.0468C154.987 43.3715 155.265 43.9269 155.265 44.2046C153.597 44.4823 150.26 42.5384 152.206 40.5944C150.26 40.3167 148.035 41.7052 147.201 43.3715C146.506 44.7623 146.701 46.33 147.508 47.6268C149.28 50.4778 152.85 51.0175 155.882 51.5393C157.622 51.8395 161.065 52.6569 161.065 52.6569L161.711 52.8383L161.756 52.854Z" fill="#2A404F"/>
<path d="M161.364 146.42C163.577 144.405 163.735 140.98 161.717 138.77C159.699 136.56 156.27 136.402 154.057 138.418C151.844 140.433 151.686 143.858 153.704 146.068C155.722 148.278 159.151 148.436 161.364 146.42Z" fill="white"/>
<path d="M161.577 112.219L153.455 104.107L145.333 112.219L153.455 120.33L161.577 112.219Z" fill="#FCCC6C"/>
<path d="M170.411 112.217L162.289 104.105L154.167 112.217L162.289 120.328L170.411 112.217Z" fill="white"/>
<path d="M147.528 61.244C148.1 60.8386 148.849 60.5609 149.796 60.4669C151.099 60.337 152.433 60.6998 153.53 61.4142C154.752 62.2115 155.77 63.2619 157.347 62.8229C157.941 62.6572 158.495 62.375 159.044 62.0995C160.374 61.4344 161.637 60.5923 162.794 59.6584C162.796 59.6561 162.801 59.6539 162.803 59.6494C162.803 59.6494 169.112 62.6818 169.114 62.6818C169.724 63.0962 166.932 66.1823 166.656 66.5049C163.922 69.6985 159.724 71.8105 155.438 71.6179C153 71.5081 150.444 70.722 148.506 69.2103C145.896 67.1767 145.043 63.0043 147.528 61.244Z" fill="#2A404F"/>
<path d="M171.426 60.3963C171.841 57.6692 169.963 55.123 167.232 54.7093C164.501 54.2956 161.952 56.1709 161.537 58.898C161.123 61.6252 163.001 64.1713 165.732 64.5851C168.463 64.9988 171.012 63.1235 171.426 60.3963Z" fill="#FFE8D6"/>
<path d="M205.828 140.158C203.175 139.607 200.733 138.049 199.127 135.607L170.45 92.0089C167.237 87.1244 168.598 80.5623 173.489 77.3552C178.38 74.1458 184.951 75.5053 188.163 80.3899L216.84 123.988C220.053 128.873 218.692 135.435 213.801 138.642C211.354 140.248 208.483 140.709 205.828 140.158Z" fill="#FCCC6C"/>
<path d="M81.9665 93.6398C81.7916 93.6398 81.6167 93.5749 81.4821 93.4428C79.5064 91.5279 78.6474 89.575 78.9278 87.6332C79.3023 85.0487 81.6077 83.3153 82.6371 82.659L81.1121 77.3064C81.0067 76.9369 81.222 76.5539 81.5898 76.4486C81.9598 76.3434 82.3433 76.5584 82.4487 76.9257L84.1195 82.7912C84.2092 83.107 84.0657 83.4429 83.7741 83.5952C83.745 83.6109 80.6703 85.2615 80.3025 87.8348C80.0917 89.3084 80.8138 90.8583 82.4487 92.4439C82.7246 92.7104 82.7313 93.1494 82.4644 93.4248C82.3298 93.5682 82.1482 93.6398 81.9665 93.6398Z" fill="#2A404F"/>
<path d="M197.382 142.744L146.887 140.502L197.382 142.744Z" fill="#2A404F"/>
<path d="M197.382 143.437C197.371 143.437 197.36 143.437 197.348 143.437L146.853 141.195C146.469 141.177 146.173 140.852 146.191 140.469C146.209 140.087 146.532 139.786 146.918 139.809L197.413 142.051C197.797 142.069 198.093 142.393 198.075 142.776C198.059 143.148 197.752 143.437 197.382 143.437Z" fill="white"/>
<path d="M161.218 154.174C156.434 154.425 151.926 151.39 150.509 146.602C148.852 140.996 152.056 135.11 157.668 133.455L164.259 131.511C169.872 129.854 175.766 133.056 177.423 138.66C179.08 144.266 175.876 150.151 170.264 151.806L163.673 153.75C162.857 153.992 162.032 154.131 161.218 154.174Z" fill="#FFE8D6"/>
<path d="M154.393 163.966C153.476 164.013 152.54 163.728 151.782 163.092C150.195 161.76 149.99 159.395 151.323 157.811L161.314 145.937C162.648 144.351 165.016 144.147 166.602 145.478C168.19 146.81 168.394 149.175 167.061 150.759L157.07 162.633C156.375 163.462 155.395 163.914 154.393 163.966Z" fill="#FFE8D6"/>
<path d="M144.953 163.475C143.993 163.524 143.013 163.208 142.242 162.514C140.703 161.128 140.58 158.756 141.971 157.22L154.081 143.815C155.469 142.279 157.844 142.156 159.382 143.544C160.921 144.931 161.044 147.303 159.654 148.839L147.544 162.243C146.851 163.011 145.911 163.425 144.953 163.475Z" fill="#FFE8D6"/>
<path d="M141.612 155.983C140.558 156.039 139.488 155.652 138.701 154.83C137.268 153.334 137.322 150.96 138.82 149.529L149.508 139.32C151.006 137.889 153.383 137.941 154.817 139.439C156.25 140.935 156.196 143.309 154.698 144.74L144.009 154.948C143.332 155.593 142.477 155.936 141.612 155.983Z" fill="#FFE8D6"/>
<path d="M142.615 143.344C140.671 143.444 138.946 142.031 138.697 140.071C138.437 138.018 139.892 136.141 141.949 135.881L154.878 134.244C156.937 133.989 158.814 135.438 159.074 137.491C159.334 139.545 157.878 141.422 155.822 141.682L142.893 143.319C142.801 143.33 142.707 143.337 142.615 143.344Z" fill="#FFE8D6"/>
<path d="M206.252 119.11L164.262 131.502L170.268 151.799L212.258 139.407L206.252 119.11Z" fill="#FCCC6C"/>
<path d="M169.882 154.519C168.205 154.606 166.621 153.549 166.112 151.872L160.571 133.605C159.972 131.632 161.089 129.547 163.065 128.951C165.04 128.353 167.128 129.469 167.727 131.442L173.269 149.708C173.867 151.681 172.751 153.766 170.775 154.362C170.479 154.452 170.178 154.503 169.882 154.519Z" fill="#FCCC6C"/>
<path d="M178.032 146.987C176.496 147.264 175.025 146.248 174.747 144.713C174.469 143.179 175.487 141.71 177.023 141.432C178.559 141.155 180.031 142.171 180.309 143.706C180.589 145.24 179.569 146.709 178.032 146.987Z" fill="white"/>
<path d="M69.4277 8.85254L141.027 20.0842L124.054 62.3993L111.605 60.4822L114.635 80.9836L92.7379 57.4565L52.4531 51.1677L69.4277 8.85254Z" fill="#FFE8D6"/>
<path d="M115.35 73.2172C115.014 73.2172 114.664 73.1925 114.301 73.141C109.066 72.4019 104.085 66.2789 100.789 62.2274C100.497 61.8691 100.217 61.5242 99.9499 61.2017C95.4489 55.7348 92.1768 49.3519 89.0147 43.1795C88.7501 42.6644 88.4877 42.1493 88.223 41.6365C85.8615 37.0453 82.6209 32.5168 80.7079 32.7363C79.7503 32.8482 79.2031 34.2704 78.9138 35.4417C78.5639 36.8571 78.5684 38.2838 78.5729 39.7933C78.5751 40.9287 78.5796 42.1023 78.4159 43.2624C78.0616 45.7752 76.725 47.7461 75.0071 48.2814C73.6413 48.7069 72.1769 48.1694 70.8806 46.7674C66.6061 42.1381 67.7656 35.4551 68.4608 32.799C68.9138 31.0745 69.5238 29.3768 70.1159 27.7375C70.6922 26.1384 71.2888 24.4833 71.7283 22.8215C72.4236 20.1989 73.6301 13.825 69.8445 11.3122C69.4722 11.0658 69.0865 10.8755 68.6963 10.7456C68.4698 10.6694 68.3464 10.4253 68.4227 10.1991C68.4989 9.97289 68.7434 9.84971 68.9699 9.92586C69.4319 10.0804 69.8871 10.3044 70.3222 10.5933C74.4218 13.3121 73.4866 19.5584 72.5626 23.041C72.1141 24.7386 71.5108 26.4116 70.9277 28.0286C70.3424 29.6523 69.7391 31.3298 69.2973 33.0184C68.6357 35.538 67.5301 41.8671 71.5153 46.1829C72.585 47.343 73.7041 47.7842 74.7469 47.4572C76.1239 47.0272 77.2542 45.2937 77.557 43.1415C77.7117 42.0418 77.7072 40.8996 77.705 39.7955C77.7005 38.2994 77.696 36.7519 78.0728 35.2334C78.5909 33.1416 79.4431 32.0129 80.607 31.8762C83.731 31.5112 87.8126 38.9512 88.99 41.2378C89.2547 41.7529 89.5193 42.268 89.7839 42.7831C92.9259 48.9152 96.1755 55.2533 100.618 60.6485C100.885 60.9732 101.165 61.3181 101.459 61.6787C104.671 65.6249 109.524 71.5912 114.422 72.2832C116.079 72.5162 117.391 72.1399 118.324 71.1634C120.522 68.8589 120.423 63.4457 119.669 59.5085C118.501 53.4101 115.46 47.6095 111.107 43.1751C109.806 41.8515 108.36 40.6152 106.963 39.417C104.904 37.6567 102.776 35.8359 101.038 33.6791C98.5392 30.5795 96.6621 24.8282 97.9875 20.9425C98.6895 18.8843 100.246 17.5114 102.489 16.9717C106.097 16.1027 107.996 20.1586 108.712 21.686C108.923 22.1384 109.129 22.5931 109.333 23.0477C110.425 25.4687 111.457 27.7554 113.381 29.5269C115.355 31.341 117.875 32.4854 120.315 33.594C120.591 33.7194 120.869 33.8449 121.145 33.9725C121.363 34.0711 121.457 34.3286 121.358 34.5459C121.26 34.7631 121.002 34.8572 120.784 34.7586C120.508 34.6332 120.232 34.5078 119.959 34.3824C117.458 33.2469 114.872 32.0733 112.798 30.1652C110.744 28.275 109.627 25.8002 108.546 23.4061C108.342 22.9559 108.14 22.5035 107.929 22.0556C106.85 19.7533 105.278 17.1934 102.69 17.8138C100.721 18.2886 99.4139 19.4352 98.8039 21.2224C97.5031 25.0342 99.6561 30.593 101.71 33.1394C103.399 35.2334 105.496 37.0273 107.523 38.763C108.936 39.9702 110.396 41.2199 111.722 42.5704C116.193 47.1235 119.317 53.0808 120.515 59.345C120.802 60.8433 122.074 68.4781 118.945 71.7569C118.026 72.7289 116.817 73.2172 115.35 73.2172Z" fill="white"/>
<path d="M123.382 25.8584H81.9734C81.6729 25.8584 81.4307 25.6165 81.4307 25.3164C81.4307 25.0163 81.6729 24.7744 81.9734 24.7744H123.382C123.682 24.7744 123.924 25.0163 123.924 25.3164C123.924 25.6165 123.68 25.8584 123.382 25.8584Z" fill="#2A404F"/>
<path d="M123.382 31.9053H81.9734C81.6729 31.9053 81.4307 31.6634 81.4307 31.3633C81.4307 31.0632 81.6729 30.8213 81.9734 30.8213H123.382C123.682 30.8213 123.924 31.0632 123.924 31.3633C123.924 31.6634 123.68 31.9053 123.382 31.9053Z" fill="#2A404F"/>
<path d="M123.381 37.9531H100.206C99.9053 37.9531 99.6631 37.7112 99.6631 37.4111C99.6631 37.111 99.9053 36.8691 100.206 36.8691H123.379C123.68 36.8691 123.922 37.111 123.922 37.4111C123.922 37.7112 123.68 37.9531 123.381 37.9531Z" fill="#2A404F"/>
<path d="M4.23637 135.017L5.73446 137.841L8.47273 139.386L5.73446 140.931L4.23637 143.756L2.73828 140.931L0 139.386L2.73828 137.841L4.23637 135.017Z" fill="#1EAE9C"/>
<path d="M165.29 28.1698H218.187C217.831 23.7466 214.933 16.2013 214.395 15.3301C214.175 14.9785 213.985 14.6515 213.825 14.3984C211.356 10.4858 204.543 7.8767 201.468 12.5687C199.32 15.8497 201.107 22.2393 196.633 23.8742C191.502 25.7488 190.21 19.0098 189.753 15.5541C189.192 11.3078 189.286 6.95846 188.033 2.82638C187.501 1.59012 186.615 0.176929 185.2 0C183.785 0 182.545 1.06157 182.013 2.30008C180.444 6.10741 180.011 10.2148 179.439 14.2573C178.972 17.5361 178.336 24.7701 173.969 25.1777C171.65 25.3927 169.553 21.2583 167.405 23.0903C166.039 24.2505 166.111 26.6782 165.29 28.1698Z" fill="#FFE8D6"/>
<path d="M169.813 196.485C173.399 198.492 175.469 201.611 174.435 203.452C173.402 205.293 169.659 205.157 166.07 203.15C163.59 201.761 162.327 198.96 161.787 197.365C161.565 196.709 161.957 196.01 162.635 195.855C164.281 195.484 167.333 195.096 169.813 196.485Z" fill="#1EAE9C"/>
<path d="M187.64 197.603C185.615 199.652 183.119 200.472 182.065 199.433C181.011 198.394 181.796 195.89 183.821 193.841C185.223 192.423 187.353 192.091 188.535 192.022C189.022 191.993 189.421 192.389 189.401 192.873C189.345 194.053 189.042 196.185 187.64 197.603Z" fill="#1EAE9C"/>
<path d="M175.887 216.999C175.578 216.999 175.326 216.748 175.326 216.439C175.326 208.426 174.077 200.007 171.613 191.414C171.527 191.116 171.7 190.807 171.996 190.722C172.294 190.637 172.604 190.809 172.689 191.105C175.183 199.799 176.448 208.321 176.448 216.439C176.448 216.748 176.197 216.999 175.887 216.999Z" fill="#2A404F"/>
<path d="M171.218 188.744C170.98 188.744 170.76 188.592 170.684 188.355C167.677 178.942 164.259 172.774 164.225 172.711C164.075 172.44 164.171 172.1 164.443 171.95C164.714 171.8 165.055 171.896 165.205 172.167C165.239 172.23 168.708 178.487 171.754 188.014C171.848 188.31 171.684 188.624 171.39 188.718C171.332 188.735 171.276 188.744 171.218 188.744Z" fill="#2A404F"/>
<path d="M173.261 177.589C173.566 173.765 170.709 170.417 166.879 170.113C163.049 169.808 159.697 172.662 159.392 176.486C159.087 180.311 161.945 183.658 165.774 183.963C169.604 184.267 172.956 181.414 173.261 177.589Z" fill="#FFE8D6"/>
<path d="M180.702 217C180.397 217 180.148 216.755 180.141 216.451C180.137 216.236 179.776 194.698 185.227 179.202C185.331 178.911 185.649 178.756 185.943 178.859C186.234 178.962 186.389 179.28 186.286 179.574C180.901 194.879 181.26 216.216 181.262 216.428C181.269 216.738 181.022 216.993 180.713 217C180.709 217 180.706 217 180.702 217Z" fill="#2A404F"/>
<path d="M191.702 180.862L186.784 175.948L180.065 177.747L178.264 184.457L183.182 189.37L189.901 187.572L191.702 180.862Z" fill="#FCCC6C"/>
<path d="M166.331 178.123C162.626 178.123 158.639 177.267 158.639 175.388C158.639 175.079 158.89 174.828 159.199 174.828C159.509 174.828 159.76 175.079 159.76 175.388C159.76 175.872 161.996 177.003 166.331 177.003C170.666 177.003 172.902 175.87 172.902 175.388C172.902 175.079 173.153 174.828 173.463 174.828C173.772 174.828 174.023 175.079 174.023 175.388C174.023 177.265 170.036 178.123 166.331 178.123Z" fill="white"/>
<path d="M166.331 178.123C162.626 178.123 158.639 177.267 158.639 175.388C158.639 175.079 158.89 174.828 159.199 174.828C159.509 174.828 159.76 175.079 159.76 175.388C159.76 175.872 161.996 177.003 166.331 177.003C170.666 177.003 172.902 175.87 172.902 175.388C172.902 175.079 173.153 174.828 173.463 174.828C173.772 174.828 174.023 175.079 174.023 175.388C174.023 177.265 170.036 178.123 166.331 178.123Z" fill="white"/>
<path d="M172.084 179.972C171.682 179.972 171.198 179.916 170.613 179.779C169.189 179.45 167.469 178.731 165.771 177.755C164.073 176.776 162.589 175.652 161.591 174.584C160.124 173.016 160.173 172.066 160.474 171.547C160.628 171.278 160.972 171.186 161.238 171.341C161.508 171.495 161.6 171.838 161.445 172.104C161.351 172.268 161.53 172.877 162.409 173.818C163.333 174.805 164.726 175.86 166.329 176.783C167.933 177.706 169.543 178.382 170.862 178.687C172.118 178.975 172.734 178.825 172.828 178.662C172.983 178.393 173.326 178.301 173.593 178.456C173.862 178.61 173.954 178.953 173.8 179.222C173.589 179.598 173.113 179.972 172.084 179.972Z" fill="white"/>
<path d="M172.084 179.972C171.682 179.972 171.198 179.916 170.613 179.779C169.189 179.45 167.469 178.731 165.771 177.755C164.073 176.776 162.589 175.652 161.591 174.584C160.124 173.016 160.173 172.066 160.474 171.547C160.628 171.278 160.972 171.186 161.238 171.341C161.508 171.495 161.6 171.838 161.445 172.104C161.351 172.268 161.53 172.877 162.409 173.818C163.333 174.805 164.726 175.86 166.329 176.783C167.933 177.706 169.543 178.382 170.862 178.687C172.118 178.975 172.734 178.825 172.828 178.662C172.983 178.393 173.326 178.301 173.593 178.456C173.862 178.61 173.954 178.953 173.8 179.222C173.589 179.598 173.113 179.972 172.084 179.972Z" fill="white"/>
<path d="M178.262 185.016C178.015 185.016 177.789 184.85 177.722 184.602C177.641 184.304 177.818 183.995 178.119 183.916L191.559 180.319C191.857 180.241 192.164 180.416 192.245 180.716C192.326 181.014 192.149 181.323 191.848 181.401L178.408 184.998C178.361 185.011 178.311 185.016 178.262 185.016Z" fill="white"/>
<path d="M184.983 183.218C184.839 183.218 184.696 183.164 184.586 183.054L179.668 178.143C179.448 177.923 179.448 177.57 179.668 177.35C179.888 177.131 180.242 177.131 180.462 177.35L185.38 182.262C185.6 182.481 185.6 182.835 185.38 183.054C185.27 183.164 185.126 183.218 184.983 183.218Z" fill="white"/>
<path d="M35.1263 48.3639C32.258 48.3639 29.4681 47.0896 28.4724 44.3326C28.284 43.813 28.1606 43.2554 28.1023 42.6731C26.9294 42.2229 25.761 41.3763 24.7854 40.2409C23.7 38.9777 23.007 37.4772 22.8837 36.12C22.85 35.7505 23.1214 35.4235 23.4914 35.3899C23.8615 35.354 24.1889 35.6273 24.2225 35.9968C24.3212 37.0673 24.9133 38.326 25.8059 39.3652C26.3777 40.0303 27.1873 40.7381 28.0866 41.1972C28.1158 40.8299 28.1674 40.4559 28.2414 40.0774C28.497 38.7918 28.9927 37.9206 29.7574 37.4145C30.632 36.8367 31.8498 36.8411 32.7177 37.4257C33.5879 38.0102 34.0498 39.1345 33.8413 40.1625C33.7157 40.7896 33.3569 41.3875 32.8052 41.8937C31.9081 42.7179 30.8585 43.0986 29.6856 43.0314C29.6251 43.0269 29.5668 43.0225 29.5062 43.018C29.5601 43.3181 29.6363 43.6047 29.7372 43.878C30.9101 47.1254 35.0702 47.4457 37.6493 46.6349C37.7368 46.6081 37.8242 46.5789 37.9117 46.5476C38.645 46.2856 39.2976 45.9295 39.8471 45.4905C40.1364 45.2598 40.5603 45.3046 40.7935 45.5958C41.0267 45.8847 40.9796 46.308 40.6881 46.5409C40.022 47.0739 39.2416 47.5017 38.3669 47.8152C38.2638 47.851 38.1606 47.8869 38.0552 47.9205C37.1155 48.2139 36.1176 48.3639 35.1263 48.3639ZM29.412 41.6518C29.5309 41.672 29.6498 41.6854 29.7686 41.6921C30.5625 41.7392 31.2802 41.4749 31.8991 40.9083C32.1369 40.6888 32.4396 40.3372 32.5271 39.8982C32.628 39.3988 32.3948 38.8277 31.9709 38.5432C31.547 38.2588 30.9303 38.2566 30.5042 38.5388C30.0534 38.8366 29.7462 39.4256 29.5645 40.3416C29.4748 40.7873 29.4255 41.2263 29.412 41.6518Z" fill="#2A404F"/>
</svg>
