<svg width="96" height="96" viewBox="0 0 96 96" fill="none" xmlns="http://www.w3.org/2000/svg">
<path d="M10.5 12.75H85.5C87.0913 12.75 88.6174 13.3821 89.7426 14.5074C90.8679 15.6326 91.5 17.1587 91.5 18.75V76.5C91.5 78.2902 90.7888 80.0071 89.523 81.273C88.2571 82.5388 86.5402 83.25 84.75 83.25H11.25C9.45979 83.25 7.7429 82.5388 6.47703 81.273C5.21116 80.0071 4.5 78.2902 4.5 76.5V18.75C4.5 17.1587 5.13214 15.6326 6.25736 14.5074C7.38258 13.3821 8.9087 12.75 10.5 12.75Z" fill="#FFE9D6"/>
<path d="M85.5 12.75H10.5C8.9087 12.75 7.38258 13.3821 6.25736 14.5074C5.13214 15.6326 4.5 17.1587 4.5 18.75V28.8247H91.5V18.75C91.5 17.1587 90.8679 15.6326 89.7426 14.5074C88.6174 13.3821 87.0913 12.75 85.5 12.75Z" fill="#FF7707"/>
<path d="M16.1792 23.788C17.8361 23.788 19.1792 22.4448 19.1792 20.788C19.1792 19.1311 17.8361 17.788 16.1792 17.788C14.5223 17.788 13.1792 19.1311 13.1792 20.788C13.1792 22.4448 14.5223 23.788 16.1792 23.788Z" fill="white"/>
<path d="M28.2192 23.788C29.8761 23.788 31.2192 22.4448 31.2192 20.788C31.2192 19.1311 29.8761 17.788 28.2192 17.788C26.5624 17.788 25.2192 19.1311 25.2192 20.788C25.2192 22.4448 26.5624 23.788 28.2192 23.788Z" fill="white"/>
<path d="M91.5003 18.75C91.5003 17.1587 90.8681 15.6326 89.7429 14.5074C88.6177 13.3821 87.0916 12.75 85.5003 12.75H45.1968L37.5933 28.8247H91.5003V18.75Z" fill="#FFB401"/>
<path d="M84.2016 22.0995H50.6436C50.2955 22.0995 49.9616 21.9612 49.7155 21.7151C49.4693 21.4689 49.3311 21.1351 49.3311 20.787C49.3311 20.4389 49.4693 20.1051 49.7155 19.8589C49.9616 19.6128 50.2955 19.4745 50.6436 19.4745H84.2016C84.5497 19.4745 84.8835 19.6128 85.1296 19.8589C85.3758 20.1051 85.5141 20.4389 85.5141 20.787C85.5141 21.1351 85.3758 21.4689 85.1296 21.7151C84.8835 21.9612 84.5497 22.0995 84.2016 22.0995Z" fill="white"/>
<path d="M22.5 60.9398H73.5V75.9398H22.5V60.9398Z" fill="#FF7707"/>
<path d="M53.1445 46.0802C52.7965 46.08 52.4627 45.9416 52.2166 45.6955C51.9705 45.4494 51.8322 45.1157 51.832 44.7677V41.5127C51.832 40.4962 51.4282 39.5214 50.7095 38.8027C49.9907 38.084 49.0159 37.6802 47.9995 37.6802C46.9831 37.6802 46.0082 38.084 45.2895 38.8027C44.5708 39.5214 44.167 40.4962 44.167 41.5127V44.7677C44.167 45.1158 44.0287 45.4496 43.7826 45.6958C43.5364 45.9419 43.2026 46.0802 42.8545 46.0802C42.5064 46.0802 42.1726 45.9419 41.9264 45.6958C41.6803 45.4496 41.542 45.1158 41.542 44.7677V41.5127C41.542 39.8 42.2223 38.1575 43.4334 36.9465C44.6444 35.7355 46.2869 35.0552 47.9995 35.0552C49.7121 35.0552 51.3546 35.7355 52.5656 36.9465C53.7766 38.1575 54.457 39.8 54.457 41.5127V44.7677C54.4568 45.1157 54.3184 45.4494 54.0724 45.6955C53.8263 45.9416 53.4925 46.08 53.1445 46.0802Z" fill="#2A404F"/>
<path d="M37.4977 65.6483C37.3011 65.361 36.9984 65.1635 36.6563 65.0992C36.3141 65.0349 35.9604 65.1091 35.6729 65.3056L34.7264 65.9528V65.4398C34.7264 65.0917 34.5881 64.7579 34.342 64.5117C34.0959 64.2656 33.762 64.1273 33.4139 64.1273C33.0658 64.1273 32.732 64.2656 32.4859 64.5117C32.2397 64.7579 32.1014 65.0917 32.1014 65.4398V65.9528L31.1549 65.3056C30.8675 65.109 30.5138 65.0347 30.1716 65.099C29.8294 65.1633 29.5267 65.3609 29.3302 65.6483C29.1337 65.9357 29.0594 66.2895 29.1236 66.6317C29.1879 66.9739 29.3855 67.2765 29.6729 67.4731L31.0882 68.4406L29.6729 69.4073C29.3855 69.6038 29.1879 69.9065 29.1236 70.2487C29.0594 70.5909 29.1337 70.9446 29.3302 71.2321C29.5267 71.5195 29.8294 71.7171 30.1716 71.7814C30.5138 71.8456 30.8675 71.7713 31.1549 71.5748L32.1022 70.9276V71.4398C32.1022 71.7879 32.2405 72.1218 32.4866 72.3679C32.7327 72.614 33.0666 72.7523 33.4147 72.7523C33.7628 72.7523 34.0966 72.614 34.3428 72.3679C34.5889 72.1218 34.7272 71.7879 34.7272 71.4398V70.9276L35.6737 71.5748C35.9611 71.7713 36.3148 71.8456 36.657 71.7814C36.9992 71.7171 37.3019 71.5195 37.4984 71.2321C37.6949 70.9446 37.7692 70.5909 37.705 70.2487C37.6407 69.9065 37.4431 69.6038 37.1557 69.4073L35.7397 68.4406L37.1549 67.4731C37.2973 67.3758 37.4191 67.2514 37.5134 67.1071C37.6076 66.9627 37.6725 66.8012 37.7044 66.6317C37.7362 66.4623 37.7343 66.2882 37.6989 66.1194C37.6634 65.9507 37.595 65.7906 37.4977 65.6483Z" fill="white"/>
<path d="M52.0841 65.6483C51.8875 65.361 51.5849 65.1635 51.2427 65.0992C50.9005 65.0349 50.5468 65.1091 50.2594 65.3056L49.3129 65.9528V65.4398C49.3129 65.0917 49.1746 64.7579 48.9284 64.5117C48.6823 64.2656 48.3485 64.1273 48.0004 64.1273C47.6523 64.1273 47.3184 64.2656 47.0723 64.5117C46.8261 64.7579 46.6879 65.0917 46.6879 65.4398V65.9528L45.7414 65.3056C45.599 65.2083 45.4389 65.1399 45.2702 65.1045C45.1015 65.0691 44.9274 65.0672 44.758 65.099C44.5886 65.1309 44.427 65.1957 44.2827 65.29C44.1383 65.3842 44.0139 65.506 43.9166 65.6483C43.8193 65.7906 43.751 65.9507 43.7155 66.1195C43.6801 66.2882 43.6782 66.4622 43.7101 66.6317C43.7419 66.8011 43.8068 66.9626 43.901 67.107C43.9953 67.2514 44.117 67.3758 44.2594 67.4731L45.6746 68.4406L44.2594 69.4073C44.117 69.5046 43.9953 69.629 43.901 69.7734C43.8068 69.9177 43.7419 70.0793 43.7101 70.2487C43.6782 70.4182 43.6801 70.5922 43.7155 70.7609C43.751 70.9297 43.8193 71.0897 43.9166 71.2321C44.0139 71.3744 44.1383 71.4962 44.2827 71.5904C44.427 71.6846 44.5886 71.7495 44.758 71.7814C45.1002 71.8456 45.4539 71.7713 45.7414 71.5748L46.6879 70.9276V71.4398C46.6879 71.7879 46.8261 72.1218 47.0723 72.3679C47.3184 72.614 47.6523 72.7523 48.0004 72.7523C48.3485 72.7523 48.6823 72.614 48.9284 72.3679C49.1746 72.1218 49.3129 71.7879 49.3129 71.4398V70.9276L50.2594 71.5748C50.4017 71.6721 50.5618 71.7405 50.7305 71.7759C50.8992 71.8113 51.0733 71.8132 51.2427 71.7814C51.4122 71.7495 51.5737 71.6846 51.718 71.5904C51.8624 71.4962 51.9868 71.3744 52.0841 71.2321C52.1814 71.0897 52.2497 70.9297 52.2852 70.7609C52.3206 70.5922 52.3225 70.4182 52.2906 70.2487C52.2588 70.0793 52.1939 69.9177 52.0997 69.7734C52.0054 69.629 51.8837 69.5046 51.7414 69.4073L50.3254 68.4406L51.7406 67.4731C52.0281 67.2766 52.2257 66.974 52.2902 66.6318C52.3546 66.2896 52.2804 65.9359 52.0841 65.6483Z" fill="white"/>
<path d="M66.3317 69.4073L64.9164 68.4406L66.3317 67.4731C66.6191 67.2765 66.8167 66.9739 66.881 66.6317C66.9453 66.2895 66.871 65.9357 66.6744 65.6483C66.4779 65.3609 66.1753 65.1633 65.833 65.099C65.4908 65.0347 65.1371 65.109 64.8497 65.3056L63.9032 65.9528V65.4398C63.9032 65.0917 63.7649 64.7579 63.5188 64.5117C63.2726 64.2656 62.9388 64.1273 62.5907 64.1273C62.2426 64.1273 61.9088 64.2656 61.6626 64.5117C61.4165 64.7579 61.2782 65.0917 61.2782 65.4398V65.9528L60.3317 65.3056C60.0443 65.109 59.6905 65.0347 59.3483 65.099C59.0061 65.1633 58.7035 65.3609 58.5069 65.6483C58.3104 65.9357 58.2361 66.2895 58.3004 66.6317C58.3647 66.9739 58.5623 67.2765 58.8497 67.4731L60.2649 68.4406L58.8497 69.4073C58.5623 69.6038 58.3647 69.9065 58.3004 70.2487C58.2361 70.5909 58.3104 70.9446 58.5069 71.2321C58.7035 71.5195 59.0061 71.7171 59.3483 71.7814C59.6905 71.8456 60.0443 71.7713 60.3317 71.5748L61.2774 70.9276V71.4398C61.2774 71.7879 61.4157 72.1218 61.6619 72.3679C61.908 72.614 62.2418 72.7523 62.5899 72.7523C62.938 72.7523 63.2719 72.614 63.518 72.3679C63.7642 72.1218 63.9024 71.7879 63.9024 71.4398V70.9276L64.8489 71.5748C65.1364 71.7713 65.4901 71.8456 65.8323 71.7814C66.1745 71.7171 66.4772 71.5195 66.6737 71.2321C66.8702 70.9446 66.9445 70.5909 66.8802 70.2487C66.8159 69.9065 66.6184 69.6038 66.3309 69.4073H66.3317Z" fill="white"/>
<path d="M39.9414 44.7706H56.0604V50.1556C56.0604 50.7936 55.9347 51.4252 55.6906 52.0146C55.4465 52.604 55.0887 53.1395 54.6376 53.5906C54.1865 54.0417 53.651 54.3995 53.0616 54.6436C52.4722 54.8877 51.8406 55.0134 51.2026 55.0134H44.7991C44.1612 55.0134 43.5295 54.8877 42.9402 54.6436C42.3508 54.3995 41.8153 54.0417 41.3642 53.5906C40.9131 53.1395 40.5553 52.604 40.3112 52.0146C40.0671 51.4252 39.9414 50.7936 39.9414 50.1556V44.7706Z" fill="#FF7707"/>
</svg>
