<svg width="40" height="40" viewBox="0 0 40 40" fill="none" xmlns="http://www.w3.org/2000/svg">
<path d="M20 3.33301C19.558 3.33301 19.134 3.5086 18.8215 3.82116C18.5089 4.13372 18.3333 4.55765 18.3333 4.99967V8.33301C18.3333 8.77504 18.5089 9.19896 18.8215 9.51152C19.134 9.82408 19.558 9.99967 20 9.99967C20.442 9.99967 20.8659 9.82408 21.1785 9.51152C21.4911 9.19896 21.6666 8.77504 21.6666 8.33301V4.99967C21.6666 4.55765 21.4911 4.13372 21.1785 3.82116C20.8659 3.5086 20.442 3.33301 20 3.33301Z" fill="#2A404F"/>
<path opacity="0.9" d="M35 18.333H31.6667C31.2246 18.333 30.8007 18.5086 30.4882 18.8212C30.1756 19.1337 30 19.5576 30 19.9997C30 20.4417 30.1756 20.8656 30.4882 21.1782C30.8007 21.4907 31.2246 21.6663 31.6667 21.6663H35C35.442 21.6663 35.866 21.4907 36.1785 21.1782C36.4911 20.8656 36.6667 20.4417 36.6667 19.9997C36.6667 19.5576 36.4911 19.1337 36.1785 18.8212C35.866 18.5086 35.442 18.333 35 18.333Z" fill="#2A404F"/>
<path opacity="0.2" d="M9.99999 19.9997C9.99999 19.5576 9.8244 19.1337 9.51184 18.8212C9.19928 18.5086 8.77536 18.333 8.33333 18.333H4.99999C4.55797 18.333 4.13404 18.5086 3.82148 18.8212C3.50892 19.1337 3.33333 19.5576 3.33333 19.9997C3.33333 20.4417 3.50892 20.8656 3.82148 21.1782C4.13404 21.4907 4.55797 21.6663 4.99999 21.6663H8.33333C8.77536 21.6663 9.19928 21.4907 9.51184 21.1782C9.8244 20.8656 9.99999 20.4417 9.99999 19.9997Z" fill="#2A404F"/>
<path opacity="0.1" d="M10.3667 8.333C10.0418 8.02579 9.60815 7.86023 9.16119 7.87273C8.71423 7.88523 8.29054 8.07478 7.98333 8.39967C7.67612 8.72456 7.51056 9.15818 7.52306 9.60514C7.53556 10.0521 7.72511 10.4758 8.05 10.783L10.45 13.0997C10.6111 13.2552 10.8018 13.3767 11.0108 13.4568C11.2199 13.537 11.4429 13.5743 11.6667 13.5663C11.8912 13.5655 12.1132 13.5193 12.3194 13.4305C12.5256 13.3417 12.7118 13.2122 12.8667 13.0497C13.1771 12.7374 13.3513 12.315 13.3513 11.8747C13.3513 11.4344 13.1771 11.0119 12.8667 10.6997L10.3667 8.333Z" fill="#2A404F"/>
<path d="M28.3333 13.5662C28.7624 13.5645 29.1744 13.3974 29.4833 13.0996L31.8833 10.7829C32.1761 10.477 32.3415 10.0711 32.3458 9.64769C32.3502 9.22428 32.1932 8.81507 31.9068 8.5032C31.6204 8.19132 31.226 8.00015 30.8037 7.96853C30.3815 7.9369 29.963 8.06718 29.6333 8.33291L27.2333 10.6996C26.9229 11.0119 26.7487 11.4343 26.7487 11.8746C26.7487 12.3149 26.9229 12.7373 27.2333 13.0496C27.5219 13.3541 27.9147 13.5386 28.3333 13.5662Z" fill="#2A404F"/>
<path opacity="0.6" d="M20 30C19.558 30 19.134 30.1756 18.8215 30.4882C18.5089 30.8007 18.3333 31.2246 18.3333 31.6667V35C18.3333 35.442 18.5089 35.866 18.8215 36.1785C19.134 36.4911 19.558 36.6667 20 36.6667C20.442 36.6667 20.8659 36.4911 21.1785 36.1785C21.4911 35.866 21.6666 35.442 21.6666 35V31.6667C21.6666 31.2246 21.4911 30.8007 21.1785 30.4882C20.8659 30.1756 20.442 30 20 30Z" fill="#2A404F"/>
<path opacity="0.8" d="M29.55 26.8995C29.2317 26.5923 28.8045 26.4241 28.3622 26.4319C27.9199 26.4397 27.4989 26.6229 27.1917 26.9412C26.8845 27.2594 26.7163 27.6867 26.7241 28.129C26.7319 28.5712 26.9151 28.9923 27.2333 29.2995L29.6333 31.6662C29.9423 31.964 30.3542 32.1311 30.7833 32.1328C31.0067 32.1341 31.228 32.0905 31.4341 32.0047C31.6402 31.9188 31.827 31.7923 31.9833 31.6328C32.1396 31.4779 32.2635 31.2936 32.3482 31.0905C32.4328 30.8874 32.4763 30.6695 32.4763 30.4495C32.4763 30.2295 32.4328 30.0116 32.3482 29.8085C32.2635 29.6054 32.1396 29.4211 31.9833 29.2662L29.55 26.8995Z" fill="#2A404F"/>
<path opacity="0.4" d="M10.45 26.8993L8.04999 29.216C7.89377 29.3709 7.76978 29.5552 7.68517 29.7583C7.60056 29.9614 7.55699 30.1793 7.55699 30.3993C7.55699 30.6193 7.60056 30.8372 7.68517 31.0403C7.76978 31.2434 7.89377 31.4277 8.04999 31.5826C8.20631 31.7421 8.39309 31.8686 8.59923 31.9545C8.80537 32.0403 9.02667 32.0839 9.24999 32.0826C9.66085 32.0861 10.0585 31.9377 10.3667 31.666L12.7667 29.3493C13.0849 29.0421 13.2681 28.621 13.2759 28.1788C13.2837 27.7365 13.1155 27.3092 12.8083 26.991C12.5011 26.6727 12.0801 26.4895 11.6378 26.4817C11.1955 26.4739 10.7682 26.6421 10.45 26.9493V26.8993Z" fill="#2A404F"/>
</svg>
