<svg width="26" height="26" viewBox="0 0 26 26" fill="none" xmlns="http://www.w3.org/2000/svg">
<circle opacity="0.3" cx="13" cy="5" r="5" fill="#FFBD69"/>
<path d="M23.8331 10.7469V22.2081C23.8331 22.3517 23.7761 22.4894 23.6747 22.591C23.5732 22.6926 23.4356 22.7498 23.292 22.75H22.4795C22.3358 22.75 22.1979 22.6929 22.0963 22.5913C21.9947 22.4896 21.9376 22.3518 21.9376 22.2081V12.5669L14.2026 18.135C13.9349 18.3192 13.6175 18.4175 13.2926 18.4169H12.7076C12.3679 18.4169 12.0519 18.3113 11.7919 18.1318L11.7976 18.135L2.40505 11.3644C2.33179 11.3159 2.2717 11.25 2.23015 11.1726C2.1886 11.0952 2.1669 11.0087 2.16699 10.9208V10.7469V10.7453C2.16699 10.5609 2.26043 10.3992 2.40262 10.3041L2.40505 10.3025L11.7976 3.53194C12.0652 3.34778 12.3826 3.24944 12.7076 3.25H13.2926C13.6322 3.25 13.9482 3.35563 14.2082 3.53519L14.2026 3.53194L23.5951 10.3025C23.6682 10.3509 23.7282 10.4167 23.7698 10.494C23.8113 10.5712 23.8331 10.6576 23.8331 10.7453V10.7469ZM13.2926 20.3125H12.7076C11.9784 20.3088 11.2676 20.0832 10.6698 19.6658L10.682 19.6739L6.50006 16.6506V18.4161C6.50006 20.8106 9.41449 22.75 13.0001 22.75C16.5856 22.75 19.5001 20.8106 19.5001 18.4169V16.6506L15.2751 19.695C14.6922 20.0972 14.0007 20.3125 13.2926 20.3125Z" fill="#FF7707"/>
</svg>
