<svg width="104" height="73" viewBox="0 0 104 73" fill="none" xmlns="http://www.w3.org/2000/svg">
<g clip-path="url(#clip0_440_51027)">
<path d="M53.1656 37.6841C52.8209 37.6841 52.4679 37.6758 52.1067 37.6509L52.041 37.6426C51.803 37.626 51.5731 37.6011 51.3351 37.5761L51.1463 37.5512C50.941 37.5263 50.7358 37.5014 50.5224 37.4682L50.2843 37.435C50.0791 37.4017 49.8657 37.3602 49.6441 37.3187C49.6441 37.3187 49.4717 37.2855 49.4142 37.2772C49.1351 37.219 48.8478 37.1609 48.5523 37.0862C47.9941 36.9616 44.0538 35.9983 41.3531 32.502C41.3367 32.4771 41.3203 32.4605 41.3039 32.4356C41.2956 32.419 41.2792 32.4024 41.271 32.3858C40.8852 31.8709 40.524 31.3062 40.2203 30.7166C40.1382 30.675 40.0561 30.6335 39.9658 30.5837C39.9248 30.5588 39.8919 30.5422 39.8509 30.5172C39.8016 30.484 39.7524 30.4508 39.7031 30.4176C39.6457 30.3761 39.5882 30.3428 39.5307 30.3013C39.4815 30.2598 39.4158 30.21 39.3502 30.1518C39.2845 30.102 39.227 30.0439 39.1778 29.9858C39.1039 29.911 39.0464 29.8446 38.989 29.7698C38.9397 29.7117 38.874 29.6287 38.8084 29.529C38.7345 29.421 38.677 29.3131 38.6442 29.2466C38.6114 29.1802 38.5621 29.0972 38.5211 28.9975C38.4554 28.848 38.4061 28.6985 38.3733 28.5324C38.3651 28.4909 38.3487 28.4494 38.3405 28.4079C38.3405 28.3996 38.3323 28.383 38.3323 28.3747C38.2173 27.7518 38.283 27.1207 38.5375 26.4729C38.5703 26.3816 38.6196 26.2902 38.6688 26.1989C38.6934 26.149 38.7263 26.1075 38.7509 26.0577C38.7345 25.9414 38.7263 25.8168 38.7263 25.7006C38.7263 25.6757 38.7263 25.6425 38.7263 25.6175C38.7263 25.5013 38.7345 25.385 38.7427 25.2687C38.7509 25.2189 38.7509 25.1774 38.7591 25.1359C38.7673 25.0362 38.7919 24.9283 38.8166 24.8203C38.8248 24.7705 38.8412 24.7289 38.8494 24.6791C38.8987 24.4964 38.9561 24.3469 39.0136 24.2058C39.0875 24.0397 39.1778 23.8736 39.2763 23.7241C39.2845 23.7075 39.3009 23.6909 39.3091 23.6743C39.3173 23.6577 39.3337 23.641 39.3419 23.6244C39.4404 23.4916 39.539 23.367 39.6539 23.2507C39.6621 23.2424 39.6703 23.2341 39.6703 23.2341C39.7195 23.1926 39.7688 23.1428 39.8263 23.0929C39.9084 23.0182 40.0069 22.9435 40.13 22.8687C40.13 22.8687 40.1382 22.8687 40.1382 22.8604C38.7591 20.1116 38.9808 17.9109 39.4651 16.4825C39.4733 16.4659 39.4815 16.4493 39.4815 16.4244C40.524 13.5759 42.9128 12.488 44.6366 12.4215C44.6613 12.4215 44.6941 12.4215 44.7187 12.4215C44.7434 12.4215 44.7598 12.4215 44.7844 12.4215C44.9568 12.4298 45.1292 12.4382 45.3098 12.4548C45.1866 12.189 45.1128 11.9482 45.0717 11.7738C44.809 10.6776 45.1128 9.58968 45.868 8.91701C46.0814 8.726 46.3359 8.56821 46.615 8.45195C46.9433 8.31908 47.2963 8.24434 47.6575 8.24434C47.8627 8.24434 48.0597 8.26925 48.265 8.31077C48.3471 8.23603 48.4291 8.16959 48.5112 8.10316C48.5687 8.06163 48.6344 8.02011 48.6918 7.97859C48.7 7.97028 48.7082 7.97028 48.7164 7.96198C48.9053 7.84572 49.1023 7.75436 49.2993 7.68793C49.3321 7.71284 49.365 7.70454 49.3978 7.69623C49.3896 7.68793 49.1105 7.35574 49.1023 7.34744C49.1023 7.34744 48.9791 7.19796 48.9709 7.18135C48.4456 6.49207 48.3553 5.56195 48.7493 4.78963C49.1269 4.03391 49.8903 3.56055 50.7276 3.56055C50.744 3.56055 50.7605 3.56055 50.7769 3.56055C52.4843 3.60207 63.2707 6.60003 63.3692 6.63324C64.3297 6.92391 65.011 7.6298 65.3147 8.0035C65.5528 8.26094 66.0125 8.81735 67.2767 10.4367L67.958 11.317C67.9826 11.3503 68.0155 11.3835 68.0401 11.425L68.3028 11.7655C68.3356 11.7987 68.3602 11.8319 68.3849 11.8651L68.9923 12.6541C69.0087 12.6707 69.0169 12.6873 69.0334 12.7122C70.6833 14.8714 72.2676 16.9808 72.2841 16.9974C72.7848 17.6617 72.8751 18.542 72.5385 19.2894C73.5893 20.4023 74.402 22.0881 74.2624 24.2888C74.2624 24.3054 74.2624 24.3303 74.2542 24.3469C74.2378 24.5047 74.2214 24.6708 74.1967 24.8369C74.1885 24.8784 74.1803 24.92 74.1803 24.9532C74.1557 25.1027 74.1311 25.2272 74.0982 25.3601L74.0654 25.493C74.0325 25.6425 73.9915 25.7919 73.9423 25.9331C73.934 25.9663 73.9258 25.9995 73.9094 26.0328C73.2609 28.0674 71.7669 29.8612 69.4931 31.356C69.4274 31.4058 69.3535 31.4474 69.2796 31.4806C67.5804 32.3359 65.7416 32.8093 64.0916 32.8093C63.87 32.8093 63.6566 32.801 63.4513 32.7844C63.2297 33.0252 63.0081 33.2578 62.7864 33.4737L62.7618 33.4986C62.5648 33.6979 62.3596 33.8889 62.1543 34.0716L62.0558 34.1547C61.8752 34.3124 61.6946 34.4619 61.5223 34.6031C61.5223 34.6031 61.4155 34.6861 61.3745 34.7194C61.2842 34.7941 61.1857 34.8688 61.0872 34.9436C61.0051 35.01 60.9148 35.0682 60.8327 35.1263C60.7096 35.2176 60.5864 35.3007 60.4715 35.3754C60.3894 35.4336 60.2991 35.4917 60.2171 35.5415C60.1103 35.608 60.0036 35.6744 59.8969 35.7408C59.7902 35.8073 59.6835 35.8654 59.585 35.9235C59.5111 35.9651 59.4372 36.0066 59.3633 36.0481C59.2402 36.1145 59.1089 36.181 58.9857 36.2474C58.9693 36.2557 58.9529 36.264 58.9283 36.2723C58.0745 36.7042 57.188 37.0363 56.2768 37.2772C55.9567 37.3685 55.6201 37.4433 55.2835 37.5014L55.185 37.518C55.1029 37.5346 55.0291 37.5429 54.947 37.5512C54.3806 37.6426 53.7813 37.6841 53.1656 37.6841Z" fill="white"/>
<path d="M44.7187 14.6895C45.0799 14.6978 45.4329 14.7559 45.7777 14.8555C46.3687 15.005 46.9105 15.304 47.3866 15.7026C47.3948 15.7026 47.3948 15.7109 47.3948 15.7109C49.1187 17.1642 50.0873 19.9629 50.0709 22.2051C50.0709 22.2051 47.7889 22.2632 47.0583 25.7179C45.5807 25.5436 43.9225 24.3809 42.724 22.9193C41.1151 20.4362 41.1151 18.5428 41.5583 17.2224C42.4367 14.8639 44.4561 14.7061 44.7187 14.6895Z" fill="#FCD9B7"/>
<path d="M43.3971 23.2593C41.7882 20.7845 41.7882 18.8828 42.2397 17.5623C43.1098 15.1955 45.1292 15.0294 45.4001 15.0211C45.7531 15.0294 46.1143 15.0876 46.459 15.1872C46.5904 15.2205 46.7135 15.262 46.8366 15.3118C46.5083 15.1125 46.1635 14.9547 45.7859 14.8634C45.4329 14.7637 45.0799 14.7056 44.727 14.6973C44.4643 14.7056 42.4367 14.8634 41.5748 17.2385C41.1315 18.5589 41.1315 20.4523 42.7404 22.9354C43.6352 24.0316 44.7926 24.9534 45.9419 25.4268C45.0143 24.9036 44.1195 24.1396 43.3971 23.2593Z" fill="url(#paint0_radial_440_51027)"/>
<path d="M45.8844 22.1217C45.8844 22.1217 46.3934 22.0636 46.3113 21.474C46.2292 20.8844 45.9419 20.2698 46.418 20.22C46.8859 20.1702 47.9695 20.7266 47.321 19.2317C46.6725 17.7369 44.5299 16.2421 43.5367 17.3383C42.5434 18.4345 43.6762 22.3211 45.8844 22.1217Z" fill="#E08E62"/>
<path opacity="0.33" d="M44.7187 14.6895C45.0799 14.6978 45.4329 14.7559 45.7777 14.8555C46.3687 15.005 46.9105 15.304 47.3866 15.7026C47.3948 15.7026 47.3948 15.7109 47.3948 15.7109C49.1187 17.1642 50.0873 19.9629 50.0709 22.2051C50.0709 22.2051 47.7889 22.2632 47.0583 25.7179C45.5807 25.5436 43.9225 24.3809 42.724 22.9193C41.1151 20.4362 41.1151 18.5428 41.5583 17.2224C42.4367 14.8639 44.4561 14.7061 44.7187 14.6895Z" fill="url(#paint1_linear_440_51027)"/>
<path d="M59.8312 13.7175C57.4999 12.4635 55.6365 11.9652 53.6418 12.0898C53.6336 12.0898 53.6254 12.0898 53.6171 12.0898C52.4761 12.2061 52.2791 11.8157 51.8276 11.1929C51.3679 10.5784 50.2269 9.15827 49.5948 10.2046C48.9709 11.2593 51.0067 12.5881 51.0067 12.5881C51.0067 12.5881 50.7687 12.4635 50.4896 12.314C50.0381 12.0649 49.3896 11.6746 48.9956 11.2925C48.3389 10.6697 47.6739 10.3209 47.3292 10.6282C46.9844 10.9271 47.1732 12.422 49.5784 13.0199C49.5127 13.0448 49.4553 13.078 49.3978 13.1029C49.3732 13.1112 49.3485 13.1279 49.3157 13.1445C49.0694 13.2607 48.6918 13.46 48.2486 13.759C48.1993 13.7922 48.1665 13.8171 48.1665 13.8171C47.4441 14.3237 46.5657 15.0877 45.8434 16.2006C45.4822 16.7819 45.1949 17.3881 44.9568 17.9777C44.4561 19.3646 44.2098 21.092 44.4889 23.2345C43.4218 23.5999 42.5762 25.1114 42.5762 25.1114C42.4613 24.9204 41.4352 24.2062 41.0412 25.1031C40.6472 26 41.5666 27.0048 41.5666 27.0048C40.9345 26.6893 40.5979 27.2872 40.5979 27.2872C40.0643 28.6574 41.7964 28.8484 41.7964 28.8484C43.824 33.8478 49.0284 34.8693 49.0284 34.8693C51.409 35.4423 53.2724 35.5253 54.7253 35.3011C54.7336 35.3011 54.75 35.3011 54.7582 35.3011C54.7992 35.2928 54.8403 35.2845 54.8895 35.2762C54.9716 35.2596 55.0619 35.243 55.144 35.2264C55.185 35.2181 55.2343 35.2098 55.2753 35.2015C55.3574 35.1848 55.4313 35.1682 55.5134 35.1433C57.8857 34.562 60.8163 33.009 63.4021 29.2222C63.5416 28.9813 63.6812 28.7405 63.8043 28.4914C65.9961 24.0816 65.5282 16.7985 59.8312 13.7175Z" fill="#EB2227"/>
<path d="M57.976 34.2384C59.5193 33.4494 61.1529 32.1871 62.6961 30.2023L62.8028 27.6445C62.8028 27.6445 60.8327 32.0958 58.4604 33.7484C58.1731 33.956 58.0253 34.1138 57.976 34.2384Z" fill="url(#paint2_linear_440_51027)"/>
<path d="M42.8635 24.6963C43.0606 24.8042 43.2165 24.9288 43.2576 24.9952C43.2576 24.9952 44.0949 23.4921 45.162 23.1267C44.8829 20.9758 45.121 19.2485 45.6299 17.8616C45.868 17.2637 46.1553 16.6657 46.5165 16.0844C47.2471 14.9716 48.1172 14.2076 48.8396 13.701C48.8396 13.701 48.8724 13.6761 48.9217 13.6429C49.365 13.3439 49.7426 13.1446 49.9888 13.02C50.0135 13.0117 50.0381 12.9951 50.0709 12.9785C50.1284 12.9536 50.194 12.9204 50.2515 12.8955C48.0105 12.3391 47.6986 11.0103 47.9366 10.5868C47.6903 10.5037 47.4769 10.5037 47.3209 10.6449C46.9762 10.9439 47.165 12.4387 49.5702 13.0366C49.5045 13.0616 49.447 13.0948 49.3896 13.1197C49.365 13.128 49.3403 13.1446 49.3075 13.1612C49.0612 13.2775 48.6836 13.4768 48.2403 13.7757C48.1911 13.809 48.1583 13.8339 48.1583 13.8339C47.4359 14.3405 46.5575 15.1045 45.8351 16.2173C45.474 16.7986 45.1866 17.4048 44.9486 17.9945C44.4479 19.3813 44.2016 21.1087 44.4807 23.2513C43.7911 23.5004 43.1919 24.2229 42.8635 24.6963ZM55.4149 35.185C53.9619 35.4092 52.1067 35.3178 49.7179 34.7531C49.7179 34.7531 44.5217 33.7317 42.4941 28.7406C42.4941 28.7406 40.7621 28.5496 41.2957 27.1793C41.2957 27.1793 41.3531 27.088 41.4516 26.9883C40.9016 26.8139 40.6143 27.3122 40.6143 27.3122C40.0807 28.6825 41.8128 28.8735 41.8128 28.8735C43.8404 33.8728 49.0448 34.8943 49.0448 34.8943C51.4254 35.4673 53.2888 35.5504 54.7418 35.3261C54.75 35.3261 54.7664 35.3261 54.7746 35.3261C54.8156 35.3178 54.8567 35.3095 54.9059 35.3012C54.988 35.2846 55.0783 35.268 55.1604 35.2514C55.2014 35.2431 55.2507 35.2348 55.2917 35.2265C55.341 35.2182 55.382 35.2016 55.4231 35.1933C55.4231 35.185 55.4149 35.185 55.4149 35.185ZM49.6769 11.1681C50.0709 11.5418 50.7194 11.9321 51.1709 12.1896C51.45 12.3307 51.6881 12.4636 51.6881 12.4636C51.6881 12.4636 49.6441 11.1266 50.2761 10.0802C50.3254 10.0055 50.3746 9.94733 50.4239 9.8892C50.1202 9.78124 49.8247 9.83937 49.603 10.2131C49.4388 10.4954 49.4635 10.7861 49.5784 11.0768C49.6112 11.11 49.6441 11.1349 49.6769 11.1681ZM41.5009 26.9385C41.6568 26.8139 41.9113 26.7226 42.2561 26.8887C42.2561 26.8887 41.3285 25.8838 41.7225 24.9869C41.7718 24.8707 41.8374 24.7876 41.9031 24.7129C41.583 24.6298 41.2382 24.6797 41.0494 25.1198C40.721 25.8755 41.2957 26.6811 41.5009 26.9385Z" fill="url(#paint3_radial_440_51027)"/>
<path d="M58.526 25.5848C58.7559 24.9453 61.2514 20.3778 56.9499 18.2934C54.3477 17.0311 52.7224 17.7619 51.844 18.5342C51.1381 19.0159 50.9164 18.5093 50.9164 18.5093C50.6538 17.4297 49.9232 16.8401 49.3568 16.5494C48.618 16.184 47.3127 16.3003 46.3113 18.3681C45.3098 20.4359 45.1702 23.1432 45.1702 23.1432L44.768 23.1931C43.5695 23.3592 42.5762 25.1363 42.5762 25.1363C42.4613 24.9453 41.4352 24.2311 41.0412 25.128C40.6472 26.0249 41.5666 27.0298 41.5666 27.0298C40.9345 26.7142 40.5979 27.3121 40.5979 27.3121C40.0643 28.6824 41.7964 28.8734 41.7964 28.8734C43.824 33.8728 49.0284 34.8942 49.0284 34.8942C57.0649 36.8126 59.1089 33.2831 59.938 30.6257C60.7753 27.9599 58.526 25.5848 58.526 25.5848Z" fill="#FCD9B7"/>
<path d="M56.9417 18.2935C54.3395 17.0313 52.7142 17.7621 51.8358 18.5344C51.6881 18.6423 51.5567 18.6922 51.45 18.7254C51.4993 18.8666 51.5485 19.0077 51.5813 19.1738C51.5813 19.1738 51.7866 19.6887 52.5007 19.2237C53.4037 18.4762 55.0455 17.8036 57.6066 19.1489C58.2223 19.4728 58.6902 19.8465 59.0432 20.2451C58.682 19.506 58.0335 18.8167 56.9417 18.2935ZM59.0514 26.266C59.0104 26.3573 58.9693 26.432 58.9529 26.4819C58.9529 26.4819 59.4618 27.0632 59.8887 27.9601C59.6753 27.2708 59.3387 26.6895 59.0514 26.266ZM41.9442 29.1809C42.2643 29.8868 42.6419 30.5179 43.0688 31.066C42.7158 30.5179 42.4038 29.9034 42.1494 29.2224C42.1494 29.2224 42.0673 29.2141 41.9442 29.1809ZM46.3113 18.36C45.3098 20.4278 45.1702 23.1351 45.1702 23.1351L44.768 23.1849C43.5695 23.351 42.5762 25.1282 42.5762 25.1282C42.4613 24.9372 41.4352 24.223 41.0412 25.1199C40.6472 26.0168 41.5665 27.0217 41.5665 27.0217C40.9345 26.7061 40.5979 27.304 40.5979 27.304C40.327 27.9933 40.6307 28.3836 41.0083 28.6078C40.8524 28.3753 40.8031 28.0514 40.9919 27.6196C40.9919 27.6196 41.3367 27.0383 41.9688 27.3705C41.9688 27.3705 41.074 26.3407 41.5009 25.4521C41.9195 24.5635 42.4859 25.3441 42.5927 25.5351C42.5927 25.5351 43.8979 23.6583 45.2769 23.6334L45.6792 23.5919C45.6792 23.5919 45.909 20.8929 46.9762 18.8583C48.0433 16.8236 49.3485 16.7489 50.0709 17.1392C50.1366 17.1807 50.2105 17.2223 50.2843 17.2638C49.9888 16.915 49.6441 16.6825 49.3485 16.533C48.618 16.1842 47.3127 16.2921 46.3113 18.36Z" fill="url(#paint4_radial_440_51027)"/>
<path d="M64.9864 22.3461C64.8058 19.1986 63.4596 16.0512 60.488 14.1328C59.4947 14.2657 58.6245 14.9799 59.9051 16.1342C63.6073 19.4893 60.8081 25.4603 60.8081 25.4603C60.8081 25.4603 63.6648 23.0021 64.9864 22.3461Z" fill="url(#paint5_linear_440_51027)"/>
<path d="M69.9445 20.0951C69.5751 19.9456 69.1811 19.8376 68.7789 19.7795C68.1058 19.6632 67.4162 19.7214 66.7513 19.9124C66.7431 19.9124 66.7431 19.9124 66.7349 19.9124C64.3051 20.61 62.064 23.0432 61.0708 25.3519C61.0708 25.3519 63.3939 26.4647 62.5812 30.3429C64.1737 30.8412 66.4065 30.4177 68.2946 29.4626C71.0609 27.6522 71.9147 25.7007 72.046 24.1477C72.2184 21.3158 70.2154 20.2279 69.9445 20.0951Z" fill="#FCD9B7"/>
<path d="M65.4215 27.1871C65.4215 27.1871 64.9289 26.8882 65.2737 26.3234C65.6185 25.7504 66.1931 25.2522 65.7252 24.9864C65.2655 24.7207 63.9028 24.7954 65.2409 23.558C66.5789 22.3206 69.4438 21.7725 69.9774 23.3504C70.5028 24.9366 67.5968 28.4079 65.4215 27.1871Z" fill="#E08E62"/>
<path d="M67.3177 25.3854C66.973 26.2491 66.4722 26.9052 65.9879 27.3951C65.7909 27.3536 65.6021 27.2872 65.4133 27.1792C65.4133 27.1792 64.9207 26.8802 65.2655 26.3155C65.6103 25.7425 66.1849 25.2442 65.717 24.9785C65.2573 24.7127 63.8946 24.7875 65.2327 23.5501C65.5036 23.301 65.8319 23.085 66.1931 22.9023C66.9729 23.1847 67.9498 23.8408 67.3177 25.3854Z" fill="#603A17"/>
<path d="M66.4394 20.9172C66.4394 20.9172 66.4476 20.9172 66.4558 20.9172C67.1289 20.7262 67.8102 20.6764 68.4834 20.7844C68.8856 20.8425 69.2796 20.9421 69.649 21.0999C69.9199 21.2328 71.9229 22.329 71.7505 25.1609C71.7341 25.3436 71.7094 25.5429 71.6684 25.7339C71.89 25.1775 72.005 24.646 72.046 24.156C72.2184 21.3241 70.2154 20.2279 69.9445 20.0951C69.5751 19.9456 69.1811 19.8376 68.7789 19.7795C68.1058 19.6632 67.4162 19.7214 66.7513 19.9124C66.7431 19.9124 66.7431 19.9124 66.7349 19.9124C64.3051 20.61 62.064 23.0432 61.0708 25.3519C61.0708 25.3519 61.1365 25.3851 61.2267 25.4432C62.3596 23.4335 64.3297 21.5235 66.4394 20.9172Z" fill="url(#paint6_radial_440_51027)"/>
<path opacity="0.43" d="M69.9445 20.0951C69.5751 19.9456 69.1811 19.8376 68.7789 19.7795C68.1058 19.6632 67.4162 19.7214 66.7513 19.9124C66.7431 19.9124 66.7431 19.9124 66.7349 19.9124C64.3051 20.61 62.064 23.0432 61.0708 25.3519C61.079 25.3519 63.3939 26.4647 62.5812 30.3429C64.1737 30.8412 66.4065 30.4177 68.2946 29.4626C71.0609 27.6522 71.9147 25.7007 72.046 24.1477C72.2184 21.3158 70.2154 20.2279 69.9445 20.0951Z" fill="url(#paint7_radial_440_51027)"/>
<path d="M50.7276 5.81152C50.7276 5.81152 53.5104 9.33267 57.8693 12.0732C62.2282 14.8137 66.2424 16.8566 70.511 18.3681C70.511 18.3681 64.617 10.5451 63.6319 9.47385C63.6319 9.47385 63.2133 8.93405 62.7454 8.79287C62.2857 8.65169 51.9672 5.83644 50.7276 5.81152Z" fill="#49494B"/>
<path d="M62.0887 9.41572C62.0887 9.41572 66.3491 13.3687 67.3177 14.4483C67.4901 14.6393 67.4326 14.4566 67.2356 14.0331C65.7006 12.0317 64.1081 9.98043 63.6402 9.47385C63.6402 9.47385 63.2215 8.93405 62.7536 8.79287C62.2857 8.65169 51.9672 5.83644 50.7276 5.81152C50.7276 5.81152 51.5485 6.8579 53.0015 8.24477C53.141 8.3112 53.2231 8.35273 53.2231 8.35273C53.2231 8.35273 52.6978 7.33126 52.6239 7.19839C52.5664 7.05721 59.7245 8.79287 62.0887 9.41572Z" fill="url(#paint8_linear_440_51027)"/>
<path d="M57.188 9.84766L53.1328 12.1314C53.1328 12.1314 54.0604 14.8387 57.6723 16.4415C61.2842 18.0526 63.9193 17.9862 63.9193 17.9862L64.4282 14.0166C64.4282 14.0166 61.5223 10.3625 57.188 9.84766Z" fill="#4E4C50"/>
<path d="M62.8932 12.6712C62.8932 12.6712 62.5976 12.2975 62.0066 11.7992C60.7753 10.9273 59.1253 10.0719 57.188 9.84766L53.1328 12.1314C53.1328 12.1314 53.5925 13.4685 55.1194 14.8221C55.2015 14.8304 55.2507 14.8387 55.2507 14.8387L54.2657 12.6961L57.2373 10.9273C57.2373 10.9273 60.3238 11.0269 62.8932 12.6712Z" fill="url(#paint9_linear_440_51027)"/>
<path opacity="0.78" d="M63.9193 17.9863L64.4282 14.0167C64.4282 14.0167 64.0096 13.4852 63.2461 12.8042L63.1723 12.7959L61.7029 16.0928C61.1282 17.3717 59.3798 17.106 59.3798 17.106L60.8902 17.5876C60.8902 17.5876 61.1775 17.6624 61.7439 17.7454C63.0984 18.0029 63.9193 17.9863 63.9193 17.9863Z" fill="url(#paint10_linear_440_51027)"/>
<path opacity="0.78" d="M64.6334 13.958L67.2685 14.4563L69.961 17.9442C69.961 17.9442 65.5036 16.2418 64.4364 15.5276L64.6334 13.958Z" fill="url(#paint11_linear_440_51027)"/>
<path opacity="0.65" d="M59.4865 30.5264C59.4865 30.5264 58.5999 34.8946 53.5679 34.8946C53.5679 34.8863 57.1634 34.4046 59.4865 30.5264Z" fill="url(#paint12_radial_440_51027)"/>
<path d="M53.0836 27.6856C53.0836 27.6856 54.7664 25.3188 57.9925 26.9798C57.9925 26.9798 55.5052 26.415 53.0836 27.6856Z" fill="url(#paint13_radial_440_51027)"/>
<path opacity="0.43" d="M58.526 25.5848C58.7559 24.9453 61.2514 20.3778 56.9499 18.2934C54.3477 17.0311 52.7224 17.7619 51.844 18.5342C51.1381 19.0159 50.9164 18.5093 50.9164 18.5093C50.6538 17.4297 49.9232 16.8401 49.3568 16.5494C48.618 16.184 47.3127 16.3003 46.3113 18.3681C45.3098 20.4359 45.1702 23.1432 45.1702 23.1432L44.768 23.1931C43.5695 23.3592 42.5762 25.1363 42.5762 25.1363C42.4613 24.9453 41.4352 24.2311 41.0412 25.128C40.6472 26.0249 41.5666 27.0298 41.5666 27.0298C40.9345 26.7142 40.5979 27.3121 40.5979 27.3121C40.0643 28.6824 41.7964 28.8734 41.7964 28.8734C43.824 33.8728 49.0284 34.8942 49.0284 34.8942C57.0649 36.8126 59.1089 33.2831 59.938 30.6257C60.7753 27.9599 58.526 25.5848 58.526 25.5848Z" fill="url(#paint14_radial_440_51027)"/>
<path d="M55.6365 19.8713C55.3328 19.4727 54.9634 19.3564 54.6679 19.3564C54.0768 19.3564 53.8388 19.672 53.7813 19.7551C53.7649 19.78 53.7567 19.7966 53.7485 19.8215C53.6254 20.1952 53.9045 20.3862 54.0933 20.2035C54.2164 20.0872 54.4298 19.9959 54.6515 19.9627C54.791 19.9544 55.1358 19.9793 55.3656 20.2866C55.3738 20.2949 55.3903 20.3115 55.3985 20.3281C55.4067 20.3447 55.4231 20.3613 55.4313 20.3696C55.5462 20.5357 55.6447 20.6852 55.6694 20.7184C55.7268 20.7765 55.7925 20.7018 55.7925 20.7018C55.8582 20.353 55.7843 20.0872 55.6365 19.8713Z" fill="#603A17"/>
<path d="M48.0598 18.2522C48.4374 17.9947 48.7575 18.028 48.9956 18.1442C49.4471 18.3685 49.5127 18.7505 49.5209 18.8501C49.5209 18.875 49.5291 18.8999 49.5209 18.9249C49.4799 19.3069 49.1926 19.3816 49.1105 19.1491C49.0612 18.9913 48.9299 18.8252 48.7657 18.7172C48.6672 18.6591 48.3881 18.5512 48.1008 18.7505C48.0844 18.7588 48.0762 18.7671 48.0598 18.7754C48.0433 18.7837 48.0269 18.8003 48.0187 18.8003C47.871 18.9083 47.7396 19.0162 47.7068 19.0328C47.6411 19.066 47.6247 18.9747 47.6247 18.9747C47.715 18.6176 47.871 18.3934 48.0598 18.2522Z" fill="#603A17"/>
<path d="M55.8171 24.8793C55.3164 26.1831 54.0522 26.8973 52.9933 26.4904C51.9425 26.0751 51.4911 24.68 51.9918 23.3761C52.4925 22.0723 53.7567 21.3581 54.8156 21.7734C55.8664 22.1803 56.3179 23.5755 55.8171 24.8793Z" fill="url(#paint15_radial_440_51027)"/>
<path opacity="0.13" d="M55.9238 24.8702C55.3821 26.2487 54.044 27.0128 52.9194 26.5726C51.7948 26.1325 51.3269 24.6626 51.8605 23.2757C52.394 21.8971 53.7403 21.1331 54.8649 21.565C55.9813 22.0134 56.4574 23.4916 55.9238 24.8702Z" fill="url(#paint16_linear_440_51027)"/>
<path opacity="0.13" d="M49.4963 23.1681C48.9135 24.2643 47.7806 24.6547 46.9762 24.0484C46.1635 23.4422 45.9911 22.0636 46.5739 20.9674C47.1568 19.8712 48.2896 19.4809 49.0941 20.0871C49.8903 20.7017 50.0709 22.0719 49.4963 23.1681Z" fill="url(#paint17_linear_440_51027)"/>
<path d="M49.6523 22.4618C49.3896 23.6577 48.4538 24.4715 47.559 24.2888C46.6643 24.1061 46.1471 22.985 46.4016 21.7891C46.6643 20.5933 47.6001 19.7794 48.4948 19.9621C49.3896 20.1531 49.9067 21.266 49.6523 22.4618Z" fill="url(#paint18_radial_440_51027)"/>
<path d="M49.1926 22.7692C49.0038 23.3339 48.4948 23.6744 48.068 23.5249C47.6411 23.3754 47.4441 22.7941 47.6411 22.2294C47.8299 21.6647 48.3389 21.3242 48.7657 21.4737C49.1926 21.6232 49.3814 22.2045 49.1926 22.7692Z" fill="url(#paint19_radial_440_51027)"/>
<path d="M48.9627 22.7946C48.815 23.2264 48.4456 23.4838 48.1336 23.3759C47.8217 23.2679 47.6821 22.8278 47.8299 22.3959C47.9777 21.9641 48.3471 21.7067 48.659 21.8146C48.9709 21.9226 49.1105 22.3627 48.9627 22.7946Z" fill="#341718"/>
<path d="M48.2896 22.1711C48.2157 22.3123 48.0598 22.3787 47.9448 22.3123C47.8299 22.2458 47.7889 22.0797 47.8627 21.9386C47.9366 21.7974 48.0926 21.731 48.2075 21.7974C48.3306 21.8638 48.3635 22.0299 48.2896 22.1711Z" fill="white"/>
<path d="M48.7985 23.2181C48.7411 23.3344 48.6262 23.3842 48.5441 23.3344C48.462 23.2845 48.4374 23.16 48.4948 23.0437C48.5523 22.9274 48.6672 22.8776 48.7493 22.9274C48.8314 22.9773 48.856 23.1018 48.7985 23.2181Z" fill="white"/>
<path d="M50.3911 27.5611C50.5635 27.3037 50.8015 26.8552 50.5306 26.7307C50.2679 26.6061 49.915 27.0462 49.7262 27.3369L50.3911 27.5611Z" fill="#603A17"/>
<path d="M48.0187 26.7808C48.0351 26.4652 48.1008 25.9669 48.3881 26.0334C48.6754 26.0915 48.7 26.6562 48.6836 27.005L48.0187 26.7808Z" fill="#603A17"/>
<path d="M55.8171 24.8793C55.3164 26.1831 54.0522 26.8973 52.9933 26.4904C51.9425 26.0751 51.4911 24.68 51.9918 23.3761C52.4925 22.0723 53.7567 21.3581 54.8156 21.7734C55.8664 22.1803 56.3179 23.5755 55.8171 24.8793Z" fill="url(#paint20_radial_440_51027)"/>
<path d="M55.2097 25.1285C54.8895 25.7347 54.2246 26.0005 53.7321 25.7347C53.2395 25.469 53.0918 24.7631 53.4201 24.1652C53.7403 23.5589 54.4052 23.2932 54.8977 23.5589C55.3903 23.8164 55.5298 24.5222 55.2097 25.1285Z" fill="url(#paint21_radial_440_51027)"/>
<path d="M55.0291 25.0695C54.791 25.5179 54.2985 25.7173 53.9209 25.5179C53.5515 25.3186 53.4448 24.7954 53.691 24.347C53.9291 23.8985 54.4216 23.6992 54.7992 23.8985C55.1604 24.0896 55.2671 24.621 55.0291 25.0695Z" fill="#341718"/>
<path d="M54.2164 24.2393C54.1097 24.3888 53.9127 24.4303 53.7813 24.3306C53.65 24.231 53.6336 24.0317 53.7403 23.8822C53.847 23.7327 54.044 23.6995 54.1753 23.7992C54.3149 23.8905 54.3313 24.0898 54.2164 24.2393Z" fill="white"/>
<path d="M54.6679 25.5435C54.5776 25.6597 54.4298 25.693 54.3395 25.6182C54.241 25.5435 54.241 25.394 54.3231 25.2777C54.4052 25.1615 54.5612 25.1283 54.6515 25.203C54.7418 25.2777 54.75 25.4355 54.6679 25.5435Z" fill="white"/>
<path d="M70.5192 18.3598C70.5192 18.3598 64.6252 10.5368 63.6402 9.46554C63.6402 9.46554 63.2215 8.92574 62.7536 8.78457C62.2857 8.65169 51.9672 5.83644 50.7276 5.81152C50.7276 5.81152 52.6485 8.23646 55.8007 10.6282L53.1328 12.1313C53.1328 12.1313 54.0604 14.8386 57.6723 16.4414C61.2842 18.0525 63.9193 17.9861 63.9193 17.9861L64.2148 15.6691C66.2998 16.7155 68.3767 17.604 70.5192 18.3598Z" fill="url(#paint22_radial_440_51027)"/>
<path opacity="0.43" d="M65.4215 27.1871C65.4215 27.1871 64.9289 26.8882 65.2737 26.3234C65.6185 25.7504 66.1931 25.2522 65.7252 24.9864C65.2655 24.7207 63.9028 24.7954 65.2409 23.558C66.5789 22.3206 69.4438 21.7725 69.9774 23.3504C70.5028 24.9366 67.5968 28.4079 65.4215 27.1871Z" fill="url(#paint23_linear_440_51027)"/>
<path opacity="0.9" d="M47.6821 25.0784C46.5904 23.6998 46.0486 23.6583 45.3344 23.4424L44.6859 23.758C46.1717 23.6583 47.6821 25.0784 47.6821 25.0784Z" fill="url(#paint24_linear_440_51027)"/>
<path opacity="0.42" d="M63.4349 29.4714C63.4103 29.6209 63.4021 29.8784 63.2954 30.0777C65.914 30.3766 67.6625 28.9482 67.6625 28.9482C66.1439 29.4797 64.6416 29.5379 63.4349 29.4714Z" fill="url(#paint25_linear_440_51027)"/>
<path opacity="0.27" d="M42.0098 27.4951C42.0098 27.4951 46.5739 32.7685 52.5172 31.2322C52.5172 31.2239 46.5165 31.4481 42.0098 27.4951Z" fill="url(#paint26_linear_440_51027)"/>
<path d="M66.1771 12.6631C66.0375 14.4818 66.0129 16.4666 66.4808 17.4797L66.9487 17.5628C66.9487 17.5628 66.3659 16.6742 66.5711 13.1531L66.1771 12.6631Z" fill="url(#paint27_linear_440_51027)"/>
<path d="M66.2998 19.323L66.07 17.8282C66.07 17.8282 66.1439 17.496 66.2916 17.4462C66.4394 17.3964 66.858 17.114 66.858 17.114C66.858 17.114 67.211 16.9978 67.3177 17.2303C67.4244 17.4545 68.0319 18.4511 68.0319 18.4511C68.0319 18.4511 68.0483 18.7085 67.9088 18.7916C67.761 18.858 66.4558 19.5556 66.2998 19.323Z" fill="url(#paint28_linear_440_51027)"/>
<path d="M66.464 19.3811L66.2834 21.4324C66.2834 21.4324 67.0797 21.7646 67.8349 21.4905C68.5901 21.2081 69.1073 20.7763 69.0334 20.6185C68.9677 20.4607 67.8923 18.7832 67.8923 18.7832L66.464 19.3811Z" fill="url(#paint29_linear_440_51027)"/>
<path d="M66.267 17.4883L67.0222 18.9499L66.3901 19.2156L66.1849 17.7374L66.267 17.4883Z" fill="url(#paint30_linear_440_51027)"/>
<path d="M66.8744 21.5577L66.9073 21.5826C66.9976 21.5909 67.0961 21.5992 67.2028 21.5992L66.8826 19.5064L66.8744 21.5577ZM67.6379 21.5494C67.7035 21.5328 67.7774 21.5162 67.8431 21.4912C67.8923 21.4663 67.9498 21.4497 67.9991 21.4248L68.0237 21.375L67.17 19.5064L67.6379 21.5494ZM67.917 19.2988L68.6393 20.9431L68.6558 21.076C68.7871 20.9847 68.8856 20.9016 68.9513 20.8269L67.917 19.2988ZM68.2453 21.3168C68.3602 21.2587 68.467 21.2006 68.5573 21.1424L67.564 19.4898L68.2453 21.3168Z" fill="url(#paint31_radial_440_51027)"/>
<path opacity="0.88" d="M66.2506 12.7539C66.2506 12.7539 66.0371 15.129 66.2998 16.1339C66.2998 16.1339 66.2424 13.7006 66.3655 12.9283L66.2506 12.7539Z" fill="url(#paint32_linear_440_51027)"/>
<path opacity="0.43" d="M69.0416 20.6191C68.9759 20.4613 67.9006 18.7837 67.9006 18.7837C68.0401 18.7007 68.0237 18.4433 68.0237 18.4433C68.0237 18.4433 67.4162 17.455 67.3095 17.2225C67.2028 16.99 66.8498 17.1062 66.8498 17.1062C66.8498 17.1062 66.4312 17.3886 66.2834 17.4384C66.1356 17.4882 66.0618 17.8204 66.0618 17.8204L66.2916 19.3152C66.3245 19.3651 66.4065 19.3651 66.5215 19.3485L66.464 19.3734L66.2834 21.4246C66.2834 21.4246 67.0797 21.7568 67.8349 21.4827C68.5983 21.2087 69.1073 20.7851 69.0416 20.6191Z" fill="url(#paint33_radial_440_51027)"/>
<path d="M56.8678 30.1275C54.0358 31.3067 51.3105 31.315 48.9545 30.8084C48.5687 30.7254 48.1911 30.6174 47.8217 30.5095C47.2224 30.3268 46.6725 30.1275 46.1635 29.9282C46.1553 29.9282 46.1553 29.9199 46.1471 29.9199C45.9172 29.8285 45.7038 29.7288 45.4904 29.6375C45.4411 29.6126 45.4001 29.596 45.3508 29.5794C43.2329 28.5828 42.0016 27.4617 41.4598 26.897C41.4352 26.8804 41.427 26.8721 41.427 26.8721C41.427 26.8721 42.6173 28.5247 45.5396 29.9032C45.5807 29.9282 45.6299 29.9448 45.671 29.9697C45.8762 30.061 46.0896 30.1607 46.3113 30.252C46.3195 30.252 46.3195 30.2603 46.3277 30.2603C46.8202 30.468 47.362 30.659 47.9448 30.8334C48.306 30.9413 48.6672 31.041 49.053 31.1157C51.3515 31.6057 54.0194 31.5891 56.794 30.3849C56.9007 30.3434 56.9417 30.2188 56.9007 30.1109C56.8925 30.1109 56.8843 30.1192 56.8678 30.1275Z" fill="#603A17"/>
<path d="M56.8761 29.2305C56.8761 29.2305 56.0059 30.5094 57.6641 30.8748C57.6641 30.8831 56.5805 30.3433 56.8761 29.2305Z" fill="#603A17"/>
<path d="M87.1914 55.4471C87.1914 55.58 87.0847 55.688 86.9533 55.688C86.822 55.688 86.7235 55.58 86.7235 55.4471V54.052H86.3787C86.2556 54.052 86.1571 53.9523 86.1571 53.8277C86.1571 53.7032 86.2556 53.6035 86.3787 53.6035H87.5362C87.6593 53.6035 87.7578 53.7032 87.7578 53.8277C87.7578 53.9606 87.6593 54.052 87.5362 54.052H87.1914V55.4471Z" fill="white"/>
<path d="M88.5787 55.1149L88.3488 54.7412V55.4637C88.3488 55.5966 88.2421 55.7046 88.119 55.7046C87.9877 55.7046 87.8891 55.5966 87.8891 55.4637V53.7945C87.8891 53.6949 87.963 53.6201 88.0615 53.6201C88.1272 53.6201 88.1765 53.6533 88.2093 53.7032L88.8578 54.7662L89.5063 53.7032C89.5391 53.6533 89.5966 53.6201 89.6541 53.6201C89.7526 53.6201 89.8264 53.6949 89.8264 53.7945V55.4637C89.8264 55.5966 89.7197 55.7046 89.5884 55.7046C89.457 55.7046 89.3585 55.5966 89.3585 55.4637V54.7412L89.1287 55.1149C89.0712 55.2063 88.9727 55.2727 88.8578 55.2727C88.7347 55.2727 88.6362 55.2063 88.5787 55.1149Z" fill="white"/>
<path d="M35.1636 52.0429C35.1554 51.9931 35.1472 51.9432 35.1308 51.8934C35.1226 51.8768 35.1226 51.8602 35.1144 51.8436C35.1062 51.8187 35.098 51.7937 35.0816 51.7688C35.0569 51.7107 35.0241 51.6609 34.9913 51.611C34.9913 51.611 34.983 51.6027 34.983 51.5944C34.9502 51.5446 34.9256 51.5031 34.8927 51.4699C34.8845 51.4616 34.8845 51.4533 34.8763 51.445C34.8763 51.4366 34.8681 51.4366 34.8681 51.4283C34.8681 51.42 34.8599 51.42 34.8517 51.4117C34.6136 51.0712 34.1211 50.3737 33.8502 49.8837C33.842 49.8671 33.8338 49.8588 33.8256 49.8422C33.8174 49.8256 33.8092 49.8173 33.801 49.8006C33.5793 49.3854 33.4152 49.0615 33.4152 49.0615C33.3823 48.9868 33.3495 48.9037 33.3166 48.829C33.054 48.2477 32.8405 47.6913 32.6681 47.1764C32.2249 45.7397 31.9047 43.4975 31.9047 43.4975C31.8719 43.2068 31.8473 42.9909 31.8391 42.9327C31.8062 42.6753 31.7734 42.4428 31.7241 42.2186C31.4286 40.6905 30.8129 39.86 29.8525 39.6857C29.7458 39.669 29.6309 39.6524 29.5242 39.6524C28.7279 39.6524 27.9398 40.2088 27.1764 41.2967C26.5033 42.2767 25.7809 44.0622 25.4115 45.0338L24.4183 47.6996C24.3854 47.7826 24.2951 48.0401 24.0817 48.0401C23.975 48.0401 23.8354 47.9736 23.7287 47.6664C23.6056 47.2428 23.5153 46.811 23.4496 46.4373C23.4414 46.4124 23.0063 43.7715 22.3086 39.1708C21.9228 36.613 20.9459 35.2427 19.4355 35.2012C17.4571 35.2012 15.9139 37.8337 14.8385 43.0241C13.1639 51.0879 15.1915 56.2865 15.2736 56.5024C15.4542 56.9426 15.8482 57.2499 16.3161 57.308C16.3654 57.3163 16.4146 57.3163 16.4639 57.3163C16.6281 57.3163 16.7922 57.2831 16.9482 57.2249C17.5967 56.9592 17.9168 56.1952 17.6542 55.5391C17.6377 55.4893 15.8482 50.7889 17.3504 43.5639C17.9086 40.8649 18.5161 39.395 18.9347 38.631C19.025 38.4898 19.1317 38.4234 19.2467 38.4234C19.4847 38.4234 19.5832 38.6974 19.6243 38.8054C19.6735 39.0213 19.731 39.2704 19.772 39.5694C20.4698 44.1701 20.9213 46.8525 20.9213 46.8691C21.2743 48.9619 22.0623 51.4865 23.8026 51.6775C23.8683 51.6858 23.9339 51.6858 23.9996 51.6858C25.6578 51.6858 26.5033 49.4602 26.8234 48.6214L27.8578 45.856C28.1615 45.0338 28.4981 44.2947 28.7279 43.813C28.8346 43.5971 28.9495 43.4975 29.0727 43.4975C29.2286 43.4975 29.3271 43.6303 29.3518 43.8961C29.36 44.0206 29.3764 44.1535 29.3764 44.2947L29.3846 44.3611C29.3928 44.4857 29.6391 46.7196 30.7801 49.4435C30.7965 49.4851 30.8129 49.5266 30.8294 49.5764V49.5847C30.9197 49.8006 31.0428 50.083 31.1906 50.4069C31.6338 51.3536 32.3152 52.7322 33.0622 53.3052C33.1525 53.3716 33.2428 53.4381 33.3331 53.4879C33.4972 53.5626 33.6696 53.6041 33.8584 53.6041C34.5808 53.6041 35.1718 53.0062 35.1718 52.2754C35.1718 52.209 35.1636 52.1425 35.1554 52.0844C35.1636 52.0678 35.1636 52.0595 35.1636 52.0429ZM40.5158 42.6338C37.5114 42.6338 35.0816 45.0919 35.0816 48.1314C35.0816 51.1626 37.5114 53.6291 40.5158 53.6291C43.512 53.6291 45.9501 51.1709 45.9501 48.1314C45.9501 45.0919 43.512 42.6338 40.5158 42.6338ZM42.8143 49.02C42.0098 50.0166 41.0166 50.6643 40.524 50.955C40.0315 50.6643 39.0382 50.0166 38.2337 49.02C37.1091 47.6331 37.7905 46.0221 38.9643 46.047C40.0643 46.0719 40.5322 47.1515 40.5322 47.1515C40.5322 47.1515 40.5322 47.1515 40.5322 47.1432V47.1515C40.5322 47.1515 41.0001 46.0719 42.1001 46.047C43.2576 46.0221 43.9307 47.6331 42.8143 49.02ZM77.3407 50.8802C77.3325 50.4982 77.1765 50.1494 76.9057 49.892C76.7251 49.7176 76.5034 49.6013 76.2654 49.5432C76.1669 49.5183 76.0601 49.51 75.9616 49.51C75.5758 49.51 75.2146 49.6761 74.9519 49.9584C74.4594 50.4899 73.7699 50.7972 73.0557 50.7972C72.8669 50.7972 72.6781 50.7723 72.4811 50.7308C71.8079 50.573 71.2333 50.1494 70.8639 49.5515C70.4945 48.9536 70.3796 48.2394 70.5274 47.5501C70.7983 46.3542 71.8572 45.4823 73.0557 45.4823C73.2527 45.4823 73.4415 45.5072 73.6303 45.5487C73.9587 45.6234 74.287 45.7729 74.5825 45.9971C74.6646 46.0719 74.9109 46.3293 74.8206 46.5868C74.7057 46.9273 74.0654 47.1349 72.9408 47.193L72.8915 47.2013L72.7766 47.2345C72.3744 47.3425 72.0953 47.7162 72.0953 48.1397C72.0953 48.638 72.4729 49.0449 72.9572 49.0781H72.9818L73.1214 49.0698C73.3102 49.0615 77.7594 48.7626 77.8415 46.7279V46.6366C77.8743 46.2463 77.825 45.8477 77.6937 45.474C77.6773 45.4241 77.6609 45.3743 77.6362 45.3245L77.5624 45.1833C77.5541 45.1667 77.5459 45.1501 77.5213 45.1085C77.4556 45.0006 77.4064 44.9175 77.3653 44.876L77.3079 44.8179C76.5445 43.7881 75.4527 43.0656 74.2378 42.7833C73.852 42.6919 73.4497 42.6504 73.0475 42.6504C70.5684 42.6504 68.3767 44.4442 67.8267 46.9189C67.5065 48.3473 67.7528 49.8173 68.5162 51.0629C69.2796 52.3086 70.4699 53.1723 71.8572 53.4962C72.243 53.5875 72.6453 53.6291 73.0393 53.6291C74.5169 53.6291 75.9452 52.9979 76.9549 51.9017C77.2176 51.6193 77.3571 51.2622 77.3407 50.8802ZM88.6361 42.667C88.5786 42.6587 88.5294 42.6587 88.4391 42.6587C88.4309 42.6587 88.4227 42.6587 88.4145 42.6587C87.7578 42.6919 87.216 43.1902 87.1339 43.8629C87.0928 44.1452 86.707 46.6864 84.7041 49.402L84.4496 49.7425L84.2362 49.9418L84.1459 49.6595C83.6205 47.9985 82.6026 45.5238 80.7556 43.1653C80.5011 42.8414 80.1153 42.6504 79.6967 42.6587C79.4011 42.6587 79.122 42.7583 78.884 42.9494C78.6049 43.1736 78.4325 43.4892 78.3915 43.8462C78.3504 44.2033 78.4489 44.5521 78.6706 44.8345C81.0593 47.874 81.831 51.1875 81.9131 51.5612L82.0116 52.1674L81.6175 52.4664L81.4944 52.5661L81.478 52.5578C79.5407 53.9612 77.2094 54.991 74.5333 55.6139C74.1803 55.6969 73.8848 55.9128 73.6878 56.2201C73.499 56.5274 73.4333 56.8928 73.5154 57.2499C73.6632 57.881 74.2049 58.3128 74.8452 58.3128H74.8945C74.9766 58.3128 75.0587 58.2962 75.1325 58.2796C88.3898 55.1986 89.7525 44.6269 89.8018 44.1784C89.9003 43.4393 89.3667 42.7583 88.6361 42.667ZM63.279 47.6747L63.4267 47.5335C64.4692 46.5535 65.5774 45.7231 66.7349 45.0753C67.3752 44.7099 67.605 43.8961 67.252 43.2483C67.014 42.8248 66.5707 42.559 66.0864 42.559C65.8647 42.559 65.6349 42.6172 65.4379 42.7251C63.9192 43.5888 62.4745 44.6933 61.1447 46.0221L61.12 46.047L61.0872 46.0636L60.8163 46.1964V44.0123C60.8163 43.2566 60.2088 42.6421 59.4618 42.6421C58.7148 42.6421 58.1074 43.2566 58.1074 44.0123V52.2256C58.1074 52.9813 58.7148 53.5958 59.4618 53.5958C60.2088 53.5958 60.8163 52.9813 60.8163 52.2256V49.6844L60.8409 49.5681L60.9148 49.51L61.0379 49.4435H61.0872C61.1693 49.4435 61.2514 49.4851 61.3335 49.5598L66.0371 54.0443C66.2916 54.2851 66.62 54.418 66.9647 54.418C67.3341 54.418 67.6953 54.2602 67.9498 53.9862C68.1961 53.7204 68.3274 53.3716 68.3192 53.0062C68.311 52.6408 68.155 52.3003 67.8923 52.0512L63.279 47.6747ZM55.3082 42.6587C54.5612 42.6587 53.9537 43.2732 53.9537 44.029V49.2525L53.6089 48.6795C52.7224 47.2345 51.1709 44.7099 50.6866 43.9874C50.4649 43.6552 49.7918 42.6504 48.8068 42.6504C48.6508 42.6504 48.4948 42.6753 48.3388 42.7251C47.0747 43.1154 47.0665 44.6352 47.0665 45.5985L47.0583 52.2339C47.0583 52.9896 47.6657 53.6041 48.4127 53.6041C49.1597 53.6041 49.7672 52.9896 49.7672 52.2339V47.5999L50.112 48.1646C51.1134 49.784 52.2052 51.5778 52.2298 51.6193C53.0261 52.9149 53.9044 53.6041 54.7664 53.6041C54.9141 53.6041 55.0619 53.5792 55.2179 53.546C56.1373 53.2886 56.6216 52.4166 56.6626 50.9384V44.029C56.6544 43.2732 56.047 42.6587 55.3082 42.6587Z" fill="#EE202E"/>
<path d="M40.877 62.8883L40.1382 61.7256V63.7852C40.1382 64.2834 39.736 64.6904 39.2434 64.6904C38.7509 64.6904 38.3569 64.2834 38.3569 63.7852V58.1048C38.3569 57.6979 38.6606 57.374 39.0711 57.374C39.3255 57.374 39.5636 57.5069 39.6867 57.7228L41.7718 61.1692L43.8568 57.7228C43.98 57.5152 44.2098 57.374 44.4725 57.374C44.8747 57.374 45.1867 57.6979 45.1867 58.1048V63.7852C45.1867 64.2834 44.7926 64.6904 44.3001 64.6904C43.8076 64.6904 43.4053 64.2834 43.4053 63.7852V61.7256L42.6665 62.8883C42.4941 63.2121 42.1658 63.4364 41.7718 63.4364C41.3777 63.4364 41.0494 63.2121 40.877 62.8883Z" fill="white"/>
<path d="M54.3806 59.1185H53.338C52.8619 59.1185 52.4679 58.7199 52.4679 58.2382C52.4679 57.7565 52.8619 57.3662 53.338 57.3662H57.2126C57.6887 57.3662 58.0828 57.7482 58.0828 58.2382C58.0828 58.7199 57.6887 59.1185 57.2126 59.1185H56.1619V63.794C56.1619 64.2922 55.7597 64.6909 55.2671 64.6909C54.7746 64.6909 54.3806 64.2922 54.3806 63.794V59.1185Z" fill="white"/>
<path d="M63.4924 62.0495H61.0872V63.7852C61.0872 64.2834 60.685 64.6904 60.1924 64.6904C59.6999 64.6904 59.3059 64.2834 59.3059 63.7852V58.2792C59.3059 57.7809 59.6999 57.374 60.1924 57.374C60.685 57.374 61.0872 57.7809 61.0872 58.2792V60.3055H63.4924V58.2792C63.4924 57.7809 63.8864 57.374 64.3789 57.374C64.8715 57.374 65.2737 57.7809 65.2737 58.2792V63.7852C65.2737 64.2834 64.8715 64.6904 64.3789 64.6904C63.8864 64.6904 63.4924 64.2834 63.4924 63.7852V62.0495Z" fill="white"/>
<path d="M52.5828 63.4701L50.6538 58.1967C50.4814 57.715 50.0135 57.3662 49.4881 57.3662C48.9627 57.3662 48.4948 57.715 48.3224 58.1967L46.3934 63.4701C46.3605 63.5697 46.3359 63.6777 46.3359 63.794C46.3359 64.2922 46.7545 64.6909 47.2471 64.6909C47.6165 64.6909 47.9366 64.4915 48.0598 64.1594L48.2896 63.5116H50.6948L50.9246 64.1594C51.0478 64.4915 51.3679 64.6909 51.7373 64.6909C52.2299 64.6909 52.6485 64.2922 52.6485 63.794C52.6485 63.686 52.6239 63.5697 52.5828 63.4701ZM51.0396 60.9455L50.4814 61.4188L50.662 62.158C50.6784 62.2244 50.7276 62.4652 50.5717 62.5898C50.4732 62.6728 50.3336 62.6645 50.1694 62.5815C50.1448 62.5732 50.1202 62.5566 50.0955 62.54L49.4799 62.1497L48.7903 62.5898C48.7329 62.623 48.5687 62.731 48.4127 62.6479C48.3389 62.6064 48.2239 62.4984 48.2896 62.1995L48.4784 61.4105L47.8217 60.8624C47.6904 60.7296 47.6493 60.6133 47.6821 60.5053C47.7068 60.4306 47.7642 60.3393 47.9448 60.306L48.8642 60.2396L49.1679 59.4756C49.2336 59.3427 49.3075 59.268 49.3978 59.243C49.4635 59.2181 49.5373 59.2264 49.603 59.2597C49.7015 59.3095 49.759 59.4091 49.8 59.4839L50.1038 60.2396L50.8343 60.2894C50.859 60.2894 50.9739 60.306 51.0724 60.3559C51.2037 60.4306 51.2366 60.5303 51.2448 60.5884C51.253 60.7628 51.0888 60.8957 51.0396 60.9455Z" fill="white"/>
</g>
<defs>
<radialGradient id="paint0_radial_440_51027" cx="0" cy="0" r="1" gradientUnits="userSpaceOnUse" gradientTransform="translate(42.4948 18.8703) rotate(85.419) scale(4.12603 2.41481)">
<stop offset="0.3939" stop-color="white"/>
<stop offset="0.4187" stop-color="#FFFAF6"/>
<stop offset="0.567" stop-color="#FEEBD9"/>
<stop offset="0.7146" stop-color="#FDE1C6"/>
<stop offset="0.8598" stop-color="#FDDBBB"/>
<stop offset="1" stop-color="#FCD9B7"/>
</radialGradient>
<linearGradient id="paint1_linear_440_51027" x1="34.7578" y1="16.7623" x2="46.2758" y2="20.1978" gradientUnits="userSpaceOnUse">
<stop offset="0.635" stop-color="white" stop-opacity="0"/>
<stop offset="0.6659" stop-color="#FFF1E9" stop-opacity="0.0893"/>
<stop offset="0.7256" stop-color="#FDD5C0" stop-opacity="0.2616"/>
<stop offset="0.8072" stop-color="#F9AA85" stop-opacity="0.4972"/>
<stop offset="0.8606" stop-color="#F68D62" stop-opacity="0.6512"/>
<stop offset="0.8954" stop-color="#DC7B4D" stop-opacity="0.7259"/>
<stop offset="0.9329" stop-color="#CC703E" stop-opacity="0.8063"/>
<stop offset="0.9685" stop-color="#C26A36" stop-opacity="0.8826"/>
<stop offset="1" stop-color="#BF6834" stop-opacity="0.95"/>
</linearGradient>
<linearGradient id="paint2_linear_440_51027" x1="63.2236" y1="28.3312" x2="59.7848" y2="32.6154" gradientUnits="userSpaceOnUse">
<stop stop-color="#A91F27"/>
<stop offset="0.1913" stop-color="#AE1F27"/>
<stop offset="0.3892" stop-color="#BC2028"/>
<stop offset="0.5791" stop-color="#D42029"/>
<stop offset="0.7394" stop-color="#EB2227"/>
</linearGradient>
<radialGradient id="paint3_radial_440_51027" cx="0" cy="0" r="1" gradientUnits="userSpaceOnUse" gradientTransform="translate(46.8113 11.6453) rotate(16.9761) scale(13.4242 13.5542)">
<stop stop-color="white"/>
<stop offset="0.1049" stop-color="#FCD4C4"/>
<stop offset="0.2345" stop-color="#F7A990"/>
<stop offset="0.3658" stop-color="#F3876B"/>
<stop offset="0.4961" stop-color="#F06A50"/>
<stop offset="0.6254" stop-color="#EE503B"/>
<stop offset="0.7531" stop-color="#EC3A2F"/>
<stop offset="0.8788" stop-color="#EB2929"/>
<stop offset="1" stop-color="#EB2227"/>
</radialGradient>
<radialGradient id="paint4_radial_440_51027" cx="0" cy="0" r="1" gradientUnits="userSpaceOnUse" gradientTransform="translate(46.9107 23.068) rotate(16.9761) scale(11.2995 11.4089)">
<stop offset="0.3939" stop-color="white"/>
<stop offset="0.4187" stop-color="#FFFAF6"/>
<stop offset="0.567" stop-color="#FEEBD9"/>
<stop offset="0.7146" stop-color="#FDE1C6"/>
<stop offset="0.8598" stop-color="#FDDBBB"/>
<stop offset="1" stop-color="#FCD9B7"/>
</radialGradient>
<linearGradient id="paint5_linear_440_51027" x1="64.8571" y1="20.4684" x2="60.575" y2="19.796" gradientUnits="userSpaceOnUse">
<stop stop-color="#AE1F28"/>
<stop offset="0.2066" stop-color="#B21F28"/>
<stop offset="0.4204" stop-color="#C12029"/>
<stop offset="0.5791" stop-color="#D42029"/>
<stop offset="0.7394" stop-color="#EB2227"/>
</linearGradient>
<radialGradient id="paint6_radial_440_51027" cx="0" cy="0" r="1" gradientUnits="userSpaceOnUse" gradientTransform="translate(67.0773 23.2143) rotate(16.9761) scale(6.62487 6.68904)">
<stop offset="0.3939" stop-color="white"/>
<stop offset="0.4187" stop-color="#FFFAF6"/>
<stop offset="0.567" stop-color="#FEEBD9"/>
<stop offset="0.7146" stop-color="#FDE1C6"/>
<stop offset="0.8598" stop-color="#FDDBBB"/>
<stop offset="1" stop-color="#FCD9B7"/>
</radialGradient>
<radialGradient id="paint7_radial_440_51027" cx="0" cy="0" r="1" gradientUnits="userSpaceOnUse" gradientTransform="translate(65.6358 24.1984) rotate(16.9761) scale(6.43095 6.49324)">
<stop offset="0.635" stop-color="white" stop-opacity="0"/>
<stop offset="0.6659" stop-color="#FFF1E9" stop-opacity="0.0893"/>
<stop offset="0.7256" stop-color="#FDD5C0" stop-opacity="0.2616"/>
<stop offset="0.8072" stop-color="#F9AA85" stop-opacity="0.4972"/>
<stop offset="0.8606" stop-color="#F68D62" stop-opacity="0.6512"/>
<stop offset="0.8954" stop-color="#DC7B4D" stop-opacity="0.7259"/>
<stop offset="0.9329" stop-color="#CC703E" stop-opacity="0.8063"/>
<stop offset="0.9685" stop-color="#C26A36" stop-opacity="0.8826"/>
<stop offset="1" stop-color="#BF6834" stop-opacity="0.95"/>
</radialGradient>
<linearGradient id="paint8_linear_440_51027" x1="50.1748" y1="7.10699" x2="67.8796" y2="12.3879" gradientUnits="userSpaceOnUse">
<stop stop-color="#929497"/>
<stop offset="0.0471" stop-color="#8A8B8D"/>
<stop offset="0.2414" stop-color="#6E6E6F"/>
<stop offset="0.4358" stop-color="#5A595A"/>
<stop offset="0.6281" stop-color="#4C4B4C"/>
<stop offset="0.8174" stop-color="#444444"/>
<stop offset="1" stop-color="#414142"/>
</linearGradient>
<linearGradient id="paint9_linear_440_51027" x1="55.9468" y1="10.3823" x2="57.4366" y2="12.0042" gradientUnits="userSpaceOnUse">
<stop stop-color="white"/>
<stop offset="0.0432" stop-color="#E7E6E6"/>
<stop offset="0.2054" stop-color="#B3B0B1"/>
<stop offset="0.3687" stop-color="#8F8C8D"/>
<stop offset="0.5305" stop-color="#767475"/>
<stop offset="0.6906" stop-color="#656566"/>
<stop offset="0.848" stop-color="#5C5C5E"/>
<stop offset="1" stop-color="#595A5C"/>
</linearGradient>
<linearGradient id="paint10_linear_440_51027" x1="62.2198" y1="15.9201" x2="66.6574" y2="14.1756" gradientUnits="userSpaceOnUse">
<stop stop-color="#414142"/>
<stop offset="0.121" stop-color="#464647"/>
<stop offset="0.4199" stop-color="#515153"/>
<stop offset="0.7151" stop-color="#57585A"/>
<stop offset="1" stop-color="#595A5C"/>
</linearGradient>
<linearGradient id="paint11_linear_440_51027" x1="68.344" y1="17.1876" x2="62.9956" y2="12.5954" gradientUnits="userSpaceOnUse">
<stop stop-color="#414142"/>
<stop offset="0.121" stop-color="#464647"/>
<stop offset="0.4199" stop-color="#515153"/>
<stop offset="0.7151" stop-color="#57585A"/>
<stop offset="1" stop-color="#595A5C"/>
</linearGradient>
<radialGradient id="paint12_radial_440_51027" cx="0" cy="0" r="1" gradientUnits="userSpaceOnUse" gradientTransform="translate(56.4298 32.6626) rotate(17.1096) scale(3.50926 3.50683)">
<stop offset="0.3939" stop-color="white"/>
<stop offset="0.4187" stop-color="#FFFAF6"/>
<stop offset="0.567" stop-color="#FEEBD9"/>
<stop offset="0.7146" stop-color="#FDE1C6"/>
<stop offset="0.8598" stop-color="#FDDBBB"/>
<stop offset="1" stop-color="#FCD9B7"/>
</radialGradient>
<radialGradient id="paint13_radial_440_51027" cx="0" cy="0" r="1" gradientUnits="userSpaceOnUse" gradientTransform="translate(55.4441 27.9771) rotate(-140.532) scale(2.68533 2.17008)">
<stop offset="0.3939" stop-color="white"/>
<stop offset="0.4187" stop-color="#FFFAF6"/>
<stop offset="0.567" stop-color="#FEEBD9"/>
<stop offset="0.7146" stop-color="#FDE1C6"/>
<stop offset="0.8598" stop-color="#FDDBBB"/>
<stop offset="1" stop-color="#FCD9B7"/>
</radialGradient>
<radialGradient id="paint14_radial_440_51027" cx="0" cy="0" r="1" gradientUnits="userSpaceOnUse" gradientTransform="translate(50.6351 25.7773) rotate(17.1096) scale(10.7287 10.8436)">
<stop offset="0.635" stop-color="white" stop-opacity="0"/>
<stop offset="0.6659" stop-color="#FFF1E9" stop-opacity="0.0893"/>
<stop offset="0.7256" stop-color="#FDD5C0" stop-opacity="0.2616"/>
<stop offset="0.8072" stop-color="#F9AA85" stop-opacity="0.4972"/>
<stop offset="0.8606" stop-color="#F68D62" stop-opacity="0.6512"/>
<stop offset="0.8954" stop-color="#DC7B4D" stop-opacity="0.7259"/>
<stop offset="0.9329" stop-color="#CC703E" stop-opacity="0.8063"/>
<stop offset="0.9685" stop-color="#C26A36" stop-opacity="0.8826"/>
<stop offset="1" stop-color="#BF6834" stop-opacity="0.95"/>
</radialGradient>
<radialGradient id="paint15_radial_440_51027" cx="0" cy="0" r="1" gradientUnits="userSpaceOnUse" gradientTransform="translate(54.1772 24.2671) rotate(16.9761) scale(2.34872 2.78386)">
<stop offset="0.8061" stop-color="white"/>
<stop offset="0.828" stop-color="#F8F8F8"/>
<stop offset="0.9154" stop-color="#EBEBEB"/>
<stop offset="1" stop-color="#E7E7E7"/>
</radialGradient>
<linearGradient id="paint16_linear_440_51027" x1="51.8036" y1="23.4343" x2="55.9918" y2="24.671" gradientUnits="userSpaceOnUse">
<stop stop-color="#914F37"/>
<stop offset="0.162" stop-color="#93523A"/>
<stop offset="0.3298" stop-color="#9A5C42"/>
<stop offset="0.5004" stop-color="#A76C51"/>
<stop offset="0.6728" stop-color="#BA8467"/>
<stop offset="0.845" stop-color="#D6A888"/>
<stop offset="1" stop-color="#FCD9B7"/>
</linearGradient>
<linearGradient id="paint17_linear_440_51027" x1="46.506" y1="21.0925" x2="49.7878" y2="22.5117" gradientUnits="userSpaceOnUse">
<stop stop-color="#914F37"/>
<stop offset="0.162" stop-color="#93523A"/>
<stop offset="0.3298" stop-color="#9A5C42"/>
<stop offset="0.5004" stop-color="#A76C51"/>
<stop offset="0.6728" stop-color="#BA8467"/>
<stop offset="0.845" stop-color="#D6A888"/>
<stop offset="1" stop-color="#FCD9B7"/>
</linearGradient>
<radialGradient id="paint18_radial_440_51027" cx="0" cy="0" r="1" gradientUnits="userSpaceOnUse" gradientTransform="translate(48.2713 22.2059) rotate(6.85927) scale(1.90039 2.42918)">
<stop offset="0.8061" stop-color="white"/>
<stop offset="0.828" stop-color="#F8F8F8"/>
<stop offset="0.9154" stop-color="#EBEBEB"/>
<stop offset="1" stop-color="#E7E7E7"/>
</radialGradient>
<radialGradient id="paint19_radial_440_51027" cx="0" cy="0" r="1" gradientUnits="userSpaceOnUse" gradientTransform="translate(48.4444 22.5117) rotate(110.503) scale(1.46403 1.00493)">
<stop offset="0.6485" stop-color="#914F37"/>
<stop offset="0.6844" stop-color="#7C4533"/>
<stop offset="0.7487" stop-color="#60352B"/>
<stop offset="0.8131" stop-color="#4D2924"/>
<stop offset="0.8768" stop-color="#3F201E"/>
<stop offset="0.9395" stop-color="#371A1A"/>
<stop offset="1" stop-color="#341718"/>
</radialGradient>
<radialGradient id="paint20_radial_440_51027" cx="0" cy="0" r="1" gradientUnits="userSpaceOnUse" gradientTransform="translate(54.1772 24.2671) rotate(16.9761) scale(2.34872 2.78386)">
<stop offset="0.8061" stop-color="white"/>
<stop offset="0.828" stop-color="#F8F8F8"/>
<stop offset="0.9154" stop-color="#EBEBEB"/>
<stop offset="1" stop-color="#E7E7E7"/>
</radialGradient>
<radialGradient id="paint21_radial_440_51027" cx="0" cy="0" r="1" gradientUnits="userSpaceOnUse" gradientTransform="translate(54.3167 24.6299) rotate(120.023) scale(1.67296 1.24465)">
<stop offset="0.6485" stop-color="#914F37"/>
<stop offset="0.6844" stop-color="#7C4533"/>
<stop offset="0.7487" stop-color="#60352B"/>
<stop offset="0.8131" stop-color="#4D2924"/>
<stop offset="0.8768" stop-color="#3F201E"/>
<stop offset="0.9395" stop-color="#371A1A"/>
<stop offset="1" stop-color="#341718"/>
</radialGradient>
<radialGradient id="paint22_radial_440_51027" cx="0" cy="0" r="1" gradientUnits="userSpaceOnUse" gradientTransform="translate(58.916 9.43035) rotate(16.9761) scale(13.2269 13.355)">
<stop stop-color="white" stop-opacity="0"/>
<stop offset="0.1876" stop-color="#ECECEC" stop-opacity="0.142"/>
<stop offset="0.5474" stop-color="#C8C8C9" stop-opacity="0.4142"/>
<stop offset="0.8606" stop-color="#A6A8AC" stop-opacity="0.6512"/>
<stop offset="0.8713" stop-color="#909092" stop-opacity="0.6742"/>
<stop offset="0.8946" stop-color="#6B696A" stop-opacity="0.724"/>
<stop offset="0.9176" stop-color="#4F4C4D" stop-opacity="0.7734"/>
<stop offset="0.94" stop-color="#3C3839" stop-opacity="0.8214"/>
<stop offset="0.9616" stop-color="#2E2B2B" stop-opacity="0.8677"/>
<stop offset="0.982" stop-color="#262223" stop-opacity="0.9114"/>
<stop offset="1" stop-color="#231F20" stop-opacity="0.95"/>
</radialGradient>
<linearGradient id="paint23_linear_440_51027" x1="64.3233" y1="23.9754" x2="69.1824" y2="25.4247" gradientUnits="userSpaceOnUse">
<stop offset="0.635" stop-color="white" stop-opacity="0"/>
<stop offset="0.6659" stop-color="#FFF1E9" stop-opacity="0.0893"/>
<stop offset="0.7256" stop-color="#FDD5C0" stop-opacity="0.2616"/>
<stop offset="0.8072" stop-color="#F9AA85" stop-opacity="0.4972"/>
<stop offset="0.8606" stop-color="#F68D62" stop-opacity="0.6512"/>
<stop offset="0.8954" stop-color="#DC7B4D" stop-opacity="0.7259"/>
<stop offset="0.9329" stop-color="#CC703E" stop-opacity="0.8063"/>
<stop offset="0.9685" stop-color="#C26A36" stop-opacity="0.8826"/>
<stop offset="1" stop-color="#BF6834" stop-opacity="0.95"/>
</linearGradient>
<linearGradient id="paint24_linear_440_51027" x1="44.6541" y1="23.9885" x2="47.7774" y2="24.4388" gradientUnits="userSpaceOnUse">
<stop offset="0.3939" stop-color="white"/>
<stop offset="0.4187" stop-color="#FFFAF6"/>
<stop offset="0.567" stop-color="#FEEBD9"/>
<stop offset="0.7146" stop-color="#FDE1C6"/>
<stop offset="0.8598" stop-color="#FDDBBB"/>
<stop offset="1" stop-color="#FCD9B7"/>
</linearGradient>
<linearGradient id="paint25_linear_440_51027" x1="65.5891" y1="29.1327" x2="64.7504" y2="30.9048" gradientUnits="userSpaceOnUse">
<stop offset="0.3939" stop-color="white"/>
<stop offset="0.4062" stop-color="#FFFAF7"/>
<stop offset="0.5273" stop-color="#FDE3D0"/>
<stop offset="0.6484" stop-color="#FCD2B5"/>
<stop offset="0.7683" stop-color="#FBC6A2"/>
<stop offset="0.8862" stop-color="#FABF97"/>
<stop offset="1" stop-color="#FABC93"/>
</linearGradient>
<linearGradient id="paint26_linear_440_51027" x1="46.9468" y1="30.2747" x2="46.4652" y2="31.5837" gradientUnits="userSpaceOnUse">
<stop stop-color="#914F37"/>
<stop offset="0.162" stop-color="#93523A"/>
<stop offset="0.3298" stop-color="#9A5C42"/>
<stop offset="0.5004" stop-color="#A76C51"/>
<stop offset="0.6728" stop-color="#BA8467"/>
<stop offset="0.845" stop-color="#D6A888"/>
<stop offset="1" stop-color="#FCD9B7"/>
</linearGradient>
<linearGradient id="paint27_linear_440_51027" x1="65.5299" y1="14.83" x2="67.5811" y2="15.4418" gradientUnits="userSpaceOnUse">
<stop stop-color="#FECF0A"/>
<stop offset="0.0671" stop-color="#FDC810"/>
<stop offset="0.3051" stop-color="#FAB31A"/>
<stop offset="0.5419" stop-color="#F8A41E"/>
<stop offset="0.775" stop-color="#F79B20"/>
<stop offset="1" stop-color="#F79820"/>
</linearGradient>
<linearGradient id="paint28_linear_440_51027" x1="66.8906" y1="18.1919" x2="68.1219" y2="17.9273" gradientUnits="userSpaceOnUse">
<stop stop-color="#FECF0A"/>
<stop offset="0.0671" stop-color="#FDC810"/>
<stop offset="0.3051" stop-color="#FAB31A"/>
<stop offset="0.5419" stop-color="#F8A41E"/>
<stop offset="0.775" stop-color="#F79B20"/>
<stop offset="1" stop-color="#F79820"/>
</linearGradient>
<linearGradient id="paint29_linear_440_51027" x1="66.3183" y1="19.8757" x2="69.0444" y2="20.6888" gradientUnits="userSpaceOnUse">
<stop offset="0.00606061" stop-color="white"/>
<stop offset="0.3152" stop-color="#FECF0A"/>
<stop offset="0.3611" stop-color="#FDC810"/>
<stop offset="0.5241" stop-color="#FAB31A"/>
<stop offset="0.6863" stop-color="#F8A41E"/>
<stop offset="0.8459" stop-color="#F79B20"/>
<stop offset="1" stop-color="#F79820"/>
</linearGradient>
<linearGradient id="paint30_linear_440_51027" x1="66.2197" y1="18.3197" x2="67.316" y2="18.6467" gradientUnits="userSpaceOnUse">
<stop stop-color="white"/>
<stop offset="0.1067" stop-color="#FFF2D1"/>
<stop offset="0.236" stop-color="#FFE7A6"/>
<stop offset="0.3671" stop-color="#FFDE82"/>
<stop offset="0.4972" stop-color="#FFD761"/>
<stop offset="0.6261" stop-color="#FFD242"/>
<stop offset="0.7536" stop-color="#FFCE28"/>
<stop offset="0.8791" stop-color="#FFCC12"/>
<stop offset="1" stop-color="#FFCB09"/>
</linearGradient>
<radialGradient id="paint31_radial_440_51027" cx="0" cy="0" r="1" gradientUnits="userSpaceOnUse" gradientTransform="translate(67.0778 20.2244) rotate(16.9761) scale(3.97869 4.01722)">
<stop offset="0.103" stop-color="white"/>
<stop offset="0.1418" stop-color="#FFF2D1"/>
<stop offset="0.1888" stop-color="#FFE7A6"/>
<stop offset="0.2365" stop-color="#FFDE82"/>
<stop offset="0.2838" stop-color="#FFD761"/>
<stop offset="0.3307" stop-color="#FFD242"/>
<stop offset="0.3771" stop-color="#FFCE28"/>
<stop offset="0.4227" stop-color="#FFCC12"/>
<stop offset="0.4667" stop-color="#FFCB09"/>
</radialGradient>
<linearGradient id="paint32_linear_440_51027" x1="65.7906" y1="14.2983" x2="66.7636" y2="14.5885" gradientUnits="userSpaceOnUse">
<stop stop-color="white"/>
<stop offset="0.1067" stop-color="#FFF2D1"/>
<stop offset="0.236" stop-color="#FFE7A6"/>
<stop offset="0.3671" stop-color="#FFDE82"/>
<stop offset="0.4972" stop-color="#FFD761"/>
<stop offset="0.6261" stop-color="#FFD242"/>
<stop offset="0.7536" stop-color="#FFCE28"/>
<stop offset="0.8791" stop-color="#FFCC12"/>
<stop offset="1" stop-color="#FFCB09"/>
</linearGradient>
<radialGradient id="paint33_radial_440_51027" cx="0" cy="0" r="1" gradientUnits="userSpaceOnUse" gradientTransform="translate(66.3757 19.6927) rotate(16.976) scale(2.36845 2.39138)">
<stop offset="0.635" stop-color="white" stop-opacity="0"/>
<stop offset="0.6565" stop-color="#FFF5EB" stop-opacity="0.0621"/>
<stop offset="0.698" stop-color="#FEE2C6" stop-opacity="0.1819"/>
<stop offset="0.7553" stop-color="#FDC48E" stop-opacity="0.3474"/>
<stop offset="0.8255" stop-color="#F99D47" stop-opacity="0.55"/>
<stop offset="0.8606" stop-color="#F68A20" stop-opacity="0.6512"/>
<stop offset="0.89" stop-color="#F47B22" stop-opacity="0.7143"/>
<stop offset="0.9295" stop-color="#F26A24" stop-opacity="0.7988"/>
<stop offset="0.9669" stop-color="#F15E24" stop-opacity="0.8791"/>
<stop offset="1" stop-color="#F15A25" stop-opacity="0.95"/>
</radialGradient>
<clipPath id="clip0_440_51027">
<rect width="75.6364" height="61.1301" fill="white" transform="translate(14.1818 3.56055)"/>
</clipPath>
</defs>
</svg>
