<svg width="190" height="49" viewBox="0 0 190 49" fill="none" xmlns="http://www.w3.org/2000/svg">
<path d="M76.3482 24.2244H64.76V11.8339H58.6094V43.0328H64.76V30.1076H76.3482V43.0328H82.4542V11.8339H76.3482V24.2244Z" fill="#19252E"/>
<path d="M98.5903 43.6568C101.933 43.6568 104.696 42.5426 106.969 40.2695C109.242 37.9964 110.401 35.1885 110.401 31.8904C110.401 28.6368 109.242 25.8289 106.969 23.5558C104.696 21.2827 101.888 20.1239 98.5903 20.1239C95.2921 20.1239 92.4842 21.2827 90.2111 23.5558C87.9381 25.8289 86.8238 28.5922 86.8238 31.8904C86.8238 35.2331 87.9381 37.9964 90.2111 40.2695C92.4842 42.5426 95.2475 43.6568 98.5903 43.6568ZM98.5903 38.041C96.852 38.041 95.4258 37.4616 94.267 36.3028C93.1527 35.0994 92.5733 33.6286 92.5733 31.8904C92.5733 30.1521 93.1527 28.6813 94.267 27.4779C95.4258 26.3191 96.852 25.7397 98.5903 25.7397C100.328 25.7397 101.755 26.3191 102.914 27.4779C104.072 28.6368 104.652 30.1076 104.652 31.8904C104.652 33.6732 104.072 35.144 102.914 36.3028C101.755 37.4616 100.328 38.041 98.5903 38.041Z" fill="#19252E"/>
<path d="M116.63 40.2695C118.903 42.5426 121.711 43.6568 125.054 43.6568C127.193 43.6568 129.154 43.122 130.981 42.0969C132.764 41.0717 134.146 39.6455 135.126 37.8627L130.135 35.0103C129.199 36.9713 127.46 37.9519 125.009 37.9519C123.271 37.9519 121.845 37.3725 120.73 36.2582C119.616 35.0548 119.037 33.6286 119.037 31.8904C119.037 30.1076 119.616 28.6368 120.73 27.4779C121.845 26.3637 123.271 25.7843 125.009 25.7843C127.416 25.7843 129.109 26.7648 130.09 28.7705L135.037 25.8734C134.101 24.1352 132.764 22.709 130.981 21.6839C129.199 20.6588 127.238 20.1239 125.054 20.1239C121.711 20.1239 118.903 21.2382 116.63 23.5112C114.401 25.7843 113.287 28.5476 113.287 31.8904C113.287 35.1885 114.401 37.9964 116.63 40.2695Z" fill="#19252E"/>
<path d="M140.291 43.6122C141.316 43.6122 142.208 43.2557 142.965 42.498C143.723 41.7403 144.08 40.8489 144.08 39.8238C144.08 38.7987 143.723 37.9073 142.965 37.1496C142.208 36.3919 141.316 36.0354 140.291 36.0354C139.266 36.0354 138.375 36.3919 137.617 37.1496C136.859 37.9073 136.503 38.7987 136.503 39.8238C136.503 40.8489 136.859 41.7403 137.617 42.498C138.375 43.2557 139.266 43.6122 140.291 43.6122Z" fill="#19252E"/>
<path d="M146.735 14.731L148.25 19.9902L154.134 18.3411V43.0328H160.284V11.8339H154.936L146.735 14.731Z" fill="#19252E"/>
<path d="M168.339 39.2444C170.567 42.186 173.643 43.6568 177.52 43.6568C181.487 43.6568 184.518 42.186 186.702 39.2444C188.886 36.2582 190 32.2915 190 27.4334C190 22.5753 188.886 18.6531 186.702 15.6669C184.518 12.6808 181.487 11.21 177.52 11.21C173.643 11.21 170.567 12.6808 168.339 15.6669C166.155 18.6531 165.041 22.5753 165.041 27.4334C165.041 32.2915 166.155 36.2582 168.339 39.2444ZM177.52 17.1823C181.754 17.1823 183.894 20.6142 183.894 27.4334C183.894 34.2526 181.754 37.6399 177.52 37.6399C173.286 37.6399 171.191 34.2526 171.191 27.4334C171.191 20.6142 173.286 17.1823 177.52 17.1823Z" fill="#19252E"/>
<g clip-path="url(#clip0_440_20460)">
<ellipse opacity="0.3" cx="24.1428" cy="9.60569" rx="9.28538" ry="9.28538" fill="#FFBD69"/>
<path d="M44.2591 20.2779V41.562C44.2591 41.8287 44.1533 42.0845 43.9648 42.2732C43.7764 42.4618 43.5208 42.5681 43.2542 42.5685H41.7453C41.4784 42.5685 41.2224 42.4624 41.0337 42.2737C40.8449 42.0849 40.7389 41.829 40.7389 41.562V23.6577L26.3744 33.9981C25.8773 34.3401 25.2879 34.5227 24.6845 34.5216H23.5981C22.9674 34.5216 22.3804 34.3255 21.8976 33.992L21.9081 33.9981L4.46554 21.4246C4.32948 21.3345 4.21788 21.2121 4.14073 21.0684C4.06357 20.9246 4.02327 20.7639 4.02344 20.6008V20.2779V20.2748C4.02344 19.9323 4.19696 19.6321 4.46101 19.4555L4.46554 19.4525L21.9081 6.87905C22.4052 6.53705 22.9947 6.35443 23.5981 6.35547H24.6845C25.3152 6.35547 25.9021 6.55163 26.385 6.88509L26.3744 6.87905L43.817 19.4525C43.9528 19.5424 44.0643 19.6646 44.1414 19.8081C44.2186 19.9516 44.259 20.1119 44.2591 20.2748V20.2779ZM24.6845 38.0418H23.5981C22.244 38.0349 20.924 37.616 19.8138 36.8408L19.8364 36.8559L12.0703 31.2413V34.5201C12.0703 38.9668 17.4826 42.5685 24.1413 42.5685C30.7999 42.5685 36.2123 38.9668 36.2123 34.5216V31.2413L28.3661 36.8951C27.2836 37.642 25.9996 38.0419 24.6845 38.0418Z" fill="#FF7707"/>
</g>
<defs>
<clipPath id="clip0_440_20460">
<rect width="48.284" height="48.284" fill="white" transform="translate(0 0.320312)"/>
</clipPath>
</defs>
</svg>
