<svg width="72" height="72" viewBox="0 0 72 72" fill="none" xmlns="http://www.w3.org/2000/svg">
<path d="M30.6078 36.75H8.39229C6.24181 36.75 4.5 38.5374 4.5 40.7396V63.5104C4.5 65.7146 6.24181 67.5 8.39229 67.5H30.6077C32.7582 67.5 34.5 65.7146 34.5 63.5104V40.7397C34.5001 38.5374 32.7583 36.75 30.6078 36.75Z" fill="#FFB401"/>
<path d="M63.6078 36.75H41.3923C39.2437 36.75 37.5 38.5374 37.5 40.7396V63.5104C37.5 65.7146 39.2438 67.5 41.3923 67.5H63.6077C65.7582 67.5 67.5 65.7146 67.5 63.5104V40.7397C67.5001 38.5374 65.7583 36.75 63.6078 36.75Z" fill="#FC5B23"/>
<path d="M47.1097 4.5H24.8923C22.7418 4.5 21 6.28741 21 8.4896V31.2604C21 33.4646 22.7418 35.25 24.8923 35.25H47.1077C49.2582 35.25 51 33.4646 51 31.2604V8.4896C51.002 6.28536 49.2583 4.5 47.1097 4.5Z" fill="#028EDA"/>
<path d="M37.3954 12.6929H34.4461C34.3437 12.6929 34.2532 12.7539 34.2158 12.8503L28.837 26.6635C28.8075 26.7384 28.8174 26.823 28.8646 26.8899C28.9099 26.9569 28.9867 26.9982 29.0674 26.9982H32.0246C32.1289 26.9982 32.2215 26.9332 32.2569 26.8368L33.3358 23.8599H38.5157L39.6595 26.8407C39.697 26.9352 39.7876 26.9982 39.8899 26.9982H42.9238C43.0066 26.9982 43.0813 26.9568 43.1286 26.8899C43.1739 26.8229 43.1837 26.7364 43.1543 26.6596L37.6239 12.8464C37.5864 12.7558 37.4958 12.6929 37.3954 12.6929ZM37.4388 21.0427H34.3753L35.8913 16.8766L37.4388 21.0427Z" fill="white"/>
<path d="M23.4375 51.6717C23.847 51.4019 24.1915 51.0594 24.4613 50.64C24.8333 50.0631 25.0243 49.4194 25.0243 48.7244C25.0243 48.0864 24.8708 47.5017 24.5675 46.984C24.2662 46.4741 23.8863 46.0586 23.4334 45.7515C22.9806 45.4445 22.4628 45.2396 21.8938 45.1432C21.3465 45.0487 20.5097 45.0015 19.4091 45.0015H13.8886C13.7527 45.0015 13.6426 45.1117 13.6426 45.2475V59.0607C13.6426 59.1966 13.7529 59.3068 13.8886 59.3068H18.5922C20.4015 59.2929 21.5099 59.2635 21.9806 59.2103C22.7642 59.1236 23.4296 58.8894 23.9651 58.5134C24.5026 58.1335 24.9318 57.6235 25.2409 56.9955C25.548 56.3714 25.7036 55.7197 25.7036 55.0562C25.7036 54.2056 25.4575 53.4556 24.9732 52.8236C24.5912 52.3253 24.0773 51.9394 23.4375 51.6717ZM21.4824 50.0238C21.2461 50.2601 20.9252 50.3979 20.5018 50.451C20.2479 50.4806 19.5765 50.4943 18.5055 50.4943H16.9226V47.7931H18.2771C19.5785 47.7931 20.37 47.8088 20.6299 47.8384C21.0315 47.8856 21.3307 48.0234 21.5256 48.242C21.7226 48.4645 21.819 48.7519 21.819 49.1181C21.819 49.5001 21.7088 49.7973 21.4824 50.0238ZM16.9226 53.286H18.9288C20.4685 53.286 21.0788 53.3864 21.321 53.4691C21.6537 53.5852 21.8997 53.7605 22.071 54.0086C22.2443 54.2567 22.327 54.5559 22.327 54.9241C22.327 55.3494 22.2167 55.69 21.9982 55.9341C21.7718 56.1861 21.4863 56.3397 21.1182 56.4067C20.8721 56.4578 20.246 56.4855 19.2576 56.4855H16.9226V53.286Z" fill="white"/>
<path d="M58.4129 54.6029L55.7098 53.7465C55.6448 53.7248 55.5739 53.7326 55.5128 53.7682C55.4538 53.8036 55.4104 53.8588 55.3947 53.9256C55.1741 54.8805 54.8139 55.5853 54.3216 56.0185C53.8294 56.4516 53.2585 56.6623 52.5714 56.6623C51.6322 56.6623 50.8939 56.3275 50.3092 55.6366C49.7224 54.9455 49.4252 53.7445 49.4252 52.0671C49.4252 50.4881 49.7265 49.3423 50.321 48.659C50.9156 47.9739 51.6696 47.6412 52.6264 47.6412C53.3175 47.6412 53.8845 47.8262 54.361 48.2082C54.8335 48.5862 55.1466 49.1099 55.2981 49.7675C55.3139 49.8304 55.3532 49.8856 55.4084 49.921C55.4635 49.9525 55.5305 49.9663 55.5954 49.9506L58.3557 49.291C58.4207 49.2753 58.4778 49.2359 58.5113 49.1768C58.5448 49.1197 58.5526 49.0508 58.5349 48.9839C58.21 47.8401 57.7119 46.9462 57.0544 46.328C55.9558 45.2903 54.5145 44.7627 52.7683 44.7627C50.7739 44.7627 49.1378 45.4302 47.9073 46.7493C46.6807 48.0625 46.0605 49.921 46.0605 52.2737C46.0605 54.5005 46.6788 56.2862 47.8994 57.5816C49.124 58.879 50.705 59.5367 52.6009 59.5367C54.1327 59.5367 55.4164 59.1508 56.4185 58.389C57.4206 57.629 58.1471 56.4537 58.5743 54.8983C58.6118 54.7761 58.5389 54.6442 58.4129 54.6029Z" fill="white"/>
</svg>
