<svg width="72" height="72" viewBox="0 0 72 72" fill="none" xmlns="http://www.w3.org/2000/svg">
<g clip-path="url(#clip0_440_20968)">
<path d="M47.4836 13.1983C43.558 13.1983 39.7933 11.6388 37.0175 8.86299C33.3918 5.23747 28.4745 3.20068 23.3472 3.20068H21.376C20.5604 3.20068 19.8992 3.86185 19.8992 4.67751V28.2591C16.229 27.9162 11.651 29.7742 7.9535 33.4716C2.55015 38.8749 1.07398 46.1594 4.65654 49.7419C8.23909 53.3245 15.5236 51.8483 20.9269 46.445C24.2507 43.1211 26.0876 39.0858 26.176 35.638H26.1802V14.8693C26.1802 12.8551 28.6116 11.8422 30.0416 13.2605L31.1565 14.3664C35.8098 18.9818 43.3189 18.9663 47.9532 14.332C48.3716 13.9138 48.0753 13.1983 47.4836 13.1983Z" fill="#606E78"/>
<path d="M67.4534 8.56885H65.9185C61.3784 8.56885 57.0244 10.3724 53.814 13.5827C49.4771 17.82 43.6662 20.3538 37.6337 20.7611C36.6646 20.8265 35.9122 21.6313 35.9122 22.6026V45.36C32.2413 45.0178 27.6642 46.8759 23.9663 50.5724C18.5629 55.9759 17.0869 63.2608 20.6687 66.8437C24.2517 70.4254 31.5364 68.9496 36.94 63.5461C40.2635 60.2226 42.1009 56.1877 42.1886 52.739H42.1925V28.6921C42.1925 28.0587 42.6322 27.5147 43.2489 27.3703C46.351 26.6437 49.2242 25.0826 51.5391 22.8207C54.3102 20.1131 57.6358 18.1022 61.2442 16.8963C62.1182 16.6042 63.0202 17.2643 63.0202 18.1859V33.1096C59.3493 32.7675 54.7722 34.6255 51.0744 38.3221C45.6709 43.7256 44.195 51.0104 47.7767 54.5934C51.3597 58.175 58.6444 56.6992 64.048 51.2957C67.3715 47.9723 69.2089 43.9374 69.2967 40.4887H69.3004V10.4158C69.3004 9.39573 68.4736 8.56885 67.4534 8.56885Z" fill="#FF7707"/>
<path d="M63.142 59.3655C61.5104 60.4287 60.1183 61.8291 59.0641 63.4675C58.8271 63.8359 58.2799 63.8348 58.0442 63.4657C56.9959 61.8235 55.609 60.418 53.9813 59.3487C53.62 59.1115 53.621 58.5717 53.9831 58.3358C55.6147 57.2725 57.0068 55.8721 58.061 54.2337C58.298 53.8653 58.8452 53.8663 59.0809 54.2356C60.1292 55.8777 61.5163 57.2832 63.1439 58.3525C63.5051 58.5898 63.5041 59.1293 63.142 59.3655Z" fill="#FDD13C"/>
<path d="M68.1702 50.3239C67.0165 51.0758 66.032 52.0662 65.2865 53.2248C65.1188 53.4853 64.7318 53.4847 64.5652 53.2235C63.824 52.0622 62.8431 51.0683 61.6921 50.3121C61.4367 50.1443 61.4374 49.7628 61.6934 49.5959C62.8472 48.8439 63.8317 47.8536 64.5771 46.695C64.7448 46.4345 65.1317 46.4351 65.2983 46.6963C66.0397 47.8576 67.0205 48.8515 68.1715 49.6076C68.4271 49.7754 68.4264 50.157 68.1702 50.3239Z" fill="#FDD13C"/>
</g>
<defs>
<clipPath id="clip0_440_20968">
<rect width="66.6" height="66.6" fill="white" transform="translate(2.7002 2.7002)"/>
</clipPath>
</defs>
</svg>
