<svg width="72" height="72" viewBox="0 0 72 72" fill="none" xmlns="http://www.w3.org/2000/svg">
<g clip-path="url(#clip0_440_20998)">
<path fill-rule="evenodd" clip-rule="evenodd" d="M49.7254 47.8082C43.2454 47.656 36.7205 49.7914 30.1695 53.2408C23.378 47.7633 11.5104 46.5189 6.91504 49.2873L18.2815 34.3222C19.7838 32.3419 21.3513 28.4406 21.4716 24.9695C21.4773 24.8334 21.4803 24.6987 21.4803 24.5654L21.4846 22.7965L21.4934 19.1762L21.4977 17.0031L21.5064 13.3813L21.5122 11.2083L21.5267 5.05127H36.2396L36.2844 24.5651C36.2932 28.1332 37.9229 32.2649 39.4874 34.3221L49.7254 47.8082Z" fill="#FEEECD"/>
<path fill-rule="evenodd" clip-rule="evenodd" d="M2.17188 57.9023C17.1439 59.9556 24.708 54.3707 30.1695 49.1349C23.3774 43.6567 11.5098 46.519 6.91473 49.2868L5.06692 51.7179C3.78161 53.4139 2.76728 55.5986 2.17188 57.9023Z" fill="#FFD99B"/>
<path fill-rule="evenodd" clip-rule="evenodd" d="M10.2495 72.0002H28.8844H47.5153C50.6691 72.0002 52.8454 70.8667 54.2334 69.1009C57.3994 64.0827 55.1613 55.2454 52.8249 51.8904L49.7245 47.8084C42.1728 43.4678 36.7195 45.6854 30.1696 49.1348C23.2873 52.7608 15.1935 57.7463 2.17202 57.9022C0.463848 64.4646 2.10649 72.0002 10.2495 72.0002Z" fill="#FFBD69"/>
<path fill-rule="evenodd" clip-rule="evenodd" d="M67.1237 10.2988V37.5632C65.1476 38.8816 61.9446 38.8816 59.9744 37.5632C57.9984 36.2448 54.7997 36.2448 52.8252 37.5632V10.2988H67.1237Z" fill="#FEEECD"/>
<path fill-rule="evenodd" clip-rule="evenodd" d="M52.8257 11.7487H67.1243H67.42C69.079 11.7487 70.4383 10.2868 70.4383 8.50042C70.4383 6.70998 69.079 5.24805 67.42 5.24805H52.53C50.8668 5.24805 49.5117 6.70998 49.5117 8.50042C49.5117 10.2868 50.8668 11.7487 52.53 11.7487H52.8257Z" fill="#606E78"/>
<path fill-rule="evenodd" clip-rule="evenodd" d="M21.5258 6.50067H36.2391H36.9001C38.6906 6.50067 40.1524 5.03873 40.1524 3.2483C40.1525 1.46194 38.6865 0 36.9001 0H20.8645C19.0782 0 17.6123 1.46194 17.6123 3.2483C17.6123 5.03873 19.0742 6.50067 20.8645 6.50067H21.5258Z" fill="#606E78"/>
<path fill-rule="evenodd" clip-rule="evenodd" d="M26.0146 36.4045C26.0146 37.9896 27.3 39.2749 28.881 39.2749C30.4661 39.2749 31.7514 37.9896 31.7514 36.4045C31.7514 34.8193 30.4661 33.5381 28.881 33.5381C27.3 33.5381 26.0146 34.8193 26.0146 36.4045Z" fill="#FF7707"/>
<path fill-rule="evenodd" clip-rule="evenodd" d="M35.7539 61.3639C35.7539 63.795 37.725 65.7661 40.152 65.7661C42.5829 65.7661 44.5541 63.795 44.5541 61.3639C44.5541 58.9327 42.5829 56.9658 40.152 56.9658C37.725 56.9657 35.7539 58.9327 35.7539 61.3639Z" fill="#FFA344"/>
<path fill-rule="evenodd" clip-rule="evenodd" d="M15.3541 66.5057C16.8324 66.5057 18.0315 65.3066 18.0315 63.8282C18.0315 62.3539 16.8324 61.1548 15.3541 61.1548C13.8759 61.1548 12.6768 62.3539 12.6768 63.8282C12.6768 65.3066 13.8759 66.5057 15.3541 66.5057Z" fill="#FFA344"/>
<path fill-rule="evenodd" clip-rule="evenodd" d="M52.8252 51.8905V64.8507C52.8252 66.4399 53.3509 67.9102 54.2337 69.101C55.5107 70.8176 57.5394 71.951 59.8226 72.0002H60.1264C63.9865 71.9181 67.1238 68.7314 67.1238 64.8507V36.1132C65.1486 37.4314 61.9456 37.4314 59.9746 36.1132C57.9994 34.795 54.8004 34.795 52.8253 36.1132V51.8905H52.8252Z" fill="#FF7707"/>
<path fill-rule="evenodd" clip-rule="evenodd" d="M59.9746 49.1062C61.3872 49.1062 62.5328 47.9605 62.5328 46.5478C62.5328 45.131 61.3872 43.9854 59.9746 43.9854C58.5579 43.9854 57.4121 45.131 57.4121 46.5478C57.4122 47.9605 58.5579 49.1062 59.9746 49.1062Z" fill="white"/>
<path d="M23.3737 59.7651C23.0945 59.7651 22.8155 59.6582 22.6032 59.4446C22.18 59.0191 22.182 58.3311 22.6075 57.908L22.6199 57.8956C23.0455 57.4725 23.7335 57.4746 24.1565 57.9C24.5797 58.3255 24.5777 59.0134 24.1522 59.4366L24.1398 59.449C23.9279 59.6598 23.6507 59.7651 23.3737 59.7651Z" fill="#FFA344"/>
<path d="M32.2438 56.2865C31.9658 56.2865 31.6876 56.1803 31.4755 55.9683C31.0511 55.544 31.0511 54.8561 31.4755 54.4316L31.4879 54.4193C31.9122 53.995 32.6001 53.995 33.0245 54.4193C33.4489 54.8435 33.4489 55.5315 33.0245 55.9559L33.0121 55.9683C32.7999 56.1803 32.5218 56.2865 32.2438 56.2865Z" fill="#FFA344"/>
<path d="M58.2945 56.8739C58.0165 56.8739 57.7384 56.7677 57.5263 56.5557C57.1019 56.1314 57.1019 55.4435 57.5263 55.0191L57.5387 55.0067C57.9629 54.5824 58.6509 54.5824 59.0753 55.0067C59.4997 55.4309 59.4997 56.1189 59.0753 56.5433L59.0628 56.5557C58.8507 56.7677 58.5726 56.8739 58.2945 56.8739Z" fill="white"/>
<path d="M60.611 65.1733C60.3318 65.1733 60.0528 65.0664 59.8405 64.8528C59.4173 64.4273 59.4193 63.7393 59.8449 63.3162L59.8572 63.3038C60.2828 62.8807 60.9707 62.8828 61.3938 63.3082C61.817 63.7337 61.815 64.4216 61.3895 64.8448L61.3771 64.8572C61.1652 65.0679 60.888 65.1733 60.611 65.1733Z" fill="white"/>
<path d="M27.3339 12.2951C27.3339 12.8949 26.8486 13.3816 26.2475 13.3816H21.5059L21.5116 11.2085H26.2475C26.8486 11.2086 27.3339 11.6953 27.3339 12.2951Z" fill="#2B4D66"/>
<path d="M27.3343 18.09C27.3343 18.6898 26.849 19.1765 26.2478 19.1765H21.4932L21.4975 17.0034H26.2478C26.849 17.0034 27.3343 17.4887 27.3343 18.09Z" fill="#2B4D66"/>
<path d="M27.3336 23.8835C27.3336 24.4847 26.8483 24.97 26.2472 24.97H21.4707C21.4765 24.8338 21.4794 24.6991 21.4794 24.5658L21.4838 22.7969H26.247C26.8483 22.7969 27.3336 23.2837 27.3336 23.8835Z" fill="#2B4D66"/>
<path d="M58.6344 17.5436C58.6344 18.1434 58.1477 18.6301 57.5479 18.6301H52.8252V16.457H57.5479C58.1476 16.4572 58.6344 16.9425 58.6344 17.5436Z" fill="#2B4D66"/>
<path d="M58.6344 23.3371C58.6344 23.9383 58.1477 24.4236 57.5479 24.4236H52.8252V22.2505H57.5479C58.1476 22.2506 58.6344 22.7373 58.6344 23.3371Z" fill="#2B4D66"/>
<path d="M58.6344 29.1359C58.6344 29.7357 58.1477 30.2224 57.5479 30.2224H52.8252V28.0493H57.5479C58.1476 28.0495 58.6344 28.5362 58.6344 29.1359Z" fill="#2B4D66"/>
</g>
<defs>
<clipPath id="clip0_440_20998">
<rect width="72" height="72" fill="white"/>
</clipPath>
</defs>
</svg>
