<svg width="72" height="72" viewBox="0 0 72 72" fill="none" xmlns="http://www.w3.org/2000/svg">
<path d="M36 25.5938H25.4531V38.25H36H46.5469V25.5938H36Z" fill="#2A404F"/>
<path d="M52.875 34.0312H36H19.125C17.9591 34.0312 17.0156 34.9747 17.0156 36.1406V53.0156C17.0156 63.4842 25.5315 72 36 72C46.4685 72 54.9844 63.4842 54.9844 53.0156V36.1406C54.9844 34.9747 54.0409 34.0312 52.875 34.0312Z" fill="#FFA344"/>
<path d="M36 0C25.5315 0 17.0156 8.65645 17.0156 19.125V23.4844C17.0156 26.9738 19.8543 29.8125 23.3438 29.8125H36H48.6562C52.1457 29.8125 54.9844 26.9738 54.9844 23.4844V19.125C54.9844 8.65645 46.4685 0 36 0Z" fill="#FEEECD"/>
<path d="M54.9844 23.4844V19.125C54.9844 8.65645 46.4686 0 36 0V29.8125H48.6563C52.1457 29.8125 54.9844 26.9738 54.9844 23.4844Z" fill="#FFBD69"/>
<path d="M12.9596 37.2861C11.9378 36.7052 10.6566 37.072 10.0859 38.0874L4.49058 47.7609C4.31142 48.0781 4.21875 48.4345 4.21875 48.797V57.2345H8.4375V49.3511L13.7609 40.1597C14.3336 39.1441 13.9752 37.8588 12.9596 37.2861Z" fill="#FFD99B"/>
<path d="M14.9062 42.4688C11.4168 42.4688 8.57812 39.6301 8.57812 36.1406C8.57812 32.6512 11.4168 29.8125 14.9062 29.8125C18.3957 29.8125 21.2344 32.6512 21.2344 36.1406C21.2344 39.6301 18.3957 42.4688 14.9062 42.4688Z" fill="#2A404F"/>
<path d="M7.81939 65.9272C6.99547 65.1033 6.99547 63.7683 7.81939 62.9444C8.64135 62.1224 8.64135 60.7835 7.81939 59.9616C6.99547 59.1377 5.66052 59.1377 4.8366 59.9616C4.01464 60.7835 4.01464 62.1224 4.8366 62.9444C5.66052 63.7683 5.66052 65.1033 4.8366 65.9272C4.01268 66.7511 2.67772 66.7511 1.8538 65.9272C-0.614027 63.4594 -0.614027 59.4466 1.8538 56.9788C4.32163 54.511 8.33436 54.511 10.8022 56.9788C13.27 59.4466 13.27 63.4594 10.8022 65.9272C9.97827 66.7512 8.64346 66.7512 7.81939 65.9272Z" fill="#FFA344"/>
<path d="M67.5099 47.7606L61.9145 38.0871C61.3419 37.0715 60.0605 36.709 59.0409 37.2858C58.0253 37.8585 57.6668 39.1439 58.2396 40.1595L63.5631 49.3508V57.2342H67.7818V48.7967C67.7818 48.4342 67.6892 48.0778 67.5099 47.7606Z" fill="#FFD99B"/>
<path d="M57.0938 42.4688C53.6043 42.4688 50.7656 39.6301 50.7656 36.1406C50.7656 32.6512 53.6043 29.8125 57.0938 29.8125C60.5832 29.8125 63.4219 32.6512 63.4219 36.1406C63.4219 39.6301 60.5832 42.4688 57.0938 42.4688Z" fill="#2A404F"/>
<path d="M67.1631 65.9272C66.3392 65.1033 66.3392 63.7683 67.1631 62.9444C67.9851 62.1224 67.9851 60.7835 67.1631 59.9616C66.3392 59.1377 65.0043 59.1377 64.1804 59.9616C63.3584 60.7835 63.3584 62.1224 64.1804 62.9444C65.0043 63.7683 65.0043 65.1033 64.1804 65.9272C63.3564 66.7511 62.0215 66.7511 61.1976 65.9272C58.7297 63.4594 58.7297 59.4466 61.1976 56.9788C63.6654 54.511 67.6781 54.511 70.1459 56.9788C72.6138 59.4466 72.6138 63.4594 70.1459 65.9272C69.322 66.7512 67.9872 66.7512 67.1631 65.9272Z" fill="#FF7707"/>
<path d="M42.0126 51.9074C41.6274 51.2853 40.9496 50.9063 40.2184 50.9063H35.9996H35.1941L35.9996 49.2954L37.8865 45.5216C38.4077 44.4793 37.9854 43.2124 36.9431 42.6913C36.6382 42.5398 36.3179 42.4902 35.9996 42.4907C35.2276 42.4923 34.4833 42.8966 34.1127 43.6347L29.894 52.0722C29.5664 52.7253 29.6015 53.5018 29.9866 54.1239C30.3718 54.7461 31.0496 55.125 31.7809 55.125H35.9996H36.8051L35.9996 56.7359L34.1127 60.5097C33.5916 61.552 34.0139 62.8189 35.0562 63.3401C35.3617 63.492 35.6821 63.542 35.9996 63.5412C36.7746 63.5393 37.5184 63.1307 37.8865 62.3966L42.1053 53.9591C42.4328 53.3061 42.3978 52.5295 42.0126 51.9074Z" fill="#2A404F"/>
<path d="M36 21.2344C39.4949 21.2344 42.3281 18.4012 42.3281 14.9062C42.3281 11.4113 39.4949 8.57812 36 8.57812C32.5051 8.57812 29.6719 11.4113 29.6719 14.9062C29.6719 18.4012 32.5051 21.2344 36 21.2344Z" fill="#2A404F"/>
</svg>
