<svg width="72" height="72" viewBox="0 0 72 72" fill="none" xmlns="http://www.w3.org/2000/svg">
<path d="M66.375 17.8073V66.375C66.3751 66.6705 66.3169 66.9631 66.2039 67.2361C66.0908 67.5091 65.9251 67.7572 65.7162 67.9662C65.5072 68.1751 65.2591 68.3408 64.9861 68.4539C64.7131 68.5669 64.4205 68.6251 64.125 68.625H19.125V5.625C19.1249 5.3295 19.1831 5.03689 19.2961 4.76387C19.4092 4.49086 19.5749 4.24279 19.7838 4.03385C19.9928 3.8249 20.2409 3.65917 20.5139 3.54612C20.7869 3.43307 21.0795 3.37493 21.375 3.375H51.9427C52.5393 3.37711 53.1112 3.61404 53.5345 4.03453L65.7155 16.2155C66.136 16.6388 66.3729 17.2107 66.375 17.8073Z" fill="#FEEECD"/>
<path d="M13.8524 31.2034L12.4183 26.1841C12.3363 25.8972 12.3717 25.5895 12.5166 25.3287C12.6614 25.0678 12.904 24.8753 13.1909 24.7933C13.3329 24.7527 13.4816 24.7405 13.6284 24.7574C13.7752 24.7742 13.9172 24.8198 14.0463 24.8916C14.1755 24.9634 14.2892 25.0598 14.3811 25.1756C14.4729 25.2913 14.5411 25.424 14.5817 25.566L16.0158 30.5853L13.8524 31.2034Z" fill="#325873"/>
<path d="M32.625 43.875L31.6027 48.375L31.0908 50.625L27 68.625H11.25L5.625 43.875H32.625Z" fill="#FDD13C"/>
<path d="M31.6027 48.375L31.0908 50.625H16.875V48.375H31.6027Z" fill="#FFB401"/>
<path d="M12.375 48.375H14.625V50.625H12.375V48.375Z" fill="#FFB401"/>
<path d="M20.25 43.875L24.75 29.25L31.5 31.5L27.6923 43.875H20.25Z" fill="#FFB8A4"/>
<path d="M27 34.875C27.6213 34.875 28.125 34.3713 28.125 33.75C28.125 33.1287 27.6213 32.625 27 32.625C26.3787 32.625 25.875 33.1287 25.875 33.75C25.875 34.3713 26.3787 34.875 27 34.875Z" fill="white"/>
<path d="M20.5312 43.875H15.75L12.375 30.375L16.875 29.25L20.5312 43.875Z" fill="#325873"/>
<path d="M15.7502 43.8753H10.1252L9.00017 39.3753L8.53752 37.5218C8.36207 36.8199 8.47253 36.0771 8.84461 35.4566C9.21669 34.8361 9.81994 34.3888 10.5217 34.2129C10.7384 34.1591 10.9608 34.1317 11.1841 34.1313C11.7925 34.1319 12.3832 34.3355 12.8627 34.71C13.3422 35.0845 13.6828 35.6084 13.8306 36.1985L14.2947 38.052L15.7502 43.8753Z" fill="#FF7707"/>
<path d="M14.2947 38.052L9.00017 39.3753L8.53752 37.5218C8.36207 36.8199 8.47253 36.0771 8.84461 35.4566C9.21669 34.8361 9.81994 34.3888 10.5217 34.2129C10.7384 34.1591 10.9608 34.1317 11.1841 34.1313C11.7925 34.1319 12.3832 34.3355 12.8627 34.71C13.3422 35.0845 13.6828 35.6084 13.8306 36.1985L14.2947 38.052Z" fill="#FFB8A4"/>
<path d="M12.3867 30.3652L16.8861 29.2376L18.0137 33.7369L13.5144 34.8646L12.3867 30.3652Z" fill="#2A404F"/>
<path d="M66.1711 16.8747H56.25C55.355 16.8745 54.4966 16.5188 53.8638 15.8859C53.2309 15.2531 52.8752 14.3947 52.875 13.4997V3.57861C53.1206 3.68931 53.3441 3.84369 53.5345 4.03424L65.7155 16.2152C65.906 16.4056 66.0604 16.6291 66.1711 16.8747Z" fill="#325873"/>
<path d="M60.4202 30.7041C60.2093 30.4934 59.9234 30.375 59.6253 30.375H59.624L35.999 30.4009L36.0016 32.6509L42.7503 32.6433V42.75H36.0003V45H42.7503V47.25H36.0003V49.5H42.7503V51.75H36.0003V54H42.7503V56.25H36.0003V58.5H42.7503V60.75H36.0003V63H59.6253C59.9237 63 60.2098 62.8815 60.4208 62.6705C60.6318 62.4595 60.7503 62.1734 60.7503 61.875V31.5C60.7503 31.3521 60.7211 31.2058 60.6645 31.0692C60.6079 30.9326 60.5249 30.8085 60.4202 30.7041ZM58.5003 32.6263V37.125H45.0003V32.641L58.5003 32.6263ZM52.8753 51.75V49.5H58.5003V51.75H52.8753ZM58.5003 54V56.25H52.8753V54H58.5003ZM52.8753 47.25V45H58.5003V47.25H52.8753ZM52.8753 42.75V39.375H58.5003V42.75H52.8753ZM45.0003 39.375H50.6253V42.75H45.0003V39.375ZM45.0003 45H50.6253V47.25H45.0003V45ZM45.0003 49.5H50.6253V51.75H45.0003V49.5ZM45.0003 54H50.6253V56.25H45.0003V54ZM45.0003 58.5H50.6253V60.75H45.0003V58.5ZM52.8753 60.75V58.5H58.5003V60.75H52.8753Z" fill="#AAB3B9"/>
<path d="M40.5 9H43.875V11.25H40.5V9Z" fill="#AAB3B9"/>
<path d="M40.5 14.625H46.125V16.875H40.5V14.625Z" fill="#AAB3B9"/>
<path d="M40.5 20.25H49.5V22.5H40.5V20.25Z" fill="#AAB3B9"/>
<ellipse cx="30.7496" cy="10.2857" rx="2.03572" ry="2.03571" fill="#FFB8A4"/>
<circle cx="30.7496" cy="20.4644" r="2.03572" fill="#FFB8A4"/>
<rect x="24.6426" y="14.3569" width="12.2143" height="2.71429" fill="#FFB8A4"/>
</svg>
