<svg width="72" height="72" viewBox="0 0 72 72" fill="none" xmlns="http://www.w3.org/2000/svg">
<path d="M64.125 27V43.3125C64.125 44.0584 63.8287 44.7738 63.3012 45.3012C62.7738 45.8287 62.0584 46.125 61.3125 46.125C60.5666 46.125 59.8512 45.8287 59.3238 45.3012C58.7963 44.7738 58.5 44.0584 58.5 43.3125V63L61.875 66.375V68.625H39.375V66.375L42.75 63V43.3125C42.75 44.0584 42.4537 44.7738 41.9262 45.3012C41.3988 45.8287 40.6834 46.125 39.9375 46.125C39.1916 46.125 38.4762 45.8287 37.9488 45.3012C37.4213 44.7738 37.125 44.0584 37.125 43.3125V27C37.1251 25.5082 37.7177 24.0775 38.7726 23.0226C39.8275 21.9677 41.2582 21.3751 42.75 21.375H58.5C59.9918 21.3751 61.4225 21.9677 62.4774 23.0226C63.5323 24.0775 64.1249 25.5082 64.125 27Z" fill="#FFE9D6"/>
<path d="M61.875 66.375V68.625H39.375V66.375L42.75 63H58.5L61.875 66.375Z" fill="#FFB401"/>
<path d="M42.75 39.375H58.5V63H42.75V39.375Z" fill="#325873"/>
<path d="M49.5 63H51.75V68.625H49.5V63Z" fill="#FFFBF7"/>
<path d="M49.5 47.25H51.75V63H49.5V47.25Z" fill="#80909C"/>
<path d="M64.125 27V40.5H58.5V39.375H42.75V40.5H37.125V27C37.1251 25.5082 37.7177 24.0775 38.7726 23.0226C39.8275 21.9677 41.2582 21.3751 42.75 21.375H58.5C59.9918 21.3751 61.4225 21.9677 62.4774 23.0226C63.5323 24.0775 64.1249 25.5082 64.125 27Z" fill="#FF7707"/>
<path d="M53.6239 22.5L51.749 28.125L52.874 33.75L50.624 36L48.374 33.75L49.499 28.125L47.624 22.5H53.6239Z" fill="#FFFBF7"/>
<path d="M57.375 21.375V28.125L50.625 22.725L43.875 28.125V21.375H57.375Z" fill="#2A404F"/>
<path d="M51.75 29.25H49.5C49.2016 29.25 48.9155 29.1315 48.7045 28.9205C48.4935 28.7095 48.375 28.4234 48.375 28.125C48.375 27.8266 48.4935 27.5405 48.7045 27.3295C48.9155 27.1185 49.2016 27 49.5 27H51.75C52.0484 27 52.3345 27.1185 52.5455 27.3295C52.7565 27.5405 52.875 27.8266 52.875 28.125C52.875 28.4234 52.7565 28.7095 52.5455 28.9205C52.3345 29.1315 52.0484 29.25 51.75 29.25Z" fill="#FFFBF7"/>
<path d="M41.625 29.3864C41.6249 30.0193 41.3735 30.6263 40.9261 31.0739L35.3405 36.6595C34.3218 37.6779 32.9404 38.25 31.5 38.25C30.0596 38.25 28.6782 37.6779 27.6595 36.6595L24.75 33.75V63L28.125 66.375V68.625H5.625V66.375L9 63V48.375H6.75C5.85496 48.3748 4.99665 48.0191 4.36376 47.3862C3.73087 46.7534 3.37522 45.895 3.375 45V29.25C3.37507 27.7582 3.96773 26.3275 5.02261 25.2726C6.07748 24.2177 7.50818 23.6251 9 23.625H24.892C25.5518 23.625 26.2035 23.77 26.801 24.0497C27.3986 24.3294 27.9274 24.737 28.35 25.2436L32.625 30.375L34.7583 29.0953L37.402 27.5091C37.6785 27.3434 37.976 27.2157 38.2866 27.1294C38.5966 27.0433 38.9169 26.9998 39.2386 27C39.552 27 39.8623 27.0617 40.1519 27.1816C40.4414 27.3015 40.7045 27.4773 40.9261 27.6989C41.1477 27.9205 41.3235 28.1836 41.4434 28.4731C41.5633 28.7627 41.625 29.073 41.625 29.3864Z" fill="#FFE9D6"/>
<path d="M28.125 66.375V68.625H5.625V66.375L9 63H24.75L28.125 66.375Z" fill="#FFB401"/>
<path d="M9 40.5H24.75V63H9V40.5Z" fill="#FF7707"/>
<path d="M38.25 33.75L35.3405 36.6595C34.3218 37.6779 32.9404 38.25 31.5 38.25C30.0596 38.25 28.6782 37.6779 27.6595 36.6595L24.75 33.75V40.5H9V42.75H3.375V29.25C3.37507 27.7582 3.96773 26.3275 5.02261 25.2726C6.07748 24.2177 7.50818 23.6251 9 23.625H24.892C25.5518 23.625 26.2035 23.77 26.801 24.0497C27.3986 24.3294 27.9274 24.737 28.35 25.2436L32.625 30.375L34.7583 29.0953L38.25 33.75Z" fill="#325873"/>
<path d="M22.5 23.625V30.375L16.875 36L11.25 30.375V23.625H22.5Z" fill="#FF7707"/>
<path d="M19.125 25.875L18 29.25L19.125 33.75L16.875 36L14.625 33.75L15.75 29.25L14.625 25.875V23.625H19.125V25.875Z" fill="#FFFBF7"/>
<path d="M18 30.375H15.75C15.4516 30.375 15.1655 30.2565 14.9545 30.0455C14.7435 29.8345 14.625 29.5484 14.625 29.25C14.625 28.9516 14.7435 28.6655 14.9545 28.4545C15.1655 28.2435 15.4516 28.125 15.75 28.125H18C18.2984 28.125 18.5845 28.2435 18.7955 28.4545C19.0065 28.6655 19.125 28.9516 19.125 29.25C19.125 29.5484 19.0065 29.8345 18.7955 30.0455C18.5845 30.2565 18.2984 30.375 18 30.375Z" fill="#FFFBF7"/>
<path d="M15.75 63H18V68.625H15.75V63Z" fill="#FFFBF7"/>
<path d="M15.75 47.25H18V63H15.75V47.25Z" fill="#FFBD69"/>
<path d="M9 33.75H11.25V40.5H9V33.75Z" fill="#325873"/>
<path d="M56.25 29.25H58.5V39.375H56.25V29.25Z" fill="#FF7707"/>
<path d="M42.75 29.25H45V39.375H42.75V29.25Z" fill="#FF7707"/>
<path d="M55.125 46.125H68.625V56.25H55.125V46.125Z" fill="#FFB401"/>
<path d="M68.625 46.125L65.25 51.75H58.5L55.125 46.125V56.25H68.625V46.125Z" fill="#FF7707"/>
<path d="M60.75 49.5H63V54H60.75V49.5Z" fill="#FFB401"/>
<path d="M24.75 3.375H43.875V16.875H34.875L29.25 21.375V16.875H24.75V3.375Z" fill="#FFC431"/>
<path d="M28.125 6.75H31.5V9H28.125V6.75Z" fill="#FFFBF7"/>
<path d="M33.75 6.75H40.5V9H33.75V6.75Z" fill="#FFFBF7"/>
<path d="M28.125 11.25H34.875V13.5H28.125V11.25Z" fill="#FFFBF7"/>
<path d="M37.125 11.25H40.5V13.5H37.125V11.25Z" fill="#FFFBF7"/>
<path d="M13.5 19.125H20.25V22.5C20.25 23.3951 19.8944 24.2536 19.2615 24.8865C18.6286 25.5194 17.7701 25.875 16.875 25.875C15.9799 25.875 15.1214 25.5194 14.4885 24.8865C13.8556 24.2536 13.5 23.3951 13.5 22.5V19.125Z" fill="#FFCEB6"/>
<path d="M13.5 19.125V16.875L16.2224 15.0601C16.6479 14.7764 17.1479 14.625 17.6594 14.625C18.3465 14.625 19.0054 14.8979 19.4912 15.3838C19.9771 15.8696 20.25 16.5285 20.25 17.2156V19.125H13.5Z" fill="#FF7707"/>
<path d="M50.625 23.625C49.7299 23.625 48.8715 23.2694 48.2385 22.6365C47.6056 22.0036 47.25 21.1451 47.25 20.25V16.875H54V20.25C54 21.1451 53.6444 22.0036 53.0115 22.6365C52.3785 23.2694 51.5201 23.625 50.625 23.625Z" fill="#FFCEB6"/>
<path d="M54 16.875V14.625L51.2776 12.8101C50.8521 12.5264 50.3521 12.375 49.8406 12.375C49.1535 12.375 48.4946 12.6479 48.0088 13.1338C47.5229 13.6196 47.25 14.2785 47.25 14.9656V16.875H54Z" fill="#2A404F"/>
</svg>
