<svg width="72" height="72" viewBox="0 0 72 72" fill="none" xmlns="http://www.w3.org/2000/svg">
<g clip-path="url(#clip0_440_20948)">
<path d="M52.7344 44.5781H42.1875L37.9688 53.0156L42.1875 61.4531H52.7344L56.9531 53.0156L59.4783 47.5194L52.7344 44.5781Z" fill="#FC5B23"/>
<path d="M67.5 36.1403L61.6742 33.6465L56.9531 36.1403L52.7344 44.5778L56.9531 53.0153H67.5L72 44.5778L67.5 36.1403Z" fill="#4BB9EC"/>
<path d="M67.5006 19.2656H56.9538L51.0381 23.4463L52.735 27.7031L56.9538 36.1406H67.5006L72.0006 27.7031L67.5006 19.2656Z" fill="#FDBF00"/>
<path d="M4.21875 25.5938H25.3125V29.8125H4.21875V25.5938Z" fill="#FFDA2D"/>
<path d="M2.10938 34.0312H46.4062V38.25H2.10938V34.0312Z" fill="#FFDA2D"/>
<path d="M3.41797 42.4688H26.1148V46.6875H3.41797V42.4688Z" fill="#FFDA2D"/>
<path d="M2.91016 4.5H26.6195V8.71875H2.91016V4.5Z" fill="#FFDA2D"/>
<path d="M14.7656 25.5938H25.3125V29.8125H14.7656V25.5938Z" fill="#FDBF00"/>
<path d="M14.7656 42.4688H26.1141V46.6875H14.7656V42.4688Z" fill="#FDBF00"/>
<path d="M14.7656 34.0312H46.4062V38.25H14.7656V34.0312Z" fill="#FDBF00"/>
<path d="M3.54297 63.5625H25.9864V67.7812H3.54297V63.5625Z" fill="#FFDA2D"/>
<path d="M29.5312 37.1108C29.5312 46.8983 23.7094 55.6311 14.7656 59.3859C14.2172 59.6391 13.5842 59.85 12.9939 60.0608C7.67813 61.833 4.21875 66.5999 4.21875 72H0C0 64.7858 4.59858 58.4158 11.433 56.1375C12.6141 55.7156 13.7109 55.2517 14.7656 54.6609C21.2624 51.1592 25.3125 44.4936 25.3125 37.1108C25.3125 27.3233 20.3344 23.1889 14.7656 19.8984C7.80455 15.7217 0 12.853 0 1.8V0H4.21875V1.8C4.21875 10.4484 11.3484 13.1906 14.7656 14.7516C15.3562 15.0469 15.8625 15.3 16.158 15.5109C24.4264 19.6033 29.5312 27.9141 29.5312 37.1108Z" fill="#2A404F"/>
<path d="M29.5312 37.1107C29.5312 46.8982 23.7094 55.631 14.7656 59.3858V54.6608C21.2624 51.1591 25.3125 44.4935 25.3125 37.1107C25.3125 27.3232 20.3344 23.1888 14.7656 19.8983V14.7515C15.3562 15.0468 15.8625 15.2999 16.158 15.5108C24.4264 19.6032 29.5312 27.914 29.5312 37.1107Z" fill="#2A404F"/>
<path d="M4.21875 37.1108C4.21875 44.5781 8.35298 51.2859 14.7656 54.7452C15.7358 55.2517 16.7483 55.7156 17.8452 56.053C24.9327 58.4158 29.5312 64.7858 29.5312 72H25.3125C25.3125 66.5999 21.8531 61.833 16.7483 60.1031C16.0734 59.8922 15.3986 59.6391 14.7656 59.3438C5.77969 55.5467 0 46.8142 0 37.1108C0 23.6109 9.40767 17.4516 14.7656 14.7514C16.6641 13.7812 18.0564 13.2751 18.3938 12.9797C22.6547 10.8703 25.3125 6.56719 25.3125 1.8V0H29.5312V1.51875C29.5312 12.5297 21.7267 15.7219 14.7656 19.8986C9.19688 23.2734 4.21875 27.4078 4.21875 37.1108Z" fill="#FF7B4A"/>
<path d="M42.1875 10.8281H52.7344L56.9531 19.2656L52.7344 27.7031H42.1875L37.9688 19.2656L42.1875 10.8281Z" fill="#FC5B23"/>
<path d="M14.7656 63.5625H25.9874V67.7812H14.7656V63.5625Z" fill="#FDBF00"/>
<path d="M14.7656 4.5H26.6203V8.71875H14.7656V4.5Z" fill="#FDBF00"/>
<path d="M29.5312 72H25.3125C25.3125 66.5998 21.8531 61.8329 16.7483 60.1031C16.0734 59.8921 15.3986 59.639 14.7656 59.3437V54.7451C15.7358 55.2516 16.7483 55.7156 17.8452 56.0529C24.9327 58.4157 29.5312 64.7857 29.5312 72Z" fill="#FF7707"/>
<path d="M29.5312 0V1.51875C29.5312 12.5297 21.7267 15.7219 14.7656 19.8986V14.7516C16.6641 13.7812 18.0564 13.2751 18.3938 12.9797C22.6547 10.8703 25.3125 6.56719 25.3125 1.8V0L29.5312 0Z" fill="#FF7707"/>
</g>
<defs>
<clipPath id="clip0_440_20948">
<rect width="72" height="72" fill="white"/>
</clipPath>
</defs>
</svg>
