<svg width="72" height="72" viewBox="0 0 72 72" fill="none" xmlns="http://www.w3.org/2000/svg">
<path d="M37.9824 50.0781H42.2012V59.3636H37.9824V50.0781Z" fill="#FF7707"/>
<path d="M40.2227 50.0781H42.2013V59.3636H40.2227V50.0781Z" fill="#FF7707"/>
<path d="M59.0845 21.1021C59.0845 31.6813 50.7064 40.3045 40.2227 40.6968C39.975 40.7066 39.7262 40.711 39.4762 40.711C28.6464 40.711 19.8672 31.9318 19.8672 21.1021C19.8672 10.2729 28.6464 1.49365 39.4762 1.49365C39.7261 1.49365 39.975 1.49745 40.2227 1.50743C50.7064 1.9002 59.0847 10.5229 59.0847 21.1021H59.0845Z" fill="white"/>
<path d="M61.1928 42.8172C55.5876 48.4225 48.1443 51.5244 40.2228 51.5569C40.1792 51.5586 40.1353 51.5586 40.092 51.5586C32.1214 51.5586 24.6274 48.4533 18.9911 42.8173C7.35715 31.1833 7.35715 12.2522 18.9911 0.617188L21.975 3.60097C11.985 13.591 11.985 29.8445 21.975 39.8344C26.8139 44.6733 33.2475 47.3398 40.092 47.3398H40.2228C47.0178 47.3057 53.4007 44.6427 58.2084 39.8345L61.1928 42.8172Z" fill="#FF7707"/>
<path d="M24.583 57.2539H55.6018V71.9998H24.583V57.2539Z" fill="#325873"/>
<path d="M40.2229 0H40.0921C28.1165 0 18.374 9.74264 18.374 21.7183C18.374 33.6939 28.1165 43.4361 40.0921 43.4361H40.2229C52.1381 43.3647 61.8105 33.65 61.8105 21.7183C61.8107 9.78609 52.1382 0.0718594 40.2229 0ZM57.464 19.6089H49.5098C49.1599 12.7392 47.129 8.01014 45.1224 4.95703C51.6758 6.92747 56.6229 12.6436 57.464 19.6089ZM40.2231 5.85295C40.2835 5.78644 40.3412 5.72498 40.3988 5.66452C40.8768 6.22983 41.4057 6.93844 41.9304 7.80202C43.3223 10.0882 44.9521 13.9202 45.2829 19.6089H35.1623C35.4913 14.1833 37.0465 10.5244 38.3769 8.33639C39.0251 7.27017 39.6749 6.45173 40.2231 5.85295ZM35.671 4.78561C33.5868 7.68811 31.3143 12.4398 30.9348 19.6089H22.7209C23.5871 12.43 28.8171 6.57577 35.671 4.78561ZM22.7209 23.8276H30.9348C31.3143 30.9953 33.5868 35.7484 35.671 38.6509C28.8171 36.8608 23.5871 31.0061 22.7209 23.8276ZM40.3988 37.772C40.3412 37.7115 40.2835 37.6497 40.2231 37.5836C39.6749 36.9844 39.0249 36.1659 38.3768 35.1001C37.0465 32.9117 35.4912 29.2528 35.1623 23.8276H45.2829C44.9521 29.5159 43.3223 33.3463 41.9304 35.6331C41.4059 36.4977 40.8768 37.2053 40.399 37.772H40.3988ZM45.1224 38.4791C47.1292 35.4248 49.1599 30.6969 49.5099 23.8276H57.464C56.623 30.7914 51.6758 36.5092 45.1224 38.4791Z" fill="#325873"/>
<path d="M59.0846 21.1021C59.0846 31.6814 50.7064 40.3045 40.2227 40.6968V1.50732C50.7064 1.90009 59.0847 10.5228 59.0847 21.102L59.0846 21.1021Z" fill="white"/>
<path d="M40.2227 57.2539H55.6014V71.9998H40.2227V57.2539Z" fill="#325873"/>
<path d="M40.2227 0V5.85295C40.2831 5.78644 40.3408 5.72498 40.3984 5.66452C40.8764 6.22983 41.4053 6.93844 41.93 7.80202C43.3219 10.0882 44.9517 13.9202 45.2825 19.6089H40.2228V23.8276H45.2825C44.9517 29.5159 43.3219 33.3463 41.93 35.6331C41.4055 36.4977 40.8764 37.2053 40.3986 37.772C40.3409 37.7115 40.2831 37.6497 40.2228 37.5836V43.4361C52.1379 43.3647 61.8103 33.65 61.8103 21.7183C61.8104 9.78609 52.1379 0.0718594 40.2227 0ZM45.122 4.95703C51.6754 6.92747 56.6225 12.6436 57.4636 19.6089H49.5094C49.1595 12.7392 47.1286 8.01014 45.122 4.95703ZM45.122 38.4791C47.1287 35.4248 49.1595 30.6969 49.5095 23.8276H57.4636C56.6226 30.7914 51.6754 36.5092 45.122 38.4791Z" fill="#325873"/>
<path d="M58.2083 39.8351L61.1927 42.8178C55.5875 48.4231 48.1442 51.525 40.2227 51.5575V47.3403C47.0177 47.3061 53.4006 44.6431 58.2083 39.835V39.8351Z" fill="#FF7707"/>
</svg>
