<svg width="72" height="72" viewBox="0 0 72 72" fill="none" xmlns="http://www.w3.org/2000/svg">
<g clip-path="url(#clip0_440_20978)">
<path d="M71.9999 53.2338V57.4525L45.7621 60.3241L32.0385 40.1796L16.0986 16.7852L32.0778 4.00098L33.4138 5.33551C34.7427 6.66582 35.8241 8.91863 37.0757 11.5272C38.7238 14.9627 40.9808 19.668 43.3532 20.0716C44.675 20.298 46.2317 19.0661 47.3047 17.9918L48.7967 16.5011L52.2575 19.9605L54.9589 22.6619L56.4327 30.0307L42.4686 32.14L57.2764 34.2494L58.1188 38.4682L46.6874 40.5775L60.7499 42.6869H61.453C67.2678 42.6869 71.9999 47.4189 71.9999 53.2338Z" fill="#FF7707"/>
<path d="M72.0005 57.4525V59.9994C72.0005 64.4177 68.4188 67.9994 64.0005 67.9994H47.4098C44.9795 67.9994 42.6809 66.8946 41.1628 64.9969L26.078 46.1406L12.8617 29.6203C10.1017 26.1702 10.661 21.136 14.111 18.3759L16.0993 16.7852L33.5818 38.6369L48.6343 57.4525H72.0005Z" fill="#2A404F"/>
<path d="M0 49.0146C0 47.8497 0.944399 46.9053 2.10938 46.9053H14.7656C15.9306 46.9053 16.875 47.8497 16.875 49.0146C16.875 50.1796 15.9306 51.124 14.7656 51.124H2.10938C0.944399 51.124 0 50.1796 0 49.0146Z" fill="#FFD99B"/>
<path d="M8.4375 57.4521C8.4375 56.2872 9.3819 55.3428 10.5469 55.3428H23.2031C24.3681 55.3428 25.3125 56.2872 25.3125 57.4521C25.3125 58.6171 24.3681 59.5615 23.2031 59.5615H10.5469C9.3819 59.5615 8.4375 58.6171 8.4375 57.4521Z" fill="#FFD99B"/>
<path d="M16.875 65.8896C16.875 64.7247 17.8194 63.7803 18.9844 63.7803H31.6406C32.8056 63.7803 33.75 64.7247 33.75 65.8896C33.75 67.0546 32.8056 67.999 31.6406 67.999H18.9844C17.8194 67.999 16.875 67.0546 16.875 65.8896Z" fill="#FFA344"/>
<path d="M57.2766 34.249H42.4688V30.0303H56.4328L57.2766 34.249Z" fill="#FFBD69"/>
<path d="M61.283 42.6865H46.6875V38.4678H58.1189L58.5084 40.4126C58.7728 41.7303 59.9386 42.6865 61.283 42.6865Z" fill="#FFBD69"/>
</g>
<defs>
<clipPath id="clip0_440_20978">
<rect width="72" height="72" fill="white"/>
</clipPath>
</defs>
</svg>
