<svg width="72" height="72" viewBox="0 0 72 72" fill="none" xmlns="http://www.w3.org/2000/svg">
<path d="M15.3286 57.6619C9.74363 57.6619 5.8417 55.99 4.16234 52.8093V52.8091C2.10481 48.9123 3.79936 43.5373 8.93361 37.6746C13.6151 32.3288 20.724 26.9926 28.9509 22.649C37.178 18.3054 45.594 15.4449 52.6487 14.5942C60.3861 13.6612 65.78 15.2937 67.8373 19.1908C69.8947 23.0876 68.2003 28.4625 63.0661 34.3254C58.3846 39.6711 51.2758 45.0074 43.0488 49.351C34.8218 53.6946 26.4057 56.5552 19.351 57.4058C17.9292 57.5773 16.5861 57.6619 15.3286 57.6619ZM7.91103 50.83C9.05648 52.9996 13.1433 53.8846 18.8436 53.1971C25.3965 52.4072 33.2897 49.7099 41.0697 45.6024C48.8495 41.4948 55.5288 36.4981 59.8772 31.5328C63.6597 27.2135 65.2342 23.3395 64.0888 21.17C62.9435 19.0005 58.8568 18.1156 53.1562 18.803C46.6035 19.5931 38.7101 22.2903 30.9301 26.3979C23.1503 30.5053 16.4709 35.5021 12.1227 40.4674C8.34022 44.7868 6.76573 48.6606 7.91103 50.83Z" fill="#FF7707"/>
<path d="M56.4739 58.4168C54.8808 58.4168 53.1387 58.2574 51.2609 57.9349C44.3899 56.7543 36.2839 53.5373 28.4362 48.8762C20.5885 44.2153 13.8851 38.6368 9.56086 33.1683C4.8184 27.1709 3.42258 21.8207 5.63039 18.1033C7.83819 14.386 13.204 13.0522 20.7396 14.3466C27.6104 15.5272 35.7164 18.7442 43.5643 23.4052C51.4119 28.0661 58.1153 33.6447 62.4395 39.1132C67.1819 45.1107 68.5779 50.4608 66.37 54.1782C64.7124 56.9691 61.2735 58.4168 56.4739 58.4168ZM15.4741 18.0187C12.3053 18.0187 10.0662 18.7794 9.20632 20.2272C7.97723 22.2965 9.32932 26.1699 12.8233 30.5885C16.8398 35.6679 23.1388 40.8927 30.56 45.3003C37.9812 49.7079 45.583 52.7392 51.965 53.8357C57.5168 54.7897 61.5649 54.1236 62.7942 52.0542C64.0233 49.9848 62.671 46.1114 59.1771 41.6929C55.1606 36.6135 48.8616 31.3887 41.4403 26.9809C34.0191 22.5733 26.4172 19.5422 20.0352 18.4456C18.3675 18.1591 16.8347 18.0187 15.4741 18.0187Z" fill="#18A795"/>
<path d="M36.3777 72C32.0087 72.0001 28.0316 68.0496 25.1694 60.8614C22.5407 54.2597 21.0258 45.501 20.9035 36.1984C20.7812 26.896 22.0655 18.1003 24.5196 11.4318C27.2113 4.11814 31.1203 0.0584811 35.5266 0.000562319C35.5582 0.00014058 35.5903 0 35.6221 0C39.991 0 43.9681 3.95029 46.8302 11.1384C49.4587 17.7402 50.9738 26.499 51.0962 35.8016C51.2185 45.104 49.9342 53.8997 47.4798 60.5682C44.7883 67.8819 40.8792 71.9415 36.473 71.9994C36.4412 71.9999 36.4093 72 36.3777 72ZM35.6195 4.23918C35.607 4.23918 35.5948 4.23932 35.5824 4.23946C33.1294 4.27165 30.4811 7.5078 28.4979 12.8959C26.2184 19.09 25.0266 27.3458 25.1421 36.1426C25.2578 44.9395 26.6661 53.1612 29.1077 59.2931C31.2209 64.6003 33.9368 67.7608 36.3801 67.7608C36.3926 67.7608 36.4048 67.7608 36.4172 67.7605C38.8701 67.7283 41.5185 64.4922 43.5015 59.1041C45.7812 52.91 46.9729 44.6542 46.8573 35.8572C46.7416 27.0602 45.3333 18.8385 42.8917 12.7066C40.7785 7.39941 38.0628 4.23918 35.6195 4.23918Z" fill="#22323E"/>
<path d="M42.4841 39.8511C40.3572 43.4322 35.7298 44.6111 32.1487 42.4841C28.5676 40.3572 27.3887 35.7298 29.5157 32.1487C31.6426 28.5676 36.2699 27.3887 39.8511 29.5157C43.4322 31.6426 44.6111 36.2699 42.4841 39.8511Z" fill="#FC5B23"/>
<path d="M66.6794 56.8553C65.2474 59.2664 62.1319 60.0601 59.7208 58.6282C57.3098 57.1962 56.516 54.0807 57.9481 51.6696C59.3801 49.2585 62.4956 48.4648 64.9067 49.8968C67.3178 51.3288 68.1115 54.4442 66.6794 56.8553Z" fill="#FFBD69"/>
<path d="M15.3649 19.4447C13.933 21.8557 10.8175 22.6495 8.40639 21.2175C5.99531 19.7856 5.20159 16.67 6.63368 14.259C8.06562 11.8479 11.1811 11.0542 13.5922 12.4861C16.0033 13.9181 16.797 17.0336 15.3649 19.4447Z" fill="#FFBD69"/>
</svg>
