<svg width="68" height="68" viewBox="0 0 68 68" fill="none" xmlns="http://www.w3.org/2000/svg">
<g clip-path="url(#clip0_2007_68650)">
<path d="M15.3501 62.6875H7.38184V27.6707H15.3501V62.6875Z" fill="#606E78"/>
<path d="M30.4395 62.6875H22.4707V27.6707H30.4395V62.6875Z" fill="#606E78"/>
<path d="M45.5293 62.6875H37.5605V27.6707H45.5293V62.6875Z" fill="#22323E"/>
<path d="M60.6186 62.6875H52.6504V27.6707H60.6186V62.6875Z" fill="#22323E"/>
<path d="M61.2835 31.655H6.71777C5.6174 31.655 4.72559 30.7632 4.72559 29.6628V21.6946C4.72559 20.5942 5.6174 19.7024 6.71777 19.7024H61.2835C62.3833 19.7024 63.2757 20.5942 63.2757 21.6946V29.6628C63.2757 30.7632 62.3833 31.655 61.2835 31.655Z" fill="#2A404F"/>
<path d="M66.0065 68H1.99414C0.893766 68 0.00195312 67.1082 0.00195312 66.0078V60.6953C0.00195312 59.5949 0.893766 58.7031 1.99414 58.7031H66.0065C67.1069 58.7031 67.9987 59.5949 67.9987 60.6953V66.0078C67.9987 67.1082 67.1069 68 66.0065 68Z" fill="#FF7707"/>
<path d="M66.0077 21.6941H1.99219L33.9999 1.99219L66.0077 21.6941Z" fill="#F4F5F6"/>
<path d="M66.0085 23.6862H1.99298C1.10221 23.6862 0.319341 23.0943 0.0765431 22.2367C-0.166254 21.3791 0.189641 20.4645 0.948642 19.9976L32.9564 0.295715C33.5966 -0.0985716 34.4049 -0.0985716 35.0451 0.295715L67.0528 19.9976C67.8118 20.465 68.1682 21.3791 67.9254 22.2367C67.6826 23.0943 66.8998 23.6862 66.0085 23.6862ZM9.02995 19.7019H58.9715L34.0007 4.33144L9.02995 19.7019Z" fill="#FF7707"/>
<path d="M35.3547 15.7019H32.6455C31.5457 15.7019 30.6533 14.8101 30.6533 13.7097C30.6533 12.6099 31.5457 11.7175 32.6455 11.7175H35.3547C36.4545 11.7175 37.3469 12.6099 37.3469 13.7097C37.3469 14.8101 36.4545 15.7019 35.3547 15.7019Z" fill="#FFBD69"/>
</g>
<defs>
<clipPath id="clip0_2007_68650">
<rect width="68" height="68" fill="white"/>
</clipPath>
</defs>
</svg>
