<svg width="72" height="72" viewBox="0 0 72 72" fill="none" xmlns="http://www.w3.org/2000/svg">
<g clip-path="url(#clip0_440_20953)">
<path d="M44.4376 4.42905C43.0892 4.28097 41.7281 4.19604 40.3426 4.24849C29.5405 4.63788 20.0772 11.0565 14.8224 16.9355L14.8203 45.9905L16.6536 46.1985C22.1804 46.8287 26.0056 48.586 28.0264 51.4244C30.2593 54.5617 29.6641 58.2407 29.4292 59.2954C28.6469 62.7987 30.7125 66.3652 34.2515 67.0468C36.2517 67.43 38.2622 67.6194 40.2582 67.6194C41.6638 67.6194 43.0557 67.492 44.4378 67.3077C60.0634 65.2224 72.1286 51.9296 71.9999 35.7465C71.8587 18.5383 57.957 5.91248 44.4376 4.42905Z" fill="#FDD13C"/>
<path d="M47.6757 28.5449C45.21 26.0751 45.21 22.0603 47.6736 19.5925C50.1455 17.1248 54.1581 17.1248 56.6259 19.5925C59.0937 22.0603 59.0937 26.0751 56.6259 28.5428V28.5449C54.1586 31.0083 50.1436 31.0086 47.6757 28.5449Z" fill="#18A795"/>
<path d="M29.739 21.3354C28.8411 18.0008 30.7994 14.5007 34.213 13.588C37.5748 12.6879 41.0581 14.6901 41.9623 18.0621C42.8684 21.4354 40.8693 24.9064 37.4883 25.8114C34.0997 26.7196 30.6409 24.7091 29.739 21.3354Z" fill="#22323E"/>
<path d="M22.2809 37.7448C18.9089 36.8405 16.9025 33.3634 17.8067 29.9955C18.7053 26.6345 22.1603 24.6098 25.554 25.5214C28.9342 26.4251 30.9382 29.8903 30.0302 33.2707C29.1226 36.6617 25.645 38.6461 22.2809 37.7448Z" fill="#FC5B23"/>
<path d="M54.8803 46.4789C51.509 45.5765 49.4964 42.1163 50.4062 38.7295C51.3133 35.3411 54.7914 33.3529 58.1556 34.2555C61.5276 35.1598 63.534 38.6369 62.6296 42.0048C61.726 45.3852 58.2524 47.3859 54.8803 46.4789Z" fill="#325873"/>
<path d="M12.7968 0.000488281C7.56673 0.000488281 6.46875 19.6423 6.46875 36C6.46875 36.7352 6.47803 37.4097 6.48366 38.1093L10.951 40.2187H12.7968H15.7849L19.1109 38.1093C19.1161 37.4095 19.1248 36.747 19.1248 36C19.1248 19.6422 18.0268 0.000488281 12.7968 0.000488281Z" fill="#FF7707"/>
<path d="M12.7975 38.1094H6.48438C6.55975 47.4375 7.0944 53.5654 7.12449 54.1293H12.7975H18.4705C18.5259 53.0994 19.0419 47.8415 19.1116 38.1094H12.7975Z" fill="#FFF7E6"/>
<path d="M12.7967 50.7656C8.14334 50.7656 4.35932 54.5497 4.35932 59.203V63.4217C4.35932 65.7473 2.32562 67.781 0 67.781V71.9997H8.57801C10.0645 71.9997 11.4706 71.6951 12.7967 71.2223C17.6967 69.4752 21.2341 64.6955 21.2341 59.203C21.2341 54.5497 17.4501 50.7656 12.7967 50.7656Z" fill="#474F54"/>
<path d="M44.4374 59.2029C47.9323 59.2029 50.7654 56.3698 50.7654 52.8749C50.7654 49.38 47.9323 46.5469 44.4374 46.5469C40.9425 46.5469 38.1094 49.38 38.1094 52.8749C38.1094 56.3698 40.9425 59.2029 44.4374 59.2029Z" fill="#FEEECD"/>
</g>
<defs>
<clipPath id="clip0_440_20953">
<rect width="72" height="72" fill="white"/>
</clipPath>
</defs>
</svg>
