<?xml version="1.0" encoding="UTF-8"?>
<svg xmlns="http://www.w3.org/2000/svg" xmlns:xlink="http://www.w3.org/1999/xlink" width="72px" height="72px" viewBox="0 0 72 72" version="1.1">
<g id="surface1">
<path style=" stroke:none;fill-rule:nonzero;fill:rgb(16.470588%,25.098039%,30.980392%);fill-opacity:1;" d="M 36 25.699219 L 25.5 25.699219 L 25.5 38.300781 L 46.5 38.300781 L 46.5 25.699219 Z M 36 25.699219 "/>
<path style=" stroke:none;fill-rule:nonzero;fill:rgb(97.647059%,63.921569%,27.843137%);fill-opacity:1;" d="M 52.898438 34.101562 L 19.101562 34.101562 C 17.960938 34.152344 17.050781 35.0625 17 36.199219 L 17 53.101562 C 17 63.59375 25.507812 72.101562 36 72.101562 C 46.492188 72.101562 55 63.59375 55 53.101562 L 55 36.199219 C 54.949219 35.0625 54.039062 34.152344 52.898438 34.101562 Z M 52.898438 34.101562 "/>
<path style=" stroke:none;fill-rule:nonzero;fill:rgb(99.607843%,93.72549%,80.784314%);fill-opacity:1;" d="M 36 0.101562 C 25.492188 0.15625 17 8.691406 17 19.199219 L 17 23.601562 C 17 27.078125 19.820312 29.898438 23.300781 29.898438 L 48.699219 29.898438 C 52.179688 29.898438 55 27.078125 55 23.601562 L 55 19.199219 C 55 8.691406 46.507812 0.15625 36 0.101562 Z M 36 0.101562 "/>
<path style=" stroke:none;fill-rule:nonzero;fill:rgb(99.215686%,73.72549%,41.176471%);fill-opacity:1;" d="M 55 23.601562 L 55 19.199219 C 55 8.691406 46.507812 0.15625 36 0.101562 L 36 29.898438 L 48.699219 29.898438 C 52.179688 29.898438 55 27.078125 55 23.601562 Z M 55 23.601562 "/>
<path style=" stroke:none;fill-rule:nonzero;fill:rgb(100%,85.098039%,60.784314%);fill-opacity:1;" d="M 13 37.398438 C 12.511719 37.113281 11.925781 37.039062 11.382812 37.1875 C 10.835938 37.339844 10.375 37.703125 10.101562 38.199219 L 4.5 47.800781 C 4.308594 48.136719 4.207031 48.515625 4.199219 48.898438 L 4.199219 57.300781 L 8.398438 57.300781 L 8.398438 49.398438 L 13.800781 40.199219 C 14.328125 39.203125 13.976562 37.96875 13 37.398438 Z M 13 37.398438 "/>
<path style=" stroke:none;fill-rule:nonzero;fill:rgb(16.470588%,25.098039%,30.980392%);fill-opacity:1;" d="M 21.199219 36.199219 C 21.199219 39.679688 18.378906 42.5 14.898438 42.5 C 11.421875 42.5 8.601562 39.679688 8.601562 36.199219 C 8.601562 32.71875 11.421875 29.898438 14.898438 29.898438 C 18.378906 29.898438 21.199219 32.71875 21.199219 36.199219 Z M 21.199219 36.199219 "/>
<path style=" stroke:none;fill-rule:nonzero;fill:rgb(97.647059%,63.921569%,27.843137%);fill-opacity:1;" d="M 7.800781 66 C 7.011719 65.15625 7.011719 63.84375 7.800781 63 C 8.574219 62.1875 8.574219 60.910156 7.800781 60.101562 C 7.421875 59.667969 6.875 59.421875 6.300781 59.421875 C 5.726562 59.421875 5.179688 59.667969 4.800781 60.101562 C 4.027344 60.910156 4.027344 62.1875 4.800781 63 C 5.230469 63.378906 5.476562 63.925781 5.476562 64.5 C 5.476562 65.074219 5.230469 65.621094 4.800781 66 C 3.988281 66.773438 2.710938 66.773438 1.898438 66 C 0.695312 64.832031 0.015625 63.226562 0.015625 61.550781 C 0.015625 59.875 0.695312 58.269531 1.898438 57.101562 C 3.066406 55.894531 4.671875 55.21875 6.351562 55.21875 C 8.027344 55.21875 9.632812 55.894531 10.800781 57.101562 C 12.003906 58.269531 12.683594 59.875 12.683594 61.550781 C 12.683594 63.226562 12.003906 64.832031 10.800781 66 C 9.953125 66.789062 8.644531 66.789062 7.800781 66 Z M 7.800781 66 "/>
<path style=" stroke:none;fill-rule:nonzero;fill:rgb(100%,85.098039%,60.784314%);fill-opacity:1;" d="M 67.5 47.800781 L 61.898438 38.199219 C 61.625 37.703125 61.164062 37.339844 60.617188 37.1875 C 60.074219 37.039062 59.488281 37.113281 59 37.398438 C 58.023438 37.96875 57.671875 39.203125 58.199219 40.199219 L 63.601562 49.398438 L 63.601562 57.300781 L 67.800781 57.300781 L 67.800781 48.898438 C 67.792969 48.515625 67.691406 48.136719 67.5 47.800781 Z M 67.5 47.800781 "/>
<path style=" stroke:none;fill-rule:nonzero;fill:rgb(16.470588%,25.098039%,30.980392%);fill-opacity:1;" d="M 63.398438 36.199219 C 63.398438 39.679688 60.578125 42.5 57.101562 42.5 C 53.621094 42.5 50.800781 39.679688 50.800781 36.199219 C 50.800781 32.71875 53.621094 29.898438 57.101562 29.898438 C 60.578125 29.898438 63.398438 32.71875 63.398438 36.199219 Z M 63.398438 36.199219 "/>
<path style=" stroke:none;fill-rule:nonzero;fill:rgb(95.686275%,46.27451%,12.941176%);fill-opacity:1;" d="M 67.199219 66 C 66.769531 65.621094 66.523438 65.074219 66.523438 64.5 C 66.523438 63.925781 66.769531 63.378906 67.199219 63 C 67.972656 62.1875 67.972656 60.910156 67.199219 60.101562 C 66.820312 59.667969 66.273438 59.421875 65.699219 59.421875 C 65.125 59.421875 64.578125 59.667969 64.199219 60.101562 C 63.425781 60.910156 63.425781 62.1875 64.199219 63 C 65.027344 63.828125 65.027344 65.171875 64.199219 66 C 63.371094 66.828125 62.027344 66.828125 61.199219 66 C 58.734375 63.542969 58.734375 59.550781 61.195312 57.085938 C 63.65625 54.625 67.644531 54.625 70.105469 57.085938 C 72.566406 59.550781 72.5625 63.542969 70.101562 66 C 69.289062 66.773438 68.011719 66.773438 67.199219 66 Z M 67.199219 66 "/>
<path style=" stroke:none;fill-rule:nonzero;fill:rgb(16.470588%,25.098039%,30.980392%);fill-opacity:1;" d="M 42 52 C 41.617188 51.375 40.933594 50.996094 40.199219 51 L 35.199219 51 L 37.898438 45.601562 C 38.140625 45.097656 38.167969 44.519531 37.980469 43.992188 C 37.792969 43.46875 37.40625 43.039062 36.898438 42.800781 C 36.628906 42.640625 36.3125 42.570312 36 42.601562 C 35.210938 42.578125 34.476562 43.003906 34.101562 43.699219 L 29.898438 52.199219 C 29.574219 52.835938 29.609375 53.597656 30 54.199219 C 30.382812 54.824219 31.066406 55.203125 31.800781 55.199219 L 36.800781 55.199219 L 36 56.800781 L 34.101562 60.601562 C 33.859375 61.105469 33.832031 61.683594 34.019531 62.207031 C 34.207031 62.734375 34.59375 63.160156 35.101562 63.398438 C 35.371094 63.558594 35.6875 63.628906 36 63.601562 C 36.789062 63.621094 37.523438 63.195312 37.898438 62.5 L 42.101562 54 C 42.425781 53.363281 42.390625 52.601562 42 52 Z M 42 52 "/>
<path style=" stroke:none;fill-rule:nonzero;fill:rgb(16.470588%,25.098039%,30.980392%);fill-opacity:1;" d="M 42.300781 15 C 42.300781 18.480469 39.480469 21.300781 36 21.300781 C 32.519531 21.300781 29.699219 18.480469 29.699219 15 C 29.699219 11.519531 32.519531 8.699219 36 8.699219 C 39.480469 8.699219 42.300781 11.519531 42.300781 15 Z M 42.300781 15 "/>
</g>
</svg>
