<?xml version="1.0" encoding="UTF-8"?>
<svg xmlns="http://www.w3.org/2000/svg" xmlns:xlink="http://www.w3.org/1999/xlink" width="72px" height="72px" viewBox="0 0 72 72" version="1.1">
<defs>
<filter id="alpha" filterUnits="objectBoundingBox" x="0%" y="0%" width="100%" height="100%">
  <feColorMatrix type="matrix" in="SourceGraphic" values="0 0 0 0 1 0 0 0 0 1 0 0 0 0 1 0 0 0 1 0"/>
</filter>
<mask id="mask0">
  <g filter="url(#alpha)">
<rect x="0" y="0" width="72" height="72" style="fill:rgb(0%,0%,0%);fill-opacity:0.2;stroke:none;"/>
  </g>
</mask>
<clipPath id="clip1">
  <rect x="0" y="0" width="72" height="72"/>
</clipPath>
<g id="surface5" clip-path="url(#clip1)">
<path style=" stroke:none;fill-rule:nonzero;fill:rgb(16.470588%,25.098039%,30.980392%);fill-opacity:1;" d="M 55.898438 8.699219 L 48.398438 8.699219 C 46.609375 8.710938 44.863281 9.269531 43.398438 10.300781 C 44.214844 10.070312 45.054688 9.9375 45.898438 9.898438 L 53.398438 9.898438 C 55.707031 9.882812 57.917969 10.824219 59.5 12.5 C 61.175781 14.082031 62.117188 16.292969 62.101562 18.601562 L 62.101562 19.898438 C 62.105469 21.511719 61.691406 23.097656 60.898438 24.5 C 60.175781 25.90625 59.109375 27.109375 57.800781 28 C 59.789062 27.382812 61.515625 26.113281 62.699219 24.398438 C 63.917969 22.707031 64.578125 20.683594 64.601562 18.601562 L 64.601562 17.398438 C 64.554688 15.078125 63.625 12.859375 62 11.199219 C 60.378906 9.589844 58.183594 8.691406 55.898438 8.699219 Z M 55.898438 8.699219 "/>
</g>
</defs>
<g id="surface1">
<path style=" stroke:none;fill-rule:nonzero;fill:rgb(95.686275%,46.27451%,12.941176%);fill-opacity:1;" d="M 14.199219 41.199219 L 50.199219 41.199219 C 51.855469 41.199219 53.199219 42.542969 53.199219 44.199219 L 53.199219 64.449219 C 53.199219 66.105469 51.855469 67.449219 50.199219 67.449219 L 14.199219 67.449219 C 12.542969 67.449219 11.199219 66.105469 11.199219 64.449219 L 11.199219 44.199219 C 11.199219 42.542969 12.542969 41.199219 14.199219 41.199219 Z M 14.199219 41.199219 "/>
<path style=" stroke:none;fill-rule:nonzero;fill:rgb(100%,90.980392%,83.921569%);fill-opacity:1;" d="M 5 0 L 67 0 C 69.761719 0 72 2.238281 72 5 L 72 42.171875 C 72 44.929688 69.761719 47.171875 67 47.171875 L 5 47.171875 C 2.238281 47.171875 0 44.929688 0 42.171875 L 0 5 C 0 2.238281 2.238281 0 5 0 Z M 5 0 "/>
<path style=" stroke:none;fill-rule:nonzero;fill:rgb(19.607843%,34.509804%,45.098039%);fill-opacity:1;" d="M 65.800781 55.898438 L 67 55.898438 C 67.683594 55.890625 68.335938 55.601562 68.800781 55.101562 C 69.269531 54.664062 69.527344 54.042969 69.5 53.398438 L 69.5 42.199219 C 69.503906 41.074219 69.300781 39.953125 68.898438 38.898438 C 68.445312 37.855469 67.800781 36.90625 67 36.101562 C 66.199219 35.289062 65.25 34.644531 64.199219 34.199219 C 63.132812 33.71875 61.972656 33.480469 60.800781 33.5 L 44.699219 33.5 C 43.84375 33.511719 42.996094 33.683594 42.199219 34 C 41.46875 34.410156 40.796875 34.914062 40.199219 35.5 C 39.890625 35.679688 39.617188 35.914062 39.398438 36.199219 L 34.101562 42.699219 L 32.199219 35.101562 C 31.703125 33.507812 30.265625 32.390625 28.601562 32.300781 L 27.601562 32.300781 C 26.65625 32.527344 25.859375 33.144531 25.398438 34 C 24.886719 34.835938 24.707031 35.835938 24.898438 36.800781 L 28.699219 51.699219 C 28.824219 52.394531 29.175781 53.027344 29.699219 53.5 C 30.207031 53.957031 30.828125 54.265625 31.5 54.398438 L 32.300781 54.398438 C 32.847656 54.398438 33.390625 54.296875 33.898438 54.101562 C 34.398438 53.820312 34.839844 53.445312 35.199219 53 L 38.5 48.898438 L 38.5 61.898438 L 65.800781 61.898438 L 65.800781 48.398438 "/>
<path style=" stroke:none;fill-rule:nonzero;fill:rgb(100%,100%,100%);fill-opacity:1;" d="M 52.101562 50.898438 C 51.476562 50.816406 50.984375 50.324219 50.898438 49.699219 L 50.898438 41 C 50.867188 40.652344 51.019531 40.308594 51.300781 40.101562 C 51.503906 39.867188 51.792969 39.726562 52.101562 39.699219 C 52.796875 39.75 53.351562 40.304688 53.398438 41 L 53.398438 49.699219 C 53.375 50.007812 53.230469 50.292969 53 50.5 C 52.789062 50.78125 52.449219 50.933594 52.101562 50.898438 Z M 52.101562 50.898438 "/>
<path style=" stroke:none;fill-rule:nonzero;fill:rgb(98.039216%,71.372549%,64.313725%);fill-opacity:1;" d="M 48.398438 32.300781 L 55.898438 32.300781 L 55.898438 37.199219 C 55.898438 39.296875 54.199219 41 52.101562 41 C 51.121094 41.003906 50.179688 40.605469 49.5 39.898438 C 48.796875 39.175781 48.402344 38.207031 48.398438 37.199219 Z M 48.398438 32.300781 "/>
<path style=" stroke:none;fill-rule:nonzero;fill:rgb(100%,100%,100%);fill-opacity:1;" d="M 48.398438 32.300781 L 55.898438 32.300781 L 55.898438 37.199219 C 55.898438 39.296875 54.199219 41 52.101562 41 C 51.121094 41.003906 50.179688 40.605469 49.5 39.898438 C 48.796875 39.175781 48.402344 38.207031 48.398438 37.199219 Z M 48.398438 32.300781 "/>
<path style=" stroke:none;fill-rule:nonzero;fill:rgb(16.470588%,25.098039%,30.980392%);fill-opacity:1;" d="M 48.398438 8.699219 L 55.898438 8.699219 C 58.183594 8.691406 60.378906 9.589844 62 11.199219 C 63.625 12.859375 64.554688 15.078125 64.601562 17.398438 L 64.601562 18.601562 C 64.609375 21.246094 63.523438 23.78125 61.601562 25.601562 C 59.78125 27.523438 57.246094 28.609375 54.601562 28.601562 L 49.699219 28.601562 C 44.199219 28.546875 39.753906 24.101562 39.699219 18.601562 L 39.699219 17.398438 C 39.699219 12.59375 43.59375 8.699219 48.398438 8.699219 Z M 48.398438 8.699219 "/>
<use xlink:href="#surface5" mask="url(#mask0)"/>
<path style=" stroke:none;fill-rule:nonzero;fill:rgb(100%,90.980392%,83.921569%);fill-opacity:1;" d="M 52.101562 13.699219 C 52.121094 15.644531 51.363281 17.515625 50 18.898438 C 48.59375 20.308594 46.6875 21.097656 44.699219 21.101562 L 42.199219 21.101562 L 42.199219 26.101562 C 42.242188 28.71875 43.277344 31.21875 45.101562 33.101562 C 49 36.976562 55.300781 36.976562 59.199219 33.101562 C 61.019531 31.21875 62.058594 28.71875 62.101562 26.101562 L 62.101562 21.101562 L 59.601562 21.101562 C 55.496094 21.101562 52.15625 17.804688 52.101562 13.699219 Z M 52.101562 13.699219 "/>
<path style=" stroke:none;fill-rule:nonzero;fill:rgb(100%,100%,100%);fill-opacity:1;" d="M 52.101562 32.300781 C 50.972656 32.296875 49.863281 31.984375 48.898438 31.398438 C 47.910156 30.800781 47.113281 29.933594 46.601562 28.898438 C 46.519531 28.746094 46.484375 28.574219 46.5 28.398438 L 46.5 27.898438 L 46.800781 27.5 L 47.101562 27.199219 L 48.101562 27.199219 L 48.5 27.5 L 48.800781 27.800781 C 49.101562 28.433594 49.589844 28.957031 50.199219 29.300781 C 50.75 29.703125 51.417969 29.914062 52.101562 29.898438 C 52.765625 29.890625 53.417969 29.71875 54 29.398438 C 54.582031 29.066406 55.066406 28.582031 55.398438 28 L 55.699219 27.601562 L 56.101562 27.398438 L 56.601562 27.398438 L 57.101562 27.601562 L 57.5 27.898438 C 57.601562 28 57.601562 28.199219 57.699219 28.300781 L 57.699219 28.800781 C 57.714844 28.972656 57.679688 29.144531 57.601562 29.300781 C 57.019531 30.230469 56.230469 31.019531 55.300781 31.601562 C 54.316406 32.117188 53.210938 32.359375 52.101562 32.300781 Z M 52.101562 32.300781 "/>
<path style=" stroke:none;fill-rule:nonzero;fill:rgb(99.215686%,81.960784%,23.529412%);fill-opacity:1;" d="M 38.5 62.101562 L 65.800781 62.101562 L 65.800781 72.03125 L 38.5 72.03125 Z M 38.5 62.101562 "/>
<path style=" stroke:none;fill-rule:nonzero;fill:rgb(100%,100%,100%);fill-opacity:1;" d="M 37.199219 8.699219 L 14.898438 8.699219 C 14.5625 8.699219 14.242188 8.5625 14.015625 8.3125 C 13.785156 8.066406 13.671875 7.734375 13.699219 7.398438 C 13.6875 7.105469 13.796875 6.816406 14 6.601562 C 14.230469 6.34375 14.554688 6.199219 14.898438 6.199219 L 37.199219 6.199219 C 37.550781 6.167969 37.890625 6.316406 38.101562 6.601562 C 38.367188 6.777344 38.519531 7.082031 38.5 7.398438 C 38.535156 7.75 38.382812 8.089844 38.101562 8.300781 C 37.890625 8.582031 37.550781 8.734375 37.199219 8.699219 Z M 37.199219 8.699219 "/>
<path style=" stroke:none;fill-rule:nonzero;fill:rgb(100%,100%,100%);fill-opacity:1;" d="M 9.898438 8.699219 L 6.199219 8.699219 C 5.863281 8.699219 5.542969 8.5625 5.3125 8.3125 C 5.085938 8.066406 4.972656 7.734375 5 7.398438 C 4.988281 7.105469 5.097656 6.816406 5.300781 6.601562 C 5.527344 6.34375 5.855469 6.199219 6.199219 6.199219 L 9.898438 6.199219 C 10.242188 6.199219 10.570312 6.34375 10.800781 6.601562 C 11.003906 6.816406 11.113281 7.105469 11.101562 7.398438 C 11.128906 7.734375 11.015625 8.066406 10.785156 8.3125 C 10.558594 8.5625 10.238281 8.699219 9.898438 8.699219 Z M 9.898438 8.699219 "/>
<path style=" stroke:none;fill-rule:nonzero;fill:rgb(100%,100%,100%);fill-opacity:1;" d="M 37.199219 14.898438 L 6.199219 14.898438 C 5.855469 14.902344 5.527344 14.757812 5.300781 14.5 C 5.097656 14.285156 4.988281 13.996094 5 13.699219 C 4.972656 13.363281 5.085938 13.035156 5.3125 12.785156 C 5.542969 12.539062 5.863281 12.398438 6.199219 12.398438 L 37.199219 12.398438 C 37.550781 12.367188 37.890625 12.519531 38.101562 12.800781 C 38.382812 13.007812 38.535156 13.351562 38.5 13.699219 C 38.519531 14.019531 38.367188 14.324219 38.101562 14.5 C 37.890625 14.78125 37.550781 14.933594 37.199219 14.898438 Z M 37.199219 14.898438 "/>
<path style=" stroke:none;fill-rule:nonzero;fill:rgb(100%,100%,100%);fill-opacity:1;" d="M 33.5 21.101562 L 29.800781 21.101562 C 29.453125 21.117188 29.121094 20.96875 28.898438 20.699219 C 28.695312 20.484375 28.589844 20.195312 28.601562 19.898438 C 28.570312 19.570312 28.679688 19.246094 28.898438 19 C 29.144531 18.769531 29.464844 18.628906 29.800781 18.601562 L 33.5 18.601562 C 33.835938 18.628906 34.152344 18.769531 34.398438 19 C 34.644531 19.234375 34.789062 19.558594 34.800781 19.898438 C 34.773438 20.207031 34.632812 20.496094 34.398438 20.699219 C 34.179688 20.96875 33.847656 21.117188 33.5 21.101562 Z M 33.5 21.101562 "/>
<path style=" stroke:none;fill-rule:nonzero;fill:rgb(100%,100%,100%);fill-opacity:1;" d="M 17.398438 21.101562 L 6.199219 21.101562 C 5.855469 21.101562 5.527344 20.957031 5.300781 20.699219 C 5.097656 20.484375 4.988281 20.195312 5 19.898438 C 4.972656 19.570312 5.082031 19.246094 5.300781 19 C 5.558594 18.785156 5.867188 18.648438 6.199219 18.601562 L 17.398438 18.601562 C 17.730469 18.648438 18.042969 18.785156 18.300781 19 C 18.519531 19.246094 18.628906 19.570312 18.601562 19.898438 C 18.613281 20.195312 18.503906 20.484375 18.300781 20.699219 C 18.070312 20.957031 17.742188 21.101562 17.398438 21.101562 Z M 17.398438 21.101562 "/>
<path style=" stroke:none;fill-rule:nonzero;fill:rgb(100%,100%,100%);fill-opacity:1;" d="M 32.300781 27.300781 L 28.601562 27.300781 C 28.25 27.332031 27.910156 27.183594 27.699219 26.898438 C 27.433594 26.722656 27.28125 26.417969 27.300781 26.101562 C 27.265625 25.75 27.417969 25.410156 27.699219 25.199219 C 27.9375 24.953125 28.257812 24.808594 28.601562 24.800781 L 32.300781 24.800781 C 32.632812 24.847656 32.941406 24.984375 33.199219 25.199219 C 33.417969 25.445312 33.527344 25.773438 33.5 26.101562 C 33.511719 26.394531 33.402344 26.683594 33.199219 26.898438 C 32.972656 27.15625 32.644531 27.300781 32.300781 27.300781 Z M 32.300781 27.300781 "/>
<path style=" stroke:none;fill-rule:nonzero;fill:rgb(100%,100%,100%);fill-opacity:1;" d="M 21.101562 27.300781 L 14.898438 27.300781 C 14.554688 27.300781 14.230469 27.15625 14 26.898438 C 13.796875 26.683594 13.6875 26.394531 13.699219 26.101562 C 13.671875 25.773438 13.78125 25.445312 14 25.199219 C 14.257812 24.984375 14.570312 24.847656 14.898438 24.800781 L 21.101562 24.800781 C 21.429688 24.847656 21.742188 24.984375 22 25.199219 C 22.21875 25.445312 22.328125 25.773438 22.300781 26.101562 C 22.3125 26.394531 22.203125 26.683594 22 26.898438 C 21.769531 27.15625 21.445312 27.300781 21.101562 27.300781 Z M 21.101562 27.300781 "/>
<path style=" stroke:none;fill-rule:nonzero;fill:rgb(100%,100%,100%);fill-opacity:1;" d="M 9.898438 27.300781 L 7.398438 27.300781 C 7.082031 27.316406 6.777344 27.164062 6.601562 26.898438 C 6.335938 26.722656 6.183594 26.417969 6.199219 26.101562 C 6.167969 25.75 6.316406 25.410156 6.601562 25.199219 C 6.804688 24.96875 7.089844 24.824219 7.398438 24.800781 L 9.898438 24.800781 C 10.597656 24.847656 11.152344 25.402344 11.199219 26.101562 C 11.175781 26.410156 11.03125 26.695312 10.800781 26.898438 C 10.589844 27.183594 10.25 27.332031 9.898438 27.300781 Z M 9.898438 27.300781 "/>
<path style=" stroke:none;fill-rule:nonzero;fill:rgb(100%,100%,100%);fill-opacity:1;" d="M 22.300781 19.898438 C 23.953125 19.855469 25.550781 20.507812 26.699219 21.699219 C 27.917969 22.839844 28.605469 24.433594 28.601562 26.101562 L 28.601562 32.300781 L 27.300781 32.300781 C 25.664062 32.257812 24.097656 31.617188 22.898438 30.5 C 21.78125 29.300781 21.140625 27.738281 21.101562 26.101562 L 21.101562 21.101562 C 21.097656 20.757812 21.242188 20.429688 21.5 20.199219 C 21.714844 19.996094 22.003906 19.886719 22.300781 19.898438 Z M 22.300781 19.898438 "/>
<path style=" stroke:none;fill-rule:nonzero;fill:rgb(16.470588%,25.098039%,30.980392%);fill-opacity:1;" d="M 55.898438 21.101562 C 55.550781 21.066406 55.210938 21.21875 55 21.5 C 54.769531 21.707031 54.625 21.992188 54.601562 22.300781 L 54.601562 23.601562 C 54.648438 23.929688 54.785156 24.242188 55 24.5 C 55.246094 24.71875 55.570312 24.828125 55.898438 24.800781 C 56.195312 24.8125 56.484375 24.703125 56.699219 24.5 C 56.957031 24.269531 57.101562 23.945312 57.101562 23.601562 L 57.101562 22.300781 C 57.117188 21.980469 56.964844 21.675781 56.699219 21.5 C 56.523438 21.234375 56.21875 21.082031 55.898438 21.101562 Z M 55.898438 21.101562 "/>
<path style=" stroke:none;fill-rule:nonzero;fill:rgb(16.470588%,25.098039%,30.980392%);fill-opacity:1;" d="M 48.398438 21.101562 C 48.054688 21.097656 47.730469 21.242188 47.5 21.5 C 47.296875 21.714844 47.1875 22.003906 47.199219 22.300781 L 47.199219 23.601562 C 47.207031 23.921875 47.3125 24.238281 47.5 24.5 C 47.761719 24.6875 48.078125 24.792969 48.398438 24.800781 C 48.726562 24.808594 49.042969 24.703125 49.300781 24.5 C 49.515625 24.242188 49.652344 23.929688 49.699219 23.601562 L 49.699219 22.300781 C 49.675781 21.992188 49.53125 21.707031 49.300781 21.5 C 49.078125 21.230469 48.746094 21.085938 48.398438 21.101562 Z M 48.398438 21.101562 "/>
</g>
</svg>
