<?xml version="1.0" encoding="UTF-8"?>
<svg xmlns="http://www.w3.org/2000/svg" xmlns:xlink="http://www.w3.org/1999/xlink" width="72px" height="72px" viewBox="0 0 72 72" version="1.1">
<g id="surface1">
<path style=" stroke:none;fill-rule:nonzero;fill:rgb(100%,90.980392%,83.921569%);fill-opacity:1;" d="M 36 72 C 31.007812 72.003906 26.699219 68.492188 25.699219 63.601562 L 2.101562 63.601562 C 0.960938 63.550781 0.0507812 62.636719 0 61.5 L 0 24.601562 C 0 23.441406 0.941406 22.5 2.101562 22.5 L 69.898438 22.5 C 71.058594 22.5 72 23.441406 72 24.601562 L 72 61.5 C 72 62.660156 71.058594 63.601562 69.898438 63.601562 L 46.300781 63.601562 C 45.335938 68.515625 41.007812 72.046875 36 72 Z M 36 72 "/>
<path style=" stroke:none;fill-rule:nonzero;fill:rgb(100%,90.980392%,83.921569%);fill-opacity:1;" d="M 69.898438 22.5 L 36 22.5 L 36 72 C 41.007812 72.046875 45.335938 68.515625 46.300781 63.601562 L 69.898438 63.601562 C 71.058594 63.601562 72 62.660156 72 61.5 L 72 24.601562 C 72 23.441406 71.058594 22.5 69.898438 22.5 Z M 69.898438 22.5 "/>
<path style=" stroke:none;fill-rule:evenodd;fill:rgb(95.686275%,46.27451%,12.941176%);fill-opacity:1;" d="M 44.398438 16.898438 L 61.5 16.898438 C 62.660156 16.898438 63.601562 17.839844 63.601562 19 L 63.601562 53 C 63.601562 54.160156 62.660156 55.101562 61.5 55.101562 L 44.398438 55.101562 C 40.90625 55.15625 38.097656 58.003906 38.101562 61.5 C 38.101562 62.660156 37.160156 63.601562 36 63.601562 L 36 63.800781 L 27.800781 63.800781 L 27.800781 55.101562 L 10.601562 55.101562 C 10.027344 55.128906 9.464844 54.917969 9.050781 54.519531 C 8.632812 54.125 8.398438 53.574219 8.398438 53 L 8.398438 19 C 8.398438 18.425781 8.632812 17.875 9.050781 17.480469 C 9.464844 17.082031 10.027344 16.871094 10.601562 16.898438 L 27.601562 16.898438 C 30.910156 16.882812 34.027344 18.445312 36 21.101562 C 37.972656 18.445312 41.089844 16.882812 44.398438 16.898438 Z M 44.398438 16.898438 "/>
<path style=" stroke:none;fill-rule:evenodd;fill:rgb(98.823529%,70.196078%,8.235294%);fill-opacity:1;" d="M 44.398438 16.898438 L 61.5 16.898438 C 62.660156 16.898438 63.601562 17.839844 63.601562 19 L 63.601562 53 C 63.601562 54.160156 62.660156 55.101562 61.5 55.101562 L 44.300781 55.101562 L 44.300781 63.800781 L 36 63.800781 L 36 21.101562 C 37.972656 18.445312 41.089844 16.882812 44.398438 16.898438 Z M 44.398438 16.898438 "/>
<path style=" stroke:none;fill-rule:nonzero;fill:rgb(100%,100%,100%);fill-opacity:1;" d="M 26.398438 30 L 17.898438 30 C 17.136719 30.179688 16.34375 29.871094 15.898438 29.222656 C 15.457031 28.578125 15.457031 27.722656 15.898438 27.078125 C 16.34375 26.429688 17.136719 26.121094 17.898438 26.300781 L 26.398438 26.300781 C 27.164062 26.121094 27.957031 26.429688 28.402344 27.078125 C 28.84375 27.722656 28.84375 28.578125 28.402344 29.222656 C 27.957031 29.871094 27.164062 30.179688 26.398438 30 Z M 26.398438 30 "/>
<path style=" stroke:none;fill-rule:nonzero;fill:rgb(100%,100%,100%);fill-opacity:1;" d="M 26.398438 38.300781 L 17.898438 38.300781 C 17.371094 38.328125 16.851562 38.140625 16.457031 37.785156 C 16.0625 37.429688 15.824219 36.929688 15.800781 36.398438 C 15.824219 35.871094 16.0625 35.371094 16.457031 35.015625 C 16.851562 34.65625 17.371094 34.472656 17.898438 34.5 L 26.398438 34.5 C 26.929688 34.472656 27.449219 34.65625 27.84375 35.015625 C 28.238281 35.371094 28.472656 35.871094 28.5 36.398438 C 28.472656 36.929688 28.238281 37.429688 27.84375 37.785156 C 27.449219 38.140625 26.929688 38.328125 26.398438 38.300781 Z M 26.398438 38.300781 "/>
<path style=" stroke:none;fill-rule:nonzero;fill:rgb(100%,100%,100%);fill-opacity:1;" d="M 26.398438 46.5 L 17.898438 46.5 C 17.136719 46.679688 16.34375 46.371094 15.898438 45.722656 C 15.457031 45.078125 15.457031 44.222656 15.898438 43.578125 C 16.34375 42.929688 17.136719 42.621094 17.898438 42.800781 L 26.398438 42.800781 C 27.164062 42.621094 27.957031 42.929688 28.402344 43.578125 C 28.84375 44.222656 28.84375 45.078125 28.402344 45.722656 C 27.957031 46.371094 27.164062 46.679688 26.398438 46.5 Z M 26.398438 46.5 "/>
<path style=" stroke:none;fill-rule:nonzero;fill:rgb(100%,100%,100%);fill-opacity:1;" d="M 54.199219 30 L 45.601562 30 C 44.835938 30.179688 44.042969 29.871094 43.597656 29.222656 C 43.15625 28.578125 43.15625 27.722656 43.597656 27.078125 C 44.042969 26.429688 44.835938 26.121094 45.601562 26.300781 L 54.199219 26.300781 C 55.269531 26.242188 56.195312 27.035156 56.300781 28.101562 C 56.273438 28.628906 56.039062 29.128906 55.644531 29.484375 C 55.25 29.84375 54.730469 30.027344 54.199219 30 Z M 54.199219 30 "/>
<path style=" stroke:none;fill-rule:nonzero;fill:rgb(100%,100%,100%);fill-opacity:1;" d="M 54.199219 38.300781 L 45.601562 38.300781 C 45.070312 38.328125 44.550781 38.140625 44.15625 37.785156 C 43.761719 37.429688 43.527344 36.929688 43.5 36.398438 C 43.527344 35.871094 43.761719 35.371094 44.15625 35.015625 C 44.550781 34.65625 45.070312 34.472656 45.601562 34.5 L 54.199219 34.5 C 54.730469 34.472656 55.25 34.65625 55.644531 35.015625 C 56.039062 35.371094 56.273438 35.871094 56.300781 36.398438 C 56.195312 37.480469 55.285156 38.304688 54.199219 38.300781 Z M 54.199219 38.300781 "/>
<path style=" stroke:none;fill-rule:nonzero;fill:rgb(100%,100%,100%);fill-opacity:1;" d="M 54.199219 46.5 L 45.601562 46.5 C 44.835938 46.679688 44.042969 46.371094 43.597656 45.722656 C 43.15625 45.078125 43.15625 44.222656 43.597656 43.578125 C 44.042969 42.929688 44.835938 42.621094 45.601562 42.800781 L 54.199219 42.800781 C 54.964844 42.621094 55.757812 42.929688 56.199219 43.578125 C 56.644531 44.222656 56.644531 45.078125 56.199219 45.722656 C 55.757812 46.371094 54.964844 46.679688 54.199219 46.5 Z M 54.199219 46.5 "/>
<path style=" stroke:none;fill-rule:nonzero;fill:rgb(100%,90.980392%,83.921569%);fill-opacity:1;" d="M 52.898438 0 L 53.300781 0 L 66 2.898438 C 66.96875 3.054688 67.664062 3.921875 67.601562 4.898438 C 67.628906 5.890625 66.960938 6.765625 66 7 L 53.300781 9.800781 L 52.898438 9.800781 C 51.738281 9.800781 50.800781 8.859375 50.800781 7.699219 L 50.800781 2.101562 C 50.800781 0.941406 51.738281 0 52.898438 0 Z M 52.898438 0 "/>
<path style=" stroke:none;fill-rule:nonzero;fill:rgb(100%,90.980392%,83.921569%);fill-opacity:1;" d="M 66 7 L 53.300781 9.800781 L 52.898438 9.800781 C 51.738281 9.800781 50.800781 8.859375 50.800781 7.699219 L 50.800781 4.898438 L 67.601562 4.898438 C 67.628906 5.890625 66.960938 6.765625 66 7 Z M 66 7 "/>
<path style=" stroke:none;fill-rule:nonzero;fill:rgb(95.686275%,46.27451%,12.941176%);fill-opacity:1;" d="M 6.5 0 L 15 0 C 16.160156 0 17.101562 0.941406 17.101562 2.101562 L 17.101562 7.738281 C 17.101562 8.898438 16.160156 9.839844 15 9.839844 L 6.5 9.839844 C 5.339844 9.839844 4.398438 8.898438 4.398438 7.738281 L 4.398438 2.101562 C 4.398438 0.941406 5.339844 0 6.5 0 Z M 6.5 0 "/>
<path style=" stroke:none;fill-rule:nonzero;fill:rgb(100%,90.980392%,83.921569%);fill-opacity:1;" d="M 14.898438 9.800781 L 14.898438 0 L 21.199219 0 C 21.773438 -0.0273438 22.335938 0.183594 22.75 0.578125 C 23.164062 0.976562 23.402344 1.523438 23.398438 2.101562 L 23.398438 7.699219 C 23.402344 8.273438 23.164062 8.824219 22.75 9.222656 C 22.335938 9.617188 21.773438 9.828125 21.199219 9.800781 Z M 14.898438 9.800781 "/>
<path style=" stroke:none;fill-rule:nonzero;fill:rgb(19.607843%,34.509804%,45.098039%);fill-opacity:1;" d="M 21.199219 0 L 52.800781 0 L 52.800781 9.839844 L 21.199219 9.839844 Z M 21.199219 0 "/>
<path style=" stroke:none;fill-rule:nonzero;fill:rgb(100%,90.980392%,83.921569%);fill-opacity:1;" d="M 23.300781 63 L 36.101562 63 L 36.101562 72 L 23.300781 72 Z M 23.300781 63 "/>
<path style=" stroke:none;fill-rule:nonzero;fill:rgb(100%,90.980392%,83.921569%);fill-opacity:1;" d="M 36 63 L 48.800781 63 L 48.800781 72 L 36 72 Z M 36 63 "/>
<path style=" stroke:none;fill-rule:nonzero;fill:rgb(100%,100%,100%);fill-opacity:1;" d="M 43.5 26.300781 L 56.300781 26.300781 L 56.300781 30.050781 L 43.5 30.050781 Z M 43.5 26.300781 "/>
<path style=" stroke:none;fill-rule:nonzero;fill:rgb(100%,100%,100%);fill-opacity:1;" d="M 43.5 34.5 L 56.300781 34.5 L 56.300781 38.25 L 43.5 38.25 Z M 43.5 34.5 "/>
<path style=" stroke:none;fill-rule:nonzero;fill:rgb(100%,100%,100%);fill-opacity:1;" d="M 15.800781 34.5 L 28.601562 34.5 L 28.601562 38.25 L 15.800781 38.25 Z M 15.800781 34.5 "/>
<path style=" stroke:none;fill-rule:nonzero;fill:rgb(100%,100%,100%);fill-opacity:1;" d="M 15.800781 26.300781 L 28.601562 26.300781 L 28.601562 30.050781 L 15.800781 30.050781 Z M 15.800781 26.300781 "/>
<path style=" stroke:none;fill-rule:nonzero;fill:rgb(100%,100%,100%);fill-opacity:1;" d="M 43.5 42.800781 L 56.300781 42.800781 L 56.300781 46.550781 L 43.5 46.550781 Z M 43.5 42.800781 "/>
<path style=" stroke:none;fill-rule:nonzero;fill:rgb(100%,100%,100%);fill-opacity:1;" d="M 15.800781 42.800781 L 28.601562 42.800781 L 28.601562 46.550781 L 15.800781 46.550781 Z M 15.800781 42.800781 "/>
</g>
</svg>
