<?xml version="1.0" encoding="UTF-8"?>
<svg xmlns="http://www.w3.org/2000/svg" xmlns:xlink="http://www.w3.org/1999/xlink" width="72px" height="72px" viewBox="0 0 72 72" version="1.1">
<g id="surface1">
<path style=" stroke:none;fill-rule:nonzero;fill:rgb(98.823529%,35.686275%,13.72549%);fill-opacity:1;" d="M 52.699219 44.601562 L 42.199219 44.601562 L 38 53 L 42.199219 61.398438 L 52.699219 61.398438 L 57 53 L 59.5 47.5 Z M 52.699219 44.601562 "/>
<path style=" stroke:none;fill-rule:nonzero;fill:rgb(29.411765%,72.54902%,92.54902%);fill-opacity:1;" d="M 67.5 36.101562 L 61.699219 33.601562 L 57 36.101562 L 52.699219 44.601562 L 57 53 L 67.5 53 L 72 44.601562 Z M 67.5 36.101562 "/>
<path style=" stroke:none;fill-rule:nonzero;fill:rgb(99.215686%,74.901961%,0%);fill-opacity:1;" d="M 67.5 19.300781 L 57 19.300781 L 51 23.398438 L 52.699219 27.699219 L 57 36.101562 L 67.5 36.101562 L 72 27.699219 Z M 67.5 19.300781 "/>
<path style=" stroke:none;fill-rule:nonzero;fill:rgb(100%,85.490196%,17.647059%);fill-opacity:1;" d="M 4.300781 25.601562 L 25.398438 25.601562 L 25.398438 29.820312 L 4.300781 29.820312 Z M 4.300781 25.601562 "/>
<path style=" stroke:none;fill-rule:nonzero;fill:rgb(100%,85.490196%,17.647059%);fill-opacity:1;" d="M 2.199219 34 L 46.5 34 L 46.5 38.21875 L 2.199219 38.21875 Z M 2.199219 34 "/>
<path style=" stroke:none;fill-rule:nonzero;fill:rgb(100%,85.490196%,17.647059%);fill-opacity:1;" d="M 3.5 42.398438 L 26.199219 42.398438 L 26.199219 46.621094 L 3.5 46.621094 Z M 3.5 42.398438 "/>
<path style=" stroke:none;fill-rule:nonzero;fill:rgb(100%,85.490196%,17.647059%);fill-opacity:1;" d="M 3 4.5 L 26.699219 4.5 L 26.699219 8.71875 L 3 8.71875 Z M 3 4.5 "/>
<path style=" stroke:none;fill-rule:nonzero;fill:rgb(99.215686%,74.901961%,0%);fill-opacity:1;" d="M 14.800781 25.601562 L 25.300781 25.601562 L 25.300781 29.820312 L 14.800781 29.820312 Z M 14.800781 25.601562 "/>
<path style=" stroke:none;fill-rule:nonzero;fill:rgb(99.215686%,74.901961%,0%);fill-opacity:1;" d="M 14.800781 42.398438 L 26.101562 42.398438 L 26.101562 46.621094 L 14.800781 46.621094 Z M 14.800781 42.398438 "/>
<path style=" stroke:none;fill-rule:nonzero;fill:rgb(99.215686%,74.901961%,0%);fill-opacity:1;" d="M 14.800781 34 L 46.398438 34 L 46.398438 38.21875 L 14.800781 38.21875 Z M 14.800781 34 "/>
<path style=" stroke:none;fill-rule:nonzero;fill:rgb(100%,85.490196%,17.647059%);fill-opacity:1;" d="M 3.601562 63.5 L 26 63.5 L 26 67.71875 L 3.601562 67.71875 Z M 3.601562 63.5 "/>
<path style=" stroke:none;fill-rule:nonzero;fill:rgb(16.470588%,25.098039%,30.980392%);fill-opacity:1;" d="M 29.601562 37.101562 C 29.574219 46.824219 23.75 55.597656 14.800781 59.398438 L 13 60 C 7.804688 61.691406 4.292969 66.535156 4.300781 72 L 0 72 C -0.0117188 64.769531 4.628906 58.351562 11.5 56.101562 C 12.636719 55.683594 13.738281 55.183594 14.800781 54.601562 C 21.285156 51.175781 25.328125 44.433594 25.300781 37.101562 C 25.300781 27.300781 20.398438 23.199219 14.800781 19.898438 C 9.199219 16.601562 0 12.800781 0 1.800781 L 0 0 L 4.300781 0 L 4.300781 1.800781 C 4.300781 10.398438 11.398438 13.199219 14.800781 14.699219 L 16.199219 15.5 C 24.441406 19.53125 29.648438 27.925781 29.601562 37.101562 Z M 29.601562 37.101562 "/>
<path style=" stroke:none;fill-rule:nonzero;fill:rgb(16.470588%,25.098039%,30.980392%);fill-opacity:1;" d="M 29.601562 37.101562 C 29.574219 46.824219 23.75 55.597656 14.800781 59.398438 L 14.800781 54.601562 C 21.285156 51.175781 25.328125 44.433594 25.300781 37.101562 C 25.300781 27.300781 20.398438 23.199219 14.800781 19.898438 L 14.800781 14.699219 L 16.199219 15.5 C 24.441406 19.53125 29.648438 27.925781 29.601562 37.101562 Z M 29.601562 37.101562 "/>
<path style=" stroke:none;fill-rule:nonzero;fill:rgb(100%,48.235294%,29.019608%);fill-opacity:1;" d="M 4.300781 37.101562 C 4.277344 44.457031 8.316406 51.226562 14.800781 54.699219 C 15.789062 55.234375 16.824219 55.671875 17.898438 56 C 24.867188 58.21875 29.597656 64.6875 29.601562 72 L 25.300781 72 C 25.324219 66.617188 21.898438 61.824219 16.800781 60.101562 L 14.800781 59.300781 C 5.847656 55.554688 0.0117188 46.804688 0 37.101562 C 0 23.601562 9.398438 17.398438 14.800781 14.699219 C 16.03125 14.203125 17.234375 13.636719 18.398438 13 C 22.671875 10.914062 25.355469 6.554688 25.300781 1.800781 L 25.300781 0 L 29.601562 0 L 29.601562 1.5 C 29.601562 12.5 21.800781 15.699219 14.800781 19.898438 C 7.800781 24.101562 4.300781 27.398438 4.300781 37.101562 Z M 4.300781 37.101562 "/>
<path style=" stroke:none;fill-rule:nonzero;fill:rgb(98.823529%,35.686275%,13.72549%);fill-opacity:1;" d="M 42.199219 10.800781 L 52.699219 10.800781 L 57 19.300781 L 52.699219 27.699219 L 42.199219 27.699219 L 38 19.300781 Z M 42.199219 10.800781 "/>
<path style=" stroke:none;fill-rule:nonzero;fill:rgb(99.215686%,74.901961%,0%);fill-opacity:1;" d="M 14.800781 63.5 L 26 63.5 L 26 67.71875 L 14.800781 67.71875 Z M 14.800781 63.5 "/>
<path style=" stroke:none;fill-rule:nonzero;fill:rgb(99.215686%,74.901961%,0%);fill-opacity:1;" d="M 14.800781 4.5 L 26.601562 4.5 L 26.601562 8.71875 L 14.800781 8.71875 Z M 14.800781 4.5 "/>
<path style=" stroke:none;fill-rule:nonzero;fill:rgb(100%,46.666667%,2.745098%);fill-opacity:1;" d="M 29.601562 72 L 25.300781 72 C 25.324219 66.617188 21.898438 61.824219 16.800781 60.101562 L 14.800781 59.300781 L 14.800781 54.699219 C 15.789062 55.234375 16.824219 55.671875 17.898438 56 C 24.867188 58.21875 29.597656 64.6875 29.601562 72 Z M 29.601562 72 "/>
<path style=" stroke:none;fill-rule:nonzero;fill:rgb(100%,46.666667%,2.745098%);fill-opacity:1;" d="M 29.601562 0 L 29.601562 1.5 C 29.601562 12.5 21.800781 15.699219 14.800781 19.898438 L 14.800781 14.699219 C 16.03125 14.203125 17.234375 13.636719 18.398438 13 C 22.671875 10.914062 25.355469 6.554688 25.300781 1.800781 L 25.300781 0 Z M 29.601562 0 "/>
</g>
</svg>
