<?xml version="1.0" encoding="UTF-8"?>
<svg xmlns="http://www.w3.org/2000/svg" xmlns:xlink="http://www.w3.org/1999/xlink" width="72px" height="72px" viewBox="0 0 72 72" version="1.1">
<g id="surface1">
<path style=" stroke:none;fill-rule:nonzero;fill:rgb(100%,77.254902%,20%);fill-opacity:1;" d="M 48.398438 47.199219 L 57.101562 47.199219 L 57.101562 64.578125 L 48.398438 64.578125 Z M 48.398438 47.199219 "/>
<path style=" stroke:none;fill-rule:nonzero;fill:rgb(95.686275%,46.27451%,12.941176%);fill-opacity:1;" d="M 57.101562 28.601562 L 64.601562 32.300781 L 67 28.601562 L 59.601562 23.601562 Z M 57.101562 28.601562 "/>
<path style=" stroke:none;fill-rule:nonzero;fill:rgb(95.686275%,46.27451%,12.941176%);fill-opacity:1;" d="M 54.601562 28.601562 L 59.601562 28.601562 L 59.601562 36.050781 L 54.601562 36.050781 Z M 54.601562 28.601562 "/>
<path style=" stroke:none;fill-rule:nonzero;fill:rgb(95.686275%,46.27451%,12.941176%);fill-opacity:1;" d="M 60.800781 28.601562 L 58.300781 31 L 52.101562 29.800781 L 36 13.699219 L 34.800781 8.699219 L 29.800781 3.699219 L 33.5 0 L 38.5 5 L 43.398438 6.199219 L 59.601562 22.300781 Z M 60.800781 28.601562 "/>
<path style=" stroke:none;fill-rule:nonzero;fill:rgb(100%,77.254902%,20%);fill-opacity:1;" d="M 39.699219 22.300781 L 36 22.300781 C 34.011719 22.300781 32.105469 23.09375 30.699219 24.5 C 29.320312 25.914062 28.5625 27.824219 28.601562 29.800781 L 28.601562 43.398438 L 37.199219 43.398438 L 37.199219 29.800781 L 39.699219 29.800781 Z M 39.699219 22.300781 "/>
<path style=" stroke:none;fill-rule:nonzero;fill:rgb(100%,100%,100%);fill-opacity:1;" d="M 23.601562 42.199219 L 48.398438 42.199219 L 48.398438 71.988281 L 23.601562 71.988281 Z M 23.601562 42.199219 "/>
<path style=" stroke:none;fill-rule:nonzero;fill:rgb(95.686275%,46.27451%,12.941176%);fill-opacity:1;" d="M 23.601562 53.398438 L 48.398438 53.398438 L 48.398438 72.019531 L 23.601562 72.019531 Z M 23.601562 53.398438 "/>
<path style=" stroke:none;fill-rule:nonzero;fill:rgb(100%,100%,100%);fill-opacity:1;" d="M 27.300781 72 L 0 72 L 8.699219 52.101562 L 8.699219 12.398438 L 18.601562 12.398438 L 18.601562 52.101562 Z M 27.300781 72 "/>
<path style=" stroke:none;fill-rule:nonzero;fill:rgb(16.470588%,25.098039%,30.980392%);fill-opacity:1;" d="M 27.300781 72 L 0 72 L 6 58.300781 L 21.300781 58.300781 Z M 27.300781 72 "/>
<path style=" stroke:none;fill-rule:nonzero;fill:rgb(100%,98.431373%,96.862745%);fill-opacity:1;" d="M 7.398438 60.800781 L 9.898438 60.800781 L 9.898438 63.28125 L 7.398438 63.28125 Z M 7.398438 60.800781 "/>
<path style=" stroke:none;fill-rule:nonzero;fill:rgb(100%,98.431373%,96.862745%);fill-opacity:1;" d="M 11.199219 64.601562 L 13.699219 64.601562 L 13.699219 67.078125 L 11.199219 67.078125 Z M 11.199219 64.601562 "/>
<path style=" stroke:none;fill-rule:nonzero;fill:rgb(100%,98.431373%,96.862745%);fill-opacity:1;" d="M 16.101562 62.101562 L 18.601562 62.101562 L 18.601562 64.578125 L 16.101562 64.578125 Z M 16.101562 62.101562 "/>
<path style=" stroke:none;fill-rule:nonzero;fill:rgb(100%,98.431373%,96.862745%);fill-opacity:1;" d="M 5 67 L 7.5 67 L 7.5 69.480469 L 5 69.480469 Z M 5 67 "/>
<path style=" stroke:none;fill-rule:nonzero;fill:rgb(100%,98.431373%,96.862745%);fill-opacity:1;" d="M 18.601562 65.800781 L 21.101562 65.800781 L 21.101562 68.28125 L 18.601562 68.28125 Z M 18.601562 65.800781 "/>
<path style=" stroke:none;fill-rule:nonzero;fill:rgb(100%,98.431373%,96.862745%);fill-opacity:1;" d="M 27.300781 59.601562 L 29.800781 59.601562 L 29.800781 62.078125 L 27.300781 62.078125 Z M 27.300781 59.601562 "/>
<path style=" stroke:none;fill-rule:nonzero;fill:rgb(100%,98.431373%,96.862745%);fill-opacity:1;" d="M 32.300781 57.101562 L 34.800781 57.101562 L 34.800781 59.578125 L 32.300781 59.578125 Z M 32.300781 57.101562 "/>
<path style=" stroke:none;fill-rule:nonzero;fill:rgb(100%,98.431373%,96.862745%);fill-opacity:1;" d="M 34.800781 60.800781 L 37.300781 60.800781 L 37.300781 63.28125 L 34.800781 63.28125 Z M 34.800781 60.800781 "/>
<path style=" stroke:none;fill-rule:nonzero;fill:rgb(66.666667%,70.196078%,72.54902%);fill-opacity:1;" d="M 18.601562 7.398438 L 8.699219 7.398438 C 7.320312 7.398438 6.199219 8.519531 6.199219 9.898438 C 6.199219 11.28125 7.320312 12.398438 8.699219 12.398438 L 18.601562 12.398438 C 19.980469 12.398438 21.101562 11.28125 21.101562 9.898438 C 21.101562 8.519531 19.980469 7.398438 18.601562 7.398438 Z M 18.601562 7.398438 "/>
<path style=" stroke:none;fill-rule:nonzero;fill:rgb(100%,90.980392%,83.921569%);fill-opacity:1;" d="M 12.398438 16.101562 L 18.601562 16.101562 L 18.601562 18.578125 L 12.398438 18.578125 Z M 12.398438 16.101562 "/>
<path style=" stroke:none;fill-rule:nonzero;fill:rgb(100%,90.980392%,83.921569%);fill-opacity:1;" d="M 14.898438 21.101562 L 18.601562 21.101562 L 18.601562 23.578125 L 14.898438 23.578125 Z M 14.898438 21.101562 "/>
<path style=" stroke:none;fill-rule:nonzero;fill:rgb(100%,90.980392%,83.921569%);fill-opacity:1;" d="M 14.898438 26.101562 L 18.601562 26.101562 L 18.601562 28.578125 L 14.898438 28.578125 Z M 14.898438 26.101562 "/>
<path style=" stroke:none;fill-rule:nonzero;fill:rgb(100%,90.980392%,83.921569%);fill-opacity:1;" d="M 12.398438 31 L 18.601562 31 L 18.601562 33.480469 L 12.398438 33.480469 Z M 12.398438 31 "/>
<path style=" stroke:none;fill-rule:nonzero;fill:rgb(100%,90.980392%,83.921569%);fill-opacity:1;" d="M 14.898438 36 L 18.601562 36 L 18.601562 38.480469 L 14.898438 38.480469 Z M 14.898438 36 "/>
<path style=" stroke:none;fill-rule:nonzero;fill:rgb(100%,90.980392%,83.921569%);fill-opacity:1;" d="M 14.898438 41 L 18.601562 41 L 18.601562 43.480469 L 14.898438 43.480469 Z M 14.898438 41 "/>
<path style=" stroke:none;fill-rule:nonzero;fill:rgb(100%,90.980392%,83.921569%);fill-opacity:1;" d="M 12.398438 45.898438 L 18.601562 45.898438 L 18.601562 48.378906 L 12.398438 48.378906 Z M 12.398438 45.898438 "/>
<path style=" stroke:none;fill-rule:nonzero;fill:rgb(100%,90.980392%,83.921569%);fill-opacity:1;" d="M 32.300781 42.199219 L 34.199219 46.101562 C 34.378906 46.410156 34.617188 46.683594 34.898438 46.898438 C 35.582031 47.292969 36.417969 47.292969 37.101562 46.898438 C 37.382812 46.683594 37.621094 46.410156 37.800781 46.101562 L 39.699219 42.199219 Z M 32.300781 42.199219 "/>
<path style=" stroke:none;fill-rule:nonzero;fill:rgb(100%,98.431373%,96.862745%);fill-opacity:1;" d="M 38.5 65.800781 L 41 65.800781 L 41 68.28125 L 38.5 68.28125 Z M 38.5 65.800781 "/>
<path style=" stroke:none;fill-rule:nonzero;fill:rgb(100%,98.431373%,96.862745%);fill-opacity:1;" d="M 42.199219 60.800781 L 44.699219 60.800781 L 44.699219 63.28125 L 42.199219 63.28125 Z M 42.199219 60.800781 "/>
<path style=" stroke:none;fill-rule:nonzero;fill:rgb(100%,98.431373%,96.862745%);fill-opacity:1;" d="M 39.699219 57.101562 L 42.199219 57.101562 L 42.199219 59.578125 L 39.699219 59.578125 Z M 39.699219 57.101562 "/>
<path style=" stroke:none;fill-rule:nonzero;fill:rgb(100%,77.254902%,20%);fill-opacity:1;" d="M 48.398438 45.601562 L 67 41 L 68.300781 45.898438 L 48.398438 50.898438 Z M 48.398438 45.601562 "/>
<path style=" stroke:none;fill-rule:nonzero;fill:rgb(95.686275%,46.27451%,12.941176%);fill-opacity:1;" d="M 48.398438 64.601562 L 67 64.601562 L 67 72.050781 L 48.398438 72.050781 Z M 48.398438 64.601562 "/>
<path style=" stroke:none;fill-rule:nonzero;fill:rgb(100%,77.254902%,20%);fill-opacity:1;" d="M 60.800781 52.101562 L 72 52.101562 L 72 55.820312 L 60.800781 55.820312 Z M 60.800781 52.101562 "/>
<path style=" stroke:none;fill-rule:nonzero;fill:rgb(100%,77.254902%,20%);fill-opacity:1;" d="M 46 22.300781 C 46 25.0625 43.761719 27.300781 41 27.300781 C 38.238281 27.300781 36 25.0625 36 22.300781 C 36 19.539062 38.238281 17.300781 41 17.300781 C 43.761719 17.300781 46 19.539062 46 22.300781 Z M 46 22.300781 "/>
<path style=" stroke:none;fill-rule:nonzero;fill:rgb(100%,77.254902%,20%);fill-opacity:1;" d="M 42.199219 29.800781 C 42.199219 31.179688 41.082031 32.300781 39.699219 32.300781 C 38.320312 32.300781 37.199219 31.179688 37.199219 29.800781 C 37.199219 28.417969 38.320312 27.300781 39.699219 27.300781 C 41.082031 27.300781 42.199219 28.417969 42.199219 29.800781 Z M 42.199219 29.800781 "/>
<path style=" stroke:none;fill-rule:nonzero;fill:rgb(95.686275%,46.27451%,12.941176%);fill-opacity:1;" d="M 42.199219 22.300781 C 42.199219 22.960938 41.664062 23.5 41 23.5 C 40.335938 23.5 39.800781 22.960938 39.800781 22.300781 C 39.800781 21.636719 40.335938 21.101562 41 21.101562 C 41.664062 21.101562 42.199219 21.636719 42.199219 22.300781 Z M 42.199219 22.300781 "/>
<path style=" stroke:none;fill-rule:nonzero;fill:rgb(97.647059%,63.921569%,27.843137%);fill-opacity:1;" d="M 43.398438 6.199219 L 36 13.699219 L 34.800781 8.699219 L 29.800781 3.699219 L 33.5 0 L 38.5 5 Z M 43.398438 6.199219 "/>
<path style=" stroke:none;fill-rule:nonzero;fill:rgb(97.647059%,63.921569%,27.843137%);fill-opacity:1;" d="M 60.800781 28.601562 L 58.300781 31 L 52.101562 29.800781 L 59.601562 22.300781 Z M 60.800781 28.601562 "/>
<path style=" stroke:none;fill-rule:nonzero;fill:rgb(95.686275%,46.27451%,12.941176%);fill-opacity:1;" d="M 63.300781 64.601562 L 69.5 55.898438 L 64.601562 55.898438 L 62.101562 59.601562 L 57.101562 59.601562 L 57.101562 64.601562 Z M 63.300781 64.601562 "/>
</g>
</svg>
