<?xml version="1.0" encoding="UTF-8"?>
<svg xmlns="http://www.w3.org/2000/svg" xmlns:xlink="http://www.w3.org/1999/xlink" width="72px" height="72px" viewBox="0 0 72 72" version="1.1">
<g id="surface1">
<path style=" stroke:none;fill-rule:nonzero;fill:rgb(100%,46.666667%,2.745098%);fill-opacity:1;" d="M 3 2 L 69.101562 2 C 70.757812 2 72.101562 3.34375 72.101562 5 L 72.101562 57.570312 C 72.101562 59.226562 70.757812 60.570312 69.101562 60.570312 L 3 60.570312 C 1.34375 60.570312 0 59.226562 0 57.570312 L 0 5 C 0 3.34375 1.34375 2 3 2 Z M 3 2 "/>
<path style=" stroke:none;fill-rule:nonzero;fill:rgb(100%,91.372549%,83.921569%);fill-opacity:1;" d="M 15.800781 5.398438 L 56.300781 5.398438 C 57.570312 5.398438 58.601562 6.429688 58.601562 7.699219 L 58.601562 68.429688 C 58.601562 69.699219 57.570312 70.730469 56.300781 70.730469 L 15.800781 70.730469 C 14.53125 70.730469 13.5 69.699219 13.5 68.429688 L 13.5 7.699219 C 13.5 6.429688 14.53125 5.398438 15.800781 5.398438 Z M 15.800781 5.398438 "/>
<path style=" stroke:none;fill-rule:nonzero;fill:rgb(99.215686%,81.960784%,23.529412%);fill-opacity:1;" d="M 58.601562 39.101562 L 50.699219 40.300781 L 46.199219 38 L 43.898438 50.398438 L 28.199219 50.398438 L 25.898438 38 L 21.398438 40.300781 L 13.5 39.101562 L 14.699219 33.5 L 19.199219 33.5 L 24.800781 26.800781 L 28.101562 25.5 L 33.800781 23.398438 L 38.300781 23.398438 L 44 25.5 L 47.300781 26.800781 L 52.898438 33.5 L 57.5 33.5 Z M 58.601562 39.101562 "/>
<path style=" stroke:none;fill-rule:nonzero;fill:rgb(100%,46.666667%,2.745098%);fill-opacity:1;" d="M 19.101562 9.898438 C 19.101562 10.507812 18.609375 11 18 11 C 17.390625 11 16.898438 10.507812 16.898438 9.898438 C 16.898438 9.292969 17.390625 8.800781 18 8.800781 C 18.609375 8.800781 19.101562 9.292969 19.101562 9.898438 Z M 19.101562 9.898438 "/>
<path style=" stroke:none;fill-rule:nonzero;fill:rgb(100%,46.666667%,2.745098%);fill-opacity:1;" d="M 22.5 9.898438 C 22.5 10.507812 22.007812 11 21.398438 11 C 20.792969 11 20.300781 10.507812 20.300781 9.898438 C 20.300781 9.292969 20.792969 8.800781 21.398438 8.800781 C 22.007812 8.800781 22.5 9.292969 22.5 9.898438 Z M 22.5 9.898438 "/>
<path style=" stroke:none;fill-rule:nonzero;fill:rgb(100%,46.666667%,2.745098%);fill-opacity:1;" d="M 25.898438 9.898438 C 25.898438 10.507812 25.40625 11 24.800781 11 C 24.191406 11 23.699219 10.507812 23.699219 9.898438 C 23.699219 9.292969 24.191406 8.800781 24.800781 8.800781 C 25.40625 8.800781 25.898438 9.292969 25.898438 9.898438 Z M 25.898438 9.898438 "/>
<path style=" stroke:none;fill-rule:nonzero;fill:rgb(19.607843%,34.509804%,45.098039%);fill-opacity:1;" d="M 44 25.5 L 36.101562 35.800781 L 28.101562 25.5 L 33.800781 23.398438 L 38.300781 23.398438 Z M 44 25.5 "/>
<path style=" stroke:none;fill-rule:nonzero;fill:rgb(100%,46.666667%,2.745098%);fill-opacity:1;" d="M 20.300781 49.300781 L 51.800781 49.300781 L 51.800781 51.550781 L 20.300781 51.550781 Z M 20.300781 49.300781 "/>
<path style=" stroke:none;fill-rule:nonzero;fill:rgb(100%,46.666667%,2.745098%);fill-opacity:1;" d="M 36.101562 54.898438 L 41.699219 54.898438 L 41.699219 57.148438 L 36.101562 57.148438 Z M 36.101562 54.898438 "/>
<path style=" stroke:none;fill-rule:nonzero;fill:rgb(100%,46.666667%,2.745098%);fill-opacity:1;" d="M 30.398438 54.898438 L 33.800781 54.898438 L 33.800781 57.148438 L 30.398438 57.148438 Z M 30.398438 54.898438 "/>
<path style=" stroke:none;fill-rule:nonzero;fill:rgb(100%,46.666667%,2.745098%);fill-opacity:1;" d="M 37.199219 60.601562 L 45.101562 60.601562 L 45.101562 62.851562 L 37.199219 62.851562 Z M 37.199219 60.601562 "/>
<path style=" stroke:none;fill-rule:nonzero;fill:rgb(100%,46.666667%,2.745098%);fill-opacity:1;" d="M 27 60.601562 L 34.898438 60.601562 L 34.898438 62.851562 L 27 62.851562 Z M 27 60.601562 "/>
<path style=" stroke:none;fill-rule:nonzero;fill:rgb(100%,91.372549%,83.921569%);fill-opacity:1;" d="M 58.601562 39.101562 L 63.300781 38.398438 C 63.894531 38.300781 64.429688 37.976562 64.800781 37.5 C 65.113281 37.0625 65.285156 36.539062 65.300781 36 C 65.320312 35.664062 65.289062 35.324219 65.199219 35 C 65.03125 34.710938 64.832031 34.441406 64.601562 34.199219 L 63.800781 33.699219 L 62.898438 33.5 L 62 33.5 L 62 31.300781 L 59.699219 31.300781 L 57.5 33.5 Z M 58.601562 39.101562 "/>
<path style=" stroke:none;fill-rule:nonzero;fill:rgb(100%,91.372549%,83.921569%);fill-opacity:1;" d="M 13.5 39.101562 L 8.800781 38.398438 C 8.234375 38.292969 7.730469 37.972656 7.398438 37.5 C 7.015625 37.09375 6.800781 36.558594 6.800781 36 C 6.753906 35.652344 6.824219 35.300781 7 35 C 7.128906 34.710938 7.296875 34.441406 7.5 34.199219 L 8.300781 33.699219 L 9.199219 33.5 L 10.101562 33.5 L 10.101562 31.300781 L 12.398438 31.300781 L 14.699219 33.5 Z M 13.5 39.101562 "/>
<path style=" stroke:none;fill-rule:nonzero;fill:rgb(100%,80.784314%,71.372549%);fill-opacity:1;" d="M 39.398438 17.800781 L 39.398438 21.101562 C 39.433594 22.007812 39.070312 22.886719 38.398438 23.5 C 37.816406 24.152344 36.976562 24.519531 36.101562 24.5 C 34.222656 24.5 32.699219 22.976562 32.699219 21.101562 L 32.699219 17.800781 Z M 39.398438 17.800781 "/>
<path style=" stroke:none;fill-rule:nonzero;fill:rgb(19.607843%,34.509804%,45.098039%);fill-opacity:1;" d="M 32.699219 17.800781 L 32.699219 15.898438 C 32.65625 15.554688 32.726562 15.203125 32.898438 14.898438 C 33.003906 14.570312 33.175781 14.265625 33.398438 14 L 34.300781 13.5 C 34.601562 13.324219 34.953125 13.253906 35.300781 13.300781 C 35.796875 13.277344 36.289062 13.417969 36.699219 13.699219 L 39.398438 15.5 L 39.398438 17.800781 "/>
<path style=" stroke:none;fill-rule:nonzero;fill:rgb(19.607843%,34.509804%,45.098039%);fill-opacity:1;" d="M 66.5 17.800781 C 66.5 22.164062 62.964844 25.699219 58.601562 25.699219 C 54.238281 25.699219 50.699219 22.164062 50.699219 17.800781 C 50.699219 13.4375 54.238281 9.898438 58.601562 9.898438 C 62.964844 9.898438 66.5 13.4375 66.5 17.800781 Z M 66.5 17.800781 "/>
<path style=" stroke:none;fill-rule:evenodd;fill:rgb(100%,100%,100%);fill-opacity:1;" d="M 58.300781 18.898438 L 59.699219 18 C 59.699219 17.898438 59.800781 17.898438 59.800781 17.800781 C 59.792969 17.722656 59.757812 17.652344 59.699219 17.601562 L 58.300781 16.601562 L 58 16.601562 C 57.925781 16.683594 57.890625 16.789062 57.898438 16.898438 L 57.898438 18.699219 C 57.898438 18.800781 57.898438 18.898438 58 18.898438 C 58.039062 18.941406 58.09375 18.96875 58.148438 18.96875 C 58.207031 18.96875 58.261719 18.941406 58.300781 18.898438 Z M 55.800781 15 L 61.398438 15 C 61.785156 15 62.101562 15.3125 62.101562 15.699219 L 62.101562 19.898438 C 62.101562 20.285156 61.785156 20.601562 61.398438 20.601562 L 55.800781 20.601562 C 55.414062 20.601562 55.101562 20.285156 55.101562 19.898438 L 55.101562 15.699219 C 55.101562 15.3125 55.414062 15 55.800781 15 Z M 55.800781 15 "/>
<path style=" stroke:none;fill-rule:nonzero;fill:rgb(100%,70.588235%,0.392157%);fill-opacity:1;" d="M 19.398438 59.699219 C 19.398438 63.125 16.625 65.898438 13.199219 65.898438 C 9.777344 65.898438 7 63.125 7 59.699219 C 7 56.277344 9.777344 53.5 13.199219 53.5 C 16.625 53.5 19.398438 56.277344 19.398438 59.699219 Z M 19.398438 59.699219 "/>
<path style=" stroke:none;fill-rule:evenodd;fill:rgb(100%,100%,100%);fill-opacity:1;" d="M 15.5 59.199219 L 15.199219 58.5 C 16.5 58.199219 16.398438 58.601562 15.5 59.199219 Z M 13.199219 61.398438 C 12.902344 61.410156 12.617188 61.304688 12.398438 61.101562 L 13.699219 60.699219 L 14.800781 60.199219 C 14.582031 60.90625 13.9375 61.390625 13.199219 61.398438 Z M 11 60.199219 L 11 60 C 10 60.601562 10.199219 60.800781 11.101562 60.699219 L 11.800781 60.699219 L 13.398438 60.199219 L 14.898438 59.601562 C 14.710938 58.765625 13.957031 58.179688 13.101562 58.199219 C 12.277344 58.296875 11.644531 58.972656 11.601562 59.800781 L 11.601562 60.199219 Z M 15.699219 57.800781 C 16.398438 57.800781 16.699219 58 16.800781 58.300781 C 16.898438 58.601562 16.699219 59.300781 15.5 59.898438 C 15.496094 60.824219 14.886719 61.636719 14 61.898438 C 13.152344 62.210938 12.199219 61.972656 11.601562 61.300781 C 10.699219 61.5 9.898438 61.398438 9.699219 60.898438 C 9.5 60.398438 9.800781 59.898438 11 59.199219 C 11.175781 58.46875 11.699219 57.871094 12.398438 57.601562 C 13.132812 57.296875 13.976562 57.410156 14.601562 57.898438 Z M 15.699219 57.800781 "/>
</g>
</svg>
