<?xml version="1.0" encoding="UTF-8"?>
<svg xmlns="http://www.w3.org/2000/svg" xmlns:xlink="http://www.w3.org/1999/xlink" width="72px" height="72px" viewBox="0 0 72 72" version="1.1">
<g id="surface1">
<path style=" stroke:none;fill-rule:nonzero;fill:rgb(19.607843%,34.509804%,45.098039%);fill-opacity:1;" d="M 69.398438 14.601562 L 38.5 14.601562 C 37.125 14.703125 36.046875 15.820312 36 17.199219 L 36 68 C 36 69.398438 37.101562 70.546875 38.5 70.601562 L 69.398438 70.601562 C 70.835938 70.601562 72 69.4375 72 68 L 72 17.199219 C 72 15.765625 70.835938 14.601562 69.398438 14.601562 Z M 69.398438 14.601562 "/>
<path style=" stroke:none;fill-rule:nonzero;fill:rgb(85.490196%,35.686275%,14.901961%);fill-opacity:1;" d="M 28.601562 32.300781 L 61.699219 32.300781 C 63.136719 32.300781 64.300781 33.464844 64.300781 34.898438 L 64.300781 68 C 64.300781 69.4375 63.136719 70.601562 61.699219 70.601562 L 28.601562 70.601562 C 27.164062 70.601562 26 69.4375 26 68 L 26 34.898438 C 26 33.464844 27.164062 32.300781 28.601562 32.300781 Z M 28.601562 32.300781 "/>
<path style=" stroke:none;fill-rule:nonzero;fill:rgb(99.215686%,73.72549%,41.176471%);fill-opacity:1;" d="M 53.601562 37.601562 L 64.300781 37.601562 L 64.300781 47.558594 L 53.601562 47.558594 Z M 53.601562 37.601562 "/>
<path style=" stroke:none;fill-rule:nonzero;fill:rgb(99.607843%,93.72549%,80.784314%);fill-opacity:1;" d="M 61.300781 42.601562 C 61.300781 41.109375 60.269531 39.898438 59 39.898438 C 57.730469 39.898438 56.699219 41.109375 56.699219 42.601562 C 56.699219 44.089844 57.730469 45.300781 59 45.300781 C 60.269531 45.300781 61.300781 44.089844 61.300781 42.601562 Z M 61.300781 42.601562 "/>
<path style=" stroke:none;fill-rule:nonzero;fill:rgb(100%,85.098039%,60.784314%);fill-opacity:1;" d="M 51 9.300781 L 23.199219 9.300781 C 21.820312 9.347656 20.703125 10.425781 20.601562 11.800781 L 20.601562 68 C 20.601562 69.4375 21.765625 70.601562 23.199219 70.601562 L 51 70.601562 C 52.4375 70.601562 53.601562 69.4375 53.601562 68 L 53.601562 11.800781 C 53.5 10.425781 52.378906 9.347656 51 9.300781 Z M 51 9.300781 "/>
<path style=" stroke:none;fill-rule:nonzero;fill:rgb(99.215686%,73.72549%,41.176471%);fill-opacity:1;" d="M 49 14.601562 L 53.601562 14.601562 L 53.601562 19.199219 L 49 19.199219 Z M 49 14.601562 "/>
<path style=" stroke:none;fill-rule:nonzero;fill:rgb(19.607843%,34.509804%,45.098039%);fill-opacity:1;" d="M 13.300781 1.601562 L 46.398438 1.601562 C 47.835938 1.601562 49 2.765625 49 4.199219 L 49 67.941406 C 49 69.375 47.835938 70.539062 46.398438 70.539062 L 13.300781 70.539062 C 11.863281 70.539062 10.699219 69.375 10.699219 67.941406 L 10.699219 4.199219 C 10.699219 2.765625 11.863281 1.601562 13.300781 1.601562 Z M 13.300781 1.601562 "/>
<path style=" stroke:none;fill-rule:nonzero;fill:rgb(19.607843%,34.509804%,45.098039%);fill-opacity:1;" d="M 35.699219 1.601562 L 13.199219 1.601562 C 11.824219 1.703125 10.746094 2.820312 10.699219 4.199219 L 10.699219 68 C 10.699219 69.398438 11.804688 70.546875 13.199219 70.601562 L 35.699219 70.601562 C 37.136719 70.601562 38.300781 69.4375 38.300781 68 L 38.300781 4.199219 C 38.300781 2.765625 37.136719 1.601562 35.699219 1.601562 Z M 35.699219 1.601562 "/>
<path style=" stroke:none;fill-rule:nonzero;fill:rgb(95.686275%,46.27451%,12.941176%);fill-opacity:1;" d="M 35.699219 22.300781 L 2.5 22.300781 C 1.121094 22.300781 0 23.417969 0 24.800781 L 0 68 C 0 69.398438 1.101562 70.546875 2.5 70.601562 L 35.699219 70.601562 C 37.136719 70.601562 38.300781 69.4375 38.300781 68 L 38.300781 24.800781 C 38.199219 23.425781 37.078125 22.347656 35.699219 22.300781 Z M 35.699219 22.300781 "/>
<path style=" stroke:none;fill-rule:nonzero;fill:rgb(95.686275%,46.27451%,12.941176%);fill-opacity:1;" d="M 25.699219 22.300781 L 2.5 22.300781 C 1.121094 22.300781 0 23.417969 0 24.800781 L 0 68 C 0 69.398438 1.101562 70.546875 2.5 70.601562 L 25.699219 70.601562 C 27.136719 70.601562 28.300781 69.4375 28.300781 68 L 28.300781 24.800781 C 28.199219 23.425781 27.078125 22.347656 25.699219 22.300781 Z M 25.699219 22.300781 "/>
<path style=" stroke:none;fill-rule:nonzero;fill:rgb(100%,85.098039%,60.784314%);fill-opacity:1;" d="M 32.898438 26.898438 L 38.300781 26.898438 L 38.300781 31.5 L 32.898438 31.5 Z M 32.898438 26.898438 "/>
<path style=" stroke:none;fill-rule:nonzero;fill:rgb(100%,85.098039%,60.784314%);fill-opacity:1;" d="M 32.898438 59.800781 L 38.300781 59.800781 L 38.300781 65.160156 L 32.898438 65.160156 Z M 32.898438 59.800781 "/>
<path style=" stroke:none;fill-rule:nonzero;fill:rgb(66.666667%,70.196078%,72.54902%);fill-opacity:1;" d="M 42.398438 14.398438 L 44.898438 14.398438 C 45.617188 14.398438 46.199219 14.980469 46.199219 15.699219 L 46.199219 46.289062 C 46.199219 47.007812 45.617188 47.589844 44.898438 47.589844 L 42.398438 47.589844 C 41.683594 47.589844 41.101562 47.007812 41.101562 46.289062 L 41.101562 15.699219 C 41.101562 14.980469 41.683594 14.398438 42.398438 14.398438 Z M 42.398438 14.398438 "/>
<path style=" stroke:none;fill-rule:nonzero;fill:rgb(66.666667%,70.196078%,72.54902%);fill-opacity:1;" d="M 42.398438 52.699219 L 44.898438 52.699219 C 45.617188 52.699219 46.199219 53.28125 46.199219 54 L 46.199219 64.171875 C 46.199219 64.886719 45.617188 65.46875 44.898438 65.46875 L 42.398438 65.46875 C 41.683594 65.46875 41.101562 64.886719 41.101562 64.171875 L 41.101562 54 C 41.101562 53.28125 41.683594 52.699219 42.398438 52.699219 Z M 42.398438 52.699219 "/>
<path style=" stroke:none;fill-rule:nonzero;fill:rgb(66.666667%,70.196078%,72.54902%);fill-opacity:1;" d="M 46.300781 9.300781 C 46.300781 10.734375 45.136719 11.898438 43.699219 11.898438 C 42.265625 11.898438 41.101562 10.734375 41.101562 9.300781 C 41.101562 7.863281 42.265625 6.699219 43.699219 6.699219 C 45.136719 6.699219 46.300781 7.863281 46.300781 9.300781 Z M 46.300781 9.300781 "/>
</g>
</svg>
