<?xml version="1.0" encoding="UTF-8"?>
<svg xmlns="http://www.w3.org/2000/svg" xmlns:xlink="http://www.w3.org/1999/xlink" width="72px" height="72px" viewBox="0 0 72 72" version="1.1">
<g id="surface1">
<path style=" stroke:none;fill-rule:nonzero;fill:rgb(95.686275%,46.27451%,12.941176%);fill-opacity:1;" d="M 49.800781 70.5 L 37.898438 70.5 L 37.398438 69.601562 C 37 69.398438 36.800781 68.898438 37.300781 68.898438 L 49.800781 68.898438 C 51.070312 68.898438 52.101562 67.871094 52.101562 66.601562 C 52.050781 65.351562 51.046875 64.351562 49.800781 64.300781 L 46.699219 64.300781 C 46.3125 64.300781 46 63.988281 46 63.601562 C 45.996094 63.195312 46.296875 62.851562 46.699219 62.800781 L 49.800781 62.800781 C 50.808594 62.804688 51.777344 63.199219 52.5 63.898438 C 53.191406 64.628906 53.585938 65.59375 53.601562 66.601562 C 53.628906 67.625 53.238281 68.617188 52.523438 69.351562 C 51.808594 70.085938 50.824219 70.5 49.800781 70.5 Z M 49.800781 70.5 "/>
<path style=" stroke:none;fill-rule:nonzero;fill:rgb(19.607843%,34.509804%,45.098039%);fill-opacity:1;" d="M 65.898438 36 C 65.679688 36.035156 65.453125 35.960938 65.296875 35.804688 C 65.136719 35.644531 65.066406 35.421875 65.101562 35.199219 L 65.101562 9.199219 C 65.101562 8.757812 65.457031 8.398438 65.898438 8.398438 C 66.300781 8.449219 66.601562 8.792969 66.601562 9.199219 L 66.601562 35.199219 C 66.628906 35.402344 66.570312 35.605469 66.433594 35.761719 C 66.300781 35.914062 66.105469 36.003906 65.898438 36 Z M 65.898438 36 "/>
<path style=" stroke:none;fill-rule:nonzero;fill:rgb(98.823529%,70.196078%,8.235294%);fill-opacity:1;" d="M 17.300781 43.398438 L 14.898438 47.699219 L 10.800781 49.898438 L 6.398438 45.601562 L 8.601562 41.101562 L 12.898438 39.101562 Z M 17.300781 43.398438 "/>
<path style=" stroke:none;fill-rule:nonzero;fill:rgb(95.686275%,46.27451%,12.941176%);fill-opacity:1;" d="M 12.898438 39.101562 L 6.398438 45.601562 L 2.101562 41.199219 C 0.425781 39.386719 0.484375 36.574219 2.230469 34.828125 C 3.972656 33.085938 6.785156 33.027344 8.601562 34.699219 Z M 12.898438 39.101562 "/>
<path style=" stroke:none;fill-rule:nonzero;fill:rgb(95.686275%,46.27451%,12.941176%);fill-opacity:1;" d="M 57.398438 9.199219 L 57.398438 15.300781 L 36 16.898438 L 14.601562 15.300781 L 14.601562 9.199219 L 35.5 6.800781 Z M 57.398438 9.199219 "/>
<path style=" stroke:none;fill-rule:nonzero;fill:rgb(100%,90.980392%,83.921569%);fill-opacity:1;" d="M 57.398438 15.300781 L 57.398438 29.101562 L 36 33.699219 L 14.601562 29.101562 L 14.601562 15.300781 Z M 57.398438 15.300781 "/>
<path style=" stroke:none;fill-rule:nonzero;fill:rgb(19.607843%,34.509804%,45.098039%);fill-opacity:1;" d="M 68.199219 0 L 68.199219 9.199219 L 3.800781 9.199219 L 3.800781 0 Z M 68.199219 0 "/>
<path style=" stroke:none;fill-rule:nonzero;fill:rgb(19.607843%,34.509804%,45.098039%);fill-opacity:1;" d="M 71.199219 48.300781 L 71.199219 61.300781 L 60.5 61.300781 L 60.5 48.300781 C 60.214844 46.214844 61.167969 44.152344 62.941406 43.019531 C 64.714844 41.882812 66.984375 41.882812 68.757812 43.019531 C 70.53125 44.152344 71.484375 46.214844 71.199219 48.300781 Z M 71.199219 48.300781 "/>
<path style=" stroke:none;fill-rule:nonzero;fill:rgb(95.686275%,46.27451%,12.941176%);fill-opacity:1;" d="M 69.699219 39.101562 C 69.699219 41.199219 68 42.898438 65.898438 42.898438 C 63.800781 42.898438 62.101562 41.199219 62.101562 39.101562 C 62.101562 37 63.800781 35.300781 65.898438 35.300781 C 68 35.300781 69.699219 37 69.699219 39.101562 Z M 69.699219 39.101562 "/>
<path style=" stroke:none;fill-rule:nonzero;fill:rgb(95.686275%,46.27451%,12.941176%);fill-opacity:1;" d="M 51.601562 42.601562 C 52.730469 43.753906 54.28125 44.402344 55.898438 44.398438 C 54.28125 44.394531 52.730469 45.046875 51.601562 46.199219 C 50.449219 47.375 49.800781 48.953125 49.800781 50.601562 C 49.800781 47.214844 47.085938 44.453125 43.699219 44.398438 C 47.070312 44.398438 49.800781 41.667969 49.800781 38.300781 C 49.796875 39.917969 50.445312 41.46875 51.601562 42.601562 Z M 51.601562 42.601562 "/>
<path style=" stroke:none;fill-rule:nonzero;fill:rgb(95.686275%,46.27451%,12.941176%);fill-opacity:1;" d="M 8.699219 62.5 C 9.8125 63.683594 11.375 64.339844 13 64.300781 C 11.382812 64.296875 9.832031 64.945312 8.699219 66.101562 C 7.546875 67.273438 6.902344 68.855469 6.898438 70.5 C 6.925781 68.863281 6.296875 67.289062 5.148438 66.121094 C 4.003906 64.957031 2.433594 64.300781 0.800781 64.300781 C 2.425781 64.339844 3.988281 63.683594 5.101562 62.5 C 6.253906 61.367188 6.902344 59.816406 6.898438 58.199219 C 6.894531 59.816406 7.546875 61.367188 8.699219 62.5 Z M 8.699219 62.5 "/>
<path style=" stroke:none;fill-rule:nonzero;fill:rgb(100%,90.980392%,83.921569%);fill-opacity:1;" d="M 35.699219 61.800781 L 37.898438 70.5 L 29.199219 68.300781 L 10.800781 49.898438 L 17.300781 43.398438 Z M 35.699219 61.800781 "/>
<path style=" stroke:none;fill-rule:nonzero;fill:rgb(100%,90.980392%,83.921569%);fill-opacity:1;" d="M 65.101562 67.398438 C 65.101562 68.226562 64.429688 68.898438 63.601562 68.898438 C 62.773438 68.898438 62.101562 68.226562 62.101562 67.398438 C 62.101562 66.570312 62.773438 65.898438 63.601562 65.898438 C 64.429688 65.898438 65.101562 66.570312 65.101562 67.398438 Z M 65.101562 67.398438 "/>
<path style=" stroke:none;fill-rule:nonzero;fill:rgb(100%,90.980392%,83.921569%);fill-opacity:1;" d="M 45.199219 52.101562 C 45.199219 52.929688 44.527344 53.601562 43.699219 53.601562 C 42.871094 53.601562 42.199219 52.929688 42.199219 52.101562 C 42.199219 51.273438 42.871094 50.601562 43.699219 50.601562 C 44.527344 50.601562 45.199219 51.273438 45.199219 52.101562 Z M 45.199219 52.101562 "/>
<path style=" stroke:none;fill-rule:nonzero;fill:rgb(100%,90.980392%,83.921569%);fill-opacity:1;" d="M 26.800781 39.800781 C 26.800781 40.628906 26.128906 41.300781 25.300781 41.300781 C 24.472656 41.300781 23.800781 40.628906 23.800781 39.800781 C 23.800781 38.972656 24.472656 38.300781 25.300781 38.300781 C 26.128906 38.300781 26.800781 38.972656 26.800781 39.800781 Z M 26.800781 39.800781 "/>
<path style=" stroke:none;fill-rule:nonzero;fill:rgb(100%,90.980392%,83.921569%);fill-opacity:1;" d="M 22.199219 70.5 C 22.199219 71.328125 21.527344 72 20.699219 72 C 19.871094 72 19.199219 71.328125 19.199219 70.5 C 19.199219 69.671875 19.871094 69 20.699219 69 C 21.527344 69 22.199219 69.671875 22.199219 70.5 Z M 22.199219 70.5 "/>
<path style=" stroke:none;fill-rule:nonzero;fill:rgb(100%,90.980392%,83.921569%);fill-opacity:1;" d="M 6.898438 18.398438 C 6.898438 19.226562 6.226562 19.898438 5.398438 19.898438 C 4.570312 19.898438 3.898438 19.226562 3.898438 18.398438 C 3.898438 17.570312 4.570312 16.898438 5.398438 16.898438 C 6.226562 16.898438 6.898438 17.570312 6.898438 18.398438 Z M 6.898438 18.398438 "/>
</g>
</svg>
