<?xml version="1.0" encoding="UTF-8"?>
<svg xmlns="http://www.w3.org/2000/svg" xmlns:xlink="http://www.w3.org/1999/xlink" width="72px" height="72px" viewBox="0 0 72 72" version="1.1">
<g id="surface1">
<path style=" stroke:none;fill-rule:nonzero;fill:rgb(19.607843%,34.509804%,45.098039%);fill-opacity:1;" d="M 29.300781 54.5 L 29.300781 58.898438 C 29.285156 60.574219 28.464844 62.136719 27.101562 63.101562 L 23.898438 65.199219 L 48.101562 65.199219 L 44.898438 63.101562 C 43.535156 62.136719 42.714844 60.574219 42.699219 58.898438 L 42.699219 54.5 Z M 29.300781 54.5 "/>
<path style=" stroke:none;fill-rule:nonzero;fill:rgb(19.607843%,34.509804%,45.098039%);fill-opacity:1;" d="M 21.601562 65.101562 L 50.398438 65.101562 C 51.171875 65.101562 51.800781 65.726562 51.800781 66.5 L 51.800781 68.21875 C 51.800781 68.992188 51.171875 69.621094 50.398438 69.621094 L 21.601562 69.621094 C 20.828125 69.621094 20.199219 68.992188 20.199219 68.21875 L 20.199219 66.5 C 20.199219 65.726562 20.828125 65.101562 21.601562 65.101562 Z M 21.601562 65.101562 "/>
<path style=" stroke:none;fill-rule:nonzero;fill:rgb(19.607843%,34.509804%,45.098039%);fill-opacity:1;" d="M 4.199219 3.199219 L 67.800781 3.199219 C 70.121094 3.199219 72 5.082031 72 7.398438 L 72 50.519531 C 72 52.839844 70.121094 54.71875 67.800781 54.71875 L 4.199219 54.71875 C 1.878906 54.71875 0 52.839844 0 50.519531 L 0 7.398438 C 0 5.082031 1.878906 3.199219 4.199219 3.199219 Z M 4.199219 3.199219 "/>
<path style=" stroke:none;fill-rule:nonzero;fill:rgb(100%,98.431373%,96.862745%);fill-opacity:1;" d="M 4.5 12.800781 L 4.5 49.601562 C 4.5 49.929688 4.769531 50.199219 5.101562 50.199219 L 66.898438 50.199219 C 67.230469 50.199219 67.5 49.929688 67.5 49.601562 L 67.5 12.800781 Z M 4.5 12.800781 "/>
<path style=" stroke:none;fill-rule:nonzero;fill:rgb(97.647059%,63.921569%,27.843137%);fill-opacity:1;" d="M 66.898438 7.699219 L 10.898438 7.699219 L 10.898438 13.101562 L 67.5 13.101562 L 67.5 8.300781 C 67.5 7.96875 67.230469 7.699219 66.898438 7.699219 Z M 66.898438 7.699219 "/>
<path style=" stroke:none;fill-rule:nonzero;fill:rgb(94.509804%,36.470588%,16.470588%);fill-opacity:1;" d="M 11 7.699219 L 5.101562 7.699219 C 4.769531 7.699219 4.5 7.96875 4.5 8.300781 L 4.5 13.101562 L 11 13.101562 Z M 11 7.699219 "/>
<path style=" stroke:none;fill-rule:nonzero;fill:rgb(95.686275%,46.27451%,12.941176%);fill-opacity:1;" d="M 53.898438 21.101562 L 51.5 21.101562 L 51.5 37.699219 C 51.503906 38.136719 51.320312 38.550781 50.992188 38.839844 C 50.667969 39.125 50.230469 39.257812 49.800781 39.199219 C 48.261719 38.945312 46.796875 38.363281 45.5 37.5 C 41.898438 35.5 38.699219 37.300781 37.101562 38.601562 C 36.464844 39.136719 35.535156 39.136719 34.898438 38.601562 C 33.300781 37.300781 30.101562 35.5 26.5 37.5 C 25.203125 38.363281 23.738281 38.945312 22.199219 39.199219 C 21.769531 39.257812 21.332031 39.125 21.007812 38.839844 C 20.679688 38.550781 20.496094 38.136719 20.5 37.699219 L 20.5 21.101562 L 18 21.101562 C 17.210938 21.152344 16.597656 21.808594 16.601562 22.601562 L 16.601562 42.101562 C 16.597656 42.890625 17.210938 43.546875 18 43.601562 L 31.199219 43.601562 C 31.878906 43.605469 32.5 43.992188 32.800781 44.601562 C 33.363281 45.746094 34.523438 46.480469 35.800781 46.5 C 37.054688 46.492188 38.191406 45.746094 38.699219 44.601562 C 39 43.992188 39.621094 43.605469 40.300781 43.601562 L 53.898438 43.601562 C 54.726562 43.601562 55.398438 42.929688 55.398438 42.101562 L 55.398438 22.601562 C 55.398438 21.773438 54.726562 21.101562 53.898438 21.101562 Z M 53.898438 21.101562 "/>
<path style=" stroke:none;fill-rule:nonzero;fill:rgb(99.607843%,93.72549%,80.784314%);fill-opacity:1;" d="M 51 19.398438 L 50.101562 19.601562 C 48.464844 19.308594 46.898438 18.699219 45.5 17.800781 C 40.398438 15.101562 36 19.898438 36 19.898438 L 35.300781 20.800781 L 35.300781 38.601562 L 36 39.699219 C 36.40625 39.722656 36.800781 39.578125 37.101562 39.300781 C 38.699219 38.101562 41.898438 36.300781 45.5 38.199219 C 46.898438 39.078125 48.464844 39.660156 50.101562 39.898438 C 50.53125 39.957031 50.964844 39.824219 51.292969 39.539062 C 51.617188 39.25 51.804688 38.835938 51.800781 38.398438 L 51.800781 19.898438 C 51.78125 19.71875 51.675781 19.554688 51.519531 19.457031 C 51.367188 19.359375 51.171875 19.335938 51 19.398438 Z M 51 19.398438 "/>
<path style=" stroke:none;fill-rule:nonzero;fill:rgb(99.215686%,73.72549%,41.176471%);fill-opacity:1;" d="M 47.898438 24.300781 C 46.863281 23.917969 45.859375 23.453125 44.898438 22.898438 C 43.363281 22.035156 41.503906 21.960938 39.898438 22.699219 C 39.347656 22.90625 38.730469 22.644531 38.5 22.101562 C 38.371094 21.835938 38.359375 21.53125 38.476562 21.261719 C 38.59375 20.992188 38.820312 20.785156 39.101562 20.699219 C 41.316406 19.6875 43.882812 19.800781 46 21 C 46.859375 21.488281 47.761719 21.890625 48.699219 22.199219 C 49.242188 22.429688 49.507812 23.046875 49.300781 23.601562 C 49.207031 23.878906 49.007812 24.109375 48.746094 24.242188 C 48.484375 24.375 48.179688 24.394531 47.898438 24.300781 Z M 47.898438 24.300781 "/>
<path style=" stroke:none;fill-rule:nonzero;fill:rgb(99.215686%,73.72549%,41.176471%);fill-opacity:1;" d="M 47.898438 28.199219 L 44.898438 26.898438 C 43.378906 26.003906 41.519531 25.890625 39.898438 26.601562 C 39.636719 26.730469 39.332031 26.738281 39.0625 26.625 C 38.792969 26.507812 38.585938 26.28125 38.5 26 C 38.371094 25.738281 38.359375 25.429688 38.476562 25.160156 C 38.59375 24.890625 38.820312 24.6875 39.101562 24.601562 C 41.335938 23.691406 43.851562 23.800781 46 24.898438 C 46.859375 25.414062 47.761719 25.851562 48.699219 26.199219 C 49.132812 26.488281 49.308594 27.042969 49.113281 27.527344 C 48.921875 28.007812 48.414062 28.292969 47.898438 28.199219 Z M 47.898438 28.199219 "/>
<path style=" stroke:none;fill-rule:nonzero;fill:rgb(99.215686%,73.72549%,41.176471%);fill-opacity:1;" d="M 47.898438 32.199219 C 46.863281 31.820312 45.859375 31.351562 44.898438 30.800781 C 43.363281 29.933594 41.503906 29.859375 39.898438 30.601562 C 39.347656 30.808594 38.730469 30.542969 38.5 30 C 38.371094 29.738281 38.359375 29.429688 38.476562 29.160156 C 38.59375 28.890625 38.820312 28.6875 39.101562 28.601562 C 41.316406 27.589844 43.882812 27.699219 46 28.898438 L 48.699219 30.101562 C 49.242188 30.332031 49.507812 30.949219 49.300781 31.5 C 49.207031 31.78125 49.007812 32.011719 48.746094 32.140625 C 48.484375 32.273438 48.179688 32.292969 47.898438 32.199219 Z M 47.898438 32.199219 "/>
<path style=" stroke:none;fill-rule:nonzero;fill:rgb(99.215686%,73.72549%,41.176471%);fill-opacity:1;" d="M 47.898438 36.101562 C 46.863281 35.71875 45.859375 35.25 44.898438 34.699219 C 43.347656 33.878906 41.511719 33.808594 39.898438 34.5 C 39.636719 34.628906 39.332031 34.640625 39.0625 34.523438 C 38.792969 34.40625 38.585938 34.179688 38.5 33.898438 C 38.371094 33.636719 38.359375 33.332031 38.476562 33.0625 C 38.59375 32.792969 38.820312 32.585938 39.101562 32.5 C 41.328125 31.550781 43.863281 31.660156 46 32.800781 C 46.859375 33.316406 47.761719 33.75 48.699219 34.101562 C 48.953125 34.191406 49.160156 34.378906 49.273438 34.625 C 49.386719 34.867188 49.394531 35.148438 49.300781 35.398438 C 49.207031 35.679688 49.007812 35.910156 48.746094 36.042969 C 48.484375 36.175781 48.179688 36.195312 47.898438 36.101562 Z M 47.898438 36.101562 "/>
<path style=" stroke:none;fill-rule:nonzero;fill:rgb(99.607843%,93.72549%,80.784314%);fill-opacity:1;" d="M 21 19.398438 L 21.898438 19.601562 C 23.535156 19.308594 25.101562 18.699219 26.5 17.800781 C 31.601562 15.101562 36 19.898438 36 19.898438 L 36 39.699219 C 35.59375 39.722656 35.199219 39.578125 34.898438 39.300781 C 33.300781 38.101562 30.101562 36.300781 26.5 38.199219 C 25.101562 39.078125 23.535156 39.660156 21.898438 39.898438 C 21.46875 39.957031 21.035156 39.824219 20.707031 39.539062 C 20.382812 39.25 20.195312 38.835938 20.199219 38.398438 L 20.199219 19.898438 C 20.21875 19.71875 20.324219 19.554688 20.480469 19.457031 C 20.632812 19.359375 20.828125 19.335938 21 19.398438 Z M 21 19.398438 "/>
<path style=" stroke:none;fill-rule:nonzero;fill:rgb(99.215686%,73.72549%,41.176471%);fill-opacity:1;" d="M 22.699219 23.601562 C 22.492188 23.046875 22.757812 22.429688 23.300781 22.199219 C 24.238281 21.890625 25.140625 21.488281 26 21 C 28.117188 19.800781 30.683594 19.6875 32.898438 20.699219 C 33.179688 20.785156 33.40625 20.992188 33.523438 21.261719 C 33.640625 21.53125 33.628906 21.835938 33.5 22.101562 C 33.269531 22.644531 32.652344 22.90625 32.101562 22.699219 C 30.496094 21.960938 28.636719 22.035156 27.101562 22.898438 C 26.140625 23.453125 25.136719 23.917969 24.101562 24.300781 C 23.820312 24.394531 23.515625 24.375 23.253906 24.242188 C 22.992188 24.109375 22.792969 23.878906 22.699219 23.601562 Z M 22.699219 23.601562 "/>
<path style=" stroke:none;fill-rule:nonzero;fill:rgb(99.215686%,73.72549%,41.176471%);fill-opacity:1;" d="M 22.699219 27.601562 C 22.492188 27.046875 22.757812 26.429688 23.300781 26.199219 C 24.238281 25.851562 25.140625 25.414062 26 24.898438 C 28.148438 23.800781 30.664062 23.691406 32.898438 24.601562 C 33.179688 24.6875 33.40625 24.890625 33.523438 25.160156 C 33.640625 25.429688 33.628906 25.738281 33.5 26 C 33.414062 26.28125 33.207031 26.507812 32.9375 26.625 C 32.667969 26.738281 32.363281 26.730469 32.101562 26.601562 C 30.480469 25.890625 28.621094 26.003906 27.101562 26.898438 L 24.101562 28.199219 C 23.546875 28.40625 22.929688 28.144531 22.699219 27.601562 Z M 22.699219 27.601562 "/>
<path style=" stroke:none;fill-rule:nonzero;fill:rgb(99.215686%,73.72549%,41.176471%);fill-opacity:1;" d="M 22.699219 31.5 C 22.492188 30.949219 22.757812 30.332031 23.300781 30.101562 L 26 28.898438 C 28.117188 27.699219 30.683594 27.589844 32.898438 28.601562 C 33.179688 28.6875 33.40625 28.890625 33.523438 29.160156 C 33.640625 29.429688 33.628906 29.738281 33.5 30 C 33.269531 30.542969 32.652344 30.808594 32.101562 30.601562 C 30.496094 29.859375 28.636719 29.933594 27.101562 30.800781 C 26.140625 31.351562 25.136719 31.820312 24.101562 32.199219 C 23.820312 32.292969 23.515625 32.273438 23.253906 32.140625 C 22.992188 32.011719 22.792969 31.78125 22.699219 31.5 Z M 22.699219 31.5 "/>
<path style=" stroke:none;fill-rule:nonzero;fill:rgb(99.215686%,73.72549%,41.176471%);fill-opacity:1;" d="M 22.699219 35.398438 C 22.605469 35.148438 22.613281 34.867188 22.726562 34.625 C 22.839844 34.378906 23.046875 34.191406 23.300781 34.101562 C 24.238281 33.75 25.140625 33.316406 26 32.800781 C 28.136719 31.660156 30.671875 31.550781 32.898438 32.5 C 33.179688 32.585938 33.40625 32.792969 33.523438 33.0625 C 33.640625 33.332031 33.628906 33.636719 33.5 33.898438 C 33.414062 34.179688 33.207031 34.40625 32.9375 34.523438 C 32.667969 34.640625 32.363281 34.628906 32.101562 34.5 C 30.488281 33.808594 28.652344 33.878906 27.101562 34.699219 C 26.140625 35.25 25.136719 35.71875 24.101562 36.101562 C 23.820312 36.195312 23.515625 36.175781 23.253906 36.042969 C 22.992188 35.910156 22.792969 35.679688 22.699219 35.398438 Z M 22.699219 35.398438 "/>
</g>
</svg>
