<svg width="73" height="52" viewBox="0 0 73 52" fill="none" xmlns="http://www.w3.org/2000/svg">
<g clip-path="url(#clip0_440_20652)">
<path d="M37.4233 26.6445C37.1852 26.6445 36.9414 26.6387 36.692 26.6215L36.6466 26.6158C36.4822 26.6043 36.3234 26.5871 36.159 26.5698L36.0286 26.5526C35.8869 26.5354 35.7451 26.5182 35.5977 26.4952L35.4333 26.4723C35.2916 26.4493 35.1441 26.4206 34.9911 26.3919C34.9911 26.3919 34.872 26.369 34.8323 26.3633C34.6395 26.3231 34.4411 26.2829 34.237 26.2313C33.8515 26.1452 31.1301 25.4795 29.2647 23.0635C29.2534 23.0463 29.2421 23.0348 29.2307 23.0176C29.2251 23.0061 29.2137 22.9946 29.2081 22.9831C28.9416 22.6273 28.6921 22.2371 28.4823 21.8296C28.4256 21.801 28.3689 21.7723 28.3066 21.7378C28.2782 21.7206 28.2556 21.7091 28.2272 21.6919C28.1932 21.669 28.1592 21.646 28.1252 21.6231C28.0855 21.5944 28.0458 21.5714 28.0061 21.5427C27.9721 21.514 27.9267 21.4796 27.8814 21.4394C27.836 21.405 27.7963 21.3648 27.7623 21.3246C27.7113 21.273 27.6716 21.2271 27.6319 21.1754C27.5979 21.1353 27.5525 21.0779 27.5072 21.009C27.4561 20.9344 27.4165 20.8598 27.3938 20.8139C27.3711 20.768 27.3371 20.7106 27.3087 20.6417C27.2634 20.5384 27.2294 20.4351 27.2067 20.3204C27.201 20.2917 27.1897 20.263 27.184 20.2343C27.184 20.2285 27.1783 20.2171 27.1783 20.2113C27.099 19.7809 27.1443 19.3448 27.3201 18.8972C27.3427 18.834 27.3768 18.7709 27.4108 18.7078C27.4278 18.6733 27.4505 18.6446 27.4675 18.6102C27.4561 18.5299 27.4505 18.4438 27.4505 18.3634C27.4505 18.3462 27.4505 18.3233 27.4505 18.3061C27.4505 18.2257 27.4561 18.1454 27.4618 18.065C27.4675 18.0306 27.4675 18.0019 27.4731 17.9732C27.4788 17.9043 27.4958 17.8297 27.5128 17.7551C27.5185 17.7207 27.5298 17.692 27.5355 17.6576C27.5695 17.5313 27.6092 17.428 27.6489 17.3305C27.6999 17.2157 27.7623 17.1009 27.8303 16.9976C27.836 16.9862 27.8473 16.9747 27.853 16.9632C27.8587 16.9517 27.87 16.9402 27.8757 16.9288C27.9437 16.8369 28.0118 16.7509 28.0911 16.6705C28.0968 16.6648 28.1025 16.659 28.1025 16.659C28.1365 16.6303 28.1705 16.5959 28.2102 16.5615C28.2669 16.5098 28.3349 16.4582 28.42 16.4065C28.42 16.4065 28.4256 16.4065 28.4256 16.4008C27.4731 14.5013 27.6262 12.9805 27.9607 11.9934C27.9664 11.982 27.9721 11.9705 27.9721 11.9533C28.6921 9.98489 30.342 9.23311 31.5326 9.1872C31.5496 9.1872 31.5723 9.1872 31.5893 9.1872C31.6063 9.1872 31.6176 9.1872 31.6346 9.1872C31.7537 9.19294 31.8728 9.19868 31.9975 9.21016C31.9125 9.02652 31.8614 8.86009 31.8331 8.73958C31.6517 7.98207 31.8614 7.23029 32.383 6.76545C32.5304 6.63346 32.7062 6.52443 32.899 6.44408C33.1258 6.35226 33.3696 6.30061 33.619 6.30061C33.7608 6.30061 33.8968 6.31783 34.0386 6.34652C34.0953 6.29488 34.152 6.24897 34.2087 6.20306C34.2483 6.17436 34.2937 6.14567 34.3334 6.11698C34.3391 6.11124 34.3447 6.11124 34.3504 6.1055C34.4808 6.02516 34.6169 5.96203 34.7529 5.91612C34.7756 5.93334 34.7983 5.9276 34.821 5.92186C34.8153 5.91612 34.6225 5.68657 34.6169 5.68083C34.6169 5.68083 34.5318 5.57753 34.5262 5.56606C34.1633 5.08974 34.1009 4.447 34.3731 3.9133C34.6339 3.39107 35.1612 3.06396 35.7395 3.06396C35.7508 3.06396 35.7621 3.06396 35.7735 3.06396C36.9528 3.09266 44.4026 5.16434 44.4707 5.1873C45.134 5.38815 45.6046 5.87595 45.8144 6.13419C45.9788 6.31209 46.2963 6.69659 47.1694 7.81564L47.64 8.42395C47.657 8.4469 47.6797 8.46986 47.6967 8.49855L47.8781 8.73384C47.9008 8.7568 47.9178 8.77975 47.9348 8.80271L48.3544 9.34789C48.3657 9.35936 48.3714 9.37084 48.3827 9.38806C49.5223 10.8801 50.6165 12.3378 50.6279 12.3492C50.9737 12.8083 51.0361 13.4167 50.8036 13.9331C51.5293 14.7021 52.0906 15.8671 51.9943 17.3879C51.9943 17.3993 51.9943 17.4166 51.9886 17.428C51.9772 17.5371 51.9659 17.6518 51.9489 17.7666C51.9432 17.7953 51.9376 17.824 51.9376 17.847C51.9205 17.9503 51.9035 18.0363 51.8809 18.1282L51.8582 18.22C51.8355 18.3233 51.8072 18.4266 51.7731 18.5241C51.7675 18.5471 51.7618 18.57 51.7505 18.593C51.3026 19.999 50.2707 21.2386 48.7002 22.2715C48.6549 22.306 48.6038 22.3347 48.5528 22.3576C47.3792 22.9487 46.1092 23.2758 44.9696 23.2758C44.8165 23.2758 44.6691 23.2701 44.5274 23.2586C44.3743 23.425 44.2212 23.5857 44.0681 23.7349L44.0511 23.7521C43.915 23.8899 43.7733 24.0218 43.6316 24.1481L43.5635 24.2055C43.4388 24.3145 43.3141 24.4178 43.195 24.5154C43.195 24.5154 43.1213 24.5728 43.093 24.5957C43.0306 24.6474 42.9626 24.699 42.8945 24.7507C42.8378 24.7966 42.7755 24.8367 42.7188 24.8769C42.6337 24.94 42.5487 24.9974 42.4693 25.0491C42.4126 25.0893 42.3502 25.1294 42.2935 25.1639C42.2198 25.2098 42.1461 25.2557 42.0724 25.3016C41.9987 25.3475 41.925 25.3877 41.857 25.4278C41.806 25.4565 41.7549 25.4852 41.7039 25.5139C41.6189 25.5598 41.5281 25.6057 41.4431 25.6516C41.4318 25.6574 41.4204 25.6631 41.4034 25.6689C40.8138 25.9673 40.2014 26.1968 39.5721 26.3633C39.351 26.4264 39.1185 26.478 38.8861 26.5182L38.8181 26.5297C38.7614 26.5412 38.7103 26.5469 38.6536 26.5526C38.2624 26.6158 37.8486 26.6445 37.4233 26.6445Z" fill="white"/>
<path d="M31.5897 10.7539C31.8392 10.7596 32.083 10.7998 32.3211 10.8687C32.7293 10.972 33.1035 11.1786 33.4323 11.454C33.438 11.454 33.438 11.4598 33.438 11.4598C34.6286 12.4641 35.2977 14.398 35.2863 15.9475C35.2863 15.9475 33.7102 15.9876 33.2056 18.375C32.185 18.2544 31.0398 17.451 30.212 16.441C29.1008 14.7251 29.1008 13.4167 29.4069 12.5042C30.0136 10.8744 31.4083 10.7654 31.5897 10.7539Z" fill="#FCD9B7"/>
<path d="M30.6773 16.6764C29.566 14.9663 29.566 13.6521 29.8779 12.7396C30.4789 11.1041 31.8736 10.9893 32.0607 10.9836C32.3045 10.9893 32.5539 11.0295 32.7921 11.0984C32.8828 11.1213 32.9678 11.15 33.0529 11.1844C32.8261 11.0467 32.588 10.9377 32.3272 10.8745C32.0834 10.8057 31.8396 10.7655 31.5958 10.7598C31.4143 10.7655 30.0139 10.8745 29.4186 12.5158C29.1125 13.4283 29.1125 14.7367 30.2237 16.4526C30.8417 17.2101 31.6411 17.8471 32.4349 18.1742C31.7942 17.8127 31.1762 17.2847 30.6773 16.6764Z" fill="url(#paint0_radial_440_20652)"/>
<path d="M32.3955 15.89C32.3955 15.89 32.747 15.8498 32.6903 15.4424C32.6336 15.0349 32.4352 14.6103 32.764 14.5758C33.0872 14.5414 33.8356 14.9259 33.3877 13.8929C32.9398 12.86 31.46 11.827 30.774 12.5845C30.0879 13.342 30.8704 16.0277 32.3955 15.89Z" fill="#E08E62"/>
<path opacity="0.33" d="M31.5897 10.7539C31.8392 10.7596 32.083 10.7998 32.3211 10.8687C32.7293 10.972 33.1035 11.1786 33.4323 11.454C33.438 11.454 33.438 11.4598 33.438 11.4598C34.6286 12.4641 35.2977 14.398 35.2863 15.9475C35.2863 15.9475 33.7102 15.9876 33.2056 18.375C32.185 18.2544 31.0398 17.451 30.212 16.441C29.1008 14.7251 29.1008 13.4167 29.4069 12.5042C30.0136 10.8744 31.4083 10.7654 31.5897 10.7539Z" fill="url(#paint1_linear_440_20652)"/>
<path d="M42.0282 10.0826C40.4181 9.21607 39.1311 8.87175 37.7534 8.95783C37.7477 8.95783 37.742 8.95783 37.7363 8.95783C36.9483 9.03817 36.8122 8.76845 36.5004 8.33804C36.1829 7.91338 35.3948 6.93205 34.9582 7.65513C34.5273 8.38396 35.9334 9.30215 35.9334 9.30215C35.9334 9.30215 35.769 9.21607 35.5762 9.11278C35.2644 8.94061 34.8165 8.67089 34.5443 8.40691C34.0908 7.9765 33.6315 7.73548 33.3934 7.94781C33.1553 8.15441 33.2857 9.18738 34.9469 9.60057C34.9015 9.61778 34.8618 9.64074 34.8222 9.65796C34.8052 9.66369 34.7881 9.67517 34.7655 9.68665C34.5954 9.76699 34.3346 9.90472 34.0284 10.1113C33.9944 10.1343 33.9717 10.1515 33.9717 10.1515C33.4728 10.5016 32.8661 11.0295 32.3672 11.7985C32.1178 12.2002 31.9193 12.6191 31.7549 13.0266C31.409 13.985 31.239 15.1786 31.4317 16.6592C30.6947 16.9117 30.1107 17.9562 30.1107 17.9562C30.0313 17.8242 29.3226 17.3307 29.0505 17.9504C28.7783 18.5702 29.4133 19.2646 29.4133 19.2646C28.9768 19.0465 28.7443 19.4597 28.7443 19.4597C28.3758 20.4066 29.5721 20.5386 29.5721 20.5386C30.9725 23.9933 34.567 24.6992 34.567 24.6992C36.2112 25.0952 37.4982 25.1526 38.5017 24.9976C38.5074 24.9976 38.5188 24.9976 38.5244 24.9976C38.5528 24.9919 38.5811 24.9861 38.6151 24.9804C38.6718 24.9689 38.7342 24.9574 38.7909 24.946C38.8192 24.9402 38.8533 24.9345 38.8816 24.9287C38.9383 24.9173 38.9893 24.9058 39.046 24.8886C40.6845 24.4869 42.7086 23.4137 44.4945 20.7969C44.5909 20.6304 44.6873 20.464 44.7723 20.2918C46.2861 17.2446 45.963 12.2117 42.0282 10.0826Z" fill="#EB2227"/>
<path d="M40.7461 24.2626C41.812 23.7174 42.9402 22.8451 44.0061 21.4736L44.0798 19.7061C44.0798 19.7061 42.7191 22.782 41.0806 23.924C40.8822 24.0675 40.7801 24.1765 40.7461 24.2626Z" fill="url(#paint2_linear_440_20652)"/>
<path d="M30.3076 17.6689C30.4436 17.7435 30.5514 17.8296 30.5797 17.8755C30.5797 17.8755 31.158 16.8368 31.8951 16.5843C31.7023 15.098 31.8667 13.9043 32.2182 12.9459C32.3827 12.5328 32.5811 12.1196 32.8305 11.7179C33.3351 10.9489 33.9361 10.4209 34.4351 10.0708C34.4351 10.0708 34.4577 10.0536 34.4917 10.0307C34.7979 9.82407 35.0587 9.68634 35.2288 9.60026C35.2458 9.59452 35.2628 9.58304 35.2855 9.57156C35.3252 9.55435 35.3705 9.53139 35.4102 9.51417C33.8624 9.12968 33.647 8.21148 33.8114 7.9188C33.6413 7.86142 33.4939 7.86142 33.3862 7.95898C33.148 8.16557 33.2785 9.19854 34.9397 9.61173C34.8943 9.62895 34.8546 9.6519 34.8149 9.66912C34.7979 9.67486 34.7809 9.68634 34.7582 9.69781C34.5881 9.77816 34.3273 9.91589 34.0212 10.1225C33.9872 10.1454 33.9645 10.1627 33.9645 10.1627C33.4655 10.5127 32.8589 11.0407 32.36 11.8097C32.1105 12.2114 31.9121 12.6303 31.7477 13.0378C31.4018 13.9961 31.2317 15.1898 31.4245 16.6704C30.9482 16.8425 30.5344 17.3418 30.3076 17.6689ZM38.9764 24.917C37.9729 25.0719 36.6916 25.0088 35.0417 24.6185C35.0417 24.6185 31.4528 23.9127 30.0524 20.4637C30.0524 20.4637 28.8561 20.3317 29.2247 19.3848C29.2247 19.3848 29.2644 19.3217 29.3324 19.2528C28.9525 19.1323 28.7541 19.4766 28.7541 19.4766C28.3856 20.4235 29.5819 20.5555 29.5819 20.5555C30.9823 24.0102 34.5768 24.7161 34.5768 24.7161C36.221 25.1121 37.508 25.1695 38.5115 25.0145C38.5172 25.0145 38.5285 25.0145 38.5342 25.0145C38.5625 25.0088 38.5909 25.003 38.6249 24.9973C38.6816 24.9858 38.744 24.9743 38.8007 24.9629C38.829 24.9571 38.863 24.9514 38.8914 24.9456C38.9254 24.9399 38.9537 24.9284 38.9821 24.9227C38.9821 24.917 38.9764 24.917 38.9764 24.917ZM35.0134 8.32052C35.2855 8.57876 35.7334 8.84848 36.0452 9.02638C36.238 9.12394 36.4024 9.21576 36.4024 9.21576C36.4024 9.21576 34.9907 8.29182 35.4272 7.56874C35.4613 7.51709 35.4953 7.47692 35.5293 7.43675C35.3195 7.36215 35.1154 7.40232 34.9623 7.66056C34.8489 7.85568 34.8659 8.05653 34.9453 8.25739C34.968 8.28035 34.9907 8.29756 35.0134 8.32052ZM29.3664 19.2184C29.4741 19.1323 29.6499 19.0692 29.888 19.184C29.888 19.184 29.2473 18.4896 29.5195 17.8698C29.5535 17.7894 29.5989 17.7321 29.6442 17.6804C29.4231 17.623 29.185 17.6574 29.0546 17.9616C28.8278 18.4838 29.2247 19.0405 29.3664 19.2184Z" fill="url(#paint3_radial_440_20652)"/>
<path d="M41.1268 18.2832C41.2855 17.8413 43.0091 14.685 40.0382 13.2446C38.2409 12.3723 37.1184 12.8773 36.5117 13.411C36.0241 13.7439 35.871 13.3938 35.871 13.3938C35.6896 12.6478 35.185 12.2403 34.7938 12.0395C34.2835 11.787 33.3821 11.8673 32.6904 13.2963C31.9987 14.7252 31.9023 16.596 31.9023 16.596L31.6245 16.6305C30.7967 16.7452 30.1107 17.9733 30.1107 17.9733C30.0313 17.8413 29.3226 17.3478 29.0505 17.9676C28.7783 18.5874 29.4133 19.2818 29.4133 19.2818C28.9768 19.0637 28.7443 19.4769 28.7443 19.4769C28.3758 20.4238 29.5721 20.5558 29.5721 20.5558C30.9725 24.0105 34.567 24.7164 34.567 24.7164C40.1176 26.042 41.5293 23.603 42.102 21.7666C42.6803 19.9245 41.1268 18.2832 41.1268 18.2832Z" fill="#FCD9B7"/>
<path d="M40.0317 13.2443C38.2344 12.372 37.1118 12.877 36.5052 13.4107C36.4031 13.4853 36.3124 13.5197 36.2387 13.5427C36.2727 13.6403 36.3067 13.7378 36.3294 13.8526C36.3294 13.8526 36.4711 14.2084 36.9644 13.887C37.5881 13.3705 38.722 12.9057 40.4909 13.8354C40.9161 14.0592 41.2393 14.3174 41.4831 14.5929C41.2336 14.0821 40.7857 13.6058 40.0317 13.2443ZM41.4888 18.7535C41.4604 18.8166 41.4321 18.8682 41.4207 18.9027C41.4207 18.9027 41.7722 19.3044 42.0671 19.9242C41.9196 19.4479 41.6872 19.0461 41.4888 18.7535ZM29.6733 20.7678C29.8944 21.2556 30.1552 21.6917 30.45 22.0705C30.2062 21.6917 29.9908 21.267 29.815 20.7965C29.815 20.7965 29.7583 20.7907 29.6733 20.7678ZM32.6895 13.2902C31.9978 14.7191 31.9014 16.59 31.9014 16.59L31.6236 16.6244C30.7958 16.7392 30.1098 17.9673 30.1098 17.9673C30.0304 17.8353 29.3217 17.3417 29.0496 17.9615C28.7775 18.5813 29.4125 19.2757 29.4125 19.2757C28.9759 19.0576 28.7434 19.4708 28.7434 19.4708C28.5563 19.9471 28.7661 20.2169 29.0269 20.3718C28.9192 20.2111 28.8852 19.9873 29.0156 19.6889C29.0156 19.6889 29.2537 19.2872 29.6903 19.5167C29.6903 19.5167 29.0723 18.8051 29.3671 18.1911C29.6563 17.577 30.0475 18.1165 30.1212 18.2485C30.1212 18.2485 31.0226 16.9515 31.9751 16.9343L32.2529 16.9056C32.2529 16.9056 32.4117 15.0405 33.1487 13.6345C33.8858 12.2285 34.7873 12.1769 35.2862 12.4466C35.3315 12.4753 35.3826 12.504 35.4336 12.5327C35.2295 12.2916 34.9914 12.131 34.7873 12.0277C34.2827 11.7866 33.3812 11.8612 32.6895 13.2902Z" fill="url(#paint4_radial_440_20652)"/>
<path d="M45.5873 16.0448C45.4626 13.8698 44.5327 11.6948 42.4803 10.3691C41.7943 10.461 41.1933 10.9545 42.0778 11.7522C44.6348 14.0706 42.7014 18.1968 42.7014 18.1968C42.7014 18.1968 44.6745 16.4981 45.5873 16.0448Z" fill="url(#paint5_linear_440_20652)"/>
<path d="M49.0117 14.4898C48.7565 14.3865 48.4844 14.3119 48.2066 14.2718C47.7417 14.1914 47.2654 14.2316 46.8062 14.3636C46.8005 14.3636 46.8005 14.3636 46.7948 14.3636C45.1166 14.8456 43.5688 16.5271 42.8828 18.1225C42.8828 18.1225 44.4873 18.8915 43.926 21.5715C45.0259 21.9158 46.5681 21.6231 47.8721 20.9631C49.7827 19.7121 50.3724 18.3635 50.4631 17.2903C50.5822 15.3334 49.1988 14.5817 49.0117 14.4898Z" fill="#FCD9B7"/>
<path d="M45.8878 19.3908C45.8878 19.3908 45.5476 19.1842 45.7857 18.794C46.0239 18.398 46.4207 18.0537 46.0976 17.87C45.7801 17.6864 44.8389 17.738 45.7631 16.883C46.6872 16.0279 48.6659 15.6491 49.0344 16.7395C49.3973 17.8356 47.3902 20.2344 45.8878 19.3908Z" fill="#E08E62"/>
<path d="M47.1973 18.1456C46.9592 18.7424 46.6133 19.1958 46.2788 19.5343C46.1427 19.5057 46.0123 19.4597 45.8819 19.3851C45.8819 19.3851 45.5418 19.1785 45.7799 18.7883C46.018 18.3923 46.4149 18.048 46.0917 17.8644C45.7742 17.6807 44.8331 17.7324 45.7572 16.8773C45.9443 16.7051 46.1711 16.5559 46.4205 16.4297C46.9592 16.6248 47.6338 17.0782 47.1973 18.1456Z" fill="#603A17"/>
<path d="M46.5907 15.058C46.5907 15.058 46.5964 15.058 46.6021 15.058C47.067 14.926 47.5376 14.8916 48.0025 14.9662C48.2803 15.0063 48.5524 15.0752 48.8076 15.1842C48.9947 15.2761 50.378 16.0336 50.259 17.9905C50.2476 18.1167 50.2306 18.2545 50.2023 18.3864C50.3554 18.002 50.4347 17.6347 50.4631 17.2961C50.5822 15.3392 49.1988 14.5817 49.0117 14.4898C48.7565 14.3865 48.4844 14.3119 48.2066 14.2718C47.7417 14.1914 47.2654 14.2316 46.8062 14.3636C46.8005 14.3636 46.8005 14.3636 46.7948 14.3636C45.1166 14.8456 43.5688 16.5271 42.8828 18.1225C42.8828 18.1225 42.9282 18.1454 42.9905 18.1856C43.7729 16.7968 45.1337 15.4769 46.5907 15.058Z" fill="url(#paint6_radial_440_20652)"/>
<path opacity="0.43" d="M49.0117 14.4898C48.7565 14.3865 48.4844 14.3119 48.2066 14.2718C47.7417 14.1914 47.2654 14.2316 46.8062 14.3636C46.8005 14.3636 46.8005 14.3636 46.7948 14.3636C45.1166 14.8456 43.5688 16.5271 42.8828 18.1225C42.8885 18.1225 44.4873 18.8915 43.926 21.5715C45.0259 21.9158 46.5681 21.6231 47.8721 20.9631C49.7827 19.7121 50.3724 18.3635 50.4631 17.2903C50.5822 15.3334 49.1988 14.5817 49.0117 14.4898Z" fill="url(#paint7_radial_440_20652)"/>
<path d="M35.7402 4.61914C35.7402 4.61914 37.6622 7.05237 40.6728 8.94615C43.6834 10.8399 46.4558 12.2517 49.404 13.2961C49.404 13.2961 45.3332 7.89022 44.6529 7.14993C44.6529 7.14993 44.3637 6.77691 44.0406 6.67935C43.7231 6.58179 36.5963 4.63636 35.7402 4.61914Z" fill="#49494B"/>
<path d="M43.587 7.10975C43.587 7.10975 46.5295 9.84139 47.1985 10.5874C47.3176 10.7194 47.2779 10.5932 47.1418 10.3005C46.0816 8.91746 44.9817 7.49999 44.6585 7.14993C44.6585 7.14993 44.3694 6.77691 44.0462 6.67935C43.7231 6.58179 36.5963 4.63636 35.7402 4.61914C35.7402 4.61914 36.3072 5.34222 37.3107 6.30059C37.4071 6.3465 37.4638 6.3752 37.4638 6.3752C37.4638 6.3752 37.1009 5.66933 37.0499 5.57751C37.0102 5.47995 41.9541 6.67935 43.587 7.10975Z" fill="url(#paint8_linear_440_20652)"/>
<path d="M40.2012 7.4082L37.4004 8.98636C37.4004 8.98636 38.0411 10.8572 40.5357 11.9648C43.0303 13.0781 44.8503 13.0322 44.8503 13.0322L45.2018 10.2891C45.2018 10.2891 43.1947 7.76401 40.2012 7.4082Z" fill="#4E4C50"/>
<path d="M44.1416 9.35937C44.1416 9.35937 43.9375 9.10113 43.5292 8.75681C42.6788 8.15424 41.5392 7.56315 40.2012 7.4082L37.4004 8.98636C37.4004 8.98636 37.7179 9.91029 38.7724 10.8457C38.8291 10.8514 38.8632 10.8572 38.8632 10.8572L38.1828 9.37659L40.2352 8.15424C40.2352 8.15424 42.367 8.2231 44.1416 9.35937Z" fill="url(#paint9_linear_440_20652)"/>
<path opacity="0.78" d="M44.8501 13.032L45.2017 10.2889C45.2017 10.2889 44.9125 9.92163 44.3852 9.45105L44.3342 9.44531L43.3193 11.7236C42.9225 12.6074 41.7148 12.4237 41.7148 12.4237L42.7581 12.7566C42.7581 12.7566 42.9565 12.8082 43.3477 12.8656C44.2832 13.0435 44.8501 13.032 44.8501 13.032Z" fill="url(#paint10_linear_440_20652)"/>
<path opacity="0.78" d="M45.3451 10.249L47.165 10.5933L49.0246 13.0036C49.0246 13.0036 45.946 11.8272 45.209 11.3336L45.3451 10.249Z" fill="url(#paint11_linear_440_20652)"/>
<path opacity="0.65" d="M41.789 21.6978C41.789 21.6978 41.1767 24.7163 37.7012 24.7163C37.7012 24.7106 40.1845 24.3777 41.789 21.6978Z" fill="url(#paint12_radial_440_20652)"/>
<path d="M37.3672 19.7351C37.3672 19.7351 38.5295 18.0996 40.7576 19.2473C40.7576 19.2473 39.0397 18.8571 37.3672 19.7351Z" fill="url(#paint13_radial_440_20652)"/>
<path opacity="0.43" d="M41.1268 18.2832C41.2855 17.8413 43.0091 14.685 40.0382 13.2446C38.2409 12.3723 37.1184 12.8773 36.5117 13.411C36.0241 13.7439 35.871 13.3938 35.871 13.3938C35.6896 12.6478 35.185 12.2403 34.7938 12.0395C34.2835 11.787 33.3821 11.8673 32.6904 13.2963C31.9987 14.7252 31.9023 16.596 31.9023 16.596L31.6245 16.6305C30.7967 16.7452 30.1107 17.9733 30.1107 17.9733C30.0313 17.8413 29.3226 17.3478 29.0505 17.9676C28.7783 18.5874 29.4133 19.2818 29.4133 19.2818C28.9768 19.0637 28.7443 19.4769 28.7443 19.4769C28.3758 20.4238 29.5721 20.5558 29.5721 20.5558C30.9725 24.0105 34.567 24.7164 34.567 24.7164C40.1176 26.042 41.5293 23.603 42.102 21.7666C42.6803 19.9245 41.1268 18.2832 41.1268 18.2832Z" fill="url(#paint14_radial_440_20652)"/>
<path d="M39.1297 14.3348C38.9199 14.0593 38.6647 13.979 38.4606 13.979C38.0524 13.979 37.888 14.1971 37.8483 14.2545C37.837 14.2717 37.8313 14.2832 37.8256 14.3004C37.7406 14.5586 37.9334 14.6906 38.0638 14.5644C38.1488 14.484 38.2962 14.4209 38.4493 14.3979C38.5457 14.3922 38.7838 14.4094 38.9426 14.6217C38.9482 14.6275 38.9596 14.639 38.9652 14.6504C38.9709 14.6619 38.9822 14.6734 38.9879 14.6791C39.0673 14.7939 39.1353 14.8972 39.1523 14.9202C39.192 14.9603 39.2374 14.9087 39.2374 14.9087C39.2827 14.6677 39.2317 14.484 39.1297 14.3348Z" fill="#603A17"/>
<path d="M33.8962 13.2157C34.157 13.0378 34.3781 13.0608 34.5425 13.1411C34.8544 13.296 34.8997 13.56 34.9054 13.6289C34.9054 13.6461 34.9111 13.6633 34.9054 13.6805C34.877 13.9445 34.6786 13.9962 34.6219 13.8355C34.5879 13.7264 34.4972 13.6117 34.3838 13.5371C34.3157 13.4969 34.123 13.4223 33.9245 13.56C33.9132 13.5658 33.9075 13.5715 33.8962 13.5772C33.8849 13.583 33.8735 13.5945 33.8678 13.5945C33.7658 13.6691 33.6751 13.7437 33.6524 13.7551C33.607 13.7781 33.5957 13.715 33.5957 13.715C33.6581 13.4682 33.7658 13.3133 33.8962 13.2157Z" fill="#603A17"/>
<path d="M39.2559 17.7953C38.91 18.6963 38.0369 19.1898 37.3055 18.9086C36.5798 18.6217 36.268 17.6575 36.6138 16.7566C36.9597 15.8556 37.8328 15.362 38.5642 15.649C39.2899 15.9302 39.6017 16.8943 39.2559 17.7953Z" fill="url(#paint15_radial_440_20652)"/>
<path opacity="0.13" d="M39.3277 17.7897C38.9535 18.7424 38.0294 19.2703 37.2526 18.9662C36.4759 18.662 36.1527 17.6463 36.5212 16.6879C36.8898 15.7353 37.8196 15.2073 38.5963 15.5057C39.3674 15.8156 39.6962 16.8371 39.3277 17.7897Z" fill="url(#paint16_linear_440_20652)"/>
<path opacity="0.13" d="M34.889 16.6129C34.4864 17.3704 33.704 17.6401 33.1484 17.2212C32.5871 16.8023 32.468 15.8496 32.8706 15.0921C33.2731 14.3346 34.0555 14.0649 34.6112 14.4838C35.1611 14.9085 35.2858 15.8554 34.889 16.6129Z" fill="url(#paint17_linear_440_20652)"/>
<path d="M34.997 16.1249C34.8155 16.9513 34.1692 17.5137 33.5512 17.3875C32.9332 17.2612 32.576 16.4865 32.7518 15.6601C32.9332 14.8337 33.5796 14.2713 34.1976 14.3976C34.8155 14.5296 35.1727 15.2986 34.997 16.1249Z" fill="url(#paint18_radial_440_20652)"/>
<path d="M34.6792 16.3375C34.5488 16.7278 34.1973 16.9631 33.9025 16.8598C33.6076 16.7565 33.4716 16.3548 33.6076 15.9645C33.738 15.5743 34.0896 15.339 34.3844 15.4423C34.6792 15.5456 34.8096 15.9473 34.6792 16.3375Z" fill="url(#paint19_radial_440_20652)"/>
<path d="M34.5205 16.3548C34.4184 16.6532 34.1633 16.8311 33.9479 16.7565C33.7324 16.6819 33.636 16.3778 33.7381 16.0793C33.8401 15.7809 34.0953 15.603 34.3107 15.6776C34.5262 15.7522 34.6226 16.0564 34.5205 16.3548Z" fill="#341718"/>
<path d="M34.0548 15.9241C34.0038 16.0217 33.8961 16.0676 33.8167 16.0217C33.7373 15.9757 33.709 15.861 33.76 15.7634C33.811 15.6659 33.9188 15.6199 33.9981 15.6659C34.0832 15.7118 34.1059 15.8265 34.0548 15.9241Z" fill="white"/>
<path d="M34.4072 16.6473C34.3675 16.7276 34.2881 16.762 34.2314 16.7276C34.1747 16.6932 34.1577 16.6071 34.1974 16.5267C34.2371 16.4464 34.3165 16.412 34.3732 16.4464C34.4299 16.4808 34.4469 16.5669 34.4072 16.6473Z" fill="white"/>
<path d="M35.5081 19.6489C35.6271 19.471 35.7915 19.1611 35.6044 19.075C35.423 18.989 35.1792 19.2931 35.0488 19.494L35.5081 19.6489Z" fill="#603A17"/>
<path d="M33.8691 19.1095C33.8805 18.8914 33.9258 18.5471 34.1243 18.593C34.3227 18.6332 34.3397 19.0234 34.3284 19.2645L33.8691 19.1095Z" fill="#603A17"/>
<path d="M39.2559 17.7953C38.91 18.6963 38.0369 19.1898 37.3055 18.9086C36.5798 18.6217 36.268 17.6575 36.6138 16.7566C36.9597 15.8556 37.8328 15.362 38.5642 15.649C39.2899 15.9302 39.6017 16.8943 39.2559 17.7953Z" fill="url(#paint20_radial_440_20652)"/>
<path d="M38.8358 17.9672C38.6147 18.3862 38.1555 18.5698 37.8153 18.3862C37.4751 18.2025 37.373 17.7147 37.5998 17.3015C37.8209 16.8826 38.2802 16.699 38.6204 16.8826C38.9605 17.0605 39.0569 17.5483 38.8358 17.9672Z" fill="url(#paint21_radial_440_20652)"/>
<path d="M38.7113 17.9275C38.5469 18.2374 38.2067 18.3751 37.9459 18.2374C37.6908 18.0997 37.6171 17.7381 37.7872 17.4282C37.9516 17.1183 38.2918 16.9806 38.5526 17.1183C38.802 17.2503 38.8757 17.6176 38.7113 17.9275Z" fill="#341718"/>
<path d="M38.1487 17.3533C38.075 17.4566 37.9389 17.4853 37.8482 17.4164C37.7575 17.3475 37.7462 17.2098 37.8199 17.1065C37.8936 17.0032 38.0296 16.9803 38.1204 17.0491C38.2167 17.1123 38.2281 17.25 38.1487 17.3533Z" fill="white"/>
<path d="M38.461 18.2546C38.3986 18.3349 38.2965 18.3579 38.2342 18.3062C38.1661 18.2546 38.1661 18.1513 38.2228 18.0709C38.2795 17.9906 38.3873 17.9676 38.4496 18.0193C38.512 18.0709 38.5177 18.18 38.461 18.2546Z" fill="white"/>
<path d="M49.4097 13.2904C49.4097 13.2904 45.3389 7.88449 44.6585 7.14419C44.6585 7.14419 44.3694 6.77117 44.0462 6.67361C43.7231 6.58179 36.5963 4.63636 35.7402 4.61914C35.7402 4.61914 37.0669 6.29485 39.2441 7.94761L37.4014 8.98632C37.4014 8.98632 38.0421 10.8572 40.5367 11.9647C43.0314 13.078 44.8513 13.0321 44.8513 13.0321L45.0554 11.431C46.4955 12.1541 47.9299 12.7682 49.4097 13.2904Z" fill="url(#paint22_radial_440_20652)"/>
<path opacity="0.43" d="M45.8878 19.3908C45.8878 19.3908 45.5476 19.1842 45.7857 18.794C46.0239 18.398 46.4207 18.0537 46.0976 17.87C45.7801 17.6864 44.8389 17.738 45.7631 16.883C46.6872 16.0279 48.6659 15.6491 49.0344 16.7395C49.3973 17.8356 47.3902 20.2344 45.8878 19.3908Z" fill="url(#paint23_linear_440_20652)"/>
<path opacity="0.9" d="M33.6358 17.9328C32.8818 16.9801 32.5076 16.9515 32.0143 16.8022L31.5664 17.0203C32.5926 16.9515 33.6358 17.9328 33.6358 17.9328Z" fill="url(#paint24_linear_440_20652)"/>
<path opacity="0.42" d="M44.5163 20.969C44.4993 21.0723 44.4936 21.2502 44.4199 21.3879C46.2285 21.5945 47.4362 20.6074 47.4362 20.6074C46.3873 20.9747 45.3497 21.0149 44.5163 20.969Z" fill="url(#paint25_linear_440_20652)"/>
<path opacity="0.27" d="M29.7188 19.603C29.7188 19.603 32.8711 23.2471 36.9759 22.1855C36.9759 22.1797 32.8314 22.3347 29.7188 19.603Z" fill="url(#paint26_linear_440_20652)"/>
<path d="M46.4088 9.35352C46.3125 10.6103 46.2955 11.9819 46.6186 12.682L46.9418 12.7394C46.9418 12.7394 46.5392 12.1253 46.681 9.6921L46.4088 9.35352Z" fill="url(#paint27_linear_440_20652)"/>
<path d="M46.4947 13.9558L46.3359 12.9228C46.3359 12.9228 46.387 12.6932 46.489 12.6588C46.5911 12.6244 46.8802 12.4293 46.8802 12.4293C46.8802 12.4293 47.124 12.3489 47.1977 12.5096C47.2714 12.6646 47.691 13.3532 47.691 13.3532C47.691 13.3532 47.7023 13.5311 47.6059 13.5885C47.5039 13.6344 46.6024 14.1165 46.4947 13.9558Z" fill="url(#paint28_linear_440_20652)"/>
<path d="M46.6072 13.9962L46.4824 15.4137C46.4824 15.4137 47.0324 15.6432 47.554 15.4538C48.0756 15.2587 48.4328 14.9603 48.3817 14.8513C48.3364 14.7422 47.5937 13.583 47.5937 13.583L46.6072 13.9962Z" fill="url(#paint29_linear_440_20652)"/>
<path d="M46.4727 12.6875L46.9943 13.6975L46.5578 13.8812L46.416 12.8597L46.4727 12.6875Z" fill="url(#paint30_linear_440_20652)"/>
<path d="M46.8906 15.4999L46.9133 15.5171C46.9757 15.5229 47.0437 15.5286 47.1174 15.5286L46.8963 14.0824L46.8906 15.4999ZM47.4179 15.4942C47.4633 15.4827 47.5143 15.4712 47.5596 15.454C47.5937 15.4368 47.6333 15.4253 47.6674 15.4081L47.6844 15.3736L47.0947 14.0824L47.4179 15.4942ZM47.6107 13.939L48.1096 15.0752L48.1209 15.1671C48.2116 15.1039 48.2797 15.0465 48.325 14.9949L47.6107 13.939ZM47.8375 15.3335C47.9168 15.2933 47.9905 15.2531 48.0529 15.213L47.3669 14.071L47.8375 15.3335Z" fill="url(#paint31_radial_440_20652)"/>
<path opacity="0.88" d="M46.4608 9.4165C46.4608 9.4165 46.3134 11.0578 46.4948 11.7522C46.4948 11.7522 46.4551 10.0707 46.5402 9.53702L46.4608 9.4165Z" fill="url(#paint32_linear_440_20652)"/>
<path opacity="0.43" d="M48.3882 14.8514C48.3428 14.7423 47.6001 13.5831 47.6001 13.5831C47.6965 13.5257 47.6851 13.3478 47.6851 13.3478C47.6851 13.3478 47.2656 12.6649 47.1919 12.5042C47.1182 12.3436 46.8744 12.4239 46.8744 12.4239C46.8744 12.4239 46.5852 12.619 46.4832 12.6534C46.3811 12.6879 46.3301 12.9174 46.3301 12.9174L46.4888 13.9504C46.5115 13.9848 46.5682 13.9848 46.6476 13.9734L46.6079 13.9906L46.4832 15.408C46.4832 15.408 47.0331 15.6376 47.5547 15.4482C48.082 15.2588 48.4335 14.9662 48.3882 14.8514Z" fill="url(#paint33_radial_440_20652)"/>
<path d="M39.981 21.422C38.0249 22.2369 36.1426 22.2426 34.5155 21.8925C34.249 21.8351 33.9882 21.7605 33.733 21.6859C33.3192 21.5597 32.9393 21.422 32.5878 21.2842C32.5821 21.2842 32.5821 21.2785 32.5764 21.2785C32.4177 21.2154 32.2703 21.1465 32.1229 21.0834C32.0889 21.0661 32.0605 21.0547 32.0265 21.0432C30.5637 20.3545 29.7133 19.5798 29.3391 19.1896C29.3221 19.1781 29.3164 19.1724 29.3164 19.1724C29.3164 19.1724 30.1385 20.3144 32.1569 21.267C32.1852 21.2842 32.2193 21.2957 32.2476 21.3129C32.3893 21.376 32.5368 21.4449 32.6898 21.508C32.6955 21.508 32.6955 21.5138 32.7012 21.5138C33.0413 21.6572 33.4155 21.7892 33.8181 21.9097C34.0676 21.9843 34.317 22.0532 34.5835 22.1049C36.171 22.4434 38.0136 22.432 39.9299 21.5999C40.0036 21.5712 40.032 21.4851 40.0036 21.4105C39.998 21.4105 39.9923 21.4162 39.981 21.422Z" fill="#603A17"/>
<path d="M39.9857 20.8022C39.9857 20.8022 39.3847 21.686 40.53 21.9385C40.53 21.9443 39.7816 21.5712 39.9857 20.8022Z" fill="#603A17"/>
<path d="M60.9253 38.92C60.9253 39.0118 60.8516 39.0864 60.7609 39.0864C60.6702 39.0864 60.6021 39.0118 60.6021 38.92V37.9559H60.364C60.279 37.9559 60.2109 37.887 60.2109 37.8009C60.2109 37.7149 60.279 37.646 60.364 37.646H61.1634C61.2485 37.646 61.3165 37.7149 61.3165 37.8009C61.3165 37.8928 61.2485 37.9559 61.1634 37.9559H60.9253V38.92Z" fill="#4E4C50"/>
<path d="M61.8844 38.6902L61.7257 38.432V38.9312C61.7257 39.0231 61.652 39.0977 61.567 39.0977C61.4762 39.0977 61.4082 39.0231 61.4082 38.9312V37.7777C61.4082 37.7089 61.4592 37.6572 61.5273 37.6572C61.5726 37.6572 61.6066 37.6802 61.6293 37.7146L62.0772 38.4492L62.5251 37.7146C62.5478 37.6802 62.5875 37.6572 62.6272 37.6572C62.6952 37.6572 62.7462 37.7089 62.7462 37.7777V38.9312C62.7462 39.0231 62.6725 39.0977 62.5818 39.0977C62.4911 39.0977 62.4231 39.0231 62.4231 38.9312V38.432L62.2643 38.6902C62.2246 38.7533 62.1566 38.7992 62.0772 38.7992C61.9922 38.7992 61.9241 38.7533 61.8844 38.6902Z" fill="#4E4C50"/>
<path d="M24.9903 36.5669C24.9847 36.5324 24.979 36.498 24.9676 36.4636C24.962 36.4521 24.962 36.4406 24.9563 36.4291C24.9506 36.4119 24.945 36.3947 24.9336 36.3775C24.9166 36.3373 24.8939 36.3029 24.8713 36.2685C24.8713 36.2685 24.8656 36.2627 24.8656 36.257C24.8429 36.2226 24.8259 36.1939 24.8032 36.1709C24.7976 36.1652 24.7976 36.1594 24.7919 36.1537C24.7919 36.1479 24.7862 36.1479 24.7862 36.1422C24.7862 36.1365 24.7805 36.1365 24.7749 36.1307C24.6105 35.8954 24.2703 35.4134 24.0832 35.0748C24.0775 35.0633 24.0718 35.0576 24.0662 35.0461C24.0605 35.0346 24.0548 35.0289 24.0492 35.0174C23.8961 34.7305 23.7827 34.5067 23.7827 34.5067C23.76 34.455 23.7373 34.3976 23.7147 34.346C23.5332 33.9443 23.3858 33.5598 23.2668 33.204C22.9606 32.2112 22.7395 30.6617 22.7395 30.6617C22.7168 30.4609 22.6998 30.3117 22.6941 30.2715C22.6714 30.0936 22.6488 29.9329 22.6148 29.7779C22.4106 28.722 21.9854 28.1481 21.3221 28.0276C21.2484 28.0162 21.169 28.0047 21.0953 28.0047C20.5453 28.0047 20.0011 28.3892 19.4738 29.1409C19.0089 29.8181 18.5099 31.0519 18.2548 31.7234L17.5688 33.5655C17.5461 33.6229 17.4837 33.8008 17.3363 33.8008C17.2626 33.8008 17.1662 33.7549 17.0925 33.5426C17.0075 33.2499 16.9451 32.9515 16.8998 32.6932C16.8941 32.676 16.5936 30.8511 16.1117 27.6718C15.8452 25.9043 15.1705 24.9574 14.1273 24.9287C12.761 24.9287 11.6951 26.7479 10.9523 30.3346C9.79574 35.9069 11.1961 39.4994 11.2528 39.6486C11.3776 39.9527 11.6497 40.1651 11.9729 40.2052C12.0069 40.211 12.0409 40.211 12.0749 40.211C12.1883 40.211 12.3017 40.188 12.4094 40.1479C12.8573 39.9642 13.0784 39.4362 12.897 38.9829C12.8857 38.9485 11.6497 35.7003 12.6872 30.7076C13.0728 28.8425 13.4923 27.8268 13.7815 27.2988C13.8438 27.2013 13.9176 27.1553 13.9969 27.1553C14.1613 27.1553 14.2294 27.3447 14.2577 27.4193C14.2917 27.5685 14.3314 27.7407 14.3598 27.9473C14.8417 31.1266 15.1535 32.9802 15.1535 32.9916C15.3973 34.4378 15.9416 36.1824 17.1436 36.3144C17.1889 36.3201 17.2343 36.3201 17.2796 36.3201C18.4249 36.3201 19.0089 34.7821 19.23 34.2025L19.9444 32.2915C20.1541 31.7234 20.3866 31.2126 20.5453 30.8798C20.619 30.7306 20.6984 30.6617 20.7835 30.6617C20.8912 30.6617 20.9592 30.7535 20.9762 30.9372C20.9819 31.0233 20.9932 31.1151 20.9932 31.2126L20.9989 31.2585C21.0046 31.3446 21.1747 32.8883 21.9627 34.7707C21.9741 34.7993 21.9854 34.828 21.9968 34.8625V34.8682C22.0591 35.0174 22.1442 35.2125 22.2462 35.4363C22.5524 36.0906 23.023 37.0432 23.5389 37.4392C23.6013 37.4851 23.6636 37.531 23.726 37.5654C23.8394 37.6171 23.9585 37.6458 24.0889 37.6458C24.5878 37.6458 24.996 37.2326 24.996 36.7276C24.996 36.6817 24.9903 36.6357 24.9847 36.5956C24.9903 36.5841 24.9903 36.5784 24.9903 36.5669ZM28.6869 30.0649C26.6118 30.0649 24.9336 31.7636 24.9336 33.8639C24.9336 35.9586 26.6118 37.663 28.6869 37.663C30.7563 37.663 32.4402 35.9643 32.4402 33.8639C32.4402 31.7636 30.7563 30.0649 28.6869 30.0649ZM30.2744 34.478C29.7188 35.1666 29.0328 35.6142 28.6926 35.8151C28.3524 35.6142 27.6664 35.1666 27.1108 34.478C26.334 33.5196 26.8046 32.4063 27.6154 32.4235C28.3751 32.4407 28.6983 33.1868 28.6983 33.1868C28.6983 33.1868 28.6983 33.1868 28.6983 33.181V33.1868C28.6983 33.1868 29.0214 32.4407 29.7812 32.4235C30.5806 32.4063 31.0455 33.5196 30.2744 34.478ZM54.1208 35.7635C54.1152 35.4995 54.0074 35.2584 53.8203 35.0805C53.6956 34.96 53.5425 34.8797 53.3781 34.8395C53.3101 34.8223 53.2364 34.8166 53.1683 34.8166C52.9019 34.8166 52.6524 34.9313 52.471 35.1265C52.1308 35.4937 51.6545 35.7061 51.1613 35.7061C51.0309 35.7061 50.9005 35.6889 50.7644 35.6602C50.2995 35.5511 49.9026 35.2584 49.6475 34.8453C49.3924 34.4321 49.313 33.9385 49.415 33.4622C49.6021 32.6358 50.3335 32.0333 51.1613 32.0333C51.2974 32.0333 51.4278 32.0505 51.5582 32.0792C51.7849 32.1308 52.0117 32.2341 52.2158 32.3891C52.2725 32.4407 52.4426 32.6186 52.3803 32.7965C52.3009 33.0318 51.8587 33.1753 51.0819 33.2155L51.0479 33.2212L50.9685 33.2441C50.6907 33.3188 50.4979 33.577 50.4979 33.8697C50.4979 34.214 50.7587 34.4952 51.0933 34.5181H51.1103L51.2066 34.5124C51.337 34.5067 54.41 34.3001 54.4667 32.8941V32.831C54.4894 32.5612 54.4553 32.2858 54.3646 32.0275C54.3533 31.9931 54.3419 31.9587 54.3249 31.9242L54.2739 31.8267C54.2682 31.8152 54.2626 31.8037 54.2456 31.775C54.2002 31.7004 54.1662 31.643 54.1378 31.6143L54.0981 31.5742C53.5709 30.8626 52.8168 30.3633 51.9777 30.1682C51.7112 30.1051 51.4334 30.0764 51.1556 30.0764C49.4434 30.0764 47.9296 31.3159 47.5497 33.0261C47.3286 34.0131 47.4987 35.0289 48.026 35.8897C48.5533 36.7505 49.3754 37.3473 50.3335 37.5712C50.6 37.6343 50.8778 37.663 51.1499 37.663C52.1705 37.663 53.157 37.2268 53.8544 36.4693C54.0358 36.2742 54.1322 36.0274 54.1208 35.7635ZM61.9222 30.0878C61.8825 30.0821 61.8485 30.0821 61.7862 30.0821C61.7805 30.0821 61.7748 30.0821 61.7691 30.0821C61.3156 30.1051 60.9414 30.4494 60.8847 30.9142C60.8563 31.1093 60.5899 32.8654 59.2065 34.742L59.0307 34.9772L58.8833 35.115L58.8209 34.9199C58.4581 33.7721 57.7551 32.062 56.4794 30.4322C56.3036 30.2084 56.0372 30.0764 55.748 30.0821C55.5439 30.0821 55.3511 30.151 55.1867 30.283C54.9939 30.4379 54.8749 30.656 54.8465 30.9027C54.8182 31.1495 54.8862 31.3905 55.0393 31.5857C56.6892 33.686 57.2221 35.9758 57.2788 36.234L57.3468 36.653L57.0747 36.8596L56.9897 36.9284L56.9783 36.9227C55.6403 37.8925 54.0301 38.6041 52.1818 39.0345C51.938 39.0919 51.7339 39.2411 51.5978 39.4535C51.4674 39.6658 51.4221 39.9183 51.4788 40.1651C51.5808 40.6012 51.955 40.8996 52.3973 40.8996H52.4313C52.488 40.8996 52.5447 40.8881 52.5957 40.8767C61.7521 38.7476 62.6933 31.4422 62.7273 31.1323C62.7953 30.6215 62.4268 30.151 61.9222 30.0878ZM44.4088 33.5483L44.5108 33.4507C45.2309 32.7736 45.9963 32.1997 46.7957 31.7521C47.2379 31.4996 47.3967 30.9372 47.1529 30.4896C46.9884 30.1969 46.6823 30.0132 46.3478 30.0132C46.1947 30.0132 46.0359 30.0534 45.8999 30.128C44.851 30.7248 43.8531 31.4881 42.9347 32.4063L42.9177 32.4235L42.895 32.435L42.7079 32.5268V31.0175C42.7079 30.4953 42.2883 30.0706 41.7724 30.0706C41.2565 30.0706 40.8369 30.4953 40.8369 31.0175V36.6931C40.8369 37.2154 41.2565 37.64 41.7724 37.64C42.2883 37.64 42.7079 37.2154 42.7079 36.6931V34.9371L42.7249 34.8567L42.7759 34.8166L42.861 34.7707H42.895C42.9517 34.7707 43.0084 34.7993 43.0651 34.851L46.3138 37.9499C46.4895 38.1163 46.7163 38.2082 46.9544 38.2082C47.2096 38.2082 47.459 38.0991 47.6348 37.9097C47.8049 37.7261 47.8956 37.4851 47.8899 37.2326C47.8842 36.9801 47.7765 36.7448 47.5951 36.5726L44.4088 33.5483ZM38.9036 30.0821C38.3876 30.0821 37.9681 30.5068 37.9681 31.029V34.6387L37.73 34.2427C37.1176 33.2441 36.0461 31.4996 35.7116 31.0003C35.5585 30.7708 35.0936 30.0764 34.4132 30.0764C34.3055 30.0764 34.1978 30.0936 34.0901 30.128C33.2169 30.3977 33.2113 31.4479 33.2113 32.1136L33.2056 36.6989C33.2056 37.2211 33.6252 37.6458 34.1411 37.6458C34.657 37.6458 35.0766 37.2211 35.0766 36.6989V33.4967L35.3147 33.8869C36.0064 35.0059 36.7605 36.2455 36.7775 36.2742C37.3274 37.1694 37.9341 37.6458 38.5294 37.6458C38.6314 37.6458 38.7335 37.6285 38.8412 37.6056C39.4762 37.4277 39.8107 36.8251 39.8391 35.8036V31.029C39.8334 30.5068 39.4138 30.0821 38.9036 30.0821Z" fill="#EE202E"/>
<path d="M28.9359 44.062L28.4256 43.2586V44.6818C28.4256 45.0261 28.1478 45.3073 27.8076 45.3073C27.4675 45.3073 27.1953 45.0261 27.1953 44.6818V40.7565C27.1953 40.4753 27.4051 40.2515 27.6886 40.2515C27.8643 40.2515 28.0287 40.3433 28.1138 40.4925L29.5539 42.8741L30.994 40.4925C31.079 40.349 31.2378 40.2515 31.4192 40.2515C31.697 40.2515 31.9124 40.4753 31.9124 40.7565V44.6818C31.9124 45.0261 31.6403 45.3073 31.3001 45.3073C30.9599 45.3073 30.6821 45.0261 30.6821 44.6818V43.2586L30.1719 44.062C30.0528 44.2858 29.826 44.4407 29.5539 44.4407C29.2817 44.4407 29.0549 44.2858 28.9359 44.062Z" fill="#FBAD18"/>
<path d="M38.2624 41.4565H37.5424C37.2135 41.4565 36.9414 41.181 36.9414 40.8482C36.9414 40.5153 37.2135 40.2456 37.5424 40.2456H40.2184C40.5473 40.2456 40.8194 40.5096 40.8194 40.8482C40.8194 41.181 40.5473 41.4565 40.2184 41.4565H39.4927V44.6874C39.4927 45.0317 39.2149 45.3072 38.8747 45.3072C38.5346 45.3072 38.2624 45.0317 38.2624 44.6874V41.4565Z" fill="#FBAD18"/>
<path d="M44.5556 43.4824H42.8944V44.6818C42.8944 45.0261 42.6166 45.3073 42.2764 45.3073C41.9362 45.3073 41.6641 45.0261 41.6641 44.6818V40.877C41.6641 40.5327 41.9362 40.2515 42.2764 40.2515C42.6166 40.2515 42.8944 40.5327 42.8944 40.877V42.2772H44.5556V40.877C44.5556 40.5327 44.8277 40.2515 45.1679 40.2515C45.5081 40.2515 45.7859 40.5327 45.7859 40.877V44.6818C45.7859 45.0261 45.5081 45.3073 45.1679 45.3073C44.8277 45.3073 44.5556 45.0261 44.5556 44.6818V43.4824Z" fill="#FBAD18"/>
<path d="M37.0216 44.4636L35.6893 40.8195C35.5702 40.4866 35.247 40.2456 34.8842 40.2456C34.5213 40.2456 34.1981 40.4866 34.0791 40.8195L32.7467 44.4636C32.724 44.5324 32.707 44.607 32.707 44.6874C32.707 45.0317 32.9962 45.3072 33.3364 45.3072C33.5915 45.3072 33.8126 45.1694 33.8977 44.9399L34.0564 44.4923H35.7176L35.8764 44.9399C35.9614 45.1694 36.1825 45.3072 36.4376 45.3072C36.7778 45.3072 37.067 45.0317 37.067 44.6874C37.067 44.6128 37.05 44.5324 37.0216 44.4636ZM35.9557 42.719L35.5702 43.0461L35.6949 43.5569C35.7063 43.6028 35.7403 43.7692 35.6326 43.8553C35.5645 43.9127 35.4681 43.9069 35.3547 43.8495C35.3377 43.8438 35.3207 43.8323 35.3037 43.8208L34.8785 43.5511L34.4023 43.8553C34.3626 43.8782 34.2492 43.9528 34.1414 43.8954C34.0904 43.8668 34.011 43.7921 34.0564 43.5856L34.1868 43.0404L33.7332 42.6616C33.6425 42.5698 33.6142 42.4895 33.6369 42.4148C33.6539 42.3632 33.6935 42.3001 33.8183 42.2771L34.4533 42.2312L34.6631 41.7032C34.7084 41.6114 34.7594 41.5598 34.8218 41.5426C34.8672 41.5253 34.9182 41.5311 34.9635 41.554C35.0316 41.5885 35.0713 41.6573 35.0996 41.709L35.3094 42.2312L35.814 42.2656C35.831 42.2656 35.9104 42.2771 35.9784 42.3116C36.0691 42.3632 36.0918 42.4321 36.0975 42.4722C36.1031 42.5927 35.9897 42.6846 35.9557 42.719Z" fill="#FBAD18"/>
</g>
<defs>
<radialGradient id="paint0_radial_440_20652" cx="0" cy="0" r="1" gradientUnits="userSpaceOnUse" gradientTransform="translate(30.0547 13.6429) rotate(85.4213) scale(2.85121 1.66785)">
<stop offset="0.3939" stop-color="white"/>
<stop offset="0.4187" stop-color="#FFFAF6"/>
<stop offset="0.567" stop-color="#FEEBD9"/>
<stop offset="0.7146" stop-color="#FDE1C6"/>
<stop offset="0.8598" stop-color="#FDDBBB"/>
<stop offset="1" stop-color="#FCD9B7"/>
</radialGradient>
<linearGradient id="paint1_linear_440_20652" x1="24.7099" y1="12.1863" x2="32.6658" y2="14.5581" gradientUnits="userSpaceOnUse">
<stop offset="0.635" stop-color="white" stop-opacity="0"/>
<stop offset="0.6659" stop-color="#FFF1E9" stop-opacity="0.0893"/>
<stop offset="0.7256" stop-color="#FDD5C0" stop-opacity="0.2616"/>
<stop offset="0.8072" stop-color="#F9AA85" stop-opacity="0.4972"/>
<stop offset="0.8606" stop-color="#F68D62" stop-opacity="0.6512"/>
<stop offset="0.8954" stop-color="#DC7B4D" stop-opacity="0.7259"/>
<stop offset="0.9329" stop-color="#CC703E" stop-opacity="0.8063"/>
<stop offset="0.9685" stop-color="#C26A36" stop-opacity="0.8826"/>
<stop offset="1" stop-color="#BF6834" stop-opacity="0.95"/>
</linearGradient>
<linearGradient id="paint2_linear_440_20652" x1="44.3704" y1="20.1806" x2="41.9938" y2="23.14" gradientUnits="userSpaceOnUse">
<stop stop-color="#A91F27"/>
<stop offset="0.1913" stop-color="#AE1F27"/>
<stop offset="0.3892" stop-color="#BC2028"/>
<stop offset="0.5791" stop-color="#D42029"/>
<stop offset="0.7394" stop-color="#EB2227"/>
</linearGradient>
<radialGradient id="paint3_radial_440_20652" cx="0" cy="0" r="1" gradientUnits="userSpaceOnUse" gradientTransform="translate(33.0341 8.65025) rotate(16.9844) scale(9.27213 9.36599)">
<stop stop-color="white"/>
<stop offset="0.1049" stop-color="#FCD4C4"/>
<stop offset="0.2345" stop-color="#F7A990"/>
<stop offset="0.3658" stop-color="#F3876B"/>
<stop offset="0.4961" stop-color="#F06A50"/>
<stop offset="0.6254" stop-color="#EE503B"/>
<stop offset="0.7531" stop-color="#EC3A2F"/>
<stop offset="0.8788" stop-color="#EB2929"/>
<stop offset="1" stop-color="#EB2227"/>
</radialGradient>
<radialGradient id="paint4_radial_440_20652" cx="0" cy="0" r="1" gradientUnits="userSpaceOnUse" gradientTransform="translate(33.1034 16.5436) rotate(16.9844) scale(7.80458 7.88358)">
<stop offset="0.3939" stop-color="white"/>
<stop offset="0.4187" stop-color="#FFFAF6"/>
<stop offset="0.567" stop-color="#FEEBD9"/>
<stop offset="0.7146" stop-color="#FDE1C6"/>
<stop offset="0.8598" stop-color="#FDDBBB"/>
<stop offset="1" stop-color="#FCD9B7"/>
</radialGradient>
<linearGradient id="paint5_linear_440_20652" x1="45.4979" y1="14.7473" x2="42.5404" y2="14.2831" gradientUnits="userSpaceOnUse">
<stop stop-color="#AE1F28"/>
<stop offset="0.2066" stop-color="#B21F28"/>
<stop offset="0.4204" stop-color="#C12029"/>
<stop offset="0.5791" stop-color="#D42029"/>
<stop offset="0.7394" stop-color="#EB2227"/>
</linearGradient>
<radialGradient id="paint6_radial_440_20652" cx="0" cy="0" r="1" gradientUnits="userSpaceOnUse" gradientTransform="translate(47.0313 16.6453) rotate(16.9844) scale(4.57582 4.62214)">
<stop offset="0.3939" stop-color="white"/>
<stop offset="0.4187" stop-color="#FFFAF6"/>
<stop offset="0.567" stop-color="#FEEBD9"/>
<stop offset="0.7146" stop-color="#FDE1C6"/>
<stop offset="0.8598" stop-color="#FDDBBB"/>
<stop offset="1" stop-color="#FCD9B7"/>
</radialGradient>
<radialGradient id="paint7_radial_440_20652" cx="0" cy="0" r="1" gradientUnits="userSpaceOnUse" gradientTransform="translate(46.0357 17.3254) rotate(16.9844) scale(4.44187 4.48684)">
<stop offset="0.635" stop-color="white" stop-opacity="0"/>
<stop offset="0.6659" stop-color="#FFF1E9" stop-opacity="0.0893"/>
<stop offset="0.7256" stop-color="#FDD5C0" stop-opacity="0.2616"/>
<stop offset="0.8072" stop-color="#F9AA85" stop-opacity="0.4972"/>
<stop offset="0.8606" stop-color="#F68D62" stop-opacity="0.6512"/>
<stop offset="0.8954" stop-color="#DC7B4D" stop-opacity="0.7259"/>
<stop offset="0.9329" stop-color="#CC703E" stop-opacity="0.8063"/>
<stop offset="0.9685" stop-color="#C26A36" stop-opacity="0.8826"/>
<stop offset="1" stop-color="#BF6834" stop-opacity="0.95"/>
</radialGradient>
<linearGradient id="paint8_linear_440_20652" x1="35.3584" y1="5.51435" x2="47.5877" y2="9.16015" gradientUnits="userSpaceOnUse">
<stop stop-color="#929497"/>
<stop offset="0.0471" stop-color="#8A8B8D"/>
<stop offset="0.2414" stop-color="#6E6E6F"/>
<stop offset="0.4358" stop-color="#5A595A"/>
<stop offset="0.6281" stop-color="#4C4B4C"/>
<stop offset="0.8174" stop-color="#444444"/>
<stop offset="1" stop-color="#414142"/>
</linearGradient>
<linearGradient id="paint9_linear_440_20652" x1="39.3439" y1="7.7777" x2="40.3734" y2="8.89792" gradientUnits="userSpaceOnUse">
<stop stop-color="white"/>
<stop offset="0.0432" stop-color="#E7E6E6"/>
<stop offset="0.2054" stop-color="#B3B0B1"/>
<stop offset="0.3687" stop-color="#8F8C8D"/>
<stop offset="0.5305" stop-color="#767475"/>
<stop offset="0.6906" stop-color="#656566"/>
<stop offset="0.848" stop-color="#5C5C5E"/>
<stop offset="1" stop-color="#595A5C"/>
</linearGradient>
<linearGradient id="paint10_linear_440_20652" x1="43.6764" y1="11.6043" x2="46.7417" y2="10.3998" gradientUnits="userSpaceOnUse">
<stop stop-color="#414142"/>
<stop offset="0.121" stop-color="#464647"/>
<stop offset="0.4199" stop-color="#515153"/>
<stop offset="0.7151" stop-color="#57585A"/>
<stop offset="1" stop-color="#595A5C"/>
</linearGradient>
<linearGradient id="paint11_linear_440_20652" x1="47.9078" y1="12.4808" x2="44.2121" y2="9.30936" gradientUnits="userSpaceOnUse">
<stop stop-color="#414142"/>
<stop offset="0.121" stop-color="#464647"/>
<stop offset="0.4199" stop-color="#515153"/>
<stop offset="0.7151" stop-color="#57585A"/>
<stop offset="1" stop-color="#595A5C"/>
</linearGradient>
<radialGradient id="paint12_radial_440_20652" cx="0" cy="0" r="1" gradientUnits="userSpaceOnUse" gradientTransform="translate(39.6786 23.1743) rotate(17.118) scale(2.42386 2.42322)">
<stop offset="0.3939" stop-color="white"/>
<stop offset="0.4187" stop-color="#FFFAF6"/>
<stop offset="0.567" stop-color="#FEEBD9"/>
<stop offset="0.7146" stop-color="#FDE1C6"/>
<stop offset="0.8598" stop-color="#FDDBBB"/>
<stop offset="1" stop-color="#FCD9B7"/>
</radialGradient>
<radialGradient id="paint13_radial_440_20652" cx="0" cy="0" r="1" gradientUnits="userSpaceOnUse" gradientTransform="translate(38.9998 19.9314) rotate(-140.518) scale(1.85507 1.49927)">
<stop offset="0.3939" stop-color="white"/>
<stop offset="0.4187" stop-color="#FFFAF6"/>
<stop offset="0.567" stop-color="#FEEBD9"/>
<stop offset="0.7146" stop-color="#FDE1C6"/>
<stop offset="0.8598" stop-color="#FDDBBB"/>
<stop offset="1" stop-color="#FCD9B7"/>
</radialGradient>
<radialGradient id="paint14_radial_440_20652" cx="0" cy="0" r="1" gradientUnits="userSpaceOnUse" gradientTransform="translate(35.6773 18.4171) rotate(17.118) scale(7.41034 7.49293)">
<stop offset="0.635" stop-color="white" stop-opacity="0"/>
<stop offset="0.6659" stop-color="#FFF1E9" stop-opacity="0.0893"/>
<stop offset="0.7256" stop-color="#FDD5C0" stop-opacity="0.2616"/>
<stop offset="0.8072" stop-color="#F9AA85" stop-opacity="0.4972"/>
<stop offset="0.8606" stop-color="#F68D62" stop-opacity="0.6512"/>
<stop offset="0.8954" stop-color="#DC7B4D" stop-opacity="0.7259"/>
<stop offset="0.9329" stop-color="#CC703E" stop-opacity="0.8063"/>
<stop offset="0.9685" stop-color="#C26A36" stop-opacity="0.8826"/>
<stop offset="1" stop-color="#BF6834" stop-opacity="0.95"/>
</radialGradient>
<radialGradient id="paint15_radial_440_20652" cx="0" cy="0" r="1" gradientUnits="userSpaceOnUse" gradientTransform="translate(38.1233 17.3724) rotate(16.9844) scale(1.62227 1.92365)">
<stop offset="0.8061" stop-color="white"/>
<stop offset="0.828" stop-color="#F8F8F8"/>
<stop offset="0.9154" stop-color="#EBEBEB"/>
<stop offset="1" stop-color="#E7E7E7"/>
</radialGradient>
<linearGradient id="paint16_linear_440_20652" x1="36.482" y1="16.7975" x2="39.3749" y2="17.6513" gradientUnits="userSpaceOnUse">
<stop stop-color="#914F37"/>
<stop offset="0.162" stop-color="#93523A"/>
<stop offset="0.3298" stop-color="#9A5C42"/>
<stop offset="0.5004" stop-color="#A76C51"/>
<stop offset="0.6728" stop-color="#BA8467"/>
<stop offset="0.845" stop-color="#D6A888"/>
<stop offset="1" stop-color="#FCD9B7"/>
</linearGradient>
<linearGradient id="paint17_linear_440_20652" x1="32.8237" y1="15.1785" x2="35.0907" y2="16.1584" gradientUnits="userSpaceOnUse">
<stop stop-color="#914F37"/>
<stop offset="0.162" stop-color="#93523A"/>
<stop offset="0.3298" stop-color="#9A5C42"/>
<stop offset="0.5004" stop-color="#A76C51"/>
<stop offset="0.6728" stop-color="#BA8467"/>
<stop offset="0.845" stop-color="#D6A888"/>
<stop offset="1" stop-color="#FCD9B7"/>
</linearGradient>
<radialGradient id="paint18_radial_440_20652" cx="0" cy="0" r="1" gradientUnits="userSpaceOnUse" gradientTransform="translate(34.0427 15.9476) rotate(6.86283) scale(1.31255 1.67863)">
<stop offset="0.8061" stop-color="white"/>
<stop offset="0.828" stop-color="#F8F8F8"/>
<stop offset="0.9154" stop-color="#EBEBEB"/>
<stop offset="1" stop-color="#E7E7E7"/>
</radialGradient>
<radialGradient id="paint19_radial_440_20652" cx="0" cy="0" r="1" gradientUnits="userSpaceOnUse" gradientTransform="translate(34.1621 16.16) rotate(110.493) scale(1.01163 0.694123)">
<stop offset="0.6485" stop-color="#914F37"/>
<stop offset="0.6844" stop-color="#7C4533"/>
<stop offset="0.7487" stop-color="#60352B"/>
<stop offset="0.8131" stop-color="#4D2924"/>
<stop offset="0.8768" stop-color="#3F201E"/>
<stop offset="0.9395" stop-color="#371A1A"/>
<stop offset="1" stop-color="#341718"/>
</radialGradient>
<radialGradient id="paint20_radial_440_20652" cx="0" cy="0" r="1" gradientUnits="userSpaceOnUse" gradientTransform="translate(38.1233 17.3724) rotate(16.9844) scale(1.62227 1.92365)">
<stop offset="0.8061" stop-color="white"/>
<stop offset="0.828" stop-color="#F8F8F8"/>
<stop offset="0.9154" stop-color="#EBEBEB"/>
<stop offset="1" stop-color="#E7E7E7"/>
</radialGradient>
<radialGradient id="paint21_radial_440_20652" cx="0" cy="0" r="1" gradientUnits="userSpaceOnUse" gradientTransform="translate(38.2191 17.6237) rotate(120.01) scale(1.15592 0.859754)">
<stop offset="0.6485" stop-color="#914F37"/>
<stop offset="0.6844" stop-color="#7C4533"/>
<stop offset="0.7487" stop-color="#60352B"/>
<stop offset="0.8131" stop-color="#4D2924"/>
<stop offset="0.8768" stop-color="#3F201E"/>
<stop offset="0.9395" stop-color="#371A1A"/>
<stop offset="1" stop-color="#341718"/>
</radialGradient>
<radialGradient id="paint22_radial_440_20652" cx="0" cy="0" r="1" gradientUnits="userSpaceOnUse" gradientTransform="translate(41.3956 7.11986) rotate(16.9844) scale(9.13586 9.22834)">
<stop stop-color="white" stop-opacity="0"/>
<stop offset="0.1876" stop-color="#ECECEC" stop-opacity="0.142"/>
<stop offset="0.5474" stop-color="#C8C8C9" stop-opacity="0.4142"/>
<stop offset="0.8606" stop-color="#A6A8AC" stop-opacity="0.6512"/>
<stop offset="0.8713" stop-color="#909092" stop-opacity="0.6742"/>
<stop offset="0.8946" stop-color="#6B696A" stop-opacity="0.724"/>
<stop offset="0.9176" stop-color="#4F4C4D" stop-opacity="0.7734"/>
<stop offset="0.94" stop-color="#3C3839" stop-opacity="0.8214"/>
<stop offset="0.9616" stop-color="#2E2B2B" stop-opacity="0.8677"/>
<stop offset="0.982" stop-color="#262223" stop-opacity="0.9114"/>
<stop offset="1" stop-color="#231F20" stop-opacity="0.95"/>
</radialGradient>
<linearGradient id="paint23_linear_440_20652" x1="45.1293" y1="17.1714" x2="48.4856" y2="18.172" gradientUnits="userSpaceOnUse">
<stop offset="0.635" stop-color="white" stop-opacity="0"/>
<stop offset="0.6659" stop-color="#FFF1E9" stop-opacity="0.0893"/>
<stop offset="0.7256" stop-color="#FDD5C0" stop-opacity="0.2616"/>
<stop offset="0.8072" stop-color="#F9AA85" stop-opacity="0.4972"/>
<stop offset="0.8606" stop-color="#F68D62" stop-opacity="0.6512"/>
<stop offset="0.8954" stop-color="#DC7B4D" stop-opacity="0.7259"/>
<stop offset="0.9329" stop-color="#CC703E" stop-opacity="0.8063"/>
<stop offset="0.9685" stop-color="#C26A36" stop-opacity="0.8826"/>
<stop offset="1" stop-color="#BF6834" stop-opacity="0.95"/>
</linearGradient>
<linearGradient id="paint24_linear_440_20652" x1="31.5444" y1="17.1797" x2="33.7017" y2="17.4905" gradientUnits="userSpaceOnUse">
<stop offset="0.3939" stop-color="white"/>
<stop offset="0.4187" stop-color="#FFFAF6"/>
<stop offset="0.567" stop-color="#FEEBD9"/>
<stop offset="0.7146" stop-color="#FDE1C6"/>
<stop offset="0.8598" stop-color="#FDDBBB"/>
<stop offset="1" stop-color="#FCD9B7"/>
</linearGradient>
<linearGradient id="paint25_linear_440_20652" x1="46.0041" y1="20.7349" x2="45.4244" y2="21.9592" gradientUnits="userSpaceOnUse">
<stop offset="0.3939" stop-color="white"/>
<stop offset="0.4062" stop-color="#FFFAF7"/>
<stop offset="0.5273" stop-color="#FDE3D0"/>
<stop offset="0.6484" stop-color="#FCD2B5"/>
<stop offset="0.7683" stop-color="#FBC6A2"/>
<stop offset="0.8862" stop-color="#FABF97"/>
<stop offset="1" stop-color="#FABC93"/>
</linearGradient>
<linearGradient id="paint26_linear_440_20652" x1="33.1286" y1="21.5238" x2="32.7956" y2="22.4283" gradientUnits="userSpaceOnUse">
<stop stop-color="#914F37"/>
<stop offset="0.162" stop-color="#93523A"/>
<stop offset="0.3298" stop-color="#9A5C42"/>
<stop offset="0.5004" stop-color="#A76C51"/>
<stop offset="0.6728" stop-color="#BA8467"/>
<stop offset="0.845" stop-color="#D6A888"/>
<stop offset="1" stop-color="#FCD9B7"/>
</linearGradient>
<linearGradient id="paint27_linear_440_20652" x1="45.9618" y1="10.8509" x2="47.3787" y2="11.2733" gradientUnits="userSpaceOnUse">
<stop stop-color="#FECF0A"/>
<stop offset="0.0671" stop-color="#FDC810"/>
<stop offset="0.3051" stop-color="#FAB31A"/>
<stop offset="0.5419" stop-color="#F8A41E"/>
<stop offset="0.775" stop-color="#F79B20"/>
<stop offset="1" stop-color="#F79820"/>
</linearGradient>
<linearGradient id="paint28_linear_440_20652" x1="46.9026" y1="13.1741" x2="47.7532" y2="12.9914" gradientUnits="userSpaceOnUse">
<stop stop-color="#FECF0A"/>
<stop offset="0.0671" stop-color="#FDC810"/>
<stop offset="0.3051" stop-color="#FAB31A"/>
<stop offset="0.5419" stop-color="#F8A41E"/>
<stop offset="0.775" stop-color="#F79B20"/>
<stop offset="1" stop-color="#F79820"/>
</linearGradient>
<linearGradient id="paint29_linear_440_20652" x1="46.5065" y1="14.338" x2="48.3895" y2="14.8993" gradientUnits="userSpaceOnUse">
<stop offset="0.00606061" stop-color="white"/>
<stop offset="0.3152" stop-color="#FECF0A"/>
<stop offset="0.3611" stop-color="#FDC810"/>
<stop offset="0.5241" stop-color="#FAB31A"/>
<stop offset="0.6863" stop-color="#F8A41E"/>
<stop offset="0.8459" stop-color="#F79B20"/>
<stop offset="1" stop-color="#F79820"/>
</linearGradient>
<linearGradient id="paint30_linear_440_20652" x1="46.44" y1="13.2621" x2="47.1973" y2="13.4878" gradientUnits="userSpaceOnUse">
<stop stop-color="white"/>
<stop offset="0.1067" stop-color="#FFF2D1"/>
<stop offset="0.236" stop-color="#FFE7A6"/>
<stop offset="0.3671" stop-color="#FFDE82"/>
<stop offset="0.4972" stop-color="#FFD761"/>
<stop offset="0.6261" stop-color="#FFD242"/>
<stop offset="0.7536" stop-color="#FFCE28"/>
<stop offset="0.8791" stop-color="#FFCC12"/>
<stop offset="1" stop-color="#FFCB09"/>
</linearGradient>
<radialGradient id="paint31_radial_440_20652" cx="0" cy="0" r="1" gradientUnits="userSpaceOnUse" gradientTransform="translate(47.031 14.5785) rotate(16.9844) scale(2.74809 2.7759)">
<stop offset="0.103" stop-color="white"/>
<stop offset="0.1418" stop-color="#FFF2D1"/>
<stop offset="0.1888" stop-color="#FFE7A6"/>
<stop offset="0.2365" stop-color="#FFDE82"/>
<stop offset="0.2838" stop-color="#FFD761"/>
<stop offset="0.3307" stop-color="#FFD242"/>
<stop offset="0.3771" stop-color="#FFCE28"/>
<stop offset="0.4227" stop-color="#FFCC12"/>
<stop offset="0.4667" stop-color="#FFCB09"/>
</radialGradient>
<linearGradient id="paint32_linear_440_20652" x1="46.1431" y1="10.4837" x2="46.8151" y2="10.684" gradientUnits="userSpaceOnUse">
<stop stop-color="white"/>
<stop offset="0.1067" stop-color="#FFF2D1"/>
<stop offset="0.236" stop-color="#FFE7A6"/>
<stop offset="0.3671" stop-color="#FFDE82"/>
<stop offset="0.4972" stop-color="#FFD761"/>
<stop offset="0.6261" stop-color="#FFD242"/>
<stop offset="0.7536" stop-color="#FFCE28"/>
<stop offset="0.8791" stop-color="#FFCC12"/>
<stop offset="1" stop-color="#FFCB09"/>
</linearGradient>
<radialGradient id="paint33_radial_440_20652" cx="0" cy="0" r="1" gradientUnits="userSpaceOnUse" gradientTransform="translate(46.5469 14.2112) rotate(16.9844) scale(1.63589 1.65245)">
<stop offset="0.635" stop-color="white" stop-opacity="0"/>
<stop offset="0.6565" stop-color="#FFF5EB" stop-opacity="0.0621"/>
<stop offset="0.698" stop-color="#FEE2C6" stop-opacity="0.1819"/>
<stop offset="0.7553" stop-color="#FDC48E" stop-opacity="0.3474"/>
<stop offset="0.8255" stop-color="#F99D47" stop-opacity="0.55"/>
<stop offset="0.8606" stop-color="#F68A20" stop-opacity="0.6512"/>
<stop offset="0.89" stop-color="#F47B22" stop-opacity="0.7143"/>
<stop offset="0.9295" stop-color="#F26A24" stop-opacity="0.7988"/>
<stop offset="0.9669" stop-color="#F15E24" stop-opacity="0.8791"/>
<stop offset="1" stop-color="#F15A25" stop-opacity="0.95"/>
</radialGradient>
<clipPath id="clip0_440_20652">
<rect width="52.2399" height="42.2429" fill="white" transform="translate(10.498 3.06396)"/>
</clipPath>
</defs>
</svg>
