<svg width="73" height="52" viewBox="0 0 73 52" fill="none" xmlns="http://www.w3.org/2000/svg">
<g clip-path="url(#clip0_440_20653)">
<path d="M36.3563 44.2853C36.2168 43.8805 36.0494 43.7118 35.854 43.7118H35.1787V44.6228C35.1787 44.9545 34.9052 45.2301 34.576 45.2301C34.2467 45.2301 33.9844 44.9545 33.9844 44.6228V40.9394C33.9844 40.6076 34.2467 40.332 34.576 40.332H36.1331C36.8419 40.332 37.7516 40.7819 37.7516 41.991C37.7516 42.5196 37.5395 42.9863 37.0874 43.1775C37.2995 43.3856 37.4223 43.7342 37.5339 44.0492L37.6567 44.4034C37.679 44.4822 37.6958 44.5553 37.6958 44.6396C37.6958 44.9714 37.4335 45.2301 37.093 45.2301C36.8307 45.2301 36.613 45.0726 36.5405 44.8421L36.3563 44.2853ZM36.1107 42.5421C36.3005 42.5421 36.5628 42.5083 36.5628 42.0191C36.5628 41.6029 36.3172 41.5073 36.1107 41.5073H35.1787V42.5421H36.1107Z" fill="#00C2F3"/>
<path d="M39.6435 26.9761C39.4091 26.9761 39.1691 26.9704 38.9236 26.9536L38.8789 26.9479C38.7171 26.9367 38.5608 26.9198 38.399 26.903L38.2706 26.8861C38.1311 26.8692 37.9915 26.8523 37.8464 26.8298L37.6846 26.8074C37.5451 26.7849 37.3999 26.7567 37.2493 26.7286C37.2493 26.7286 37.1321 26.7061 37.093 26.7005C36.9032 26.6611 36.7079 26.6218 36.507 26.5712C36.1275 26.4868 33.4486 25.8345 31.6124 23.467C31.6013 23.4501 31.5901 23.4389 31.5789 23.422C31.5734 23.4108 31.5622 23.3995 31.5566 23.3883C31.2943 23.0396 31.0487 22.6572 30.8422 22.258C30.7864 22.2298 30.7306 22.2017 30.6692 22.168C30.6413 22.1511 30.619 22.1399 30.5911 22.123C30.5576 22.1005 30.5241 22.078 30.4906 22.0555C30.4516 22.0274 30.4125 22.0049 30.3734 21.9768C30.3399 21.9487 30.2953 21.9149 30.2506 21.8756C30.206 21.8418 30.1669 21.8024 30.1334 21.7631C30.0832 21.7125 30.0441 21.6675 30.0051 21.6169C29.9716 21.5775 29.9269 21.5213 29.8823 21.4538C29.8321 21.3807 29.793 21.3076 29.7707 21.2626C29.7484 21.2176 29.7149 21.1614 29.687 21.0939C29.6423 20.9927 29.6088 20.8914 29.5865 20.779C29.5809 20.7509 29.5698 20.7227 29.5642 20.6946C29.5642 20.689 29.5586 20.6778 29.5586 20.6721C29.4805 20.2504 29.5251 19.823 29.6981 19.3843C29.7204 19.3225 29.7539 19.2606 29.7874 19.1988C29.8042 19.165 29.8265 19.1369 29.8432 19.1032C29.8321 19.0244 29.8265 18.9401 29.8265 18.8614C29.8265 18.8445 29.8265 18.822 29.8265 18.8051C29.8265 18.7264 29.8321 18.6477 29.8376 18.5689C29.8432 18.5352 29.8432 18.5071 29.8488 18.479C29.8544 18.4115 29.8711 18.3384 29.8879 18.2653C29.8935 18.2315 29.9046 18.2034 29.9102 18.1697C29.9437 18.046 29.9828 17.9447 30.0218 17.8491C30.0721 17.7367 30.1334 17.6242 30.2004 17.523C30.206 17.5117 30.2172 17.5005 30.2227 17.4892C30.2283 17.478 30.2395 17.4667 30.2451 17.4555C30.312 17.3655 30.379 17.2812 30.4571 17.2024C30.4627 17.1968 30.4683 17.1912 30.4683 17.1912C30.5018 17.1631 30.5353 17.1293 30.5743 17.0956C30.6302 17.045 30.6971 16.9944 30.7808 16.9438C30.7808 16.9438 30.7864 16.9438 30.7864 16.9381C29.8488 15.0768 29.9995 13.5865 30.3288 12.6193C30.3344 12.608 30.3399 12.5968 30.3399 12.5799C31.0487 10.6511 32.6728 9.91439 33.8448 9.8694C33.8616 9.8694 33.8839 9.8694 33.9006 9.8694C33.9174 9.8694 33.9285 9.8694 33.9453 9.8694C34.0625 9.87503 34.1797 9.88065 34.3025 9.8919C34.2188 9.71195 34.1685 9.54887 34.1406 9.43077C33.962 8.68847 34.1685 7.95179 34.682 7.49629C34.8271 7.36695 35.0001 7.2601 35.1899 7.18138C35.4131 7.0914 35.6531 7.04079 35.8986 7.04079C36.0382 7.04079 36.1721 7.05766 36.3116 7.08578C36.3675 7.03517 36.4233 6.99018 36.4791 6.94519C36.5181 6.91707 36.5628 6.88895 36.6019 6.86084C36.6074 6.85521 36.613 6.85521 36.6186 6.84959C36.747 6.77086 36.8809 6.709 37.0149 6.66401C37.0372 6.68089 37.0595 6.67526 37.0818 6.66964C37.0762 6.66401 36.8865 6.43908 36.8809 6.43345C36.8809 6.43345 36.7972 6.33223 36.7916 6.32098C36.4344 5.85423 36.373 5.2244 36.6409 4.70142C36.8977 4.18968 37.4167 3.86914 37.986 3.86914C37.9971 3.86914 38.0083 3.86914 38.0194 3.86914C39.1803 3.89726 46.5138 5.92734 46.5807 5.94983C47.2337 6.14665 47.6969 6.62465 47.9034 6.87771C48.0653 7.05204 48.3778 7.42881 49.2373 8.52539L49.7005 9.12148C49.7173 9.14397 49.7396 9.16647 49.7563 9.19459L49.9349 9.42515C49.9573 9.44764 49.974 9.47014 49.9908 9.49263L50.4037 10.0269C50.4149 10.0381 50.4205 10.0494 50.4317 10.0662C51.5534 11.5283 52.6306 12.9567 52.6417 12.9679C52.9822 13.4178 53.0436 14.0139 52.8148 14.52C53.5291 15.2736 54.0816 16.4151 53.9868 17.9054C53.9868 17.9166 53.9868 17.9335 53.9812 17.9447C53.97 18.0516 53.9589 18.1641 53.9421 18.2765C53.9365 18.3046 53.931 18.3328 53.931 18.3553C53.9142 18.4565 53.8975 18.5408 53.8751 18.6308L53.8528 18.7208C53.8305 18.822 53.8026 18.9232 53.7691 19.0188C53.7635 19.0413 53.7579 19.0638 53.7468 19.0863C53.3059 20.4641 52.2957 21.6787 50.7442 22.691C50.6995 22.7247 50.6493 22.7528 50.5991 22.7753C49.4438 23.3545 48.1937 23.6751 47.0719 23.6751C46.9212 23.6751 46.7761 23.6694 46.6366 23.6582C46.4859 23.8213 46.3352 23.9787 46.1845 24.125L46.1677 24.1418C46.0338 24.2768 45.8943 24.4061 45.7547 24.5298L45.6878 24.5861C45.565 24.6929 45.4422 24.7941 45.325 24.8897C45.325 24.8897 45.2525 24.946 45.2246 24.9685C45.1632 25.0191 45.0962 25.0697 45.0292 25.1203C44.9734 25.1653 44.912 25.2047 44.8562 25.244C44.7725 25.3059 44.6888 25.3621 44.6106 25.4127C44.5548 25.4521 44.4934 25.4915 44.4376 25.5252C44.3651 25.5702 44.2925 25.6152 44.22 25.6602C44.1474 25.7052 44.0749 25.7445 44.0079 25.7839C43.9577 25.812 43.9074 25.8401 43.8572 25.8682C43.7735 25.9132 43.6842 25.9582 43.6005 26.0032C43.5893 26.0088 43.5781 26.0144 43.5614 26.0201C42.981 26.3125 42.3782 26.5374 41.7587 26.7005C41.5411 26.7624 41.3122 26.813 41.0834 26.8523L41.0165 26.8636C40.9606 26.8748 40.9104 26.8805 40.8546 26.8861C40.4695 26.9479 40.0621 26.9761 39.6435 26.9761Z" fill="white"/>
<path d="M33.8556 11.4048C34.1012 11.4104 34.3412 11.4498 34.5756 11.5173C34.9774 11.6185 35.3458 11.8209 35.6695 12.0909C35.675 12.0909 35.675 12.0965 35.675 12.0965C36.8471 13.0806 37.5056 14.9757 37.4945 16.494C37.4945 16.494 35.9429 16.5334 35.4462 18.8728C34.4416 18.7547 33.3143 17.9674 32.4994 16.9777C31.4055 15.2962 31.4055 14.0141 31.7069 13.12C32.3041 11.5229 33.677 11.416 33.8556 11.4048Z" fill="#FCD9B7"/>
<path d="M32.9576 17.2085C31.8637 15.5327 31.8637 14.2449 32.1707 13.3507C32.7623 11.7481 34.1352 11.6356 34.3194 11.63C34.5594 11.6356 34.805 11.6749 35.0394 11.7424C35.1287 11.7649 35.2124 11.793 35.2961 11.8268C35.0728 11.6918 34.8384 11.585 34.5817 11.5231C34.3417 11.4556 34.1017 11.4163 33.8618 11.4106C33.6832 11.4163 32.3047 11.5231 31.7186 13.1314C31.4173 14.0256 31.4173 15.3077 32.5111 16.9891C33.1195 17.7314 33.9064 18.3557 34.6878 18.6762C34.0571 18.3219 33.4488 17.8046 32.9576 17.2085Z" fill="url(#paint0_radial_440_20653)"/>
<path d="M34.6494 16.438C34.6494 16.438 34.9955 16.3987 34.9396 15.9994C34.8838 15.6001 34.6885 15.184 35.0122 15.1502C35.3303 15.1165 36.067 15.4933 35.6261 14.481C35.1852 13.4688 33.7341 12.4566 33.0533 13.1989C32.378 13.9412 33.1481 16.573 34.6494 16.438Z" fill="#E08E62"/>
<path opacity="0.33" d="M33.8556 11.4048C34.1012 11.4104 34.3412 11.4498 34.5756 11.5173C34.9774 11.6185 35.3458 11.8209 35.6695 12.0909C35.675 12.0909 35.675 12.0965 35.675 12.0965C36.8471 13.0806 37.5056 14.9757 37.4945 16.494C37.4945 16.494 35.9429 16.5334 35.4462 18.8728C34.4416 18.7547 33.3143 17.9674 32.4994 16.9777C31.4055 15.2962 31.4055 14.0141 31.7069 13.12C32.3041 11.5229 33.677 11.416 33.8556 11.4048Z" fill="url(#paint1_linear_440_20653)"/>
<path d="M44.1321 10.7469C42.5471 9.8978 41.2802 9.56039 39.924 9.64474C39.9184 9.64474 39.9128 9.64474 39.9072 9.64474C39.1315 9.72347 38.9975 9.45917 38.6906 9.03741C38.378 8.62127 37.6023 7.65965 37.1725 8.36821C36.7484 9.08239 38.1325 9.98215 38.1325 9.98215C38.1325 9.98215 37.9706 9.8978 37.7809 9.79658C37.4739 9.62787 37.033 9.36357 36.7651 9.10489C36.3186 8.68313 35.8666 8.44694 35.6322 8.65501C35.3978 8.85746 35.5261 9.86968 37.1614 10.2746C37.1167 10.2914 37.0777 10.3139 37.0386 10.3308C37.0219 10.3364 37.0051 10.3477 36.9828 10.3589C36.8154 10.4377 36.5586 10.5726 36.2572 10.7751C36.2238 10.7976 36.2014 10.8144 36.2014 10.8144C35.7103 11.1575 35.1131 11.6748 34.622 12.4284C34.3764 12.822 34.1811 13.2325 34.0193 13.6318C33.6788 14.5709 33.5114 15.7406 33.7011 17.1915C32.9756 17.4389 32.4008 18.4624 32.4008 18.4624C32.3226 18.333 31.625 17.8494 31.3571 18.4567C31.0892 19.0641 31.7143 19.7445 31.7143 19.7445C31.2845 19.5308 31.0557 19.9357 31.0557 19.9357C30.693 20.8636 31.8706 20.9929 31.8706 20.9929C33.2491 24.3783 36.7874 25.07 36.7874 25.07C38.4059 25.458 39.6728 25.5142 40.6607 25.3624C40.6663 25.3624 40.6774 25.3624 40.683 25.3624C40.7109 25.3568 40.7388 25.3511 40.7723 25.3455C40.8281 25.3343 40.8895 25.323 40.9453 25.3118C40.9732 25.3062 41.0067 25.3005 41.0346 25.2949C41.0904 25.2837 41.1407 25.2724 41.1965 25.2555C42.8094 24.8619 44.8018 23.8103 46.5598 21.246C46.6547 21.0829 46.7496 20.9198 46.8333 20.7511C48.3234 17.7651 48.0053 12.8333 44.1321 10.7469Z" fill="#EB2227"/>
<path d="M42.8691 24.6423C43.9184 24.1081 45.029 23.2533 46.0782 21.9093L46.1508 20.1772C46.1508 20.1772 44.8113 23.1914 43.1984 24.3105C43.0031 24.4511 42.9026 24.5579 42.8691 24.6423Z" fill="url(#paint2_linear_440_20653)"/>
<path d="M32.5947 18.181C32.7286 18.2541 32.8347 18.3385 32.8626 18.3835C32.8626 18.3835 33.4318 17.3656 34.1574 17.1182C33.9676 15.6617 34.1295 14.492 34.4755 13.5529C34.6374 13.148 34.8327 12.7431 35.0783 12.3495C35.575 11.5959 36.1666 11.0786 36.6577 10.7355C36.6577 10.7355 36.68 10.7187 36.7135 10.6962C37.0149 10.4937 37.2716 10.3587 37.439 10.2744C37.4558 10.2688 37.4725 10.2575 37.4948 10.2463C37.5339 10.2294 37.5786 10.2069 37.6176 10.19C36.094 9.81327 35.8819 8.91351 36.0438 8.62671C35.8763 8.57048 35.7312 8.57048 35.6252 8.66608C35.3908 8.86852 35.5192 9.88075 37.1544 10.2856C37.1097 10.3025 37.0707 10.325 37.0316 10.3419C37.0149 10.3475 36.9981 10.3587 36.9758 10.37C36.8084 10.4487 36.5516 10.5837 36.2503 10.7861C36.2168 10.8086 36.1945 10.8255 36.1945 10.8255C35.7033 11.1685 35.1062 11.6859 34.615 12.4394C34.3695 12.8331 34.1741 13.2436 34.0123 13.6429C33.6718 14.582 33.5044 15.7517 33.6942 17.2025C33.2254 17.3712 32.8179 17.8605 32.5947 18.181ZM41.1281 25.2835C40.1403 25.4353 38.8789 25.3735 37.2549 24.9911C37.2549 24.9911 33.7221 24.2994 32.3435 20.9197C32.3435 20.9197 31.166 20.7903 31.5287 19.8624C31.5287 19.8624 31.5678 19.8006 31.6348 19.7331C31.2608 19.615 31.0655 19.9524 31.0655 19.9524C30.7027 20.8803 31.8803 21.0096 31.8803 21.0096C33.2588 24.395 36.7972 25.0867 36.7972 25.0867C38.4157 25.4747 39.6826 25.5309 40.6705 25.3791C40.676 25.3791 40.6872 25.3791 40.6928 25.3791C40.7207 25.3735 40.7486 25.3678 40.7821 25.3622C40.8379 25.351 40.8993 25.3397 40.9551 25.3285C40.983 25.3229 41.0165 25.3172 41.0444 25.3116C41.0779 25.306 41.1058 25.2947 41.1337 25.2891C41.1337 25.2835 41.1281 25.2835 41.1281 25.2835ZM37.227 9.02036C37.4948 9.27342 37.9357 9.53772 38.2427 9.71205C38.4325 9.80765 38.5943 9.89762 38.5943 9.89762C38.5943 9.89762 37.2046 8.99224 37.6344 8.28368C37.6679 8.23307 37.7013 8.19371 37.7348 8.15434C37.5283 8.08124 37.3274 8.1206 37.1767 8.37366C37.0651 8.56486 37.0818 8.76168 37.16 8.9585C37.1823 8.98099 37.2046 8.99786 37.227 9.02036ZM31.6682 19.6994C31.7743 19.615 31.9473 19.5532 32.1761 19.6656C32.1761 19.6656 31.5455 18.9852 31.8133 18.3778C31.8468 18.2991 31.8915 18.2429 31.9361 18.1923C31.7185 18.136 31.4841 18.1698 31.3557 18.4678C31.138 18.9796 31.5287 19.525 31.6682 19.6994Z" fill="url(#paint3_radial_440_20653)"/>
<path d="M43.2447 18.783C43.401 18.35 45.0976 15.2571 42.1731 13.8456C40.404 12.9908 39.2989 13.4857 38.7017 14.0087C38.2218 14.3349 38.0711 13.9918 38.0711 13.9918C37.8925 13.2608 37.3958 12.8615 37.0107 12.6647C36.5084 12.4172 35.621 12.496 34.9401 13.8962C34.2592 15.2965 34.1644 17.1297 34.1644 17.1297L33.8909 17.1635C33.0761 17.2759 32.4008 18.4794 32.4008 18.4794C32.3226 18.35 31.625 17.8664 31.3571 18.4737C31.0892 19.0811 31.7143 19.7615 31.7143 19.7615C31.2845 19.5478 31.0557 19.9527 31.0557 19.9527C30.693 20.8806 31.8706 21.0099 31.8706 21.0099C33.2491 24.3953 36.7874 25.087 36.7874 25.087C42.2513 26.386 43.641 23.996 44.2046 22.1965C44.7739 20.3913 43.2447 18.783 43.2447 18.783Z" fill="#FCD9B7"/>
<path d="M42.1667 13.8457C40.3975 12.9909 39.2924 13.4857 38.6953 14.0087C38.5948 14.0818 38.5055 14.1156 38.433 14.1381C38.4664 14.2337 38.4999 14.3293 38.5222 14.4417C38.5222 14.4417 38.6618 14.7904 39.1473 14.4755C39.7612 13.9694 40.8774 13.5139 42.6187 14.4249C43.0373 14.6442 43.3554 14.8972 43.5954 15.1672C43.3498 14.6667 42.9034 14.1999 42.1667 13.8457ZM43.601 19.2442C43.5731 19.3061 43.5452 19.3567 43.534 19.3904C43.534 19.3904 43.88 19.7841 44.1703 20.3914C44.0196 19.9246 43.7963 19.531 43.601 19.2442ZM31.9701 21.218C32.1878 21.696 32.4445 22.1234 32.7347 22.4946C32.4947 22.1234 32.2827 21.7073 32.1096 21.2462C32.1096 21.2462 32.0538 21.2405 31.9701 21.218ZM34.9392 13.8906C34.2583 15.2909 34.1635 17.1241 34.1635 17.1241L33.89 17.1579C33.0752 17.2704 32.3999 18.4738 32.3999 18.4738C32.3217 18.3444 31.6241 17.8608 31.3562 18.4682C31.0883 19.0755 31.7134 19.7559 31.7134 19.7559C31.2836 19.5422 31.0548 19.9471 31.0548 19.9471C30.8707 20.4139 31.0772 20.6782 31.3339 20.83C31.2278 20.6726 31.1944 20.4533 31.3227 20.1608C31.3227 20.1608 31.5571 19.7672 31.9869 19.9921C31.9869 19.9921 31.3785 19.2948 31.6687 18.6931C31.9534 18.0914 32.3385 18.62 32.411 18.7493C32.411 18.7493 33.2984 17.4784 34.236 17.4616L34.5095 17.4334C34.5095 17.4334 34.6658 15.6058 35.3913 14.228C36.1168 12.8503 37.0042 12.7997 37.4953 13.064C37.54 13.0921 37.5902 13.1202 37.6404 13.1483C37.4395 12.9122 37.2051 12.7547 37.0042 12.6535C36.5075 12.4173 35.6201 12.4904 34.9392 13.8906Z" fill="url(#paint4_radial_440_20653)"/>
<path d="M47.6369 16.5895C47.5141 14.4582 46.5988 12.3269 44.5785 11.0278C43.9031 11.1178 43.3116 11.6014 44.1822 12.3831C46.6992 14.655 44.7961 18.6983 44.7961 18.6983C44.7961 18.6983 46.7383 17.0337 47.6369 16.5895Z" fill="url(#paint5_linear_440_20653)"/>
<path d="M51.0077 15.0657C50.7566 14.9645 50.4887 14.8914 50.2152 14.852C49.7576 14.7733 49.2887 14.8126 48.8367 14.942C48.8311 14.942 48.8311 14.942 48.8255 14.942C47.1735 15.4143 45.6499 17.062 44.9746 18.6254C44.9746 18.6254 46.554 19.3789 46.0015 22.0051C47.0842 22.3425 48.6023 22.0557 49.8859 21.409C51.7667 20.1831 52.3472 18.8615 52.4365 17.81C52.5537 15.8923 51.1919 15.1557 51.0077 15.0657Z" fill="#FCD9B7"/>
<path d="M47.9265 19.868C47.9265 19.868 47.5917 19.6656 47.8261 19.2832C48.0605 18.8952 48.4511 18.5578 48.133 18.3778C47.8205 18.1979 46.894 18.2485 47.8037 17.4106C48.7135 16.5727 50.6612 16.2015 51.024 17.27C51.3868 18.3441 49.4055 20.6947 47.9265 19.868Z" fill="#E08E62"/>
<path d="M49.2213 18.6477C48.9869 19.2326 48.6465 19.6768 48.3172 20.0086C48.1833 19.9805 48.0549 19.9355 47.9265 19.8624C47.9265 19.8624 47.5917 19.66 47.8261 19.2776C48.0605 18.8895 48.4511 18.5521 48.133 18.3722C47.8205 18.1922 46.894 18.2428 47.8037 17.4049C47.9879 17.2362 48.2112 17.09 48.4567 16.9663C48.9869 17.1575 49.6455 17.6018 49.2213 18.6477Z" fill="#603A17"/>
<path d="M48.6246 15.6224C48.6246 15.6224 48.6302 15.6224 48.6358 15.6224C49.0934 15.4931 49.5566 15.4593 50.0143 15.5324C50.2878 15.5718 50.5556 15.6393 50.8068 15.7461C50.991 15.8361 52.3527 16.5784 52.2355 18.496C52.2244 18.6197 52.2076 18.7547 52.1797 18.884C52.3304 18.5073 52.4085 18.1474 52.4365 17.8156C52.5537 15.898 51.1919 15.1557 51.0077 15.0657C50.7566 14.9645 50.4887 14.8914 50.2152 14.852C49.7576 14.7733 49.2887 14.8126 48.8367 14.942C48.8311 14.942 48.8311 14.942 48.8255 14.942C47.1735 15.4143 45.6499 17.062 44.9746 18.6254C44.9746 18.6254 45.0193 18.6479 45.0806 18.6872C45.8508 17.3263 47.1903 16.0329 48.6246 15.6224Z" fill="url(#paint6_radial_440_20653)"/>
<path opacity="0.43" d="M51.0077 15.0657C50.7566 14.9645 50.4887 14.8914 50.2152 14.852C49.7576 14.7733 49.2887 14.8126 48.8367 14.942C48.8311 14.942 48.8311 14.942 48.8255 14.942C47.1735 15.4143 45.6499 17.062 44.9746 18.6254C44.9802 18.6254 46.554 19.3789 46.0015 22.0051C47.0842 22.3425 48.6023 22.0557 49.8859 21.409C51.7667 20.1831 52.3472 18.8615 52.4365 17.81C52.5537 15.8923 51.1919 15.1557 51.0077 15.0657Z" fill="url(#paint7_radial_440_20653)"/>
<path d="M37.9414 5.39355C37.9414 5.39355 39.8334 7.77791 42.7969 9.63367C45.7604 11.4894 48.4896 12.8728 51.3917 13.8963C51.3917 13.8963 47.3845 8.59894 46.7148 7.87351C46.7148 7.87351 46.4302 7.50799 46.112 7.41239C45.7995 7.31679 38.7841 5.41043 37.9414 5.39355Z" fill="#49494B"/>
<path d="M45.66 7.83415C45.66 7.83415 48.5565 10.5109 49.2151 11.242C49.3323 11.3713 49.2932 11.2476 49.1593 10.9608C48.1156 9.60555 47.0329 8.21655 46.7148 7.87351C46.7148 7.87351 46.4302 7.50799 46.112 7.41239C45.7995 7.32241 38.7786 5.41605 37.9414 5.39355C37.9414 5.39355 38.4995 6.10211 39.4874 7.04124C39.5822 7.08623 39.638 7.11434 39.638 7.11434C39.638 7.11434 39.2809 6.42265 39.2306 6.33268C39.1916 6.23708 44.0582 7.41239 45.66 7.83415Z" fill="url(#paint8_linear_440_20653)"/>
<path d="M42.3332 8.12646L39.5762 9.67292C39.5762 9.67292 40.2068 11.5062 42.6625 12.5915C45.1181 13.6825 46.9096 13.6375 46.9096 13.6375L47.2557 10.9495C47.2557 10.9495 45.28 8.47512 42.3332 8.12646Z" fill="#4E4C50"/>
<path d="M46.212 10.0385C46.212 10.0385 46.0111 9.78539 45.6093 9.44798C44.7721 8.85752 43.6503 8.2783 42.3332 8.12646L39.5762 9.67292C39.5762 9.67292 39.8887 10.5783 40.9268 11.4949C40.9826 11.5006 41.0161 11.5062 41.0161 11.5062L40.3464 10.0553L42.3667 8.85752C42.3667 8.85752 44.4652 8.925 46.212 10.0385Z" fill="url(#paint9_linear_440_20653)"/>
<path opacity="0.78" d="M46.9105 13.6372L47.2566 10.9492C47.2566 10.9492 46.9719 10.5893 46.4529 10.1282L46.4027 10.1226L45.4037 12.3551C45.013 13.2211 43.8242 13.0411 43.8242 13.0411L44.8511 13.3673C44.8511 13.3673 45.0465 13.4179 45.4316 13.4742C46.3524 13.6485 46.9105 13.6372 46.9105 13.6372Z" fill="url(#paint10_linear_440_20653)"/>
<path opacity="0.78" d="M47.3957 10.9102L49.1872 11.2476L51.0178 13.6094C51.0178 13.6094 47.9873 12.4566 47.2617 11.973L47.3957 10.9102Z" fill="url(#paint11_linear_440_20653)"/>
<path opacity="0.65" d="M43.897 22.1289C43.897 22.1289 43.2942 25.0869 39.873 25.0869C39.873 25.0812 42.3175 24.7551 43.897 22.1289Z" fill="url(#paint12_radial_440_20653)"/>
<path d="M39.543 20.2054C39.543 20.2054 40.6871 18.6027 42.8804 19.7274C42.8804 19.7274 41.1894 19.345 39.543 20.2054Z" fill="url(#paint13_radial_440_20653)"/>
<path opacity="0.43" d="M43.2447 18.783C43.401 18.35 45.0976 15.2571 42.1731 13.8456C40.404 12.9908 39.2989 13.4857 38.7017 14.0087C38.2218 14.3349 38.0711 13.9918 38.0711 13.9918C37.8925 13.2608 37.3958 12.8615 37.0107 12.6647C36.5084 12.4172 35.621 12.496 34.9401 13.8962C34.2592 15.2965 34.1644 17.1297 34.1644 17.1297L33.8909 17.1635C33.0761 17.2759 32.4008 18.4794 32.4008 18.4794C32.3226 18.35 31.625 17.8664 31.3571 18.4737C31.0892 19.0811 31.7143 19.7615 31.7143 19.7615C31.2845 19.5478 31.0557 19.9527 31.0557 19.9527C30.693 20.8806 31.8706 21.0099 31.8706 21.0099C33.2491 24.3953 36.7874 25.087 36.7874 25.087C42.2513 26.386 43.641 23.996 44.2046 22.1965C44.7739 20.3913 43.2447 18.783 43.2447 18.783Z" fill="url(#paint14_radial_440_20653)"/>
<path d="M41.2789 14.9141C41.0724 14.6442 40.8212 14.5654 40.6203 14.5654C40.2185 14.5654 40.0566 14.7791 40.0176 14.8354C40.0064 14.8522 40.0008 14.8635 39.9952 14.8803C39.9115 15.1334 40.1013 15.2627 40.2296 15.139C40.3134 15.0603 40.4585 14.9984 40.6092 14.9759C40.704 14.9703 40.9384 14.9872 41.0947 15.1953C41.1003 15.2009 41.1114 15.2121 41.117 15.2234C41.1226 15.2346 41.1338 15.2459 41.1394 15.2515C41.2175 15.364 41.2845 15.4652 41.3012 15.4877C41.3403 15.527 41.3849 15.4764 41.3849 15.4764C41.4296 15.2402 41.3793 15.0603 41.2789 14.9141Z" fill="#603A17"/>
<path d="M36.1278 13.8175C36.3846 13.6431 36.6022 13.6656 36.7641 13.7444C37.071 13.8962 37.1157 14.1549 37.1213 14.2224C37.1213 14.2392 37.1268 14.2561 37.1213 14.273C37.0933 14.5317 36.898 14.5823 36.8422 14.4248C36.8087 14.318 36.7194 14.2055 36.6078 14.1324C36.5408 14.093 36.3511 14.0199 36.1557 14.1549C36.1446 14.1605 36.139 14.1661 36.1278 14.1718C36.1167 14.1774 36.1055 14.1886 36.0999 14.1886C35.9995 14.2617 35.9102 14.3348 35.8878 14.3461C35.8432 14.3686 35.832 14.3067 35.832 14.3067C35.8934 14.0649 35.9995 13.9131 36.1278 13.8175Z" fill="#603A17"/>
<path d="M41.4019 18.3047C41.0614 19.1876 40.2019 19.6712 39.482 19.3957C38.7676 19.1145 38.4607 18.1698 38.8011 17.2869C39.1415 16.404 40.001 15.9204 40.721 16.2015C41.4353 16.4771 41.7423 17.4218 41.4019 18.3047Z" fill="url(#paint15_radial_440_20653)"/>
<path opacity="0.13" d="M41.4748 18.2993C41.1065 19.2328 40.1968 19.7502 39.4322 19.4521C38.6676 19.1541 38.3495 18.1587 38.7122 17.2196C39.075 16.2861 39.9903 15.7688 40.7549 16.0612C41.5139 16.3648 41.8376 17.3658 41.4748 18.2993Z" fill="url(#paint16_linear_440_20653)"/>
<path opacity="0.13" d="M37.1037 17.1463C36.7075 17.8886 35.9373 18.1529 35.3903 17.7423C34.8378 17.3318 34.7206 16.3983 35.1169 15.656C35.5131 14.9137 36.2833 14.6494 36.8302 15.0599C37.3716 15.4761 37.4944 16.404 37.1037 17.1463Z" fill="url(#paint17_linear_440_20653)"/>
<path d="M37.2092 16.668C37.0307 17.4778 36.3944 18.0289 35.7861 17.9052C35.1777 17.7815 34.8261 17.0223 34.9992 16.2125C35.1777 15.4027 35.814 14.8516 36.4223 14.9754C37.0307 15.1047 37.3823 15.8582 37.2092 16.668Z" fill="url(#paint18_radial_440_20653)"/>
<path d="M36.898 16.8762C36.7696 17.2586 36.4236 17.4892 36.1334 17.3879C35.8431 17.2867 35.7092 16.8931 35.8431 16.5107C35.9715 16.1283 36.3175 15.8977 36.6077 15.9989C36.898 16.1002 37.0263 16.4938 36.898 16.8762Z" fill="url(#paint19_radial_440_20653)"/>
<path d="M36.7401 16.8931C36.6396 17.1855 36.3885 17.3599 36.1764 17.2868C35.9643 17.2136 35.8694 16.9156 35.9699 16.6232C36.0703 16.3308 36.3215 16.1564 36.5336 16.2295C36.7456 16.3026 36.8405 16.6007 36.7401 16.8931Z" fill="#341718"/>
<path d="M36.2842 16.4713C36.234 16.5669 36.1279 16.6119 36.0498 16.5669C35.9717 16.5219 35.9438 16.4094 35.994 16.3138C36.0442 16.2182 36.1503 16.1732 36.2284 16.2182C36.3121 16.2632 36.3344 16.3757 36.2842 16.4713Z" fill="white"/>
<path d="M36.6301 17.1801C36.5911 17.2588 36.5129 17.2925 36.4571 17.2588C36.4013 17.2251 36.3846 17.1407 36.4236 17.062C36.4627 16.9832 36.5408 16.9495 36.5966 16.9832C36.6525 17.017 36.6692 17.1013 36.6301 17.1801Z" fill="white"/>
<path d="M37.7118 20.1215C37.829 19.9471 37.9909 19.6435 37.8067 19.5591C37.6281 19.4748 37.3881 19.7728 37.2598 19.9696L37.7118 20.1215Z" fill="#603A17"/>
<path d="M36.0996 19.5927C36.1108 19.379 36.1554 19.0416 36.3508 19.0866C36.5461 19.126 36.5628 19.5084 36.5517 19.7445L36.0996 19.5927Z" fill="#603A17"/>
<path d="M41.4019 18.3047C41.0614 19.1876 40.2019 19.6712 39.482 19.3957C38.7676 19.1145 38.4607 18.1698 38.8011 17.2869C39.1415 16.404 40.001 15.9204 40.721 16.2015C41.4353 16.4771 41.7423 17.4218 41.4019 18.3047Z" fill="url(#paint20_radial_440_20653)"/>
<path d="M40.9884 18.4733C40.7708 18.8838 40.3187 19.0638 39.9838 18.8838C39.649 18.7039 39.5485 18.2259 39.7718 17.821C39.9894 17.4105 40.4415 17.2305 40.7763 17.4105C41.1112 17.5848 41.2061 18.0628 40.9884 18.4733Z" fill="url(#paint21_radial_440_20653)"/>
<path d="M40.8653 18.4341C40.7035 18.7378 40.3686 18.8727 40.1119 18.7378C39.8608 18.6028 39.7882 18.2485 39.9556 17.9449C40.1175 17.6412 40.4524 17.5062 40.7091 17.6412C40.9546 17.7705 41.0272 18.1304 40.8653 18.4341Z" fill="#341718"/>
<path d="M40.3147 17.8718C40.2421 17.973 40.1082 18.0011 40.0189 17.9336C39.9296 17.8662 39.9184 17.7312 39.991 17.63C40.0635 17.5287 40.1975 17.5062 40.2868 17.5737C40.3817 17.6356 40.3928 17.7706 40.3147 17.8718Z" fill="white"/>
<path d="M40.6207 18.7547C40.5593 18.8334 40.4588 18.8559 40.3974 18.8053C40.3305 18.7547 40.3305 18.6534 40.3863 18.5747C40.4421 18.496 40.5481 18.4735 40.6095 18.5241C40.6709 18.5747 40.6765 18.6816 40.6207 18.7547Z" fill="white"/>
<path d="M51.3976 13.8904C51.3976 13.8904 47.3904 8.59308 46.7206 7.86765C46.7206 7.86765 46.436 7.50213 46.1179 7.40653C45.8054 7.31655 38.7844 5.41019 37.9473 5.3877C37.9473 5.3877 39.2532 7.02975 41.3963 8.64932L39.5825 9.66717C39.5825 9.66717 40.2132 11.5004 42.6688 12.5858C45.1245 13.6767 46.916 13.6317 46.916 13.6317L47.1169 12.0628C48.5289 12.777 49.9409 13.3787 51.3976 13.8904Z" fill="url(#paint22_radial_440_20653)"/>
<path opacity="0.43" d="M47.9265 19.868C47.9265 19.868 47.5917 19.6656 47.8261 19.2832C48.0605 18.8952 48.4511 18.5578 48.133 18.3778C47.8205 18.1979 46.894 18.2485 47.8037 17.4106C48.7135 16.5727 50.6612 16.2015 51.024 17.27C51.3868 18.3441 49.4055 20.6947 47.9265 19.868Z" fill="url(#paint23_linear_440_20653)"/>
<path opacity="0.9" d="M35.8711 18.4399C35.1288 17.5064 34.7604 17.4782 34.2749 17.332L33.834 17.5457C34.8386 17.4782 35.8711 18.4399 35.8711 18.4399Z" fill="url(#paint24_linear_440_20653)"/>
<path opacity="0.42" d="M46.5812 21.4148C46.5645 21.516 46.5589 21.6904 46.4863 21.8253C48.2667 22.0278 49.4554 21.0605 49.4554 21.0605C48.4229 21.4204 47.4016 21.4598 46.5812 21.4148Z" fill="url(#paint25_linear_440_20653)"/>
<path opacity="0.27" d="M32.0156 20.0762C32.0156 20.0762 35.1187 23.6471 39.1593 22.6067C39.1593 22.6011 35.0796 22.753 32.0156 20.0762Z" fill="url(#paint26_linear_440_20653)"/>
<path d="M48.445 10.0327C48.3501 11.2643 48.3334 12.6083 48.6515 13.2943L48.9696 13.3506C48.9696 13.3506 48.5734 12.7489 48.7129 10.3645L48.445 10.0327Z" fill="url(#paint27_linear_440_20653)"/>
<path d="M48.5293 14.5429L48.373 13.5306C48.373 13.5306 48.4233 13.3057 48.5237 13.272C48.6242 13.2382 48.9088 13.047 48.9088 13.047C48.9088 13.047 49.1488 12.9683 49.2214 13.1258C49.2939 13.2776 49.7069 13.9524 49.7069 13.9524C49.7069 13.9524 49.7181 14.1267 49.6232 14.183C49.5227 14.228 48.6354 14.7003 48.5293 14.5429Z" fill="url(#paint28_linear_440_20653)"/>
<path d="M48.6404 14.5821L48.5176 15.9711C48.5176 15.9711 49.0589 16.1961 49.5724 16.0105C50.0858 15.8193 50.4375 15.5269 50.3872 15.42C50.3426 15.3132 49.6115 14.1772 49.6115 14.1772L48.6404 14.5821Z" fill="url(#paint29_linear_440_20653)"/>
<path d="M48.507 13.2998L49.0149 14.2895L48.5907 14.4695L48.4512 13.4685L48.507 13.2998Z" fill="url(#paint30_linear_440_20653)"/>
<path d="M48.9199 16.0555L48.9422 16.0723C49.0036 16.078 49.0706 16.0836 49.1432 16.0836L48.9255 14.6665L48.9199 16.0555ZM49.439 16.0498C49.4836 16.0386 49.5338 16.0274 49.5785 16.0105C49.612 15.9936 49.651 15.9824 49.6845 15.9655L49.7013 15.9318L49.1208 14.6665L49.439 16.0498ZM49.6287 14.5259L50.1198 15.6393L50.131 15.7293C50.2203 15.6674 50.2873 15.6112 50.3319 15.5606L49.6287 14.5259ZM49.852 15.8924C49.9301 15.853 50.0026 15.8137 50.064 15.7743L49.3887 14.6552L49.852 15.8924Z" fill="url(#paint31_radial_440_20653)"/>
<path opacity="0.88" d="M48.4951 10.0947C48.4951 10.0947 48.35 11.703 48.5285 12.3835C48.5285 12.3835 48.4895 10.7358 48.5732 10.2128L48.4951 10.0947Z" fill="url(#paint32_linear_440_20653)"/>
<path opacity="0.43" d="M50.3931 15.4199C50.3485 15.3131 49.6173 14.1771 49.6173 14.1771C49.7122 14.1209 49.7011 13.9465 49.7011 13.9465C49.7011 13.9465 49.2881 13.2774 49.2155 13.1199C49.143 12.9624 48.903 13.0412 48.903 13.0412C48.903 13.0412 48.6183 13.2324 48.5179 13.2661C48.4174 13.2998 48.3672 13.5248 48.3672 13.5248L48.5235 14.537C48.5458 14.5708 48.6016 14.5708 48.6797 14.5595L48.6407 14.5764L48.5179 15.9654C48.5179 15.9654 49.0592 16.1903 49.5727 16.0047C50.0917 15.8192 50.4378 15.5324 50.3931 15.4199Z" fill="url(#paint33_radial_440_20653)"/>
<path d="M42.1171 21.8587C40.1916 22.6572 38.3387 22.6629 36.7369 22.3198C36.4746 22.2636 36.2179 22.1905 35.9668 22.1174C35.5594 21.9937 35.1854 21.8587 34.8394 21.7237C34.8338 21.7237 34.8338 21.7181 34.8282 21.7181C34.672 21.6563 34.5269 21.5888 34.3818 21.5269C34.3483 21.51 34.3204 21.4988 34.2869 21.4876C32.847 20.8127 32.0098 20.0536 31.6415 19.6712C31.6247 19.6599 31.6191 19.6543 31.6191 19.6543C31.6191 19.6543 32.4284 20.7734 34.4152 21.7069C34.4431 21.7237 34.4766 21.735 34.5045 21.7519C34.6441 21.8137 34.7892 21.8812 34.9399 21.9431C34.9454 21.9431 34.9454 21.9487 34.951 21.9487C35.2859 22.0893 35.6542 22.2186 36.0505 22.3367C36.296 22.4098 36.5416 22.4773 36.8039 22.5279C38.3666 22.8597 40.1804 22.8484 42.0668 22.033C42.1394 22.0049 42.1673 21.9206 42.1394 21.8475C42.1338 21.8475 42.1282 21.8531 42.1171 21.8587Z" fill="#603A17"/>
<path d="M42.1219 21.2515C42.1219 21.2515 41.5303 22.1175 42.6577 22.3649C42.6577 22.3705 41.921 22.005 42.1219 21.2515Z" fill="#603A17"/>
<path d="M22.5212 41.473C22.1975 41.473 21.7119 41.5404 21.7119 41.7485C21.7119 42.2153 24.335 42.1759 24.335 43.7505C24.335 44.9089 23.403 45.2913 22.2533 45.2913C21.6059 45.2913 21.1761 45.1057 20.9027 44.9426C20.7129 44.8246 20.5734 44.5996 20.5734 44.3578C20.5734 44.0766 20.7241 43.8517 20.9696 43.8517C21.0255 43.8517 21.0924 43.8573 21.1538 43.8854C21.4496 44.0373 21.857 44.116 22.1472 44.116C22.3537 44.116 23.1072 44.116 23.1072 43.8236C23.1072 43.2556 20.4785 43.3568 20.4785 41.771C20.4785 40.5957 21.444 40.2695 22.4542 40.2695C22.9342 40.2695 23.2467 40.3426 23.4699 40.4045C23.8495 40.5282 23.9388 40.7532 23.9388 41.0737C23.9388 41.3155 23.8495 41.6417 23.5425 41.6417C23.2355 41.5742 22.8225 41.473 22.5212 41.473Z" fill="#00C2F3"/>
<path d="M25.9533 41.501H25.2501C24.9264 41.501 24.6641 41.2367 24.6641 40.9105C24.6641 40.5844 24.9264 40.3257 25.2501 40.3257H27.862C28.1857 40.3257 28.448 40.5844 28.448 40.9105C28.448 41.2367 28.1857 41.501 27.862 41.501H27.1532V44.6445C27.1532 44.9763 26.8797 45.2462 26.5505 45.2462C26.2212 45.2462 25.9533 44.9819 25.9533 44.6445V41.501Z" fill="#00C2F3"/>
<path d="M28.8672 42.716C28.8672 40.9221 30.1397 40.2754 31.2168 40.2754C32.2939 40.2754 33.5664 40.9277 33.5664 42.716C33.5664 44.8135 32.1098 45.2915 31.2112 45.2915C30.3238 45.2915 28.8672 44.8135 28.8672 42.716ZM32.3665 42.7385C32.3665 41.715 31.7693 41.4451 31.2112 41.4451C30.6643 41.4451 30.0727 41.7094 30.0727 42.7385C30.0727 43.8969 30.7759 44.1106 31.2112 44.1106C31.6633 44.1162 32.3665 43.8969 32.3665 42.7385Z" fill="#00C2F3"/>
<path d="M38.2988 42.474C38.2988 42.1423 38.5611 41.8667 38.896 41.8667C39.2253 41.8667 39.4987 42.1423 39.4987 42.474V44.6335C39.4987 44.9652 39.2253 45.2408 38.896 45.2408C38.5667 45.2408 38.2988 44.9652 38.2988 44.6335V42.474Z" fill="#00C2F3"/>
<path d="M40.2461 40.933C40.2461 40.6012 40.5028 40.3257 40.8321 40.3257H43.0813C43.405 40.3257 43.6673 40.5844 43.6673 40.9105C43.6673 41.2367 43.405 41.501 43.0813 41.501H41.446V42.2827H42.685C43.0143 42.2827 43.271 42.547 43.271 42.8844C43.271 43.2162 43.0143 43.4748 42.685 43.4748H41.446V44.0653H43.0813C43.405 44.0653 43.6673 44.3296 43.6673 44.6558C43.6673 44.9819 43.405 45.2406 43.0813 45.2406H40.8321C40.5028 45.2406 40.2461 44.9651 40.2461 44.6333V40.933Z" fill="#00C2F3"/>
<path d="M46.1735 41.473C45.8498 41.473 45.3643 41.5404 45.3643 41.7485C45.3643 42.2153 47.9874 42.1759 47.9874 43.7505C47.9874 44.9089 47.0553 45.2913 45.9056 45.2913C45.2582 45.2913 44.8285 45.1057 44.555 44.9426C44.3653 44.8246 44.2257 44.5996 44.2257 44.3578C44.2257 44.0766 44.3764 43.8517 44.622 43.8517C44.6778 43.8517 44.7448 43.8573 44.8062 43.8854C45.102 44.0373 45.5094 44.116 45.7996 44.116C46.0061 44.116 46.7595 44.116 46.7595 43.8236C46.7595 43.2556 44.1309 43.3568 44.1309 41.771C44.1309 40.5957 45.0964 40.2695 46.1065 40.2695C46.5865 40.2695 46.8991 40.3426 47.1223 40.4045C47.5018 40.5282 47.5911 40.7532 47.5911 41.0737C47.5911 41.3155 47.5018 41.6417 47.1948 41.6417C46.8879 41.5742 46.4693 41.473 46.1735 41.473Z" fill="#00C2F3"/>
<path d="M38.2716 41.5742C38.2214 41.5461 38.1433 41.473 38.1879 41.2762L38.3163 40.7476L37.8698 40.3708C37.7805 40.2864 37.7526 40.2077 37.7749 40.129C37.7916 40.084 37.8307 40.0165 37.9479 39.994L38.5674 39.949L38.7683 39.4373C38.813 39.3473 38.8632 39.2967 38.9246 39.2798C38.9692 39.263 39.0195 39.2686 39.0641 39.2911C39.1255 39.3248 39.1702 39.3923 39.1925 39.4373L39.3934 39.9434L39.8845 39.9771C39.9013 39.9771 39.9794 39.9884 40.0464 40.0221C40.1357 40.0727 40.158 40.1402 40.1636 40.1796C40.1747 40.2977 40.0687 40.3933 40.0352 40.4214L39.6557 40.7419L39.7785 41.2424C39.7897 41.2874 39.8231 41.4449 39.7171 41.5292C39.6501 41.5855 39.5553 41.5798 39.4436 41.5236C39.4269 41.518 39.4101 41.5067 39.3934 41.4955L38.986 41.2368L38.5228 41.5292C38.4837 41.5573 38.3721 41.6304 38.2716 41.5742Z" fill="#00C2F3"/>
<path d="M60.545 39.0043C60.545 39.0943 60.4725 39.1674 60.3832 39.1674C60.2939 39.1674 60.2269 39.0943 60.2269 39.0043V38.0595H59.9925C59.9088 38.0595 59.8418 37.992 59.8418 37.9077C59.8418 37.8233 59.9088 37.7559 59.9925 37.7559H60.7794C60.8631 37.7559 60.9301 37.8233 60.9301 37.9077C60.9301 37.9977 60.8631 38.0595 60.7794 38.0595H60.545V39.0043V39.0043Z" fill="#4E4C50"/>
<path d="M61.4883 38.7793L61.3321 38.5263V39.0155C61.3321 39.1055 61.2595 39.1786 61.1758 39.1786C61.0865 39.1786 61.0195 39.1055 61.0195 39.0155V37.8852C61.0195 37.8177 61.0698 37.7671 61.1367 37.7671C61.1814 37.7671 61.2149 37.7896 61.2372 37.8233L61.6781 38.5431L62.119 37.8233C62.1413 37.7896 62.1804 37.7671 62.2195 37.7671C62.2864 37.7671 62.3367 37.8177 62.3367 37.8852V39.0155C62.3367 39.1055 62.2641 39.1786 62.1748 39.1786C62.0855 39.1786 62.0185 39.1055 62.0185 39.0155V38.5263L61.8623 38.7793C61.8232 38.8412 61.7562 38.8862 61.6781 38.8862C61.5944 38.8862 61.5274 38.8412 61.4883 38.7793Z" fill="#4E4C50"/>
<path d="M25.1721 36.6989C25.1665 36.6651 25.1609 36.6314 25.1497 36.5977C25.1441 36.5864 25.1441 36.5752 25.1386 36.5639C25.133 36.547 25.1274 36.5302 25.1162 36.5133C25.0995 36.4739 25.0772 36.4402 25.0548 36.4065C25.0548 36.4065 25.0493 36.4008 25.0493 36.3952C25.0269 36.3615 25.0102 36.3333 24.9879 36.3109C24.9823 36.3052 24.9823 36.2996 24.9767 36.294C24.9767 36.2884 24.9711 36.2884 24.9711 36.2827C24.9711 36.2771 24.9656 36.2771 24.96 36.2715C24.7981 36.0409 24.4633 35.5686 24.2791 35.2368C24.2735 35.2255 24.2679 35.2199 24.2623 35.2086C24.2568 35.1974 24.2512 35.1918 24.2456 35.1805C24.0949 34.8994 23.9833 34.68 23.9833 34.68C23.961 34.6294 23.9386 34.5732 23.9163 34.5226C23.7377 34.1289 23.5926 33.7522 23.4754 33.4035C23.174 32.4306 22.9564 30.9123 22.9564 30.9123C22.9341 30.7155 22.9173 30.5693 22.9117 30.5299C22.8894 30.3556 22.8671 30.1981 22.8336 30.0463C22.6327 29.0116 22.2141 28.4492 21.5611 28.3311C21.4886 28.3199 21.4104 28.3086 21.3379 28.3086C20.7965 28.3086 20.2607 28.6854 19.7417 29.4221C19.2841 30.0856 18.7929 31.2947 18.5418 31.9526L17.8665 33.7578C17.8442 33.814 17.7828 33.9884 17.6377 33.9884C17.5651 33.9884 17.4702 33.9434 17.3977 33.7353C17.314 33.4485 17.2526 33.1561 17.2079 32.903C17.2023 32.8861 16.9065 31.0979 16.4322 27.9825C16.1698 26.2504 15.5057 25.3226 14.4788 25.2944C13.1338 25.2944 12.0845 27.0771 11.3534 30.5918C10.2149 36.0522 11.5934 39.5725 11.6492 39.7187C11.772 40.0167 12.0399 40.2248 12.358 40.2642C12.3915 40.2698 12.425 40.2698 12.4585 40.2698C12.5701 40.2698 12.6817 40.2473 12.7877 40.2079C13.2286 40.028 13.4463 39.5106 13.2677 39.0664C13.2565 39.0326 12.0399 35.8497 13.0612 30.9573C13.4407 29.1297 13.8537 28.1343 14.1384 27.6169C14.1997 27.5213 14.2723 27.4763 14.3504 27.4763C14.5123 27.4763 14.5793 27.6619 14.6072 27.735C14.6406 27.8812 14.6797 28.0499 14.7076 28.2524C15.182 31.3678 15.489 33.1842 15.489 33.1954C15.7289 34.6126 16.2647 36.3221 17.4479 36.4514C17.4926 36.4571 17.5372 36.4571 17.5818 36.4571C18.7092 36.4571 19.2841 34.95 19.5017 34.382L20.2049 32.5094C20.4114 31.9526 20.6403 31.4522 20.7965 31.126C20.8691 30.9798 20.9472 30.9123 21.0309 30.9123C21.137 30.9123 21.2039 31.0023 21.2207 31.1822C21.2263 31.2666 21.2374 31.3566 21.2374 31.4522L21.243 31.4971C21.2486 31.5815 21.416 33.0942 22.1918 34.9387C22.2029 34.9668 22.2141 34.995 22.2253 35.0287V35.0343C22.2867 35.1805 22.3704 35.3717 22.4708 35.591C22.7722 36.2321 23.2354 37.1656 23.7433 37.5536C23.8047 37.5986 23.8661 37.6436 23.9275 37.6774C24.0391 37.728 24.1563 37.7561 24.2847 37.7561C24.7758 37.7561 25.1776 37.3512 25.1776 36.8563C25.1776 36.8113 25.1721 36.7664 25.1665 36.727C25.1721 36.7157 25.1721 36.7101 25.1721 36.6989ZM28.8109 30.3275C26.7682 30.3275 25.1162 31.992 25.1162 34.0502C25.1162 36.1028 26.7682 37.773 28.8109 37.773C30.848 37.773 32.5055 36.1084 32.5055 34.0502C32.5055 31.992 30.848 30.3275 28.8109 30.3275ZM30.3736 34.6519C29.8266 35.3267 29.1513 35.7654 28.8165 35.9622C28.4816 35.7654 27.8063 35.3267 27.2594 34.6519C26.4948 33.7128 26.958 32.6218 27.7561 32.6387C28.5039 32.6556 28.822 33.3866 28.822 33.3866C28.822 33.3866 28.822 33.3866 28.822 33.381V33.3866C28.822 33.3866 29.1402 32.6556 29.888 32.6387C30.6749 32.6218 31.1326 33.7128 30.3736 34.6519ZM53.8474 35.9116C53.8418 35.6529 53.7358 35.4167 53.5516 35.2424C53.4288 35.1243 53.2781 35.0456 53.1163 35.0062C53.0493 34.9893 52.9767 34.9837 52.9098 34.9837C52.6475 34.9837 52.4019 35.0962 52.2233 35.2874C51.8884 35.6473 51.4196 35.8554 50.9341 35.8554C50.8057 35.8554 50.6774 35.8385 50.5434 35.8104C50.0858 35.7035 49.6951 35.4167 49.444 35.0118C49.1928 34.6069 49.1147 34.1233 49.2151 33.6566C49.3993 32.8468 50.1193 32.2563 50.9341 32.2563C51.068 32.2563 51.1964 32.2732 51.3248 32.3013C51.548 32.3519 51.7712 32.4531 51.9722 32.605C52.028 32.6556 52.1954 32.8299 52.134 33.0042C52.0559 33.2348 51.6206 33.3754 50.856 33.4148L50.8225 33.4204L50.7443 33.4429C50.4709 33.516 50.2811 33.769 50.2811 34.0558C50.2811 34.3932 50.5378 34.6688 50.8671 34.6913H50.8839L50.9787 34.6857C51.1071 34.68 54.132 34.4776 54.1878 33.0998V33.038C54.2102 32.7737 54.1767 32.5038 54.0874 32.2507C54.0762 32.217 54.0651 32.1832 54.0483 32.1495L53.9981 32.0539C53.9925 32.0426 53.9869 32.0314 53.9702 32.0033C53.9255 31.9302 53.892 31.8739 53.8641 31.8458L53.8251 31.8064C53.306 31.1091 52.5638 30.6199 51.7378 30.4287C51.4755 30.3668 51.202 30.3387 50.9285 30.3387C49.243 30.3387 47.7529 31.5534 47.379 33.2292C47.1613 34.1964 47.3287 35.1918 47.8478 36.0353C48.3668 36.8788 49.1761 37.4637 50.1193 37.683C50.3816 37.7448 50.655 37.773 50.9229 37.773C51.9275 37.773 52.8986 37.3456 53.5851 36.6033C53.7637 36.4121 53.8586 36.1703 53.8474 35.9116ZM61.5269 30.35C61.4878 30.3443 61.4543 30.3443 61.3929 30.3443C61.3874 30.3443 61.3818 30.3443 61.3762 30.3443C60.9297 30.3668 60.5614 30.7042 60.5056 31.1597C60.4777 31.3509 60.2153 33.0717 58.8536 34.9106L58.6806 35.1412L58.5355 35.2761L58.4741 35.0849C58.1169 33.9602 57.4248 32.2844 56.1691 30.6874C55.9961 30.468 55.7338 30.3387 55.4491 30.3443C55.2482 30.3443 55.0585 30.4118 54.8966 30.5412C54.7069 30.693 54.5897 30.9067 54.5618 31.1485C54.5339 31.3903 54.6008 31.6265 54.7515 31.8177C56.3756 33.8759 56.9002 36.1197 56.956 36.3727L57.023 36.7832L56.7551 36.9857L56.6714 37.0532L56.6602 37.0475C55.3431 37.9979 53.7581 38.6952 51.9387 39.117C51.6987 39.1732 51.4978 39.3194 51.3638 39.5275C51.2355 39.7356 51.1908 39.983 51.2466 40.2248C51.3471 40.6522 51.7154 40.9446 52.1508 40.9446H52.1842C52.2401 40.9446 52.2959 40.9334 52.3461 40.9221C61.3595 38.8358 62.2859 31.6771 62.3194 31.3734C62.3864 30.8729 62.0236 30.4118 61.5269 30.35ZM44.2871 33.7409L44.3875 33.6453C45.0963 32.9817 45.8498 32.4194 46.6367 31.9808C47.072 31.7333 47.2283 31.1822 46.9883 30.7436C46.8265 30.4568 46.5251 30.2768 46.1958 30.2768C46.0451 30.2768 45.8888 30.3162 45.7549 30.3893C44.7224 30.9742 43.7401 31.7221 42.836 32.6218L42.8193 32.6387L42.7969 32.65L42.6128 32.7399V31.261C42.6128 30.7492 42.1998 30.3331 41.6919 30.3331C41.184 30.3331 40.771 30.7492 40.771 31.261V36.8226C40.771 37.3343 41.184 37.7505 41.6919 37.7505C42.1998 37.7505 42.6128 37.3343 42.6128 36.8226V35.1018L42.6295 35.0231L42.6797 34.9837L42.7635 34.9387H42.7969C42.8528 34.9387 42.9086 34.9668 42.9644 35.0175L46.1623 38.0541C46.3353 38.2172 46.5586 38.3072 46.793 38.3072C47.0441 38.3072 47.2897 38.2003 47.4627 38.0148C47.6301 37.8348 47.7194 37.5986 47.7138 37.3512C47.7083 37.1038 47.6022 36.8732 47.4236 36.7045L44.2871 33.7409ZM38.8679 30.3443C38.36 30.3443 37.947 30.7605 37.947 31.2722V34.8094L37.7126 34.4214C37.1099 33.4429 36.0551 31.7333 35.7258 31.2441C35.5751 31.0191 35.1174 30.3387 34.4477 30.3387C34.3417 30.3387 34.2356 30.3556 34.1296 30.3893C33.2701 30.6536 33.2645 31.6827 33.2645 32.335L33.259 36.8282C33.259 37.34 33.672 37.7561 34.1798 37.7561C34.6877 37.7561 35.1007 37.34 35.1007 36.8282V33.6903L35.3351 34.0727C36.016 35.1693 36.7583 36.384 36.775 36.4121C37.3164 37.2893 37.9135 37.7561 38.4996 37.7561C38.6 37.7561 38.7005 37.7392 38.8065 37.7167C39.4316 37.5424 39.7609 36.9519 39.7888 35.951V31.2722C39.7832 30.7605 39.3702 30.3443 38.8679 30.3443Z" fill="#EE202E"/>
</g>
<defs>
<radialGradient id="paint0_radial_440_20653" cx="0" cy="0" r="1" gradientUnits="userSpaceOnUse" gradientTransform="translate(32.3452 14.2371) rotate(85.4006) scale(2.79403 1.64174)">
<stop offset="0.3939" stop-color="white"/>
<stop offset="0.4187" stop-color="#FFFAF6"/>
<stop offset="0.567" stop-color="#FEEBD9"/>
<stop offset="0.7146" stop-color="#FDE1C6"/>
<stop offset="0.8598" stop-color="#FDDBBB"/>
<stop offset="1" stop-color="#FCD9B7"/>
</radialGradient>
<linearGradient id="paint1_linear_440_20653" x1="27.083" y1="12.8084" x2="34.9087" y2="15.152" gradientUnits="userSpaceOnUse">
<stop offset="0.635" stop-color="white" stop-opacity="0"/>
<stop offset="0.6659" stop-color="#FFF1E9" stop-opacity="0.0893"/>
<stop offset="0.7256" stop-color="#FDD5C0" stop-opacity="0.2616"/>
<stop offset="0.8072" stop-color="#F9AA85" stop-opacity="0.4972"/>
<stop offset="0.8606" stop-color="#F68D62" stop-opacity="0.6512"/>
<stop offset="0.8954" stop-color="#DC7B4D" stop-opacity="0.7259"/>
<stop offset="0.9329" stop-color="#CC703E" stop-opacity="0.8063"/>
<stop offset="0.9685" stop-color="#C26A36" stop-opacity="0.8826"/>
<stop offset="1" stop-color="#BF6834" stop-opacity="0.95"/>
</linearGradient>
<linearGradient id="paint2_linear_440_20653" x1="46.4366" y1="20.6423" x2="44.11" y2="23.5525" gradientUnits="userSpaceOnUse">
<stop stop-color="#A91F27"/>
<stop offset="0.1913" stop-color="#AE1F27"/>
<stop offset="0.3892" stop-color="#BC2028"/>
<stop offset="0.5791" stop-color="#D42029"/>
<stop offset="0.7394" stop-color="#EB2227"/>
</linearGradient>
<radialGradient id="paint3_radial_440_20653" cx="0" cy="0" r="1" gradientUnits="userSpaceOnUse" gradientTransform="translate(35.2783 9.34353) rotate(16.9119) scale(9.12373 9.18144)">
<stop stop-color="white"/>
<stop offset="0.1049" stop-color="#FCD4C4"/>
<stop offset="0.2345" stop-color="#F7A990"/>
<stop offset="0.3658" stop-color="#F3876B"/>
<stop offset="0.4961" stop-color="#F06A50"/>
<stop offset="0.6254" stop-color="#EE503B"/>
<stop offset="0.7531" stop-color="#EC3A2F"/>
<stop offset="0.8788" stop-color="#EB2929"/>
<stop offset="1" stop-color="#EB2227"/>
</radialGradient>
<radialGradient id="paint4_radial_440_20653" cx="0" cy="0" r="1" gradientUnits="userSpaceOnUse" gradientTransform="translate(35.3464 17.0787) rotate(16.9119) scale(7.67967 7.72824)">
<stop offset="0.3939" stop-color="white"/>
<stop offset="0.4187" stop-color="#FFFAF6"/>
<stop offset="0.567" stop-color="#FEEBD9"/>
<stop offset="0.7146" stop-color="#FDE1C6"/>
<stop offset="0.8598" stop-color="#FDDBBB"/>
<stop offset="1" stop-color="#FCD9B7"/>
</radialGradient>
<linearGradient id="paint5_linear_440_20653" x1="47.5486" y1="15.318" x2="44.6379" y2="14.8592" gradientUnits="userSpaceOnUse">
<stop stop-color="#AE1F28"/>
<stop offset="0.2066" stop-color="#B21F28"/>
<stop offset="0.4204" stop-color="#C12029"/>
<stop offset="0.5791" stop-color="#D42029"/>
<stop offset="0.7394" stop-color="#EB2227"/>
</linearGradient>
<radialGradient id="paint6_radial_440_20653" cx="0" cy="0" r="1" gradientUnits="userSpaceOnUse" gradientTransform="translate(49.058 17.1779) rotate(16.9119) scale(4.50258 4.53106)">
<stop offset="0.3939" stop-color="white"/>
<stop offset="0.4187" stop-color="#FFFAF6"/>
<stop offset="0.567" stop-color="#FEEBD9"/>
<stop offset="0.7146" stop-color="#FDE1C6"/>
<stop offset="0.8598" stop-color="#FDDBBB"/>
<stop offset="1" stop-color="#FCD9B7"/>
</radialGradient>
<radialGradient id="paint7_radial_440_20653" cx="0" cy="0" r="1" gradientUnits="userSpaceOnUse" gradientTransform="translate(48.078 17.8443) rotate(16.9119) scale(4.37078 4.39842)">
<stop offset="0.635" stop-color="white" stop-opacity="0"/>
<stop offset="0.6659" stop-color="#FFF1E9" stop-opacity="0.0893"/>
<stop offset="0.7256" stop-color="#FDD5C0" stop-opacity="0.2616"/>
<stop offset="0.8072" stop-color="#F9AA85" stop-opacity="0.4972"/>
<stop offset="0.8606" stop-color="#F68D62" stop-opacity="0.6512"/>
<stop offset="0.8954" stop-color="#DC7B4D" stop-opacity="0.7259"/>
<stop offset="0.9329" stop-color="#CC703E" stop-opacity="0.8063"/>
<stop offset="0.9685" stop-color="#C26A36" stop-opacity="0.8826"/>
<stop offset="1" stop-color="#BF6834" stop-opacity="0.95"/>
</radialGradient>
<linearGradient id="paint8_linear_440_20653" x1="37.5652" y1="6.27079" x2="49.5945" y2="9.87327" gradientUnits="userSpaceOnUse">
<stop stop-color="#929497"/>
<stop offset="0.0471" stop-color="#8A8B8D"/>
<stop offset="0.2414" stop-color="#6E6E6F"/>
<stop offset="0.4358" stop-color="#5A595A"/>
<stop offset="0.6281" stop-color="#4C4B4C"/>
<stop offset="0.8174" stop-color="#444444"/>
<stop offset="1" stop-color="#414142"/>
</linearGradient>
<linearGradient id="paint9_linear_440_20653" x1="41.489" y1="8.48855" x2="42.4975" y2="9.5908" gradientUnits="userSpaceOnUse">
<stop stop-color="white"/>
<stop offset="0.0432" stop-color="#E7E6E6"/>
<stop offset="0.2054" stop-color="#B3B0B1"/>
<stop offset="0.3687" stop-color="#8F8C8D"/>
<stop offset="0.5305" stop-color="#767475"/>
<stop offset="0.6906" stop-color="#656566"/>
<stop offset="0.848" stop-color="#5C5C5E"/>
<stop offset="1" stop-color="#595A5C"/>
</linearGradient>
<linearGradient id="paint10_linear_440_20653" x1="45.7548" y1="12.2382" x2="48.7685" y2="11.0485" gradientUnits="userSpaceOnUse">
<stop stop-color="#414142"/>
<stop offset="0.121" stop-color="#464647"/>
<stop offset="0.4199" stop-color="#515153"/>
<stop offset="0.7151" stop-color="#57585A"/>
<stop offset="1" stop-color="#595A5C"/>
</linearGradient>
<linearGradient id="paint11_linear_440_20653" x1="49.9181" y1="13.0971" x2="46.2941" y2="9.9731" gradientUnits="userSpaceOnUse">
<stop stop-color="#414142"/>
<stop offset="0.121" stop-color="#464647"/>
<stop offset="0.4199" stop-color="#515153"/>
<stop offset="0.7151" stop-color="#57585A"/>
<stop offset="1" stop-color="#595A5C"/>
</linearGradient>
<radialGradient id="paint12_radial_440_20653" cx="0" cy="0" r="1" gradientUnits="userSpaceOnUse" gradientTransform="translate(41.8196 23.5758) rotate(17.045) scale(2.38505 2.37549)">
<stop offset="0.3939" stop-color="white"/>
<stop offset="0.4187" stop-color="#FFFAF6"/>
<stop offset="0.567" stop-color="#FEEBD9"/>
<stop offset="0.7146" stop-color="#FDE1C6"/>
<stop offset="0.8598" stop-color="#FDDBBB"/>
<stop offset="1" stop-color="#FCD9B7"/>
</radialGradient>
<radialGradient id="paint13_radial_440_20653" cx="0" cy="0" r="1" gradientUnits="userSpaceOnUse" gradientTransform="translate(41.1475 20.4027) rotate(-140.645) scale(1.82275 1.47185)">
<stop offset="0.3939" stop-color="white"/>
<stop offset="0.4187" stop-color="#FFFAF6"/>
<stop offset="0.567" stop-color="#FEEBD9"/>
<stop offset="0.7146" stop-color="#FDE1C6"/>
<stop offset="0.8598" stop-color="#FDDBBB"/>
<stop offset="1" stop-color="#FCD9B7"/>
</radialGradient>
<radialGradient id="paint14_radial_440_20653" cx="0" cy="0" r="1" gradientUnits="userSpaceOnUse" gradientTransform="translate(37.8806 18.9138) rotate(17.045) scale(7.2917 7.34533)">
<stop offset="0.635" stop-color="white" stop-opacity="0"/>
<stop offset="0.6659" stop-color="#FFF1E9" stop-opacity="0.0893"/>
<stop offset="0.7256" stop-color="#FDD5C0" stop-opacity="0.2616"/>
<stop offset="0.8072" stop-color="#F9AA85" stop-opacity="0.4972"/>
<stop offset="0.8606" stop-color="#F68D62" stop-opacity="0.6512"/>
<stop offset="0.8954" stop-color="#DC7B4D" stop-opacity="0.7259"/>
<stop offset="0.9329" stop-color="#CC703E" stop-opacity="0.8063"/>
<stop offset="0.9685" stop-color="#C26A36" stop-opacity="0.8826"/>
<stop offset="1" stop-color="#BF6834" stop-opacity="0.95"/>
</radialGradient>
<radialGradient id="paint15_radial_440_20653" cx="0" cy="0" r="1" gradientUnits="userSpaceOnUse" gradientTransform="translate(40.2872 17.8913) rotate(16.9119) scale(1.5963 1.88575)">
<stop offset="0.8061" stop-color="white"/>
<stop offset="0.828" stop-color="#F8F8F8"/>
<stop offset="0.9154" stop-color="#EBEBEB"/>
<stop offset="1" stop-color="#E7E7E7"/>
</radialGradient>
<linearGradient id="paint16_linear_440_20653" x1="38.6733" y1="17.327" x2="41.519" y2="18.1707" gradientUnits="userSpaceOnUse">
<stop stop-color="#914F37"/>
<stop offset="0.162" stop-color="#93523A"/>
<stop offset="0.3298" stop-color="#9A5C42"/>
<stop offset="0.5004" stop-color="#A76C51"/>
<stop offset="0.6728" stop-color="#BA8467"/>
<stop offset="0.845" stop-color="#D6A888"/>
<stop offset="1" stop-color="#FCD9B7"/>
</linearGradient>
<linearGradient id="paint17_linear_440_20653" x1="35.0704" y1="15.7407" x2="37.2988" y2="16.7083" gradientUnits="userSpaceOnUse">
<stop stop-color="#914F37"/>
<stop offset="0.162" stop-color="#93523A"/>
<stop offset="0.3298" stop-color="#9A5C42"/>
<stop offset="0.5004" stop-color="#A76C51"/>
<stop offset="0.6728" stop-color="#BA8467"/>
<stop offset="0.845" stop-color="#D6A888"/>
<stop offset="1" stop-color="#FCD9B7"/>
</linearGradient>
<radialGradient id="paint18_radial_440_20653" cx="0" cy="0" r="1" gradientUnits="userSpaceOnUse" gradientTransform="translate(36.27 16.4946) rotate(6.83205) scale(1.29196 1.64503)">
<stop offset="0.8061" stop-color="white"/>
<stop offset="0.828" stop-color="#F8F8F8"/>
<stop offset="0.9154" stop-color="#EBEBEB"/>
<stop offset="1" stop-color="#E7E7E7"/>
</radialGradient>
<radialGradient id="paint19_radial_440_20653" cx="0" cy="0" r="1" gradientUnits="userSpaceOnUse" gradientTransform="translate(36.3891 16.7029) rotate(110.579) scale(0.991864 0.682893)">
<stop offset="0.6485" stop-color="#914F37"/>
<stop offset="0.6844" stop-color="#7C4533"/>
<stop offset="0.7487" stop-color="#60352B"/>
<stop offset="0.8131" stop-color="#4D2924"/>
<stop offset="0.8768" stop-color="#3F201E"/>
<stop offset="0.9395" stop-color="#371A1A"/>
<stop offset="1" stop-color="#341718"/>
</radialGradient>
<radialGradient id="paint20_radial_440_20653" cx="0" cy="0" r="1" gradientUnits="userSpaceOnUse" gradientTransform="translate(40.2872 17.8913) rotate(16.9119) scale(1.5963 1.88575)">
<stop offset="0.8061" stop-color="white"/>
<stop offset="0.828" stop-color="#F8F8F8"/>
<stop offset="0.9154" stop-color="#EBEBEB"/>
<stop offset="1" stop-color="#E7E7E7"/>
</radialGradient>
<radialGradient id="paint21_radial_440_20653" cx="0" cy="0" r="1" gradientUnits="userSpaceOnUse" gradientTransform="translate(40.3807 18.1371) rotate(120.122) scale(1.134 0.845357)">
<stop offset="0.6485" stop-color="#914F37"/>
<stop offset="0.6844" stop-color="#7C4533"/>
<stop offset="0.7487" stop-color="#60352B"/>
<stop offset="0.8131" stop-color="#4D2924"/>
<stop offset="0.8768" stop-color="#3F201E"/>
<stop offset="0.9395" stop-color="#371A1A"/>
<stop offset="1" stop-color="#341718"/>
</radialGradient>
<radialGradient id="paint22_radial_440_20653" cx="0" cy="0" r="1" gradientUnits="userSpaceOnUse" gradientTransform="translate(43.5085 7.84385) rotate(16.9119) scale(8.98964 9.0465)">
<stop stop-color="white" stop-opacity="0"/>
<stop offset="0.1876" stop-color="#ECECEC" stop-opacity="0.142"/>
<stop offset="0.5474" stop-color="#C8C8C9" stop-opacity="0.4142"/>
<stop offset="0.8606" stop-color="#A6A8AC" stop-opacity="0.6512"/>
<stop offset="0.8713" stop-color="#909092" stop-opacity="0.6742"/>
<stop offset="0.8946" stop-color="#6B696A" stop-opacity="0.724"/>
<stop offset="0.9176" stop-color="#4F4C4D" stop-opacity="0.7734"/>
<stop offset="0.94" stop-color="#3C3839" stop-opacity="0.8214"/>
<stop offset="0.9616" stop-color="#2E2B2B" stop-opacity="0.8677"/>
<stop offset="0.982" stop-color="#262223" stop-opacity="0.9114"/>
<stop offset="1" stop-color="#231F20" stop-opacity="0.95"/>
</radialGradient>
<linearGradient id="paint23_linear_440_20653" x1="47.1851" y1="17.6932" x2="50.4866" y2="18.6819" gradientUnits="userSpaceOnUse">
<stop offset="0.635" stop-color="white" stop-opacity="0"/>
<stop offset="0.6659" stop-color="#FFF1E9" stop-opacity="0.0893"/>
<stop offset="0.7256" stop-color="#FDD5C0" stop-opacity="0.2616"/>
<stop offset="0.8072" stop-color="#F9AA85" stop-opacity="0.4972"/>
<stop offset="0.8606" stop-color="#F68D62" stop-opacity="0.6512"/>
<stop offset="0.8954" stop-color="#DC7B4D" stop-opacity="0.7259"/>
<stop offset="0.9329" stop-color="#CC703E" stop-opacity="0.8063"/>
<stop offset="0.9685" stop-color="#C26A36" stop-opacity="0.8826"/>
<stop offset="1" stop-color="#BF6834" stop-opacity="0.95"/>
</linearGradient>
<linearGradient id="paint24_linear_440_20653" x1="33.8119" y1="17.7019" x2="35.9352" y2="18.0092" gradientUnits="userSpaceOnUse">
<stop offset="0.3939" stop-color="white"/>
<stop offset="0.4187" stop-color="#FFFAF6"/>
<stop offset="0.567" stop-color="#FEEBD9"/>
<stop offset="0.7146" stop-color="#FDE1C6"/>
<stop offset="0.8598" stop-color="#FDDBBB"/>
<stop offset="1" stop-color="#FCD9B7"/>
</linearGradient>
<linearGradient id="paint25_linear_440_20653" x1="48.0455" y1="21.1855" x2="47.479" y2="22.3872" gradientUnits="userSpaceOnUse">
<stop offset="0.3939" stop-color="white"/>
<stop offset="0.4062" stop-color="#FFFAF7"/>
<stop offset="0.5273" stop-color="#FDE3D0"/>
<stop offset="0.6484" stop-color="#FCD2B5"/>
<stop offset="0.7683" stop-color="#FBC6A2"/>
<stop offset="0.8862" stop-color="#FABF97"/>
<stop offset="1" stop-color="#FABC93"/>
</linearGradient>
<linearGradient id="paint26_linear_440_20653" x1="35.3719" y1="21.9583" x2="35.0468" y2="22.8455" gradientUnits="userSpaceOnUse">
<stop stop-color="#914F37"/>
<stop offset="0.162" stop-color="#93523A"/>
<stop offset="0.3298" stop-color="#9A5C42"/>
<stop offset="0.5004" stop-color="#A76C51"/>
<stop offset="0.6728" stop-color="#BA8467"/>
<stop offset="0.845" stop-color="#D6A888"/>
<stop offset="1" stop-color="#FCD9B7"/>
</linearGradient>
<linearGradient id="paint27_linear_440_20653" x1="48.0046" y1="11.5001" x2="49.3983" y2="11.9174" gradientUnits="userSpaceOnUse">
<stop stop-color="#FECF0A"/>
<stop offset="0.0671" stop-color="#FDC810"/>
<stop offset="0.3051" stop-color="#FAB31A"/>
<stop offset="0.5419" stop-color="#F8A41E"/>
<stop offset="0.775" stop-color="#F79B20"/>
<stop offset="1" stop-color="#F79820"/>
</linearGradient>
<linearGradient id="paint28_linear_440_20653" x1="48.9305" y1="13.7769" x2="49.7674" y2="13.5964" gradientUnits="userSpaceOnUse">
<stop stop-color="#FECF0A"/>
<stop offset="0.0671" stop-color="#FDC810"/>
<stop offset="0.3051" stop-color="#FAB31A"/>
<stop offset="0.5419" stop-color="#F8A41E"/>
<stop offset="0.775" stop-color="#F79B20"/>
<stop offset="1" stop-color="#F79820"/>
</linearGradient>
<linearGradient id="paint29_linear_440_20653" x1="48.541" y1="14.9171" x2="50.3931" y2="15.4717" gradientUnits="userSpaceOnUse">
<stop offset="0.00606061" stop-color="white"/>
<stop offset="0.3152" stop-color="#FECF0A"/>
<stop offset="0.3611" stop-color="#FDC810"/>
<stop offset="0.5241" stop-color="#FAB31A"/>
<stop offset="0.6863" stop-color="#F8A41E"/>
<stop offset="0.8459" stop-color="#F79B20"/>
<stop offset="1" stop-color="#F79820"/>
</linearGradient>
<linearGradient id="paint30_linear_440_20653" x1="48.4745" y1="13.8629" x2="49.2193" y2="14.0859" gradientUnits="userSpaceOnUse">
<stop stop-color="white"/>
<stop offset="0.1067" stop-color="#FFF2D1"/>
<stop offset="0.236" stop-color="#FFE7A6"/>
<stop offset="0.3671" stop-color="#FFDE82"/>
<stop offset="0.4972" stop-color="#FFD761"/>
<stop offset="0.6261" stop-color="#FFD242"/>
<stop offset="0.7536" stop-color="#FFCE28"/>
<stop offset="0.8791" stop-color="#FFCC12"/>
<stop offset="1" stop-color="#FFCB09"/>
</linearGradient>
<radialGradient id="paint31_radial_440_20653" cx="0" cy="0" r="1" gradientUnits="userSpaceOnUse" gradientTransform="translate(49.0578 15.1526) rotate(16.9119) scale(2.70411 2.72121)">
<stop offset="0.103" stop-color="white"/>
<stop offset="0.1418" stop-color="#FFF2D1"/>
<stop offset="0.1888" stop-color="#FFE7A6"/>
<stop offset="0.2365" stop-color="#FFDE82"/>
<stop offset="0.2838" stop-color="#FFD761"/>
<stop offset="0.3307" stop-color="#FFD242"/>
<stop offset="0.3771" stop-color="#FFCE28"/>
<stop offset="0.4227" stop-color="#FFCC12"/>
<stop offset="0.4667" stop-color="#FFCB09"/>
</radialGradient>
<linearGradient id="paint32_linear_440_20653" x1="48.1821" y1="11.1405" x2="48.8431" y2="11.3385" gradientUnits="userSpaceOnUse">
<stop stop-color="white"/>
<stop offset="0.1067" stop-color="#FFF2D1"/>
<stop offset="0.236" stop-color="#FFE7A6"/>
<stop offset="0.3671" stop-color="#FFDE82"/>
<stop offset="0.4972" stop-color="#FFD761"/>
<stop offset="0.6261" stop-color="#FFD242"/>
<stop offset="0.7536" stop-color="#FFCE28"/>
<stop offset="0.8791" stop-color="#FFCC12"/>
<stop offset="1" stop-color="#FFCB09"/>
</linearGradient>
<radialGradient id="paint33_radial_440_20653" cx="0" cy="0" r="1" gradientUnits="userSpaceOnUse" gradientTransform="translate(48.5803 14.7926) rotate(16.9119) scale(1.60971 1.61989)">
<stop offset="0.635" stop-color="white" stop-opacity="0"/>
<stop offset="0.6565" stop-color="#FFF5EB" stop-opacity="0.0621"/>
<stop offset="0.698" stop-color="#FEE2C6" stop-opacity="0.1819"/>
<stop offset="0.7553" stop-color="#FDC48E" stop-opacity="0.3474"/>
<stop offset="0.8255" stop-color="#F99D47" stop-opacity="0.55"/>
<stop offset="0.8606" stop-color="#F68A20" stop-opacity="0.6512"/>
<stop offset="0.89" stop-color="#F47B22" stop-opacity="0.7143"/>
<stop offset="0.9295" stop-color="#F26A24" stop-opacity="0.7988"/>
<stop offset="0.9669" stop-color="#F15E24" stop-opacity="0.8791"/>
<stop offset="1" stop-color="#F15A25" stop-opacity="0.95"/>
</radialGradient>
<clipPath id="clip0_440_20653">
<rect width="51.4236" height="41.4226" fill="white" transform="translate(10.9062 3.86914)"/>
</clipPath>
</defs>
</svg>
