<svg width="72" height="52" viewBox="0 0 72 52" fill="none" xmlns="http://www.w3.org/2000/svg">
<path d="M59.2561 39.1727C59.2561 39.2629 59.1868 39.3326 59.097 39.3326C59.0072 39.3326 58.9419 39.2629 58.9419 39.1727V38.254H58.7133C58.6317 38.254 58.5664 38.1884 58.5664 38.1022C58.5664 38.0202 58.6317 37.9546 58.7133 37.9546H59.4847C59.5704 37.9546 59.6316 38.0202 59.6316 38.1022C59.6316 38.1884 59.5663 38.254 59.4847 38.254H59.2561V39.1727Z" fill="#4E4C50"/>
<path d="M60.1782 38.947L60.0231 38.6968V39.1726C60.0231 39.2587 59.9537 39.3284 59.868 39.3284C59.7823 39.3284 59.7129 39.2587 59.7129 39.1726V38.0652C59.7129 37.9996 59.7619 37.9463 59.8272 37.9463C59.868 37.9463 59.9047 37.9709 59.9251 38.0037L60.3577 38.7091L60.7863 38.0037C60.8067 37.9709 60.8434 37.9463 60.8883 37.9463C60.9536 37.9463 61.0067 37.9996 61.0067 38.0652V39.1726C61.0067 39.2587 60.9373 39.3284 60.8516 39.3284C60.7659 39.3284 60.6965 39.2587 60.6965 39.1726V38.6968L60.5414 38.947C60.5006 39.0085 60.4394 39.0536 60.3618 39.0536C60.2802 39.0536 60.2149 39.0126 60.1782 38.947Z" fill="#4E4C50"/>
<path d="M30.9706 12.2065C31.2073 12.2147 31.444 12.2517 31.6766 12.3173C32.0684 12.4198 32.4276 12.6126 32.7459 12.875C32.75 12.875 32.75 12.8791 32.7541 12.8832C33.905 13.8429 34.5457 15.6926 34.5335 17.1814C34.5335 17.1814 33.0112 17.2224 32.5296 19.5068C31.546 19.3919 30.44 18.625 29.6401 17.6571C28.5708 16.0166 28.5708 14.7616 28.8646 13.8881C29.4483 12.3173 30.7951 12.2147 30.9706 12.2065Z" fill="#FCD9B7"/>
<path d="M30.0879 17.8745C29.0186 16.234 29.0186 14.979 29.3124 14.1054C29.892 12.5387 31.2388 12.4321 31.4143 12.4239C31.651 12.4321 31.8877 12.469 32.1203 12.5346C32.206 12.5551 32.2876 12.5839 32.3693 12.6167C32.1489 12.4854 31.9203 12.3829 31.6714 12.3173C31.4388 12.2517 31.202 12.2147 30.9653 12.2065C30.7898 12.2147 29.443 12.3173 28.8635 13.8881C28.5656 14.7616 28.5656 16.0166 29.6389 17.6571C30.2389 18.383 31.0061 18.9941 31.7693 19.3058C31.1612 18.9654 30.5694 18.4568 30.0879 17.8745Z" fill="url(#paint0_radial_440_20656)"/>
<path d="M31.7419 17.1202C31.7419 17.1202 32.0807 17.0792 32.0276 16.6896C31.9746 16.2999 31.7827 15.8939 32.097 15.8611C32.4112 15.8283 33.1295 16.1974 32.701 15.209C32.2684 14.2206 30.8441 13.2322 30.1788 13.9581C29.5176 14.68 30.2727 17.2555 31.7419 17.1202Z" fill="#E08E62"/>
<path opacity="0.33" d="M30.9706 12.2065C31.2073 12.2147 31.444 12.2517 31.6766 12.3173C32.0684 12.4198 32.4276 12.6126 32.7459 12.875C32.75 12.875 32.75 12.8791 32.7541 12.8832C33.905 13.8429 34.5457 15.6926 34.5335 17.1814C34.5335 17.1814 33.0112 17.2224 32.5296 19.5068C31.546 19.3919 30.44 18.625 29.6401 17.6571C28.5708 16.0166 28.5708 14.7616 28.8646 13.8881C29.4483 12.3173 30.7951 12.2147 30.9706 12.2065Z" fill="url(#paint1_linear_440_20656)"/>
<path d="M41.034 11.5626C39.4831 10.7341 38.2383 10.4019 36.9119 10.484C36.9079 10.484 36.8997 10.484 36.8956 10.484C36.1365 10.5619 36.0059 10.3035 35.7039 9.89337C35.3978 9.48325 34.6387 8.54406 34.2183 9.24127C33.802 9.93849 35.1611 10.8162 35.1611 10.8162C35.1611 10.8162 35.0019 10.73 34.8183 10.6357C34.5163 10.4675 34.0836 10.2133 33.8224 9.96309C33.3858 9.54887 32.9409 9.3192 32.7123 9.52426C32.4838 9.72522 32.6103 10.7095 34.2102 11.1073C34.1693 11.1237 34.1285 11.1443 34.0877 11.1648C34.0714 11.173 34.0551 11.1812 34.0347 11.1894C33.8714 11.2673 33.6184 11.3985 33.3205 11.5995C33.2837 11.6241 33.2633 11.6405 33.2633 11.6405C32.7817 11.9768 32.1981 12.4854 31.7165 13.2195C31.4798 13.605 31.2839 14.0028 31.1247 14.3965C30.7901 15.3111 30.6268 16.4554 30.8146 17.8785C30.1004 18.1205 29.5412 19.1212 29.5412 19.1212C29.4637 18.9981 28.7821 18.5224 28.5209 19.1171C28.2597 19.7077 28.8719 20.3762 28.8719 20.3762C28.4475 20.167 28.2311 20.5607 28.2311 20.5607C27.872 21.4671 29.0311 21.5942 29.0311 21.5942C30.382 24.8998 33.8469 25.5766 33.8469 25.5766C35.4345 25.9539 36.6712 26.0113 37.6384 25.8636C37.6425 25.8636 37.6507 25.8636 37.6588 25.8636C37.6874 25.8595 37.7159 25.8513 37.7445 25.8472C37.8017 25.8349 37.8588 25.8267 37.9159 25.8144C37.9445 25.8103 37.9731 25.8021 38.0057 25.798C38.0588 25.7857 38.1118 25.7734 38.1608 25.7611C39.7443 25.3756 41.6911 24.3503 43.4134 21.8444C43.5072 21.6886 43.597 21.5245 43.6786 21.3605C45.1397 18.4199 44.8296 13.5968 41.034 11.5626Z" fill="#EB2227"/>
<path d="M39.7969 25.1419C40.8253 24.621 41.911 23.7884 42.9435 22.476L43.0129 20.7822C43.0129 20.7822 41.7028 23.7269 40.1193 24.822C39.9316 24.9491 39.8336 25.0557 39.7969 25.1419Z" fill="url(#paint2_linear_440_20656)"/>
<path d="M29.729 18.8261C29.8636 18.8958 29.9657 18.9819 29.9942 19.0229C29.9942 19.0229 30.5534 18.0263 31.2635 17.7843C31.0758 16.3612 31.239 15.217 31.5737 14.3024C31.7288 13.9087 31.9247 13.5108 32.1655 13.1253C32.6511 12.3912 33.2307 11.8826 33.7163 11.5463C33.7163 11.5463 33.7367 11.5299 33.7735 11.5094C34.0673 11.3126 34.3204 11.1772 34.4836 11.0993C34.4999 11.0911 34.5163 11.0829 34.5367 11.0747C34.5775 11.0542 34.6183 11.0378 34.6591 11.0173C33.1694 10.6482 32.9572 9.7705 33.1205 9.49162C32.9572 9.4342 32.8144 9.4383 32.7123 9.52853C32.4838 9.72949 32.6103 10.7138 34.2102 11.1116C34.1693 11.128 34.1285 11.1485 34.0877 11.169C34.0714 11.1772 34.0551 11.1854 34.0347 11.1936C33.8714 11.2716 33.6184 11.4028 33.3204 11.6038C33.2837 11.6284 33.2633 11.6448 33.2633 11.6448C32.7817 11.9811 32.1981 12.4896 31.7165 13.2238C31.4798 13.6093 31.2839 14.0071 31.1247 14.4008C30.7901 15.3154 30.6268 16.4596 30.8146 17.8828C30.3493 18.0304 29.9534 18.5103 29.729 18.8261ZM38.0914 25.7654C37.1242 25.913 35.8875 25.8556 34.2959 25.4783C34.2959 25.4783 30.835 24.8016 29.48 21.5001C29.48 21.5001 28.325 21.3729 28.6801 20.4666C28.6801 20.4666 28.7168 20.405 28.7862 20.3435C28.4189 20.2246 28.2311 20.5568 28.2311 20.5568C27.872 21.4632 29.0311 21.5903 29.0311 21.5903C30.382 24.8959 33.8469 25.5726 33.8469 25.5726C35.4345 25.9499 36.6711 26.0073 37.6384 25.8597C37.6425 25.8597 37.6506 25.8597 37.6588 25.8597C37.6874 25.8556 37.7159 25.8474 37.7445 25.8433C37.8017 25.831 37.8588 25.8228 37.9159 25.8105C37.9445 25.8064 37.9731 25.7982 38.0057 25.7941C38.0384 25.79 38.0669 25.7818 38.0955 25.7736C38.0955 25.7613 38.0914 25.7654 38.0914 25.7654ZM34.2673 9.87303C34.5285 10.1232 34.9611 10.3816 35.2631 10.5456C35.4468 10.64 35.6059 10.7261 35.6059 10.7261C35.6059 10.7261 34.2469 9.84433 34.6632 9.14711C34.6958 9.0979 34.7285 9.05689 34.7611 9.02408C34.5611 8.95435 34.3612 8.98716 34.2142 9.24144C34.104 9.426 34.1204 9.62286 34.202 9.81562C34.2265 9.83612 34.2469 9.85253 34.2673 9.87303ZM28.827 20.3107C28.9331 20.2287 29.1004 20.1672 29.329 20.2779C29.329 20.2779 28.7127 19.6135 28.9739 19.0188C29.0066 18.9409 29.0474 18.8835 29.0964 18.8384C28.8841 18.7809 28.6556 18.8138 28.525 19.109C28.3046 19.6053 28.6882 20.1385 28.827 20.3107Z" fill="url(#paint3_radial_440_20656)"/>
<path d="M40.1604 19.4127C40.3114 18.9861 41.9766 15.9676 39.1075 14.5855C37.3729 13.7488 36.2914 14.2328 35.7078 14.7413C35.2425 15.0653 35.0956 14.7249 35.0956 14.7249C34.9201 14.0072 34.4345 13.6176 34.0549 13.4289C33.5611 13.187 32.6958 13.2608 32.0306 14.6306C31.3654 16.0004 31.2674 17.7886 31.2674 17.7886L31.0021 17.8255C30.2022 17.9362 29.5451 19.1133 29.5451 19.1133C29.4676 18.9902 28.786 18.5145 28.5248 19.1092C28.2636 19.6997 28.8758 20.3682 28.8758 20.3682C28.4514 20.1591 28.2351 20.5528 28.2351 20.5528C27.8759 21.4592 29.035 21.5863 29.035 21.5863C30.3859 24.8919 33.8508 25.5686 33.8508 25.5686C39.2054 26.84 40.5645 24.5023 41.1195 22.747C41.6623 20.9875 40.1604 19.4127 40.1604 19.4127Z" fill="#FCD9B7"/>
<path d="M39.1067 14.5854C37.3722 13.7487 36.2906 14.2327 35.707 14.7412C35.605 14.8109 35.5234 14.8478 35.4499 14.8642C35.4866 14.9545 35.5152 15.0529 35.5397 15.1595C35.5397 15.1595 35.6784 15.504 36.1519 15.1923C36.7518 14.7002 37.8456 14.2532 39.5556 15.1431C39.9678 15.3564 40.278 15.6066 40.5147 15.8691C40.2658 15.3892 39.8331 14.9381 39.1067 14.5854ZM40.5147 19.8637C40.4861 19.9252 40.4617 19.9744 40.4494 20.0072C40.4494 20.0072 40.7922 20.3927 41.0738 20.9833C40.9269 20.5281 40.7065 20.1426 40.5147 19.8637ZM29.1199 21.7913C29.3321 22.2629 29.5892 22.673 29.8668 23.038C29.6341 22.673 29.4219 22.2711 29.2546 21.8159C29.2546 21.82 29.2015 21.8118 29.1199 21.7913ZM32.0298 14.6346C31.3646 16.0044 31.2666 17.7925 31.2666 17.7925L31.0013 17.8294C30.2014 17.9402 29.5443 19.1172 29.5443 19.1172C29.4668 18.9942 28.7852 18.5185 28.524 19.1131C28.2628 19.7037 28.875 20.3722 28.875 20.3722C28.4506 20.1631 28.2343 20.5568 28.2343 20.5568C28.0547 21.0161 28.2587 21.2745 28.5077 21.418C28.4057 21.2622 28.373 21.053 28.4955 20.7659C28.4955 20.7659 28.7281 20.3804 29.1444 20.6019C29.1444 20.6019 28.5526 19.917 28.8301 19.3346C29.1117 18.7481 29.4872 19.2649 29.5607 19.3879C29.5607 19.3879 30.43 18.1452 31.3523 18.1329L31.6176 18.1042C31.6176 18.1042 31.7727 16.3202 32.4828 14.975C33.193 13.6298 34.0623 13.5806 34.5439 13.8389C34.5887 13.8635 34.6377 13.8922 34.6867 13.9251C34.4867 13.6954 34.2582 13.5395 34.0623 13.4411C33.5603 13.1909 32.6951 13.2689 32.0298 14.6346Z" fill="url(#paint4_radial_440_20656)"/>
<path d="M44.4669 17.2677C44.3485 15.1883 43.4507 13.1008 41.4713 11.8335C40.8101 11.9196 40.2306 12.3913 41.0835 13.1582C43.5486 15.377 41.6835 19.3265 41.6835 19.3265C41.6835 19.3265 43.5853 17.7024 44.4669 17.2677Z" fill="url(#paint5_linear_440_20656)"/>
<path d="M47.7731 15.7786C47.5282 15.6761 47.267 15.6105 46.9977 15.5695C46.5487 15.4916 46.0916 15.5285 45.6468 15.6556C45.6427 15.6556 45.6386 15.6556 45.6345 15.6556C44.0184 16.115 42.5205 17.7267 41.8594 19.2565C41.8635 19.2565 43.4062 19.9947 42.8674 22.5621C43.9286 22.8943 45.4141 22.6113 46.6712 21.9797C48.5118 20.7822 49.0832 19.4944 49.173 18.465C49.2872 16.5907 47.9527 15.8689 47.7731 15.7786Z" fill="#FCD9B7"/>
<path d="M44.7567 20.4749C44.7567 20.4749 44.4302 20.278 44.6587 19.9007C44.8873 19.5234 45.2709 19.1953 44.9607 19.0148C44.6546 18.8385 43.7486 18.8877 44.6342 18.0715C45.528 17.2513 47.434 16.8904 47.789 17.9362C48.1441 18.982 46.2014 21.2828 44.7567 20.4749Z" fill="#E08E62"/>
<path d="M46.0218 19.2811C45.7892 19.8512 45.4586 20.2859 45.1362 20.614C45.0056 20.5894 44.8791 20.5443 44.7567 20.4746C44.7567 20.4746 44.4302 20.2777 44.6587 19.9004C44.8873 19.5231 45.2709 19.195 44.9607 19.0145C44.6546 18.8382 43.7486 18.8874 44.6342 18.0713C44.8138 17.9072 45.0342 17.7637 45.2709 17.6406C45.7892 17.8252 46.4381 18.2599 46.0218 19.2811Z" fill="#603A17"/>
<path d="M45.4328 16.3244C45.4368 16.3244 45.4368 16.3244 45.4409 16.3203C45.8858 16.1932 46.3429 16.1604 46.7918 16.2342C47.0612 16.2752 47.3224 16.3408 47.5673 16.4433C47.7468 16.5336 49.0814 17.2554 48.9671 19.1297C48.9549 19.2527 48.9386 19.3798 48.9141 19.5111C49.0651 19.1461 49.1385 18.7934 49.1671 18.4694C49.2814 16.5951 47.9468 15.8692 47.7672 15.783C47.5224 15.6805 47.2612 15.6149 46.9918 15.5739C46.5429 15.496 46.0858 15.5329 45.6409 15.66C45.6368 15.66 45.6327 15.66 45.6287 15.66C44.0125 16.1193 42.5147 17.7311 41.8535 19.2609C41.8535 19.2609 41.8943 19.2814 41.9555 19.3224C42.7147 17.9936 44.0288 16.7222 45.4328 16.3244Z" fill="url(#paint6_radial_440_20656)"/>
<path opacity="0.43" d="M47.7731 15.7786C47.5282 15.6761 47.267 15.6105 46.9977 15.5695C46.5487 15.4916 46.0916 15.5285 45.6468 15.6556C45.6427 15.6556 45.6386 15.6556 45.6345 15.6556C44.0184 16.115 42.5246 17.7267 41.8594 19.2565C41.8635 19.2565 43.4062 19.9947 42.8674 22.5621C43.9286 22.8943 45.4141 22.6113 46.6712 21.9797C48.5118 20.7822 49.0832 19.4944 49.173 18.465C49.2872 16.5907 47.9527 15.8689 47.7731 15.7786Z" fill="url(#paint7_radial_440_20656)"/>
<path d="M34.9727 6.32959C34.9727 6.32959 36.8255 8.6591 39.7273 10.4719C42.6331 12.2805 45.3023 13.6339 48.1469 14.6346C48.1469 14.6346 44.2248 9.45474 43.5637 8.75343C43.5637 8.75343 43.2821 8.39252 42.9719 8.30229C42.6699 8.20796 35.793 6.3501 34.9727 6.32959Z" fill="#49494B"/>
<path d="M42.5352 8.71652C42.5352 8.71652 45.3757 11.3331 46.0206 12.0467C46.1349 12.1698 46.0981 12.0508 45.9675 11.7719C44.9472 10.4472 43.8861 9.08973 43.5718 8.75343C43.5718 8.75343 43.2902 8.39252 42.9801 8.30229C42.6699 8.20796 35.793 6.3501 34.9727 6.32959C34.9727 6.32959 35.5195 7.0186 36.4868 7.93728C36.5807 7.97829 36.6337 8.007 36.6337 8.007C36.6337 8.007 36.2868 7.3344 36.2378 7.24417C36.1929 7.15804 40.9598 8.30639 42.5352 8.71652Z" fill="url(#paint8_linear_440_20656)"/>
<path d="M39.2701 9.00342L36.5684 10.5127C36.5684 10.5127 37.1846 12.3049 39.5926 13.3671C42.0005 14.4335 43.7554 14.3884 43.7554 14.3884L44.0942 11.7595C44.0942 11.7595 42.1597 9.33972 39.2701 9.00342Z" fill="#4E4C50"/>
<path d="M43.0698 10.8695C43.0698 10.8695 42.8698 10.6234 42.478 10.2953C41.6577 9.71704 40.5598 9.15106 39.2701 9.00342L36.5684 10.5127C36.5684 10.5127 36.8745 11.3985 37.8907 12.2926C37.9437 12.3008 37.9764 12.3049 37.9764 12.3049L37.3234 10.8859L39.3028 9.71293C39.3028 9.71293 41.3597 9.78266 43.0698 10.8695Z" fill="url(#paint9_linear_440_20656)"/>
<path opacity="0.78" d="M43.7525 14.3846L44.0954 11.7598C44.0954 11.7598 43.8138 11.4071 43.3077 10.956L43.2587 10.9478L42.2792 13.1296C41.8956 13.9786 40.7324 13.8022 40.7324 13.8022L41.7364 14.1221C41.7364 14.1221 41.9282 14.1713 42.3078 14.2288C43.2097 14.3969 43.7525 14.3846 43.7525 14.3846Z" fill="url(#paint10_linear_440_20656)"/>
<path opacity="0.78" d="M44.2304 11.7188L45.9853 12.051L47.777 14.36C47.777 14.36 44.8099 13.2321 44.0957 12.7605L44.2304 11.7188Z" fill="url(#paint11_linear_440_20656)"/>
<path opacity="0.65" d="M40.8059 22.6812C40.8059 22.6812 40.2182 25.5684 36.8594 25.5684C36.8635 25.5684 39.2551 25.2444 40.8059 22.6812Z" fill="url(#paint12_radial_440_20656)"/>
<path d="M36.541 20.803C36.541 20.803 37.6593 19.2363 39.8101 20.3354C39.806 20.3395 38.1531 19.9622 36.541 20.803Z" fill="url(#paint13_radial_440_20656)"/>
<path opacity="0.43" d="M40.1604 19.4127C40.3114 18.9861 41.9766 15.9676 39.1075 14.5855C37.3729 13.7488 36.2914 14.2328 35.7078 14.7413C35.2425 15.0653 35.0956 14.7249 35.0956 14.7249C34.9201 14.0072 34.4345 13.6176 34.0549 13.4289C33.5611 13.187 32.6958 13.2608 32.0306 14.6306C31.3654 16.0004 31.2674 17.7886 31.2674 17.7886L31.0021 17.8255C30.2022 17.9362 29.5451 19.1133 29.5451 19.1133C29.4676 18.9902 28.786 18.5145 28.5248 19.1092C28.2636 19.6997 28.8758 20.3682 28.8758 20.3682C28.4514 20.1591 28.2351 20.5528 28.2351 20.5528C27.8759 21.4592 29.035 21.5863 29.035 21.5863C30.3859 24.8919 33.8508 25.5686 33.8508 25.5686C39.2054 26.84 40.5645 24.5023 41.1195 22.747C41.6623 20.9875 40.1604 19.4127 40.1604 19.4127Z" fill="url(#paint14_radial_440_20656)"/>
<path d="M38.2418 15.6355C38.0377 15.373 37.7969 15.2951 37.5928 15.291C37.197 15.291 37.0419 15.5002 37.0051 15.5576C36.997 15.574 36.9888 15.5863 36.9847 15.6027C36.9031 15.8488 37.0909 15.9759 37.2174 15.857C37.299 15.7791 37.4459 15.7175 37.5888 15.697C37.6786 15.6929 37.9112 15.7052 38.0622 15.9103C38.0704 15.9185 38.0785 15.9267 38.0826 15.9349C38.0908 15.9431 38.0989 15.9554 38.1071 15.9636C38.1846 16.0703 38.2458 16.1728 38.2663 16.1933C38.303 16.2343 38.3479 16.181 38.3479 16.181C38.3846 15.9513 38.3356 15.775 38.2418 15.6355Z" fill="#603A17"/>
<path d="M33.1941 14.5648C33.4471 14.3967 33.6593 14.4172 33.8185 14.491C34.1205 14.6386 34.1613 14.8888 34.1695 14.9585C34.1695 14.9749 34.1736 14.9913 34.1695 15.0077C34.1409 15.262 33.9491 15.3112 33.9001 15.1554C33.8634 15.0529 33.7777 14.9421 33.6716 14.8683C33.6063 14.8314 33.4226 14.7576 33.2267 14.8888C33.2186 14.8929 33.2063 14.897 33.1981 14.9052C33.19 14.9134 33.1777 14.9175 33.1696 14.9257C33.0675 14.9954 32.9818 15.0693 32.9614 15.0775C32.9165 15.098 32.9043 15.0365 32.9043 15.0365C32.9655 14.7986 33.0675 14.655 33.1941 14.5648Z" fill="#603A17"/>
<path d="M38.3559 18.9453C38.0213 19.8065 37.1764 20.2823 36.4745 20.0075C35.7725 19.7327 35.4746 18.8099 35.8092 17.9487C36.1439 17.0874 36.9846 16.6117 37.6907 16.8865C38.3926 17.1612 38.6906 18.0799 38.3559 18.9453Z" fill="url(#paint15_radial_440_20656)"/>
<path opacity="0.13" d="M38.43 18.9409C38.0709 19.8555 37.1771 20.3558 36.4302 20.0687C35.6833 19.7775 35.3691 18.8014 35.7242 17.891C36.0792 16.9764 36.9771 16.4719 37.724 16.7631C38.4708 17.0543 38.7851 18.0263 38.43 18.9409Z" fill="url(#paint16_linear_440_20656)"/>
<path opacity="0.13" d="M34.1492 17.8132C33.7574 18.535 33.0065 18.7975 32.4718 18.3956C31.9331 17.9937 31.8147 17.0832 32.2025 16.3614C32.5902 15.6355 33.3411 15.3771 33.8798 15.7749C34.4145 16.1809 34.5369 17.0914 34.1492 17.8132Z" fill="url(#paint17_linear_440_20656)"/>
<path d="M34.2503 17.3456C34.0748 18.1372 33.4545 18.6744 32.8545 18.5514C32.2546 18.4284 31.9118 17.686 32.0832 16.8986C32.2546 16.1071 32.8831 15.5698 33.479 15.6928C34.0789 15.82 34.4258 16.5582 34.2503 17.3456Z" fill="url(#paint18_radial_440_20656)"/>
<path d="M33.945 17.5509C33.8185 17.9241 33.4839 18.1496 33.1941 18.0471C32.9084 17.9487 32.7819 17.5632 32.9084 17.1899C33.0349 16.8167 33.3696 16.5912 33.6593 16.6896C33.945 16.7921 34.0756 17.1735 33.945 17.5509Z" fill="url(#paint19_radial_440_20656)"/>
<path d="M33.7947 17.5669C33.6967 17.854 33.4478 18.0263 33.2396 17.9525C33.0315 17.8827 32.9417 17.5874 33.0397 17.3045C33.1376 17.0174 33.3825 16.8451 33.5947 16.9189C33.8028 16.9887 33.8926 17.2798 33.7947 17.5669Z" fill="#341718"/>
<path d="M33.3499 17.1573C33.3009 17.2516 33.1989 17.2926 33.1213 17.2516C33.0438 17.2106 33.0193 17.0998 33.0683 17.0055C33.1172 16.9112 33.2193 16.8661 33.2968 16.9112C33.3744 16.9481 33.3988 17.0588 33.3499 17.1573Z" fill="white"/>
<path d="M33.6848 17.846C33.6481 17.9198 33.5705 17.9567 33.5134 17.9239C33.4562 17.8952 33.4399 17.809 33.4766 17.7352C33.5134 17.6614 33.5909 17.6286 33.6481 17.6573C33.7093 17.686 33.7256 17.7721 33.6848 17.846Z" fill="white"/>
<path d="M34.7495 20.7208C34.8638 20.5486 35.0189 20.2533 34.8393 20.1754C34.6638 20.0933 34.4312 20.3845 34.3047 20.5773L34.7495 20.7208Z" fill="#603A17"/>
<path d="M33.166 20.2043C33.1742 19.9992 33.2191 19.667 33.415 19.7081C33.6068 19.745 33.6231 20.1182 33.615 20.3479L33.166 20.2043Z" fill="#603A17"/>
<path d="M38.3559 18.9453C38.0213 19.8065 37.1764 20.2823 36.4745 20.0075C35.7725 19.7327 35.4746 18.8099 35.8092 17.9487C36.1439 17.0874 36.9846 16.6117 37.6907 16.8865C38.3926 17.1612 38.6906 18.0799 38.3559 18.9453Z" fill="url(#paint20_radial_440_20656)"/>
<path d="M37.9568 19.1091C37.7405 19.5069 37.2997 19.6873 36.9691 19.5069C36.6386 19.3305 36.5447 18.863 36.761 18.4652C36.9732 18.0674 37.4181 17.8869 37.7446 18.0633C38.0751 18.2437 38.169 18.7071 37.9568 19.1091Z" fill="url(#paint21_radial_440_20656)"/>
<path d="M37.8346 19.0724C37.6754 19.3718 37.3449 19.503 37.1 19.3718C36.8551 19.2405 36.7857 18.8919 36.9449 18.5966C37.1041 18.3014 37.4346 18.166 37.6795 18.2972C37.9244 18.4244 37.9938 18.773 37.8346 19.0724Z" fill="#341718"/>
<path d="M37.2961 18.5183C37.2226 18.6168 37.092 18.6414 37.0063 18.5758C36.9206 18.5101 36.9084 18.3789 36.9818 18.2805C37.0553 18.1861 37.1859 18.1574 37.2716 18.2231C37.3573 18.2928 37.3696 18.424 37.2961 18.5183Z" fill="white"/>
<path d="M37.5929 19.3879C37.5358 19.4659 37.4379 19.4864 37.3726 19.4371C37.3073 19.3879 37.3032 19.2895 37.3603 19.2116C37.4174 19.1337 37.5154 19.1132 37.5807 19.1624C37.646 19.2116 37.6501 19.31 37.5929 19.3879Z" fill="white"/>
<path d="M48.1469 14.6346C48.1469 14.6346 44.2248 9.45474 43.5637 8.75343C43.5637 8.75343 43.2821 8.39252 42.9719 8.30229C42.6699 8.20796 35.793 6.3501 34.9727 6.32959C34.9727 6.32959 36.2542 7.93728 38.3478 9.51626L36.5684 10.5129C36.5684 10.5129 37.1847 12.3051 39.5926 13.3673C42.0006 14.4337 43.7555 14.3885 43.7555 14.3885L43.9555 12.8547C45.339 13.5437 46.7225 14.1343 48.1469 14.6346Z" fill="url(#paint22_radial_440_20656)"/>
<path opacity="0.43" d="M44.7567 20.4749C44.7567 20.4749 44.4302 20.278 44.6587 19.9007C44.8873 19.5234 45.2709 19.1953 44.9607 19.0148C44.6546 18.8385 43.7486 18.8877 44.6342 18.0715C45.528 17.2513 47.434 16.8904 47.789 17.9362C48.1441 18.982 46.2014 21.2828 44.7567 20.4749Z" fill="url(#paint23_linear_440_20656)"/>
<path opacity="0.9" d="M32.9451 19.0803C32.2187 18.1698 31.8595 18.1411 31.3779 17.9976L30.9453 18.2067C31.933 18.137 32.9451 19.0803 32.9451 19.0803Z" fill="url(#paint24_linear_440_20656)"/>
<path opacity="0.42" d="M43.4376 21.9842C43.4213 22.0826 43.4131 22.2507 43.3438 22.3861C45.0864 22.5829 46.2537 21.6396 46.2537 21.6396C45.2374 21.9883 44.2375 22.0293 43.4376 21.9842Z" fill="url(#paint25_linear_440_20656)"/>
<path opacity="0.27" d="M29.166 20.6758C29.166 20.6758 32.2106 24.1659 36.1653 23.1447C36.1653 23.1447 32.1657 23.2924 29.166 20.6758Z" fill="url(#paint26_linear_440_20656)"/>
<path d="M45.2588 10.8657C45.1649 12.0674 45.1486 13.3798 45.4628 14.0565L45.773 14.1139C45.773 14.1139 45.3812 13.5274 45.52 11.1979L45.2588 10.8657Z" fill="url(#paint27_linear_440_20656)"/>
<path d="M45.3406 15.2706L45.1855 14.2822C45.1855 14.2822 45.2345 14.0607 45.3325 14.0279C45.4304 13.9951 45.7079 13.8105 45.7079 13.8105C45.7079 13.8105 45.9447 13.7326 46.014 13.8844C46.0834 14.0361 46.4915 14.6882 46.4915 14.6882C46.4915 14.6882 46.4997 14.8605 46.4099 14.9097C46.3161 14.963 45.4427 15.4223 45.3406 15.2706Z" fill="url(#paint28_linear_440_20656)"/>
<path d="M45.4504 15.3116L45.332 16.6691C45.332 16.6691 45.8626 16.8906 46.3687 16.706C46.8747 16.5215 47.2135 16.2344 47.1686 16.1277C47.1237 16.0211 46.4095 14.9097 46.4095 14.9097L45.4504 15.3116Z" fill="url(#paint29_linear_440_20656)"/>
<path d="M45.3206 14.0566L45.8226 15.0204L45.4023 15.2009L45.2676 14.2248L45.3206 14.0566Z" fill="url(#paint30_linear_440_20656)"/>
<path d="M45.7246 16.7468L45.745 16.7632C45.8062 16.7714 45.8715 16.7755 45.9409 16.7755L45.7287 15.3933L45.7246 16.7468ZM46.2348 16.7427C46.2797 16.7345 46.3286 16.7222 46.3735 16.7057C46.4103 16.6934 46.4429 16.677 46.4756 16.6647L46.4919 16.6319L45.9246 15.3975L46.2348 16.7427ZM46.4184 15.2539L46.9041 16.3448L46.9123 16.431C46.998 16.3735 47.0633 16.3161 47.1082 16.2628L46.4184 15.2539ZM46.6388 16.5868C46.7164 16.5499 46.7857 16.513 46.847 16.472L46.1858 15.381L46.6388 16.5868Z" fill="url(#paint31_radial_440_20656)"/>
<path opacity="0.88" d="M45.3089 10.9233C45.3089 10.9233 45.1701 12.4982 45.3415 13.1626C45.3415 13.1626 45.3048 11.5508 45.3864 11.0382L45.3089 10.9233Z" fill="url(#paint32_linear_440_20656)"/>
<path opacity="0.43" d="M47.169 16.1277C47.1241 16.0211 46.4099 14.9097 46.4099 14.9097C46.4997 14.8563 46.4915 14.6882 46.4915 14.6882C46.4915 14.6882 46.0834 14.032 46.014 13.8844C45.9447 13.7326 45.7079 13.8105 45.7079 13.8105C45.7079 13.8105 45.4304 13.9992 45.3325 14.0279C45.2345 14.0607 45.1855 14.2822 45.1855 14.2822L45.3406 15.2706C45.361 15.3034 45.4182 15.3075 45.4916 15.2952L45.4508 15.3116L45.3325 16.6691C45.3325 16.6691 45.863 16.8906 46.3691 16.706C46.8752 16.5174 47.2139 16.2344 47.169 16.1277Z" fill="url(#paint33_radial_440_20656)"/>
<path d="M39.0621 22.4187C37.1765 23.1979 35.3604 23.202 33.7891 22.8657C33.532 22.8083 33.279 22.7427 33.0341 22.6689C32.6341 22.5499 32.2668 22.4187 31.9281 22.2833C31.924 22.2792 31.9199 22.2792 31.9158 22.2792C31.7648 22.2177 31.622 22.1521 31.4791 22.0906C31.4506 22.0783 31.4179 22.0619 31.3893 22.0496C29.9813 21.3934 29.161 20.651 28.8018 20.2737C28.7855 20.2614 28.7773 20.2573 28.7773 20.2573C28.7773 20.2573 29.5732 21.3524 31.5159 22.2669C31.5444 22.2792 31.573 22.2956 31.6016 22.308C31.7362 22.3695 31.8791 22.4351 32.026 22.4925C32.0301 22.4925 32.0342 22.4966 32.0383 22.4966C32.3688 22.632 32.728 22.7591 33.1157 22.878C33.3565 22.9477 33.5973 23.0134 33.8544 23.0667C35.389 23.3948 37.1602 23.3784 39.0131 22.5868C39.0825 22.5581 39.1151 22.4802 39.0866 22.4064C39.0784 22.4064 39.0702 22.4146 39.0621 22.4187Z" fill="#603A17"/>
<path d="M39.0678 21.8281C39.0678 21.8281 38.4882 22.673 39.5942 22.9191C39.5942 22.915 38.8678 22.5581 39.0678 21.8281Z" fill="#603A17"/>
<path d="M24.6032 36.921C24.5991 36.8882 24.5909 36.8554 24.5787 36.8226C24.5746 36.8103 24.5705 36.798 24.5664 36.7857C24.5624 36.7693 24.5542 36.7529 24.546 36.7365C24.5297 36.6955 24.5093 36.6626 24.4889 36.6298C24.4889 36.6298 24.4848 36.6257 24.4807 36.6175C24.4603 36.5847 24.4399 36.556 24.4236 36.5314C24.4195 36.5273 24.4154 36.5191 24.4114 36.515C24.4073 36.5109 24.4073 36.5068 24.4032 36.5068C24.3991 36.5027 24.3991 36.5027 24.395 36.4986C24.2359 36.273 23.9094 35.8137 23.7298 35.4897C23.7257 35.4815 23.7216 35.4733 23.7135 35.461C23.7094 35.4528 23.7012 35.4405 23.6971 35.4323C23.5502 35.1575 23.44 34.9401 23.44 34.9401C23.4155 34.8909 23.3951 34.8376 23.3747 34.7884C23.1992 34.407 23.0605 34.0379 22.9462 33.6974C22.6483 32.746 22.436 31.2654 22.436 31.2654C22.4115 31.0726 22.3993 30.9332 22.3911 30.8922C22.3707 30.724 22.3462 30.5682 22.3177 30.4205C22.1177 29.4116 21.7096 28.8621 21.0729 28.7472C20.9994 28.7349 20.926 28.7267 20.8525 28.7267C20.322 28.7267 19.7955 29.0917 19.2894 29.8136C18.8405 30.4616 18.3589 31.6427 18.114 32.2825L17.4528 34.0502C17.4324 34.1076 17.3671 34.2757 17.2243 34.2757C17.1549 34.2757 17.061 34.2347 16.9917 34.0296C16.91 33.7467 16.8488 33.4637 16.8039 33.2176C16.7998 33.2012 16.506 31.4541 16.0407 28.4109C15.7836 26.7212 15.1347 25.8107 14.1266 25.7861C12.8125 25.7861 11.7799 27.5292 11.0616 30.9619C9.9556 36.2976 11.3024 39.7345 11.3595 39.878C11.4779 40.1692 11.7432 40.3743 12.0574 40.4112C12.0901 40.4153 12.1227 40.4153 12.1554 40.4153C12.2656 40.4153 12.3717 40.3948 12.4778 40.3538C12.9104 40.1774 13.1226 39.6771 12.9512 39.2382C12.939 39.2054 11.7513 36.0967 12.7472 31.3187C13.1186 29.5347 13.5226 28.5627 13.8042 28.0541C13.8654 27.9598 13.9348 27.9147 14.0124 27.9147C14.1715 27.9147 14.2368 28.0951 14.2613 28.169C14.298 28.3084 14.3307 28.4766 14.3593 28.6734C14.8245 31.7165 15.1225 33.4924 15.1265 33.5047C15.3592 34.8868 15.8856 36.5601 17.0447 36.6832C17.0896 36.6873 17.1345 36.6914 17.1753 36.6914C18.2773 36.6914 18.8445 35.219 19.0568 34.6653L19.7424 32.8321C19.9465 32.2866 20.1709 31.7986 20.322 31.4828C20.3954 31.3392 20.4689 31.2736 20.5546 31.2736C20.6607 31.2736 20.7219 31.3597 20.7382 31.5361C20.7464 31.6222 20.7546 31.7083 20.7586 31.7986L20.7627 31.8437C20.7709 31.9257 20.9301 33.4022 21.6932 35.2067C21.7014 35.2354 21.7137 35.2641 21.7259 35.2928C21.7259 35.2969 21.7259 35.2969 21.73 35.2969C21.7871 35.4364 21.8728 35.6291 21.9708 35.8424C22.2646 36.4658 22.7217 37.3845 23.2156 37.7618H23.2196C23.2809 37.8069 23.338 37.8479 23.3992 37.8807C23.5053 37.9299 23.6237 37.9545 23.7502 37.9545C24.2318 37.9545 24.6236 37.5608 24.6236 37.0769C24.6236 37.0359 24.6195 36.9908 24.6154 36.9497C24.6073 36.9374 24.6032 36.9292 24.6032 36.921ZM28.1661 30.6912C26.1663 30.6912 24.546 32.3194 24.546 34.3249C24.546 36.3346 26.1663 37.9586 28.1661 37.9586C30.1618 37.9586 31.7821 36.3305 31.7821 34.3249C31.7862 32.3194 30.1659 30.6912 28.1661 30.6912ZM29.6966 34.9196C29.1619 35.5758 28.5008 36.0106 28.1702 36.1992C27.8396 36.0106 27.1784 35.5758 26.6438 34.9196C25.8969 34.005 26.3499 32.9387 27.1295 32.9551C27.86 32.9715 28.1702 33.6851 28.1702 33.6851C28.1702 33.6851 28.1702 33.6851 28.1702 33.681C28.1702 33.6851 28.1702 33.6851 28.1702 33.6851C28.1702 33.6851 28.4804 32.9715 29.2109 32.9551C29.9945 32.9346 30.4434 34.0009 29.6966 34.9196ZM52.6984 36.15C52.6903 35.8998 52.5882 35.666 52.4087 35.4979C52.2903 35.3831 52.1434 35.3051 51.9842 35.2682C51.9189 35.2518 51.8495 35.2436 51.7802 35.2436C51.523 35.2436 51.2822 35.3503 51.1068 35.5389C50.7803 35.8916 50.3191 36.0926 49.8416 36.0926C49.715 36.0926 49.5885 36.0762 49.462 36.0475C49.0131 35.9449 48.6294 35.666 48.3846 35.2682C48.1397 34.8704 48.0621 34.3988 48.1642 33.9435C48.3397 33.152 49.0457 32.5778 49.8456 32.5778C49.9762 32.5778 50.1068 32.5942 50.2293 32.6229C50.4497 32.6721 50.666 32.7706 50.866 32.9182C50.919 32.9674 51.0863 33.1356 51.0251 33.3078C50.9476 33.5334 50.5231 33.6687 49.7722 33.7098L49.7395 33.7138L49.662 33.7344C49.3926 33.8041 49.2049 34.0502 49.2049 34.3331C49.2049 34.6612 49.4579 34.936 49.7803 34.9565H49.7967L49.8905 34.9524C50.0171 34.9442 52.976 34.7515 53.0372 33.4022V33.3406C53.0617 33.0782 53.0249 32.8157 52.9352 32.5737C52.9229 32.5409 52.9107 32.5081 52.8984 32.4753L52.8494 32.3809C52.8454 32.3686 52.8372 32.3563 52.8209 32.3317C52.7801 32.262 52.7433 32.2087 52.7188 32.1759L52.6821 32.139C52.176 31.4582 51.4496 30.9824 50.6374 30.7938C50.3803 30.7322 50.115 30.7035 49.8456 30.7035C48.1968 30.7035 46.7317 31.8929 46.3684 33.5293C46.1562 34.4726 46.3195 35.4487 46.8255 36.2689C47.3316 37.0933 48.1234 37.6634 49.0539 37.8766C49.311 37.9381 49.5763 37.9668 49.8416 37.9668C50.8251 37.9668 51.7761 37.5485 52.4495 36.8226C52.6168 36.638 52.7066 36.4002 52.6984 36.15ZM60.2161 30.7158C60.1794 30.7117 60.1426 30.7117 60.0814 30.7117C60.0773 30.7117 60.0692 30.7117 60.061 30.7117C59.6202 30.7322 59.2652 31.0644 59.208 31.5074C59.1835 31.696 58.9223 33.3775 57.5878 35.1698L57.4164 35.3913L57.2735 35.5266L57.2123 35.3379C56.8613 34.2388 56.1838 32.6024 54.9554 31.0439C54.784 30.8266 54.5268 30.7035 54.2534 30.7076C54.0534 30.7076 53.8698 30.7774 53.7106 30.9004C53.5269 31.048 53.4086 31.2613 53.3841 31.4951C53.3555 31.7329 53.4249 31.9626 53.5718 32.1513C55.1635 34.165 55.6777 36.3551 55.7308 36.6052L55.7961 37.0072L55.5349 37.2081L55.4614 37.2696L55.4533 37.2655C54.1636 38.1965 52.6087 38.8732 50.8292 39.2875C50.5966 39.3408 50.3966 39.4843 50.266 39.6894C50.1395 39.8944 50.0987 40.1364 50.1517 40.3702C50.2456 40.7803 50.6088 41.0674 51.0333 41.0633H51.07C51.1231 41.0592 51.1761 41.0551 51.2292 41.0428C60.0569 39.0045 60.967 32.0118 60.9997 31.7165C61.0568 31.2244 60.7058 30.7733 60.2161 30.7158ZM43.3279 34.0296L43.4259 33.9394C44.1197 33.2914 44.8625 32.7419 45.6297 32.3153C46.0583 32.0775 46.2093 31.532 45.9725 31.1055C45.8175 30.8225 45.5195 30.6502 45.1971 30.6502C45.0461 30.6502 44.8992 30.6871 44.7686 30.761C43.7564 31.331 42.7933 32.0651 41.9117 32.9428L41.8954 32.9592L41.8709 32.9674L41.6872 33.0577V31.614C41.6872 31.1137 41.2832 30.7117 40.7853 30.7117C40.2874 30.7117 39.8833 31.1178 39.8833 31.614V37.0482C39.8833 37.5444 40.2874 37.9504 40.7853 37.9504C41.2832 37.9504 41.6872 37.5444 41.6872 37.0482V35.3667L41.7036 35.2887L41.7525 35.2518L41.8342 35.2067H41.8668C41.9199 35.2067 41.977 35.2354 42.0301 35.2846L45.1645 38.2498C45.3318 38.4098 45.5522 38.4959 45.7807 38.4959C46.0297 38.4959 46.2664 38.3934 46.4378 38.2088C46.6011 38.0325 46.6868 37.8028 46.6827 37.5608C46.6745 37.3189 46.5766 37.0933 46.4011 36.9292L43.3279 34.0296ZM38.0182 30.7076C37.5244 30.7076 37.1203 31.1137 37.1203 31.6099V35.0673L36.8877 34.6899C36.3 33.7344 35.2634 32.061 34.941 31.5853C34.794 31.3679 34.3451 30.7035 33.6921 30.7035C33.5901 30.7035 33.484 30.7199 33.3819 30.7527C32.5412 31.0111 32.5371 32.0159 32.533 32.6557L32.5249 37.0441C32.5249 37.5403 32.9289 37.9463 33.4268 37.9463C33.9247 37.9463 34.3288 37.5403 34.3288 37.0441V33.9763L34.5614 34.3495C35.2266 35.42 35.9531 36.6052 35.9735 36.638C36.5041 37.4952 37.0877 37.9504 37.6631 37.9504C37.7611 37.9504 37.859 37.9381 37.9611 37.9094C38.5733 37.7413 38.8998 37.1589 38.9242 36.1828V31.614C38.9202 31.1137 38.5161 30.7076 38.0182 30.7076Z" fill="#EE202E"/>
<path d="M23.7051 45.5004C23.7051 45.1928 23.954 44.9426 24.2601 44.9426C24.3418 44.9426 24.4071 44.959 24.4764 44.9836C24.7744 45.0984 25.007 45.0984 25.1376 45.0984C25.3294 45.0984 25.8396 45.0738 25.8396 44.4997V42.0061C25.8396 41.6821 26.0967 41.4155 26.4191 41.4155C26.7415 41.4155 27.0068 41.6821 27.0068 42.0061V44.4915C27.0068 45.9925 25.8314 46.2099 25.2396 46.2427C24.9499 46.2427 24.4642 46.2427 23.9826 45.9843C23.8234 45.8818 23.7051 45.7136 23.7051 45.5004Z" fill="#92C83E"/>
<path d="M31.6504 44.0036C31.6504 45.9066 30.577 46.2306 29.7077 46.2388H29.6751C28.8058 46.2306 27.7324 45.9066 27.7324 44.0036V41.994C27.7324 41.67 27.9895 41.4116 28.312 41.4116C28.6344 41.4116 28.8997 41.67 28.8997 41.994V43.9954C28.8997 44.8608 29.2792 45.0986 29.6914 45.0986C30.1036 45.0986 30.4832 44.8649 30.4832 43.9954V41.994C30.4832 41.67 30.7403 41.4116 31.0627 41.4116C31.3851 41.4116 31.6504 41.67 31.6504 41.994V44.0036Z" fill="#92C83E"/>
<path d="M33.5481 43.5648V45.599C33.5481 45.923 33.2828 46.1896 32.9604 46.1896C32.638 46.1896 32.3809 45.923 32.3809 45.599V42.1334C32.3809 41.7356 32.6951 41.4116 33.091 41.4116C33.3318 41.4116 33.5522 41.5347 33.6787 41.7192L35.2826 44.0036V42.0022C35.2826 41.6782 35.5479 41.4116 35.8703 41.4116C36.1927 41.4116 36.4499 41.6782 36.4499 42.0022V45.4678C36.4499 45.8656 36.1764 46.1896 35.7805 46.1896C35.5397 46.1896 35.3194 46.0665 35.1928 45.882L33.5481 43.5648Z" fill="#92C83E"/>
<path d="M37.2832 43.4993C37.2832 43.1753 37.5403 42.9087 37.8627 42.9087C38.1852 42.9087 38.4504 43.1753 38.4504 43.4993V45.5991C38.4504 45.9231 38.1852 46.1897 37.8627 46.1897C37.5403 46.1897 37.2832 45.9231 37.2832 45.5991V43.4993Z" fill="#92C83E"/>
<path d="M39.0547 43.7369C39.0547 41.9939 40.2954 41.3623 41.3443 41.3623C42.3931 41.3623 43.6338 41.9939 43.6338 43.7369C43.6338 45.7794 42.2136 46.2387 41.3361 46.2387C40.475 46.2387 39.0547 45.7752 39.0547 43.7369ZM42.4666 43.7615C42.4666 42.7649 41.8871 42.5066 41.3402 42.5066C40.8096 42.5066 40.226 42.7649 40.226 43.7615C40.226 44.8894 40.9117 45.0985 41.3402 45.0985C41.781 45.0985 42.4666 44.8853 42.4666 43.7615Z" fill="#92C83E"/>
<path d="M46.5603 45.2668C46.4216 44.869 46.2624 44.709 46.0706 44.709H45.4094V45.599C45.4094 45.923 45.1441 46.1896 44.8217 46.1896C44.4993 46.1896 44.2422 45.923 44.2422 45.599V42.0022C44.2422 41.6782 44.4993 41.4116 44.8217 41.4116H46.344C47.0378 41.4116 47.9316 41.8505 47.9316 43.0316C47.9316 43.5484 47.7235 44.0036 47.2786 44.1882C47.4868 44.3891 47.6092 44.7295 47.7153 45.0371L47.8378 45.3857C47.8622 45.4596 47.8786 45.5334 47.8786 45.6113C47.8786 45.9353 47.6215 46.1855 47.2909 46.1855C47.0338 46.1855 46.8215 46.0296 46.7522 45.8041L46.5603 45.2668ZM46.3195 43.5648C46.5032 43.5648 46.7644 43.532 46.7644 43.0562C46.7644 42.6502 46.5236 42.5559 46.3195 42.5559H45.4094V43.5689H46.3195V43.5648Z" fill="#92C83E"/>
<path d="M37.2008 42.724C37.1518 42.6994 37.0743 42.6256 37.1192 42.4328L37.2457 41.9201L36.8131 41.5551C36.7274 41.469 36.6988 41.3952 36.7233 41.3214C36.7355 41.2762 36.7804 41.2147 36.8947 41.1901L37.4987 41.145L37.6987 40.6488C37.7436 40.5626 37.7926 40.5134 37.8497 40.497C37.8946 40.4806 37.9436 40.4888 37.9844 40.5093C38.0456 40.5421 38.0864 40.6036 38.1109 40.6529L38.3109 41.145L38.7884 41.1778C38.8047 41.1778 38.8782 41.1901 38.9435 41.2229C39.0332 41.268 39.0537 41.3378 39.0577 41.3747C39.07 41.4895 38.9639 41.5797 38.9312 41.6084L38.5639 41.9201L38.6863 42.4041C38.6986 42.4492 38.7272 42.601 38.6251 42.683C38.5598 42.7363 38.47 42.7322 38.3598 42.6748C38.3435 42.6666 38.3272 42.6584 38.3109 42.6461L37.9109 42.3959L37.4579 42.683C37.413 42.7076 37.2987 42.7773 37.2008 42.724Z" fill="#92C83E"/>
<defs>
<radialGradient id="paint0_radial_440_20656" cx="0" cy="0" r="1" gradientUnits="userSpaceOnUse" gradientTransform="translate(29.4823 14.9678) rotate(85.3883) scale(2.72985 1.60829)">
<stop offset="0.3939" stop-color="white"/>
<stop offset="0.4187" stop-color="#FFFAF6"/>
<stop offset="0.567" stop-color="#FEEBD9"/>
<stop offset="0.7146" stop-color="#FDE1C6"/>
<stop offset="0.8598" stop-color="#FDDBBB"/>
<stop offset="1" stop-color="#FCD9B7"/>
</radialGradient>
<linearGradient id="paint1_linear_440_20656" x1="24.3341" y1="13.5754" x2="31.9971" y2="15.8765" gradientUnits="userSpaceOnUse">
<stop offset="0.635" stop-color="white" stop-opacity="0"/>
<stop offset="0.6659" stop-color="#FFF1E9" stop-opacity="0.0893"/>
<stop offset="0.7256" stop-color="#FDD5C0" stop-opacity="0.2616"/>
<stop offset="0.8072" stop-color="#F9AA85" stop-opacity="0.4972"/>
<stop offset="0.8606" stop-color="#F68D62" stop-opacity="0.6512"/>
<stop offset="0.8954" stop-color="#DC7B4D" stop-opacity="0.7259"/>
<stop offset="0.9329" stop-color="#CC703E" stop-opacity="0.8063"/>
<stop offset="0.9685" stop-color="#C26A36" stop-opacity="0.8826"/>
<stop offset="1" stop-color="#BF6834" stop-opacity="0.95"/>
</linearGradient>
<linearGradient id="paint2_linear_440_20656" x1="43.2922" y1="21.2293" x2="41.0204" y2="24.0787" gradientUnits="userSpaceOnUse">
<stop stop-color="#A91F27"/>
<stop offset="0.1913" stop-color="#AE1F27"/>
<stop offset="0.3892" stop-color="#BC2028"/>
<stop offset="0.5791" stop-color="#D42029"/>
<stop offset="0.7394" stop-color="#EB2227"/>
</linearGradient>
<radialGradient id="paint3_radial_440_20656" cx="0" cy="0" r="1" gradientUnits="userSpaceOnUse" gradientTransform="translate(32.3613 10.1903) rotate(16.8691) scale(8.93597 8.97242)">
<stop stop-color="white"/>
<stop offset="0.1049" stop-color="#FCD4C4"/>
<stop offset="0.2345" stop-color="#F7A990"/>
<stop offset="0.3658" stop-color="#F3876B"/>
<stop offset="0.4961" stop-color="#F06A50"/>
<stop offset="0.6254" stop-color="#EE503B"/>
<stop offset="0.7531" stop-color="#EC3A2F"/>
<stop offset="0.8788" stop-color="#EB2929"/>
<stop offset="1" stop-color="#EB2227"/>
</radialGradient>
<radialGradient id="paint4_radial_440_20656" cx="0" cy="0" r="1" gradientUnits="userSpaceOnUse" gradientTransform="translate(32.4266 17.7474) rotate(16.8691) scale(7.52163 7.55232)">
<stop offset="0.3939" stop-color="white"/>
<stop offset="0.4187" stop-color="#FFFAF6"/>
<stop offset="0.567" stop-color="#FEEBD9"/>
<stop offset="0.7146" stop-color="#FDE1C6"/>
<stop offset="0.8598" stop-color="#FDDBBB"/>
<stop offset="1" stop-color="#FCD9B7"/>
</radialGradient>
<linearGradient id="paint5_linear_440_20656" x1="44.3811" y1="16.0277" x2="41.53" y2="15.577" gradientUnits="userSpaceOnUse">
<stop stop-color="#AE1F28"/>
<stop offset="0.2066" stop-color="#B21F28"/>
<stop offset="0.4204" stop-color="#C12029"/>
<stop offset="0.5791" stop-color="#D42029"/>
<stop offset="0.7394" stop-color="#EB2227"/>
</linearGradient>
<radialGradient id="paint6_radial_440_20656" cx="0" cy="0" r="1" gradientUnits="userSpaceOnUse" gradientTransform="translate(45.8586 17.8447) rotate(16.8691) scale(4.40993 4.42791)">
<stop offset="0.3939" stop-color="white"/>
<stop offset="0.4187" stop-color="#FFFAF6"/>
<stop offset="0.567" stop-color="#FEEBD9"/>
<stop offset="0.7146" stop-color="#FDE1C6"/>
<stop offset="0.8598" stop-color="#FDDBBB"/>
<stop offset="1" stop-color="#FCD9B7"/>
</radialGradient>
<radialGradient id="paint7_radial_440_20656" cx="0" cy="0" r="1" gradientUnits="userSpaceOnUse" gradientTransform="translate(44.9003 18.4955) rotate(16.8691) scale(4.28086 4.29832)">
<stop offset="0.635" stop-color="white" stop-opacity="0"/>
<stop offset="0.6659" stop-color="#FFF1E9" stop-opacity="0.0893"/>
<stop offset="0.7256" stop-color="#FDD5C0" stop-opacity="0.2616"/>
<stop offset="0.8072" stop-color="#F9AA85" stop-opacity="0.4972"/>
<stop offset="0.8606" stop-color="#F68D62" stop-opacity="0.6512"/>
<stop offset="0.8954" stop-color="#DC7B4D" stop-opacity="0.7259"/>
<stop offset="0.9329" stop-color="#CC703E" stop-opacity="0.8063"/>
<stop offset="0.9685" stop-color="#C26A36" stop-opacity="0.8826"/>
<stop offset="1" stop-color="#BF6834" stop-opacity="0.95"/>
</radialGradient>
<linearGradient id="paint8_linear_440_20656" x1="34.6009" y1="7.18795" x2="46.3801" y2="10.725" gradientUnits="userSpaceOnUse">
<stop stop-color="#929497"/>
<stop offset="0.0471" stop-color="#8A8B8D"/>
<stop offset="0.2414" stop-color="#6E6E6F"/>
<stop offset="0.4358" stop-color="#5A595A"/>
<stop offset="0.6281" stop-color="#4C4B4C"/>
<stop offset="0.8174" stop-color="#444444"/>
<stop offset="1" stop-color="#414142"/>
</linearGradient>
<linearGradient id="paint9_linear_440_20656" x1="38.4452" y1="9.35464" x2="39.4302" y2="10.4342" gradientUnits="userSpaceOnUse">
<stop stop-color="white"/>
<stop offset="0.0432" stop-color="#E7E6E6"/>
<stop offset="0.2054" stop-color="#B3B0B1"/>
<stop offset="0.3687" stop-color="#8F8C8D"/>
<stop offset="0.5305" stop-color="#767475"/>
<stop offset="0.6906" stop-color="#656566"/>
<stop offset="0.848" stop-color="#5C5C5E"/>
<stop offset="1" stop-color="#595A5C"/>
</linearGradient>
<linearGradient id="paint10_linear_440_20656" x1="42.6245" y1="13.0186" x2="45.5748" y2="11.851" gradientUnits="userSpaceOnUse">
<stop stop-color="#414142"/>
<stop offset="0.121" stop-color="#464647"/>
<stop offset="0.4199" stop-color="#515153"/>
<stop offset="0.7151" stop-color="#57585A"/>
<stop offset="1" stop-color="#595A5C"/>
</linearGradient>
<linearGradient id="paint11_linear_440_20656" x1="46.7038" y1="13.8575" x2="43.1618" y2="10.7959" gradientUnits="userSpaceOnUse">
<stop stop-color="#414142"/>
<stop offset="0.121" stop-color="#464647"/>
<stop offset="0.4199" stop-color="#515153"/>
<stop offset="0.7151" stop-color="#57585A"/>
<stop offset="1" stop-color="#595A5C"/>
</linearGradient>
<radialGradient id="paint12_radial_440_20656" cx="0" cy="0" r="1" gradientUnits="userSpaceOnUse" gradientTransform="translate(38.7653 24.0944) rotate(17.0019) scale(2.33595 2.32141)">
<stop offset="0.3939" stop-color="white"/>
<stop offset="0.4187" stop-color="#FFFAF6"/>
<stop offset="0.567" stop-color="#FEEBD9"/>
<stop offset="0.7146" stop-color="#FDE1C6"/>
<stop offset="0.8598" stop-color="#FDDBBB"/>
<stop offset="1" stop-color="#FCD9B7"/>
</radialGradient>
<radialGradient id="paint13_radial_440_20656" cx="0" cy="0" r="1" gradientUnits="userSpaceOnUse" gradientTransform="translate(38.1178 20.9806) rotate(-140.721) scale(1.78373 1.43958)">
<stop offset="0.3939" stop-color="white"/>
<stop offset="0.4187" stop-color="#FFFAF6"/>
<stop offset="0.567" stop-color="#FEEBD9"/>
<stop offset="0.7146" stop-color="#FDE1C6"/>
<stop offset="0.8598" stop-color="#FDDBBB"/>
<stop offset="1" stop-color="#FCD9B7"/>
</radialGradient>
<radialGradient id="paint14_radial_440_20656" cx="0" cy="0" r="1" gradientUnits="userSpaceOnUse" gradientTransform="translate(34.905 19.5397) rotate(17.0019) scale(7.1416 7.17813)">
<stop offset="0.635" stop-color="white" stop-opacity="0"/>
<stop offset="0.6659" stop-color="#FFF1E9" stop-opacity="0.0893"/>
<stop offset="0.7256" stop-color="#FDD5C0" stop-opacity="0.2616"/>
<stop offset="0.8072" stop-color="#F9AA85" stop-opacity="0.4972"/>
<stop offset="0.8606" stop-color="#F68D62" stop-opacity="0.6512"/>
<stop offset="0.8954" stop-color="#DC7B4D" stop-opacity="0.7259"/>
<stop offset="0.9329" stop-color="#CC703E" stop-opacity="0.8063"/>
<stop offset="0.9685" stop-color="#C26A36" stop-opacity="0.8826"/>
<stop offset="1" stop-color="#BF6834" stop-opacity="0.95"/>
</radialGradient>
<radialGradient id="paint15_radial_440_20656" cx="0" cy="0" r="1" gradientUnits="userSpaceOnUse" gradientTransform="translate(37.2646 18.5375) rotate(16.8691) scale(1.56349 1.84286)">
<stop offset="0.8061" stop-color="white"/>
<stop offset="0.828" stop-color="#F8F8F8"/>
<stop offset="0.9154" stop-color="#EBEBEB"/>
<stop offset="1" stop-color="#E7E7E7"/>
</radialGradient>
<linearGradient id="paint16_linear_440_20656" x1="35.6864" y1="17.9901" x2="38.4729" y2="18.8185" gradientUnits="userSpaceOnUse">
<stop stop-color="#914F37"/>
<stop offset="0.162" stop-color="#93523A"/>
<stop offset="0.3298" stop-color="#9A5C42"/>
<stop offset="0.5004" stop-color="#A76C51"/>
<stop offset="0.6728" stop-color="#BA8467"/>
<stop offset="0.845" stop-color="#D6A888"/>
<stop offset="1" stop-color="#FCD9B7"/>
</linearGradient>
<linearGradient id="paint17_linear_440_20656" x1="32.1583" y1="16.4407" x2="34.3395" y2="17.3903" gradientUnits="userSpaceOnUse">
<stop stop-color="#914F37"/>
<stop offset="0.162" stop-color="#93523A"/>
<stop offset="0.3298" stop-color="#9A5C42"/>
<stop offset="0.5004" stop-color="#A76C51"/>
<stop offset="0.6728" stop-color="#BA8467"/>
<stop offset="0.845" stop-color="#D6A888"/>
<stop offset="1" stop-color="#FCD9B7"/>
</linearGradient>
<radialGradient id="paint18_radial_440_20656" cx="0" cy="0" r="1" gradientUnits="userSpaceOnUse" gradientTransform="translate(33.3329 17.1773) rotate(6.81387) scale(1.26562 1.60728)">
<stop offset="0.8061" stop-color="white"/>
<stop offset="0.828" stop-color="#F8F8F8"/>
<stop offset="0.9154" stop-color="#EBEBEB"/>
<stop offset="1" stop-color="#E7E7E7"/>
</radialGradient>
<radialGradient id="paint19_radial_440_20656" cx="0" cy="0" r="1" gradientUnits="userSpaceOnUse" gradientTransform="translate(33.4483 17.3761) rotate(110.629) scale(0.969411 0.668786)">
<stop offset="0.6485" stop-color="#914F37"/>
<stop offset="0.6844" stop-color="#7C4533"/>
<stop offset="0.7487" stop-color="#60352B"/>
<stop offset="0.8131" stop-color="#4D2924"/>
<stop offset="0.8768" stop-color="#3F201E"/>
<stop offset="0.9395" stop-color="#371A1A"/>
<stop offset="1" stop-color="#341718"/>
</radialGradient>
<radialGradient id="paint20_radial_440_20656" cx="0" cy="0" r="1" gradientUnits="userSpaceOnUse" gradientTransform="translate(37.2646 18.5375) rotate(16.8691) scale(1.56349 1.84286)">
<stop offset="0.8061" stop-color="white"/>
<stop offset="0.828" stop-color="#F8F8F8"/>
<stop offset="0.9154" stop-color="#EBEBEB"/>
<stop offset="1" stop-color="#E7E7E7"/>
</radialGradient>
<radialGradient id="paint21_radial_440_20656" cx="0" cy="0" r="1" gradientUnits="userSpaceOnUse" gradientTransform="translate(37.3613 18.777) rotate(120.189) scale(1.10867 0.827579)">
<stop offset="0.6485" stop-color="#914F37"/>
<stop offset="0.6844" stop-color="#7C4533"/>
<stop offset="0.7487" stop-color="#60352B"/>
<stop offset="0.8131" stop-color="#4D2924"/>
<stop offset="0.8768" stop-color="#3F201E"/>
<stop offset="0.9395" stop-color="#371A1A"/>
<stop offset="1" stop-color="#341718"/>
</radialGradient>
<radialGradient id="paint22_radial_440_20656" cx="0" cy="0" r="1" gradientUnits="userSpaceOnUse" gradientTransform="translate(40.4229 8.72506) rotate(16.8691) scale(8.80462 8.84053)">
<stop stop-color="white" stop-opacity="0"/>
<stop offset="0.1876" stop-color="#ECECEC" stop-opacity="0.142"/>
<stop offset="0.5474" stop-color="#C8C8C9" stop-opacity="0.4142"/>
<stop offset="0.8606" stop-color="#A6A8AC" stop-opacity="0.6512"/>
<stop offset="0.8713" stop-color="#909092" stop-opacity="0.6742"/>
<stop offset="0.8946" stop-color="#6B696A" stop-opacity="0.724"/>
<stop offset="0.9176" stop-color="#4F4C4D" stop-opacity="0.7734"/>
<stop offset="0.94" stop-color="#3C3839" stop-opacity="0.8214"/>
<stop offset="0.9616" stop-color="#2E2B2B" stop-opacity="0.8677"/>
<stop offset="0.982" stop-color="#262223" stop-opacity="0.9114"/>
<stop offset="1" stop-color="#231F20" stop-opacity="0.95"/>
</radialGradient>
<linearGradient id="paint23_linear_440_20656" x1="44.0256" y1="18.3483" x2="47.2585" y2="19.3191" gradientUnits="userSpaceOnUse">
<stop offset="0.635" stop-color="white" stop-opacity="0"/>
<stop offset="0.6659" stop-color="#FFF1E9" stop-opacity="0.0893"/>
<stop offset="0.7256" stop-color="#FDD5C0" stop-opacity="0.2616"/>
<stop offset="0.8072" stop-color="#F9AA85" stop-opacity="0.4972"/>
<stop offset="0.8606" stop-color="#F68D62" stop-opacity="0.6512"/>
<stop offset="0.8954" stop-color="#DC7B4D" stop-opacity="0.7259"/>
<stop offset="0.9329" stop-color="#CC703E" stop-opacity="0.8063"/>
<stop offset="0.9685" stop-color="#C26A36" stop-opacity="0.8826"/>
<stop offset="1" stop-color="#BF6834" stop-opacity="0.95"/>
</linearGradient>
<linearGradient id="paint24_linear_440_20656" x1="30.9247" y1="18.3564" x2="33.0044" y2="18.6582" gradientUnits="userSpaceOnUse">
<stop offset="0.3939" stop-color="white"/>
<stop offset="0.4187" stop-color="#FFFAF6"/>
<stop offset="0.567" stop-color="#FEEBD9"/>
<stop offset="0.7146" stop-color="#FDE1C6"/>
<stop offset="0.8598" stop-color="#FDDBBB"/>
<stop offset="1" stop-color="#FCD9B7"/>
</linearGradient>
<linearGradient id="paint25_linear_440_20656" x1="44.8679" y1="21.7599" x2="44.3154" y2="22.9352" gradientUnits="userSpaceOnUse">
<stop offset="0.3939" stop-color="white"/>
<stop offset="0.4062" stop-color="#FFFAF7"/>
<stop offset="0.5273" stop-color="#FDE3D0"/>
<stop offset="0.6484" stop-color="#FCD2B5"/>
<stop offset="0.7683" stop-color="#FBC6A2"/>
<stop offset="0.8862" stop-color="#FABF97"/>
<stop offset="1" stop-color="#FABC93"/>
</linearGradient>
<linearGradient id="paint26_linear_440_20656" x1="32.4519" y1="22.5152" x2="32.1349" y2="23.3826" gradientUnits="userSpaceOnUse">
<stop stop-color="#914F37"/>
<stop offset="0.162" stop-color="#93523A"/>
<stop offset="0.3298" stop-color="#9A5C42"/>
<stop offset="0.5004" stop-color="#A76C51"/>
<stop offset="0.6728" stop-color="#BA8467"/>
<stop offset="0.845" stop-color="#D6A888"/>
<stop offset="1" stop-color="#FCD9B7"/>
</linearGradient>
<linearGradient id="paint27_linear_440_20656" x1="44.8291" y1="12.2974" x2="46.1939" y2="12.7072" gradientUnits="userSpaceOnUse">
<stop stop-color="#FECF0A"/>
<stop offset="0.0671" stop-color="#FDC810"/>
<stop offset="0.3051" stop-color="#FAB31A"/>
<stop offset="0.5419" stop-color="#F8A41E"/>
<stop offset="0.775" stop-color="#F79B20"/>
<stop offset="1" stop-color="#F79820"/>
</linearGradient>
<linearGradient id="paint28_linear_440_20656" x1="45.7359" y1="14.5219" x2="46.5555" y2="14.3446" gradientUnits="userSpaceOnUse">
<stop stop-color="#FECF0A"/>
<stop offset="0.0671" stop-color="#FDC810"/>
<stop offset="0.3051" stop-color="#FAB31A"/>
<stop offset="0.5419" stop-color="#F8A41E"/>
<stop offset="0.775" stop-color="#F79B20"/>
<stop offset="1" stop-color="#F79820"/>
</linearGradient>
<linearGradient id="paint29_linear_440_20656" x1="45.3543" y1="15.6359" x2="47.168" y2="16.1805" gradientUnits="userSpaceOnUse">
<stop offset="0.00606061" stop-color="white"/>
<stop offset="0.3152" stop-color="#FECF0A"/>
<stop offset="0.3611" stop-color="#FDC810"/>
<stop offset="0.5241" stop-color="#FAB31A"/>
<stop offset="0.6863" stop-color="#F8A41E"/>
<stop offset="0.8459" stop-color="#F79B20"/>
<stop offset="1" stop-color="#F79820"/>
</linearGradient>
<linearGradient id="paint30_linear_440_20656" x1="45.2894" y1="14.6061" x2="46.0189" y2="14.8252" gradientUnits="userSpaceOnUse">
<stop stop-color="white"/>
<stop offset="0.1067" stop-color="#FFF2D1"/>
<stop offset="0.236" stop-color="#FFE7A6"/>
<stop offset="0.3671" stop-color="#FFDE82"/>
<stop offset="0.4972" stop-color="#FFD761"/>
<stop offset="0.6261" stop-color="#FFD242"/>
<stop offset="0.7536" stop-color="#FFCE28"/>
<stop offset="0.8791" stop-color="#FFCC12"/>
<stop offset="1" stop-color="#FFCB09"/>
</linearGradient>
<radialGradient id="paint31_radial_440_20656" cx="0" cy="0" r="1" gradientUnits="userSpaceOnUse" gradientTransform="translate(45.8609 15.8659) rotate(16.8691) scale(2.64849 2.65929)">
<stop offset="0.103" stop-color="white"/>
<stop offset="0.1418" stop-color="#FFF2D1"/>
<stop offset="0.1888" stop-color="#FFE7A6"/>
<stop offset="0.2365" stop-color="#FFDE82"/>
<stop offset="0.2838" stop-color="#FFD761"/>
<stop offset="0.3307" stop-color="#FFD242"/>
<stop offset="0.3771" stop-color="#FFCE28"/>
<stop offset="0.4227" stop-color="#FFCC12"/>
<stop offset="0.4667" stop-color="#FFCB09"/>
</radialGradient>
<linearGradient id="paint32_linear_440_20656" x1="45.0042" y1="11.9461" x2="45.6515" y2="12.1405" gradientUnits="userSpaceOnUse">
<stop stop-color="white"/>
<stop offset="0.1067" stop-color="#FFF2D1"/>
<stop offset="0.236" stop-color="#FFE7A6"/>
<stop offset="0.3671" stop-color="#FFDE82"/>
<stop offset="0.4972" stop-color="#FFD761"/>
<stop offset="0.6261" stop-color="#FFD242"/>
<stop offset="0.7536" stop-color="#FFCE28"/>
<stop offset="0.8791" stop-color="#FFCC12"/>
<stop offset="1" stop-color="#FFCB09"/>
</linearGradient>
<radialGradient id="paint33_radial_440_20656" cx="0" cy="0" r="1" gradientUnits="userSpaceOnUse" gradientTransform="translate(45.393 15.5145) rotate(16.8691) scale(1.57664 1.58307)">
<stop offset="0.635" stop-color="white" stop-opacity="0"/>
<stop offset="0.6565" stop-color="#FFF5EB" stop-opacity="0.0621"/>
<stop offset="0.698" stop-color="#FEE2C6" stop-opacity="0.1819"/>
<stop offset="0.7553" stop-color="#FDC48E" stop-opacity="0.3474"/>
<stop offset="0.8255" stop-color="#F99D47" stop-opacity="0.55"/>
<stop offset="0.8606" stop-color="#F68A20" stop-opacity="0.6512"/>
<stop offset="0.89" stop-color="#F47B22" stop-opacity="0.7143"/>
<stop offset="0.9295" stop-color="#F26A24" stop-opacity="0.7988"/>
<stop offset="0.9669" stop-color="#F15E24" stop-opacity="0.8791"/>
<stop offset="1" stop-color="#F15A25" stop-opacity="0.95"/>
</radialGradient>
</defs>
</svg>
