<svg width="16" height="16" viewBox="0 0 16 16" fill="none" xmlns="http://www.w3.org/2000/svg">
<path fill-rule="evenodd" clip-rule="evenodd" d="M8.00016 1.33325C4.31826 1.33325 1.3335 4.31802 1.3335 7.99992C1.3335 11.6818 4.31826 14.6666 8.00016 14.6666C11.6821 14.6666 14.6668 11.6818 14.6668 7.99992C14.6668 6.23181 13.9644 4.53612 12.7142 3.28587C11.464 2.03563 9.76827 1.33325 8.00016 1.33325ZM8.00021 13.3332C5.05469 13.3332 2.66687 10.9454 2.66687 7.9999C2.66687 5.05438 5.05469 2.66656 8.00021 2.66656C10.9457 2.66656 13.3335 5.05438 13.3335 7.9999C13.3335 9.41438 12.7716 10.7709 11.7714 11.7711C10.7712 12.7713 9.41469 13.3332 8.00021 13.3332ZM10.0801 5.65989C10.2098 5.53284 10.4172 5.53284 10.5468 5.65989L10.8801 6.01322C10.9433 6.07581 10.9787 6.16101 10.9787 6.24989C10.9787 6.33877 10.9433 6.42396 10.8801 6.48655L7.13348 10.2332C7.07299 10.2977 6.98854 10.3342 6.90015 10.3342C6.81176 10.3342 6.7273 10.2977 6.66681 10.2332L5.10015 8.65322C5.03704 8.59063 5.00155 8.50543 5.00155 8.41655C5.00155 8.32767 5.03704 8.24248 5.10015 8.17989L5.45348 7.82655C5.51397 7.7621 5.59842 7.72554 5.68681 7.72554C5.7752 7.72554 5.85966 7.7621 5.92015 7.82655L6.92015 8.81989L10.0801 5.65989Z" fill="#80909C"/>
</svg>
