<svg width="20" height="20" viewBox="0 0 20 20" fill="none" xmlns="http://www.w3.org/2000/svg">
<path d="M16.5416 6.04148L7.70829 14.8748C7.66956 14.9139 7.62347 14.9449 7.5727 14.966C7.52192 14.9872 7.46746 14.9981 7.41246 14.9981C7.35745 14.9981 7.30299 14.9872 7.25222 14.966C7.20144 14.9449 7.15536 14.9139 7.11662 14.8748L2.62496 10.3831C2.5859 10.3444 2.55491 10.2983 2.53375 10.2476C2.5126 10.1968 2.50171 10.1423 2.50171 10.0873C2.50171 10.0323 2.5126 9.97785 2.53375 9.92707C2.55491 9.8763 2.5859 9.83021 2.62496 9.79148L3.20829 9.20815C3.24703 9.16909 3.29311 9.13809 3.34388 9.11694C3.39466 9.09579 3.44912 9.0849 3.50412 9.0849C3.55913 9.0849 3.61359 9.09579 3.66437 9.11694C3.71514 9.13809 3.76122 9.16909 3.79996 9.20815L7.40829 12.8165L15.3666 4.85815C15.4459 4.78127 15.552 4.73828 15.6625 4.73828C15.7729 4.73828 15.879 4.78127 15.9583 4.85815L16.5416 5.44981C16.5807 5.48855 16.6117 5.53463 16.6328 5.58541C16.654 5.63618 16.6649 5.69064 16.6649 5.74565C16.6649 5.80065 16.654 5.85511 16.6328 5.90589C16.6117 5.95666 16.5807 6.00274 16.5416 6.04148Z" fill="#FF7707"/>
</svg>
