<svg width="16" height="16" viewBox="0 0 16 16" fill="none" xmlns="http://www.w3.org/2000/svg">
<path fill-rule="evenodd" clip-rule="evenodd" d="M8.00016 1.33331C4.31826 1.33331 1.3335 4.31808 1.3335 7.99998C1.3335 11.6819 4.31826 14.6666 8.00016 14.6666C11.6821 14.6666 14.6668 11.6819 14.6668 7.99998C14.6668 6.23187 13.9644 4.53618 12.7142 3.28593C11.464 2.03569 9.76827 1.33331 8.00016 1.33331ZM8.00021 13.3333C5.05469 13.3333 2.66687 10.9455 2.66687 7.99996C2.66687 5.05444 5.05469 2.66662 8.00021 2.66662C10.9457 2.66662 13.3335 5.05444 13.3335 7.99996C13.3335 9.41445 12.7716 10.771 11.7714 11.7712C10.7712 12.7714 9.41469 13.3333 8.00021 13.3333ZM10.0801 5.65995C10.2098 5.5329 10.4172 5.5329 10.5468 5.65995L10.8801 6.01328C10.9433 6.07587 10.9787 6.16107 10.9787 6.24995C10.9787 6.33883 10.9433 6.42403 10.8801 6.48661L7.13348 10.2333C7.07299 10.2977 6.98854 10.3343 6.90015 10.3343C6.81176 10.3343 6.7273 10.2977 6.66681 10.2333L5.10015 8.65328C5.03704 8.59069 5.00155 8.50549 5.00155 8.41662C5.00155 8.32774 5.03704 8.24254 5.10015 8.17995L5.45348 7.82661C5.51397 7.76216 5.59842 7.7256 5.68681 7.7256C5.7752 7.7256 5.85966 7.76216 5.92015 7.82661L6.92015 8.81995L10.0801 5.65995Z" fill="#FF7707"/>
</svg>
