<svg xmlns="http://www.w3.org/2000/svg" xmlns:xlink="http://www.w3.org/1999/xlink" viewBox="0 0 1855.27 900"><defs><style>.cls-1{fill:none;}.cls-2{fill:#304959;}.cls-3{fill:#f58220;}.cls-4{clip-path:url(#clip-path);}.cls-5{clip-path:url(#clip-path-2);}</style><clipPath id="clip-path"><rect class="cls-1" x="815.57" y="606.18" width="770.88" height="88.66"/></clipPath><clipPath id="clip-path-2"><rect class="cls-1" x="268.83" y="205.16" width="461.52" height="488"/></clipPath></defs><g id="Layer_2" data-name="Layer 2"><g id="Layer_1-2" data-name="Layer 1"><polygon class="cls-2" points="930.26 351.06 930.26 445.73 855.34 445.73 855.34 351.06 815.57 351.06 815.57 580.05 855.34 580.05 855.34 486.15 930.26 486.15 930.26 580.05 969.76 580.05 969.76 351.06 930.26 351.06"/><path class="cls-2" d="M1119.86,451c-14.62-14.56-32.67-22-53.89-22s-39.26,7.4-53.89,22-21.77,32.22-21.77,53.32,7.15,39.09,21.77,53.62,32.68,21.69,53.89,21.69,39.27-7.13,53.89-21.69,22.08-32.52,22.08-53.62-7.45-38.79-22.08-53.32m-26.08,81.55c-7.45,7.43-16.63,11.13-27.81,11.13s-20.35-3.7-27.8-11.13c-7.15-7.4-10.9-16.81-10.9-28.23s3.75-20.8,10.9-28.23c7.45-7.42,16.63-11.12,27.8-11.12s20.36,3.7,27.81,11.12S1105,493,1105,504.34s-3.75,20.83-11.19,28.23"/><path class="cls-2" d="M1270.73,524c-5.72,11.68-18,18.8-32.92,18.8-11.18,0-20.33-3.7-27.5-10.82-7.15-7.42-10.87-16.82-10.87-27.94,0-22.8,16.32-39,38.37-39,14.62,0,26.93,7.4,32.65,19.08l31.8-18.52c-11.75-22.52-36.37-36.75-64.18-36.75-21.46,0-39.5,7.13-54.11,21.65-14.32,14.54-21.49,32.2-21.49,53.57s7.17,39.06,21.49,53.58c14.61,14.54,32.65,21.67,54.11,21.67,27.81,0,52.14-14.55,64.74-37Z"/><polygon class="cls-3" points="1360.45 351.06 1306.22 370.12 1316.22 404.74 1355.13 393.88 1355.13 580.05 1395.81 580.05 1395.81 351.06 1360.45 351.06"/><path class="cls-3" d="M1564.63,382.41c-14.43-21-34.76-31.34-60.7-31.34-25.64,0-46,10.34-60.71,31.34-14.45,20.69-21.81,48.26-21.81,82.74s7.36,62.07,21.81,83.07c14.74,20.69,35.07,31,60.71,31,25.94,0,46.27-10.34,60.7-31,14.46-21,21.81-48.58,21.81-83.07s-7.35-62-21.81-82.74m-60.7,154.53c-27.41,0-41.86-25.1-41.86-71.79s14.45-72.1,41.86-72.1,42.14,25.4,42.14,72.1c0,46.4-14.74,71.79-42.14,71.79"/><g class="cls-4"><polygon class="cls-2" points="857.35 613.39 857.35 641.75 822.06 641.75 822.06 613.39 815.57 613.39 815.57 678.1 822.06 678.1 822.06 647.87 857.35 647.87 857.35 678.1 863.84 678.1 863.84 613.39 857.35 613.39"/><path class="cls-2" d="M902.39,687.23a4.46,4.46,0,1,0,0,6.31,4.4,4.4,0,0,0,0-6.31m14.29-49.45a23.6,23.6,0,0,0-17.27-7,23.85,23.85,0,0,0-17.36,7A23.09,23.09,0,0,0,875,655a23.34,23.34,0,0,0,7.06,17.27,24,24,0,0,0,17.36,6.93,23.76,23.76,0,0,0,17.27-6.93A23.3,23.3,0,0,0,923.83,655a23.06,23.06,0,0,0-7.15-17.21M912.43,668a18.37,18.37,0,0,1-26-26,18.49,18.49,0,0,1,26,0,17.69,17.69,0,0,1,5.28,13,18,18,0,0,1-5.28,13"/><path class="cls-2" d="M971.39,664.21a17.47,17.47,0,0,1-15.69,9.07,18.36,18.36,0,0,1-13-31.25,17.51,17.51,0,0,1,13-5.34c7,0,12.8,3.51,15.32,9l5-2.86c-3.33-7.39-11.12-12.11-20.32-12.11a23.54,23.54,0,0,0-17.46,7,23.27,23.27,0,0,0-7,17.21,23.72,23.72,0,0,0,24.41,24.2c9,0,17-4.6,20.78-12Z"/><path class="cls-2" d="M1058,630.76c-6.68,0-11.71,2.79-15,8.42-2.7-5.63-7.45-8.42-14.13-8.42a15.92,15.92,0,0,0-14.2,7.86v-6.74h-6.12V678.1h6.12V652.47c0-10.72,5.94-15.78,13.36-15.78,6.71,0,10.87,4.44,10.87,12.55V678.1H1045V652.47c0-10.81,5.22-15.78,12.93-15.78,6.77,0,11.33,4.51,11.33,12.55V678.1h6.13V649.24c0-11.37-7-18.48-17.37-18.48"/><path class="cls-2" d="M1111.89,687.23a4.47,4.47,0,1,0,0,6.31,4.4,4.4,0,0,0,0-6.31m.38-73h-6.71l-9.17,11.18h6.5l6-7.48,6,7.48h6.52Zm13.92,23.55a24.88,24.88,0,0,0-34.64,0,23.12,23.12,0,0,0-7,17.21,23.37,23.37,0,0,0,7,17.27,25.11,25.11,0,0,0,34.64,0,23.33,23.33,0,0,0,7.14-17.27,23.09,23.09,0,0,0-7.14-17.21M1121.93,668a18.31,18.31,0,0,1-31.31-13,18.3,18.3,0,1,1,36.59,0,18,18,0,0,1-5.28,13"/><path class="cls-2" d="M1168.15,637.78v-5.91H1154.8v-13l-6.12,1.87v11.08h-9.76v5.91h9.76v28c0,10.72,6.49,14.23,19.47,12.3v-5.37c-8.91.37-13.35,1-13.35-6.93v-28Z"/><path class="cls-2" d="M1243.39,637.78a23,23,0,0,0-16.9-7c-8.26,0-14.5,3.42-18.76,10.19V613.39h-6.15V678.1h6.15V669c4.26,6.74,10.5,10.16,18.76,10.16a22.85,22.85,0,0,0,16.9-7,24.47,24.47,0,0,0,0-34.39M1239,668a18.64,18.64,0,0,1-26,0,18,18,0,0,1-5.28-13,18.13,18.13,0,0,1,18.3-18.3,18.18,18.18,0,0,1,18.29,18.3,17.86,17.86,0,0,1-5.31,13"/><path class="cls-2" d="M1260.67,678.1h6.11V631.88h-6.11Zm6.21-60.55a4.43,4.43,0,0,0-6.31,0,4.45,4.45,0,1,0,6.31,0"/><path class="cls-2" d="M1317.39,606.19l-7,11.18H1316l8.27-11.18Zm-12.43,8h-6.71l-9.19,11.18h6.52l6-7.48,6,7.48h6.5Zm19.3,40.94a25,25,0,0,0-6.4-17.11c-4.2-4.88-9.76-7.3-16.63-7.3-7.14,0-12.92,2.33-17.45,6.93S1277,648.06,1277,655s2.3,12.83,6.87,17.36,10.5,6.84,17.83,6.84c9,0,16.34-4.07,20.41-10.63l-5.37-3.14c-2.61,4.73-7.89,7.87-15,7.87-9.94,0-17.27-5.91-18.48-15.26h40.76c.09-1.21.19-2.2.19-2.86m-41-3c1.21-9.16,8.26-15.44,17.92-15.44a16.6,16.6,0,0,1,11.06,4.07c3.14,2.67,5,6.46,5.66,11.37Z"/><path class="cls-2" d="M1358.61,637.78v-5.91h-13.36v-13l-6.11,1.87v11.08h-9.76v5.91h9.76v28c0,10.72,6.49,14.23,19.47,12.3v-5.37c-8.91.37-13.36,1-13.36-6.93v-28Z"/><path class="cls-2" d="M1441.56,630.76c-6.68,0-11.72,2.79-15,8.42-2.7-5.63-7.46-8.42-14.13-8.42a15.87,15.87,0,0,0-14.2,7.86v-6.74h-6.12V678.1h6.12V652.47c0-10.72,5.93-15.78,13.36-15.78,6.71,0,10.87,4.44,10.87,12.55V678.1h6.12V652.47c0-10.81,5.22-15.78,12.92-15.78,6.77,0,11.31,4.51,11.31,12.55V678.1h6.15V649.24c0-11.37-7-18.48-17.36-18.48"/><path class="cls-2" d="M1512,625v.46c0,4.51-.93,6.47-5.41,6.47h-3.13v24.2c0,11.74-6.15,17.2-15.07,17.2-8.07,0-12.61-4.81-12.61-13V631.88h-6.12v28.36c0,11.55,7,19,18.2,19q10.44,0,15.6-8.3v7.21h6.12V637.25c5.74-.93,8.08-5.09,8.08-11.84V625Z"/><path class="cls-2" d="M1543.7,613.39h-7.43l8.92,12h5.93Zm17.83,24.39c-.38-.34-.75-.62-1.12-1,4.47-1.49,6.31-5.37,6.31-11.37V625h-5.66v.46c0,4.51-.93,6.47-5.37,6.47h-3.82a24.91,24.91,0,0,0-7.61-1.12,23.86,23.86,0,0,0-17.37,7,23.12,23.12,0,0,0-7.05,17.21,23.37,23.37,0,0,0,7.05,17.27,24,24,0,0,0,17.37,6.93,23.77,23.77,0,0,0,17.27-6.93,23.33,23.33,0,0,0,7.14-17.27,23.09,23.09,0,0,0-7.14-17.21M1557.27,668A18.31,18.31,0,0,1,1526,655a18.3,18.3,0,1,1,36.59,0,18,18,0,0,1-5.28,13"/><path class="cls-2" d="M1578.89,678.1H1585V631.88h-6.12Zm6.22-60.55a4.43,4.43,0,0,0-6.31,0,4.45,4.45,0,1,0,6.31,0"/></g><g class="cls-5"><path class="cls-3" d="M326.68,315.23V552.38s107.19,12,172.92,51.81V380.77c-51.5-44.42-172.92-65.54-172.92-65.54M462,533c-26.13-15.06-65.27-28.36-92.26-30.58a3.64,3.64,0,0,1-3.25-3.68v-1.12a3.63,3.63,0,0,1,3.86-3.7c28.23,2.51,69.34,16.83,95.18,32.64a3.72,3.72,0,0,1,1.74,3.18A3.57,3.57,0,0,1,462,533m0-50.63c-26.13-15.08-65.27-28.36-92.26-30.58a3.65,3.65,0,0,1-3.25-3.7V447a3.63,3.63,0,0,1,3.86-3.7c28.23,2.51,69.34,16.83,95.18,32.64a3.69,3.69,0,0,1,1.74,3.18,3.57,3.57,0,0,1-5.27,3.26m0-50.65c-26.13-15.06-65.27-28.34-92.26-30.58a3.61,3.61,0,0,1-3.25-3.68v-1.1a3.63,3.63,0,0,1,3.86-3.7c28.23,2.51,69.34,16.83,95.18,32.64a3.69,3.69,0,0,1,1.74,3.18,3.56,3.56,0,0,1-5.27,3.24"/><path class="cls-3" d="M672.51,550.53V315.23s-122.35,19-172.91,65.53c46-27.86,118.08-38.67,150.4-39.91V533.73s-99.84,23.92-150.4,70.46c65.73-39.82,172.91-53.66,172.91-53.66"/><path class="cls-2" d="M708.63,354.65a41.47,41.47,0,0,0-11.68-4.4v15a26.47,26.47,0,0,1,4.58,2,28.1,28.1,0,0,1,14.34,24.45V595.2a28,28,0,0,1-28,28H311.3a28,28,0,0,1-28-28V391.73a28,28,0,0,1,18.91-26.48v-15a42.93,42.93,0,0,0-11.47,4.29v0a42.47,42.47,0,0,0-21.93,37.16V595.2a42.54,42.54,0,0,0,42.47,42.5h146v39.35h-56a16.11,16.11,0,0,0-16.11,16.11H614a16.11,16.11,0,0,0-16.11-16.11h-56V637.7h146a42.5,42.5,0,0,0,42.5-42.5V391.73a42.63,42.63,0,0,0-21.73-37.08"/><path class="cls-3" d="M567.75,504.11l41.55-32.52c6-5.63,6.72-9-.49-14.19l-38.07-29.46c-8-6.41-13.52-4.11-13.52,4.94v67.58c0,6,4.75,9,10.53,3.65"/><path class="cls-2" d="M642.4,266.4l-71.19,33.19v17.62c-46.49,6.71-71.61,33.34-71.61,33.34S469.91,323.67,428,317.21V299.59L356.79,266.4a2.65,2.65,0,0,1,0-4.88L495.87,205.9a9.72,9.72,0,0,1,7.45,0l139.06,55.62a2.65,2.65,0,0,1,0,4.88"/></g><rect class="cls-1" width="1855.27" height="900"/></g></g></svg>