<svg width="21" height="21" viewBox="0 0 21 21" fill="none" xmlns="http://www.w3.org/2000/svg">
<path d="M18.5327 11.5237C18.5732 11.1956 18.6002 10.8544 18.6002 10.5C18.6002 10.1456 18.5732 9.80437 18.5192 9.47625L20.8007 7.74375C21.0032 7.58625 21.0572 7.2975 20.9357 7.07437L18.7757 3.43875C18.6407 3.2025 18.3572 3.12375 18.1142 3.2025L15.4276 4.2525C14.8606 3.8325 14.2666 3.49125 13.6051 3.22875L13.2001 0.44625C13.1596 0.18375 12.9301 0 12.6601 0H8.33995C8.06994 0 7.85394 0.18375 7.81344 0.44625L7.40843 3.22875C6.74691 3.49125 6.1394 3.84562 5.58588 4.2525L2.89932 3.2025C2.65632 3.11063 2.37281 3.2025 2.23781 3.43875L0.0777555 7.07437C-0.0572476 7.31062 -0.00324616 7.58625 0.212759 7.74375L2.49431 9.47625C2.44031 9.80437 2.39981 10.1587 2.39981 10.5C2.39981 10.8412 2.42681 11.1956 2.48081 11.5237L0.199258 13.2562C-0.00324649 13.4137 -0.0572476 13.7025 0.0642552 13.9256L2.22431 17.5612C2.35931 17.7975 2.64282 17.8762 2.88582 17.7975L5.57238 16.7475C6.1394 17.1675 6.73341 17.5087 7.39493 17.7712L7.79994 20.5537C7.85394 20.8162 8.06994 21 8.33995 21H12.6601C12.9301 21 13.1596 20.8162 13.1866 20.5537L13.5916 17.7712C14.2531 17.5087 14.8606 17.1544 15.4141 16.7475L18.1007 17.7975C18.3437 17.8894 18.6272 17.7975 18.7622 17.5612L20.9222 13.9256C21.0572 13.6894 21.0032 13.4137 20.7872 13.2562L18.5327 11.5237ZM10.5 14.4375C8.27245 14.4375 6.4499 12.6656 6.4499 10.5C6.4499 8.33437 8.27245 6.5625 10.5 6.5625C12.7276 6.5625 14.5501 8.33437 14.5501 10.5C14.5501 12.6656 12.7276 14.4375 10.5 14.4375Z" fill="#FF7707"/>
</svg>
