<svg width="72" height="52" viewBox="0 0 72 52" fill="none" xmlns="http://www.w3.org/2000/svg">
<path d="M37.9696 13.6865C38.215 13.6943 38.4603 13.7335 38.7017 13.8C39.1067 13.9056 39.4766 14.1052 39.8076 14.3791C39.8114 14.383 39.8115 14.383 39.8153 14.3869C41.003 15.3769 41.6649 17.2904 41.6532 18.8242C41.6532 18.8242 40.0801 18.8673 39.5817 21.2268C38.5654 21.1094 37.4245 20.3151 36.599 19.3134C35.4931 17.6191 35.4931 16.3199 35.8008 15.42C36.4004 13.8 37.7905 13.6943 37.9696 13.6865Z" fill="#FCD9B7"/>
<path d="M37.0624 19.5403C35.9565 17.846 35.9565 16.5469 36.2641 15.6508C36.8599 14.0309 38.25 13.9213 38.4369 13.9135C38.6822 13.9213 38.9276 13.9604 39.169 14.027C39.2585 14.0465 39.3442 14.0778 39.426 14.1091C39.2001 13.9722 38.9626 13.8665 38.7056 13.8C38.4642 13.7335 38.2189 13.6943 37.9736 13.6865C37.7905 13.6943 36.4004 13.8039 35.8047 15.42C35.4971 16.3199 35.4971 17.6191 36.6029 19.3134C37.222 20.0607 38.0164 20.6946 38.8029 21.0155C38.1721 20.6633 37.5608 20.139 37.0624 19.5403Z" fill="url(#paint0_radial_440_20655)"/>
<path d="M38.7686 18.7619C38.7686 18.7619 39.119 18.7228 39.0645 18.3158C39.01 17.9128 38.8114 17.4941 39.1346 17.4589C39.4578 17.4276 40.2015 17.8071 39.7576 16.7859C39.3098 15.7646 37.8418 14.7472 37.1565 15.4907C36.4712 16.242 37.2538 18.8989 38.7686 18.7619Z" fill="#E08E62"/>
<path opacity="0.33" d="M37.9696 13.6865C38.215 13.6943 38.4603 13.7335 38.7017 13.8C39.1067 13.9056 39.4766 14.1052 39.8076 14.3791C39.8114 14.383 39.8115 14.383 39.8153 14.3869C41.003 15.3769 41.6649 17.2904 41.6532 18.8242C41.6532 18.8242 40.0801 18.8673 39.5817 21.2268C38.5654 21.1094 37.4245 20.3151 36.599 19.3134C35.4931 17.6191 35.4931 16.3199 35.8008 15.42C36.4004 13.8 37.7905 13.6943 37.9696 13.6865Z" fill="url(#paint1_linear_440_20655)"/>
<path d="M48.363 13.0215C46.7626 12.1646 45.4776 11.8203 44.107 11.9103C44.0992 11.9103 44.0953 11.9103 44.0914 11.9103C43.3048 11.9924 43.1724 11.7224 42.857 11.2998C42.5416 10.8772 41.7551 9.90682 41.3229 10.6268C40.8906 11.3468 42.2963 12.2546 42.2963 12.2546C42.2963 12.2546 42.1328 12.1685 41.942 12.0668C41.6305 11.8946 41.1827 11.6285 40.914 11.3703C40.4623 10.9438 40.0067 10.7051 39.7653 10.9203C39.5317 11.1277 39.6602 12.145 41.3112 12.552C41.2683 12.5716 41.2294 12.5911 41.1866 12.6107C41.1671 12.6185 41.1515 12.6302 41.1321 12.6381C40.9607 12.7202 40.6998 12.8572 40.3961 13.0607C40.3611 13.0841 40.3377 13.0998 40.3377 13.0998C39.8393 13.4441 39.2396 13.9685 38.7373 14.7315C38.492 15.1306 38.2895 15.5415 38.126 15.9484C37.7794 16.8954 37.612 18.0771 37.8067 19.5405C37.0707 19.791 36.4945 20.8201 36.4945 20.8201C36.4127 20.691 35.7118 20.2018 35.4392 20.8162C35.1666 21.4266 35.8013 22.1153 35.8013 22.1153C35.3652 21.9001 35.1394 22.307 35.1394 22.307C34.7695 23.2422 35.9649 23.3713 35.9649 23.3713C37.3589 26.7834 40.9374 27.4839 40.9374 27.4839C42.5767 27.8712 43.8539 27.9339 44.8546 27.7812C44.8585 27.7812 44.8702 27.7812 44.8741 27.7812C44.9013 27.7773 44.9325 27.7695 44.9636 27.7656C45.022 27.7539 45.0804 27.7421 45.1389 27.7304C45.17 27.7265 45.2012 27.7186 45.2323 27.7108C45.2868 27.6991 45.3413 27.6873 45.3958 27.6717C47.0274 27.2726 49.0405 26.2161 50.82 23.6296C50.9174 23.4692 51.0108 23.3009 51.0965 23.1287C52.6034 20.1001 52.2841 15.1228 48.363 13.0215Z" fill="#EB2227"/>
<path d="M47.0898 27.0414C48.1529 26.5053 49.2743 25.6445 50.3373 24.2867L50.4113 22.5376C50.4113 22.5376 49.0562 25.578 47.4208 26.7088C47.2261 26.8458 47.1249 26.9553 47.0898 27.0414Z" fill="url(#paint2_linear_440_20655)"/>
<path d="M36.6931 20.5186C36.8293 20.589 36.9384 20.679 36.9656 20.7221C36.9656 20.7221 37.5419 19.693 38.2779 19.4425C38.0832 17.9752 38.2506 16.7935 38.5972 15.8465C38.7568 15.4396 38.9593 15.0287 39.2046 14.6296C39.703 13.8705 40.3027 13.3461 40.805 12.9979C40.805 12.9979 40.8283 12.9822 40.8634 12.9588C41.1671 12.7553 41.428 12.6144 41.5993 12.5362C41.6188 12.5283 41.6344 12.5205 41.6538 12.5088C41.6967 12.4892 41.7395 12.4696 41.7823 12.4501C40.2443 12.0705 40.0262 11.1627 40.1936 10.8731C40.0223 10.8145 39.8743 10.8184 39.7692 10.9123C39.5356 11.1197 39.6641 12.137 41.3151 12.544C41.2723 12.5635 41.2333 12.5831 41.1905 12.6027C41.171 12.6105 41.1554 12.6222 41.136 12.6301C40.9646 12.7122 40.7037 12.8492 40.4 13.0527C40.365 13.0761 40.3416 13.0918 40.3416 13.0918C39.8432 13.4361 39.2435 13.9605 38.7412 14.7235C38.4959 15.1226 38.2934 15.5335 38.1299 15.9404C37.7833 16.8874 37.6159 18.0691 37.8106 19.5325C37.3317 19.7008 36.9228 20.1938 36.6931 20.5186ZM45.3258 27.6872C44.325 27.8398 43.0479 27.7811 41.4085 27.3898C41.4085 27.3898 37.834 26.6933 36.4361 23.2812C36.4361 23.2812 35.2445 23.152 35.6106 22.2129C35.6106 22.2129 35.6495 22.1503 35.7196 22.0838C35.3419 21.9625 35.1433 22.3068 35.1433 22.3068C34.7734 23.242 35.9688 23.3712 35.9688 23.3712C37.3628 26.7833 40.9413 27.4837 40.9413 27.4837C42.5806 27.8711 43.8578 27.9337 44.8585 27.7811C44.8624 27.7811 44.8741 27.7811 44.878 27.7811C44.9052 27.7772 44.9364 27.7693 44.9675 27.7654C45.0259 27.7537 45.0844 27.7419 45.1428 27.7302C45.1739 27.7263 45.2051 27.7185 45.2362 27.7106C45.2674 27.7028 45.2985 27.695 45.3297 27.6911C45.3297 27.6832 45.3258 27.6872 45.3258 27.6872ZM41.3774 11.2801C41.65 11.5384 42.0939 11.8044 42.4054 11.9766C42.5962 12.0744 42.7597 12.1644 42.7597 12.1644C42.7597 12.1644 41.354 11.2527 41.7862 10.5327C41.8174 10.4819 41.8524 10.4388 41.8875 10.4036C41.6772 10.3292 41.4747 10.3684 41.319 10.6266C41.2061 10.8184 41.2216 11.0218 41.3034 11.2175C41.3346 11.2371 41.3579 11.2566 41.3774 11.2801ZM35.7585 22.0525C35.8676 21.9703 36.0389 21.9077 36.2764 22.0212C36.2764 22.0212 35.6417 21.3325 35.9104 20.7221C35.9454 20.6438 35.9883 20.5851 36.035 20.5382C35.8169 20.4795 35.5794 20.5147 35.447 20.816C35.2212 21.3247 35.6183 21.8764 35.7585 22.0525Z" fill="url(#paint3_radial_440_20655)"/>
<path d="M47.4635 21.1291C47.6193 20.6908 49.3365 17.5722 46.3771 16.144C44.5859 15.2792 43.4684 15.7801 42.8687 16.3044C42.3898 16.6409 42.2379 16.2888 42.2379 16.2888C42.0588 15.5492 41.5565 15.1462 41.1632 14.9505C40.6531 14.7001 39.7614 14.7784 39.0722 16.1909C38.383 17.6035 38.2857 19.4504 38.2857 19.4504L38.0092 19.4857C37.1837 19.5991 36.5023 20.8161 36.5023 20.8161C36.4205 20.6869 35.7196 20.1978 35.447 20.8121C35.1745 21.4226 35.8092 22.1113 35.8092 22.1113C35.373 21.896 35.1472 22.303 35.1472 22.303C34.7773 23.2382 35.9727 23.3673 35.9727 23.3673C37.3667 26.7794 40.9452 27.4798 40.9452 27.4798C46.4745 28.7907 47.8802 26.3803 48.4487 24.5647C49.0133 22.753 47.4635 21.1291 47.4635 21.1291Z" fill="#FCD9B7"/>
<path d="M46.3775 16.144C44.5863 15.2792 43.4688 15.7801 42.8691 16.3044C42.764 16.3788 42.6783 16.414 42.6005 16.4335C42.6355 16.5274 42.6706 16.6292 42.69 16.7387C42.69 16.7387 42.8302 17.0909 43.3208 16.774C43.94 16.2653 45.0731 15.8035 46.8331 16.727C47.2575 16.95 47.5768 17.2044 47.8222 17.4783C47.5729 16.9735 47.1252 16.504 46.3775 16.144ZM47.8299 21.5947C47.7988 21.6573 47.7754 21.7082 47.7637 21.7434C47.7637 21.7434 48.1181 22.1386 48.4101 22.753C48.2544 22.2795 48.0285 21.8804 47.8299 21.5947ZM36.0627 23.5825C36.2807 24.0677 36.5455 24.4942 36.8336 24.8738C36.5922 24.4982 36.3742 24.0795 36.2028 23.6138C36.2028 23.6138 36.1483 23.6021 36.0627 23.5825ZM39.0687 16.1948C38.3795 17.6074 38.2822 19.4543 38.2822 19.4543L38.0057 19.4896C37.1802 19.603 36.4988 20.82 36.4988 20.82C36.417 20.6908 35.7161 20.2017 35.4435 20.8161C35.171 21.4265 35.8057 22.1152 35.8057 22.1152C35.3695 21.8999 35.1437 22.3069 35.1437 22.3069C34.9568 22.7804 35.1671 23.0464 35.4241 23.1951C35.3189 23.0347 35.2839 22.8156 35.4124 22.5221C35.4124 22.5221 35.6499 22.123 36.0821 22.3538C36.0821 22.3538 35.4708 21.6495 35.7589 21.043C36.051 20.4365 36.4365 20.9726 36.5105 21.0978C36.5105 21.0978 37.406 19.8143 38.36 19.8026L38.6365 19.7752C38.6365 19.7752 38.7962 17.9322 39.5282 16.5431C40.2603 15.154 41.1597 15.1031 41.6582 15.3692C41.7049 15.3966 41.7555 15.424 41.8061 15.4553C41.6036 15.2166 41.3661 15.0562 41.1597 14.9544C40.6496 14.704 39.7579 14.7823 39.0687 16.1948Z" fill="url(#paint4_radial_440_20655)"/>
<path d="M51.9097 18.9144C51.789 16.7662 50.8584 14.6141 48.8141 13.3032C48.1327 13.3932 47.533 13.8823 48.413 14.6728C50.9557 16.9618 49.0321 21.0431 49.0321 21.0431C49.0321 21.0431 50.9985 19.3605 51.9097 18.9144Z" fill="url(#paint5_linear_440_20655)"/>
<path d="M55.3204 17.3765C55.0673 17.2708 54.7987 17.2004 54.5183 17.1613C54.051 17.083 53.5838 17.1182 53.1243 17.2513C53.1204 17.2513 53.1165 17.2513 53.1126 17.2513C51.4421 17.7247 49.8963 19.3877 49.2148 20.9686C49.2187 20.9686 50.8113 21.7277 50.2545 24.3807C51.3487 24.725 52.8829 24.4276 54.1834 23.782C56.0836 22.5455 56.6755 21.2151 56.7651 20.1508C56.8858 18.2138 55.5034 17.4665 55.3204 17.3765Z" fill="#FCD9B7"/>
<path d="M52.206 22.2249C52.206 22.2249 51.8672 22.0214 52.1047 21.634C52.3422 21.2427 52.7355 20.9062 52.4162 20.7223C52.0969 20.5423 51.1624 20.5932 52.0813 19.748C53.0042 18.9028 54.9745 18.5271 55.3405 19.6071C55.7065 20.6832 53.7012 23.0583 52.206 22.2249Z" fill="#E08E62"/>
<path d="M53.5143 20.9922C53.2768 21.5791 52.9341 22.033 52.5992 22.3656C52.4668 22.3382 52.3344 22.2913 52.206 22.2208C52.206 22.2208 51.8672 22.0174 52.1047 21.63C52.3422 21.2387 52.7355 20.9022 52.4162 20.7183C52.0969 20.5383 51.1624 20.5891 52.0813 19.7439C52.2683 19.5757 52.4941 19.4231 52.7394 19.3018C53.2729 19.4896 53.9426 19.9396 53.5143 20.9922Z" fill="#603A17"/>
<path d="M52.9063 17.936C52.9102 17.936 52.914 17.936 52.9179 17.9321C53.3774 17.803 53.8486 17.7639 54.3158 17.8421C54.5923 17.8813 54.861 17.9517 55.118 18.0573C55.3049 18.1512 56.6833 18.8947 56.5626 20.8316C56.5509 20.9568 56.5315 21.0899 56.5081 21.2229C56.6639 20.8434 56.7417 20.4834 56.769 20.1469C56.8858 18.2099 55.5074 17.4626 55.3244 17.3726C55.0713 17.2669 54.8026 17.1965 54.5222 17.1574C54.055 17.0791 53.5877 17.1143 53.1282 17.2474C53.1243 17.2474 53.1204 17.2474 53.1165 17.2474C51.4461 17.7208 49.9002 19.3838 49.2188 20.9647C49.2188 20.9647 49.2616 20.9842 49.3239 21.0273C50.0988 19.6617 51.4538 18.3508 52.9063 17.936Z" fill="url(#paint6_radial_440_20655)"/>
<path opacity="0.43" d="M55.3204 17.3765C55.0673 17.2708 54.7987 17.2004 54.5183 17.1613C54.051 17.083 53.5838 17.1182 53.1243 17.2513C53.1204 17.2513 53.1165 17.2513 53.1126 17.2513C51.4421 17.7247 49.9002 19.3877 49.2148 20.9686C49.2187 20.9686 50.8113 21.7277 50.2545 24.3807C51.3487 24.725 52.8829 24.4276 54.1834 23.782C56.0836 22.5455 56.6755 21.2151 56.7651 20.1508C56.8858 18.2138 55.5034 17.4665 55.3204 17.3765Z" fill="url(#paint7_radial_440_20655)"/>
<path d="M42.1055 7.61768C42.1055 7.61768 44.0174 10.0241 47.0156 11.8945C50.0139 13.7649 52.7747 15.1619 55.7107 16.1949C55.7107 16.1949 51.661 10.8498 50.9796 10.122C50.9796 10.122 50.6876 9.75024 50.3683 9.65633C50.0529 9.55851 42.9543 7.63724 42.1055 7.61768Z" fill="#49494B"/>
<path d="M49.9127 10.0828C49.9127 10.0828 52.8448 12.7828 53.5106 13.5184C53.6274 13.6476 53.5885 13.5223 53.4522 13.2367C52.397 11.8672 51.3028 10.4663 50.9796 10.1181C50.9796 10.1181 50.6876 9.74633 50.3683 9.65242C50.0529 9.55851 42.9504 7.63724 42.1016 7.61768C42.1016 7.61768 42.6701 8.32984 43.6669 9.28069C43.7642 9.32373 43.8188 9.35112 43.8188 9.35112C43.8188 9.35112 43.4605 8.65461 43.4099 8.56461C43.3671 8.4707 48.2889 9.65633 49.9127 10.0828Z" fill="url(#paint8_linear_440_20655)"/>
<path d="M46.5439 10.3804L43.7559 11.9377C43.7559 11.9377 44.3906 13.7847 46.8787 14.8842C49.363 15.9837 51.1737 15.9368 51.1737 15.9368L51.5241 13.2251C51.5241 13.2251 49.5266 10.7286 46.5439 10.3804Z" fill="#4E4C50"/>
<path d="M50.4689 12.3056C50.4689 12.3056 50.2625 12.0512 49.8576 11.7108C49.0087 11.1121 47.8756 10.5291 46.5439 10.3765L43.7559 11.9338C43.7559 11.9338 44.0713 12.8495 45.1226 13.769C45.1771 13.7768 45.2122 13.7807 45.2122 13.7807L44.5385 12.3173L46.5789 11.1082C46.5789 11.1121 48.7011 11.1864 50.4689 12.3056Z" fill="url(#paint9_linear_440_20655)"/>
<path opacity="0.78" d="M51.1737 15.9368L51.5241 13.2251C51.5241 13.2251 51.236 12.8612 50.7103 12.3955L50.6597 12.3877L49.6473 14.6416C49.2501 15.5181 48.0508 15.3342 48.0508 15.3342L49.0904 15.6668C49.0904 15.6668 49.289 15.7176 49.6784 15.7763C50.6091 15.9485 51.1737 15.9368 51.1737 15.9368Z" fill="url(#paint10_linear_440_20655)"/>
<path opacity="0.78" d="M51.6656 13.186L53.4762 13.5304L55.3258 15.9173C55.3258 15.9173 52.2613 14.7512 51.5254 14.266L51.6656 13.186Z" fill="url(#paint11_linear_440_20655)"/>
<path opacity="0.65" d="M48.1296 24.502C48.1296 24.502 47.5222 27.4836 44.0566 27.4836C44.0566 27.4836 46.5292 27.151 48.1296 24.502Z" fill="url(#paint12_radial_440_20655)"/>
<path d="M43.7207 22.5652C43.7207 22.5652 44.8772 20.9452 47.0967 22.0839C47.0967 22.0839 45.3873 21.6965 43.7207 22.5652Z" fill="url(#paint13_radial_440_20655)"/>
<path opacity="0.43" d="M47.4635 21.1291C47.6193 20.6908 49.3365 17.5722 46.3771 16.144C44.5859 15.2792 43.4684 15.7801 42.8687 16.3044C42.3898 16.6409 42.2379 16.2888 42.2379 16.2888C42.0588 15.5492 41.5565 15.1462 41.1632 14.9505C40.6531 14.7001 39.7614 14.7784 39.0722 16.1909C38.383 17.6035 38.2857 19.4504 38.2857 19.4504L38.0092 19.4857C37.1837 19.5991 36.5023 20.8161 36.5023 20.8161C36.4205 20.6869 35.7196 20.1978 35.447 20.8121C35.1745 21.4226 35.8092 22.1113 35.8092 22.1113C35.373 21.896 35.1472 22.303 35.1472 22.303C34.7773 23.2382 35.9727 23.3673 35.9727 23.3673C37.3667 26.7794 40.9452 27.4798 40.9452 27.4798C46.4745 28.7907 47.8802 26.3803 48.4487 24.5647C49.0133 22.753 47.4635 21.1291 47.4635 21.1291Z" fill="url(#paint14_radial_440_20655)"/>
<path d="M45.4818 17.2238C45.2715 16.9498 45.0223 16.8716 44.812 16.8677C44.4071 16.8677 44.2435 17.0829 44.2046 17.1416C44.1968 17.1572 44.189 17.1729 44.1812 17.1885C44.0956 17.4429 44.2903 17.572 44.4188 17.4507C44.5044 17.3724 44.6524 17.3059 44.8043 17.2864C44.8977 17.2824 45.1352 17.2981 45.2949 17.5094C45.3027 17.5172 45.3105 17.5251 45.3183 17.5368C45.326 17.5485 45.3338 17.5603 45.3416 17.5681C45.4234 17.6777 45.4857 17.7872 45.5052 17.8068C45.5441 17.8498 45.5869 17.795 45.5869 17.795C45.6298 17.5524 45.5791 17.3685 45.4818 17.2238Z" fill="#603A17"/>
<path d="M40.2706 16.1205C40.5314 15.9483 40.7534 15.9679 40.9169 16.0462C41.2285 16.1988 41.2713 16.457 41.2791 16.5275C41.2791 16.547 41.283 16.5627 41.2791 16.5783C41.2518 16.8405 41.0532 16.8914 40.9987 16.7309C40.9637 16.6253 40.8741 16.5118 40.7651 16.4335C40.695 16.3944 40.5081 16.3162 40.3056 16.4531C40.2978 16.457 40.2861 16.4649 40.2783 16.4688C40.2706 16.4766 40.2589 16.4844 40.2511 16.4883C40.146 16.5588 40.0603 16.6331 40.0369 16.6448C39.9902 16.6683 39.9785 16.6018 39.9785 16.6018C40.033 16.3631 40.1382 16.2144 40.2706 16.1205Z" fill="#603A17"/>
<path d="M45.6021 20.6438C45.2555 21.536 44.3872 22.0251 43.6591 21.7434C42.9348 21.4577 42.6233 20.5069 42.9698 19.6186C43.3164 18.7265 44.1847 18.2374 44.9129 18.5191C45.6371 18.8008 45.9487 19.7517 45.6021 20.6438Z" fill="url(#paint15_radial_440_20655)"/>
<path opacity="0.13" d="M45.673 20.6402C45.3031 21.5833 44.3803 22.1037 43.6093 21.8063C42.8383 21.5089 42.5151 20.4994 42.8811 19.5564C43.2471 18.6133 44.1739 18.0929 44.9449 18.3903C45.7159 18.6916 46.0429 19.6972 45.673 20.6402Z" fill="url(#paint16_linear_440_20655)"/>
<path opacity="0.13" d="M41.252 19.478C40.8509 20.2254 40.0722 20.4915 39.5192 20.0806C38.9624 19.6658 38.8378 18.7228 39.2389 17.9793C39.6399 17.232 40.4148 16.962 40.9716 17.3768C41.5285 17.7876 41.6531 18.7306 41.252 19.478Z" fill="url(#paint17_linear_440_20655)"/>
<path d="M41.3616 18.9932C41.1825 19.8071 40.5361 20.3667 39.9209 20.2375C39.3018 20.1084 38.9474 19.3454 39.1265 18.5315C39.3057 17.7137 39.952 17.158 40.5673 17.2832C41.1825 17.4163 41.5407 18.1793 41.3616 18.9932Z" fill="url(#paint18_radial_440_20655)"/>
<path d="M41.046 19.2042C40.9136 19.5916 40.5671 19.8225 40.2711 19.7168C39.9752 19.6151 39.8428 19.216 39.9752 18.8325C40.1076 18.4451 40.4541 18.2143 40.7501 18.316C41.046 18.4217 41.1784 18.8169 41.046 19.2042Z" fill="url(#paint19_radial_440_20655)"/>
<path d="M40.89 19.2196C40.7887 19.513 40.5356 19.693 40.3176 19.6187C40.1034 19.5444 40.01 19.2431 40.1112 18.9496C40.2086 18.6561 40.4655 18.4761 40.6836 18.5505C40.8939 18.6248 40.9912 18.9222 40.89 19.2196Z" fill="#341718"/>
<path d="M40.4271 18.7974C40.3765 18.8952 40.2714 18.9382 40.1935 18.8952C40.1156 18.8522 40.0884 18.7387 40.139 18.6409C40.1896 18.543 40.2947 18.5 40.3765 18.543C40.4544 18.5822 40.4778 18.6956 40.4271 18.7974Z" fill="white"/>
<path d="M40.7727 19.5093C40.7338 19.5875 40.6559 19.6227 40.5975 19.5914C40.5391 19.5601 40.5235 19.4701 40.5624 19.3958C40.6014 19.3175 40.6793 19.2823 40.7416 19.3136C40.8 19.3449 40.8116 19.431 40.7727 19.5093Z" fill="white"/>
<path d="M41.8716 22.4793C41.9884 22.3033 42.1519 21.998 41.965 21.9159C41.782 21.8337 41.5445 22.1311 41.4121 22.3306L41.8716 22.4793Z" fill="#603A17"/>
<path d="M40.2402 21.943C40.248 21.7317 40.2948 21.3874 40.4972 21.4304C40.6958 21.4696 40.7114 21.857 40.7036 22.0917L40.2402 21.943Z" fill="#603A17"/>
<path d="M45.6021 20.6438C45.2555 21.536 44.3872 22.0251 43.6591 21.7434C42.9348 21.4577 42.6233 20.5069 42.9698 19.6186C43.3164 18.7265 44.1847 18.2374 44.9129 18.5191C45.6371 18.8008 45.9487 19.7517 45.6021 20.6438Z" fill="url(#paint20_radial_440_20655)"/>
<path d="M45.1863 20.8123C44.9644 21.2231 44.5088 21.411 44.1662 21.2231C43.8235 21.0431 43.7261 20.5579 43.952 20.1471C44.1739 19.7362 44.6295 19.5484 44.9683 19.7323C45.311 19.9201 45.4083 20.4014 45.1863 20.8123Z" fill="url(#paint21_radial_440_20655)"/>
<path d="M45.0616 20.7731C44.898 21.0783 44.5593 21.2192 44.3023 21.0822C44.0492 20.9453 43.9752 20.5892 44.1426 20.2801C44.3062 19.9748 44.6488 19.834 44.9019 19.9709C45.155 20.1079 45.2251 20.4679 45.0616 20.7731Z" fill="#341718"/>
<path d="M44.5046 20.2057C44.4306 20.3074 44.2943 20.3348 44.2047 20.2683C44.1152 20.2018 44.1035 20.0648 44.1775 19.9631C44.2515 19.8653 44.3877 19.834 44.4773 19.9044C44.5669 19.9709 44.5785 20.1079 44.5046 20.2057Z" fill="white"/>
<path d="M44.8118 21.1016C44.7495 21.1798 44.6522 21.2033 44.586 21.1524C44.5198 21.1016 44.5159 20.9998 44.5743 20.9216C44.6327 20.8433 44.7339 20.8198 44.8001 20.8707C44.8663 20.9177 44.8702 21.0233 44.8118 21.1016Z" fill="white"/>
<path d="M55.7107 16.1949C55.7107 16.1949 51.661 10.8498 50.9796 10.122C50.9796 10.122 50.6876 9.75023 50.3683 9.65632C50.0529 9.56241 42.9504 7.64115 42.1016 7.62158C42.1016 7.62158 43.4255 9.28068 45.5866 10.9124L43.7487 11.9415C43.7487 11.9415 44.3834 13.7884 46.8716 14.888C49.3559 15.9875 51.1665 15.9405 51.1665 15.9405L51.3729 14.3558C52.8136 15.064 54.2388 15.6745 55.7107 16.1949Z" fill="url(#paint22_radial_440_20655)"/>
<path opacity="0.43" d="M52.206 22.2249C52.206 22.2249 51.8672 22.0214 52.1047 21.634C52.3422 21.2427 52.7355 20.9062 52.4162 20.7223C52.0969 20.5423 51.1624 20.5932 52.0813 19.748C53.0042 18.9028 54.9745 18.5271 55.3405 19.6071C55.7065 20.6832 53.7012 23.0583 52.206 22.2249Z" fill="url(#paint23_linear_440_20655)"/>
<path opacity="0.9" d="M40.011 20.7846C39.2595 19.8416 38.8896 19.8142 38.3951 19.6655L37.9512 19.8807C38.9675 19.8103 40.011 20.7846 40.011 20.7846Z" fill="url(#paint24_linear_440_20655)"/>
<path opacity="0.42" d="M50.8434 23.7823C50.8279 23.8841 50.8201 24.0563 50.7461 24.1971C52.5451 24.4006 53.7522 23.4263 53.7522 23.4263C52.7047 23.7863 51.6689 23.8254 50.8434 23.7823Z" fill="url(#paint25_linear_440_20655)"/>
<path opacity="0.27" d="M36.1094 22.4321C36.1094 22.4321 39.2517 26.036 43.3364 24.9834C43.3364 24.9834 39.205 25.1321 36.1094 22.4321Z" fill="url(#paint26_linear_440_20655)"/>
<path d="M52.7285 12.3013C52.6312 13.5417 52.6117 14.8995 52.9388 15.5921L53.2581 15.6508C53.2581 15.6508 52.8531 15.0443 52.9972 12.6378L52.7285 12.3013Z" fill="url(#paint27_linear_440_20655)"/>
<path d="M52.81 16.8483L52.6504 15.827C52.6504 15.827 52.701 15.6001 52.8023 15.5649C52.9035 15.5297 53.1916 15.3379 53.1916 15.3379C53.1916 15.3379 53.437 15.2597 53.507 15.4162C53.581 15.5727 53.9977 16.2496 53.9977 16.2496C53.9977 16.2496 54.0094 16.4257 53.912 16.4805C53.8186 16.5353 52.9191 17.0048 52.81 16.8483Z" fill="url(#paint28_linear_440_20655)"/>
<path d="M52.9273 16.8913L52.8066 18.2961C52.8066 18.2961 53.3557 18.523 53.8775 18.3352C54.3992 18.1435 54.7497 17.85 54.703 17.7404C54.6562 17.6309 53.9164 16.4844 53.9164 16.4844L52.9273 16.8913Z" fill="url(#paint29_linear_440_20655)"/>
<path d="M52.7908 15.5962L53.3087 16.594L52.8765 16.7779L52.7324 15.7684L52.7908 15.5962Z" fill="url(#paint30_linear_440_20655)"/>
<path d="M53.207 18.3742L53.2304 18.3938C53.2966 18.4016 53.3628 18.4055 53.4329 18.4055L53.2109 16.9773L53.207 18.3742ZM53.7327 18.3703C53.7794 18.3586 53.8262 18.3507 53.8729 18.3312C53.9079 18.3155 53.943 18.3038 53.978 18.2881L53.9936 18.2568L53.4095 16.9812L53.7327 18.3703ZM53.9235 16.8325L54.4219 17.9595L54.4336 18.0495C54.5232 17.9868 54.5894 17.9321 54.6361 17.8773L53.9235 16.8325ZM54.1532 18.2099C54.2311 18.1708 54.3051 18.1316 54.3674 18.0925L53.6821 16.9656L54.1532 18.2099Z" fill="url(#paint31_radial_440_20655)"/>
<path opacity="0.88" d="M52.7794 12.3643C52.7794 12.3643 52.6353 13.9881 52.8144 14.6768C52.8144 14.6768 52.7755 13.0138 52.8612 12.4856L52.7794 12.3643Z" fill="url(#paint32_linear_440_20655)"/>
<path opacity="0.43" d="M54.6986 17.7366C54.6518 17.627 53.912 16.4805 53.912 16.4805C54.0055 16.4257 53.9977 16.2496 53.9977 16.2496C53.9977 16.2496 53.5771 15.5727 53.507 15.4162C53.4331 15.2597 53.1916 15.3379 53.1916 15.3379C53.1916 15.3379 52.9074 15.5297 52.8023 15.5649C52.701 15.6001 52.6504 15.827 52.6504 15.827L52.81 16.8483C52.8334 16.8796 52.8879 16.8835 52.9658 16.8718L52.9269 16.8875L52.8061 18.2922C52.8061 18.2922 53.3552 18.5192 53.877 18.3313C54.3948 18.1396 54.7453 17.8461 54.6986 17.7366Z" fill="url(#paint33_radial_440_20655)"/>
<path d="M46.3256 24.2285C44.3787 25.0345 42.5057 25.0384 40.882 24.6902C40.6133 24.6315 40.3563 24.5611 40.1032 24.4867C39.6905 24.3654 39.3128 24.2285 38.9623 24.0876C38.9584 24.0837 38.9545 24.0837 38.9506 24.0837C38.7949 24.0211 38.6469 23.9545 38.5028 23.888C38.4717 23.8724 38.4405 23.8606 38.4094 23.845C36.957 23.1641 36.1081 22.4011 35.7343 22.0098C35.7187 21.9981 35.7109 21.9902 35.7109 21.9902C35.7109 21.9902 36.5325 23.1211 38.5379 24.0641C38.569 24.0798 38.6002 24.0915 38.6274 24.1071C38.7676 24.1737 38.9117 24.2363 39.0675 24.2989C39.0713 24.2989 39.0752 24.3028 39.0791 24.3028C39.4218 24.4437 39.7917 24.5767 40.1928 24.698C40.442 24.7684 40.6912 24.8389 40.9521 24.8937C42.5369 25.2302 44.367 25.2145 46.2789 24.3967C46.349 24.3654 46.384 24.2832 46.3529 24.2128C46.3451 24.2167 46.3373 24.2245 46.3256 24.2285Z" fill="#603A17"/>
<path d="M46.3313 23.6216C46.3313 23.6216 45.7317 24.4942 46.8726 24.7446C46.8765 24.7446 46.1288 24.3768 46.3313 23.6216Z" fill="#603A17"/>
<path d="M67.1774 41.5315C67.1774 41.6254 67.1034 41.6958 67.0139 41.6958C66.9243 41.6958 66.8542 41.6215 66.8542 41.5315V40.5806H66.6167C66.531 40.5806 66.4648 40.5141 66.4648 40.4241C66.4648 40.338 66.531 40.2715 66.6167 40.2715H67.415C67.5006 40.2715 67.5668 40.338 67.5668 40.4241C67.5668 40.5141 67.5006 40.5806 67.415 40.5806H67.1774V41.5315Z" fill="#4E4C50"/>
<path d="M68.1313 41.3006L67.9716 41.0423V41.5354C67.9716 41.6254 67.9016 41.6958 67.812 41.6958C67.7224 41.6958 67.6523 41.6215 67.6523 41.5354V40.3928C67.6523 40.3263 67.703 40.2715 67.7731 40.2715C67.8159 40.2715 67.8548 40.295 67.8743 40.3302L68.3182 41.058L68.7621 40.3302C68.7855 40.295 68.8205 40.2715 68.8672 40.2715C68.9334 40.2715 68.9879 40.3263 68.9879 40.3928V41.5354C68.9879 41.6254 68.9179 41.6958 68.8283 41.6958C68.7387 41.6958 68.6686 41.6215 68.6686 41.5354V41.0423L68.509 41.3006C68.4701 41.3671 68.4 41.4102 68.3221 41.4102C68.2403 41.4102 68.1741 41.3632 68.1313 41.3006Z" fill="#4E4C50"/>
<path d="M31.3971 39.2028C31.3893 39.1676 31.3815 39.1324 31.3737 39.1011C31.3698 39.0894 31.3659 39.0776 31.3621 39.0659C31.3543 39.0502 31.3465 39.0307 31.3426 39.015C31.3231 38.9759 31.3036 38.9407 31.2842 38.9054C31.2842 38.9054 31.2803 38.9015 31.2764 38.8937C31.253 38.8585 31.2336 38.8311 31.2141 38.8076C31.2102 38.8037 31.2063 38.7959 31.2024 38.792C31.1985 38.7881 31.1985 38.7841 31.1946 38.7802C31.1907 38.7763 31.1868 38.7724 31.1868 38.7685C31.0233 38.5376 30.6845 38.0602 30.4976 37.7276C30.4937 37.7198 30.4859 37.7081 30.482 37.7003C30.4781 37.6885 30.4704 37.6807 30.4665 37.6729C30.3146 37.3911 30.2017 37.1642 30.2017 37.1642C30.1783 37.1133 30.155 37.0585 30.1316 37.0077C29.9525 36.6125 29.8045 36.2329 29.6877 35.8807C29.3801 34.8986 29.162 33.3686 29.162 33.3686C29.1387 33.169 29.1231 33.0243 29.1192 32.9851C29.0997 32.813 29.0725 32.6486 29.0413 32.496C28.8349 31.4552 28.4144 30.8878 27.7563 30.7665C27.6823 30.7547 27.6045 30.7469 27.5305 30.7469C26.9814 30.7469 26.4402 31.1226 25.9184 31.8699C25.455 32.5391 24.9566 33.756 24.7035 34.4212L24.0182 36.2446C23.9948 36.3033 23.9325 36.4755 23.7846 36.4755C23.7145 36.4755 23.6132 36.4325 23.5432 36.2212C23.4614 35.9277 23.3952 35.6381 23.3524 35.3799C23.3485 35.3642 23.0447 33.5603 22.5658 30.4182C22.301 28.673 21.6313 27.7339 20.5877 27.7065C19.2287 27.7065 18.1657 29.5065 17.4259 33.0517C16.2772 38.5611 17.6673 42.1102 17.7257 42.2589C17.8464 42.5602 18.1229 42.7715 18.4461 42.8067C18.4772 42.8106 18.5123 42.8106 18.5434 42.8106C18.6563 42.8106 18.7693 42.7871 18.8744 42.748C19.3222 42.5641 19.5403 42.0476 19.3611 41.5937C19.3495 41.5624 18.119 38.3498 19.1509 33.4156C19.5364 31.5726 19.953 30.5708 20.2411 30.0465C20.3035 29.9526 20.3774 29.9017 20.4592 29.9017C20.6227 29.9017 20.6889 30.0895 20.7162 30.1639C20.7512 30.3087 20.7863 30.4808 20.8174 30.6843C21.2964 33.8264 21.6079 35.6577 21.6079 35.6733C21.8493 37.1016 22.3906 38.8311 23.586 38.9563C23.6327 38.9602 23.6755 38.9641 23.7223 38.9641C24.8593 38.9641 25.4434 37.442 25.6614 36.8707L26.3701 34.9807C26.5843 34.4212 26.8179 33.9164 26.9737 33.5877C27.0476 33.439 27.1255 33.3686 27.2112 33.3686C27.3202 33.3686 27.3825 33.4586 27.402 33.6386C27.4098 33.7247 27.4176 33.8147 27.4215 33.9125L27.4253 33.9555C27.4331 34.0416 27.5967 35.5677 28.3871 37.4263C28.3988 37.4577 28.4105 37.485 28.4183 37.5163C28.4183 37.5203 28.4183 37.5203 28.4222 37.5242C28.4845 37.669 28.5701 37.8646 28.6714 38.0876C28.9751 38.7333 29.4463 39.6802 29.9564 40.0715H29.9603C30.0226 40.1185 30.0849 40.1615 30.1472 40.1928C30.2562 40.2437 30.3808 40.2711 30.5093 40.2711C31.0077 40.2711 31.4127 39.8641 31.4127 39.3633C31.4127 39.3202 31.4088 39.2733 31.401 39.2302C31.401 39.2224 31.3971 39.2107 31.3971 39.2028ZM35.0768 32.7699C33.0131 32.7699 31.3426 34.4486 31.3426 36.5225C31.3426 38.5963 33.0169 40.275 35.0768 40.275C37.1406 40.275 38.811 38.5963 38.811 36.5225C38.8149 34.4525 37.1406 32.7699 35.0768 32.7699ZM36.6577 37.1368C36.1048 37.8176 35.4195 38.2598 35.0807 38.4594C34.738 38.2637 34.0566 37.8176 33.5037 37.1368C32.7327 36.1899 33.2 35.0903 34.006 35.106C34.7614 35.1216 35.0807 35.8612 35.0807 35.8612C35.0807 35.8612 35.0807 35.8612 35.0807 35.8572C35.0807 35.8612 35.0807 35.8612 35.0807 35.8612C35.0807 35.8612 35.4039 35.1216 36.1554 35.106C36.9614 35.0903 37.4287 36.1899 36.6577 37.1368ZM60.4065 38.4085C60.3987 38.1502 60.2935 37.9116 60.1066 37.7316C59.982 37.6142 59.8302 37.532 59.6666 37.4929C59.6004 37.4772 59.5264 37.4694 59.4564 37.4694C59.1916 37.4694 58.9385 37.579 58.7632 37.7746C58.4245 38.1385 57.9494 38.3459 57.4588 38.3459C57.3303 38.3459 57.1979 38.3302 57.0655 38.3029C56.6021 38.1933 56.205 37.9076 55.9519 37.4968C55.6988 37.0859 55.617 36.6007 55.7221 36.1272C55.9051 35.3094 56.6372 34.7147 57.4627 34.7147C57.599 34.7147 57.7314 34.7303 57.8599 34.7616C58.0857 34.8125 58.3077 34.9142 58.5179 35.0668C58.5724 35.1177 58.7438 35.2938 58.6854 35.466C58.6075 35.6968 58.1675 35.8377 57.3926 35.8807L57.3614 35.8846L57.2797 35.9042C57.0032 35.9786 56.8085 36.2329 56.8085 36.5225C56.8085 36.8629 57.0694 37.1446 57.4004 37.1642H57.416L57.5094 37.1603C57.6379 37.1524 60.6985 36.9529 60.7569 35.5599V35.4973C60.7803 35.2273 60.7452 34.9573 60.6518 34.7068C60.6401 34.6716 60.6284 34.6364 60.6128 34.6051L60.5622 34.5112C60.5583 34.4995 60.5505 34.4877 60.535 34.4603C60.4921 34.386 60.4571 34.3312 60.4298 34.2999L60.3909 34.2608C59.8652 33.5603 59.1176 33.0673 58.2765 32.8717C58.0117 32.8091 57.7353 32.7777 57.4588 32.7777C55.7533 32.7777 54.2425 34.0064 53.8648 35.6968C53.6467 36.6711 53.8141 37.6768 54.3398 38.5259C54.8655 39.375 55.6793 39.9659 56.6411 40.185C56.9098 40.2476 57.1823 40.2789 57.4549 40.2789C58.4712 40.2789 59.4525 39.8485 60.1456 39.0972C60.3247 38.9133 60.4142 38.6668 60.4065 38.4085ZM68.1708 32.7973C68.1319 32.7934 68.0969 32.7895 68.0346 32.7934C68.0268 32.7934 68.0229 32.7934 68.0151 32.7934C67.5634 32.813 67.1935 33.1573 67.1351 33.6151C67.1078 33.8069 66.8391 35.5481 65.4646 37.399L65.2855 37.6298L65.1375 37.7668L65.0752 37.5711C64.7131 36.4364 64.0122 34.746 62.7428 33.1377C62.5676 32.9147 62.3028 32.7895 62.0185 32.7895C61.8121 32.7895 61.6213 32.8599 61.4578 32.989C61.267 33.1417 61.1463 33.3608 61.119 33.6034C61.0918 33.846 61.158 34.0886 61.3098 34.2803C62.9531 36.3581 63.4826 38.6198 63.541 38.8781L63.6072 39.2928L63.3347 39.5002L63.2607 39.5628L63.249 39.555C61.9173 40.5137 60.313 41.218 58.4712 41.6406C58.2298 41.6954 58.0234 41.8441 57.891 42.0554C57.7586 42.2667 57.7158 42.5171 57.7703 42.7597C57.8677 43.1901 58.2454 43.4875 58.6815 43.4836H58.7165C58.771 43.4797 58.8255 43.4758 58.8801 43.4601C67.9956 41.355 68.934 34.1355 68.9691 33.8303C69.0392 33.3216 68.677 32.8599 68.1708 32.7973ZM50.7341 36.2212L50.8353 36.1272C51.5518 35.4581 52.3189 34.8907 53.1093 34.4486C53.5493 34.2021 53.709 33.6386 53.4637 33.2003C53.3001 32.9108 52.9964 32.7308 52.6654 32.7308C52.5097 32.7308 52.3578 32.7699 52.2215 32.8482C51.1741 33.4351 50.1811 34.1942 49.27 35.0981L49.2544 35.1177L49.231 35.1255L49.0441 35.2194V33.7286C49.0441 33.2121 48.6275 32.7934 48.1135 32.7934C47.5995 32.7934 47.1829 33.2121 47.1829 33.7286V39.3398C47.1829 39.8524 47.5995 40.275 48.1135 40.275C48.6275 40.275 49.0441 39.8563 49.0441 39.3398V37.6063L49.0636 37.5281L49.1142 37.489L49.196 37.442H49.231C49.2856 37.442 49.344 37.4694 49.3985 37.5242L52.6343 40.588C52.8095 40.7524 53.0354 40.8424 53.2729 40.8424C53.526 40.8424 53.7752 40.7367 53.9504 40.5489C54.1217 40.3689 54.2074 40.1302 54.2035 39.8798C54.1957 39.6293 54.0906 39.3985 53.9115 39.2263L50.7341 36.2212ZM45.2515 32.7895C44.7414 32.7895 44.3209 33.2082 44.3209 33.7247V37.2972L44.0794 36.9059C43.472 35.9199 42.4051 34.1903 42.0663 33.6973C41.9145 33.4703 41.4511 32.7856 40.7735 32.7856C40.6645 32.7856 40.5594 32.8012 40.4542 32.8364C39.5859 33.1025 39.582 34.1395 39.5781 34.8007L39.5703 39.332C39.5703 39.8446 39.987 40.2672 40.501 40.2672C41.015 40.2672 41.4316 39.8485 41.4316 39.332V36.1664L41.673 36.5538C42.3622 37.6611 43.1099 38.8859 43.1293 38.9172C43.6784 39.8054 44.2819 40.2711 44.8738 40.2711C44.975 40.2711 45.0763 40.2554 45.1814 40.228C45.8161 40.0519 46.1471 39.4533 46.1782 38.4476V33.7247C46.1821 33.2082 45.7616 32.7895 45.2515 32.7895Z" fill="#EE202E"/>
<path d="M10.5107 28.7828C10.172 28.3798 5.88872 25.852 3.95347 25.4176C3.95347 25.4176 5.59668 26.5602 7.09972 27.9885C8.23673 29.0645 9.86826 30.0584 10.4796 29.8197C10.6159 29.7689 10.5458 29.7297 10.6081 29.6632C9.63463 28.9784 5.89262 26.4272 5.89262 26.4272L10.8495 29.495C10.8962 29.2837 10.721 29.0371 10.5107 28.7828ZM10.9858 31.0327C10.7016 32.144 9.68914 36.3818 9.68914 36.3818L10.7288 30.8919C10.5069 30.931 10.3355 31.1814 10.172 31.4632C9.91109 31.9171 9.13621 36.6126 9.47498 38.4556C9.47498 38.4556 9.94224 36.5852 10.7405 34.7227C11.344 33.314 11.6672 31.514 11.1922 31.0797C11.0831 30.9858 11.0715 31.0601 10.9858 31.0327ZM10.5263 30.3832L4.87242 32.6684L10.3628 30.1054C9.97729 30.0154 8.87922 29.9371 6.86998 31.0993C4.29223 32.5901 2.83203 33.6779 2.83203 33.6779C2.83203 33.6779 4.82959 32.9227 6.48448 32.3905C8.0615 31.8819 10.7872 30.8762 10.5263 30.3832ZM20.1481 23.5707C20.1481 23.0816 19.8015 22.839 19.3031 22.839C18.9332 22.839 18.8475 22.6864 18.6528 22.8703C18.976 23.3164 19.2564 23.9151 19.1513 24.5177C18.5866 27.7067 17.2627 28.325 15.6039 33.5644C12.5317 27.605 13.6804 22.3929 10.3589 22.2325C9.77481 22.2051 8.66895 22.7255 8.447 22.8938C8.447 22.8938 9.2102 23.6059 10.5536 27.5815V27.5854C10.8534 28.3758 11.0637 28.9471 11.3207 29.7415C11.3285 29.7415 11.3947 29.9762 11.4024 29.9762C12.2202 30.078 13.583 29.4402 13.583 29.4402C13.1936 30.1328 11.8113 30.4184 11.5076 30.4145C12.372 33.0871 13.0807 35.5014 14.0308 36.7731C14.0736 36.777 14.1243 36.7809 14.1827 36.7887C15.0004 36.8905 15.8726 36.0961 15.8726 36.0961C15.6585 36.9726 14.6811 37.1291 14.3423 37.1409C14.6733 37.4696 15.0315 37.6535 15.4365 37.6535C15.6078 37.6535 15.8493 37.6144 16.0634 37.4891C16.0401 37.3678 16.0556 37.2426 16.0206 37.0822C15.1795 33.2631 20.1481 25.7855 20.1481 23.5707Z" fill="#663695"/>
<defs>
<radialGradient id="paint0_radial_440_20655" cx="0" cy="0" r="1" gradientUnits="userSpaceOnUse" gradientTransform="translate(36.4282 16.5397) rotate(85.3883) scale(2.81881 1.6607)">
<stop offset="0.3939" stop-color="white"/>
<stop offset="0.4187" stop-color="#FFFAF6"/>
<stop offset="0.567" stop-color="#FEEBD9"/>
<stop offset="0.7146" stop-color="#FDE1C6"/>
<stop offset="0.8598" stop-color="#FDDBBB"/>
<stop offset="1" stop-color="#FCD9B7"/>
</radialGradient>
<linearGradient id="paint1_linear_440_20655" x1="31.1187" y1="15.0997" x2="39.0315" y2="17.4757" gradientUnits="userSpaceOnUse">
<stop offset="0.635" stop-color="white" stop-opacity="0"/>
<stop offset="0.6659" stop-color="#FFF1E9" stop-opacity="0.0893"/>
<stop offset="0.7256" stop-color="#FDD5C0" stop-opacity="0.2616"/>
<stop offset="0.8072" stop-color="#F9AA85" stop-opacity="0.4972"/>
<stop offset="0.8606" stop-color="#F68D62" stop-opacity="0.6512"/>
<stop offset="0.8954" stop-color="#DC7B4D" stop-opacity="0.7259"/>
<stop offset="0.9329" stop-color="#CC703E" stop-opacity="0.8063"/>
<stop offset="0.9685" stop-color="#C26A36" stop-opacity="0.8826"/>
<stop offset="1" stop-color="#BF6834" stop-opacity="0.95"/>
</linearGradient>
<linearGradient id="paint2_linear_440_20655" x1="50.6969" y1="23.003" x2="48.3511" y2="25.9452" gradientUnits="userSpaceOnUse">
<stop stop-color="#A91F27"/>
<stop offset="0.1913" stop-color="#AE1F27"/>
<stop offset="0.3892" stop-color="#BC2028"/>
<stop offset="0.5791" stop-color="#D42029"/>
<stop offset="0.7394" stop-color="#EB2227"/>
</linearGradient>
<radialGradient id="paint3_radial_440_20655" cx="0" cy="0" r="1" gradientUnits="userSpaceOnUse" gradientTransform="translate(39.4091 11.6042) rotate(16.8691) scale(9.22725 9.26489)">
<stop stop-color="white"/>
<stop offset="0.1049" stop-color="#FCD4C4"/>
<stop offset="0.2345" stop-color="#F7A990"/>
<stop offset="0.3658" stop-color="#F3876B"/>
<stop offset="0.4961" stop-color="#F06A50"/>
<stop offset="0.6254" stop-color="#EE503B"/>
<stop offset="0.7531" stop-color="#EC3A2F"/>
<stop offset="0.8788" stop-color="#EB2929"/>
<stop offset="1" stop-color="#EB2227"/>
</radialGradient>
<radialGradient id="paint4_radial_440_20655" cx="0" cy="0" r="1" gradientUnits="userSpaceOnUse" gradientTransform="translate(39.4779 19.4076) rotate(16.8691) scale(7.76682 7.7985)">
<stop offset="0.3939" stop-color="white"/>
<stop offset="0.4187" stop-color="#FFFAF6"/>
<stop offset="0.567" stop-color="#FEEBD9"/>
<stop offset="0.7146" stop-color="#FDE1C6"/>
<stop offset="0.8598" stop-color="#FDDBBB"/>
<stop offset="1" stop-color="#FCD9B7"/>
</radialGradient>
<linearGradient id="paint5_linear_440_20655" x1="51.8195" y1="17.6319" x2="48.8755" y2="17.1665" gradientUnits="userSpaceOnUse">
<stop stop-color="#AE1F28"/>
<stop offset="0.2066" stop-color="#B21F28"/>
<stop offset="0.4204" stop-color="#C12029"/>
<stop offset="0.5791" stop-color="#D42029"/>
<stop offset="0.7394" stop-color="#EB2227"/>
</linearGradient>
<radialGradient id="paint6_radial_440_20655" cx="0" cy="0" r="1" gradientUnits="userSpaceOnUse" gradientTransform="translate(53.3463 19.5079) rotate(16.8691) scale(4.55368 4.57225)">
<stop offset="0.3939" stop-color="white"/>
<stop offset="0.4187" stop-color="#FFFAF6"/>
<stop offset="0.567" stop-color="#FEEBD9"/>
<stop offset="0.7146" stop-color="#FDE1C6"/>
<stop offset="0.8598" stop-color="#FDDBBB"/>
<stop offset="1" stop-color="#FCD9B7"/>
</radialGradient>
<radialGradient id="paint7_radial_440_20655" cx="0" cy="0" r="1" gradientUnits="userSpaceOnUse" gradientTransform="translate(52.3548 20.1802) rotate(16.8691) scale(4.4204 4.43843)">
<stop offset="0.635" stop-color="white" stop-opacity="0"/>
<stop offset="0.6659" stop-color="#FFF1E9" stop-opacity="0.0893"/>
<stop offset="0.7256" stop-color="#FDD5C0" stop-opacity="0.2616"/>
<stop offset="0.8072" stop-color="#F9AA85" stop-opacity="0.4972"/>
<stop offset="0.8606" stop-color="#F68D62" stop-opacity="0.6512"/>
<stop offset="0.8954" stop-color="#DC7B4D" stop-opacity="0.7259"/>
<stop offset="0.9329" stop-color="#CC703E" stop-opacity="0.8063"/>
<stop offset="0.9685" stop-color="#C26A36" stop-opacity="0.8826"/>
<stop offset="1" stop-color="#BF6834" stop-opacity="0.95"/>
</radialGradient>
<linearGradient id="paint8_linear_440_20655" x1="41.7223" y1="8.504" x2="53.8854" y2="12.1564" gradientUnits="userSpaceOnUse">
<stop stop-color="#929497"/>
<stop offset="0.0471" stop-color="#8A8B8D"/>
<stop offset="0.2414" stop-color="#6E6E6F"/>
<stop offset="0.4358" stop-color="#5A595A"/>
<stop offset="0.6281" stop-color="#4C4B4C"/>
<stop offset="0.8174" stop-color="#444444"/>
<stop offset="1" stop-color="#414142"/>
</linearGradient>
<linearGradient id="paint9_linear_440_20655" x1="45.6914" y1="10.7417" x2="46.7085" y2="11.8564" gradientUnits="userSpaceOnUse">
<stop stop-color="white"/>
<stop offset="0.0432" stop-color="#E7E6E6"/>
<stop offset="0.2054" stop-color="#B3B0B1"/>
<stop offset="0.3687" stop-color="#8F8C8D"/>
<stop offset="0.5305" stop-color="#767475"/>
<stop offset="0.6906" stop-color="#656566"/>
<stop offset="0.848" stop-color="#5C5C5E"/>
<stop offset="1" stop-color="#595A5C"/>
</linearGradient>
<linearGradient id="paint10_linear_440_20655" x1="50.0057" y1="14.5247" x2="53.0521" y2="13.319" gradientUnits="userSpaceOnUse">
<stop stop-color="#414142"/>
<stop offset="0.121" stop-color="#464647"/>
<stop offset="0.4199" stop-color="#515153"/>
<stop offset="0.7151" stop-color="#57585A"/>
<stop offset="1" stop-color="#595A5C"/>
</linearGradient>
<linearGradient id="paint11_linear_440_20655" x1="54.2188" y1="15.391" x2="50.5614" y2="12.2297" gradientUnits="userSpaceOnUse">
<stop stop-color="#414142"/>
<stop offset="0.121" stop-color="#464647"/>
<stop offset="0.4199" stop-color="#515153"/>
<stop offset="0.7151" stop-color="#57585A"/>
<stop offset="1" stop-color="#595A5C"/>
</linearGradient>
<radialGradient id="paint12_radial_440_20655" cx="0" cy="0" r="1" gradientUnits="userSpaceOnUse" gradientTransform="translate(46.0143 25.9588) rotate(17.0019) scale(2.41211 2.39709)">
<stop offset="0.3939" stop-color="white"/>
<stop offset="0.4187" stop-color="#FFFAF6"/>
<stop offset="0.567" stop-color="#FEEBD9"/>
<stop offset="0.7146" stop-color="#FDE1C6"/>
<stop offset="0.8598" stop-color="#FDDBBB"/>
<stop offset="1" stop-color="#FCD9B7"/>
</radialGradient>
<radialGradient id="paint13_radial_440_20655" cx="0" cy="0" r="1" gradientUnits="userSpaceOnUse" gradientTransform="translate(45.3404 22.7727) rotate(-140.721) scale(1.84189 1.48652)">
<stop offset="0.3939" stop-color="white"/>
<stop offset="0.4187" stop-color="#FFFAF6"/>
<stop offset="0.567" stop-color="#FEEBD9"/>
<stop offset="0.7146" stop-color="#FDE1C6"/>
<stop offset="0.8598" stop-color="#FDDBBB"/>
<stop offset="1" stop-color="#FCD9B7"/>
</radialGradient>
<radialGradient id="paint14_radial_440_20655" cx="0" cy="0" r="1" gradientUnits="userSpaceOnUse" gradientTransform="translate(42.0295 21.2518) rotate(17.0019) scale(7.37438 7.4121)">
<stop offset="0.635" stop-color="white" stop-opacity="0"/>
<stop offset="0.6659" stop-color="#FFF1E9" stop-opacity="0.0893"/>
<stop offset="0.7256" stop-color="#FDD5C0" stop-opacity="0.2616"/>
<stop offset="0.8072" stop-color="#F9AA85" stop-opacity="0.4972"/>
<stop offset="0.8606" stop-color="#F68D62" stop-opacity="0.6512"/>
<stop offset="0.8954" stop-color="#DC7B4D" stop-opacity="0.7259"/>
<stop offset="0.9329" stop-color="#CC703E" stop-opacity="0.8063"/>
<stop offset="0.9685" stop-color="#C26A36" stop-opacity="0.8826"/>
<stop offset="1" stop-color="#BF6834" stop-opacity="0.95"/>
</radialGradient>
<radialGradient id="paint15_radial_440_20655" cx="0" cy="0" r="1" gradientUnits="userSpaceOnUse" gradientTransform="translate(44.4707 20.2196) rotate(16.8691) scale(1.61442 1.9029)">
<stop offset="0.8061" stop-color="white"/>
<stop offset="0.828" stop-color="#F8F8F8"/>
<stop offset="0.9154" stop-color="#EBEBEB"/>
<stop offset="1" stop-color="#E7E7E7"/>
</radialGradient>
<linearGradient id="paint16_linear_440_20655" x1="42.8434" y1="19.6586" x2="45.7207" y2="20.5139" gradientUnits="userSpaceOnUse">
<stop stop-color="#914F37"/>
<stop offset="0.162" stop-color="#93523A"/>
<stop offset="0.3298" stop-color="#9A5C42"/>
<stop offset="0.5004" stop-color="#A76C51"/>
<stop offset="0.6728" stop-color="#BA8467"/>
<stop offset="0.845" stop-color="#D6A888"/>
<stop offset="1" stop-color="#FCD9B7"/>
</linearGradient>
<linearGradient id="paint17_linear_440_20655" x1="39.1984" y1="18.0584" x2="41.4507" y2="19.0389" gradientUnits="userSpaceOnUse">
<stop stop-color="#914F37"/>
<stop offset="0.162" stop-color="#93523A"/>
<stop offset="0.3298" stop-color="#9A5C42"/>
<stop offset="0.5004" stop-color="#A76C51"/>
<stop offset="0.6728" stop-color="#BA8467"/>
<stop offset="0.845" stop-color="#D6A888"/>
<stop offset="1" stop-color="#FCD9B7"/>
</linearGradient>
<radialGradient id="paint18_radial_440_20655" cx="0" cy="0" r="1" gradientUnits="userSpaceOnUse" gradientTransform="translate(40.4156 18.822) rotate(6.8139) scale(1.30686 1.65966)">
<stop offset="0.8061" stop-color="white"/>
<stop offset="0.828" stop-color="#F8F8F8"/>
<stop offset="0.9154" stop-color="#EBEBEB"/>
<stop offset="1" stop-color="#E7E7E7"/>
</radialGradient>
<radialGradient id="paint19_radial_440_20655" cx="0" cy="0" r="1" gradientUnits="userSpaceOnUse" gradientTransform="translate(40.5323 19.0184) rotate(110.63) scale(1.001 0.690582)">
<stop offset="0.6485" stop-color="#914F37"/>
<stop offset="0.6844" stop-color="#7C4533"/>
<stop offset="0.7487" stop-color="#60352B"/>
<stop offset="0.8131" stop-color="#4D2924"/>
<stop offset="0.8768" stop-color="#3F201E"/>
<stop offset="0.9395" stop-color="#371A1A"/>
<stop offset="1" stop-color="#341718"/>
</radialGradient>
<radialGradient id="paint20_radial_440_20655" cx="0" cy="0" r="1" gradientUnits="userSpaceOnUse" gradientTransform="translate(44.4707 20.2196) rotate(16.8691) scale(1.61442 1.9029)">
<stop offset="0.8061" stop-color="white"/>
<stop offset="0.828" stop-color="#F8F8F8"/>
<stop offset="0.9154" stop-color="#EBEBEB"/>
<stop offset="1" stop-color="#E7E7E7"/>
</radialGradient>
<radialGradient id="paint21_radial_440_20655" cx="0" cy="0" r="1" gradientUnits="userSpaceOnUse" gradientTransform="translate(44.5734 20.4608) rotate(120.189) scale(1.14481 0.854552)">
<stop offset="0.6485" stop-color="#914F37"/>
<stop offset="0.6844" stop-color="#7C4533"/>
<stop offset="0.7487" stop-color="#60352B"/>
<stop offset="0.8131" stop-color="#4D2924"/>
<stop offset="0.8768" stop-color="#3F201E"/>
<stop offset="0.9395" stop-color="#371A1A"/>
<stop offset="1" stop-color="#341718"/>
</radialGradient>
<radialGradient id="paint22_radial_440_20655" cx="0" cy="0" r="1" gradientUnits="userSpaceOnUse" gradientTransform="translate(47.734 10.0912) rotate(16.8691) scale(9.09161 9.12869)">
<stop stop-color="white" stop-opacity="0"/>
<stop offset="0.1876" stop-color="#ECECEC" stop-opacity="0.142"/>
<stop offset="0.5474" stop-color="#C8C8C9" stop-opacity="0.4142"/>
<stop offset="0.8606" stop-color="#A6A8AC" stop-opacity="0.6512"/>
<stop offset="0.8713" stop-color="#909092" stop-opacity="0.6742"/>
<stop offset="0.8946" stop-color="#6B696A" stop-opacity="0.724"/>
<stop offset="0.9176" stop-color="#4F4C4D" stop-opacity="0.7734"/>
<stop offset="0.94" stop-color="#3C3839" stop-opacity="0.8214"/>
<stop offset="0.9616" stop-color="#2E2B2B" stop-opacity="0.8677"/>
<stop offset="0.982" stop-color="#262223" stop-opacity="0.9114"/>
<stop offset="1" stop-color="#231F20" stop-opacity="0.95"/>
</radialGradient>
<linearGradient id="paint23_linear_440_20655" x1="51.4527" y1="20.0281" x2="54.791" y2="21.0305" gradientUnits="userSpaceOnUse">
<stop offset="0.635" stop-color="white" stop-opacity="0"/>
<stop offset="0.6659" stop-color="#FFF1E9" stop-opacity="0.0893"/>
<stop offset="0.7256" stop-color="#FDD5C0" stop-opacity="0.2616"/>
<stop offset="0.8072" stop-color="#F9AA85" stop-opacity="0.4972"/>
<stop offset="0.8606" stop-color="#F68D62" stop-opacity="0.6512"/>
<stop offset="0.8954" stop-color="#DC7B4D" stop-opacity="0.7259"/>
<stop offset="0.9329" stop-color="#CC703E" stop-opacity="0.8063"/>
<stop offset="0.9685" stop-color="#C26A36" stop-opacity="0.8826"/>
<stop offset="1" stop-color="#BF6834" stop-opacity="0.95"/>
</linearGradient>
<linearGradient id="paint24_linear_440_20655" x1="37.9259" y1="20.0364" x2="40.0734" y2="20.3481" gradientUnits="userSpaceOnUse">
<stop offset="0.3939" stop-color="white"/>
<stop offset="0.4187" stop-color="#FFFAF6"/>
<stop offset="0.567" stop-color="#FEEBD9"/>
<stop offset="0.7146" stop-color="#FDE1C6"/>
<stop offset="0.8598" stop-color="#FDDBBB"/>
<stop offset="1" stop-color="#FCD9B7"/>
</linearGradient>
<linearGradient id="paint25_linear_440_20655" x1="52.3236" y1="23.5511" x2="51.7531" y2="24.7647" gradientUnits="userSpaceOnUse">
<stop offset="0.3939" stop-color="white"/>
<stop offset="0.4062" stop-color="#FFFAF7"/>
<stop offset="0.5273" stop-color="#FDE3D0"/>
<stop offset="0.6484" stop-color="#FCD2B5"/>
<stop offset="0.7683" stop-color="#FBC6A2"/>
<stop offset="0.8862" stop-color="#FABF97"/>
<stop offset="1" stop-color="#FABC93"/>
</linearGradient>
<linearGradient id="paint26_linear_440_20655" x1="39.5028" y1="24.3308" x2="39.1754" y2="25.2265" gradientUnits="userSpaceOnUse">
<stop stop-color="#914F37"/>
<stop offset="0.162" stop-color="#93523A"/>
<stop offset="0.3298" stop-color="#9A5C42"/>
<stop offset="0.5004" stop-color="#A76C51"/>
<stop offset="0.6728" stop-color="#BA8467"/>
<stop offset="0.845" stop-color="#D6A888"/>
<stop offset="1" stop-color="#FCD9B7"/>
</linearGradient>
<linearGradient id="paint27_linear_440_20655" x1="52.283" y1="13.7796" x2="53.6922" y2="14.2028" gradientUnits="userSpaceOnUse">
<stop stop-color="#FECF0A"/>
<stop offset="0.0671" stop-color="#FDC810"/>
<stop offset="0.3051" stop-color="#FAB31A"/>
<stop offset="0.5419" stop-color="#F8A41E"/>
<stop offset="0.775" stop-color="#F79B20"/>
<stop offset="1" stop-color="#F79820"/>
</linearGradient>
<linearGradient id="paint28_linear_440_20655" x1="53.2189" y1="16.0767" x2="54.0652" y2="15.8936" gradientUnits="userSpaceOnUse">
<stop stop-color="#FECF0A"/>
<stop offset="0.0671" stop-color="#FDC810"/>
<stop offset="0.3051" stop-color="#FAB31A"/>
<stop offset="0.5419" stop-color="#F8A41E"/>
<stop offset="0.775" stop-color="#F79B20"/>
<stop offset="1" stop-color="#F79820"/>
</linearGradient>
<linearGradient id="paint29_linear_440_20655" x1="52.8258" y1="17.227" x2="54.6986" y2="17.7893" gradientUnits="userSpaceOnUse">
<stop offset="0.00606061" stop-color="white"/>
<stop offset="0.3152" stop-color="#FECF0A"/>
<stop offset="0.3611" stop-color="#FDC810"/>
<stop offset="0.5241" stop-color="#FAB31A"/>
<stop offset="0.6863" stop-color="#F8A41E"/>
<stop offset="0.8459" stop-color="#F79B20"/>
<stop offset="1" stop-color="#F79820"/>
</linearGradient>
<linearGradient id="paint30_linear_440_20655" x1="52.7578" y1="16.1637" x2="53.511" y2="16.3899" gradientUnits="userSpaceOnUse">
<stop stop-color="white"/>
<stop offset="0.1067" stop-color="#FFF2D1"/>
<stop offset="0.236" stop-color="#FFE7A6"/>
<stop offset="0.3671" stop-color="#FFDE82"/>
<stop offset="0.4972" stop-color="#FFD761"/>
<stop offset="0.6261" stop-color="#FFD242"/>
<stop offset="0.7536" stop-color="#FFCE28"/>
<stop offset="0.8791" stop-color="#FFCC12"/>
<stop offset="1" stop-color="#FFCB09"/>
</linearGradient>
<radialGradient id="paint31_radial_440_20655" cx="0" cy="0" r="1" gradientUnits="userSpaceOnUse" gradientTransform="translate(53.3474 17.4646) rotate(16.8691) scale(2.73476 2.74592)">
<stop offset="0.103" stop-color="white"/>
<stop offset="0.1418" stop-color="#FFF2D1"/>
<stop offset="0.1888" stop-color="#FFE7A6"/>
<stop offset="0.2365" stop-color="#FFDE82"/>
<stop offset="0.2838" stop-color="#FFD761"/>
<stop offset="0.3307" stop-color="#FFD242"/>
<stop offset="0.3771" stop-color="#FFCE28"/>
<stop offset="0.4227" stop-color="#FFCC12"/>
<stop offset="0.4667" stop-color="#FFCB09"/>
</radialGradient>
<linearGradient id="paint32_linear_440_20655" x1="52.4629" y1="13.4171" x2="53.1314" y2="13.6178" gradientUnits="userSpaceOnUse">
<stop stop-color="white"/>
<stop offset="0.1067" stop-color="#FFF2D1"/>
<stop offset="0.236" stop-color="#FFE7A6"/>
<stop offset="0.3671" stop-color="#FFDE82"/>
<stop offset="0.4972" stop-color="#FFD761"/>
<stop offset="0.6261" stop-color="#FFD242"/>
<stop offset="0.7536" stop-color="#FFCE28"/>
<stop offset="0.8791" stop-color="#FFCC12"/>
<stop offset="1" stop-color="#FFCB09"/>
</linearGradient>
<radialGradient id="paint33_radial_440_20655" cx="0" cy="0" r="1" gradientUnits="userSpaceOnUse" gradientTransform="translate(52.8648 17.1016) rotate(16.8691) scale(1.62802 1.63466)">
<stop offset="0.635" stop-color="white" stop-opacity="0"/>
<stop offset="0.6565" stop-color="#FFF5EB" stop-opacity="0.0621"/>
<stop offset="0.698" stop-color="#FEE2C6" stop-opacity="0.1819"/>
<stop offset="0.7553" stop-color="#FDC48E" stop-opacity="0.3474"/>
<stop offset="0.8255" stop-color="#F99D47" stop-opacity="0.55"/>
<stop offset="0.8606" stop-color="#F68A20" stop-opacity="0.6512"/>
<stop offset="0.89" stop-color="#F47B22" stop-opacity="0.7143"/>
<stop offset="0.9295" stop-color="#F26A24" stop-opacity="0.7988"/>
<stop offset="0.9669" stop-color="#F15E24" stop-opacity="0.8791"/>
<stop offset="1" stop-color="#F15A25" stop-opacity="0.95"/>
</radialGradient>
</defs>
</svg>
