<svg id="Layer_1" data-name="Layer 1" xmlns="http://www.w3.org/2000/svg" xmlns:xlink="http://www.w3.org/1999/xlink" viewBox="0 0 1040.3 83.8"><defs><style>.cls-1{fill:none;}.cls-2{clip-path:url(#clip-path);}.cls-3{fill:#0968b0;}.cls-4{opacity:0.8;}.cls-5{fill:#3b98d3;}</style><clipPath id="clip-path"><rect id="SVGID" class="cls-1" width="1040.3" height="83.76" rx="17.2"/></clipPath></defs><title>bg-contact</title><g class="cls-2"><rect class="cls-3" x="-16.6" y="-69.7" width="1058.9" height="173.61"/><g class="cls-4"><path class="cls-5" d="M120.8,121.4V4.2C251.1,5.9,450.1,16,625.9,55.6c185.4,41.8,337.3,59,572.4-3.7v69.5c0,7-9.3,12.7-20.7,12.7H141.5C130.1,134.1,120.8,128.4,120.8,121.4Z"/></g><path class="cls-5" d="M4.4-126.3H1040.5c11.4,0,20.7,5.7,20.7,12.7V-27C913.1-33.9,783-12.8,636.9,20.1,409.5,71.3,152.3,84.4-16.3,86.7V-113.6C-16.3-120.6-7-126.3,4.4-126.3Z"/></g></svg>