<svg height="21" viewBox="0 0 29 21" width="29" xmlns="http://www.w3.org/2000/svg"><g fill="#faa918"><path d="m.9 20.06901c-.49705627 0-.9-.4029437-.9-.9v-18.2691c0-.49705627.40294373-.9.9-.9h26.55c.4970563 0 .9.40294373.9.9v18.2691c0 .4970563-.4029437.9-.9.9zm25.65-1.8v-16.4691h-24.75v16.4691z"/><path d="m11.016 7.10946c0-1.16874608-.9469587-2.1159-2.115-2.1159-1.16804133 0-2.115.94715392-2.115 2.1159 0 1.16794373.94705627 2.115 2.115 2.115 1.1679437 0 2.115-.94705627 2.115-2.115zm1.8 0c0 2.16205627-1.7529437 3.915-3.915 3.915-2.16205627 0-3.915-1.75294373-3.915-3.915 0-2.16277557 1.75276304-3.9159 3.915-3.9159 2.162237 0 3.915 1.75312443 3.915 3.9159z"/><path d="m8.90136 9.2241c3.3511764 0 5.2758 2.3208787 5.2758 5.4225 0 .4970563-.4029437.9-.9.9h-8.7525c-.49705627 0-.9-.4029437-.9-.9 0-3.1017662 1.92481128-5.4225 5.2767-5.4225zm0 1.8c-1.94475672 0-3.10476743 1.0577498-3.40093707 2.7225h6.80097757c-.2961404-1.6646929-1.4559689-2.7225-3.4000405-2.7225zm7.97607 4.52286h6.948c.4970563 0 .9-.4029437.9-.9s-.4029437-.9-.9-.9h-6.948c-.4970563 0-.9.4029437-.9.9s.4029437.9.9.9zm0-4.69953h6.948c.4970563 0 .9-.4029437.9-.9 0-.49705627-.4029437-.9-.9-.9h-6.948c-.4970563 0-.9.40294373-.9.9 0 .4970563.4029437.9.9.9zm0-4.69953h3.474c.4970563 0 .9-.40294373.9-.9s-.4029437-.9-.9-.9h-3.474c-.4970563 0-.9.40294373-.9.9s.4029437.9.9.9z"/></g></svg>