<svg id="Layer_1" data-name="Layer 1" xmlns="http://www.w3.org/2000/svg" viewBox="0 0 34.6 34.6"><defs><style>.cls-1{fill:#0968b0;}.cls-2{fill:#fffbef;}</style></defs><title>icon_contact_1</title><path class="cls-1" d="M34.6,17.3A17.3,17.3,0,1,1,17.3,0,17.2,17.2,0,0,1,34.6,17.3Zm0,0"/><path class="cls-2" d="M6.5,17.3A1.5,1.5,0,0,0,8,18.8h7.8v7.8a1.5,1.5,0,0,0,1.5,1.5,1.4,1.4,0,0,0,1.5-1.5V18.8h7.8a1.4,1.4,0,0,0,1.5-1.5,1.5,1.5,0,0,0-1.5-1.5H18.8V8a1.5,1.5,0,0,0-1.5-1.5A1.5,1.5,0,0,0,15.8,8v7.8H8a1.5,1.5,0,0,0-1.5,1.5Zm0,0"/></svg>