<svg id="Layer_1" data-name="Layer 1" xmlns="http://www.w3.org/2000/svg" viewBox="0 0 52.79 52.76"><defs><style>.cls-1{fill:#0066b2;}</style></defs><title>icon-avatar-login</title><path class="cls-1" d="M28.15,52.76H24.64l-.44-.1c-1.6-.28-3.24-.43-4.8-.85A26.35,26.35,0,0,1,.25,22.73,25.14,25.14,0,0,1,6.41,9.15,25.88,25.88,0,0,1,30,.23,24.76,24.76,0,0,1,41.89,5,26,26,0,0,1,52.48,22.38c.12.74.21,1.49.31,2.24v3.5a1.8,1.8,0,0,0-.1.4,24,24,0,0,1-2.27,8.75,26.06,26.06,0,0,1-20.09,15.2C29.61,52.59,28.88,52.67,28.15,52.76Zm-1.7-23.12h0c-1.94,0-3.89-.1-5.82,0a8.71,8.71,0,0,0-8.15,8.53,3.74,3.74,0,0,0,1.4,3.08,19.12,19.12,0,0,0,11.3,4.52A19.35,19.35,0,0,0,38.39,41.7a4.4,4.4,0,0,0,1.86-4.27,8.73,8.73,0,0,0-8-7.77C30.33,29.56,28.39,29.64,26.45,29.64Zm8.66-13a8.71,8.71,0,1,0-8.7,8.73A8.7,8.7,0,0,0,35.11,16.6Z"/></svg>