<svg id="Layer_1" data-name="Layer 1" xmlns="http://www.w3.org/2000/svg" xmlns:xlink="http://www.w3.org/1999/xlink" viewBox="0 0 48.8 48.8"><defs><style>.cls-1{fill:url(#linear-gradient);}.cls-2{fill:url(#linear-gradient-2);}.cls-3{fill:url(#linear-gradient-3);}.cls-4{fill:url(#linear-gradient-4);}</style><linearGradient id="linear-gradient" x1="0.08" y1="18.57" x2="8.68" y2="18.57" gradientUnits="userSpaceOnUse"><stop offset="0" stop-color="#efeff0"/><stop offset="1" stop-color="#fff"/></linearGradient><linearGradient id="linear-gradient-2" x1="11.53" y1="17.58" x2="38.81" y2="17.58" xlink:href="#linear-gradient"/><linearGradient id="linear-gradient-3" x1="0" y1="43.34" x2="29.69" y2="43.34" xlink:href="#linear-gradient"/><linearGradient id="linear-gradient-4" x1="27.04" y1="37.9" x2="48.76" y2="37.9" xlink:href="#linear-gradient"/></defs><title>icon-tutorial</title><path class="cls-1" d="M8.7,35.2V0H6.3A6.3,6.3,0,0,0,.1,6.3V37.1a8.2,8.2,0,0,1,5.3-1.9Zm0,0"/><path class="cls-2" d="M37.9,24.3h.9V0H11.5V35.2H24.6A13.5,13.5,0,0,1,37.9,24.3ZM20.2,8.4h9.5v2.8H20.2ZM17,14.6H33v2.8H17Zm0,0"/><path class="cls-3" d="M26.1,44.8H7.3V41.9H24.9a12.9,12.9,0,0,1-.6-4H5.4a5.5,5.5,0,0,0,0,10.9H29.7a17.2,17.2,0,0,1-3.6-4Zm0,0"/><path class="cls-4" d="M37.9,27A10.9,10.9,0,1,0,48.8,37.9,10.9,10.9,0,0,0,37.9,27Zm0,4.4a1.4,1.4,0,0,1,1.4,1.4,1.4,1.4,0,1,1-2.8,0c-.1-.7.7-1.4,1.4-1.4Zm1.4,12.1H36.5V36.2h2.8Zm0,0"/></svg>