<?xml version="1.0" encoding="utf-8"?>
<!-- Generator: Adobe Illustrator 24.0.0, SVG Export Plug-In . SVG Version: 6.00 Build 0)  -->
<svg version="1.1" id="Layer_1" xmlns="http://www.w3.org/2000/svg" xmlns:xlink="http://www.w3.org/1999/xlink" x="0px" y="0px"
	 viewBox="0 0 126 92" style="enable-background:new 0 0 126 92;" xml:space="preserve">
<style type="text/css">
	.st0{fill-rule:evenodd;clip-rule:evenodd;fill:#FFFFFF;}
	.st1{fill:none;stroke:#4C4C4C;stroke-width:1.8;stroke-linejoin:round;}
	.st2{fill-rule:evenodd;clip-rule:evenodd;fill:#F0F0F0;}
	.st3{fill-rule:evenodd;clip-rule:evenodd;fill:#E8E8E8;}
	.st4{fill:none;stroke:#4C4C4C;stroke-width:1.8;}
	.st5{fill-rule:evenodd;clip-rule:evenodd;fill:#4C4C4C;}
	.st6{fill:none;stroke:#A7A7A7;stroke-width:1.8;stroke-linecap:round;stroke-linejoin:round;}
	.st7{fill-rule:evenodd;clip-rule:evenodd;fill:#CACACA;}
	.st8{fill-rule:evenodd;clip-rule:evenodd;fill:#DDDDDD;}
	.st9{fill-rule:evenodd;clip-rule:evenodd;fill:#ff7707;}
	.st10{fill:none;stroke:#FFFFFF;stroke-width:2;stroke-linecap:round;stroke-linejoin:round;}
</style>
<g transform="translate(1 1)">
	<path class="st0" d="M31.1,84.6V35.7c0-2.5,2-4.5,4.5-4.5H112c2.5,0,4.5,2,4.5,4.5v48.9H31.1z"/>
	<path class="st1" d="M31.1,84.6V35.7c0-2.5,2-4.5,4.5-4.5H112c2.5,0,4.5,2,4.5,4.5v48.9H31.1z"/>
	<path class="st2" d="M109.8,84.8H37.7V40.2c0-1.3,1-2.3,2.3-2.3h67.4c1.3,0,2.3,1.1,2.3,2.3L109.8,84.8z"/>
	<path class="st1" d="M109.8,84.8H37.7V40.2c0-1.3,1-2.3,2.3-2.3h67.4c1.3,0,2.3,1.1,2.3,2.3L109.8,84.8z"/>
	<path class="st3" d="M75.3,34.5c0,0.8-0.7,1.5-1.5,1.5s-1.5-0.7-1.5-1.5c0-0.8,0.7-1.5,1.5-1.5S75.3,33.7,75.3,34.5"/>
	<path class="st4" d="M75.3,34.5c0,0.8-0.7,1.5-1.5,1.5s-1.5-0.7-1.5-1.5c0-0.8,0.7-1.5,1.5-1.5S75.3,33.7,75.3,34.5z"/>
	<path class="st0" d="M120,90H27.6c-2.2,0-4-1.8-4-4v-2h100.4v2C123.9,88.2,122.2,90,120,90"/>
	<path class="st1" d="M120,90H27.6c-2.2,0-4-1.8-4-4v-2h100.4v2C123.9,88.2,122.2,90,120,90z"/>
	<path class="st5" d="M82,85.9H68.1c-1.1,0-2-0.9-2-2v-0.6H84v0.6C84,85,83.1,85.9,82,85.9"/>
	<path class="st0" d="M45.4,84h56.8V0H45.4L45.4,84z"/>
	<path class="st1" d="M45.4,84h56.8V0H45.4L45.4,84z"/>
	<path class="st6" d="M65.2,25.3h28.8 M65.2,30.1h26.1"/>
	<path class="st3" d="M61.3,27.7c0,2.4-1.9,4.3-4.3,4.3c-2.3,0-4.3-1.9-4.3-4.3c0-2.4,1.9-4.3,4.3-4.3
		C59.4,23.5,61.3,25.4,61.3,27.7"/>
	<path class="st6" d="M55.2,27.8l1.1,1.1l2.4-2.4 M65.2,40.3h28.8 M65.2,45.1h26.1"/>
	<path class="st3" d="M61.3,42.7c0,2.4-1.9,4.3-4.3,4.3c-2.3,0-4.3-1.9-4.3-4.3s1.9-4.3,4.3-4.3C59.4,38.5,61.3,40.4,61.3,42.7"/>
	<path class="st6" d="M55.2,42.8l1.1,1.1l2.4-2.4 M65.2,70.3h28.8 M65.2,75.1h26.1"/>
	<path class="st3" d="M61.3,72.7c0,2.4-1.9,4.3-4.3,4.3c-2.3,0-4.3-1.9-4.3-4.3c0-2.4,1.9-4.3,4.3-4.3
		C59.4,68.5,61.3,70.4,61.3,72.7"/>
	<path class="st6" d="M55.2,72.8l1.1,1.1l2.4-2.4 M65.2,10.3h28.8 M65.2,15.1h26.1"/>
	<path class="st3" d="M61.3,12.7c0,2.4-1.9,4.3-4.3,4.3c-2.3,0-4.3-1.9-4.3-4.3c0-2.4,1.9-4.3,4.3-4.3C59.4,8.5,61.3,10.4,61.3,12.7
		"/>
	<path class="st6" d="M55.4,14.3l3.2-3.2L55.4,14.3z M55.4,11.1l3.2,3.2L55.4,11.1z M65.2,55.3h28.8 M65.2,60.1h26.1"/>
	<path class="st3" d="M61.3,57.7c0,2.4-1.9,4.3-4.3,4.3c-2.3,0-4.3-1.9-4.3-4.3c0-2.4,1.9-4.3,4.3-4.3
		C59.4,53.5,61.3,55.4,61.3,57.7"/>
	<path class="st6" d="M55.4,59.3l3.2-3.2L55.4,59.3z M55.4,56.1l3.2,3.2L55.4,56.1z"/>
	<path class="st7" d="M30.9,52l5.3-4.2l-3.3-4.2l-5.3,4.2L30.9,52z"/>
	<path class="st1" d="M30.9,52l5.3-4.2l-3.3-4.2l-5.3,4.2L30.9,52z"/>
	<path class="st5" d="M33.7,49.7l3.9-3.1l-3.3-4.2l-3.9,3.1L33.7,49.7z"/>
	<path class="st8" d="M36.5,19.5c4.1-3.2,9.1-4.6,14.2-4c5.1,0.6,9.7,3.2,12.9,7.3c3.2,4.1,4.6,9.1,4,14.2
		c-1.2,10.6-10.9,18.2-21.5,17c-5.1-0.6-9.7-3.2-12.9-7.3c-3.2-4.1-4.6-9.1-4-14.2C29.9,27.3,32.4,22.7,36.5,19.5"/>
	<path class="st1" d="M36.5,19.5c4.1-3.2,9.1-4.6,14.2-4c5.1,0.6,9.7,3.2,12.9,7.3c3.2,4.1,4.6,9.1,4,14.2
		c-1.2,10.6-10.9,18.2-21.5,17c-5.1-0.6-9.7-3.2-12.9-7.3c-3.2-4.1-4.6-9.1-4-14.2C29.9,27.3,32.4,22.7,36.5,19.5z"/>
	<path class="st0" d="M36.4,44.2c2.5,3.3,6.2,5.3,10.3,5.8c8.4,1,16-5,17-13.5c0.5-4.1-0.7-8.1-3.2-11.3c-2.5-3.2-6.2-5.3-10.3-5.8
		c-4.1-0.5-8.1,0.7-11.3,3.2c-3.2,2.5-5.3,6.2-5.7,10.3C32.7,37,33.9,41,36.4,44.2"/>
	<path class="st1" d="M36.4,44.2c2.5,3.3,6.2,5.3,10.3,5.8c8.4,1,16-5,17-13.5c0.5-4.1-0.7-8.1-3.2-11.3c-2.5-3.2-6.2-5.3-10.3-5.8
		c-4.1-0.5-8.1,0.7-11.3,3.2c-3.2,2.5-5.3,6.2-5.7,10.3C32.7,37,33.9,41,36.4,44.2z"/>
	<path class="st2" d="M2.1,66.6l4.6,5.9l24.8-19.6c0.5-0.4,0.6-1.2,0.2-1.8l-3.1-3.9c-0.4-0.5-1.2-0.6-1.8-0.2L2.1,66.6z"/>
	<path class="st1" d="M2.1,66.6l4.6,5.9l24.8-19.6c0.5-0.4,0.6-1.2,0.2-1.8l-3.1-3.9c-0.4-0.5-1.2-0.6-1.8-0.2L2.1,66.6z"/>
	<path class="st7" d="M0.6,69.4l3.1,3.9c0.4,0.5,1.2,0.6,1.7,0.2l1.3-1l-4.6-5.9l-1.3,1C0.2,68.1,0.1,68.9,0.6,69.4"/>
	<path class="st1" d="M0.6,69.4l3.1,3.9c0.4,0.5,1.2,0.6,1.7,0.2l1.3-1l-4.6-5.9l-1.3,1C0.2,68.1,0.1,68.9,0.6,69.4z"/>
	<path class="st9" d="M57,33.8c0,4.3-3.8,7.8-8.5,7.8c-4.7,0-8.5-3.5-8.5-7.8c0-4.3,3.8-7.8,8.5-7.8C53.2,26,57,29.5,57,33.8"/>
	<path class="st10" d="M45,34.6l2.2,2.4l4.8-5"/>
</g>
</svg>
