<svg id="Layer_1" data-name="Layer 1" xmlns="http://www.w3.org/2000/svg" viewBox="0 0 60 60"><defs><style>.cls-1{fill:#ff7707;}.cls-2{fill:#fff;}</style></defs><circle class="cls-1" cx="30" cy="30" r="29.91"/><path class="cls-2" d="M12.5,40.29V22.23a2.93,2.93,0,0,1,.57-1.47,3.18,3.18,0,0,1,2.46-1.25c4.48,0,9,0,13.43,0a.89.89,0,0,1,.46.07c.18.11.16.29.14.46A9.6,9.6,0,0,0,29.48,22a10.11,10.11,0,0,0,8.43,9.63,10,10,0,0,0,6.19-.88c.22-.11.43-.31.71-.14a.6.6,0,0,1,.1.45c0,3,0,5.95,0,8.92A3.34,3.34,0,0,1,42,43c-.73.07-1.46.06-2.19.06q-5.53,0-11.07,0a2.35,2.35,0,0,0-1.34.38C25,45,22.5,46.52,20.06,48.05a3.78,3.78,0,0,1-1.22.65,1.57,1.57,0,0,1-.43,0,.77.77,0,0,1-.87-.85c0-1.16,0-2.32,0-3.47v-.84c0-.44-.05-.49-.48-.49A9.68,9.68,0,0,1,14.9,43a3.44,3.44,0,0,1-2.18-1.71C12.55,41,12.61,40.6,12.5,40.29Z"/><path class="cls-1" d="M31.55,34.51h9.21c.53,0,.81.25.77.69a.56.56,0,0,1-.52.56,2.67,2.67,0,0,1-.4,0H22.12a.63.63,0,0,1,0-1.25,2.67,2.67,0,0,1,.4,0Z"/><path class="cls-1" d="M23.14,31.89H16.52a.71.71,0,0,1-.61-.18.62.62,0,0,1-.16-.61.63.63,0,0,1,.51-.46,1.51,1.51,0,0,1,.3,0c4.4,0,8.8,0,13.2,0,.47,0,.74.18.8.52a.61.61,0,0,1-.65.73H23.14Z"/><path class="cls-1" d="M21.9,26.76h5.37a.7.7,0,0,1,.66.37.6.6,0,0,1-.05.62.53.53,0,0,1-.35.25,2.12,2.12,0,0,1-.61.07H16.8a3.68,3.68,0,0,1-.58-.06.6.6,0,0,1-.49-.64.63.63,0,0,1,.58-.6,1.82,1.82,0,0,1,.33,0Z"/><path class="cls-1" d="M21.23,22.88H25.9c.5,0,.78.23.79.62s-.26.65-.74.69H16.74a2.42,2.42,0,0,1-.47,0,.63.63,0,0,1,.13-1.26h4.83Z"/><path class="cls-1" d="M18,35.77H16.41a.63.63,0,0,1-.69-.63.65.65,0,0,1,.68-.62q1.61,0,3.21,0a.65.65,0,0,1,.63.62.61.61,0,0,1-.62.63Z"/><circle class="cls-2" cx="38.91" cy="21.46" r="10.21"/><path class="cls-1" d="M38.91,32.3A10.85,10.85,0,1,1,49.76,21.46,10.85,10.85,0,0,1,38.91,32.3Zm0-20.41a9.57,9.57,0,1,0,9.57,9.57A9.57,9.57,0,0,0,38.91,11.89Z"/><path class="cls-1" d="M40.12,19.05c0,1,0,1.92,0,2.88a1.22,1.22,0,0,1-1.22,1.35,1.23,1.23,0,0,1-1.2-1.35V16a1.21,1.21,0,0,1,.89-1.2,1.22,1.22,0,0,1,1.33.49,1.28,1.28,0,0,1,.2.81Z"/><path class="cls-1" d="M40.12,26.91a1.2,1.2,0,0,1-1.22,1.21,1.21,1.21,0,0,1,0-2.42A1.2,1.2,0,0,1,40.12,26.91Z"/></svg>