<svg width="22" height="17" viewBox="0 0 22 17" fill="none" xmlns="http://www.w3.org/2000/svg">
<path d="M10.9011 12.75L12.3251 11.3494L10.4591 9.5142L9.03511 10.9148V11.5909H10.2136V12.75H10.9011ZM16.3025 4.05682C16.1715 3.92803 16.0365 3.93205 15.8974 4.06889L11.6008 8.29474C11.4617 8.43158 11.4576 8.56439 11.5885 8.69318C11.7195 8.82197 11.8545 8.81794 11.9936 8.68111L16.2902 4.45526C16.4293 4.31842 16.4334 4.18561 16.3025 4.05682ZM17.2846 11.2287V13.5227C17.2846 14.4806 16.9388 15.2996 16.2472 15.9798C15.5557 16.6599 14.723 17 13.7491 17H3.53548C2.56158 17 1.72886 16.6599 1.03732 15.9798C0.345773 15.2996 0 14.4806 0 13.5227V3.47727C0 2.51941 0.345773 1.7004 1.03732 1.02024C1.72886 0.34008 2.56158 0 3.53548 0H13.7491C14.2647 0 14.7434 0.100616 15.1854 0.301847C15.3081 0.358191 15.3818 0.450758 15.4063 0.579545C15.4309 0.716383 15.3941 0.833097 15.2959 0.929688L14.6943 1.52131C14.5798 1.634 14.4488 1.66619 14.3015 1.6179C14.1133 1.5696 13.9291 1.54545 13.7491 1.54545H3.53548C2.99534 1.54545 2.53294 1.73461 2.14829 2.11293C1.76365 2.49124 1.57132 2.94602 1.57132 3.47727V13.5227C1.57132 14.054 1.76365 14.5088 2.14829 14.8871C2.53294 15.2654 2.99534 15.4545 3.53548 15.4545H13.7491C14.2892 15.4545 14.7516 15.2654 15.1363 14.8871C15.5209 14.5088 15.7132 14.054 15.7132 13.5227V12.0014C15.7132 11.8968 15.7501 11.8082 15.8237 11.7358L16.6094 10.9631C16.7321 10.8423 16.8754 10.8142 17.039 10.8786C17.2027 10.9429 17.2846 11.0597 17.2846 11.2287ZM16.1061 2.31818L19.6415 5.79545L11.3921 13.9091H7.85662V10.4318L16.1061 2.31818ZM21.5566 3.91193L20.4272 5.02273L16.8917 1.54545L18.0211 0.434659C18.2503 0.20928 18.5285 0.0965909 18.8559 0.0965909C19.1832 0.0965909 19.4615 0.20928 19.6906 0.434659L21.5566 2.26989C21.7857 2.49527 21.9003 2.76894 21.9003 3.09091C21.9003 3.41288 21.7857 3.68655 21.5566 3.91193Z" fill="#2A404F"/>
</svg>
