<svg width="18" height="19" viewBox="0 0 18 19" fill="none" xmlns="http://www.w3.org/2000/svg">
<path fill-rule="evenodd" clip-rule="evenodd" d="M11.4887 0.149932L17.8312 6.50812C17.9385 6.60301 18 6.73956 18 6.88302C18 7.02647 17.9385 7.16302 17.8312 7.25791L15.1386 9.95714C15.045 10.0518 14.9176 10.105 14.7846 10.105C14.6517 10.105 14.5242 10.0518 14.4306 9.95714L13.8323 9.36731L11.6683 14.7958C11.4314 15.3924 10.9232 15.8387 10.302 15.9954L2.26429 17.9949C2.1848 18.0045 2.10444 18.0045 2.02495 17.9949C1.74958 18.0046 1.48247 17.8996 1.287 17.7049L0.28976 16.7052C0.0430246 16.4562 -0.0553867 16.0957 0.0304776 15.7555L2.02495 7.69778C2.18945 7.06628 2.65106 6.55502 3.26153 6.32817L8.67654 4.15879L8.08817 3.55896C7.99377 3.46511 7.94067 3.33734 7.94067 3.20406C7.94067 3.07078 7.99377 2.94302 8.08817 2.84916L10.7807 0.149932C10.8743 0.0553029 11.0018 0.0020752 11.1347 0.0020752C11.2677 0.0020752 11.3951 0.0553029 11.4887 0.149932ZM3.71029 15.5455L9.85328 14.016L12.3264 7.78776L10.2322 5.68836L4.01943 8.17765L2.47371 14.3059L5.32581 11.4467C5.44582 11.3278 5.51394 11.166 5.51529 10.9968C5.51529 10.1687 6.18501 9.49727 7.01115 9.49727C7.83729 9.49727 8.50701 10.1687 8.50701 10.9968C8.50701 11.825 7.83729 12.4964 7.01115 12.4964C6.84239 12.4978 6.68104 12.5661 6.56239 12.6864L3.71029 15.5455Z" fill="white"/>
</svg>
