<svg width="22" height="18" viewBox="0 0 22 18" fill="none" xmlns="http://www.w3.org/2000/svg">
<path d="M21.0018 9C21.0018 13.9706 16.9724 18 12.0018 18C10.1542 18.0061 8.35064 17.4363 6.84181 16.37C6.72125 16.2831 6.64457 16.148 6.63181 16C6.61987 15.8559 6.67093 15.7136 6.77181 15.61L7.49181 14.88C7.66082 14.7127 7.92425 14.6876 8.12181 14.82C9.26801 15.5925 10.6196 16.0036 12.0018 16C15.8678 16 19.0018 12.866 19.0018 9C19.0018 5.13401 15.8678 2 12.0018 2C8.13581 2 5.00181 5.13401 5.00181 9H7.36181C7.49739 8.99803 7.62773 9.05234 7.72181 9.15L7.92181 9.35C8.01646 9.44388 8.06971 9.57168 8.06971 9.705C8.06971 9.83832 8.01646 9.96612 7.92181 10.06L4.39181 13.6C4.19399 13.7918 3.87962 13.7918 3.68181 13.6L0.151805 10.06C0.0571491 9.96612 0.00390625 9.83832 0.00390625 9.705C0.00390625 9.57168 0.0571491 9.44388 0.151805 9.35L0.351805 9.15C0.445881 9.05234 0.57622 8.99803 0.711805 9H3.00181C3.00181 4.02944 7.03124 0 12.0018 0C16.9724 0 21.0018 4.02944 21.0018 9Z" fill="#AAB3B9"/>
</svg>
